<svg width="18" height="18" viewBox="0 0 18 18" fill="none" xmlns="http://www.w3.org/2000/svg">
<path d="M9.015 13.25C8.8637 13.25 8.71579 13.2949 8.58999 13.3789C8.46419 13.463 8.36613 13.5825 8.30823 13.7222C8.25033 13.862 8.23518 14.0158 8.2647 14.1642C8.29422 14.3126 8.36708 14.449 8.47406 14.5559C8.58105 14.6629 8.71736 14.7358 8.86575 14.7653C9.01415 14.7948 9.16797 14.7797 9.30775 14.7218C9.44754 14.6639 9.56701 14.5658 9.65107 14.44C9.73513 14.3142 9.78 14.1663 9.78 14.015C9.78 13.8121 9.6994 13.6175 9.55594 13.4741C9.41247 13.3306 9.21789 13.25 9.015 13.25Z" fill="#F2B42A"/>
<path d="M9 11.3333V6" stroke="#F2B42A" stroke-width="1.5" stroke-linecap="round"/>
<path d="M10.1527 1.71805C10.0469 1.5026 9.88278 1.32111 9.67903 1.1942C9.47529 1.06728 9.24005 1 9 1C8.75996 1 8.52472 1.06728 8.32097 1.1942C8.11722 1.32111 7.95312 1.5026 7.84729 1.71805L1.11094 15.4411C1.02985 15.606 0.99214 15.7889 1.00136 15.9725C1.01059 16.1561 1.06644 16.3343 1.16365 16.4903C1.26087 16.6463 1.39623 16.7749 1.55697 16.8641C1.7177 16.9532 1.89851 16.9999 2.08232 16.9998H15.9177C16.1015 16.9999 16.2823 16.9532 16.443 16.8641C16.6038 16.7749 16.7391 16.6463 16.8363 16.4903C16.9336 16.3343 16.9894 16.1561 16.9986 15.9725C17.0079 15.7889 16.9701 15.606 16.8891 15.4411L10.1527 1.71805Z" stroke="#F2B42A" stroke-width="1.5" stroke-linecap="round" stroke-linejoin="round"/>
</svg>
