<svg viewBox="0 0 32 32" xmlns="http://www.w3.org/2000/svg">
<path fill-rule="evenodd" clip-rule="evenodd" d="M12.2802 18.32L10.5002 19.36L9.49023 17.63L11.2702 16.59C11.1002 16.09 11.0002 15.55 11.0002 14.99C11.0002 14.43 11.1102 13.9 11.2802 13.4L9.49023 12.36L10.5002 10.63L12.2902 11.67C12.9902 10.88 13.9302 10.31 15.0002 10.09V7.98999H17.0002V10.09C18.0702 10.3 19.0102 10.87 19.7102 11.66L21.4902 10.62L22.5002 12.35L20.7202 13.39C20.8902 13.89 20.9902 14.43 20.9902 14.99C20.9902 15.55 20.8802 16.08 20.7102 16.58L22.5002 17.62L21.4902 19.35L19.7002 18.31C19.0002 19.1 18.0602 19.67 16.9902 19.89V21.99H14.9902V19.89C13.9202 19.68 12.9802 19.11 12.2802 18.32ZM19.0002 15C19.0002 13.34 17.6602 12 16.0002 12C14.3402 12 13.0002 13.34 13.0002 15C13.0002 16.66 14.3402 18 16.0002 18C17.6602 18 19.0002 16.66 19.0002 15Z" fill="#E39600"/>
<path fill-rule="evenodd" clip-rule="evenodd" d="M6 3H26C27.1 3 28 3.9 28 5V14C28 24.2609 20.4581 27.2888 16.3926 28.9209L16.37 28.93L16 29.08L15.63 28.93L15.6209 28.9263C11.5487 27.2955 4 24.2723 4 14V5C4 3.9 4.9 3 6 3ZM16 26.92C20.91 24.92 26 22.03 26 14V5H6V14C6 22.03 11.09 24.92 16 26.92Z" fill="#E39600"/>
</svg>