<svg viewBox="0 0 32 32" xmlns="http://www.w3.org/2000/svg">
<path d="M26 19C25.12 19 24.31 19.3 23.65 19.78L19.41 16.31C19.78 15.62 20 14.84 20 14C20 12.98 19.69 12.04 19.17 11.25L20.98 9.44001C21.57 9.79001 22.26 10.01 23 10.01C25.21 10.01 27 8.22001 27 6.01001C27 3.80001 25.21 2.01001 23 2.01001C20.79 2.01001 19 3.80001 19 6.01001C19 6.75001 19.22 7.43001 19.57 8.03001L17.76 9.84001C16.97 9.32001 16.02 9.01001 15.01 9.01001C13.89 9.01001 12.86 9.39001 12.03 10.02L9.56 7.82001C9.84 7.27001 10.01 6.66001 10.01 6.01001C10.01 3.80001 8.22 2.01001 6.01 2.01001C3.8 2.01001 2 3.79001 2 6.00001C2 8.21001 3.79 10 6 10C6.82 10 7.59 9.75001 8.23 9.32001L10.69 11.51C10.26 12.25 10 13.09 10 14C10 14.8 10.2 15.54 10.54 16.21L8.43 17.85C7.75 17.33 6.92 17.01 6 17.01C3.79 17.01 2 18.8 2 21.01C2 23.22 3.79 25.01 6 25.01C8.21 25.01 10 23.22 10 21.01C10 20.45 9.88 19.91 9.67 19.42L11.77 17.79C12.4 18.33 13.16 18.73 14 18.91V23.15C12.28 23.6 11 25.15 11 27.01C11 29.22 12.79 31.01 15 31.01C17.21 31.01 19 29.22 19 27.01C19 25.15 17.72 23.6 16 23.15V18.91C16.8 18.75 17.52 18.37 18.14 17.87L22.38 21.34C22.14 21.85 22 22.41 22 23.01C22 25.22 23.79 27.01 26 27.01C28.21 27.01 30 25.22 30 23.01C30 20.8 28.21 19.01 26 19.01V19ZM23 4.00001C24.1 4.00001 25 4.90001 25 6.00001C25 7.10001 24.1 8.00001 23 8.00001C21.9 8.00001 21 7.10001 21 6.00001C21 4.90001 21.9 4.00001 23 4.00001ZM6 8.00001C4.9 8.00001 4 7.10001 4 6.00001C4 4.90001 4.9 4.00001 6 4.00001C7.1 4.00001 8 4.90001 8 6.00001C8 7.10001 7.1 8.00001 6 8.00001ZM6 23C4.9 23 4 22.1 4 21C4 19.9 4.9 19 6 19C7.1 19 8 19.9 8 21C8 22.1 7.1 23 6 23ZM17 27C17 28.1 16.1 29 15 29C13.9 29 13 28.1 13 27C13 25.9 13.9 25 15 25C16.1 25 17 25.9 17 27ZM15 17C13.35 17 12 15.65 12 14C12 12.35 13.35 11 15 11C16.65 11 18 12.35 18 14C18 15.65 16.65 17 15 17ZM26 25C24.9 25 24 24.1 24 23C24 21.9 24.9 21 26 21C27.1 21 28 21.9 28 23C28 24.1 27.1 25 26 25Z" fill="#D31E23"/>
</svg>