<svg width="24" height="24" viewBox="0 0 24 24" fill="none" xmlns="http://www.w3.org/2000/svg">
<path fill-rule="evenodd" clip-rule="evenodd" d="M22.3923 14.8047L14.9357 22.2643L11.2694 22.9975L12.0027 19.3313L19.4632 11.8717C19.8508 11.4834 20.3768 11.2653 20.9253 11.2653C21.4739 11.2653 21.9999 11.4834 22.3874 11.8717L22.3962 11.8795C23.2028 12.6884 23.201 13.9979 22.3923 14.8047Z" stroke="#0CABF9" stroke-width="1.5" stroke-linecap="round" stroke-linejoin="round"/>
<path d="M8.33251 20.0645H2.4665C1.65658 20.0645 1 19.408 1 18.598V2.4665C1 1.65658 1.65658 1 2.4665 1H17.1315C17.9414 1 18.598 1.65658 18.598 2.4665V9.06576" stroke="#0CABF9" stroke-width="1.5" stroke-linecap="round" stroke-linejoin="round"/>
<path d="M8.33252 5.39954H14.1985" stroke="#0CABF9" stroke-width="1.5" stroke-linecap="round" stroke-linejoin="round"/>
<path d="M5.39954 9.79907H14.1985" stroke="#0CABF9" stroke-width="1.5" stroke-linecap="round" stroke-linejoin="round"/>
<path d="M5.39954 14.1985H12.732" stroke="#0CABF9" stroke-width="1.5" stroke-linecap="round" stroke-linejoin="round"/>
</svg>
