<svg viewBox="0 0 32 32" xmlns="http://www.w3.org/2000/svg">
<path d="M11.0136 6C11.2067 3.6534 13.4232 2 15.8462 2H19.1539C21.6901 2 24.0001 3.81149 24.0001 6.33333L24 8H24.5384C26.7537 8 28.8759 9.36711 29.3585 11.4399L27.4106 11.8934C27.1854 10.9262 26.0461 10 24.5384 10H21.9999L22.0001 6.33333C22 5.17519 20.8638 4 19.1539 4H15.8462C14.1362 4 13 5.17517 13 6.33333V8H9.99975C8.89529 8 8 8.89532 8 10V12C8 13.1047 8.89529 14 9.99975 14H15.9999V16H9.99975C7.7905 16 6 14.209 6 12V10C6 7.79097 7.7905 6 9.99975 6H11.0136Z" fill="#5B1BEF"/>
<path fill-rule="evenodd" clip-rule="evenodd" d="M9 22C7.89543 22 7 22.8954 7 24V28C7 29.1046 7.89543 30 9 30H13C14.1046 30 15 29.1046 15 28V27H24V18.4142L26.2929 20.7071L27.7071 19.2929L23 14.5858L18.2929 19.2929L19.7071 20.7071L22 18.4142V25H15V24C15 22.8954 14.1046 22 13 22H9ZM13 24H9V28H13V24Z" fill="#5B1BEF"/>
</svg>