<svg viewBox="0 0 32 32" xmlns="http://www.w3.org/2000/svg">
<path d="M28 8.25999L20.78 4.71999C19.97 4.22999 18.96 4.22999 18.15 4.71999L15.18 6.49999L13.15 4.68999C12.55 4.15999 11.7 4.02999 10.97 4.36999L3.99 7.61999V3.98999H2V28H4V23.57H6.2L11.14 27.55C11.62 28.02 12.26 28.27 12.9 28.27C13.51 28.27 14.12 28.06 14.63 27.62L16.3 25.97L28 24.43V28H30V3.99999H28V8.25999ZM13.28 26.14C13.06 26.33 12.73 26.31 12.52 26.11L6.9 21.57H3.99V9.82999L11.82 6.17999L13.38 7.57999L11.24 8.86999C9.16 9.90999 8.71 11.98 9.33 13.49C9.85 14.74 11.13 15.75 13.02 15.75C13.65 15.75 14.35 15.64 15.11 15.38L18.96 13.46L22.03 16.84C22.2 17.07 22.17 17.4 21.89 17.64L13.27 26.15L13.28 26.14ZM18.66 23.64L23.25 19.1C24.27 18.23 24.44 16.7 23.57 15.56L20.82 12.53L21.46 12.21L20.57 10.42L14.42 13.5C12.52 14.11 11.49 13.47 11.18 12.72C10.92 12.09 11.1 11.17 12.2 10.62L19.17 6.43999C19.35 6.33999 19.57 6.32999 19.81 6.47999L27.98 10.49V22.42L18.64 23.65L18.66 23.64Z" fill="#AB19DB"/>
</svg>