<svg viewBox="0 0 32 32" xmlns="http://www.w3.org/2000/svg">
<path d="M12 13.5C12 14.3284 11.3284 15 10.5 15C9.67157 15 9 14.3284 9 13.5C9 12.6716 9.67157 12 10.5 12C11.3284 12 12 12.6716 12 13.5Z"  fill="#064AE4" />
<path d="M16 15C16.8284 15 17.5 14.3284 17.5 13.5C17.5 12.6716 16.8284 12 16 12C15.1716 12 14.5 12.6716 14.5 13.5C14.5 14.3284 15.1716 15 16 15Z" fill="#064AE4" />
<path d="M23 13.5C23 14.3284 22.3284 15 21.5 15C20.6716 15 20 14.3284 20 13.5C20 12.6716 20.6716 12 21.5 12C22.3284 12 23 12.6716 23 13.5Z" fill="#064AE4"/>
<path fill-rule="evenodd" clip-rule="evenodd" d="M6 4H26C27.1 4 28 4.9 28 6V20C28 21.1 27.1 22 26 22H16.32L8 27.94V22H6C4.9 22 4 21.1 4 20V6C4 4.9 4.9 4 6 4ZM15.68 20H26V6H6V20H10V24.06L15.68 20Z" fill="#064AE4" />
</svg>