<svg viewBox="0 0 32 32" xmlns="http://www.w3.org/2000/svg">
<path d="M22 4H6V26H11V28H6C4.9 28 4 27.1 4 26V4C4 2.9 4.9 2 6 2H22C23.1 2 24 2.9 24 4V13H22V4Z" fill="#064AE4"/>
<path d="M8 8H20V10H8V8Z" fill="#064AE4"/>
<path d="M16 12H8V14H16V12Z" fill="#064AE4" />
<path fill-rule="evenodd" clip-rule="evenodd" d="M25.63 15.57L27.43 17.37C27.8 17.74 28 18.22 28 18.74C28 19.26 27.8 19.74 27.43 20.11L17.56 30.01H12.99V25.47L22.89 15.57C23.63 14.84 24.9 14.84 25.63 15.57ZM14.99 28H16.73L23.29 21.42L21.54 19.67L14.99 26.29V28ZM22.95 18.25L24.7 20L26.01 18.69L24.21 16.98L22.95 18.25Z" fill="#064AE4"/>
</svg>