<svg width="24" height="25" viewBox="0 0 24 25" fill="none" xmlns="http://www.w3.org/2000/svg">
<path d="M19.652 1.74805L15.902 3.99805L18.152 7.74805" stroke="#0CABF9" stroke-width="1.5" stroke-linecap="round" stroke-linejoin="round"/>
<path d="M23.25 9.18706C22.2105 6.33358 19.3931 4.52586 16.366 4.77006" stroke="#0CABF9" stroke-width="1.5" stroke-linecap="round" stroke-linejoin="round"/>
<path d="M4.34802 24.248L8.09802 21.998L5.84802 18.248" stroke="#0CABF9" stroke-width="1.5" stroke-linecap="round" stroke-linejoin="round"/>
<path d="M0.75 16.8081C1.78952 19.6616 4.6069 21.4693 7.634 21.2251" stroke="#0CABF9" stroke-width="1.5" stroke-linecap="round" stroke-linejoin="round"/>
<path fill-rule="evenodd" clip-rule="evenodd" d="M0.75 3.24805C0.75 2.41962 1.42157 1.74805 2.25 1.74805H11.25C12.0784 1.74805 12.75 2.41962 12.75 3.24805V12.248C12.75 13.0765 12.0784 13.748 11.25 13.748H2.25C1.42157 13.748 0.75 13.0765 0.75 12.248V3.24805Z" stroke="#0CABF9" stroke-width="1.5" stroke-linecap="round" stroke-linejoin="round"/>
<path d="M15.75 12.248H21.75C22.5784 12.248 23.25 12.9196 23.25 13.748V22.748C23.25 23.5765 22.5784 24.248 21.75 24.248H12.75C11.9216 24.248 11.25 23.5765 11.25 22.748V16.748" stroke="#0CABF9" stroke-width="1.5" stroke-linecap="round" stroke-linejoin="round"/>
<path d="M15.75 21.248V16.748C15.75 15.9196 16.4216 15.248 17.25 15.248C18.0784 15.248 18.75 15.9196 18.75 16.748V21.248" stroke="#0CABF9" stroke-width="1.5" stroke-linecap="round" stroke-linejoin="round"/>
<path d="M15.75 19.748H18.75" stroke="#0CABF9" stroke-width="1.5" stroke-linecap="round" stroke-linejoin="round"/>
<path d="M6.75 4.74805V6.24805" stroke="#0CABF9" stroke-width="1.5" stroke-linecap="round" stroke-linejoin="round"/>
<path d="M3.75 6.24805H9.75" stroke="#0CABF9" stroke-width="1.5" stroke-linecap="round" stroke-linejoin="round"/>
<path d="M8.25 6.24805C8.25 6.24805 6.75 10.748 3.75 10.748" stroke="#0CABF9" stroke-width="1.5" stroke-linecap="round" stroke-linejoin="round"/>
<path d="M6.74902 9.01404C7.42681 10.0251 8.53457 10.6654 9.74902 10.748" stroke="#0CABF9" stroke-width="1.5" stroke-linecap="round" stroke-linejoin="round"/>
</svg>
