<svg xmlns="http://www.w3.org/2000/svg" xmlns:xlink="http://www.w3.org/1999/xlink" xmlns:lucid="lucid" width="2160" height="1044"><g transform="translate(-220 -80)" lucid:page-tab-id="EgNMauj1-nO3"><path d="M980 234.5a6 6 0 0 1 6-6h188a6 6 0 0 1 6 6v31a6 6 0 0 1-6 6H986a6 6 0 0 1-6-6z" stroke="#2f3646" stroke-width="3" fill="#d9dbdd"/><use xlink:href="#a" transform="matrix(1,0,0,1,988,236.5) translate(14.429999999999993 21.38)"/><path d="M900 366a6 6 0 0 1 6-6h348a6 6 0 0 1 6 6v102a6 6 0 0 1-6 6H906a6 6 0 0 1-6-6z" stroke="#2f3646" stroke-width="3" fill="#d9dbdd"/><path d="M900 403.24h360" stroke="#2f3646" stroke-width="3" fill="none"/><use xlink:href="#b" transform="matrix(1,0,0,1,908,368) translate(78.96000000000001 21.759999999999998)"/><use xlink:href="#c" transform="matrix(1,0,0,1,912,411.24) translate(0 21.64)"/><use xlink:href="#d" transform="matrix(1,0,0,1,912,411.24) translate(16.64 21.64)"/><use xlink:href="#e" transform="matrix(1,0,0,1,912,411.24) translate(165.86 21.64)"/><use xlink:href="#c" transform="matrix(1,0,0,1,912,411.24) translate(0 48.879999999999995)"/><use xlink:href="#f" transform="matrix(1,0,0,1,912,411.24) translate(16.64 48.879999999999995)"/><use xlink:href="#g" transform="matrix(1,0,0,1,912,411.24) translate(204.32000000000005 48.879999999999995)"/><path d="M1080 357.5v-60.02" stroke="#6b707b" stroke-width="2" fill="none"/><path d="M1081 358.5h-2v-1.03h2z" stroke="#6b707b" stroke-width=".05" fill="#6b707b"/><path d="M1080 274.96l12.73 21.52h-25.46z" stroke="#6b707b" stroke-width="2" fill="#fff"/><path d="M1198.5 766a6 6 0 0 1 6-6h188a6 6 0 0 1 6 6v29a6 6 0 0 1-6 6h-188a6 6 0 0 1-6-6z" stroke="#224c72" stroke-width="3" fill="#dfe3e8"/><use xlink:href="#h" transform="matrix(1,0,0,1,1206.5000499999994,768) translate(16.984775570671275 16.59794852724709)"/><path d="M1292.25 417H1734a6 6 0 0 1 6 6v351.5a6 6 0 0 1-6 6h-315.5" stroke="#6b707b" stroke-width="2" fill="none"/><path d="M1262.9 417l14.86-14.85L1292.9 417l-15.14 14.85zM1403.24 780.5l14.26-4.63v9.26z" stroke="#6b707b" stroke-width="2" fill="#6b707b"/><path d="M1118.5 965a6 6 0 0 1 6-6h348a6 6 0 0 1 6 6v133a6 6 0 0 1-6 6h-348a6 6 0 0 1-6-6z" stroke="#064ae4" stroke-width="3" fill="#c2e2ff"/><path d="M1118.5 1002.24h360" stroke="#064ae4" stroke-width="3" fill="none"/><use xlink:href="#i" transform="matrix(1,0,0,1,1126.5000499999992,967) translate(51.17999999999999 21.759999999999998)"/><use xlink:href="#j" transform="matrix(1,0,0,1,1130.5000499999992,1010.24) translate(0 23.52)"/><use xlink:href="#k" transform="matrix(1,0,0,1,1130.5000499999992,1010.24) translate(16.64 23.52)"/><use xlink:href="#l" transform="matrix(1,0,0,1,1130.5000499999992,1010.24) translate(137.48 50.76)"/><use xlink:href="#j" transform="matrix(1,0,0,1,1130.5000499999992,1010.24) translate(0 78)"/><use xlink:href="#m" transform="matrix(1,0,0,1,1130.5000499999992,1010.24) translate(16.64 78)"/><use xlink:href="#n" transform="matrix(1,0,0,1,1130.5000499999992,1010.24) translate(109.44 78)"/><path d="M678.5 965a6 6 0 0 1 6-6h348a6 6 0 0 1 6 6v106a6 6 0 0 1-6 6h-348a6 6 0 0 1-6-6z" stroke="#064ae4" stroke-width="3" fill="#c2e2ff"/><path d="M678.5 1002.24h360" stroke="#064ae4" stroke-width="3" fill="none"/><use xlink:href="#o" transform="matrix(1,0,0,1,686.5000499999994,967) translate(67.84999999999998 21.759999999999998)"/><use xlink:href="#j" transform="matrix(1,0,0,1,690.5000499999994,1010.24) translate(0 23.64)"/><use xlink:href="#p" transform="matrix(1,0,0,1,690.5000499999994,1010.24) translate(16.64 23.64)"/><use xlink:href="#q" transform="matrix(1,0,0,1,690.5000499999994,1010.24) translate(178.40000000000003 23.64)"/><use xlink:href="#j" transform="matrix(1,0,0,1,690.5000499999994,1010.24) translate(0 50.879999999999995)"/><use xlink:href="#m" transform="matrix(1,0,0,1,690.5000499999994,1010.24) translate(16.64 50.879999999999995)"/><use xlink:href="#n" transform="matrix(1,0,0,1,690.5000499999994,1010.24) translate(109.44 50.879999999999995)"/><path d="M1558.5 965a6 6 0 0 1 6-6h348a6 6 0 0 1 6 6v106a6 6 0 0 1-6 6h-348a6 6 0 0 1-6-6z" stroke="#064ae4" stroke-width="3" fill="#c2e2ff"/><path d="M1558.5 1002.24h360" stroke="#064ae4" stroke-width="3" fill="none"/><use xlink:href="#r" transform="matrix(1,0,0,1,1566.5000499999994,967) translate(48.13000000000001 21.759999999999998)"/><use xlink:href="#j" transform="matrix(1,0,0,1,1570.5000499999994,1010.24) translate(0 23.64)"/><use xlink:href="#s" transform="matrix(1,0,0,1,1570.5000499999994,1010.24) translate(16.64 23.64)"/><use xlink:href="#t" transform="matrix(1,0,0,1,1570.5000499999994,1010.24) translate(167.57999999999996 50.879999999999995)"/><path d="M858.5 956.5V886a6 6 0 0 1 6-6h428a6 6 0 0 0 6-6v-47.02" stroke="#6b707b" stroke-width="2" fill="none"/><path d="M859.5 957.5h-2v-1.03h2z" stroke="#6b707b" stroke-width=".05" fill="#6b707b"/><path d="M1298.5 804.46l12.73 21.52h-25.46z" stroke="#6b707b" stroke-width="2" fill="#fff"/><path d="M1298.5 956.5V826.98" stroke="#6b707b" stroke-width="2" fill="none"/><path d="M1299.5 957.5h-2v-1.03h2z" stroke="#6b707b" stroke-width=".05" fill="#6b707b"/><path d="M1298.5 804.46l12.73 21.52h-25.46z" stroke="#6b707b" stroke-width="2" fill="#fff"/><path d="M1738.5 956.5V886a6 6 0 0 0-6-6h-428a6 6 0 0 1-6-6v-47.02" stroke="#6b707b" stroke-width="2" fill="none"/><path d="M1739.5 957.5h-2v-1.03h2z" stroke="#6b707b" stroke-width=".05" fill="#6b707b"/><path d="M1298.5 804.46l12.73 21.52h-25.46z" stroke="#6b707b" stroke-width="2" fill="#fff"/><path d="M678.5 607a6 6 0 0 1 6-6h348a6 6 0 0 1 6 6v78a6 6 0 0 1-6 6h-348a6 6 0 0 1-6-6z" stroke="#064ae4" stroke-width="3" fill="#c2e2ff"/><path d="M678.5 644.24h360" stroke="#064ae4" stroke-width="3" fill="none"/><use xlink:href="#u" transform="matrix(1,0,0,1,686.5000499999994,609) translate(81.24999999999999 21.759999999999998)"/><use xlink:href="#j" transform="matrix(1,0,0,1,690.5000499999994,652.24) translate(0 23.759999999999998)"/><use xlink:href="#v" transform="matrix(1,0,0,1,690.5000499999994,652.24) translate(16.64 23.759999999999998)"/><use xlink:href="#w" transform="matrix(1,0,0,1,690.5000499999994,652.24) translate(196.42000000000007 23.759999999999998)"/><path d="M1118.5 608a6 6 0 0 1 6-6h348a6 6 0 0 1 6 6v78a6 6 0 0 1-6 6h-348a6 6 0 0 1-6-6z" stroke="#064ae4" stroke-width="3" fill="#c2e2ff"/><path d="M1118.5 645.24h360" stroke="#064ae4" stroke-width="3" fill="none"/><use xlink:href="#x" transform="matrix(1,0,0,1,1126.5000499999994,610) translate(53.55 21.759999999999998)"/><path d="M1298.5 599.5V544a6 6 0 0 0-6-6H1086a6 6 0 0 1-6-6v-32.02" stroke="#6b707b" stroke-width="2" fill="none"/><path d="M1299.5 600.5h-2v-1.03h2z" stroke="#6b707b" stroke-width=".05" fill="#6b707b"/><path d="M1080 477.46l12.73 21.52h-25.46z" stroke="#6b707b" stroke-width="2" fill="#fff"/><path d="M858.5 598.5v-55a6 6 0 0 1 6-6H1074a6 6 0 0 0 6-6v-31.52" stroke="#6b707b" stroke-width="2" fill="none"/><path d="M859.5 599.5h-2v-1.03h2z" stroke="#6b707b" stroke-width=".05" fill="#6b707b"/><path d="M1080 477.46l12.73 21.52h-25.46z" stroke="#6b707b" stroke-width="2" fill="#fff"/><path d="M240 366a6 6 0 0 1 6-6h348a6 6 0 0 1 6 6v78a6 6 0 0 1-6 6H246a6 6 0 0 1-6-6z" stroke="#064ae4" stroke-width="3" fill="#c2e2ff"/><path d="M240 403.24h360" stroke="#064ae4" stroke-width="3" fill="none"/><g><use xlink:href="#y" transform="matrix(1,0,0,1,248,368) translate(106.41999999999999 21.759999999999998)"/></g><g><use xlink:href="#j" transform="matrix(1,0,0,1,252,411.24) translate(0 23.759999999999998)"/><use xlink:href="#z" transform="matrix(1,0,0,1,252,411.24) translate(16.64 23.759999999999998)"/><use xlink:href="#A" transform="matrix(1,0,0,1,252,411.24) translate(74.30000000000001 23.759999999999998)"/></g><path d="M867.75 444.3h-3.25a6 6 0 0 1-6-6V324.5a6 6 0 0 0-6-6H426a6 6 0 0 0-6 6V340" stroke="#6b707b" stroke-width="2" fill="none"/><path d="M897.1 444.3l-14.86 14.84-15.15-14.85 15.14-14.86zM420 355.26L415.37 341h9.26z" stroke="#6b707b" stroke-width="2" fill="#6b707b"/><path d="M646.25 667.02h-1.75a6 6 0 0 1-6-6V324.5a6 6 0 0 0-6-6H426a6 6 0 0 0-6 6V340" stroke="#6b707b" stroke-width="2" fill="none"/><path d="M675.6 667.02l-14.86 14.85-15.15-14.85 15.14-14.85zM420 355.26L415.37 341h9.26z" stroke="#6b707b" stroke-width="2" fill="#6b707b"/><path d="M980 106a6 6 0 0 1 6-6h188a6 6 0 0 1 6 6v31a6 6 0 0 1-6 6H986a6 6 0 0 1-6-6z" stroke="#2f3646" stroke-width="3" fill="#d9dbdd"/><g><use xlink:href="#B" transform="matrix(1,0,0,1,988,108) translate(56.37 21.38)"/></g><path d="M1080 226v-57.02" stroke="#6b707b" stroke-width="2" fill="none"/><path d="M1081 227h-2v-1.03h2z" stroke="#6b707b" stroke-width=".05" fill="#6b707b"/><path d="M1080 146.46l12.73 21.52h-25.46z" stroke="#6b707b" stroke-width="2" fill="#fff"/><defs><path fill="#1d262b" d="M712 0c1-188-3-380 7-559h-4L531 0H392L220-560h-4c13 177 8 371 9 560H90v-714h206l169 546h3l179-546h206V0H712" id="C"/><path fill="#1d262b" d="M45-269c1-179 86-283 258-287 151-1 247 93 245 248v72H196c2 82 52 136 136 135 79 0 127-16 185-43v115C461-2 409 10 325 10 148 7 46-88 45-269zm363-66c-2-66-34-117-104-115-66 2-100 46-105 115h209" id="D"/><path fill="#1d262b" d="M558-476c27-51 90-79 161-80 130 2 189 65 188 200V0H758v-319c0-79-27-118-82-118-88 2-109 69-109 163V0H418v-319c0-79-27-118-82-118-94 2-109 78-109 180V0H78v-546h114l20 70h8c27-51 88-79 159-80 81 0 138 26 166 80h13" id="E"/><path fill="#1d262b" d="M378 10c-76 2-118-32-151-70h-10L192 0H78v-760h149c-1 95 4 199-6 285h6c31-45 77-83 155-81 141 5 206 121 206 282 0 164-67 279-210 284zm58-286c1-90-26-161-102-161-91 0-107 65-107 162 0 96 18 164 109 164 74 0 101-76 100-165" id="F"/><path fill="#1d262b" d="M220-454c35-62 109-120 213-98l-11 140c-106-18-195 24-195 134V0H78v-546h113l22 92h7" id="G"/><path fill="#1d262b" d="M967-714L785 0H613c-44-180-98-350-130-542-31 193-86 361-129 542H182L0-714h149c42 193 95 373 126 577 30-209 91-384 137-577h143c46 192 106 370 137 577 31-204 84-384 126-577h149" id="H"/><path fill="#1d262b" d="M72-687c-2-54 33-72 81-73 47 1 81 20 81 73 0 52-34 72-81 73-48-1-83-21-81-73zm155 141V0H78v-546h149" id="I"/><path fill="#1d262b" d="M406-71c-31 45-77 83-155 81C111 5 45-111 45-272c0-164 67-279 210-284 78-1 126 35 157 80h5c-17-79-9-188-11-284h149V0H441l-29-71h-6zM196-270c0 92 27 161 107 161 95 0 113-64 113-162 0-99-19-164-115-164-77 0-106 75-105 165" id="J"/><path fill="#1d262b" d="M45-272c-2-159 65-281 210-284 67 0 120 27 158 80h4l12-70h126V1c-1 164-102 240-273 239-82 0-143-8-204-32V89c67 28 138 42 213 42 80 0 118-46 115-135 0-21 3-48 4-67h-4c-33 51-79 79-155 81C107 7 43-115 45-272zm371 19c1-111-15-180-114-182-70 0-105 55-105 165 0 109 36 163 107 163 87-3 112-49 112-146" id="K"/><path fill="#1d262b" d="M243-171c-4 82 106 65 159 45v111c-35 14-86 26-137 25C150 9 94-49 94-171v-263H23v-63l82-50 43-115h95v116h153v112H243v263" id="L"/><g id="a"><use transform="matrix(0.02,0,0,0.02,0,0)" xlink:href="#C"/><use transform="matrix(0.02,0,0,0.02,18.86,0)" xlink:href="#D"/><use transform="matrix(0.02,0,0,0.02,30.68,0)" xlink:href="#E"/><use transform="matrix(0.02,0,0,0.02,50.32,0)" xlink:href="#F"/><use transform="matrix(0.02,0,0,0.02,62.980000000000004,0)" xlink:href="#D"/><use transform="matrix(0.02,0,0,0.02,74.80000000000001,0)" xlink:href="#G"/><use transform="matrix(0.02,0,0,0.02,83.88,0)" xlink:href="#H"/><use transform="matrix(0.02,0,0,0.02,103.22000000000003,0)" xlink:href="#I"/><use transform="matrix(0.02,0,0,0.02,109.32000000000001,0)" xlink:href="#J"/><use transform="matrix(0.02,0,0,0.02,121.98,0)" xlink:href="#K"/><use transform="matrix(0.02,0,0,0.02,134.64000000000001,0)" xlink:href="#D"/><use transform="matrix(0.02,0,0,0.02,146.46,0)" xlink:href="#L"/></g><path fill="#1d262b" d="M527 0l-52-170H215L163 0H0l252-717h185L690 0H527zm-88-297c-32-102-65-203-94-309-28 107-61 206-92 309h186" id="M"/><path fill="#1d262b" d="M408-406c-47-19-90-39-149-40-57-2-79 25-57 60 81 70 264 66 257 224-3 125-95 173-233 172-78 0-124-9-180-32v-123c48 22 123 40 185 46 81 8 106-64 41-97-89-45-227-66-227-208 0-180 279-177 408-109" id="N"/><path fill="#1d262b" d="M311-556c169 3 261 108 263 282 3 174-98 287-266 284C139 7 47-99 45-274s97-285 266-282zm-2 120c-89 0-111 65-112 162 1 97 23 164 113 164 89 0 111-68 112-164-1-97-23-162-113-162" id="O"/><path fill="#1d262b" d="M466-31c-47 30-89 41-166 41C128 8 45-87 45-270c0-220 149-320 365-275 28 7 52 16 73 26l-44 115c-41-15-76-31-126-32-77 0-116 55-116 165-1 96 31 157 116 160 68 0 109-20 153-47v127" id="P"/><path fill="#1d262b" d="M93-508c55-29 128-49 209-49 140 0 227 57 227 193V0H425l-29-74h-4c-47 56-83 83-181 84C109 9 39-52 42-163c-1-166 165-176 339-177 6-70-22-108-85-107-61 0-108 21-154 40zM267-99c64 0 116-42 114-109v-45c-95 1-187 4-186 91-1 45 29 62 72 63" id="Q"/><path fill="#1d262b" d="M220-476c29-51 93-79 168-80 124 2 194 67 194 200V0H433v-319c-1-72-20-117-88-118-100 1-118 75-118 180V0H78v-546h114l20 70h8" id="R"/><g id="b"><use transform="matrix(0.02,0,0,0.02,0,0)" xlink:href="#M"/><use transform="matrix(0.02,0,0,0.02,13.8,0)" xlink:href="#N"/><use transform="matrix(0.02,0,0,0.02,23.740000000000002,0)" xlink:href="#N"/><use transform="matrix(0.02,0,0,0.02,33.68,0)" xlink:href="#O"/><use transform="matrix(0.02,0,0,0.02,46.06,0)" xlink:href="#P"/><use transform="matrix(0.02,0,0,0.02,56.34,0)" xlink:href="#I"/><use transform="matrix(0.02,0,0,0.02,62.440000000000005,0)" xlink:href="#Q"/><use transform="matrix(0.02,0,0,0.02,74.52000000000001,0)" xlink:href="#L"/><use transform="matrix(0.02,0,0,0.02,83.20000000000002,0)" xlink:href="#I"/><use transform="matrix(0.02,0,0,0.02,89.30000000000003,0)" xlink:href="#O"/><use transform="matrix(0.02,0,0,0.02,101.68,0)" xlink:href="#R"/><use transform="matrix(0.02,0,0,0.02,114.82000000000001,0)" xlink:href="#H"/><use transform="matrix(0.02,0,0,0.02,134.16,0)" xlink:href="#I"/><use transform="matrix(0.02,0,0,0.02,140.26,0)" xlink:href="#J"/><use transform="matrix(0.02,0,0,0.02,152.92,0)" xlink:href="#K"/><use transform="matrix(0.02,0,0,0.02,165.57999999999996,0)" xlink:href="#D"/><use transform="matrix(0.02,0,0,0.02,177.39999999999998,0)" xlink:href="#L"/></g><path fill="#1d262b" d="M321-388h199v71H321v206h-72v-206H50v-71h199v-207h72v207" id="S"/><use transform="matrix(0.02,0,0,0.02,0,0)" xlink:href="#S" id="c"/><path fill="#1d262b" d="M246-474c-75 0-138 40-98 102 80 80 284 66 286 224 0 112-95 158-214 158C149 10 97-1 52-24v-80c68 41 288 86 297-36-11-69-69-74-132-104-80-36-163-53-166-160-4-161 250-168 372-106l-30 70c-42-17-91-34-147-34" id="T"/><path fill="#1d262b" d="M55-264c2-166 77-282 237-282 163 0 232 117 221 295H146c1 115 59 186 171 186 74 0 118-15 172-37v77c-55 23-99 35-176 35C146 6 56-92 55-264zm366-57c-2-88-39-155-130-153-91 1-135 65-143 153h273" id="U"/><path fill="#1d262b" d="M173 0H85v-760h88V0" id="V"/><path fill="#1d262b" d="M438-19c-39 19-78 29-138 29C136 6 55-93 55-265c0-205 125-311 330-273 25 6 46 13 62 21l-27 73c-29-11-77-25-116-25-105 0-158 68-158 203 0 118 42 198 153 200 58 1 100-14 139-31v78" id="W"/><path fill="#1d262b" d="M180-158c-9 93 83 112 159 85v67c-18 10-61 16-90 16C146 8 92-45 92-156v-312H16v-42l77-35 35-114h52v123h155v68H180v310" id="X"/><path fill="#1d262b" d="M304-546c162 0 245 109 247 277 3 167-90 279-250 279C140 10 57-102 55-269c-3-167 89-277 249-277zm-2 74c-116 0-155 84-156 203 1 118 41 206 157 206 115 0 157-88 157-206-1-119-42-203-158-203" id="Y"/><path fill="#1d262b" d="M171-438c38-67 114-131 227-102l-11 81c-127-30-214 51-214 173V0H85v-536h72l10 98h4" id="Z"/><path fill="#1d262b" d="M457-607c-87-45-309-75-306 66 5 99 78 110 156 144 99 43 192 73 195 206C502-56 390 12 247 10 173 10 99-1 51-24v-86c98 48 366 86 361-73-3-101-84-112-168-147-104-43-180-82-184-212-6-199 273-214 425-142" id="aa"/><path fill="#1d262b" d="M287-63c123 0 158-72 158-194v-279h88V0h-72l-13-71h-4c-30 52-94 80-170 81C142 9 79-50 79-185v-351h89v345c0 85 40 128 119 128" id="ab"/><path fill="#1d262b" d="M133-414c-37-1-63-25-61-68-2-45 22-66 61-68 39 1 65 22 63 68 2 44-25 67-63 68zm0 428c-37-1-63-25-61-68-2-44 23-66 61-67 39 1 65 22 63 67 2 44-25 67-63 68" id="ac"/><g id="d"><use transform="matrix(0.02,0,0,0.02,0,0)" xlink:href="#T"/><use transform="matrix(0.02,0,0,0.02,9.58,0)" xlink:href="#U"/><use transform="matrix(0.02,0,0,0.02,20.86,0)" xlink:href="#V"/><use transform="matrix(0.02,0,0,0.02,26.02,0)" xlink:href="#U"/><use transform="matrix(0.02,0,0,0.02,37.3,0)" xlink:href="#W"/><use transform="matrix(0.02,0,0,0.02,46.9,0)" xlink:href="#X"/><use transform="matrix(0.02,0,0,0.02,54.120000000000005,0)" xlink:href="#Y"/><use transform="matrix(0.02,0,0,0.02,66.22,0)" xlink:href="#Z"/><use transform="matrix(0.02,0,0,0.02,74.48,0)" xlink:href="#aa"/><use transform="matrix(0.02,0,0,0.02,85.46000000000001,0)" xlink:href="#Y"/><use transform="matrix(0.02,0,0,0.02,97.56,0)" xlink:href="#ab"/><use transform="matrix(0.02,0,0,0.02,109.92,0)" xlink:href="#Z"/><use transform="matrix(0.02,0,0,0.02,117.78,0)" xlink:href="#W"/><use transform="matrix(0.02,0,0,0.02,127.38000000000001,0)" xlink:href="#U"/><use transform="matrix(0.02,0,0,0.02,138.66,0)" xlink:href="#ac"/></g><g id="e"><use transform="matrix(0.02,0,0,0.02,0,0)" xlink:href="#aa"/><use transform="matrix(0.02,0,0,0.02,10.98,0)" xlink:href="#U"/><use transform="matrix(0.02,0,0,0.02,22.259999999999994,0)" xlink:href="#V"/><use transform="matrix(0.02,0,0,0.02,27.419999999999995,0)" xlink:href="#U"/><use transform="matrix(0.02,0,0,0.02,38.699999999999996,0)" xlink:href="#W"/><use transform="matrix(0.02,0,0,0.02,48.300000000000004,0)" xlink:href="#X"/><use transform="matrix(0.02,0,0,0.02,55.51999999999999,0)" xlink:href="#Y"/><use transform="matrix(0.02,0,0,0.02,67.61999999999999,0)" xlink:href="#Z"/><use transform="matrix(0.02,0,0,0.02,75.88,0)" xlink:href="#aa"/><use transform="matrix(0.02,0,0,0.02,86.86,0)" xlink:href="#Y"/><use transform="matrix(0.02,0,0,0.02,98.96000000000001,0)" xlink:href="#ab"/><use transform="matrix(0.02,0,0,0.02,111.31999999999998,0)" xlink:href="#Z"/><use transform="matrix(0.02,0,0,0.02,119.17999999999998,0)" xlink:href="#W"/><use transform="matrix(0.02,0,0,0.02,128.78,0)" xlink:href="#U"/></g><path fill="#1d262b" d="M554-504c0 158-111 227-285 226h-82V0H97v-714h189c168-1 268 59 268 210zm-93 4c0-136-129-143-274-137v282c149 3 274-3 274-145" id="ad"/><path fill="#1d262b" d="M105-499c45-24 114-47 183-46 129 1 191 52 192 180V0h-64l-17-76h-4c-47 56-81 85-180 86C116 9 43-43 46-149c3-159 172-173 348-174 7-99-22-152-111-151-59-1-110 22-151 41zM235-61c93-1 161-53 158-153v-48c-125 5-256-1-256 114-1 59 41 87 98 87" id="ae"/><path fill="#1d262b" d="M55-267c0-156 73-278 220-279 79 1 132 31 168 81h5l12-71h70V9c-1 157-79 231-240 231-79 0-143-11-193-34v-81c53 28 119 42 198 42 98 0 156-66 148-172 0-12 2-55 3-66h-4c-36 54-91 81-166 81C127 9 55-107 55-267zm389 21c2-143-28-226-157-226-102 0-142 91-141 206 0 117 37 204 143 204 116 0 154-62 155-184" id="af"/><path fill="#1d262b" d="M78-681c-1-36 20-55 52-56 30 1 53 21 51 56 2 34-22 55-51 56-31 0-53-21-52-56zm95 145V0H85v-536h88" id="ag"/><path fill="#1d262b" d="M174-463c29-51 94-82 169-83 132 1 195 61 194 197V0h-87v-343c0-86-40-129-120-129-123 0-157 72-157 194V0H85v-536h71l13 73h5" id="ah"/><g id="f"><use transform="matrix(0.02,0,0,0.02,0,0)" xlink:href="#T"/><use transform="matrix(0.02,0,0,0.02,9.58,0)" xlink:href="#U"/><use transform="matrix(0.02,0,0,0.02,20.86,0)" xlink:href="#V"/><use transform="matrix(0.02,0,0,0.02,26.02,0)" xlink:href="#U"/><use transform="matrix(0.02,0,0,0.02,37.3,0)" xlink:href="#W"/><use transform="matrix(0.02,0,0,0.02,46.9,0)" xlink:href="#X"/><use transform="matrix(0.02,0,0,0.02,54.120000000000005,0)" xlink:href="#ad"/><use transform="matrix(0.02,0,0,0.02,66.22,0)" xlink:href="#ae"/><use transform="matrix(0.02,0,0,0.02,77.44,0)" xlink:href="#af"/><use transform="matrix(0.02,0,0,0.02,89.74,0)" xlink:href="#U"/><use transform="matrix(0.02,0,0,0.02,101.02,0)" xlink:href="#aa"/><use transform="matrix(0.02,0,0,0.02,112,0)" xlink:href="#U"/><use transform="matrix(0.02,0,0,0.02,123.28,0)" xlink:href="#X"/><use transform="matrix(0.02,0,0,0.02,130.5,0)" xlink:href="#X"/><use transform="matrix(0.02,0,0,0.02,137.72,0)" xlink:href="#ag"/><use transform="matrix(0.02,0,0,0.02,142.88,0)" xlink:href="#ah"/><use transform="matrix(0.02,0,0,0.02,155.24,0)" xlink:href="#af"/><use transform="matrix(0.02,0,0,0.02,167.54,0)" xlink:href="#T"/><use transform="matrix(0.02,0,0,0.02,177.12000000000003,0)" xlink:href="#ac"/></g><g id="g"><use transform="matrix(0.02,0,0,0.02,0,0)" xlink:href="#ad"/><use transform="matrix(0.02,0,0,0.02,12.1,0)" xlink:href="#ae"/><use transform="matrix(0.02,0,0,0.02,23.32,0)" xlink:href="#af"/><use transform="matrix(0.02,0,0,0.02,35.620000000000005,0)" xlink:href="#U"/><use transform="matrix(0.02,0,0,0.02,46.90000000000001,0)" xlink:href="#aa"/><use transform="matrix(0.02,0,0,0.02,57.88000000000001,0)" xlink:href="#U"/><use transform="matrix(0.02,0,0,0.02,69.16000000000001,0)" xlink:href="#X"/><use transform="matrix(0.02,0,0,0.02,76.38000000000001,0)" xlink:href="#X"/><use transform="matrix(0.02,0,0,0.02,83.60000000000001,0)" xlink:href="#ag"/><use transform="matrix(0.02,0,0,0.02,88.76,0)" xlink:href="#ah"/><use transform="matrix(0.02,0,0,0.02,101.12,0)" xlink:href="#af"/><use transform="matrix(0.02,0,0,0.02,113.42,0)" xlink:href="#T"/></g><path d="M169-182c-1-43-94-46-97-3 18 66 151 10 154 114 3 95-165 93-204 36-6-8-10-19-12-30l50-8c3 46 112 56 116 5-17-69-150-10-154-114-4-87 153-88 188-35 5 8 8 18 10 28" id="ai"/><path d="M185-48c-13 30-37 53-82 52C43 2 14-33 14-96s30-98 90-98c62 0 83 45 84 108H66c0 31 8 55 39 56 18 0 30-7 34-22zm-45-69c5-46-57-63-70-21-2 6-4 13-4 21h74" id="aj"/><path d="M25 0v-261h50V0H25" id="ak"/><path d="M190-63c-7 42-38 67-86 67-59 0-84-38-90-98-12-110 154-137 174-36l-49 2c-2-19-15-32-35-32-30 0-35 28-38 64-6 74 65 87 74 30" id="al"/><path d="M115-3C79 11 28 4 28-45v-112H4v-33h27l15-45h31v45h36v33H77v99c-1 23 16 31 38 25v30" id="am"/><path d="M110-194c64 0 96 36 96 99 0 64-35 99-97 99-61 0-95-36-95-99 0-62 34-99 96-99zm-1 164c35 0 45-28 45-65 0-40-10-65-43-65-34 0-45 26-45 65 0 36 10 65 43 65" id="an"/><path d="M135-150c-39-12-60 13-60 57V0H25l-1-190h47c2 13-1 29 3 40 6-28 27-53 61-41v41" id="ao"/><path d="M85 4C-2 5 27-109 22-190h50c7 57-23 150 33 157 60-5 35-97 40-157h50l1 190h-47c-2-12 1-28-3-38-12 25-28 42-61 42" id="ap"/><g id="h"><use transform="matrix(0.05691595176732072,0,0,0.05691595176732072,0,0)" xlink:href="#ai"/><use transform="matrix(0.05691595176732072,0,0,0.05691595176732072,13.659828424156974,0)" xlink:href="#aj"/><use transform="matrix(0.05691595176732072,0,0,0.05691595176732072,25.043018777621118,0)" xlink:href="#ak"/><use transform="matrix(0.05691595176732072,0,0,0.05691595176732072,30.73461395435319,0)" xlink:href="#aj"/><use transform="matrix(0.05691595176732072,0,0,0.05691595176732072,42.11780430781734,0)" xlink:href="#al"/><use transform="matrix(0.05691595176732072,0,0,0.05691595176732072,53.50099466128148,0)" xlink:href="#am"/><use transform="matrix(0.05691595176732072,0,0,0.05691595176732072,60.27399292159266,0)" xlink:href="#an"/><use transform="matrix(0.05691595176732072,0,0,0.05691595176732072,72.73858635863589,0)" xlink:href="#ao"/><use transform="matrix(0.05691595176732072,0,0,0.05691595176732072,80.70681960606079,0)" xlink:href="#ai"/><use transform="matrix(0.05691595176732072,0,0,0.05691595176732072,94.36664803021776,0)" xlink:href="#an"/><use transform="matrix(0.05691595176732072,0,0,0.05691595176732072,106.831241467261,0)" xlink:href="#ap"/><use transform="matrix(0.05691595176732072,0,0,0.05691595176732072,119.29583490430423,0)" xlink:href="#ao"/><use transform="matrix(0.05691595176732072,0,0,0.05691595176732072,127.26406815172913,0)" xlink:href="#al"/><use transform="matrix(0.05691595176732072,0,0,0.05691595176732072,138.6472585051933,0)" xlink:href="#aj"/></g><path fill="#1d262b" d="M291-598c-84-7-119 90-55 132 101 66 281 95 275 268C509-59 400 13 248 10 173 10 105-4 46-33v-141c61 24 133 59 214 59 85 0 135-70 84-122-93-93-286-96-290-284-3-172 177-234 348-190 34 9 69 21 106 37l-49 118c-57-22-99-36-168-42" id="aq"/><path fill="#1d262b" d="M227 0H78v-760h149V0" id="ar"/><path fill="#1d262b" d="M314-714c229 4 366 119 368 350C684-121 535 0 292 0H90v-714h224zm211 354c1-150-62-228-203-230h-81v465c186 15 286-53 284-235" id="as"/><path fill="#1d262b" d="M312-109c100-1 118-75 118-180v-257h149V0H465l-20-70h-8c-29 51-93 79-168 80C145 8 75-57 75-190v-356h149v319c1 71 21 117 88 118" id="at"/><g id="i"><use transform="matrix(0.02,0,0,0.02,0,0)" xlink:href="#aq"/><use transform="matrix(0.02,0,0,0.02,11.02,0)" xlink:href="#D"/><use transform="matrix(0.02,0,0,0.02,22.84,0)" xlink:href="#ar"/><use transform="matrix(0.02,0,0,0.02,28.94,0)" xlink:href="#D"/><use transform="matrix(0.02,0,0,0.02,40.760000000000005,0)" xlink:href="#P"/><use transform="matrix(0.02,0,0,0.02,51.04000000000001,0)" xlink:href="#L"/><use transform="matrix(0.02,0,0,0.02,59.72000000000001,0)" xlink:href="#O"/><use transform="matrix(0.02,0,0,0.02,72.10000000000001,0)" xlink:href="#G"/><use transform="matrix(0.02,0,0,0.02,81.18,0)" xlink:href="#as"/><use transform="matrix(0.02,0,0,0.02,95.98,0)" xlink:href="#Q"/><use transform="matrix(0.02,0,0,0.02,108.06,0)" xlink:href="#L"/><use transform="matrix(0.02,0,0,0.02,116.74000000000001,0)" xlink:href="#Q"/><use transform="matrix(0.02,0,0,0.02,128.82000000000002,0)" xlink:href="#F"/><use transform="matrix(0.02,0,0,0.02,141.48000000000002,0)" xlink:href="#Q"/><use transform="matrix(0.02,0,0,0.02,153.56000000000003,0)" xlink:href="#N"/><use transform="matrix(0.02,0,0,0.02,163.50000000000003,0)" xlink:href="#D"/><use transform="matrix(0.02,0,0,0.02,175.32,0)" xlink:href="#aq"/><use transform="matrix(0.02,0,0,0.02,186.34000000000003,0)" xlink:href="#O"/><use transform="matrix(0.02,0,0,0.02,198.72000000000003,0)" xlink:href="#at"/><use transform="matrix(0.02,0,0,0.02,211.86,0)" xlink:href="#G"/><use transform="matrix(0.02,0,0,0.02,220.54,0)" xlink:href="#P"/><use transform="matrix(0.02,0,0,0.02,230.82,0)" xlink:href="#D"/></g><use transform="matrix(0.02,0,0,0.02,0,0)" xlink:href="#S" id="j"/><path fill="#1d262b" d="M442-72c-34 45-85 84-167 82C127 7 55-102 55-267s73-275 221-279c82-2 131 35 166 79h6c-11-89-4-195-6-293h88V0h-71l-13-72h-4zM146-265c0 115 37 200 143 202 125 0 156-74 154-203-2-127-29-207-155-207-105 1-142 96-142 208" id="au"/><path fill="#1d262b" d="M339 10c-81 2-133-34-166-78h-7L148 0H85v-760h88c-1 97 4 206-5 295h5c33-46 84-82 166-80 148 3 221 112 221 277S486 6 339 10zm-13-73c108-3 143-88 143-206 0-135-48-203-145-203-125 2-151 75-151 205 0 126 28 204 153 204" id="av"/><path fill="#1d262b" d="M565-606c-44-19-98-40-162-39-160 0-250 121-247 288 0 170 77 289 246 288 65 0 119-13 171-28v78C517 2 467 10 389 10 164 8 61-134 61-358s119-362 343-366c75 0 141 14 197 42" id="aw"/><g id="k"><use transform="matrix(0.02,0,0,0.02,0,0)" xlink:href="#au"/><use transform="matrix(0.02,0,0,0.02,12.3,0)" xlink:href="#ae"/><use transform="matrix(0.02,0,0,0.02,23.520000000000007,0)" xlink:href="#X"/><use transform="matrix(0.02,0,0,0.02,30.740000000000002,0)" xlink:href="#ae"/><use transform="matrix(0.02,0,0,0.02,41.96,0)" xlink:href="#av"/><use transform="matrix(0.02,0,0,0.02,54.26,0)" xlink:href="#ae"/><use transform="matrix(0.02,0,0,0.02,65.48,0)" xlink:href="#T"/><use transform="matrix(0.02,0,0,0.02,75.06,0)" xlink:href="#U"/><use transform="matrix(0.02,0,0,0.02,86.34,0)" xlink:href="#aw"/><use transform="matrix(0.02,0,0,0.02,98.98,0)" xlink:href="#Y"/><use transform="matrix(0.02,0,0,0.02,111.08,0)" xlink:href="#ah"/><use transform="matrix(0.02,0,0,0.02,123.44,0)" xlink:href="#X"/><use transform="matrix(0.02,0,0,0.02,130.66,0)" xlink:href="#Z"/><use transform="matrix(0.02,0,0,0.02,138.51999999999998,0)" xlink:href="#ae"/><use transform="matrix(0.02,0,0,0.02,149.73999999999998,0)" xlink:href="#ag"/><use transform="matrix(0.02,0,0,0.02,154.89999999999998,0)" xlink:href="#ah"/><use transform="matrix(0.02,0,0,0.02,167.26,0)" xlink:href="#X"/><use transform="matrix(0.02,0,0,0.02,174.48,0)" xlink:href="#T"/><use transform="matrix(0.02,0,0,0.02,184.06,0)" xlink:href="#ac"/></g><path fill="#1d262b" d="M317-714c225 4 350 122 352 350C671-125 531 0 296 0H97v-714h220zm257 353c2-185-92-274-270-276H187v560h97c193 0 290-95 290-284" id="ax"/><path fill="#1d262b" d="M304 158H80v-872h224v72H166V86h138v72" id="ay"/><path fill="#1d262b" d="M25 86h138v-728H25v-72h224v872H25V86" id="az"/><g id="l"><use transform="matrix(0.02,0,0,0.02,0,0)" xlink:href="#ax"/><use transform="matrix(0.02,0,0,0.02,14.6,0)" xlink:href="#ae"/><use transform="matrix(0.02,0,0,0.02,25.82,0)" xlink:href="#X"/><use transform="matrix(0.02,0,0,0.02,33.04,0)" xlink:href="#ae"/><use transform="matrix(0.02,0,0,0.02,44.26,0)" xlink:href="#av"/><use transform="matrix(0.02,0,0,0.02,56.56,0)" xlink:href="#ae"/><use transform="matrix(0.02,0,0,0.02,67.78,0)" xlink:href="#T"/><use transform="matrix(0.02,0,0,0.02,77.36,0)" xlink:href="#U"/><use transform="matrix(0.02,0,0,0.02,88.64,0)" xlink:href="#aw"/><use transform="matrix(0.02,0,0,0.02,101.28,0)" xlink:href="#Y"/><use transform="matrix(0.02,0,0,0.02,113.38,0)" xlink:href="#ah"/><use transform="matrix(0.02,0,0,0.02,125.74000000000001,0)" xlink:href="#T"/><use transform="matrix(0.02,0,0,0.02,135.32,0)" xlink:href="#X"/><use transform="matrix(0.02,0,0,0.02,142.54,0)" xlink:href="#Z"/><use transform="matrix(0.02,0,0,0.02,150.39999999999998,0)" xlink:href="#ae"/><use transform="matrix(0.02,0,0,0.02,161.61999999999998,0)" xlink:href="#ag"/><use transform="matrix(0.02,0,0,0.02,166.77999999999997,0)" xlink:href="#ah"/><use transform="matrix(0.02,0,0,0.02,179.14000000000001,0)" xlink:href="#X"/><use transform="matrix(0.02,0,0,0.02,186.35999999999996,0)" xlink:href="#ay"/><use transform="matrix(0.02,0,0,0.02,192.94,0)" xlink:href="#az"/></g><path fill="#1d262b" d="M596-203C596-67 490 0 348 0H97v-714h204c159 3 267 29 271 177-1 90-55 144-136 158v5c93 16 161 60 160 171zM479-527c5-131-159-107-292-110v227h132c108-1 156-24 160-117zm21 317c0-93-63-125-176-125H187v259h144c112 2 169-39 169-134" id="aA"/><g id="m"><use transform="matrix(0.02,0,0,0.02,0,0)" xlink:href="#T"/><use transform="matrix(0.02,0,0,0.02,9.58,0)" xlink:href="#Y"/><use transform="matrix(0.02,0,0,0.02,21.68,0)" xlink:href="#Z"/><use transform="matrix(0.02,0,0,0.02,29.939999999999998,0)" xlink:href="#X"/><use transform="matrix(0.02,0,0,0.02,37.16,0)" xlink:href="#aA"/><use transform="matrix(0.02,0,0,0.02,50.160000000000004,0)" xlink:href="#ae"/><use transform="matrix(0.02,0,0,0.02,61.379999999999995,0)" xlink:href="#T"/><use transform="matrix(0.02,0,0,0.02,70.96,0)" xlink:href="#U"/><use transform="matrix(0.02,0,0,0.02,82.24,0)" xlink:href="#ac"/></g><path fill="#1d262b" d="M424-68c57 0 98-7 140-17v-212H407v-80h247v350C576-2 506 10 403 10 175 8 64-129 61-357c-3-271 199-407 483-356 36 7 69 18 100 31l-34 78c-49-21-115-42-184-41-172-2-273 114-271 288 3 180 83 290 269 289" id="aB"/><g id="n"><use transform="matrix(0.02,0,0,0.02,0,0)" xlink:href="#aB"/><use transform="matrix(0.02,0,0,0.02,14.56,0)" xlink:href="#Z"/><use transform="matrix(0.02,0,0,0.02,22.82,0)" xlink:href="#ag"/><use transform="matrix(0.02,0,0,0.02,27.98,0)" xlink:href="#au"/><use transform="matrix(0.02,0,0,0.02,40.28,0)" xlink:href="#aa"/><use transform="matrix(0.02,0,0,0.02,51.26,0)" xlink:href="#Y"/><use transform="matrix(0.02,0,0,0.02,63.360000000000014,0)" xlink:href="#Z"/><use transform="matrix(0.02,0,0,0.02,71.62,0)" xlink:href="#X"/><use transform="matrix(0.02,0,0,0.02,78.84,0)" xlink:href="#aA"/><use transform="matrix(0.02,0,0,0.02,91.84,0)" xlink:href="#ae"/><use transform="matrix(0.02,0,0,0.02,103.06,0)" xlink:href="#Z"/></g><path fill="#1d262b" d="M667 0H494L328-270 162 0H0l237-368L15-714h167l154 257 151-257h163L426-360" id="aC"/><path fill="#1d262b" d="M583-491c0 183-133 252-342 237V0H90v-714h228c169-2 265 70 265 223zM241-378c103 5 189-11 189-108 0-96-84-112-189-104v212" id="aD"/><path fill="#1d262b" d="M345-437c-99 2-118 75-118 180V0H78v-760h149c-1 94 3 201-7 284h8c30-51 83-79 158-80 124 2 196 67 196 200V0H433v-319c0-79-29-118-88-118" id="aE"/><g id="o"><use transform="matrix(0.02,0,0,0.02,0,0)" xlink:href="#aq"/><use transform="matrix(0.02,0,0,0.02,11.02,0)" xlink:href="#D"/><use transform="matrix(0.02,0,0,0.02,22.84,0)" xlink:href="#ar"/><use transform="matrix(0.02,0,0,0.02,28.94,0)" xlink:href="#D"/><use transform="matrix(0.02,0,0,0.02,40.760000000000005,0)" xlink:href="#P"/><use transform="matrix(0.02,0,0,0.02,51.04000000000001,0)" xlink:href="#L"/><use transform="matrix(0.02,0,0,0.02,59.72000000000001,0)" xlink:href="#O"/><use transform="matrix(0.02,0,0,0.02,72.10000000000001,0)" xlink:href="#G"/><use transform="matrix(0.02,0,0,0.02,81.18,0)" xlink:href="#aC"/><use transform="matrix(0.02,0,0,0.02,94.52,0)" xlink:href="#aD"/><use transform="matrix(0.02,0,0,0.02,107.08000000000003,0)" xlink:href="#Q"/><use transform="matrix(0.02,0,0,0.02,119.16,0)" xlink:href="#L"/><use transform="matrix(0.02,0,0,0.02,127.84,0)" xlink:href="#aE"/><use transform="matrix(0.02,0,0,0.02,140.98000000000002,0)" xlink:href="#aq"/><use transform="matrix(0.02,0,0,0.02,152.00000000000003,0)" xlink:href="#O"/><use transform="matrix(0.02,0,0,0.02,164.38000000000005,0)" xlink:href="#at"/><use transform="matrix(0.02,0,0,0.02,177.52000000000004,0)" xlink:href="#G"/><use transform="matrix(0.02,0,0,0.02,186.20000000000005,0)" xlink:href="#P"/><use transform="matrix(0.02,0,0,0.02,196.48000000000005,0)" xlink:href="#D"/></g><path fill="#1d262b" d="M212-274L27-536h100l138 202 137-202h99L316-274 511 0H411L265-214 117 0H18" id="aF"/><path fill="#1d262b" d="M330-472c-124 0-157 72-157 195V0H85v-760h88c-2 99 5 207-5 298h6c30-50 91-82 167-83 133 1 196 60 196 196V0h-87v-343c0-86-40-129-120-129" id="aG"/><g id="p"><use transform="matrix(0.02,0,0,0.02,0,0)" xlink:href="#aF"/><use transform="matrix(0.02,0,0,0.02,10.58,0)" xlink:href="#ad"/><use transform="matrix(0.02,0,0,0.02,22.68,0)" xlink:href="#ae"/><use transform="matrix(0.02,0,0,0.02,33.9,0)" xlink:href="#X"/><use transform="matrix(0.02,0,0,0.02,41.12,0)" xlink:href="#aG"/><use transform="matrix(0.02,0,0,0.02,53.480000000000004,0)" xlink:href="#aw"/><use transform="matrix(0.02,0,0,0.02,66.12,0)" xlink:href="#Y"/><use transform="matrix(0.02,0,0,0.02,78.22,0)" xlink:href="#ah"/><use transform="matrix(0.02,0,0,0.02,90.58,0)" xlink:href="#T"/><use transform="matrix(0.02,0,0,0.02,100.16,0)" xlink:href="#X"/><use transform="matrix(0.02,0,0,0.02,107.38,0)" xlink:href="#Z"/><use transform="matrix(0.02,0,0,0.02,115.24000000000001,0)" xlink:href="#ae"/><use transform="matrix(0.02,0,0,0.02,126.46000000000001,0)" xlink:href="#ag"/><use transform="matrix(0.02,0,0,0.02,131.62,0)" xlink:href="#ah"/><use transform="matrix(0.02,0,0,0.02,143.98000000000002,0)" xlink:href="#X"/><use transform="matrix(0.02,0,0,0.02,151.20000000000002,0)" xlink:href="#ac"/></g><g id="q"><use transform="matrix(0.02,0,0,0.02,0,0)" xlink:href="#aa"/><use transform="matrix(0.02,0,0,0.02,10.98,0)" xlink:href="#X"/><use transform="matrix(0.02,0,0,0.02,18.2,0)" xlink:href="#Z"/><use transform="matrix(0.02,0,0,0.02,26.46,0)" xlink:href="#ag"/><use transform="matrix(0.02,0,0,0.02,31.62,0)" xlink:href="#ah"/><use transform="matrix(0.02,0,0,0.02,43.980000000000004,0)" xlink:href="#af"/></g><path fill="#1d262b" d="M311-647c-53-1-64 45-60 101h129v112H251V0H102v-434H20v-72l82-40C67-758 255-800 432-742l-38 109c-25-7-50-15-83-14" id="aH"/><path fill="#1d262b" d="M527 0c-31-144-64-289-98-432h-4C393-288 358-143 325 0H165L10-546h148c34 138 77 265 93 421h4c15-157 60-282 92-421h164c30 140 75 263 88 421h4c17-155 62-284 97-421h146L689 0H527" id="aI"/><g id="r"><use transform="matrix(0.02,0,0,0.02,0,0)" xlink:href="#aq"/><use transform="matrix(0.02,0,0,0.02,11.02,0)" xlink:href="#D"/><use transform="matrix(0.02,0,0,0.02,22.84,0)" xlink:href="#ar"/><use transform="matrix(0.02,0,0,0.02,28.94,0)" xlink:href="#D"/><use transform="matrix(0.02,0,0,0.02,40.760000000000005,0)" xlink:href="#P"/><use transform="matrix(0.02,0,0,0.02,51.04000000000001,0)" xlink:href="#L"/><use transform="matrix(0.02,0,0,0.02,59.72000000000001,0)" xlink:href="#O"/><use transform="matrix(0.02,0,0,0.02,72.10000000000001,0)" xlink:href="#G"/><use transform="matrix(0.02,0,0,0.02,81.18,0)" xlink:href="#C"/><use transform="matrix(0.02,0,0,0.02,100.04,0)" xlink:href="#I"/><use transform="matrix(0.02,0,0,0.02,106.14,0)" xlink:href="#P"/><use transform="matrix(0.02,0,0,0.02,116.42,0)" xlink:href="#G"/><use transform="matrix(0.02,0,0,0.02,125.10000000000001,0)" xlink:href="#O"/><use transform="matrix(0.02,0,0,0.02,137.48,0)" xlink:href="#aH"/><use transform="matrix(0.02,0,0,0.02,145.22,0)" xlink:href="#ar"/><use transform="matrix(0.02,0,0,0.02,151.32,0)" xlink:href="#O"/><use transform="matrix(0.02,0,0,0.02,163.29999999999998,0)" xlink:href="#aI"/><use transform="matrix(0.02,0,0,0.02,180.42000000000002,0)" xlink:href="#aq"/><use transform="matrix(0.02,0,0,0.02,191.44,0)" xlink:href="#O"/><use transform="matrix(0.02,0,0,0.02,203.82,0)" xlink:href="#at"/><use transform="matrix(0.02,0,0,0.02,216.95999999999998,0)" xlink:href="#G"/><use transform="matrix(0.02,0,0,0.02,225.63999999999996,0)" xlink:href="#P"/><use transform="matrix(0.02,0,0,0.02,235.92000000000002,0)" xlink:href="#D"/></g><path fill="#1d262b" d="M721 0c2-208-6-429 7-625h-4L486 0h-74L177-626h-4c13 195 4 419 7 626H97v-714h133l220 585h4l224-585h132V0h-89" id="aJ"/><path fill="#1d262b" d="M284-693c-79 0-90 69-87 157h135v68H197V0h-88v-468H15v-41l94-30C85-728 219-803 387-747l-23 69c-21-6-52-16-80-15" id="aK"/><path fill="#1d262b" d="M523-1c-43-147-94-290-129-444h-4C358-288 301-148 258-1H158L11-537h91c36 148 81 291 109 446h4c33-159 87-298 131-446h96c42 149 95 287 128 445h4c29-153 75-298 111-445h90L626-1H523" id="aL"/><g id="s"><use transform="matrix(0.02,0,0,0.02,0,0)" xlink:href="#au"/><use transform="matrix(0.02,0,0,0.02,12.3,0)" xlink:href="#ae"/><use transform="matrix(0.02,0,0,0.02,23.520000000000007,0)" xlink:href="#X"/><use transform="matrix(0.02,0,0,0.02,30.740000000000002,0)" xlink:href="#ae"/><use transform="matrix(0.02,0,0,0.02,41.96,0)" xlink:href="#aa"/><use transform="matrix(0.02,0,0,0.02,52.94,0)" xlink:href="#Y"/><use transform="matrix(0.02,0,0,0.02,65.03999999999999,0)" xlink:href="#ab"/><use transform="matrix(0.02,0,0,0.02,77.39999999999999,0)" xlink:href="#Z"/><use transform="matrix(0.02,0,0,0.02,85.25999999999998,0)" xlink:href="#W"/><use transform="matrix(0.02,0,0,0.02,94.85999999999999,0)" xlink:href="#U"/><use transform="matrix(0.02,0,0,0.02,106.13999999999999,0)" xlink:href="#aJ"/><use transform="matrix(0.02,0,0,0.02,124.27999999999999,0)" xlink:href="#ag"/><use transform="matrix(0.02,0,0,0.02,129.44,0)" xlink:href="#W"/><use transform="matrix(0.02,0,0,0.02,139.04,0)" xlink:href="#Z"/><use transform="matrix(0.02,0,0,0.02,146.89999999999998,0)" xlink:href="#Y"/><use transform="matrix(0.02,0,0,0.02,158.99999999999997,0)" xlink:href="#aK"/><use transform="matrix(0.02,0,0,0.02,165.87999999999997,0)" xlink:href="#V"/><use transform="matrix(0.02,0,0,0.02,171.03999999999996,0)" xlink:href="#Y"/><use transform="matrix(0.02,0,0,0.02,182.73999999999998,0)" xlink:href="#aL"/><use transform="matrix(0.02,0,0,0.02,198.45999999999998,0)" xlink:href="#aa"/><use transform="matrix(0.02,0,0,0.02,209.43999999999994,0)" xlink:href="#U"/><use transform="matrix(0.02,0,0,0.02,220.71999999999994,0)" xlink:href="#X"/><use transform="matrix(0.02,0,0,0.02,227.93999999999994,0)" xlink:href="#X"/><use transform="matrix(0.02,0,0,0.02,235.15999999999994,0)" xlink:href="#ag"/><use transform="matrix(0.02,0,0,0.02,240.31999999999994,0)" xlink:href="#ah"/><use transform="matrix(0.02,0,0,0.02,252.67999999999992,0)" xlink:href="#af"/><use transform="matrix(0.02,0,0,0.02,264.97999999999996,0)" xlink:href="#T"/><use transform="matrix(0.02,0,0,0.02,274.55999999999995,0)" xlink:href="#ac"/></g><g id="t"><use transform="matrix(0.02,0,0,0.02,0,0)" xlink:href="#aJ"/><use transform="matrix(0.02,0,0,0.02,18.14,0)" xlink:href="#ag"/><use transform="matrix(0.02,0,0,0.02,23.3,0)" xlink:href="#W"/><use transform="matrix(0.02,0,0,0.02,32.9,0)" xlink:href="#Z"/><use transform="matrix(0.02,0,0,0.02,40.76,0)" xlink:href="#Y"/><use transform="matrix(0.02,0,0,0.02,52.86,0)" xlink:href="#aK"/><use transform="matrix(0.02,0,0,0.02,59.74,0)" xlink:href="#V"/><use transform="matrix(0.02,0,0,0.02,64.9,0)" xlink:href="#Y"/><use transform="matrix(0.02,0,0,0.02,76.6,0)" xlink:href="#aL"/><use transform="matrix(0.02,0,0,0.02,92.32000000000001,0)" xlink:href="#aa"/><use transform="matrix(0.02,0,0,0.02,103.3,0)" xlink:href="#U"/><use transform="matrix(0.02,0,0,0.02,114.58,0)" xlink:href="#X"/><use transform="matrix(0.02,0,0,0.02,121.8,0)" xlink:href="#X"/><use transform="matrix(0.02,0,0,0.02,129.02,0)" xlink:href="#ag"/><use transform="matrix(0.02,0,0,0.02,134.18,0)" xlink:href="#ah"/><use transform="matrix(0.02,0,0,0.02,146.54000000000002,0)" xlink:href="#af"/><use transform="matrix(0.02,0,0,0.02,158.84000000000003,0)" xlink:href="#T"/></g><path fill="#1d262b" d="M583-500c-1 103-63 155-133 189L660 0H492L322-274h-81V0H90v-714h208c176 0 281 53 285 214zm-153 4c0-94-88-95-189-94v193c104 4 189-5 189-99" id="aM"/><g id="u"><use transform="matrix(0.02,0,0,0.02,0,0)" xlink:href="#aM"/><use transform="matrix(0.02,0,0,0.02,13.200000000000001,0)" xlink:href="#D"/><use transform="matrix(0.02,0,0,0.02,25.020000000000007,0)" xlink:href="#aH"/><use transform="matrix(0.02,0,0,0.02,32.760000000000005,0)" xlink:href="#D"/><use transform="matrix(0.02,0,0,0.02,44.58,0)" xlink:href="#G"/><use transform="matrix(0.02,0,0,0.02,53.26,0)" xlink:href="#D"/><use transform="matrix(0.02,0,0,0.02,65.08000000000001,0)" xlink:href="#R"/><use transform="matrix(0.02,0,0,0.02,78.22000000000001,0)" xlink:href="#P"/><use transform="matrix(0.02,0,0,0.02,88.50000000000001,0)" xlink:href="#D"/><use transform="matrix(0.02,0,0,0.02,100.32000000000002,0)" xlink:href="#aq"/><use transform="matrix(0.02,0,0,0.02,111.34000000000002,0)" xlink:href="#D"/><use transform="matrix(0.02,0,0,0.02,123.16000000000003,0)" xlink:href="#ar"/><use transform="matrix(0.02,0,0,0.02,129.26000000000002,0)" xlink:href="#D"/><use transform="matrix(0.02,0,0,0.02,141.08,0)" xlink:href="#P"/><use transform="matrix(0.02,0,0,0.02,151.36,0)" xlink:href="#L"/><use transform="matrix(0.02,0,0,0.02,160.04000000000002,0)" xlink:href="#O"/><use transform="matrix(0.02,0,0,0.02,172.42000000000002,0)" xlink:href="#G"/></g><path fill="#1d262b" d="M323 0h-90v-635H10v-79h535v79H323V0" id="aN"/><g id="v"><use transform="matrix(0.02,0,0,0.02,0,0)" xlink:href="#af"/><use transform="matrix(0.02,0,0,0.02,12.3,0)" xlink:href="#Y"/><use transform="matrix(0.02,0,0,0.02,24.400000000000002,0)" xlink:href="#aN"/><use transform="matrix(0.02,0,0,0.02,34.120000000000005,0)" xlink:href="#Y"/><use transform="matrix(0.02,0,0,0.02,46.22000000000001,0)" xlink:href="#ad"/><use transform="matrix(0.02,0,0,0.02,58.32000000000001,0)" xlink:href="#ae"/><use transform="matrix(0.02,0,0,0.02,69.54,0)" xlink:href="#af"/><use transform="matrix(0.02,0,0,0.02,81.84,0)" xlink:href="#U"/><use transform="matrix(0.02,0,0,0.02,93.12,0)" xlink:href="#aa"/><use transform="matrix(0.02,0,0,0.02,104.10000000000001,0)" xlink:href="#U"/><use transform="matrix(0.02,0,0,0.02,115.38,0)" xlink:href="#X"/><use transform="matrix(0.02,0,0,0.02,122.60000000000001,0)" xlink:href="#X"/><use transform="matrix(0.02,0,0,0.02,129.82000000000002,0)" xlink:href="#ag"/><use transform="matrix(0.02,0,0,0.02,134.98000000000002,0)" xlink:href="#ah"/><use transform="matrix(0.02,0,0,0.02,147.34000000000003,0)" xlink:href="#af"/><use transform="matrix(0.02,0,0,0.02,159.64000000000004,0)" xlink:href="#T"/><use transform="matrix(0.02,0,0,0.02,169.22000000000003,0)" xlink:href="#ac"/></g><g id="w"><use transform="matrix(0.02,0,0,0.02,0,0)" xlink:href="#ad"/><use transform="matrix(0.02,0,0,0.02,12.1,0)" xlink:href="#ae"/><use transform="matrix(0.02,0,0,0.02,23.32,0)" xlink:href="#af"/><use transform="matrix(0.02,0,0,0.02,35.620000000000005,0)" xlink:href="#U"/><use transform="matrix(0.02,0,0,0.02,46.90000000000001,0)" xlink:href="#aa"/><use transform="matrix(0.02,0,0,0.02,57.88000000000001,0)" xlink:href="#U"/><use transform="matrix(0.02,0,0,0.02,69.16000000000001,0)" xlink:href="#X"/><use transform="matrix(0.02,0,0,0.02,76.38000000000001,0)" xlink:href="#X"/><use transform="matrix(0.02,0,0,0.02,83.60000000000001,0)" xlink:href="#ag"/><use transform="matrix(0.02,0,0,0.02,88.76,0)" xlink:href="#ah"/><use transform="matrix(0.02,0,0,0.02,101.12,0)" xlink:href="#af"/><use transform="matrix(0.02,0,0,0.02,113.42,0)" xlink:href="#T"/></g><path fill="#1d262b" d="M357 0H32v-86l87-40v-462l-87-40v-86h325v86l-87 40v462l87 40V0" id="aO"/><path fill="#1d262b" d="M227-475c31-44 77-83 155-81 141 5 206 121 206 282 0 162-69 279-210 284-75 2-118-33-151-70h-8c16 91 5 198 8 300H78v-786h121l21 71h7zm109 364c80 0 99-74 100-165 0-107-34-161-102-161-91 1-107 65-107 162 0 96 18 164 109 164" id="aP"/><g id="x"><use transform="matrix(0.02,0,0,0.02,0,0)" xlink:href="#aO"/><use transform="matrix(0.02,0,0,0.02,7.78,0)" xlink:href="#R"/><use transform="matrix(0.02,0,0,0.02,20.92,0)" xlink:href="#aP"/><use transform="matrix(0.02,0,0,0.02,33.58,0)" xlink:href="#at"/><use transform="matrix(0.02,0,0,0.02,46.72,0)" xlink:href="#L"/><use transform="matrix(0.02,0,0,0.02,55.4,0)" xlink:href="#aM"/><use transform="matrix(0.02,0,0,0.02,68.6,0)" xlink:href="#D"/><use transform="matrix(0.02,0,0,0.02,80.41999999999999,0)" xlink:href="#aH"/><use transform="matrix(0.02,0,0,0.02,88.15999999999998,0)" xlink:href="#D"/><use transform="matrix(0.02,0,0,0.02,99.97999999999999,0)" xlink:href="#G"/><use transform="matrix(0.02,0,0,0.02,108.65999999999998,0)" xlink:href="#D"/><use transform="matrix(0.02,0,0,0.02,120.47999999999999,0)" xlink:href="#R"/><use transform="matrix(0.02,0,0,0.02,133.62,0)" xlink:href="#P"/><use transform="matrix(0.02,0,0,0.02,143.9,0)" xlink:href="#D"/><use transform="matrix(0.02,0,0,0.02,155.72,0)" xlink:href="#aq"/><use transform="matrix(0.02,0,0,0.02,166.74,0)" xlink:href="#D"/><use transform="matrix(0.02,0,0,0.02,178.56,0)" xlink:href="#ar"/><use transform="matrix(0.02,0,0,0.02,184.66,0)" xlink:href="#D"/><use transform="matrix(0.02,0,0,0.02,196.48000000000002,0)" xlink:href="#P"/><use transform="matrix(0.02,0,0,0.02,206.76,0)" xlink:href="#L"/><use transform="matrix(0.02,0,0,0.02,215.44,0)" xlink:href="#O"/><use transform="matrix(0.02,0,0,0.02,227.82,0)" xlink:href="#G"/></g><g id="y"><use transform="matrix(0.02,0,0,0.02,0,0)" xlink:href="#aD"/><use transform="matrix(0.02,0,0,0.02,12.56,0)" xlink:href="#Q"/><use transform="matrix(0.02,0,0,0.02,24.64,0)" xlink:href="#K"/><use transform="matrix(0.02,0,0,0.02,37.3,0)" xlink:href="#D"/><use transform="matrix(0.02,0,0,0.02,49.120000000000005,0)" xlink:href="#aq"/><use transform="matrix(0.02,0,0,0.02,60.14,0)" xlink:href="#D"/><use transform="matrix(0.02,0,0,0.02,71.96000000000001,0)" xlink:href="#L"/><use transform="matrix(0.02,0,0,0.02,80.64000000000001,0)" xlink:href="#L"/><use transform="matrix(0.02,0,0,0.02,89.32000000000002,0)" xlink:href="#I"/><use transform="matrix(0.02,0,0,0.02,95.42000000000002,0)" xlink:href="#R"/><use transform="matrix(0.02,0,0,0.02,108.56000000000002,0)" xlink:href="#K"/><use transform="matrix(0.02,0,0,0.02,121.22000000000003,0)" xlink:href="#N"/></g><path fill="#1d262b" d="M173-463c34-47 82-85 167-83 148 4 220 111 220 277 0 164-73 276-221 279-79 2-133-36-166-78h-6c11 94 4 205 6 308H85v-776h72l12 73h4zm296 193c0-112-38-202-145-202-123 0-151 76-151 203 0 125 28 206 153 206 108-4 141-95 143-207" id="aQ"/><g id="z"><use transform="matrix(0.02,0,0,0.02,0,0)" xlink:href="#aQ"/><use transform="matrix(0.02,0,0,0.02,12.3,0)" xlink:href="#ae"/><use transform="matrix(0.02,0,0,0.02,23.520000000000007,0)" xlink:href="#af"/><use transform="matrix(0.02,0,0,0.02,35.82000000000001,0)" xlink:href="#U"/><use transform="matrix(0.02,0,0,0.02,47.10000000000001,0)" xlink:href="#ac"/></g><g id="A"><use transform="matrix(0.02,0,0,0.02,0,0)" xlink:href="#ad"/><use transform="matrix(0.02,0,0,0.02,12.1,0)" xlink:href="#ae"/><use transform="matrix(0.02,0,0,0.02,23.32,0)" xlink:href="#af"/><use transform="matrix(0.02,0,0,0.02,35.620000000000005,0)" xlink:href="#U"/></g><g id="B"><use transform="matrix(0.02,0,0,0.02,0,0)" xlink:href="#H"/><use transform="matrix(0.02,0,0,0.02,19.34,0)" xlink:href="#I"/><use transform="matrix(0.02,0,0,0.02,25.44,0)" xlink:href="#J"/><use transform="matrix(0.02,0,0,0.02,38.1,0)" xlink:href="#K"/><use transform="matrix(0.02,0,0,0.02,50.76,0)" xlink:href="#D"/><use transform="matrix(0.02,0,0,0.02,62.58,0)" xlink:href="#L"/></g></defs></g></svg>
