<svg xmlns="http://www.w3.org/2000/svg" xmlns:xlink="http://www.w3.org/1999/xlink" xmlns:lucid="lucid" width="2160" height="491"><g transform="translate(-1080 -180)" lucid:page-tab-id="0MLMTkbJ-Gq6"><path d="M1100 326a6 6 0 0 1 6-6h388a6 6 0 0 1 6 6v156a6 6 0 0 1-6 6h-388a6 6 0 0 1-6-6z" stroke="#2f3646" stroke-width="3" fill="#d9dbdd"/><path d="M1100 363.24h400" stroke="#2f3646" stroke-width="3" fill="none"/><use xlink:href="#a" transform="matrix(1,0,0,1,1108,328) translate(157.26999999999998 21.759999999999998)"/><use xlink:href="#b" transform="matrix(1,0,0,1,1112,371.24) translate(0 21.400000000000002)"/><use xlink:href="#c" transform="matrix(1,0,0,1,1112,371.24) translate(16.64 21.400000000000002)"/><use xlink:href="#d" transform="matrix(1,0,0,1,1112,371.24) translate(97.16000000000001 21.400000000000002)"/><use xlink:href="#b" transform="matrix(1,0,0,1,1112,371.24) translate(0 48.64)"/><use xlink:href="#e" transform="matrix(1,0,0,1,1112,371.24) translate(16.64 48.64)"/><use xlink:href="#f" transform="matrix(1,0,0,1,1112,371.24) translate(66.42 48.64)"/><use xlink:href="#b" transform="matrix(1,0,0,1,1112,371.24) translate(0 75.88)"/><use xlink:href="#g" transform="matrix(1,0,0,1,1112,371.24) translate(16.64 75.88)"/><use xlink:href="#h" transform="matrix(1,0,0,1,1112,371.24) translate(135.04000000000002 75.88)"/><use xlink:href="#i" transform="matrix(1,0,0,1,1112,371.24) translate(252.66000000000003 75.88)"/><use xlink:href="#j" transform="matrix(1,0,0,1,1112,371.24) translate(269.3 75.88)"/><use xlink:href="#b" transform="matrix(1,0,0,1,1112,371.24) translate(0 103.12)"/><use xlink:href="#k" transform="matrix(1,0,0,1,1112,371.24) translate(16.64 103.12)"/><use xlink:href="#l" transform="matrix(1,0,0,1,1112,371.24) translate(135.60000000000002 103.12)"/><use xlink:href="#i" transform="matrix(1,0,0,1,1112,371.24) translate(249.90000000000003 103.12)"/><use xlink:href="#m" transform="matrix(1,0,0,1,1112,371.24) translate(266.54 103.12)"/><path d="M1200 206a6 6 0 0 1 6-6h188a6 6 0 0 1 6 6v31a6 6 0 0 1-6 6h-188a6 6 0 0 1-6-6z" stroke="#2f3646" stroke-width="3" fill="#d9dbdd"/><g><use xlink:href="#n" transform="matrix(1,0,0,1,1208,208) translate(56.37 21.38)"/></g><path d="M1300 317.5v-48.52" stroke="#6b707b" stroke-width="2" fill="none"/><path d="M1301 318.5h-2v-1.03h2z" stroke="#6b707b" stroke-width=".05" fill="#6b707b"/><path d="M1300 246.46l12.73 21.52h-25.46z" stroke="#6b707b" stroke-width="2" fill="#fff"/><path d="M1100 571a6 6 0 0 1 6-6h388a6 6 0 0 1 6 6v74a6 6 0 0 1-6 6h-388a6 6 0 0 1-6-6z" stroke="#064ae4" stroke-width="3" fill="#c2e2ff"/><path d="M1100 608.24h400" stroke="#064ae4" stroke-width="3" fill="none"/><g><use xlink:href="#o" transform="matrix(1,0,0,1,1108,573) translate(125.08000000000001 21.759999999999998)"/></g><g><use xlink:href="#p" transform="matrix(1,0,0,1,1112,616.24) translate(0 21.759999999999998)"/><use xlink:href="#q" transform="matrix(1,0,0,1,1112,616.24) translate(16.64 21.759999999999998)"/><use xlink:href="#r" transform="matrix(1,0,0,1,1112,616.24) translate(84.86 21.759999999999998)"/></g><path d="M1300 562.5v-48.52" stroke="#6b707b" stroke-width="2" fill="none"/><path d="M1301 563.5h-2v-1.03h2z" stroke="#6b707b" stroke-width=".05" fill="#6b707b"/><path d="M1300 491.46l12.73 21.52h-25.46z" stroke="#6b707b" stroke-width="2" fill="#fff"/><defs><path fill="#1d262b" d="M619-207C618-68 505 0 357 0H90v-714c224 8 515-45 511 181 0 80-40 144-110 154v5c81 17 130 66 128 167zM446-513c3-91-111-75-205-77v159h88c76 0 115-17 117-82zm16 291c0-67-45-90-127-89h-94v186h99c80 1 122-28 122-97" id="s"/><path fill="#1d262b" d="M312-109c100-1 118-75 118-180v-257h149V0H465l-20-70h-8c-29 51-93 79-168 80C145 8 75-57 75-190v-356h149v319c1 71 21 117 88 118" id="t"/><path fill="#1d262b" d="M243-171c-4 82 106 65 159 45v111c-35 14-86 26-137 25C150 9 94-49 94-171v-263H23v-63l82-50 43-115h95v116h153v112H243v263" id="u"/><path fill="#1d262b" d="M311-556c169 3 261 108 263 282 3 174-98 287-266 284C139 7 47-99 45-274s97-285 266-282zm-2 120c-89 0-111 65-112 162 1 97 23 164 113 164 89 0 111-68 112-164-1-97-23-162-113-162" id="v"/><path fill="#1d262b" d="M220-476c29-51 93-79 168-80 124 2 194 67 194 200V0H433v-319c-1-72-20-117-88-118-100 1-118 75-118 180V0H78v-546h114l20 70h8" id="w"/><g id="a"><use transform="matrix(0.02,0,0,0.02,0,0)" xlink:href="#s"/><use transform="matrix(0.02,0,0,0.02,13.44,0)" xlink:href="#t"/><use transform="matrix(0.02,0,0,0.02,26.580000000000002,0)" xlink:href="#u"/><use transform="matrix(0.02,0,0,0.02,35.26,0)" xlink:href="#u"/><use transform="matrix(0.02,0,0,0.02,43.94,0)" xlink:href="#v"/><use transform="matrix(0.02,0,0,0.02,56.32,0)" xlink:href="#w"/></g><path fill="#1d262b" d="M321-388h199v71H321v206h-72v-206H50v-71h199v-207h72v207" id="x"/><use transform="matrix(0.02,0,0,0.02,0,0)" xlink:href="#x" id="b"/><path fill="#1d262b" d="M438-19c-39 19-78 29-138 29C136 6 55-93 55-265c0-205 125-311 330-273 25 6 46 13 62 21l-27 73c-29-11-77-25-116-25-105 0-158 68-158 203 0 118 42 198 153 200 58 1 100-14 139-31v78" id="y"/><path fill="#1d262b" d="M105-499c45-24 114-47 183-46 129 1 191 52 192 180V0h-64l-17-76h-4c-47 56-81 85-180 86C116 9 43-43 46-149c3-159 172-173 348-174 7-99-22-152-111-151-59-1-110 22-151 41zM235-61c93-1 161-53 158-153v-48c-125 5-256-1-256 114-1 59 41 87 98 87" id="z"/><path fill="#1d262b" d="M173-463c34-47 82-85 167-83 148 4 220 111 220 277 0 164-73 276-221 279-79 2-133-36-166-78h-6c11 94 4 205 6 308H85v-776h72l12 73h4zm296 193c0-112-38-202-145-202-123 0-151 76-151 203 0 125 28 206 153 206 108-4 141-95 143-207" id="A"/><path fill="#1d262b" d="M180-158c-9 93 83 112 159 85v67c-18 10-61 16-90 16C146 8 92-45 92-156v-312H16v-42l77-35 35-114h52v123h155v68H180v310" id="B"/><path fill="#1d262b" d="M78-681c-1-36 20-55 52-56 30 1 53 21 51 56 2 34-22 55-51 56-31 0-53-21-52-56zm95 145V0H85v-536h88" id="C"/><path fill="#1d262b" d="M304-546c162 0 245 109 247 277 3 167-90 279-250 279C140 10 57-102 55-269c-3-167 89-277 249-277zm-2 74c-116 0-155 84-156 203 1 118 41 206 157 206 115 0 157-88 157-206-1-119-42-203-158-203" id="D"/><path fill="#1d262b" d="M174-463c29-51 94-82 169-83 132 1 195 61 194 197V0h-87v-343c0-86-40-129-120-129-123 0-157 72-157 194V0H85v-536h71l13 73h5" id="E"/><path fill="#1d262b" d="M133-414c-37-1-63-25-61-68-2-45 22-66 61-68 39 1 65 22 63 68 2 44-25 67-63 68zm0 428c-37-1-63-25-61-68-2-44 23-66 61-67 39 1 65 22 63 67 2 44-25 67-63 68" id="F"/><g id="c"><use transform="matrix(0.02,0,0,0.02,0,0)" xlink:href="#y"/><use transform="matrix(0.02,0,0,0.02,9.6,0)" xlink:href="#z"/><use transform="matrix(0.02,0,0,0.02,20.82,0)" xlink:href="#A"/><use transform="matrix(0.02,0,0,0.02,33.120000000000005,0)" xlink:href="#B"/><use transform="matrix(0.02,0,0,0.02,40.34,0)" xlink:href="#C"/><use transform="matrix(0.02,0,0,0.02,45.5,0)" xlink:href="#D"/><use transform="matrix(0.02,0,0,0.02,57.6,0)" xlink:href="#E"/><use transform="matrix(0.02,0,0,0.02,69.96000000000001,0)" xlink:href="#F"/></g><path fill="#1d262b" d="M323 0h-90v-635H10v-79h535v79H323V0" id="G"/><path fill="#1d262b" d="M55-264c2-166 77-282 237-282 163 0 232 117 221 295H146c1 115 59 186 171 186 74 0 118-15 172-37v77c-55 23-99 35-176 35C146 6 56-92 55-264zm366-57c-2-88-39-155-130-153-91 1-135 65-143 153h273" id="H"/><path fill="#1d262b" d="M212-274L27-536h100l138 202 137-202h99L316-274 511 0H411L265-214 117 0H18" id="I"/><g id="d"><use transform="matrix(0.02,0,0,0.02,0,0)" xlink:href="#G"/><use transform="matrix(0.02,0,0,0.02,9.72,0)" xlink:href="#H"/><use transform="matrix(0.02,0,0,0.02,20.6,0)" xlink:href="#I"/><use transform="matrix(0.02,0,0,0.02,31.18,0)" xlink:href="#B"/></g><g id="e"><use transform="matrix(0.02,0,0,0.02,0,0)" xlink:href="#C"/><use transform="matrix(0.02,0,0,0.02,5.16,0)" xlink:href="#y"/><use transform="matrix(0.02,0,0,0.02,14.76,0)" xlink:href="#D"/><use transform="matrix(0.02,0,0,0.02,26.86,0)" xlink:href="#E"/><use transform="matrix(0.02,0,0,0.02,39.22,0)" xlink:href="#F"/></g><path fill="#1d262b" d="M298 0H40v-52l84-19v-571l-84-20v-52h258v52l-84 20v571l84 19V0" id="J"/><g id="f"><use transform="matrix(0.02,0,0,0.02,0,0)" xlink:href="#J"/><use transform="matrix(0.02,0,0,0.02,6.78,0)" xlink:href="#y"/><use transform="matrix(0.02,0,0,0.02,16.38,0)" xlink:href="#D"/><use transform="matrix(0.02,0,0,0.02,28.479999999999997,0)" xlink:href="#E"/></g><path fill="#1d262b" d="M171-438c38-67 114-131 227-102l-11 81c-127-30-214 51-214 173V0H85v-536h72l10 98h4" id="K"/><path fill="#1d262b" d="M442-72c-34 45-85 84-167 82C127 7 55-102 55-267s73-275 221-279c82-2 131 35 166 79h6c-11-89-4-195-6-293h88V0h-71l-13-72h-4zM146-265c0 115 37 200 143 202 125 0 156-74 154-203-2-127-29-207-155-207-105 1-142 96-142 208" id="L"/><path fill="#1d262b" d="M11 162c47 10 103 8 133-20 35-33 52-91 73-140L1-536h94c53 150 120 289 161 451h4c44-156 104-302 155-451h95L279 74c-36 90-78 165-195 166-28 0-52-3-73-8v-70" id="M"/><g id="g"><use transform="matrix(0.02,0,0,0.02,0,0)" xlink:href="#K"/><use transform="matrix(0.02,0,0,0.02,7.859999999999999,0)" xlink:href="#H"/><use transform="matrix(0.02,0,0,0.02,19.14,0)" xlink:href="#E"/><use transform="matrix(0.02,0,0,0.02,31.5,0)" xlink:href="#L"/><use transform="matrix(0.02,0,0,0.02,43.800000000000004,0)" xlink:href="#H"/><use transform="matrix(0.02,0,0,0.02,55.08,0)" xlink:href="#K"/><use transform="matrix(0.02,0,0,0.02,63.33999999999999,0)" xlink:href="#G"/><use transform="matrix(0.02,0,0,0.02,74.06,0)" xlink:href="#M"/><use transform="matrix(0.02,0,0,0.02,84.26,0)" xlink:href="#A"/><use transform="matrix(0.02,0,0,0.02,96.56,0)" xlink:href="#H"/><use transform="matrix(0.02,0,0,0.02,107.84,0)" xlink:href="#F"/></g><path fill="#1d262b" d="M554-511c1 110-65 161-143 191L607 0H502L329-295H187V0H97v-714h197c162 0 257 53 260 203zm-93 4c7-139-134-131-274-129v265h107c107 0 165-38 167-136" id="N"/><g id="h"><use transform="matrix(0.02,0,0,0.02,0,0)" xlink:href="#N"/><use transform="matrix(0.02,0,0,0.02,12.44,0)" xlink:href="#H"/><use transform="matrix(0.02,0,0,0.02,23.72,0)" xlink:href="#E"/><use transform="matrix(0.02,0,0,0.02,36.08,0)" xlink:href="#L"/><use transform="matrix(0.02,0,0,0.02,48.379999999999995,0)" xlink:href="#H"/><use transform="matrix(0.02,0,0,0.02,59.65999999999999,0)" xlink:href="#K"/><use transform="matrix(0.02,0,0,0.02,67.92,0)" xlink:href="#G"/><use transform="matrix(0.02,0,0,0.02,78.64,0)" xlink:href="#M"/><use transform="matrix(0.02,0,0,0.02,88.84,0)" xlink:href="#A"/><use transform="matrix(0.02,0,0,0.02,101.14,0)" xlink:href="#H"/></g><path fill="#1d262b" d="M56-416v-71h458v71H56zm0 199v-71h458v71H56" id="O"/><use transform="matrix(0.02,0,0,0.02,0,0)" xlink:href="#O" id="i"/><path fill="#1d262b" d="M596-203C596-67 490 0 348 0H97v-714h204c159 3 267 29 271 177-1 90-55 144-136 158v5c93 16 161 60 160 171zM479-527c5-131-159-107-292-110v227h132c108-1 156-24 160-117zm21 317c0-93-63-125-176-125H187v259h144c112 2 169-39 169-134" id="P"/><path fill="#1d262b" d="M287-63c123 0 158-72 158-194v-279h88V0h-72l-13-71h-4c-30 52-94 80-170 81C142 9 79-50 79-185v-351h89v345c0 85 40 128 119 128" id="Q"/><g id="j"><use transform="matrix(0.02,0,0,0.02,0,0)" xlink:href="#P"/><use transform="matrix(0.02,0,0,0.02,13,0)" xlink:href="#Q"/><use transform="matrix(0.02,0,0,0.02,25.36,0)" xlink:href="#B"/><use transform="matrix(0.02,0,0,0.02,32.58,0)" xlink:href="#B"/><use transform="matrix(0.02,0,0,0.02,39.8,0)" xlink:href="#D"/><use transform="matrix(0.02,0,0,0.02,51.9,0)" xlink:href="#E"/></g><path fill="#1d262b" d="M339 10c-81 2-133-34-166-78h-7L148 0H85v-760h88c-1 97 4 206-5 295h5c33-46 84-82 166-80 148 3 221 112 221 277S486 6 339 10zm-13-73c108-3 143-88 143-206 0-135-48-203-145-203-125 2-151 75-151 205 0 126 28 204 153 204" id="R"/><path fill="#1d262b" d="M457-607c-87-45-309-75-306 66 5 99 78 110 156 144 99 43 192 73 195 206C502-56 390 12 247 10 173 10 99-1 51-24v-86c98 48 366 86 361-73-3-101-84-112-168-147-104-43-180-82-184-212-6-199 273-214 425-142" id="S"/><path fill="#1d262b" d="M173 0H85v-760h88V0" id="T"/><g id="k"><use transform="matrix(0.02,0,0,0.02,0,0)" xlink:href="#R"/><use transform="matrix(0.02,0,0,0.02,12.3,0)" xlink:href="#Q"/><use transform="matrix(0.02,0,0,0.02,24.66,0)" xlink:href="#B"/><use transform="matrix(0.02,0,0,0.02,31.88,0)" xlink:href="#B"/><use transform="matrix(0.02,0,0,0.02,39.1,0)" xlink:href="#D"/><use transform="matrix(0.02,0,0,0.02,51.2,0)" xlink:href="#E"/><use transform="matrix(0.02,0,0,0.02,63.56,0)" xlink:href="#S"/><use transform="matrix(0.02,0,0,0.02,74.54,0)" xlink:href="#B"/><use transform="matrix(0.02,0,0,0.02,81.76,0)" xlink:href="#M"/><use transform="matrix(0.02,0,0,0.02,91.96000000000001,0)" xlink:href="#T"/><use transform="matrix(0.02,0,0,0.02,97.12,0)" xlink:href="#H"/><use transform="matrix(0.02,0,0,0.02,108.4,0)" xlink:href="#F"/></g><g id="l"><use transform="matrix(0.02,0,0,0.02,0,0)" xlink:href="#P"/><use transform="matrix(0.02,0,0,0.02,13,0)" xlink:href="#Q"/><use transform="matrix(0.02,0,0,0.02,25.36,0)" xlink:href="#B"/><use transform="matrix(0.02,0,0,0.02,32.58,0)" xlink:href="#B"/><use transform="matrix(0.02,0,0,0.02,39.8,0)" xlink:href="#D"/><use transform="matrix(0.02,0,0,0.02,51.9,0)" xlink:href="#E"/><use transform="matrix(0.02,0,0,0.02,64.25999999999999,0)" xlink:href="#S"/><use transform="matrix(0.02,0,0,0.02,75.24,0)" xlink:href="#B"/><use transform="matrix(0.02,0,0,0.02,82.46000000000001,0)" xlink:href="#M"/><use transform="matrix(0.02,0,0,0.02,92.66,0)" xlink:href="#T"/><use transform="matrix(0.02,0,0,0.02,97.82000000000001,0)" xlink:href="#H"/></g><path fill="#1d262b" d="M317-714c225 4 350 122 352 350C671-125 531 0 296 0H97v-714h220zm257 353c2-185-92-274-270-276H187v560h97c193 0 290-95 290-284" id="U"/><path fill="#1d262b" d="M284-693c-79 0-90 69-87 157h135v68H197V0h-88v-468H15v-41l94-30C85-728 219-803 387-747l-23 69c-21-6-52-16-80-15" id="V"/><g id="m"><use transform="matrix(0.02,0,0,0.02,0,0)" xlink:href="#U"/><use transform="matrix(0.02,0,0,0.02,14.6,0)" xlink:href="#H"/><use transform="matrix(0.02,0,0,0.02,25.88,0)" xlink:href="#V"/><use transform="matrix(0.02,0,0,0.02,32.76,0)" xlink:href="#z"/><use transform="matrix(0.02,0,0,0.02,43.980000000000004,0)" xlink:href="#Q"/><use transform="matrix(0.02,0,0,0.02,56.33999999999999,0)" xlink:href="#T"/><use transform="matrix(0.02,0,0,0.02,61.5,0)" xlink:href="#B"/></g><path fill="#1d262b" d="M967-714L785 0H613c-44-180-98-350-130-542-31 193-86 361-129 542H182L0-714h149c42 193 95 373 126 577 30-209 91-384 137-577h143c46 192 106 370 137 577 31-204 84-384 126-577h149" id="W"/><path fill="#1d262b" d="M72-687c-2-54 33-72 81-73 47 1 81 20 81 73 0 52-34 72-81 73-48-1-83-21-81-73zm155 141V0H78v-546h149" id="X"/><path fill="#1d262b" d="M406-71c-31 45-77 83-155 81C111 5 45-111 45-272c0-164 67-279 210-284 78-1 126 35 157 80h5c-17-79-9-188-11-284h149V0H441l-29-71h-6zM196-270c0 92 27 161 107 161 95 0 113-64 113-162 0-99-19-164-115-164-77 0-106 75-105 165" id="Y"/><path fill="#1d262b" d="M45-272c-2-159 65-281 210-284 67 0 120 27 158 80h4l12-70h126V1c-1 164-102 240-273 239-82 0-143-8-204-32V89c67 28 138 42 213 42 80 0 118-46 115-135 0-21 3-48 4-67h-4c-33 51-79 79-155 81C107 7 43-115 45-272zm371 19c1-111-15-180-114-182-70 0-105 55-105 165 0 109 36 163 107 163 87-3 112-49 112-146" id="Z"/><path fill="#1d262b" d="M45-269c1-179 86-283 258-287 151-1 247 93 245 248v72H196c2 82 52 136 136 135 79 0 127-16 185-43v115C461-2 409 10 325 10 148 7 46-88 45-269zm363-66c-2-66-34-117-104-115-66 2-100 46-105 115h209" id="aa"/><g id="n"><use transform="matrix(0.02,0,0,0.02,0,0)" xlink:href="#W"/><use transform="matrix(0.02,0,0,0.02,19.34,0)" xlink:href="#X"/><use transform="matrix(0.02,0,0,0.02,25.44,0)" xlink:href="#Y"/><use transform="matrix(0.02,0,0,0.02,38.1,0)" xlink:href="#Z"/><use transform="matrix(0.02,0,0,0.02,50.76,0)" xlink:href="#aa"/><use transform="matrix(0.02,0,0,0.02,62.58,0)" xlink:href="#u"/></g><path fill="#1d262b" d="M527 0l-52-170H215L163 0H0l252-717h185L690 0H527zm-88-297c-32-102-65-203-94-309-28 107-61 206-92 309h186" id="ab"/><path fill="#1d262b" d="M466-31c-47 30-89 41-166 41C128 8 45-87 45-270c0-220 149-320 365-275 28 7 52 16 73 26l-44 115c-41-15-76-31-126-32-77 0-116 55-116 165-1 96 31 157 116 160 68 0 109-20 153-47v127" id="ac"/><g id="o"><use transform="matrix(0.02,0,0,0.02,0,0)" xlink:href="#ab"/><use transform="matrix(0.02,0,0,0.02,13.8,0)" xlink:href="#ac"/><use transform="matrix(0.02,0,0,0.02,24.080000000000002,0)" xlink:href="#u"/><use transform="matrix(0.02,0,0,0.02,32.76,0)" xlink:href="#X"/><use transform="matrix(0.02,0,0,0.02,38.86,0)" xlink:href="#v"/><use transform="matrix(0.02,0,0,0.02,51.24,0)" xlink:href="#w"/><use transform="matrix(0.02,0,0,0.02,64.38,0)" xlink:href="#s"/><use transform="matrix(0.02,0,0,0.02,77.82,0)" xlink:href="#t"/><use transform="matrix(0.02,0,0,0.02,90.96000000000001,0)" xlink:href="#u"/><use transform="matrix(0.02,0,0,0.02,99.63999999999999,0)" xlink:href="#u"/><use transform="matrix(0.02,0,0,0.02,108.32000000000001,0)" xlink:href="#v"/><use transform="matrix(0.02,0,0,0.02,120.69999999999999,0)" xlink:href="#w"/></g><use transform="matrix(0.02,0,0,0.02,0,0)" xlink:href="#x" id="p"/><g id="q"><use transform="matrix(0.02,0,0,0.02,0,0)" xlink:href="#z"/><use transform="matrix(0.02,0,0,0.02,11.22,0)" xlink:href="#y"/><use transform="matrix(0.02,0,0,0.02,20.82,0)" xlink:href="#B"/><use transform="matrix(0.02,0,0,0.02,28.04,0)" xlink:href="#C"/><use transform="matrix(0.02,0,0,0.02,33.2,0)" xlink:href="#D"/><use transform="matrix(0.02,0,0,0.02,45.300000000000004,0)" xlink:href="#E"/><use transform="matrix(0.02,0,0,0.02,57.660000000000004,0)" xlink:href="#F"/></g><path fill="#1d262b" d="M565-606c-44-19-98-40-162-39-160 0-250 121-247 288 0 170 77 289 246 288 65 0 119-13 171-28v78C517 2 467 10 389 10 164 8 61-134 61-358s119-362 343-366c75 0 141 14 197 42" id="ad"/><path fill="#1d262b" d="M545 0l-86-221H176L91 0H0l279-717h81L638 0h-93zM432-301c-39-107-81-210-114-323-28 119-74 215-112 323h226" id="ae"/><g id="r"><use transform="matrix(0.02,0,0,0.02,0,0)" xlink:href="#ad"/><use transform="matrix(0.02,0,0,0.02,12.64,0)" xlink:href="#T"/><use transform="matrix(0.02,0,0,0.02,17.8,0)" xlink:href="#C"/><use transform="matrix(0.02,0,0,0.02,22.96,0)" xlink:href="#H"/><use transform="matrix(0.02,0,0,0.02,34.24,0)" xlink:href="#E"/><use transform="matrix(0.02,0,0,0.02,46.6,0)" xlink:href="#B"/><use transform="matrix(0.02,0,0,0.02,53.82,0)" xlink:href="#ae"/><use transform="matrix(0.02,0,0,0.02,66.6,0)" xlink:href="#y"/><use transform="matrix(0.02,0,0,0.02,76.19999999999999,0)" xlink:href="#B"/><use transform="matrix(0.02,0,0,0.02,83.41999999999999,0)" xlink:href="#C"/><use transform="matrix(0.02,0,0,0.02,88.57999999999998,0)" xlink:href="#D"/><use transform="matrix(0.02,0,0,0.02,100.67999999999998,0)" xlink:href="#E"/></g></defs></g></svg>
