<svg xmlns="http://www.w3.org/2000/svg" xmlns:xlink="http://www.w3.org/1999/xlink" xmlns:lucid="lucid" width="2160" height="606"><g transform="translate(-221.33333333333348 -180)" lucid:page-tab-id="KyLMzbp1t2jy"><path d="M980 206a6 6 0 0 1 6-6h188a6 6 0 0 1 6 6v33a6 6 0 0 1-6 6H986a6 6 0 0 1-6-6z" stroke="#2f3646" stroke-width="3" fill="#d9dbdd"/><use xlink:href="#a" transform="matrix(1,0,0,1,988,208) translate(56.37 22.259999999999998)"/><path d="M1121.33 366a6 6 0 0 1 6-6H1474a6 6 0 0 1 6 6v74a6 6 0 0 1-6 6h-346.67a6 6 0 0 1-6-6z" stroke="#064ae4" stroke-width="3" fill="#c2e2ff"/><path d="M1121.33 403.24H1480" stroke="#064ae4" stroke-width="3" fill="none"/><use xlink:href="#b" transform="matrix(1,0,0,1,1129.3333333333335,368) translate(105.78 21.759999999999998)"/><use xlink:href="#c" transform="matrix(1,0,0,1,1133.3333333333335,411.24) translate(0 21.759999999999998)"/><use xlink:href="#d" transform="matrix(1,0,0,1,1133.3333333333335,411.24) translate(16.64 21.759999999999998)"/><use xlink:href="#e" transform="matrix(1,0,0,1,1133.3333333333335,411.24) translate(100.76 21.759999999999998)"/><path d="M1300.67 357.5v-49a6 6 0 0 0-6-6H1086a6 6 0 0 1-6-6v-25.52" stroke="#6b707b" stroke-width="2" fill="none"/><path d="M1301.67 358.5h-2v-1.03h2z" stroke="#6b707b" stroke-width=".05" fill="#6b707b"/><path d="M1080 248.46l12.73 21.52h-25.46z" stroke="#6b707b" stroke-width="2" fill="#fff"/><path d="M681.33 366a6 6 0 0 1 6-6H1034a6 6 0 0 1 6 6v74a6 6 0 0 1-6 6H687.33a6 6 0 0 1-6-6z" stroke="#064ae4" stroke-width="3" fill="#c2e2ff"/><path d="M681.33 403.24H1040" stroke="#064ae4" stroke-width="3" fill="none"/><use xlink:href="#f" transform="matrix(1,0,0,1,689.3333333333335,368) translate(115.86 21.759999999999998)"/><use xlink:href="#c" transform="matrix(1,0,0,1,693.3333333333335,411.24) translate(0 21.759999999999998)"/><use xlink:href="#g" transform="matrix(1,0,0,1,693.3333333333335,411.24) translate(16.64 21.759999999999998)"/><use xlink:href="#h" transform="matrix(1,0,0,1,693.3333333333335,411.24) translate(72.06 21.759999999999998)"/><path d="M681.33 526a6 6 0 0 1 6-6H1034a6 6 0 0 1 6 6v74a6 6 0 0 1-6 6H687.33a6 6 0 0 1-6-6z" stroke="#064ae4" stroke-width="3" fill="#c2e2ff"/><path d="M681.33 563.24H1040" stroke="#064ae4" stroke-width="3" fill="none"/><use xlink:href="#i" transform="matrix(1,0,0,1,689.3333333333335,528) translate(94.71 21.759999999999998)"/><use xlink:href="#c" transform="matrix(1,0,0,1,693.3333333333335,571.24) translate(0 21.759999999999998)"/><use xlink:href="#j" transform="matrix(1,0,0,1,693.3333333333335,571.24) translate(16.64 21.759999999999998)"/><use xlink:href="#k" transform="matrix(1,0,0,1,693.3333333333335,571.24) translate(107.06 21.759999999999998)"/><path d="M860.67 478.25V500" stroke="#6b707b" stroke-width="2" fill="none"/><path d="M860.67 448.9l14.85 14.86-14.85 15.15-14.85-15.14zM860.67 515.26L856.03 501h9.27z" stroke="#6b707b" stroke-width="2" fill="#6b707b"/><path d="M681.33 686a6 6 0 0 1 6-6H1034a6 6 0 0 1 6 6v74a6 6 0 0 1-6 6H687.33a6 6 0 0 1-6-6z" stroke="#064ae4" stroke-width="3" fill="#c2e2ff"/><path d="M681.33 723.24H1040" stroke="#064ae4" stroke-width="3" fill="none"/><use xlink:href="#l" transform="matrix(1,0,0,1,689.3333333333335,688) translate(77.29000000000002 21.759999999999998)"/><use xlink:href="#c" transform="matrix(1,0,0,1,693.3333333333335,731.24) translate(0 21.759999999999998)"/><use xlink:href="#d" transform="matrix(1,0,0,1,693.3333333333335,731.24) translate(16.64 21.759999999999998)"/><use xlink:href="#e" transform="matrix(1,0,0,1,693.3333333333335,731.24) translate(100.76 21.759999999999998)"/><path d="M860.67 638.25V660" stroke="#6b707b" stroke-width="2" fill="none"/><path d="M860.67 608.9l14.85 14.86-14.85 15.15-14.85-15.14zM860.67 675.26L856.03 661h9.27z" stroke="#6b707b" stroke-width="2" fill="#6b707b"/><path d="M860.67 357.5v-49a6 6 0 0 1 6-6H1074a6 6 0 0 0 6-6v-25.52" stroke="#6b707b" stroke-width="2" fill="none"/><path d="M861.67 358.5h-2v-1.03h2z" stroke="#6b707b" stroke-width=".05" fill="#6b707b"/><path d="M1080 248.46l12.73 21.52h-25.46z" stroke="#6b707b" stroke-width="2" fill="#fff"/><path d="M1560 366a6 6 0 0 1 6-6h346.67a6 6 0 0 1 6 6v183a6 6 0 0 1-6 6H1566a6 6 0 0 1-6-6z" stroke="#064ae4" stroke-width="3" fill="#c2e2ff"/><path d="M1560 403.24h358.67" stroke="#064ae4" stroke-width="3" fill="none"/><use xlink:href="#m" transform="matrix(1,0,0,1,1568,368) translate(94.64 21.759999999999998)"/><use xlink:href="#c" transform="matrix(1,0,0,1,1572,411.24) translate(0 21.780000000000005)"/><use xlink:href="#n" transform="matrix(1,0,0,1,1572,411.24) translate(16.64 21.780000000000005)"/><use xlink:href="#o" transform="matrix(1,0,0,1,1572,411.24) translate(87.2 21.780000000000005)"/><use xlink:href="#c" transform="matrix(1,0,0,1,1572,411.24) translate(0 49.02)"/><use xlink:href="#p" transform="matrix(1,0,0,1,1572,411.24) translate(16.64 49.02)"/><use xlink:href="#q" transform="matrix(1,0,0,1,1572,411.24) translate(58.82000000000001 49.02)"/><use xlink:href="#c" transform="matrix(1,0,0,1,1572,411.24) translate(0 76.26)"/><use xlink:href="#r" transform="matrix(1,0,0,1,1572,411.24) translate(16.64 76.26)"/><use xlink:href="#q" transform="matrix(1,0,0,1,1572,411.24) translate(72.5 76.26)"/><use xlink:href="#c" transform="matrix(1,0,0,1,1572,411.24) translate(0 103.5)"/><use xlink:href="#s" transform="matrix(1,0,0,1,1572,411.24) translate(16.64 103.5)"/><use xlink:href="#q" transform="matrix(1,0,0,1,1572,411.24) translate(96.84 103.5)"/><use xlink:href="#c" transform="matrix(1,0,0,1,1572,411.24) translate(0 130.74)"/><use xlink:href="#t" transform="matrix(1,0,0,1,1572,411.24) translate(16.64 130.74)"/><use xlink:href="#u" transform="matrix(1,0,0,1,1572,411.24) translate(57.74 130.74)"/><path d="M1560 646a6 6 0 0 1 6-6h346.67a6 6 0 0 1 6 6v74a6 6 0 0 1-6 6H1566a6 6 0 0 1-6-6z" stroke="#064ae4" stroke-width="3" fill="#c2e2ff"/><path d="M1560 683.24h358.67" stroke="#064ae4" stroke-width="3" fill="none"/><use xlink:href="#v" transform="matrix(1,0,0,1,1568,648) translate(59.99000000000001 21.759999999999998)"/><use xlink:href="#c" transform="matrix(1,0,0,1,1572,691.24) translate(0 21.759999999999998)"/><use xlink:href="#d" transform="matrix(1,0,0,1,1572,691.24) translate(16.64 21.759999999999998)"/><use xlink:href="#e" transform="matrix(1,0,0,1,1572,691.24) translate(100.76 21.759999999999998)"/><path d="M1739.33 587.25V620" stroke="#6b707b" stroke-width="2" fill="none"/><path d="M1739.33 557.9l14.85 14.86-14.85 15.15-14.85-15.14zM1739.33 635.26L1734.7 621h9.27z" stroke="#6b707b" stroke-width="2" fill="#6b707b"/><path d="M1739.33 357.5v-49a6 6 0 0 0-6-6H1086a6 6 0 0 1-6-6v-25.52" stroke="#6b707b" stroke-width="2" fill="none"/><path d="M1740.33 358.5h-2v-1.03h2z" stroke="#6b707b" stroke-width=".05" fill="#6b707b"/><path d="M1080 248.46l12.73 21.52h-25.46z" stroke="#6b707b" stroke-width="2" fill="#fff"/><path d="M1121.33 526a6 6 0 0 1 6-6H1474a6 6 0 0 1 6 6v74a6 6 0 0 1-6 6h-346.67a6 6 0 0 1-6-6z" stroke="#064ae4" stroke-width="3" fill="#c2e2ff"/><path d="M1121.33 563.24H1480" stroke="#064ae4" stroke-width="3" fill="none"/><g><use xlink:href="#w" transform="matrix(1,0,0,1,1129.3333333333335,528) translate(122.34 21.759999999999998)"/></g><g><use xlink:href="#c" transform="matrix(1,0,0,1,1133.3333333333335,571.24) translate(0 21.759999999999998)"/><use xlink:href="#d" transform="matrix(1,0,0,1,1133.3333333333335,571.24) translate(16.64 21.759999999999998)"/><use xlink:href="#e" transform="matrix(1,0,0,1,1133.3333333333335,571.24) translate(100.76 21.759999999999998)"/></g><path d="M1300.67 517.5V486a6 6 0 0 0-6-6H1086.7a6 6 0 0 1-6-6V270.98" stroke="#6b707b" stroke-width="2" fill="none"/><path d="M1301.67 518.5h-2v-1.03h2z" stroke="#6b707b" stroke-width=".05" fill="#6b707b"/><path d="M1080.7 248.46l12.72 21.52h-25.45z" stroke="#6b707b" stroke-width="2" fill="#fff"/><path d="M241.33 366a6 6 0 0 1 6-6H594a6 6 0 0 1 6 6v115a6 6 0 0 1-6 6H247.33a6 6 0 0 1-6-6z" stroke="#064ae4" stroke-width="3" fill="#c2e2ff"/><path d="M241.33 403.24H600" stroke="#064ae4" stroke-width="3" fill="none"/><g><use xlink:href="#x" transform="matrix(1,0,0,1,249.33333333333348,368) translate(104.56 21.759999999999998)"/></g><g><use xlink:href="#c" transform="matrix(1,0,0,1,253.33333333333348,411.24) translate(0 28.14)"/><use xlink:href="#y" transform="matrix(1,0,0,1,253.33333333333348,411.24) translate(16.64 28.14)"/><use xlink:href="#z" transform="matrix(1,0,0,1,253.33333333333348,411.24) translate(114.42 28.14)"/><use xlink:href="#c" transform="matrix(1,0,0,1,253.33333333333348,411.24) translate(0 55.379999999999995)"/><use xlink:href="#A" transform="matrix(1,0,0,1,253.33333333333348,411.24) translate(16.64 55.379999999999995)"/><use xlink:href="#B" transform="matrix(1,0,0,1,253.33333333333348,411.24) translate(126.66000000000001 55.379999999999995)"/></g><path d="M241.33 566a6 6 0 0 1 6-6H594a6 6 0 0 1 6 6v74a6 6 0 0 1-6 6H247.33a6 6 0 0 1-6-6z" stroke="#064ae4" stroke-width="3" fill="#c2e2ff"/><path d="M241.33 603.24H600" stroke="#064ae4" stroke-width="3" fill="none"/><g><use xlink:href="#C" transform="matrix(1,0,0,1,249.33333333333354,568) translate(129.57999999999998 21.759999999999998)"/></g><g><use xlink:href="#c" transform="matrix(1,0,0,1,253.33333333333354,611.24) translate(0 21.759999999999998)"/><use xlink:href="#d" transform="matrix(1,0,0,1,253.33333333333354,611.24) translate(16.64 21.759999999999998)"/><use xlink:href="#e" transform="matrix(1,0,0,1,253.33333333333354,611.24) translate(100.76 21.759999999999998)"/></g><path d="M632.25 423.5h3.25a6 6 0 0 1 6 6v87.25a6 6 0 0 1-6 6H426.67a6 6 0 0 0-6 6V540" stroke="#6b707b" stroke-width="2" fill="none"/><path d="M602.9 423.5l14.86-14.85 15.15 14.85-15.14 14.85zM420.67 555.26L416.03 541h9.27z" stroke="#6b707b" stroke-width="2" fill="#6b707b"/><path d="M632.25 460.4h3.25a6 6 0 0 1 6 6v50.35a6 6 0 0 1-6 6H426.67a6 6 0 0 0-6 6V540" stroke="#6b707b" stroke-width="2" fill="none"/><path d="M602.9 460.4l14.86-14.86 15.15 14.85-15.14 14.84z" stroke="#6b707b" stroke-width="2" fill="#fff"/><path d="M420.67 555.26L416.03 541h9.27z" stroke="#6b707b" stroke-width="2" fill="#6b707b"/><path d="M420.67 357.5v-49a6 6 0 0 1 6-6H1074a6 6 0 0 0 6-6v-25.52" stroke="#6b707b" stroke-width="2" fill="none"/><path d="M421.67 358.5h-2v-1.03h2z" stroke="#6b707b" stroke-width=".05" fill="#6b707b"/><path d="M1080 248.46l12.73 21.52h-25.46z" stroke="#6b707b" stroke-width="2" fill="#fff"/><defs><path fill="#1d262b" d="M967-714L785 0H613c-44-180-98-350-130-542-31 193-86 361-129 542H182L0-714h149c42 193 95 373 126 577 30-209 91-384 137-577h143c46 192 106 370 137 577 31-204 84-384 126-577h149" id="D"/><path fill="#1d262b" d="M72-687c-2-54 33-72 81-73 47 1 81 20 81 73 0 52-34 72-81 73-48-1-83-21-81-73zm155 141V0H78v-546h149" id="E"/><path fill="#1d262b" d="M406-71c-31 45-77 83-155 81C111 5 45-111 45-272c0-164 67-279 210-284 78-1 126 35 157 80h5c-17-79-9-188-11-284h149V0H441l-29-71h-6zM196-270c0 92 27 161 107 161 95 0 113-64 113-162 0-99-19-164-115-164-77 0-106 75-105 165" id="F"/><path fill="#1d262b" d="M45-272c-2-159 65-281 210-284 67 0 120 27 158 80h4l12-70h126V1c-1 164-102 240-273 239-82 0-143-8-204-32V89c67 28 138 42 213 42 80 0 118-46 115-135 0-21 3-48 4-67h-4c-33 51-79 79-155 81C107 7 43-115 45-272zm371 19c1-111-15-180-114-182-70 0-105 55-105 165 0 109 36 163 107 163 87-3 112-49 112-146" id="G"/><path fill="#1d262b" d="M45-269c1-179 86-283 258-287 151-1 247 93 245 248v72H196c2 82 52 136 136 135 79 0 127-16 185-43v115C461-2 409 10 325 10 148 7 46-88 45-269zm363-66c-2-66-34-117-104-115-66 2-100 46-105 115h209" id="H"/><path fill="#1d262b" d="M243-171c-4 82 106 65 159 45v111c-35 14-86 26-137 25C150 9 94-49 94-171v-263H23v-63l82-50 43-115h95v116h153v112H243v263" id="I"/><g id="a"><use transform="matrix(0.02,0,0,0.02,0,0)" xlink:href="#D"/><use transform="matrix(0.02,0,0,0.02,19.34,0)" xlink:href="#E"/><use transform="matrix(0.02,0,0,0.02,25.44,0)" xlink:href="#F"/><use transform="matrix(0.02,0,0,0.02,38.1,0)" xlink:href="#G"/><use transform="matrix(0.02,0,0,0.02,50.76,0)" xlink:href="#H"/><use transform="matrix(0.02,0,0,0.02,62.58,0)" xlink:href="#I"/></g><path fill="#1d262b" d="M314-714c229 4 366 119 368 350C684-121 535 0 292 0H90v-714h224zm211 354c1-150-62-228-203-230h-81v465c186 15 286-53 284-235" id="J"/><path fill="#1d262b" d="M208 0L0-546h156c39 124 87 239 120 369 4 20 5 38 6 54h4c2-36 9-73 22-112l105-311h156L361 0H208" id="K"/><path fill="#1d262b" d="M553-551c-47-21-99-46-160-47-127 1-180 107-179 243 1 141 44 238 179 239 72-1 122-18 182-38v127C514-3 461 10 379 10 155 9 60-133 58-356c-3-257 173-414 442-354 36 9 69 21 102 36" id="L"/><path fill="#1d262b" d="M311-556c169 3 261 108 263 282 3 174-98 287-266 284C139 7 47-99 45-274s97-285 266-282zm-2 120c-89 0-111 65-112 162 1 97 23 164 113 164 89 0 111-68 112-164-1-97-23-162-113-162" id="M"/><path fill="#1d262b" d="M220-476c29-51 93-79 168-80 124 2 194 67 194 200V0H433v-319c-1-72-20-117-88-118-100 1-118 75-118 180V0H78v-546h114l20 70h8" id="N"/><path fill="#1d262b" d="M93-508c55-29 128-49 209-49 140 0 227 57 227 193V0H425l-29-74h-4c-47 56-83 83-181 84C109 9 39-52 42-163c-1-166 165-176 339-177 6-70-22-108-85-107-61 0-108 21-154 40zM267-99c64 0 116-42 114-109v-45c-95 1-187 4-186 91-1 45 29 62 72 63" id="O"/><path fill="#1d262b" d="M220-454c35-62 109-120 213-98l-11 140c-106-18-195 24-195 134V0H78v-546h113l22 92h7" id="P"/><g id="b"><use transform="matrix(0.02,0,0,0.02,0,0)" xlink:href="#J"/><use transform="matrix(0.02,0,0,0.02,14.8,0)" xlink:href="#E"/><use transform="matrix(0.02,0,0,0.02,20.900000000000002,0)" xlink:href="#K"/><use transform="matrix(0.02,0,0,0.02,32.28,0)" xlink:href="#L"/><use transform="matrix(0.02,0,0,0.02,45.02,0)" xlink:href="#M"/><use transform="matrix(0.02,0,0,0.02,57.4,0)" xlink:href="#N"/><use transform="matrix(0.02,0,0,0.02,70.54,0)" xlink:href="#I"/><use transform="matrix(0.02,0,0,0.02,79.22,0)" xlink:href="#O"/><use transform="matrix(0.02,0,0,0.02,91.3,0)" xlink:href="#E"/><use transform="matrix(0.02,0,0,0.02,97.39999999999998,0)" xlink:href="#N"/><use transform="matrix(0.02,0,0,0.02,110.53999999999998,0)" xlink:href="#H"/><use transform="matrix(0.02,0,0,0.02,122.35999999999999,0)" xlink:href="#P"/></g><path fill="#1d262b" d="M321-388h199v71H321v206h-72v-206H50v-71h199v-207h72v207" id="Q"/><use transform="matrix(0.02,0,0,0.02,0,0)" xlink:href="#Q" id="c"/><path fill="#1d262b" d="M523-1c-43-147-94-290-129-444h-4C358-288 301-148 258-1H158L11-537h91c36 148 81 291 109 446h4c33-159 87-298 131-446h96c42 149 95 287 128 445h4c29-153 75-298 111-445h90L626-1H523" id="R"/><path fill="#1d262b" d="M78-681c-1-36 20-55 52-56 30 1 53 21 51 56 2 34-22 55-51 56-31 0-53-21-52-56zm95 145V0H85v-536h88" id="S"/><path fill="#1d262b" d="M442-72c-34 45-85 84-167 82C127 7 55-102 55-267s73-275 221-279c82-2 131 35 166 79h6c-11-89-4-195-6-293h88V0h-71l-13-72h-4zM146-265c0 115 37 200 143 202 125 0 156-74 154-203-2-127-29-207-155-207-105 1-142 96-142 208" id="T"/><path fill="#1d262b" d="M55-267c0-156 73-278 220-279 79 1 132 31 168 81h5l12-71h70V9c-1 157-79 231-240 231-79 0-143-11-193-34v-81c53 28 119 42 198 42 98 0 156-66 148-172 0-12 2-55 3-66h-4c-36 54-91 81-166 81C127 9 55-107 55-267zm389 21c2-143-28-226-157-226-102 0-142 91-141 206 0 117 37 204 143 204 116 0 154-62 155-184" id="U"/><path fill="#1d262b" d="M55-264c2-166 77-282 237-282 163 0 232 117 221 295H146c1 115 59 186 171 186 74 0 118-15 172-37v77c-55 23-99 35-176 35C146 6 56-92 55-264zm366-57c-2-88-39-155-130-153-91 1-135 65-143 153h273" id="V"/><path fill="#1d262b" d="M180-158c-9 93 83 112 159 85v67c-18 10-61 16-90 16C146 8 92-45 92-156v-312H16v-42l77-35 35-114h52v123h155v68H180v310" id="W"/><path fill="#1d262b" d="M246-474c-75 0-138 40-98 102 80 80 284 66 286 224 0 112-95 158-214 158C149 10 97-1 52-24v-80c68 41 288 86 297-36-11-69-69-74-132-104-80-36-163-53-166-160-4-161 250-168 372-106l-30 70c-42-17-91-34-147-34" id="X"/><path fill="#1d262b" d="M133-414c-37-1-63-25-61-68-2-45 22-66 61-68 39 1 65 22 63 68 2 44-25 67-63 68zm0 428c-37-1-63-25-61-68-2-44 23-66 61-67 39 1 65 22 63 67 2 44-25 67-63 68" id="Y"/><g id="d"><use transform="matrix(0.02,0,0,0.02,0,0)" xlink:href="#R"/><use transform="matrix(0.02,0,0,0.02,15.72,0)" xlink:href="#S"/><use transform="matrix(0.02,0,0,0.02,20.88,0)" xlink:href="#T"/><use transform="matrix(0.02,0,0,0.02,33.18000000000001,0)" xlink:href="#U"/><use transform="matrix(0.02,0,0,0.02,45.480000000000004,0)" xlink:href="#V"/><use transform="matrix(0.02,0,0,0.02,56.76,0)" xlink:href="#W"/><use transform="matrix(0.02,0,0,0.02,63.980000000000004,0)" xlink:href="#X"/><use transform="matrix(0.02,0,0,0.02,73.56,0)" xlink:href="#Y"/></g><path fill="#1d262b" d="M917-714L727 0h-91c-58-203-124-399-175-609C416-397 346-203 292 0h-91L12-714h94c48 202 109 393 145 606 37-218 111-403 164-606h93c56 202 129 389 170 606 37-212 98-404 145-606h94" id="Z"/><path fill="#1d262b" d="M304 158H80v-872h224v72H166V86h138v72" id="aa"/><path fill="#1d262b" d="M25 86h138v-728H25v-72h224v872H25V86" id="ab"/><g id="e"><use transform="matrix(0.02,0,0,0.02,0,0)" xlink:href="#Z"/><use transform="matrix(0.02,0,0,0.02,18.6,0)" xlink:href="#S"/><use transform="matrix(0.02,0,0,0.02,23.76,0)" xlink:href="#T"/><use transform="matrix(0.02,0,0,0.02,36.06,0)" xlink:href="#U"/><use transform="matrix(0.02,0,0,0.02,48.36,0)" xlink:href="#V"/><use transform="matrix(0.02,0,0,0.02,59.64,0)" xlink:href="#W"/><use transform="matrix(0.02,0,0,0.02,66.86,0)" xlink:href="#aa"/><use transform="matrix(0.02,0,0,0.02,73.44,0)" xlink:href="#ab"/></g><path fill="#1d262b" d="M90 0v-714h151v589h290V0H90" id="ac"/><path fill="#1d262b" d="M34 114c48 10 106 9 134-22 24-26 38-59 49-96L0-546h163c38 118 81 230 115 352 3 16 5 33 6 50h3c27-147 82-267 122-402h160L338 70C300 190 190 265 34 232V114" id="ad"/><path fill="#1d262b" d="M312-109c100-1 118-75 118-180v-257h149V0H465l-20-70h-8c-29 51-93 79-168 80C145 8 75-57 75-190v-356h149v319c1 71 21 117 88 118" id="ae"/><path fill="#1d262b" d="M400-116c39 0 66-4 96-10v-149H361v-126h283v370C567-6 493 10 390 10 169 10 58-129 58-358c0-273 202-407 485-354 37 8 70 19 100 32l-50 121c-42-21-100-39-163-39-142 4-216 98-216 243 0 137 48 238 186 239" id="af"/><g id="f"><use transform="matrix(0.02,0,0,0.02,0,0)" xlink:href="#ac"/><use transform="matrix(0.02,0,0,0.02,11.3,0)" xlink:href="#O"/><use transform="matrix(0.02,0,0,0.02,23.38,0)" xlink:href="#ad"/><use transform="matrix(0.02,0,0,0.02,34.760000000000005,0)" xlink:href="#M"/><use transform="matrix(0.02,0,0,0.02,47.14000000000001,0)" xlink:href="#ae"/><use transform="matrix(0.02,0,0,0.02,60.28000000000001,0)" xlink:href="#I"/><use transform="matrix(0.02,0,0,0.02,68.96000000000001,0)" xlink:href="#af"/><use transform="matrix(0.02,0,0,0.02,83.44000000000003,0)" xlink:href="#P"/><use transform="matrix(0.02,0,0,0.02,92.52,0)" xlink:href="#E"/><use transform="matrix(0.02,0,0,0.02,98.62,0)" xlink:href="#F"/></g><path fill="#1d262b" d="M171-438c38-67 114-131 227-102l-11 81c-127-30-214 51-214 173V0H85v-536h72l10 98h4" id="ag"/><path fill="#1d262b" d="M304-546c162 0 245 109 247 277 3 167-90 279-250 279C140 10 57-102 55-269c-3-167 89-277 249-277zm-2 74c-116 0-155 84-156 203 1 118 41 206 157 206 115 0 157-88 157-206-1-119-42-203-158-203" id="ah"/><g id="g"><use transform="matrix(0.02,0,0,0.02,0,0)" xlink:href="#ag"/><use transform="matrix(0.02,0,0,0.02,7.859999999999999,0)" xlink:href="#ah"/><use transform="matrix(0.02,0,0,0.02,19.56,0)" xlink:href="#R"/><use transform="matrix(0.02,0,0,0.02,35.28,0)" xlink:href="#X"/><use transform="matrix(0.02,0,0,0.02,44.86,0)" xlink:href="#Y"/></g><path fill="#1d262b" d="M97 0v-714h90v634h312V0H97" id="ai"/><path fill="#1d262b" d="M105-499c45-24 114-47 183-46 129 1 191 52 192 180V0h-64l-17-76h-4c-47 56-81 85-180 86C116 9 43-43 46-149c3-159 172-173 348-174 7-99-22-152-111-151-59-1-110 22-151 41zM235-61c93-1 161-53 158-153v-48c-125 5-256-1-256 114-1 59 41 87 98 87" id="aj"/><path fill="#1d262b" d="M11 162c47 10 103 8 133-20 35-33 52-91 73-140L1-536h94c53 150 120 289 161 451h4c44-156 104-302 155-451h95L279 74c-36 90-78 165-195 166-28 0-52-3-73-8v-70" id="ak"/><path fill="#1d262b" d="M287-63c123 0 158-72 158-194v-279h88V0h-72l-13-71h-4c-30 52-94 80-170 81C142 9 79-50 79-185v-351h89v345c0 85 40 128 119 128" id="al"/><path fill="#1d262b" d="M424-68c57 0 98-7 140-17v-212H407v-80h247v350C576-2 506 10 403 10 175 8 64-129 61-357c-3-271 199-407 483-356 36 7 69 18 100 31l-34 78c-49-21-115-42-184-41-172-2-273 114-271 288 3 180 83 290 269 289" id="am"/><path fill="#1d262b" d="M554-511c1 110-65 161-143 191L607 0H502L329-295H187V0H97v-714h197c162 0 257 53 260 203zm-93 4c7-139-134-131-274-129v265h107c107 0 165-38 167-136" id="an"/><g id="h"><use transform="matrix(0.02,0,0,0.02,0,0)" xlink:href="#ai"/><use transform="matrix(0.02,0,0,0.02,10.48,0)" xlink:href="#aj"/><use transform="matrix(0.02,0,0,0.02,21.700000000000006,0)" xlink:href="#ak"/><use transform="matrix(0.02,0,0,0.02,31.900000000000006,0)" xlink:href="#ah"/><use transform="matrix(0.02,0,0,0.02,44.00000000000001,0)" xlink:href="#al"/><use transform="matrix(0.02,0,0,0.02,56.360000000000014,0)" xlink:href="#W"/><use transform="matrix(0.02,0,0,0.02,63.58,0)" xlink:href="#am"/><use transform="matrix(0.02,0,0,0.02,78.14,0)" xlink:href="#ag"/><use transform="matrix(0.02,0,0,0.02,86.4,0)" xlink:href="#S"/><use transform="matrix(0.02,0,0,0.02,91.56,0)" xlink:href="#T"/><use transform="matrix(0.02,0,0,0.02,103.86,0)" xlink:href="#an"/><use transform="matrix(0.02,0,0,0.02,116.3,0)" xlink:href="#ah"/><use transform="matrix(0.02,0,0,0.02,127.99999999999999,0)" xlink:href="#R"/><use transform="matrix(0.02,0,0,0.02,143.72,0)" xlink:href="#aa"/><use transform="matrix(0.02,0,0,0.02,150.3,0)" xlink:href="#ab"/></g><path fill="#1d262b" d="M583-500c-1 103-63 155-133 189L660 0H492L322-274h-81V0H90v-714h208c176 0 281 53 285 214zm-153 4c0-94-88-95-189-94v193c104 4 189-5 189-99" id="ao"/><path fill="#1d262b" d="M527 0c-31-144-64-289-98-432h-4C393-288 358-143 325 0H165L10-546h148c34 138 77 265 93 421h4c15-157 60-282 92-421h164c30 140 75 263 88 421h4c17-155 62-284 97-421h146L689 0H527" id="ap"/><g id="i"><use transform="matrix(0.02,0,0,0.02,0,0)" xlink:href="#ac"/><use transform="matrix(0.02,0,0,0.02,11.3,0)" xlink:href="#O"/><use transform="matrix(0.02,0,0,0.02,23.38,0)" xlink:href="#ad"/><use transform="matrix(0.02,0,0,0.02,34.760000000000005,0)" xlink:href="#M"/><use transform="matrix(0.02,0,0,0.02,47.14000000000001,0)" xlink:href="#ae"/><use transform="matrix(0.02,0,0,0.02,60.28000000000001,0)" xlink:href="#I"/><use transform="matrix(0.02,0,0,0.02,68.96000000000001,0)" xlink:href="#af"/><use transform="matrix(0.02,0,0,0.02,83.44000000000003,0)" xlink:href="#P"/><use transform="matrix(0.02,0,0,0.02,92.52,0)" xlink:href="#E"/><use transform="matrix(0.02,0,0,0.02,98.62,0)" xlink:href="#F"/><use transform="matrix(0.02,0,0,0.02,111.28,0)" xlink:href="#ao"/><use transform="matrix(0.02,0,0,0.02,124.48,0)" xlink:href="#M"/><use transform="matrix(0.02,0,0,0.02,136.46,0)" xlink:href="#ap"/></g><path fill="#1d262b" d="M438-19c-39 19-78 29-138 29C136 6 55-93 55-265c0-205 125-311 330-273 25 6 46 13 62 21l-27 73c-29-11-77-25-116-25-105 0-158 68-158 203 0 118 42 198 153 200 58 1 100-14 139-31v78" id="aq"/><path fill="#1d262b" d="M173 0H85v-760h88V0" id="ar"/><path fill="#1d262b" d="M501-456c30-55 94-89 172-90 128 2 181 64 181 197V0h-87v-345c0-85-36-127-109-127-109 0-145 66-145 176V0h-87v-345c0-85-37-127-110-127-116 0-143 76-143 194V0H85v-536h71l13 73h5c28-50 86-82 158-83 84 0 139 30 164 90h5" id="as"/><path fill="#1d262b" d="M174-463c29-51 94-82 169-83 132 1 195 61 194 197V0h-87v-343c0-86-40-129-120-129-123 0-157 72-157 194V0H85v-536h71l13 73h5" id="at"/><g id="j"><use transform="matrix(0.02,0,0,0.02,0,0)" xlink:href="#aq"/><use transform="matrix(0.02,0,0,0.02,9.6,0)" xlink:href="#ah"/><use transform="matrix(0.02,0,0,0.02,21.7,0)" xlink:href="#ar"/><use transform="matrix(0.02,0,0,0.02,26.86,0)" xlink:href="#al"/><use transform="matrix(0.02,0,0,0.02,39.22,0)" xlink:href="#as"/><use transform="matrix(0.02,0,0,0.02,57.92,0)" xlink:href="#at"/><use transform="matrix(0.02,0,0,0.02,70.28,0)" xlink:href="#X"/><use transform="matrix(0.02,0,0,0.02,79.86,0)" xlink:href="#Y"/></g><path fill="#1d262b" d="M565-606c-44-19-98-40-162-39-160 0-250 121-247 288 0 170 77 289 246 288 65 0 119-13 171-28v78C517 2 467 10 389 10 164 8 61-134 61-358s119-362 343-366c75 0 141 14 197 42" id="au"/><g id="k"><use transform="matrix(0.02,0,0,0.02,0,0)" xlink:href="#ai"/><use transform="matrix(0.02,0,0,0.02,10.48,0)" xlink:href="#aj"/><use transform="matrix(0.02,0,0,0.02,21.700000000000006,0)" xlink:href="#ak"/><use transform="matrix(0.02,0,0,0.02,31.900000000000006,0)" xlink:href="#ah"/><use transform="matrix(0.02,0,0,0.02,44.00000000000001,0)" xlink:href="#al"/><use transform="matrix(0.02,0,0,0.02,56.360000000000014,0)" xlink:href="#W"/><use transform="matrix(0.02,0,0,0.02,63.58,0)" xlink:href="#am"/><use transform="matrix(0.02,0,0,0.02,78.14,0)" xlink:href="#ag"/><use transform="matrix(0.02,0,0,0.02,86.4,0)" xlink:href="#S"/><use transform="matrix(0.02,0,0,0.02,91.56,0)" xlink:href="#T"/><use transform="matrix(0.02,0,0,0.02,103.86,0)" xlink:href="#au"/><use transform="matrix(0.02,0,0,0.02,116.5,0)" xlink:href="#ah"/><use transform="matrix(0.02,0,0,0.02,128.6,0)" xlink:href="#ar"/><use transform="matrix(0.02,0,0,0.02,133.76,0)" xlink:href="#al"/><use transform="matrix(0.02,0,0,0.02,146.12,0)" xlink:href="#as"/><use transform="matrix(0.02,0,0,0.02,164.82,0)" xlink:href="#at"/><use transform="matrix(0.02,0,0,0.02,177.18,0)" xlink:href="#aa"/><use transform="matrix(0.02,0,0,0.02,183.76,0)" xlink:href="#ab"/></g><path fill="#1d262b" d="M227 0H78v-760h149V0" id="av"/><path fill="#1d262b" d="M558-476c27-51 90-79 161-80 130 2 189 65 188 200V0H758v-319c0-79-27-118-82-118-88 2-109 69-109 163V0H418v-319c0-79-27-118-82-118-94 2-109 78-109 180V0H78v-546h114l20 70h8c27-51 88-79 159-80 81 0 138 26 166 80h13" id="aw"/><g id="l"><use transform="matrix(0.02,0,0,0.02,0,0)" xlink:href="#ac"/><use transform="matrix(0.02,0,0,0.02,11.3,0)" xlink:href="#O"/><use transform="matrix(0.02,0,0,0.02,23.38,0)" xlink:href="#ad"/><use transform="matrix(0.02,0,0,0.02,34.760000000000005,0)" xlink:href="#M"/><use transform="matrix(0.02,0,0,0.02,47.14000000000001,0)" xlink:href="#ae"/><use transform="matrix(0.02,0,0,0.02,60.28000000000001,0)" xlink:href="#I"/><use transform="matrix(0.02,0,0,0.02,68.96000000000001,0)" xlink:href="#af"/><use transform="matrix(0.02,0,0,0.02,83.44000000000003,0)" xlink:href="#P"/><use transform="matrix(0.02,0,0,0.02,92.52,0)" xlink:href="#E"/><use transform="matrix(0.02,0,0,0.02,98.62,0)" xlink:href="#F"/><use transform="matrix(0.02,0,0,0.02,111.28,0)" xlink:href="#L"/><use transform="matrix(0.02,0,0,0.02,124.02,0)" xlink:href="#M"/><use transform="matrix(0.02,0,0,0.02,136.4,0)" xlink:href="#av"/><use transform="matrix(0.02,0,0,0.02,142.5,0)" xlink:href="#ae"/><use transform="matrix(0.02,0,0,0.02,155.64,0)" xlink:href="#aw"/><use transform="matrix(0.02,0,0,0.02,175.27999999999997,0)" xlink:href="#N"/></g><path fill="#1d262b" d="M291-598c-84-7-119 90-55 132 101 66 281 95 275 268C509-59 400 13 248 10 173 10 105-4 46-33v-141c61 24 133 59 214 59 85 0 135-70 84-122-93-93-286-96-290-284-3-172 177-234 348-190 34 9 69 21 106 37l-49 118c-57-22-99-36-168-42" id="ax"/><path fill="#1d262b" d="M466-31c-47 30-89 41-166 41C128 8 45-87 45-270c0-220 149-320 365-275 28 7 52 16 73 26l-44 115c-41-15-76-31-126-32-77 0-116 55-116 165-1 96 31 157 116 160 68 0 109-20 153-47v127" id="ay"/><g id="m"><use transform="matrix(0.02,0,0,0.02,0,0)" xlink:href="#ax"/><use transform="matrix(0.02,0,0,0.02,11.02,0)" xlink:href="#ay"/><use transform="matrix(0.02,0,0,0.02,21.299999999999997,0)" xlink:href="#P"/><use transform="matrix(0.02,0,0,0.02,29.979999999999997,0)" xlink:href="#M"/><use transform="matrix(0.02,0,0,0.02,42.36,0)" xlink:href="#av"/><use transform="matrix(0.02,0,0,0.02,48.46,0)" xlink:href="#av"/><use transform="matrix(0.02,0,0,0.02,54.56,0)" xlink:href="#L"/><use transform="matrix(0.02,0,0,0.02,67.3,0)" xlink:href="#M"/><use transform="matrix(0.02,0,0,0.02,79.67999999999999,0)" xlink:href="#N"/><use transform="matrix(0.02,0,0,0.02,92.82000000000001,0)" xlink:href="#I"/><use transform="matrix(0.02,0,0,0.02,101.5,0)" xlink:href="#O"/><use transform="matrix(0.02,0,0,0.02,113.58,0)" xlink:href="#E"/><use transform="matrix(0.02,0,0,0.02,119.67999999999998,0)" xlink:href="#N"/><use transform="matrix(0.02,0,0,0.02,132.82,0)" xlink:href="#H"/><use transform="matrix(0.02,0,0,0.02,144.64,0)" xlink:href="#P"/></g><g id="n"><use transform="matrix(0.02,0,0,0.02,0,0)" xlink:href="#aq"/><use transform="matrix(0.02,0,0,0.02,9.6,0)" xlink:href="#V"/><use transform="matrix(0.02,0,0,0.02,20.88,0)" xlink:href="#at"/><use transform="matrix(0.02,0,0,0.02,33.239999999999995,0)" xlink:href="#W"/><use transform="matrix(0.02,0,0,0.02,40.459999999999994,0)" xlink:href="#V"/><use transform="matrix(0.02,0,0,0.02,51.739999999999995,0)" xlink:href="#ag"/><use transform="matrix(0.02,0,0,0.02,59.99999999999999,0)" xlink:href="#Y"/></g><path fill="#1d262b" d="M457-607c-87-45-309-75-306 66 5 99 78 110 156 144 99 43 192 73 195 206C502-56 390 12 247 10 173 10 99-1 51-24v-86c98 48 366 86 361-73-3-101-84-112-168-147-104-43-180-82-184-212-6-199 273-214 425-142" id="az"/><g id="o"><use transform="matrix(0.02,0,0,0.02,0,0)" xlink:href="#az"/><use transform="matrix(0.02,0,0,0.02,10.98,0)" xlink:href="#aq"/><use transform="matrix(0.02,0,0,0.02,20.580000000000002,0)" xlink:href="#ag"/><use transform="matrix(0.02,0,0,0.02,28.439999999999998,0)" xlink:href="#ah"/><use transform="matrix(0.02,0,0,0.02,40.54,0)" xlink:href="#ar"/><use transform="matrix(0.02,0,0,0.02,45.7,0)" xlink:href="#ar"/><use transform="matrix(0.02,0,0,0.02,50.86,0)" xlink:href="#au"/><use transform="matrix(0.02,0,0,0.02,63.5,0)" xlink:href="#ah"/><use transform="matrix(0.02,0,0,0.02,75.6,0)" xlink:href="#at"/><use transform="matrix(0.02,0,0,0.02,87.96000000000001,0)" xlink:href="#W"/><use transform="matrix(0.02,0,0,0.02,95.17999999999998,0)" xlink:href="#aj"/><use transform="matrix(0.02,0,0,0.02,106.39999999999998,0)" xlink:href="#S"/><use transform="matrix(0.02,0,0,0.02,111.55999999999999,0)" xlink:href="#at"/><use transform="matrix(0.02,0,0,0.02,123.91999999999999,0)" xlink:href="#V"/><use transform="matrix(0.02,0,0,0.02,135.2,0)" xlink:href="#ag"/><use transform="matrix(0.02,0,0,0.02,143.45999999999998,0)" xlink:href="#an"/><use transform="matrix(0.02,0,0,0.02,155.89999999999998,0)" xlink:href="#V"/><use transform="matrix(0.02,0,0,0.02,167.17999999999998,0)" xlink:href="#U"/><use transform="matrix(0.02,0,0,0.02,179.48,0)" xlink:href="#S"/><use transform="matrix(0.02,0,0,0.02,184.64000000000001,0)" xlink:href="#ah"/><use transform="matrix(0.02,0,0,0.02,196.73999999999998,0)" xlink:href="#at"/></g><path fill="#1d262b" d="M173-463c34-47 82-85 167-83 148 4 220 111 220 277 0 164-73 276-221 279-79 2-133-36-166-78h-6c11 94 4 205 6 308H85v-776h72l12 73h4zm296 193c0-112-38-202-145-202-123 0-151 76-151 203 0 125 28 206 153 206 108-4 141-95 143-207" id="aA"/><g id="p"><use transform="matrix(0.02,0,0,0.02,0,0)" xlink:href="#W"/><use transform="matrix(0.02,0,0,0.02,7.22,0)" xlink:href="#ah"/><use transform="matrix(0.02,0,0,0.02,19.32,0)" xlink:href="#aA"/><use transform="matrix(0.02,0,0,0.02,31.62,0)" xlink:href="#Y"/></g><path fill="#1d262b" d="M209-724c148 0 238 115 185 252-33 85-144 118-178 204-5 17-6 43-6 67h-70c-21-169 126-191 175-295 38-82-18-151-112-151-68 0-113 21-160 42l-31-70c53-27 116-49 197-49zM179 14c-39-1-63-24-62-68-1-45 22-66 62-67 38 1 63 23 61 67 2 43-23 67-61 68" id="aB"/><g id="q"><use transform="matrix(0.02,0,0,0.02,0,0)" xlink:href="#az"/><use transform="matrix(0.02,0,0,0.02,10.98,0)" xlink:href="#aq"/><use transform="matrix(0.02,0,0,0.02,20.580000000000002,0)" xlink:href="#ag"/><use transform="matrix(0.02,0,0,0.02,28.439999999999998,0)" xlink:href="#ah"/><use transform="matrix(0.02,0,0,0.02,40.54,0)" xlink:href="#ar"/><use transform="matrix(0.02,0,0,0.02,45.7,0)" xlink:href="#ar"/><use transform="matrix(0.02,0,0,0.02,50.86,0)" xlink:href="#au"/><use transform="matrix(0.02,0,0,0.02,63.5,0)" xlink:href="#ah"/><use transform="matrix(0.02,0,0,0.02,75.6,0)" xlink:href="#at"/><use transform="matrix(0.02,0,0,0.02,87.96000000000001,0)" xlink:href="#W"/><use transform="matrix(0.02,0,0,0.02,95.17999999999998,0)" xlink:href="#aj"/><use transform="matrix(0.02,0,0,0.02,106.39999999999998,0)" xlink:href="#S"/><use transform="matrix(0.02,0,0,0.02,111.55999999999999,0)" xlink:href="#at"/><use transform="matrix(0.02,0,0,0.02,123.91999999999999,0)" xlink:href="#V"/><use transform="matrix(0.02,0,0,0.02,135.2,0)" xlink:href="#ag"/><use transform="matrix(0.02,0,0,0.02,143.45999999999998,0)" xlink:href="#an"/><use transform="matrix(0.02,0,0,0.02,155.89999999999998,0)" xlink:href="#V"/><use transform="matrix(0.02,0,0,0.02,167.17999999999998,0)" xlink:href="#U"/><use transform="matrix(0.02,0,0,0.02,179.48,0)" xlink:href="#S"/><use transform="matrix(0.02,0,0,0.02,184.64000000000001,0)" xlink:href="#ah"/><use transform="matrix(0.02,0,0,0.02,196.73999999999998,0)" xlink:href="#at"/><use transform="matrix(0.02,0,0,0.02,209.09999999999997,0)" xlink:href="#aB"/></g><path fill="#1d262b" d="M330-472c-124 0-157 72-157 195V0H85v-760h88c-2 99 5 207-5 298h6c30-50 91-82 167-83 133 1 196 60 196 196V0h-87v-343c0-86-40-129-120-129" id="aC"/><g id="r"><use transform="matrix(0.02,0,0,0.02,0,0)" xlink:href="#ag"/><use transform="matrix(0.02,0,0,0.02,8.26,0)" xlink:href="#S"/><use transform="matrix(0.02,0,0,0.02,13.42,0)" xlink:href="#U"/><use transform="matrix(0.02,0,0,0.02,25.72,0)" xlink:href="#aC"/><use transform="matrix(0.02,0,0,0.02,38.08,0)" xlink:href="#W"/><use transform="matrix(0.02,0,0,0.02,45.300000000000004,0)" xlink:href="#Y"/></g><path fill="#1d262b" d="M339 10c-81 2-133-34-166-78h-7L148 0H85v-760h88c-1 97 4 206-5 295h5c33-46 84-82 166-80 148 3 221 112 221 277S486 6 339 10zm-13-73c108-3 143-88 143-206 0-135-48-203-145-203-125 2-151 75-151 205 0 126 28 204 153 204" id="aD"/><g id="s"><use transform="matrix(0.02,0,0,0.02,0,0)" xlink:href="#aD"/><use transform="matrix(0.02,0,0,0.02,12.3,0)" xlink:href="#ah"/><use transform="matrix(0.02,0,0,0.02,24.400000000000002,0)" xlink:href="#W"/><use transform="matrix(0.02,0,0,0.02,31.619999999999997,0)" xlink:href="#W"/><use transform="matrix(0.02,0,0,0.02,38.839999999999996,0)" xlink:href="#ah"/><use transform="matrix(0.02,0,0,0.02,50.94,0)" xlink:href="#as"/><use transform="matrix(0.02,0,0,0.02,69.64,0)" xlink:href="#Y"/></g><path fill="#1d262b" d="M284-693c-79 0-90 69-87 157h135v68H197V0h-88v-468H15v-41l94-30C85-728 219-803 387-747l-23 69c-21-6-52-16-80-15" id="aE"/><g id="t"><use transform="matrix(0.02,0,0,0.02,0,0)" xlink:href="#ar"/><use transform="matrix(0.02,0,0,0.02,5.16,0)" xlink:href="#V"/><use transform="matrix(0.02,0,0,0.02,16.439999999999998,0)" xlink:href="#aE"/><use transform="matrix(0.02,0,0,0.02,23.319999999999997,0)" xlink:href="#W"/><use transform="matrix(0.02,0,0,0.02,30.539999999999996,0)" xlink:href="#Y"/></g><g id="u"><use transform="matrix(0.02,0,0,0.02,0,0)" xlink:href="#az"/><use transform="matrix(0.02,0,0,0.02,10.98,0)" xlink:href="#aq"/><use transform="matrix(0.02,0,0,0.02,20.580000000000002,0)" xlink:href="#ag"/><use transform="matrix(0.02,0,0,0.02,28.439999999999998,0)" xlink:href="#ah"/><use transform="matrix(0.02,0,0,0.02,40.54,0)" xlink:href="#ar"/><use transform="matrix(0.02,0,0,0.02,45.7,0)" xlink:href="#ar"/><use transform="matrix(0.02,0,0,0.02,50.86,0)" xlink:href="#au"/><use transform="matrix(0.02,0,0,0.02,63.5,0)" xlink:href="#ah"/><use transform="matrix(0.02,0,0,0.02,75.6,0)" xlink:href="#at"/><use transform="matrix(0.02,0,0,0.02,87.96000000000001,0)" xlink:href="#W"/><use transform="matrix(0.02,0,0,0.02,95.17999999999998,0)" xlink:href="#aj"/><use transform="matrix(0.02,0,0,0.02,106.39999999999998,0)" xlink:href="#S"/><use transform="matrix(0.02,0,0,0.02,111.55999999999999,0)" xlink:href="#at"/><use transform="matrix(0.02,0,0,0.02,123.91999999999999,0)" xlink:href="#V"/><use transform="matrix(0.02,0,0,0.02,135.2,0)" xlink:href="#ag"/><use transform="matrix(0.02,0,0,0.02,143.45999999999998,0)" xlink:href="#an"/><use transform="matrix(0.02,0,0,0.02,155.89999999999998,0)" xlink:href="#V"/><use transform="matrix(0.02,0,0,0.02,167.17999999999998,0)" xlink:href="#U"/><use transform="matrix(0.02,0,0,0.02,179.48,0)" xlink:href="#S"/><use transform="matrix(0.02,0,0,0.02,184.64000000000001,0)" xlink:href="#ah"/><use transform="matrix(0.02,0,0,0.02,196.73999999999998,0)" xlink:href="#at"/><use transform="matrix(0.02,0,0,0.02,209.09999999999997,0)" xlink:href="#aB"/></g><g id="v"><use transform="matrix(0.02,0,0,0.02,0,0)" xlink:href="#ax"/><use transform="matrix(0.02,0,0,0.02,11.02,0)" xlink:href="#ay"/><use transform="matrix(0.02,0,0,0.02,21.299999999999997,0)" xlink:href="#P"/><use transform="matrix(0.02,0,0,0.02,29.979999999999997,0)" xlink:href="#M"/><use transform="matrix(0.02,0,0,0.02,42.36,0)" xlink:href="#av"/><use transform="matrix(0.02,0,0,0.02,48.46,0)" xlink:href="#av"/><use transform="matrix(0.02,0,0,0.02,54.56,0)" xlink:href="#L"/><use transform="matrix(0.02,0,0,0.02,67.3,0)" xlink:href="#M"/><use transform="matrix(0.02,0,0,0.02,79.67999999999999,0)" xlink:href="#N"/><use transform="matrix(0.02,0,0,0.02,92.82000000000001,0)" xlink:href="#I"/><use transform="matrix(0.02,0,0,0.02,101.5,0)" xlink:href="#O"/><use transform="matrix(0.02,0,0,0.02,113.58,0)" xlink:href="#E"/><use transform="matrix(0.02,0,0,0.02,119.67999999999998,0)" xlink:href="#N"/><use transform="matrix(0.02,0,0,0.02,132.82,0)" xlink:href="#H"/><use transform="matrix(0.02,0,0,0.02,144.64,0)" xlink:href="#P"/><use transform="matrix(0.02,0,0,0.02,153.72,0)" xlink:href="#ao"/><use transform="matrix(0.02,0,0,0.02,166.92000000000002,0)" xlink:href="#H"/><use transform="matrix(0.02,0,0,0.02,178.73999999999998,0)" xlink:href="#G"/><use transform="matrix(0.02,0,0,0.02,191.39999999999998,0)" xlink:href="#E"/><use transform="matrix(0.02,0,0,0.02,197.49999999999997,0)" xlink:href="#M"/><use transform="matrix(0.02,0,0,0.02,209.87999999999997,0)" xlink:href="#N"/></g><path fill="#1d262b" d="M227-475c31-44 77-83 155-81 141 5 206 121 206 282 0 162-69 279-210 284-75 2-118-33-151-70h-8c16 91 5 198 8 300H78v-786h121l21 71h7zm109 364c80 0 99-74 100-165 0-107-34-161-102-161-91 1-107 65-107 162 0 96 18 164 109 164" id="aF"/><path fill="#1d262b" d="M619-207C618-68 505 0 357 0H90v-714c224 8 515-45 511 181 0 80-40 144-110 154v5c81 17 130 66 128 167zM446-513c3-91-111-75-205-77v159h88c76 0 115-17 117-82zm16 291c0-67-45-90-127-89h-94v186h99c80 1 122-28 122-97" id="aG"/><path fill="#1d262b" d="M190-279L14-546h169l106 174 107-174h169L387-279 573 0H404L289-187 174 0H5" id="aH"/><g id="w"><use transform="matrix(0.02,0,0,0.02,0,0)" xlink:href="#af"/><use transform="matrix(0.02,0,0,0.02,14.48,0)" xlink:href="#P"/><use transform="matrix(0.02,0,0,0.02,23.16,0)" xlink:href="#M"/><use transform="matrix(0.02,0,0,0.02,35.54,0)" xlink:href="#ae"/><use transform="matrix(0.02,0,0,0.02,48.68,0)" xlink:href="#aF"/><use transform="matrix(0.02,0,0,0.02,61.34,0)" xlink:href="#aG"/><use transform="matrix(0.02,0,0,0.02,74.78,0)" xlink:href="#M"/><use transform="matrix(0.02,0,0,0.02,86.75999999999998,0)" xlink:href="#aH"/></g><path fill="#1d262b" d="M365 0H214v-588H20v-126h539v126H365V0" id="aI"/><path fill="#1d262b" d="M378 10c-76 2-118-32-151-70h-10L192 0H78v-760h149c-1 95 4 199-6 285h6c31-45 77-83 155-81 141 5 206 121 206 282 0 164-67 279-210 284zm58-286c1-90-26-161-102-161-91 0-107 65-107 162 0 96 18 164 109 164 74 0 101-76 100-165" id="aJ"/><g id="x"><use transform="matrix(0.02,0,0,0.02,0,0)" xlink:href="#aI"/><use transform="matrix(0.02,0,0,0.02,9.98,0)" xlink:href="#O"/><use transform="matrix(0.02,0,0,0.02,22.06,0)" xlink:href="#aJ"/><use transform="matrix(0.02,0,0,0.02,34.72,0)" xlink:href="#L"/><use transform="matrix(0.02,0,0,0.02,47.46,0)" xlink:href="#M"/><use transform="matrix(0.02,0,0,0.02,59.84,0)" xlink:href="#N"/><use transform="matrix(0.02,0,0,0.02,72.98,0)" xlink:href="#I"/><use transform="matrix(0.02,0,0,0.02,81.66,0)" xlink:href="#O"/><use transform="matrix(0.02,0,0,0.02,93.74,0)" xlink:href="#E"/><use transform="matrix(0.02,0,0,0.02,99.83999999999999,0)" xlink:href="#N"/><use transform="matrix(0.02,0,0,0.02,112.97999999999999,0)" xlink:href="#H"/><use transform="matrix(0.02,0,0,0.02,124.79999999999998,0)" xlink:href="#P"/></g><path fill="#1d262b" d="M554-504c0 158-111 227-285 226h-82V0H97v-714h189c168-1 268 59 268 210zm-93 4c0-136-129-143-274-137v282c149 3 274-3 274-145" id="aK"/><g id="y"><use transform="matrix(0.02,0,0,0.02,0,0)" xlink:href="#W"/><use transform="matrix(0.02,0,0,0.02,7.22,0)" xlink:href="#aj"/><use transform="matrix(0.02,0,0,0.02,18.44,0)" xlink:href="#aD"/><use transform="matrix(0.02,0,0,0.02,30.740000000000002,0)" xlink:href="#aK"/><use transform="matrix(0.02,0,0,0.02,42.84,0)" xlink:href="#aj"/><use transform="matrix(0.02,0,0,0.02,54.06,0)" xlink:href="#U"/><use transform="matrix(0.02,0,0,0.02,66.36,0)" xlink:href="#V"/><use transform="matrix(0.02,0,0,0.02,77.64,0)" xlink:href="#X"/><use transform="matrix(0.02,0,0,0.02,87.22,0)" xlink:href="#Y"/></g><path fill="#1d262b" d="M323 0h-90v-635H10v-79h535v79H323V0" id="aL"/><g id="z"><use transform="matrix(0.02,0,0,0.02,0,0)" xlink:href="#aL"/><use transform="matrix(0.02,0,0,0.02,9.520000000000001,0)" xlink:href="#aj"/><use transform="matrix(0.02,0,0,0.02,20.740000000000002,0)" xlink:href="#aD"/><use transform="matrix(0.02,0,0,0.02,33.040000000000006,0)" xlink:href="#aK"/><use transform="matrix(0.02,0,0,0.02,45.14000000000001,0)" xlink:href="#aj"/><use transform="matrix(0.02,0,0,0.02,56.360000000000014,0)" xlink:href="#U"/><use transform="matrix(0.02,0,0,0.02,68.66000000000001,0)" xlink:href="#V"/><use transform="matrix(0.02,0,0,0.02,79.94000000000001,0)" xlink:href="#aa"/><use transform="matrix(0.02,0,0,0.02,86.52,0)" xlink:href="#ab"/></g><g id="A"><use transform="matrix(0.02,0,0,0.02,0,0)" xlink:href="#T"/><use transform="matrix(0.02,0,0,0.02,12.3,0)" xlink:href="#V"/><use transform="matrix(0.02,0,0,0.02,23.580000000000002,0)" xlink:href="#aE"/><use transform="matrix(0.02,0,0,0.02,30.459999999999997,0)" xlink:href="#aj"/><use transform="matrix(0.02,0,0,0.02,41.68,0)" xlink:href="#al"/><use transform="matrix(0.02,0,0,0.02,54.04,0)" xlink:href="#ar"/><use transform="matrix(0.02,0,0,0.02,59.2,0)" xlink:href="#W"/><use transform="matrix(0.02,0,0,0.02,66.42,0)" xlink:href="#aL"/><use transform="matrix(0.02,0,0,0.02,75.94000000000001,0)" xlink:href="#aj"/><use transform="matrix(0.02,0,0,0.02,87.16,0)" xlink:href="#aD"/><use transform="matrix(0.02,0,0,0.02,99.46000000000001,0)" xlink:href="#Y"/></g><g id="B"><use transform="matrix(0.02,0,0,0.02,0,0)" xlink:href="#aL"/><use transform="matrix(0.02,0,0,0.02,9.520000000000001,0)" xlink:href="#aj"/><use transform="matrix(0.02,0,0,0.02,20.740000000000002,0)" xlink:href="#aD"/><use transform="matrix(0.02,0,0,0.02,33.040000000000006,0)" xlink:href="#aK"/><use transform="matrix(0.02,0,0,0.02,45.14000000000001,0)" xlink:href="#aj"/><use transform="matrix(0.02,0,0,0.02,56.360000000000014,0)" xlink:href="#U"/><use transform="matrix(0.02,0,0,0.02,68.66000000000001,0)" xlink:href="#V"/><use transform="matrix(0.02,0,0,0.02,79.94000000000001,0)" xlink:href="#aB"/></g><path fill="#1d262b" d="M583-491c0 183-133 252-342 237V0H90v-714h228c169-2 265 70 265 223zM241-378c103 5 189-11 189-108 0-96-84-112-189-104v212" id="aM"/><g id="C"><use transform="matrix(0.02,0,0,0.02,0,0)" xlink:href="#aI"/><use transform="matrix(0.02,0,0,0.02,9.98,0)" xlink:href="#O"/><use transform="matrix(0.02,0,0,0.02,22.06,0)" xlink:href="#aJ"/><use transform="matrix(0.02,0,0,0.02,34.72,0)" xlink:href="#aM"/><use transform="matrix(0.02,0,0,0.02,47.28,0)" xlink:href="#O"/><use transform="matrix(0.02,0,0,0.02,59.36,0)" xlink:href="#G"/><use transform="matrix(0.02,0,0,0.02,72.02,0)" xlink:href="#H"/></g></defs></g></svg>
