<svg xmlns="http://www.w3.org/2000/svg" xmlns:xlink="http://www.w3.org/1999/xlink" xmlns:lucid="lucid" width="2160" height="1023.5"><g transform="translate(-620 -180)" lucid:page-tab-id="DSLMso0tfbhT"><path d="M1200 206a6 6 0 0 1 6-6h188a6 6 0 0 1 6 6v33a6 6 0 0 1-6 6h-188a6 6 0 0 1-6-6z" stroke="#2f3646" stroke-width="3" fill="#d9dbdd"/><use xlink:href="#a" transform="matrix(1,0,0,1,1208,208) translate(56.37 22.259999999999998)"/><path d="M1200 326a6 6 0 0 1 6-6h188a6 6 0 0 1 6 6v33a6 6 0 0 1-6 6h-188a6 6 0 0 1-6-6z" stroke="#2f3646" stroke-width="3" fill="#d9dbdd"/><use xlink:href="#b" transform="matrix(1,0,0,1,1208,328) translate(26.78 22.259999999999998)"/><path d="M1300 317.5v-46.52" stroke="#6b707b" stroke-width="2" fill="none"/><path d="M1301 318.5h-2v-1.03h2z" stroke="#6b707b" stroke-width=".05" fill="#6b707b"/><path d="M1300 248.46l12.73 21.52h-25.46z" stroke="#6b707b" stroke-width="2" fill="#fff"/><path d="M1187.65 497.34a6 6 0 0 1 6-6h214.78a6 6 0 0 1 6 6v33a6 6 0 0 1-6 6h-214.78a6 6 0 0 1-6-6z" stroke="#2f3646" stroke-width="3" fill="#d9dbdd"/><use xlink:href="#c" transform="matrix(1,0,0,1,1195.6547193894417,499.33858267716533) translate(7.329999999999998 22.259999999999998)"/><path d="M1301.04 488.84v-97.87" stroke="#6b707b" stroke-width="2" fill="none"/><path d="M1302.04 489.84h-2v-1.03h2z" stroke="#6b707b" stroke-width=".05" fill="#6b707b"/><path d="M1301.04 368.46l12.73 21.52h-25.45z" stroke="#6b707b" stroke-width="2" fill="#fff"/><path d="M640 406a6 6 0 0 1 6-6h348a6 6 0 0 1 6 6v183a6 6 0 0 1-6 6H646a6 6 0 0 1-6-6z" stroke="#064ae4" stroke-width="3" fill="#c2e2ff"/><path d="M640 443.24h360" stroke="#064ae4" stroke-width="3" fill="none"/><use xlink:href="#d" transform="matrix(1,0,0,1,648,408) translate(124.36 21.759999999999998)"/><use xlink:href="#e" transform="matrix(1,0,0,1,652,451.24) translate(0 21.780000000000005)"/><use xlink:href="#f" transform="matrix(1,0,0,1,652,451.24) translate(16.64 21.780000000000005)"/><use xlink:href="#g" transform="matrix(1,0,0,1,652,451.24) translate(133.33999999999997 21.780000000000005)"/><use xlink:href="#e" transform="matrix(1,0,0,1,652,451.24) translate(0 49.02)"/><use xlink:href="#h" transform="matrix(1,0,0,1,652,451.24) translate(16.64 49.02)"/><use xlink:href="#i" transform="matrix(1,0,0,1,652,451.24) translate(100.76 49.02)"/><use xlink:href="#e" transform="matrix(1,0,0,1,652,451.24) translate(0 76.26)"/><use xlink:href="#j" transform="matrix(1,0,0,1,652,451.24) translate(16.64 76.26)"/><use xlink:href="#k" transform="matrix(1,0,0,1,652,451.24) translate(137.9 76.26)"/><use xlink:href="#e" transform="matrix(1,0,0,1,652,451.24) translate(0 103.5)"/><use xlink:href="#l" transform="matrix(1,0,0,1,652,451.24) translate(16.64 103.5)"/><use xlink:href="#i" transform="matrix(1,0,0,1,652,451.24) translate(161.48000000000002 103.5)"/><use xlink:href="#e" transform="matrix(1,0,0,1,652,451.24) translate(0 130.74)"/><use xlink:href="#m" transform="matrix(1,0,0,1,652,451.24) translate(16.64 130.74)"/><use xlink:href="#n" transform="matrix(1,0,0,1,652,451.24) translate(188.32 130.74)"/><path d="M820 397.5v-49a6 6 0 0 1 6-6h348.02" stroke="#6b707b" stroke-width="2" fill="none"/><path d="M821 398.5h-2v-1.03h2z" stroke="#6b707b" stroke-width=".05" fill="#6b707b"/><path d="M1196.54 342.5l-21.52 12.73v-25.46z" stroke="#6b707b" stroke-width="2" fill="#fff"/><path d="M640 706a6 6 0 0 1 6-6h348a6 6 0 0 1 6 6v156a6 6 0 0 1-6 6H646a6 6 0 0 1-6-6z" stroke="#064ae4" stroke-width="3" fill="#c2e2ff"/><path d="M640 743.24h360" stroke="#064ae4" stroke-width="3" fill="none"/><use xlink:href="#o" transform="matrix(1,0,0,1,648,708) translate(130.17 21.759999999999998)"/><use xlink:href="#e" transform="matrix(1,0,0,1,652,751.24) translate(0 21.400000000000002)"/><use xlink:href="#f" transform="matrix(1,0,0,1,652,751.24) translate(16.64 21.400000000000002)"/><use xlink:href="#g" transform="matrix(1,0,0,1,652,751.24) translate(133.33999999999997 21.400000000000002)"/><use xlink:href="#e" transform="matrix(1,0,0,1,652,751.24) translate(0 48.64)"/><use xlink:href="#h" transform="matrix(1,0,0,1,652,751.24) translate(16.64 48.64)"/><use xlink:href="#i" transform="matrix(1,0,0,1,652,751.24) translate(100.76 48.64)"/><use xlink:href="#e" transform="matrix(1,0,0,1,652,751.24) translate(0 75.88)"/><use xlink:href="#p" transform="matrix(1,0,0,1,652,751.24) translate(16.64 75.88)"/><use xlink:href="#q" transform="matrix(1,0,0,1,652,751.24) translate(126.62 75.88)"/><use xlink:href="#e" transform="matrix(1,0,0,1,652,751.24) translate(0 103.12)"/><use xlink:href="#r" transform="matrix(1,0,0,1,652,751.24) translate(16.64 103.12)"/><use xlink:href="#s" transform="matrix(1,0,0,1,652,751.24) translate(121.16 103.12)"/><path d="M820 697.5V646a6 6 0 0 1 6-6h469.04a6 6 0 0 0 6-6v-71.68" stroke="#6b707b" stroke-width="2" fill="none"/><path d="M821 698.5h-2v-1.03h2z" stroke="#6b707b" stroke-width=".05" fill="#6b707b"/><path d="M1301.04 539.8l12.73 21.52h-25.45z" stroke="#6b707b" stroke-width="2" fill="#fff"/><path d="M640 946a6 6 0 0 1 6-6h348a6 6 0 0 1 6 6v102a6 6 0 0 1-6 6H646a6 6 0 0 1-6-6z" stroke="#064ae4" stroke-width="3" fill="#c2e2ff"/><path d="M640 983.24h360" stroke="#064ae4" stroke-width="3" fill="none"/><use xlink:href="#t" transform="matrix(1,0,0,1,648,948) translate(83.67999999999999 21.759999999999998)"/><use xlink:href="#e" transform="matrix(1,0,0,1,652,991.24) translate(0 21.64)"/><use xlink:href="#h" transform="matrix(1,0,0,1,652,991.24) translate(16.64 21.64)"/><use xlink:href="#i" transform="matrix(1,0,0,1,652,991.24) translate(100.76 21.64)"/><use xlink:href="#e" transform="matrix(1,0,0,1,652,991.24) translate(0 48.879999999999995)"/><use xlink:href="#u" transform="matrix(1,0,0,1,652,991.24) translate(16.64 48.879999999999995)"/><use xlink:href="#v" transform="matrix(1,0,0,1,652,991.24) translate(154.12 48.879999999999995)"/><path d="M820 900.25V920" stroke="#6b707b" stroke-width="2" fill="none"/><path d="M820 870.9l14.85 14.86L820 900.9l-14.85-15.14zM820 935.26L815.37 921h9.26z" stroke="#6b707b" stroke-width="2" fill="#6b707b"/><path d="M1121 706a6 6 0 0 1 6-6h348a6 6 0 0 1 6 6v115a6 6 0 0 1-6 6h-348a6 6 0 0 1-6-6z" stroke="#2f3646" stroke-width="3" fill="#d9dbdd"/><path d="M1121 743.24h360" stroke="#2f3646" stroke-width="3" fill="none"/><use xlink:href="#w" transform="matrix(1,0,0,1,1128.9998994681387,708) translate(150.84 21.759999999999998)"/><use xlink:href="#x" transform="matrix(1,0,0,1,1132.9998994681387,751.24) translate(0 28.14)"/><use xlink:href="#y" transform="matrix(1,0,0,1,1132.9998994681387,751.24) translate(16.64 28.14)"/><use xlink:href="#z" transform="matrix(1,0,0,1,1132.9998994681387,751.24) translate(133.33999999999997 28.14)"/><use xlink:href="#x" transform="matrix(1,0,0,1,1132.9998994681387,751.24) translate(0 55.379999999999995)"/><use xlink:href="#A" transform="matrix(1,0,0,1,1132.9998994681387,751.24) translate(16.64 55.379999999999995)"/><use xlink:href="#B" transform="matrix(1,0,0,1,1132.9998994681387,751.24) translate(126.08000000000001 55.379999999999995)"/><path d="M1301 697.5v-57.48a.02.02 0 0 1 .02-.02.02.02 0 0 0 .02-.02v-77.66" stroke="#6b707b" stroke-width="2" fill="none"/><path d="M1302 698.5h-2v-1.03h2z" stroke="#6b707b" stroke-width=".05" fill="#6b707b"/><path d="M1301.04 539.8l12.73 21.52h-25.45z" stroke="#6b707b" stroke-width="2" fill="#fff"/><path d="M1604 706.5a6 6 0 0 1 6-6h368a6 6 0 0 1 6 6v135a6 6 0 0 1-6 6h-368a6 6 0 0 1-6-6z" stroke="#064ae4" stroke-width="3" fill="#c2e2ff"/><path d="M1604 743.74h380" stroke="#064ae4" stroke-width="3" fill="none"/><g><use xlink:href="#C" transform="matrix(1,0,0,1,1611.9999966953958,708.4999775862078) translate(114.35000000000001 21.759999999999998)"/></g><g><use xlink:href="#e" transform="matrix(1,0,0,1,1615.9999966953958,751.7399775862078) translate(0 24.52)"/><use xlink:href="#D" transform="matrix(1,0,0,1,1615.9999966953958,751.7399775862078) translate(16.64 24.52)"/><use xlink:href="#E" transform="matrix(1,0,0,1,1615.9999966953958,751.7399775862078) translate(174.40000000000003 24.52)"/><use xlink:href="#e" transform="matrix(1,0,0,1,1615.9999966953958,751.7399775862078) translate(0 51.76)"/><use xlink:href="#F" transform="matrix(1,0,0,1,1615.9999966953958,751.7399775862078) translate(16.64 51.76)"/><use xlink:href="#E" transform="matrix(1,0,0,1,1615.9999966953958,751.7399775862078) translate(207.86 51.76)"/><use xlink:href="#e" transform="matrix(1,0,0,1,1615.9999966953958,751.7399775862078) translate(0 79)"/><use xlink:href="#G" transform="matrix(1,0,0,1,1615.9999966953958,751.7399775862078) translate(16.64 79)"/><use xlink:href="#H" transform="matrix(1,0,0,1,1615.9999966953958,751.7399775862078) translate(108.92 79)"/></g><path d="M1794 698v-33.5a6 6 0 0 0-6-6h-383.55a6 6 0 0 0-6 6v9.52" stroke="#6b707b" stroke-width="2" fill="none"/><path d="M1795 699h-2v-1.03h2z" stroke="#6b707b" stroke-width=".05" fill="#6b707b"/><path d="M1398.45 696.54l-12.72-21.52h25.45z" stroke="#6b707b" stroke-width="2" fill="#fff"/><path d="M1604 946a6 6 0 0 1 6-6h368a6 6 0 0 1 6 6v74a6 6 0 0 1-6 6h-368a6 6 0 0 1-6-6z" stroke="#064ae4" stroke-width="3" fill="#c2e2ff"/><path d="M1604 983.24h380" stroke="#064ae4" stroke-width="3" fill="none"/><g><use xlink:href="#I" transform="matrix(1,0,0,1,1611.9999966953958,948) translate(69.09 21.759999999999998)"/></g><g><use xlink:href="#e" transform="matrix(1,0,0,1,1615.9999966953958,991.24) translate(0 21.759999999999998)"/><use xlink:href="#h" transform="matrix(1,0,0,1,1615.9999966953958,991.24) translate(16.64 21.759999999999998)"/><use xlink:href="#J" transform="matrix(1,0,0,1,1615.9999966953958,991.24) translate(100.76 21.759999999999998)"/></g><path d="M1794 879.75V920" stroke="#6b707b" stroke-width="2" fill="none"/><path d="M1794 850.4l14.85 14.86L1794 880.4l-14.85-15.14zM1794 935.26l-4.63-14.26h9.27z" stroke="#6b707b" stroke-width="2" fill="#6b707b"/><path d="M1121 945a6 6 0 0 1 6-6h348a6 6 0 0 1 6 6v115a6 6 0 0 1-6 6h-348a6 6 0 0 1-6-6z" stroke="#2f3646" stroke-width="3" fill="#d9dbdd"/><path d="M1121 982.24h360" stroke="#2f3646" stroke-width="3" fill="none"/><g><use xlink:href="#K" transform="matrix(1,0,0,1,1128.9998994681387,947.0001) translate(112.27000000000001 21.759999999999998)"/></g><g><use xlink:href="#x" transform="matrix(1,0,0,1,1132.9998994681387,990.2401) translate(0 28.14)"/><use xlink:href="#L" transform="matrix(1,0,0,1,1132.9998994681387,990.2401) translate(16.64 28.14)"/><use xlink:href="#M" transform="matrix(1,0,0,1,1132.9998994681387,990.2401) translate(107.06 28.14)"/><use xlink:href="#x" transform="matrix(1,0,0,1,1132.9998994681387,990.2401) translate(0 55.379999999999995)"/><use xlink:href="#N" transform="matrix(1,0,0,1,1132.9998994681387,990.2401) translate(16.64 55.379999999999995)"/><use xlink:href="#O" transform="matrix(1,0,0,1,1132.9998994681387,990.2401) translate(174.40000000000003 55.379999999999995)"/></g><path d="M1301 936.5v-83.52" stroke="#6b707b" stroke-width="2" fill="none"/><path d="M1302 937.5h-2v-1.02h2z" stroke="#6b707b" stroke-width=".05" fill="#6b707b"/><path d="M1301 830.46l12.73 21.52h-25.46z" stroke="#6b707b" stroke-width="2" fill="#fff"/><path d="M983.67 1144.5a6 6 0 0 1 6-6H1215a6 6 0 0 1 6 6v33a6 6 0 0 1-6 6H989.67a6 6 0 0 1-6-6z" stroke="#064ae4" stroke-width="3" fill="#c2e2ff"/><g><use xlink:href="#P" transform="matrix(1,0,0,1,991.6665661348055,1146.5001500000003) translate(66.02000000000001 22.259999999999998)"/></g><path d="M1381 1144.5a6 6 0 0 1 6-6h225.33a6 6 0 0 1 6 6v33a6 6 0 0 1-6 6H1387a6 6 0 0 1-6-6z" stroke="#064ae4" stroke-width="3" fill="#c2e2ff"/><g><use xlink:href="#Q" transform="matrix(1,0,0,1,1388.9998994681387,1146.5001500000003) translate(4.489999999999981 22.259999999999998)"/></g><path d="M1102.33 1136v-27.75a6 6 0 0 1 6-6H1295a6 6 0 0 0 6-6v-4.27" stroke="#6b707b" stroke-width="2" fill="none"/><path d="M1103.33 1137h-2v-1.03h2z" stroke="#6b707b" stroke-width=".05" fill="#6b707b"/><path d="M1301 1069.46l12.73 21.52h-25.46z" stroke="#6b707b" stroke-width="2" fill="#fff"/><path d="M1499.67 1136v-27.75a6 6 0 0 0-6-6H1307a6 6 0 0 1-6-6v-4.27" stroke="#6b707b" stroke-width="2" fill="none"/><path d="M1500.67 1137h-2v-1.03h2z" stroke="#6b707b" stroke-width=".05" fill="#6b707b"/><path d="M1301 1069.46l12.73 21.52h-25.46z" stroke="#6b707b" stroke-width="2" fill="#fff"/><defs><path fill="#1d262b" d="M967-714L785 0H613c-44-180-98-350-130-542-31 193-86 361-129 542H182L0-714h149c42 193 95 373 126 577 30-209 91-384 137-577h143c46 192 106 370 137 577 31-204 84-384 126-577h149" id="R"/><path fill="#1d262b" d="M72-687c-2-54 33-72 81-73 47 1 81 20 81 73 0 52-34 72-81 73-48-1-83-21-81-73zm155 141V0H78v-546h149" id="S"/><path fill="#1d262b" d="M406-71c-31 45-77 83-155 81C111 5 45-111 45-272c0-164 67-279 210-284 78-1 126 35 157 80h5c-17-79-9-188-11-284h149V0H441l-29-71h-6zM196-270c0 92 27 161 107 161 95 0 113-64 113-162 0-99-19-164-115-164-77 0-106 75-105 165" id="T"/><path fill="#1d262b" d="M45-272c-2-159 65-281 210-284 67 0 120 27 158 80h4l12-70h126V1c-1 164-102 240-273 239-82 0-143-8-204-32V89c67 28 138 42 213 42 80 0 118-46 115-135 0-21 3-48 4-67h-4c-33 51-79 79-155 81C107 7 43-115 45-272zm371 19c1-111-15-180-114-182-70 0-105 55-105 165 0 109 36 163 107 163 87-3 112-49 112-146" id="U"/><path fill="#1d262b" d="M45-269c1-179 86-283 258-287 151-1 247 93 245 248v72H196c2 82 52 136 136 135 79 0 127-16 185-43v115C461-2 409 10 325 10 148 7 46-88 45-269zm363-66c-2-66-34-117-104-115-66 2-100 46-105 115h209" id="V"/><path fill="#1d262b" d="M243-171c-4 82 106 65 159 45v111c-35 14-86 26-137 25C150 9 94-49 94-171v-263H23v-63l82-50 43-115h95v116h153v112H243v263" id="W"/><g id="a"><use transform="matrix(0.02,0,0,0.02,0,0)" xlink:href="#R"/><use transform="matrix(0.02,0,0,0.02,19.34,0)" xlink:href="#S"/><use transform="matrix(0.02,0,0,0.02,25.44,0)" xlink:href="#T"/><use transform="matrix(0.02,0,0,0.02,38.1,0)" xlink:href="#U"/><use transform="matrix(0.02,0,0,0.02,50.76,0)" xlink:href="#V"/><use transform="matrix(0.02,0,0,0.02,62.58,0)" xlink:href="#W"/></g><path fill="#1d262b" d="M501 0H90v-714h411v124H241v157h242v124H241v184h260V0" id="X"/><path fill="#1d262b" d="M220-476c29-51 93-79 168-80 124 2 194 67 194 200V0H433v-319c-1-72-20-117-88-118-100 1-118 75-118 180V0H78v-546h114l20 70h8" id="Y"/><path fill="#1d262b" d="M34 114c48 10 106 9 134-22 24-26 38-59 49-96L0-546h163c38 118 81 230 115 352 3 16 5 33 6 50h3c27-147 82-267 122-402h160L338 70C300 190 190 265 34 232V114" id="Z"/><g id="b"><use transform="matrix(0.02,0,0,0.02,0,0)" xlink:href="#X"/><use transform="matrix(0.02,0,0,0.02,11.200000000000001,0)" xlink:href="#Y"/><use transform="matrix(0.02,0,0,0.02,24.340000000000003,0)" xlink:href="#W"/><use transform="matrix(0.02,0,0,0.02,33.02,0)" xlink:href="#S"/><use transform="matrix(0.02,0,0,0.02,39.120000000000005,0)" xlink:href="#W"/><use transform="matrix(0.02,0,0,0.02,47.800000000000004,0)" xlink:href="#Z"/><use transform="matrix(0.02,0,0,0.02,59.18000000000001,0)" xlink:href="#R"/><use transform="matrix(0.02,0,0,0.02,78.52000000000001,0)" xlink:href="#S"/><use transform="matrix(0.02,0,0,0.02,84.62,0)" xlink:href="#T"/><use transform="matrix(0.02,0,0,0.02,97.28,0)" xlink:href="#U"/><use transform="matrix(0.02,0,0,0.02,109.94,0)" xlink:href="#V"/><use transform="matrix(0.02,0,0,0.02,121.75999999999999,0)" xlink:href="#W"/></g><path fill="#1d262b" d="M90 0v-714h151v589h290V0H90" id="aa"/><path fill="#1d262b" d="M408-406c-47-19-90-39-149-40-57-2-79 25-57 60 81 70 264 66 257 224-3 125-95 173-233 172-78 0-124-9-180-32v-123c48 22 123 40 185 46 81 8 106-64 41-97-89-45-227-66-227-208 0-180 279-177 408-109" id="ab"/><path fill="#1d262b" d="M365 0H214v-588H20v-126h539v126H365V0" id="ac"/><path fill="#1d262b" d="M93-508c55-29 128-49 209-49 140 0 227 57 227 193V0H425l-29-74h-4c-47 56-83 83-181 84C109 9 39-52 42-163c-1-166 165-176 339-177 6-70-22-108-85-107-61 0-108 21-154 40zM267-99c64 0 116-42 114-109v-45c-95 1-187 4-186 91-1 45 29 62 72 63" id="ad"/><path fill="#1d262b" d="M220-454c35-62 109-120 213-98l-11 140c-106-18-195 24-195 134V0H78v-546h113l22 92h7" id="ae"/><g id="c"><use transform="matrix(0.02,0,0,0.02,0,0)" xlink:href="#aa"/><use transform="matrix(0.02,0,0,0.02,11.3,0)" xlink:href="#S"/><use transform="matrix(0.02,0,0,0.02,17.400000000000002,0)" xlink:href="#ab"/><use transform="matrix(0.02,0,0,0.02,27.340000000000003,0)" xlink:href="#W"/><use transform="matrix(0.02,0,0,0.02,36.02,0)" xlink:href="#V"/><use transform="matrix(0.02,0,0,0.02,47.84,0)" xlink:href="#Y"/><use transform="matrix(0.02,0,0,0.02,60.980000000000004,0)" xlink:href="#ac"/><use transform="matrix(0.02,0,0,0.02,70.96000000000001,0)" xlink:href="#ad"/><use transform="matrix(0.02,0,0,0.02,83.04,0)" xlink:href="#ae"/><use transform="matrix(0.02,0,0,0.02,91.92,0)" xlink:href="#U"/><use transform="matrix(0.02,0,0,0.02,104.58,0)" xlink:href="#V"/><use transform="matrix(0.02,0,0,0.02,116.4,0)" xlink:href="#W"/><use transform="matrix(0.02,0,0,0.02,125.08000000000003,0)" xlink:href="#R"/><use transform="matrix(0.02,0,0,0.02,144.42000000000002,0)" xlink:href="#S"/><use transform="matrix(0.02,0,0,0.02,150.52,0)" xlink:href="#T"/><use transform="matrix(0.02,0,0,0.02,163.18,0)" xlink:href="#U"/><use transform="matrix(0.02,0,0,0.02,175.84,0)" xlink:href="#V"/><use transform="matrix(0.02,0,0,0.02,187.66,0)" xlink:href="#W"/></g><path fill="#1d262b" d="M314-714c229 4 366 119 368 350C684-121 535 0 292 0H90v-714h224zm211 354c1-150-62-228-203-230h-81v465c186 15 286-53 284-235" id="af"/><path fill="#1d262b" d="M650-714L407 0H242L0-714h153c57 194 128 374 172 582 42-211 115-387 172-582h153" id="ag"/><path fill="#1d262b" d="M527 0c-31-144-64-289-98-432h-4C393-288 358-143 325 0H165L10-546h148c34 138 77 265 93 421h4c15-157 60-282 92-421h164c30 140 75 263 88 421h4c17-155 62-284 97-421h146L689 0H527" id="ah"/><g id="d"><use transform="matrix(0.02,0,0,0.02,0,0)" xlink:href="#af"/><use transform="matrix(0.02,0,0,0.02,14.8,0)" xlink:href="#ad"/><use transform="matrix(0.02,0,0,0.02,26.88,0)" xlink:href="#W"/><use transform="matrix(0.02,0,0,0.02,35.56,0)" xlink:href="#ad"/><use transform="matrix(0.02,0,0,0.02,47.64,0)" xlink:href="#ag"/><use transform="matrix(0.02,0,0,0.02,60.64,0)" xlink:href="#S"/><use transform="matrix(0.02,0,0,0.02,66.74,0)" xlink:href="#V"/><use transform="matrix(0.02,0,0,0.02,78.16,0)" xlink:href="#ah"/></g><path fill="#1d262b" d="M321-388h199v71H321v206h-72v-206H50v-71h199v-207h72v207" id="ai"/><use transform="matrix(0.02,0,0,0.02,0,0)" xlink:href="#ai" id="e"/><path fill="#1d262b" d="M442-72c-34 45-85 84-167 82C127 7 55-102 55-267s73-275 221-279c82-2 131 35 166 79h6c-11-89-4-195-6-293h88V0h-71l-13-72h-4zM146-265c0 115 37 200 143 202 125 0 156-74 154-203-2-127-29-207-155-207-105 1-142 96-142 208" id="aj"/><path fill="#1d262b" d="M105-499c45-24 114-47 183-46 129 1 191 52 192 180V0h-64l-17-76h-4c-47 56-81 85-180 86C116 9 43-43 46-149c3-159 172-173 348-174 7-99-22-152-111-151-59-1-110 22-151 41zM235-61c93-1 161-53 158-153v-48c-125 5-256-1-256 114-1 59 41 87 98 87" id="ak"/><path fill="#1d262b" d="M180-158c-9 93 83 112 159 85v67c-18 10-61 16-90 16C146 8 92-45 92-156v-312H16v-42l77-35 35-114h52v123h155v68H180v310" id="al"/><path fill="#1d262b" d="M457-607c-87-45-309-75-306 66 5 99 78 110 156 144 99 43 192 73 195 206C502-56 390 12 247 10 173 10 99-1 51-24v-86c98 48 366 86 361-73-3-101-84-112-168-147-104-43-180-82-184-212-6-199 273-214 425-142" id="am"/><path fill="#1d262b" d="M304-546c162 0 245 109 247 277 3 167-90 279-250 279C140 10 57-102 55-269c-3-167 89-277 249-277zm-2 74c-116 0-155 84-156 203 1 118 41 206 157 206 115 0 157-88 157-206-1-119-42-203-158-203" id="an"/><path fill="#1d262b" d="M287-63c123 0 158-72 158-194v-279h88V0h-72l-13-71h-4c-30 52-94 80-170 81C142 9 79-50 79-185v-351h89v345c0 85 40 128 119 128" id="ao"/><path fill="#1d262b" d="M171-438c38-67 114-131 227-102l-11 81c-127-30-214 51-214 173V0H85v-536h72l10 98h4" id="ap"/><path fill="#1d262b" d="M438-19c-39 19-78 29-138 29C136 6 55-93 55-265c0-205 125-311 330-273 25 6 46 13 62 21l-27 73c-29-11-77-25-116-25-105 0-158 68-158 203 0 118 42 198 153 200 58 1 100-14 139-31v78" id="aq"/><path fill="#1d262b" d="M55-264c2-166 77-282 237-282 163 0 232 117 221 295H146c1 115 59 186 171 186 74 0 118-15 172-37v77c-55 23-99 35-176 35C146 6 56-92 55-264zm366-57c-2-88-39-155-130-153-91 1-135 65-143 153h273" id="ar"/><path fill="#1d262b" d="M133-414c-37-1-63-25-61-68-2-45 22-66 61-68 39 1 65 22 63 68 2 44-25 67-63 68zm0 428c-37-1-63-25-61-68-2-44 23-66 61-67 39 1 65 22 63 67 2 44-25 67-63 68" id="as"/><g id="f"><use transform="matrix(0.02,0,0,0.02,0,0)" xlink:href="#aj"/><use transform="matrix(0.02,0,0,0.02,12.3,0)" xlink:href="#ak"/><use transform="matrix(0.02,0,0,0.02,23.520000000000007,0)" xlink:href="#al"/><use transform="matrix(0.02,0,0,0.02,30.740000000000002,0)" xlink:href="#ak"/><use transform="matrix(0.02,0,0,0.02,41.96,0)" xlink:href="#am"/><use transform="matrix(0.02,0,0,0.02,52.94,0)" xlink:href="#an"/><use transform="matrix(0.02,0,0,0.02,65.03999999999999,0)" xlink:href="#ao"/><use transform="matrix(0.02,0,0,0.02,77.39999999999999,0)" xlink:href="#ap"/><use transform="matrix(0.02,0,0,0.02,85.25999999999998,0)" xlink:href="#aq"/><use transform="matrix(0.02,0,0,0.02,94.85999999999999,0)" xlink:href="#ar"/><use transform="matrix(0.02,0,0,0.02,106.13999999999999,0)" xlink:href="#as"/></g><path fill="#1d262b" d="M317-714c225 4 350 122 352 350C671-125 531 0 296 0H97v-714h220zm257 353c2-185-92-274-270-276H187v560h97c193 0 290-95 290-284" id="at"/><g id="g"><use transform="matrix(0.02,0,0,0.02,0,0)" xlink:href="#at"/><use transform="matrix(0.02,0,0,0.02,14.6,0)" xlink:href="#ak"/><use transform="matrix(0.02,0,0,0.02,25.82,0)" xlink:href="#al"/><use transform="matrix(0.02,0,0,0.02,33.04,0)" xlink:href="#ak"/><use transform="matrix(0.02,0,0,0.02,44.26,0)" xlink:href="#am"/><use transform="matrix(0.02,0,0,0.02,55.239999999999995,0)" xlink:href="#an"/><use transform="matrix(0.02,0,0,0.02,67.33999999999999,0)" xlink:href="#ao"/><use transform="matrix(0.02,0,0,0.02,79.69999999999999,0)" xlink:href="#ap"/><use transform="matrix(0.02,0,0,0.02,87.55999999999999,0)" xlink:href="#aq"/><use transform="matrix(0.02,0,0,0.02,97.15999999999998,0)" xlink:href="#ar"/></g><path fill="#1d262b" d="M523-1c-43-147-94-290-129-444h-4C358-288 301-148 258-1H158L11-537h91c36 148 81 291 109 446h4c33-159 87-298 131-446h96c42 149 95 287 128 445h4c29-153 75-298 111-445h90L626-1H523" id="au"/><path fill="#1d262b" d="M78-681c-1-36 20-55 52-56 30 1 53 21 51 56 2 34-22 55-51 56-31 0-53-21-52-56zm95 145V0H85v-536h88" id="av"/><path fill="#1d262b" d="M55-267c0-156 73-278 220-279 79 1 132 31 168 81h5l12-71h70V9c-1 157-79 231-240 231-79 0-143-11-193-34v-81c53 28 119 42 198 42 98 0 156-66 148-172 0-12 2-55 3-66h-4c-36 54-91 81-166 81C127 9 55-107 55-267zm389 21c2-143-28-226-157-226-102 0-142 91-141 206 0 117 37 204 143 204 116 0 154-62 155-184" id="aw"/><path fill="#1d262b" d="M246-474c-75 0-138 40-98 102 80 80 284 66 286 224 0 112-95 158-214 158C149 10 97-1 52-24v-80c68 41 288 86 297-36-11-69-69-74-132-104-80-36-163-53-166-160-4-161 250-168 372-106l-30 70c-42-17-91-34-147-34" id="ax"/><g id="h"><use transform="matrix(0.02,0,0,0.02,0,0)" xlink:href="#au"/><use transform="matrix(0.02,0,0,0.02,15.72,0)" xlink:href="#av"/><use transform="matrix(0.02,0,0,0.02,20.88,0)" xlink:href="#aj"/><use transform="matrix(0.02,0,0,0.02,33.18000000000001,0)" xlink:href="#aw"/><use transform="matrix(0.02,0,0,0.02,45.480000000000004,0)" xlink:href="#ar"/><use transform="matrix(0.02,0,0,0.02,56.76,0)" xlink:href="#al"/><use transform="matrix(0.02,0,0,0.02,63.980000000000004,0)" xlink:href="#ax"/><use transform="matrix(0.02,0,0,0.02,73.56,0)" xlink:href="#as"/></g><path fill="#1d262b" d="M917-714L727 0h-91c-58-203-124-399-175-609C416-397 346-203 292 0h-91L12-714h94c48 202 109 393 145 606 37-218 111-403 164-606h93c56 202 129 389 170 606 37-212 98-404 145-606h94" id="ay"/><path fill="#1d262b" d="M304 158H80v-872h224v72H166V86h138v72" id="az"/><path fill="#1d262b" d="M25 86h138v-728H25v-72h224v872H25V86" id="aA"/><g id="i"><use transform="matrix(0.02,0,0,0.02,0,0)" xlink:href="#ay"/><use transform="matrix(0.02,0,0,0.02,18.6,0)" xlink:href="#av"/><use transform="matrix(0.02,0,0,0.02,23.76,0)" xlink:href="#aj"/><use transform="matrix(0.02,0,0,0.02,36.06,0)" xlink:href="#aw"/><use transform="matrix(0.02,0,0,0.02,48.36,0)" xlink:href="#ar"/><use transform="matrix(0.02,0,0,0.02,59.64,0)" xlink:href="#al"/><use transform="matrix(0.02,0,0,0.02,66.86,0)" xlink:href="#az"/><use transform="matrix(0.02,0,0,0.02,73.44,0)" xlink:href="#aA"/></g><path fill="#1d262b" d="M330-472c-124 0-157 72-157 195V0H85v-760h88c-2 99 5 207-5 298h6c30-50 91-82 167-83 133 1 196 60 196 196V0h-87v-343c0-86-40-129-120-129" id="aB"/><path fill="#1d262b" d="M187 0H97v-714h399v79H187v253h290v79H187V0" id="aC"/><g id="j"><use transform="matrix(0.02,0,0,0.02,0,0)" xlink:href="#ax"/><use transform="matrix(0.02,0,0,0.02,9.58,0)" xlink:href="#aB"/><use transform="matrix(0.02,0,0,0.02,21.939999999999994,0)" xlink:href="#an"/><use transform="matrix(0.02,0,0,0.02,33.64,0)" xlink:href="#au"/><use transform="matrix(0.02,0,0,0.02,49.36,0)" xlink:href="#aC"/><use transform="matrix(0.02,0,0,0.02,59.74,0)" xlink:href="#an"/><use transform="matrix(0.02,0,0,0.02,71.84,0)" xlink:href="#an"/><use transform="matrix(0.02,0,0,0.02,83.94,0)" xlink:href="#al"/><use transform="matrix(0.02,0,0,0.02,91.16,0)" xlink:href="#ar"/><use transform="matrix(0.02,0,0,0.02,102.44,0)" xlink:href="#ap"/><use transform="matrix(0.02,0,0,0.02,110.7,0)" xlink:href="#as"/></g><path fill="#1d262b" d="M339 10c-81 2-133-34-166-78h-7L148 0H85v-760h88c-1 97 4 206-5 295h5c33-46 84-82 166-80 148 3 221 112 221 277S486 6 339 10zm-13-73c108-3 143-88 143-206 0-135-48-203-145-203-125 2-151 75-151 205 0 126 28 204 153 204" id="aD"/><path fill="#1d262b" d="M173 0H85v-760h88V0" id="aE"/><path fill="#1d262b" d="M174-463c29-51 94-82 169-83 132 1 195 61 194 197V0h-87v-343c0-86-40-129-120-129-123 0-157 72-157 194V0H85v-536h71l13 73h5" id="aF"/><g id="k"><use transform="matrix(0.02,0,0,0.02,0,0)" xlink:href="#aD"/><use transform="matrix(0.02,0,0,0.02,12.3,0)" xlink:href="#an"/><use transform="matrix(0.02,0,0,0.02,24.400000000000002,0)" xlink:href="#an"/><use transform="matrix(0.02,0,0,0.02,36.5,0)" xlink:href="#aE"/><use transform="matrix(0.02,0,0,0.02,41.660000000000004,0)" xlink:href="#ar"/><use transform="matrix(0.02,0,0,0.02,52.94,0)" xlink:href="#ak"/><use transform="matrix(0.02,0,0,0.02,64.16,0)" xlink:href="#aF"/></g><path fill="#1d262b" d="M284-693c-79 0-90 69-87 157h135v68H197V0h-88v-468H15v-41l94-30C85-728 219-803 387-747l-23 69c-21-6-52-16-80-15" id="aG"/><g id="l"><use transform="matrix(0.02,0,0,0.02,0,0)" xlink:href="#aG"/><use transform="matrix(0.02,0,0,0.02,6.88,0)" xlink:href="#an"/><use transform="matrix(0.02,0,0,0.02,18.98,0)" xlink:href="#an"/><use transform="matrix(0.02,0,0,0.02,31.079999999999995,0)" xlink:href="#al"/><use transform="matrix(0.02,0,0,0.02,38.3,0)" xlink:href="#ar"/><use transform="matrix(0.02,0,0,0.02,49.58,0)" xlink:href="#ap"/><use transform="matrix(0.02,0,0,0.02,57.83999999999999,0)" xlink:href="#ay"/><use transform="matrix(0.02,0,0,0.02,76.44,0)" xlink:href="#av"/><use transform="matrix(0.02,0,0,0.02,81.6,0)" xlink:href="#aj"/><use transform="matrix(0.02,0,0,0.02,93.89999999999998,0)" xlink:href="#aw"/><use transform="matrix(0.02,0,0,0.02,106.19999999999999,0)" xlink:href="#ar"/><use transform="matrix(0.02,0,0,0.02,117.47999999999999,0)" xlink:href="#al"/><use transform="matrix(0.02,0,0,0.02,124.69999999999999,0)" xlink:href="#ax"/><use transform="matrix(0.02,0,0,0.02,134.28,0)" xlink:href="#as"/></g><path fill="#1d262b" d="M496 0H97v-714h399v79H187v223h291v78H187v255h309V0" id="aH"/><path fill="#1d262b" d="M11 162c47 10 103 8 133-20 35-33 52-91 73-140L1-536h94c53 150 120 289 161 451h4c44-156 104-302 155-451h95L279 74c-36 90-78 165-195 166-28 0-52-3-73-8v-70" id="aI"/><path fill="#1d262b" d="M721 0c2-208-6-429 7-625h-4L486 0h-74L177-626h-4c13 195 4 419 7 626H97v-714h133l220 585h4l224-585h132V0h-89" id="aJ"/><g id="m"><use transform="matrix(0.02,0,0,0.02,0,0)" xlink:href="#aF"/><use transform="matrix(0.02,0,0,0.02,12.36,0)" xlink:href="#an"/><use transform="matrix(0.02,0,0,0.02,24.46,0)" xlink:href="#aH"/><use transform="matrix(0.02,0,0,0.02,35.58,0)" xlink:href="#aF"/><use transform="matrix(0.02,0,0,0.02,47.94,0)" xlink:href="#al"/><use transform="matrix(0.02,0,0,0.02,55.15999999999999,0)" xlink:href="#av"/><use transform="matrix(0.02,0,0,0.02,60.31999999999999,0)" xlink:href="#al"/><use transform="matrix(0.02,0,0,0.02,67.53999999999999,0)" xlink:href="#aI"/><use transform="matrix(0.02,0,0,0.02,77.74,0)" xlink:href="#aJ"/><use transform="matrix(0.02,0,0,0.02,95.88,0)" xlink:href="#ar"/><use transform="matrix(0.02,0,0,0.02,107.16,0)" xlink:href="#ax"/><use transform="matrix(0.02,0,0,0.02,116.74000000000001,0)" xlink:href="#ax"/><use transform="matrix(0.02,0,0,0.02,126.31999999999998,0)" xlink:href="#ak"/><use transform="matrix(0.02,0,0,0.02,137.54,0)" xlink:href="#aw"/><use transform="matrix(0.02,0,0,0.02,149.84,0)" xlink:href="#ar"/><use transform="matrix(0.02,0,0,0.02,161.12,0)" xlink:href="#as"/></g><path fill="#1d262b" d="M323 0h-90v-635H10v-79h535v79H323V0" id="aK"/><path fill="#1d262b" d="M212-274L27-536h100l138 202 137-202h99L316-274 511 0H411L265-214 117 0H18" id="aL"/><g id="n"><use transform="matrix(0.02,0,0,0.02,0,0)" xlink:href="#aK"/><use transform="matrix(0.02,0,0,0.02,9.72,0)" xlink:href="#ar"/><use transform="matrix(0.02,0,0,0.02,20.6,0)" xlink:href="#aL"/><use transform="matrix(0.02,0,0,0.02,31.18,0)" xlink:href="#al"/></g><g id="o"><use transform="matrix(0.02,0,0,0.02,0,0)" xlink:href="#aa"/><use transform="matrix(0.02,0,0,0.02,11.3,0)" xlink:href="#S"/><use transform="matrix(0.02,0,0,0.02,17.400000000000002,0)" xlink:href="#ab"/><use transform="matrix(0.02,0,0,0.02,27.340000000000003,0)" xlink:href="#W"/><use transform="matrix(0.02,0,0,0.02,36.02,0)" xlink:href="#ag"/><use transform="matrix(0.02,0,0,0.02,49.02,0)" xlink:href="#S"/><use transform="matrix(0.02,0,0,0.02,55.120000000000005,0)" xlink:href="#V"/><use transform="matrix(0.02,0,0,0.02,66.54,0)" xlink:href="#ah"/></g><path fill="#1d262b" d="M172-760c-2 161 4 329-4 484 24-18 47-57 68-79l171-181h103L293-307 525 0H419L233-250l-61 53V0H85v-760h87" id="aM"/><path fill="#1d262b" d="M545 0l-86-221H176L91 0H0l279-717h81L638 0h-93zM432-301c-39-107-81-210-114-323-28 119-74 215-112 323h226" id="aN"/><g id="p"><use transform="matrix(0.02,0,0,0.02,0,0)" xlink:href="#aq"/><use transform="matrix(0.02,0,0,0.02,9.6,0)" xlink:href="#aE"/><use transform="matrix(0.02,0,0,0.02,14.76,0)" xlink:href="#av"/><use transform="matrix(0.02,0,0,0.02,19.92,0)" xlink:href="#aq"/><use transform="matrix(0.02,0,0,0.02,29.520000000000007,0)" xlink:href="#aM"/><use transform="matrix(0.02,0,0,0.02,40.2,0)" xlink:href="#aN"/><use transform="matrix(0.02,0,0,0.02,52.980000000000004,0)" xlink:href="#aq"/><use transform="matrix(0.02,0,0,0.02,62.58,0)" xlink:href="#al"/><use transform="matrix(0.02,0,0,0.02,69.80000000000001,0)" xlink:href="#av"/><use transform="matrix(0.02,0,0,0.02,74.96000000000001,0)" xlink:href="#an"/><use transform="matrix(0.02,0,0,0.02,87.06,0)" xlink:href="#aF"/><use transform="matrix(0.02,0,0,0.02,99.42,0)" xlink:href="#as"/></g><path fill="#1d262b" d="M565-606c-44-19-98-40-162-39-160 0-250 121-247 288 0 170 77 289 246 288 65 0 119-13 171-28v78C517 2 467 10 389 10 164 8 61-134 61-358s119-362 343-366c75 0 141 14 197 42" id="aO"/><g id="q"><use transform="matrix(0.02,0,0,0.02,0,0)" xlink:href="#aO"/><use transform="matrix(0.02,0,0,0.02,12.64,0)" xlink:href="#aE"/><use transform="matrix(0.02,0,0,0.02,17.8,0)" xlink:href="#av"/><use transform="matrix(0.02,0,0,0.02,22.96,0)" xlink:href="#ar"/><use transform="matrix(0.02,0,0,0.02,34.24,0)" xlink:href="#aF"/><use transform="matrix(0.02,0,0,0.02,46.6,0)" xlink:href="#al"/><use transform="matrix(0.02,0,0,0.02,53.82,0)" xlink:href="#aN"/><use transform="matrix(0.02,0,0,0.02,66.6,0)" xlink:href="#aq"/><use transform="matrix(0.02,0,0,0.02,76.19999999999999,0)" xlink:href="#al"/><use transform="matrix(0.02,0,0,0.02,83.41999999999999,0)" xlink:href="#av"/><use transform="matrix(0.02,0,0,0.02,88.57999999999998,0)" xlink:href="#an"/><use transform="matrix(0.02,0,0,0.02,100.67999999999998,0)" xlink:href="#aF"/></g><path fill="#1d262b" d="M501-456c30-55 94-89 172-90 128 2 181 64 181 197V0h-87v-345c0-85-36-127-109-127-109 0-145 66-145 176V0h-87v-345c0-85-37-127-110-127-116 0-143 76-143 194V0H85v-536h71l13 73h5c28-50 86-82 158-83 84 0 139 30 164 90h5" id="aP"/><path fill="#1d262b" d="M173-463c34-47 82-85 167-83 148 4 220 111 220 277 0 164-73 276-221 279-79 2-133-36-166-78h-6c11 94 4 205 6 308H85v-776h72l12 73h4zm296 193c0-112-38-202-145-202-123 0-151 76-151 203 0 125 28 206 153 206 108-4 141-95 143-207" id="aQ"/><g id="r"><use transform="matrix(0.02,0,0,0.02,0,0)" xlink:href="#al"/><use transform="matrix(0.02,0,0,0.02,7.22,0)" xlink:href="#ar"/><use transform="matrix(0.02,0,0,0.02,18.5,0)" xlink:href="#aP"/><use transform="matrix(0.02,0,0,0.02,37.2,0)" xlink:href="#aQ"/><use transform="matrix(0.02,0,0,0.02,49.5,0)" xlink:href="#aE"/><use transform="matrix(0.02,0,0,0.02,54.65999999999999,0)" xlink:href="#ak"/><use transform="matrix(0.02,0,0,0.02,65.88,0)" xlink:href="#al"/><use transform="matrix(0.02,0,0,0.02,73.1,0)" xlink:href="#ar"/><use transform="matrix(0.02,0,0,0.02,84.38,0)" xlink:href="#ax"/><use transform="matrix(0.02,0,0,0.02,93.96000000000001,0)" xlink:href="#as"/></g><path fill="#1d262b" d="M97 0v-714h90v634h312V0H97" id="aR"/><path fill="#1d262b" d="M600-714L345 0h-90L0-714h94c62 180 128 358 188 540 7 26 13 51 18 74 54-216 138-409 205-614h95" id="aS"/><g id="s"><use transform="matrix(0.02,0,0,0.02,0,0)" xlink:href="#aR"/><use transform="matrix(0.02,0,0,0.02,10.48,0)" xlink:href="#av"/><use transform="matrix(0.02,0,0,0.02,15.64,0)" xlink:href="#ax"/><use transform="matrix(0.02,0,0,0.02,25.22,0)" xlink:href="#al"/><use transform="matrix(0.02,0,0,0.02,32.44,0)" xlink:href="#aS"/><use transform="matrix(0.02,0,0,0.02,44.44,0)" xlink:href="#av"/><use transform="matrix(0.02,0,0,0.02,49.599999999999994,0)" xlink:href="#ar"/><use transform="matrix(0.02,0,0,0.02,60.480000000000004,0)" xlink:href="#au"/><use transform="matrix(0.02,0,0,0.02,76.2,0)" xlink:href="#aK"/><use transform="matrix(0.02,0,0,0.02,85.92,0)" xlink:href="#ar"/><use transform="matrix(0.02,0,0,0.02,97.2,0)" xlink:href="#aP"/><use transform="matrix(0.02,0,0,0.02,115.9,0)" xlink:href="#aQ"/><use transform="matrix(0.02,0,0,0.02,128.20000000000002,0)" xlink:href="#aE"/><use transform="matrix(0.02,0,0,0.02,133.36,0)" xlink:href="#ak"/><use transform="matrix(0.02,0,0,0.02,144.58,0)" xlink:href="#al"/><use transform="matrix(0.02,0,0,0.02,151.8,0)" xlink:href="#ar"/></g><path fill="#1d262b" d="M558-476c27-51 90-79 161-80 130 2 189 65 188 200V0H758v-319c0-79-27-118-82-118-88 2-109 69-109 163V0H418v-319c0-79-27-118-82-118-94 2-109 78-109 180V0H78v-546h114l20 70h8c27-51 88-79 159-80 81 0 138 26 166 80h13" id="aT"/><path fill="#1d262b" d="M227-475c31-44 77-83 155-81 141 5 206 121 206 282 0 162-69 279-210 284-75 2-118-33-151-70h-8c16 91 5 198 8 300H78v-786h121l21 71h7zm109 364c80 0 99-74 100-165 0-107-34-161-102-161-91 1-107 65-107 162 0 96 18 164 109 164" id="aU"/><path fill="#1d262b" d="M227 0H78v-760h149V0" id="aV"/><g id="t"><use transform="matrix(0.02,0,0,0.02,0,0)" xlink:href="#aa"/><use transform="matrix(0.02,0,0,0.02,11.3,0)" xlink:href="#S"/><use transform="matrix(0.02,0,0,0.02,17.400000000000002,0)" xlink:href="#ab"/><use transform="matrix(0.02,0,0,0.02,27.340000000000003,0)" xlink:href="#W"/><use transform="matrix(0.02,0,0,0.02,36.02,0)" xlink:href="#ag"/><use transform="matrix(0.02,0,0,0.02,49.02,0)" xlink:href="#S"/><use transform="matrix(0.02,0,0,0.02,55.120000000000005,0)" xlink:href="#V"/><use transform="matrix(0.02,0,0,0.02,66.54,0)" xlink:href="#ah"/><use transform="matrix(0.02,0,0,0.02,83.66,0)" xlink:href="#ac"/><use transform="matrix(0.02,0,0,0.02,93.84,0)" xlink:href="#V"/><use transform="matrix(0.02,0,0,0.02,105.66,0)" xlink:href="#aT"/><use transform="matrix(0.02,0,0,0.02,125.3,0)" xlink:href="#aU"/><use transform="matrix(0.02,0,0,0.02,137.96,0)" xlink:href="#aV"/><use transform="matrix(0.02,0,0,0.02,144.06,0)" xlink:href="#ad"/><use transform="matrix(0.02,0,0,0.02,156.14000000000001,0)" xlink:href="#W"/><use transform="matrix(0.02,0,0,0.02,164.82,0)" xlink:href="#V"/></g><path fill="#1d262b" d="M431 0H39v-58l288-410H56v-68h368v66L140-68h291V0" id="aW"/><g id="u"><use transform="matrix(0.02,0,0,0.02,0,0)" xlink:href="#ax"/><use transform="matrix(0.02,0,0,0.02,9.58,0)" xlink:href="#aQ"/><use transform="matrix(0.02,0,0,0.02,21.88,0)" xlink:href="#ar"/><use transform="matrix(0.02,0,0,0.02,33.160000000000004,0)" xlink:href="#aq"/><use transform="matrix(0.02,0,0,0.02,42.76,0)" xlink:href="#av"/><use transform="matrix(0.02,0,0,0.02,47.92,0)" xlink:href="#ak"/><use transform="matrix(0.02,0,0,0.02,59.14,0)" xlink:href="#aE"/><use transform="matrix(0.02,0,0,0.02,64.3,0)" xlink:href="#av"/><use transform="matrix(0.02,0,0,0.02,69.46,0)" xlink:href="#aW"/><use transform="matrix(0.02,0,0,0.02,78.86,0)" xlink:href="#ak"/><use transform="matrix(0.02,0,0,0.02,90.08,0)" xlink:href="#al"/><use transform="matrix(0.02,0,0,0.02,97.3,0)" xlink:href="#av"/><use transform="matrix(0.02,0,0,0.02,102.46000000000001,0)" xlink:href="#an"/><use transform="matrix(0.02,0,0,0.02,114.55999999999999,0)" xlink:href="#aF"/><use transform="matrix(0.02,0,0,0.02,126.91999999999999,0)" xlink:href="#as"/></g><g id="v"><use transform="matrix(0.02,0,0,0.02,0,0)" xlink:href="#aH"/><use transform="matrix(0.02,0,0,0.02,11.120000000000001,0)" xlink:href="#aF"/><use transform="matrix(0.02,0,0,0.02,23.48,0)" xlink:href="#al"/><use transform="matrix(0.02,0,0,0.02,30.7,0)" xlink:href="#av"/><use transform="matrix(0.02,0,0,0.02,35.86,0)" xlink:href="#al"/><use transform="matrix(0.02,0,0,0.02,43.08,0)" xlink:href="#aI"/></g><path fill="#1d262b" d="M400-116c39 0 66-4 96-10v-149H361v-126h283v370C567-6 493 10 390 10 169 10 58-129 58-358c0-273 202-407 485-354 37 8 70 19 100 32l-50 121c-42-21-100-39-163-39-142 4-216 98-216 243 0 137 48 238 186 239" id="aX"/><g id="w"><use transform="matrix(0.02,0,0,0.02,0,0)" xlink:href="#aX"/><use transform="matrix(0.02,0,0,0.02,14.48,0)" xlink:href="#ae"/><use transform="matrix(0.02,0,0,0.02,23.56,0)" xlink:href="#S"/><use transform="matrix(0.02,0,0,0.02,29.660000000000004,0)" xlink:href="#T"/></g><use transform="matrix(0.02,0,0,0.02,0,0)" xlink:href="#ai" id="x"/><g id="y"><use transform="matrix(0.02,0,0,0.02,0,0)" xlink:href="#aj"/><use transform="matrix(0.02,0,0,0.02,12.3,0)" xlink:href="#ak"/><use transform="matrix(0.02,0,0,0.02,23.520000000000007,0)" xlink:href="#al"/><use transform="matrix(0.02,0,0,0.02,30.740000000000002,0)" xlink:href="#ak"/><use transform="matrix(0.02,0,0,0.02,41.96,0)" xlink:href="#am"/><use transform="matrix(0.02,0,0,0.02,52.94,0)" xlink:href="#an"/><use transform="matrix(0.02,0,0,0.02,65.03999999999999,0)" xlink:href="#ao"/><use transform="matrix(0.02,0,0,0.02,77.39999999999999,0)" xlink:href="#ap"/><use transform="matrix(0.02,0,0,0.02,85.25999999999998,0)" xlink:href="#aq"/><use transform="matrix(0.02,0,0,0.02,94.85999999999999,0)" xlink:href="#ar"/><use transform="matrix(0.02,0,0,0.02,106.13999999999999,0)" xlink:href="#as"/></g><g id="z"><use transform="matrix(0.02,0,0,0.02,0,0)" xlink:href="#at"/><use transform="matrix(0.02,0,0,0.02,14.6,0)" xlink:href="#ak"/><use transform="matrix(0.02,0,0,0.02,25.82,0)" xlink:href="#al"/><use transform="matrix(0.02,0,0,0.02,33.04,0)" xlink:href="#ak"/><use transform="matrix(0.02,0,0,0.02,44.26,0)" xlink:href="#am"/><use transform="matrix(0.02,0,0,0.02,55.239999999999995,0)" xlink:href="#an"/><use transform="matrix(0.02,0,0,0.02,67.33999999999999,0)" xlink:href="#ao"/><use transform="matrix(0.02,0,0,0.02,79.69999999999999,0)" xlink:href="#ap"/><use transform="matrix(0.02,0,0,0.02,87.55999999999999,0)" xlink:href="#aq"/><use transform="matrix(0.02,0,0,0.02,97.15999999999998,0)" xlink:href="#ar"/></g><path fill="#1d262b" d="M596-203C596-67 490 0 348 0H97v-714h204c159 3 267 29 271 177-1 90-55 144-136 158v5c93 16 161 60 160 171zM479-527c5-131-159-107-292-110v227h132c108-1 156-24 160-117zm21 317c0-93-63-125-176-125H187v259h144c112 2 169-39 169-134" id="aY"/><g id="A"><use transform="matrix(0.02,0,0,0.02,0,0)" xlink:href="#aq"/><use transform="matrix(0.02,0,0,0.02,9.6,0)" xlink:href="#an"/><use transform="matrix(0.02,0,0,0.02,21.7,0)" xlink:href="#aF"/><use transform="matrix(0.02,0,0,0.02,34.06,0)" xlink:href="#al"/><use transform="matrix(0.02,0,0,0.02,41.28,0)" xlink:href="#ap"/><use transform="matrix(0.02,0,0,0.02,49.14,0)" xlink:href="#an"/><use transform="matrix(0.02,0,0,0.02,61.24,0)" xlink:href="#aE"/><use transform="matrix(0.02,0,0,0.02,66.4,0)" xlink:href="#aY"/><use transform="matrix(0.02,0,0,0.02,79.4,0)" xlink:href="#ak"/><use transform="matrix(0.02,0,0,0.02,90.62,0)" xlink:href="#ap"/><use transform="matrix(0.02,0,0,0.02,98.88,0)" xlink:href="#as"/></g><path fill="#1d262b" d="M424-68c57 0 98-7 140-17v-212H407v-80h247v350C576-2 506 10 403 10 175 8 64-129 61-357c-3-271 199-407 483-356 36 7 69 18 100 31l-34 78c-49-21-115-42-184-41-172-2-273 114-271 288 3 180 83 290 269 289" id="aZ"/><g id="B"><use transform="matrix(0.02,0,0,0.02,0,0)" xlink:href="#aZ"/><use transform="matrix(0.02,0,0,0.02,14.56,0)" xlink:href="#ap"/><use transform="matrix(0.02,0,0,0.02,22.82,0)" xlink:href="#av"/><use transform="matrix(0.02,0,0,0.02,27.98,0)" xlink:href="#aj"/><use transform="matrix(0.02,0,0,0.02,40.28,0)" xlink:href="#aO"/><use transform="matrix(0.02,0,0,0.02,52.92,0)" xlink:href="#an"/><use transform="matrix(0.02,0,0,0.02,65.02,0)" xlink:href="#aF"/><use transform="matrix(0.02,0,0,0.02,77.38,0)" xlink:href="#al"/><use transform="matrix(0.02,0,0,0.02,84.60000000000001,0)" xlink:href="#ap"/><use transform="matrix(0.02,0,0,0.02,92.46000000000001,0)" xlink:href="#an"/><use transform="matrix(0.02,0,0,0.02,104.55999999999999,0)" xlink:href="#aE"/><use transform="matrix(0.02,0,0,0.02,109.71999999999998,0)" xlink:href="#aY"/><use transform="matrix(0.02,0,0,0.02,122.71999999999998,0)" xlink:href="#ak"/><use transform="matrix(0.02,0,0,0.02,133.94,0)" xlink:href="#ap"/></g><g id="C"><use transform="matrix(0.02,0,0,0.02,0,0)" xlink:href="#ac"/><use transform="matrix(0.02,0,0,0.02,10.18,0)" xlink:href="#V"/><use transform="matrix(0.02,0,0,0.02,22,0)" xlink:href="#aT"/><use transform="matrix(0.02,0,0,0.02,41.64,0)" xlink:href="#aU"/><use transform="matrix(0.02,0,0,0.02,54.300000000000004,0)" xlink:href="#aV"/><use transform="matrix(0.02,0,0,0.02,60.4,0)" xlink:href="#ad"/><use transform="matrix(0.02,0,0,0.02,72.48,0)" xlink:href="#W"/><use transform="matrix(0.02,0,0,0.02,81.16,0)" xlink:href="#V"/><use transform="matrix(0.02,0,0,0.02,92.97999999999999,0)" xlink:href="#aX"/><use transform="matrix(0.02,0,0,0.02,107.46000000000001,0)" xlink:href="#ae"/><use transform="matrix(0.02,0,0,0.02,116.53999999999998,0)" xlink:href="#S"/><use transform="matrix(0.02,0,0,0.02,122.63999999999999,0)" xlink:href="#T"/></g><path fill="#1d262b" d="M392-725c222 0 328 145 328 367 0 223-106 368-329 368C165 10 61-134 61-359c0-224 105-366 331-366zm0 79c-168-1-236 117-236 288 1 171 67 291 235 290 169 1 233-119 234-290-1-171-64-289-233-288" id="ba"/><path fill="#1d262b" d="M554-511c1 110-65 161-143 191L607 0H502L329-295H187V0H97v-714h197c162 0 257 53 260 203zm-93 4c7-139-134-131-274-129v265h107c107 0 165-38 167-136" id="bb"/><g id="D"><use transform="matrix(0.02,0,0,0.02,0,0)" xlink:href="#aF"/><use transform="matrix(0.02,0,0,0.02,12.36,0)" xlink:href="#ao"/><use transform="matrix(0.02,0,0,0.02,24.72,0)" xlink:href="#aP"/><use transform="matrix(0.02,0,0,0.02,43.42,0)" xlink:href="#aD"/><use transform="matrix(0.02,0,0,0.02,55.72,0)" xlink:href="#ar"/><use transform="matrix(0.02,0,0,0.02,67,0)" xlink:href="#ap"/><use transform="matrix(0.02,0,0,0.02,75.26,0)" xlink:href="#ba"/><use transform="matrix(0.02,0,0,0.02,90.88,0)" xlink:href="#aG"/><use transform="matrix(0.02,0,0,0.02,97.76,0)" xlink:href="#bb"/><use transform="matrix(0.02,0,0,0.02,110.2,0)" xlink:href="#an"/><use transform="matrix(0.02,0,0,0.02,121.89999999999998,0)" xlink:href="#au"/><use transform="matrix(0.02,0,0,0.02,137.62,0)" xlink:href="#ax"/><use transform="matrix(0.02,0,0,0.02,147.20000000000002,0)" xlink:href="#as"/></g><g id="E"><use transform="matrix(0.02,0,0,0.02,0,0)" xlink:href="#av"/><use transform="matrix(0.02,0,0,0.02,5.16,0)" xlink:href="#aF"/><use transform="matrix(0.02,0,0,0.02,17.52,0)" xlink:href="#al"/></g><g id="F"><use transform="matrix(0.02,0,0,0.02,0,0)" xlink:href="#aF"/><use transform="matrix(0.02,0,0,0.02,12.36,0)" xlink:href="#ao"/><use transform="matrix(0.02,0,0,0.02,24.72,0)" xlink:href="#aP"/><use transform="matrix(0.02,0,0,0.02,43.42,0)" xlink:href="#aD"/><use transform="matrix(0.02,0,0,0.02,55.72,0)" xlink:href="#ar"/><use transform="matrix(0.02,0,0,0.02,67,0)" xlink:href="#ap"/><use transform="matrix(0.02,0,0,0.02,75.26,0)" xlink:href="#ba"/><use transform="matrix(0.02,0,0,0.02,90.88,0)" xlink:href="#aG"/><use transform="matrix(0.02,0,0,0.02,97.76,0)" xlink:href="#aO"/><use transform="matrix(0.02,0,0,0.02,110.4,0)" xlink:href="#an"/><use transform="matrix(0.02,0,0,0.02,122.5,0)" xlink:href="#aE"/><use transform="matrix(0.02,0,0,0.02,127.66,0)" xlink:href="#ao"/><use transform="matrix(0.02,0,0,0.02,140.01999999999998,0)" xlink:href="#aP"/><use transform="matrix(0.02,0,0,0.02,158.71999999999997,0)" xlink:href="#aF"/><use transform="matrix(0.02,0,0,0.02,171.07999999999996,0)" xlink:href="#ax"/><use transform="matrix(0.02,0,0,0.02,180.66,0)" xlink:href="#as"/></g><g id="G"><use transform="matrix(0.02,0,0,0.02,0,0)" xlink:href="#aq"/><use transform="matrix(0.02,0,0,0.02,9.6,0)" xlink:href="#an"/><use transform="matrix(0.02,0,0,0.02,21.7,0)" xlink:href="#aF"/><use transform="matrix(0.02,0,0,0.02,34.06,0)" xlink:href="#al"/><use transform="matrix(0.02,0,0,0.02,41.28,0)" xlink:href="#ar"/><use transform="matrix(0.02,0,0,0.02,52.56,0)" xlink:href="#aF"/><use transform="matrix(0.02,0,0,0.02,64.92,0)" xlink:href="#al"/><use transform="matrix(0.02,0,0,0.02,72.14,0)" xlink:href="#ax"/><use transform="matrix(0.02,0,0,0.02,81.72,0)" xlink:href="#as"/></g><g id="H"><use transform="matrix(0.02,0,0,0.02,0,0)" xlink:href="#aK"/><use transform="matrix(0.02,0,0,0.02,9.72,0)" xlink:href="#ar"/><use transform="matrix(0.02,0,0,0.02,21,0)" xlink:href="#aP"/><use transform="matrix(0.02,0,0,0.02,39.7,0)" xlink:href="#aQ"/><use transform="matrix(0.02,0,0,0.02,52,0)" xlink:href="#aE"/><use transform="matrix(0.02,0,0,0.02,57.15999999999999,0)" xlink:href="#ak"/><use transform="matrix(0.02,0,0,0.02,68.38,0)" xlink:href="#al"/><use transform="matrix(0.02,0,0,0.02,75.6,0)" xlink:href="#ar"/><use transform="matrix(0.02,0,0,0.02,86.88,0)" xlink:href="#aZ"/><use transform="matrix(0.02,0,0,0.02,101.44,0)" xlink:href="#ap"/><use transform="matrix(0.02,0,0,0.02,109.7,0)" xlink:href="#av"/><use transform="matrix(0.02,0,0,0.02,114.86,0)" xlink:href="#aj"/><use transform="matrix(0.02,0,0,0.02,127.16,0)" xlink:href="#aO"/><use transform="matrix(0.02,0,0,0.02,139.8,0)" xlink:href="#an"/><use transform="matrix(0.02,0,0,0.02,151.9,0)" xlink:href="#aF"/><use transform="matrix(0.02,0,0,0.02,164.26,0)" xlink:href="#al"/><use transform="matrix(0.02,0,0,0.02,171.48,0)" xlink:href="#ar"/><use transform="matrix(0.02,0,0,0.02,182.76,0)" xlink:href="#aF"/><use transform="matrix(0.02,0,0,0.02,195.12,0)" xlink:href="#al"/><use transform="matrix(0.02,0,0,0.02,202.34,0)" xlink:href="#ax"/></g><path fill="#1d262b" d="M553-551c-47-21-99-46-160-47-127 1-180 107-179 243 1 141 44 238 179 239 72-1 122-18 182-38v127C514-3 461 10 379 10 155 9 60-133 58-356c-3-257 173-414 442-354 36 9 69 21 102 36" id="bc"/><path fill="#1d262b" d="M311-556c169 3 261 108 263 282 3 174-98 287-266 284C139 7 47-99 45-274s97-285 266-282zm-2 120c-89 0-111 65-112 162 1 97 23 164 113 164 89 0 111-68 112-164-1-97-23-162-113-162" id="bd"/><g id="I"><use transform="matrix(0.02,0,0,0.02,0,0)" xlink:href="#ac"/><use transform="matrix(0.02,0,0,0.02,10.18,0)" xlink:href="#V"/><use transform="matrix(0.02,0,0,0.02,22,0)" xlink:href="#aT"/><use transform="matrix(0.02,0,0,0.02,41.64,0)" xlink:href="#aU"/><use transform="matrix(0.02,0,0,0.02,54.300000000000004,0)" xlink:href="#aV"/><use transform="matrix(0.02,0,0,0.02,60.4,0)" xlink:href="#ad"/><use transform="matrix(0.02,0,0,0.02,72.48,0)" xlink:href="#W"/><use transform="matrix(0.02,0,0,0.02,81.16,0)" xlink:href="#V"/><use transform="matrix(0.02,0,0,0.02,92.97999999999999,0)" xlink:href="#aX"/><use transform="matrix(0.02,0,0,0.02,107.46000000000001,0)" xlink:href="#ae"/><use transform="matrix(0.02,0,0,0.02,116.53999999999998,0)" xlink:href="#S"/><use transform="matrix(0.02,0,0,0.02,122.63999999999999,0)" xlink:href="#T"/><use transform="matrix(0.02,0,0,0.02,135.29999999999998,0)" xlink:href="#bc"/><use transform="matrix(0.02,0,0,0.02,148.04,0)" xlink:href="#bd"/><use transform="matrix(0.02,0,0,0.02,160.42,0)" xlink:href="#Y"/><use transform="matrix(0.02,0,0,0.02,173.56,0)" xlink:href="#W"/><use transform="matrix(0.02,0,0,0.02,182.24,0)" xlink:href="#V"/><use transform="matrix(0.02,0,0,0.02,194.06,0)" xlink:href="#Y"/><use transform="matrix(0.02,0,0,0.02,207.20000000000002,0)" xlink:href="#W"/><use transform="matrix(0.02,0,0,0.02,215.88,0)" xlink:href="#ab"/></g><g id="J"><use transform="matrix(0.02,0,0,0.02,0,0)" xlink:href="#ay"/><use transform="matrix(0.02,0,0,0.02,18.6,0)" xlink:href="#av"/><use transform="matrix(0.02,0,0,0.02,23.76,0)" xlink:href="#aj"/><use transform="matrix(0.02,0,0,0.02,36.06,0)" xlink:href="#aw"/><use transform="matrix(0.02,0,0,0.02,48.36,0)" xlink:href="#ar"/><use transform="matrix(0.02,0,0,0.02,59.64,0)" xlink:href="#al"/><use transform="matrix(0.02,0,0,0.02,66.86,0)" xlink:href="#az"/><use transform="matrix(0.02,0,0,0.02,73.44,0)" xlink:href="#aA"/></g><path fill="#1d262b" d="M312-109c100-1 118-75 118-180v-257h149V0H465l-20-70h-8c-29 51-93 79-168 80C145 8 75-57 75-190v-356h149v319c1 71 21 117 88 118" id="be"/><g id="K"><use transform="matrix(0.02,0,0,0.02,0,0)" xlink:href="#bc"/><use transform="matrix(0.02,0,0,0.02,12.74,0)" xlink:href="#bd"/><use transform="matrix(0.02,0,0,0.02,25.12,0)" xlink:href="#aV"/><use transform="matrix(0.02,0,0,0.02,31.220000000000002,0)" xlink:href="#be"/><use transform="matrix(0.02,0,0,0.02,44.36,0)" xlink:href="#aT"/><use transform="matrix(0.02,0,0,0.02,64,0)" xlink:href="#Y"/><use transform="matrix(0.02,0,0,0.02,77.14,0)" xlink:href="#aX"/><use transform="matrix(0.02,0,0,0.02,91.62,0)" xlink:href="#ae"/><use transform="matrix(0.02,0,0,0.02,100.7,0)" xlink:href="#S"/><use transform="matrix(0.02,0,0,0.02,106.8,0)" xlink:href="#T"/></g><g id="L"><use transform="matrix(0.02,0,0,0.02,0,0)" xlink:href="#aq"/><use transform="matrix(0.02,0,0,0.02,9.6,0)" xlink:href="#an"/><use transform="matrix(0.02,0,0,0.02,21.7,0)" xlink:href="#aE"/><use transform="matrix(0.02,0,0,0.02,26.86,0)" xlink:href="#ao"/><use transform="matrix(0.02,0,0,0.02,39.22,0)" xlink:href="#aP"/><use transform="matrix(0.02,0,0,0.02,57.92,0)" xlink:href="#aF"/><use transform="matrix(0.02,0,0,0.02,70.28,0)" xlink:href="#ax"/><use transform="matrix(0.02,0,0,0.02,79.86,0)" xlink:href="#as"/></g><g id="M"><use transform="matrix(0.02,0,0,0.02,0,0)" xlink:href="#aZ"/><use transform="matrix(0.02,0,0,0.02,14.56,0)" xlink:href="#ap"/><use transform="matrix(0.02,0,0,0.02,22.82,0)" xlink:href="#av"/><use transform="matrix(0.02,0,0,0.02,27.98,0)" xlink:href="#aj"/><use transform="matrix(0.02,0,0,0.02,40.28,0)" xlink:href="#aO"/><use transform="matrix(0.02,0,0,0.02,52.92,0)" xlink:href="#an"/><use transform="matrix(0.02,0,0,0.02,65.02,0)" xlink:href="#aE"/><use transform="matrix(0.02,0,0,0.02,70.17999999999999,0)" xlink:href="#ao"/><use transform="matrix(0.02,0,0,0.02,82.53999999999998,0)" xlink:href="#aP"/><use transform="matrix(0.02,0,0,0.02,101.24000000000001,0)" xlink:href="#aF"/></g><g id="N"><use transform="matrix(0.02,0,0,0.02,0,0)" xlink:href="#aF"/><use transform="matrix(0.02,0,0,0.02,12.36,0)" xlink:href="#ao"/><use transform="matrix(0.02,0,0,0.02,24.72,0)" xlink:href="#aP"/><use transform="matrix(0.02,0,0,0.02,43.42,0)" xlink:href="#aD"/><use transform="matrix(0.02,0,0,0.02,55.72,0)" xlink:href="#ar"/><use transform="matrix(0.02,0,0,0.02,67,0)" xlink:href="#ap"/><use transform="matrix(0.02,0,0,0.02,75.26,0)" xlink:href="#ba"/><use transform="matrix(0.02,0,0,0.02,90.88,0)" xlink:href="#aG"/><use transform="matrix(0.02,0,0,0.02,97.76,0)" xlink:href="#bb"/><use transform="matrix(0.02,0,0,0.02,110.2,0)" xlink:href="#an"/><use transform="matrix(0.02,0,0,0.02,121.89999999999998,0)" xlink:href="#au"/><use transform="matrix(0.02,0,0,0.02,137.62,0)" xlink:href="#ax"/><use transform="matrix(0.02,0,0,0.02,147.20000000000002,0)" xlink:href="#as"/></g><g id="O"><use transform="matrix(0.02,0,0,0.02,0,0)" xlink:href="#av"/><use transform="matrix(0.02,0,0,0.02,5.16,0)" xlink:href="#aF"/><use transform="matrix(0.02,0,0,0.02,17.52,0)" xlink:href="#al"/></g><g id="P"><use transform="matrix(0.02,0,0,0.02,0,0)" xlink:href="#af"/><use transform="matrix(0.02,0,0,0.02,14.8,0)" xlink:href="#ad"/><use transform="matrix(0.02,0,0,0.02,26.88,0)" xlink:href="#W"/><use transform="matrix(0.02,0,0,0.02,35.56,0)" xlink:href="#ad"/><use transform="matrix(0.02,0,0,0.02,47.64,0)" xlink:href="#aX"/><use transform="matrix(0.02,0,0,0.02,62.120000000000005,0)" xlink:href="#ae"/><use transform="matrix(0.02,0,0,0.02,71.2,0)" xlink:href="#S"/><use transform="matrix(0.02,0,0,0.02,77.3,0)" xlink:href="#T"/></g><path fill="#1d262b" d="M583-500c-1 103-63 155-133 189L660 0H492L322-274h-81V0H90v-714h208c176 0 281 53 285 214zm-153 4c0-94-88-95-189-94v193c104 4 189-5 189-99" id="bf"/><path fill="#1d262b" d="M311-647c-53-1-64 45-60 101h129v112H251V0H102v-434H20v-72l82-40C67-758 255-800 432-742l-38 109c-25-7-50-15-83-14" id="bg"/><path fill="#1d262b" d="M466-31c-47 30-89 41-166 41C128 8 45-87 45-270c0-220 149-320 365-275 28 7 52 16 73 26l-44 115c-41-15-76-31-126-32-77 0-116 55-116 165-1 96 31 157 116 160 68 0 109-20 153-47v127" id="bh"/><path fill="#1d262b" d="M291-598c-84-7-119 90-55 132 101 66 281 95 275 268C509-59 400 13 248 10 173 10 105-4 46-33v-141c61 24 133 59 214 59 85 0 135-70 84-122-93-93-286-96-290-284-3-172 177-234 348-190 34 9 69 21 106 37l-49 118c-57-22-99-36-168-42" id="bi"/><g id="Q"><use transform="matrix(0.02,0,0,0.02,0,0)" xlink:href="#bf"/><use transform="matrix(0.02,0,0,0.02,13.200000000000001,0)" xlink:href="#V"/><use transform="matrix(0.02,0,0,0.02,25.020000000000007,0)" xlink:href="#bg"/><use transform="matrix(0.02,0,0,0.02,32.760000000000005,0)" xlink:href="#V"/><use transform="matrix(0.02,0,0,0.02,44.58,0)" xlink:href="#ae"/><use transform="matrix(0.02,0,0,0.02,53.26,0)" xlink:href="#V"/><use transform="matrix(0.02,0,0,0.02,65.08000000000001,0)" xlink:href="#Y"/><use transform="matrix(0.02,0,0,0.02,78.22000000000001,0)" xlink:href="#bh"/><use transform="matrix(0.02,0,0,0.02,88.50000000000001,0)" xlink:href="#V"/><use transform="matrix(0.02,0,0,0.02,100.32000000000002,0)" xlink:href="#bi"/><use transform="matrix(0.02,0,0,0.02,111.34000000000002,0)" xlink:href="#V"/><use transform="matrix(0.02,0,0,0.02,123.16000000000003,0)" xlink:href="#W"/><use transform="matrix(0.02,0,0,0.02,131.84000000000003,0)" xlink:href="#bi"/><use transform="matrix(0.02,0,0,0.02,142.86000000000004,0)" xlink:href="#V"/><use transform="matrix(0.02,0,0,0.02,154.68000000000004,0)" xlink:href="#aV"/><use transform="matrix(0.02,0,0,0.02,160.78000000000003,0)" xlink:href="#V"/><use transform="matrix(0.02,0,0,0.02,172.60000000000005,0)" xlink:href="#bh"/><use transform="matrix(0.02,0,0,0.02,182.88000000000005,0)" xlink:href="#W"/><use transform="matrix(0.02,0,0,0.02,191.56000000000003,0)" xlink:href="#bd"/><use transform="matrix(0.02,0,0,0.02,203.94000000000005,0)" xlink:href="#ae"/></g></defs></g></svg>
