<svg xmlns="http://www.w3.org/2000/svg" xmlns:xlink="http://www.w3.org/1999/xlink" xmlns:lucid="lucid" width="2160" height="497.56"><g transform="translate(-55.59055118110237 -93.38582677165354)" lucid:page-tab-id="p1vMdQmte_e."><path d="M420.6 119.4a6 6 0 0 1 6-6H579.2a6 6 0 0 1 6 6v31a6 6 0 0 1-6 6H426.6a6 6 0 0 1-6-6z" stroke="#2f3646" stroke-width="3" fill="#d9dbdd"/><use xlink:href="#a" transform="matrix(1,0,0,1,428.6100127078227,121.38582677165354) translate(22.560000000000002 21.38)"/><path d="M420.6 251.67a6 6 0 0 1 6-6H579.2a6 6 0 0 1 6 6v31a6 6 0 0 1-6 6H426.6a6 6 0 0 1-6-6z" stroke="#2f3646" stroke-width="3" fill="#d9dbdd"/><use xlink:href="#b" transform="matrix(1,0,0,1,428.61001270782265,253.66929133858267) translate(24.820000000000007 21.38)"/><path d="M502.9 243.17v-60.8" stroke="#6b707b" stroke-width="2" fill="none"/><path d="M503.9 244.17h-2v-1.03h2z" stroke="#6b707b" stroke-width=".05" fill="#6b707b"/><path d="M502.9 159.85l12.72 21.52h-25.45z" stroke="#6b707b" stroke-width="2" fill="#fff"/><path d="M75.6 396.1a6 6 0 0 1 6-6h152.34a6 6 0 0 1 6 6v31a6 6 0 0 1-6 6H81.6a6 6 0 0 1-6-6z" stroke="#064ae4" stroke-width="3" fill="#c2e2ff"/><use xlink:href="#c" transform="matrix(1,0,0,1,83.59055118110237,398.0907011811015) translate(40.019999999999996 21.38)"/><path d="M315.28 396.1a6 6 0 0 1 6-6h152.35a6 6 0 0 1 6 6v31a6 6 0 0 1-6 6H321.28a6 6 0 0 1-6-6z" stroke="#064ae4" stroke-width="3" fill="#c2e2ff"/><use xlink:href="#d" transform="matrix(1,0,0,1,323.2801978632999,398.0907011811015) translate(49.94 21.38)"/><path d="M721.42 533.95a6 6 0 0 1 6-6h147.65a6 6 0 0 1 6 6v31a6 6 0 0 1-6 6H727.42a6 6 0 0 1-6-6z" stroke="#064ae4" stroke-width="3" fill="#c2e2ff"/><use xlink:href="#e" transform="matrix(1,0,0,1,729.4155802406431,535.9453141219898) translate(0.9500000000000028 21.38)"/><path d="M554.97 396.1a6 6 0 0 1 6-6h152.35a6 6 0 0 1 6 6v31a6 6 0 0 1-6 6H560.97a6 6 0 0 1-6-6z" stroke="#064ae4" stroke-width="3" fill="#c2e2ff"/><use xlink:href="#f" transform="matrix(1,0,0,1,562.9698445454976,398.0907011811015) translate(36.459999999999994 21.38)"/><path d="M930.4 533.95a6 6 0 0 1 6-6h147.67a6 6 0 0 1 6 6v31a6 6 0 0 1-6 6H936.4a6 6 0 0 1-6-6z" stroke="#064ae4" stroke-width="3" fill="#c2e2ff"/><use xlink:href="#g" transform="matrix(1,0,0,1,938.4141042531247,535.9453141219898) translate(3.030000000000001 21.38)"/><path d="M795.88 396.1a6 6 0 0 1 6-6h207.7a6 6 0 0 1 6 6v31a6 6 0 0 1-6 6H801.9a6 6 0 0 1-6-6z" stroke="#2f3646" stroke-width="3" fill="#d9dbdd"/><use xlink:href="#h" transform="matrix(1,0,0,1,803.875041722421,398.0907011811015) translate(5.829999999999998 21.38)"/><path d="M158.77 468.55l.06.82.18.76.3.73.42.67.5.6.6.5.68.4.72.3.77.2.8.06h62.84v2h-62.9l-1.07-.1-1.07-.25-1-.42-.95-.57-.83-.72-.72-.83-.57-.93-.42-1-.25-1.08-.08-1.07V453.1h2zm239.7.08l-.1 1.06-.25 1.06-.42 1-.58.95-.7.84-.85.72-.93.57-1.02.42-1.07.26-1.05.1h-62.92v-2h62.84l.82-.07.76-.2.73-.3.66-.4.6-.5.5-.6.4-.67.3-.73.2-.76.06-.82v-3.2h2z" stroke="#6b707b" stroke-width=".05" fill="#6b707b"/><path d="M412.3 450.85L397.47 466l-14.85-15.15L397.47 436z" fill="#fff"/><path d="M413.7 450.85l-16.24 16.58-16.26-16.58 16.26-16.26zm-29.7 0l13.46 13.73 13.44-13.72-13.44-13.44z" stroke="#6b707b" stroke-width=".05" fill="#6b707b"/><path d="M162.4 452.1h-9.27l4.64-14.27z" fill="#6b707b"/><path d="M163.78 453.1h-12.02l6-18.5zm-9.27-2h6.53l-3.26-10.04z" stroke="#6b707b" stroke-width=".05" fill="#6b707b"/><use xlink:href="#i" transform="matrix(1,0,0,1,226.6402128993371,462.59065118110175) translate(0 16)"/><path d="M139.55 543.4l.07.83.18.76.3.7.4.68.52.6.6.5.67.42.7.3.77.18.82.07h176.23v2h-176.3l-1.07-.1-1.07-.24-1.03-.42-.93-.57-.84-.7-.7-.84-.6-.93-.4-1.02-.26-1.06-.1-1.05v-90.4h2zm549.62 5.05v2h-266.4v-2z" stroke="#6b707b" stroke-width=".05" fill="#6b707b"/><path d="M718.5 549.45l-14.85 14.84-15.15-14.85 15.15-14.85z" fill="#fff"/><path d="M719.92 549.45l-16.26 16.25-16.6-16.25 16.6-16.26zm-30 0l13.73 13.44 13.44-13.45L703.63 536z" stroke="#6b707b" stroke-width=".05" fill="#6b707b"/><path d="M143.2 452.1h-9.28l4.63-14.27z" fill="#6b707b"/><path d="M144.57 453.1h-12.03l6-18.5zm-9.28-2h6.5l-3.25-10.04z" stroke="#6b707b" stroke-width=".05" fill="#6b707b"/><use xlink:href="#i" transform="matrix(1,0,0,1,320.83530514089404,537.4453141219898) translate(0 16)"/><path d="M905.73 387.6v-42.22a6 6 0 0 0-6-6H508.9a6 6 0 0 1-6-6v-18.73" stroke="#6b707b" stroke-width="2" fill="none"/><path d="M906.73 388.6h-2v-1.04h2z" stroke="#6b707b" stroke-width=".05" fill="#6b707b"/><path d="M502.9 292.13l12.72 21.52h-25.45z" stroke="#6b707b" stroke-width="2" fill="#fff"/><path d="M397.46 387.6v-42.22a6 6 0 0 1 6-6h93.43a6 6 0 0 0 6-6v-18.73" stroke="#6b707b" stroke-width="2" fill="none"/><path d="M398.46 388.6h-2v-1.04h2z" stroke="#6b707b" stroke-width=".05" fill="#6b707b"/><path d="M502.9 292.13l12.72 21.52h-25.45z" stroke="#6b707b" stroke-width="2" fill="#fff"/><path d="M637.15 387.6v-42.22a6 6 0 0 0-6-6H508.9a6 6 0 0 1-6-6v-18.73" stroke="#6b707b" stroke-width="2" fill="none"/><path d="M638.15 388.6h-2v-1.04h2z" stroke="#6b707b" stroke-width=".05" fill="#6b707b"/><path d="M502.9 292.13l12.72 21.52h-25.45z" stroke="#6b707b" stroke-width="2" fill="#fff"/><path d="M157.77 387.6v-42.22a6 6 0 0 1 6-6H496.9a6 6 0 0 0 6-6v-18.73" stroke="#6b707b" stroke-width="2" fill="none"/><path d="M158.77 388.6h-2v-1.04h2z" stroke="#6b707b" stroke-width=".05" fill="#6b707b"/><path d="M502.9 292.13l12.72 21.52h-25.45z" stroke="#6b707b" stroke-width="2" fill="#fff"/><path d="M1010.24 525.45v-38.93a6 6 0 0 0-6-6h-92.5a6 6 0 0 1-6-6v-15.45" stroke="#6b707b" stroke-width="2" fill="none"/><path d="M1011.24 526.45h-2v-1.03h2z" stroke="#6b707b" stroke-width=".05" fill="#6b707b"/><path d="M905.73 436.56l12.73 21.5H893z" stroke="#6b707b" stroke-width="2" fill="#fff"/><path d="M801.24 525.45v-38.93a6 6 0 0 1 6-6h92.5a6 6 0 0 0 6-6v-15.45" stroke="#6b707b" stroke-width="2" fill="none"/><path d="M802.24 526.45h-2v-1.03h2z" stroke="#6b707b" stroke-width=".05" fill="#6b707b"/><path d="M905.73 436.56l12.73 21.5H893z" stroke="#6b707b" stroke-width="2" fill="#fff"/><defs><path fill="#1d262b" d="M314-714c229 4 366 119 368 350C684-121 535 0 292 0H90v-714h224zm211 354c1-150-62-228-203-230h-81v465c186 15 286-53 284-235" id="j"/><path fill="#1d262b" d="M311-556c169 3 261 108 263 282 3 174-98 287-266 284C139 7 47-99 45-274s97-285 266-282zm-2 120c-89 0-111 65-112 162 1 97 23 164 113 164 89 0 111-68 112-164-1-97-23-162-113-162" id="k"/><path fill="#1d262b" d="M466-31c-47 30-89 41-166 41C128 8 45-87 45-270c0-220 149-320 365-275 28 7 52 16 73 26l-44 115c-41-15-76-31-126-32-77 0-116 55-116 165-1 96 31 157 116 160 68 0 109-20 153-47v127" id="l"/><path fill="#1d262b" d="M312-109c100-1 118-75 118-180v-257h149V0H465l-20-70h-8c-29 51-93 79-168 80C145 8 75-57 75-190v-356h149v319c1 71 21 117 88 118" id="m"/><path fill="#1d262b" d="M558-476c27-51 90-79 161-80 130 2 189 65 188 200V0H758v-319c0-79-27-118-82-118-88 2-109 69-109 163V0H418v-319c0-79-27-118-82-118-94 2-109 78-109 180V0H78v-546h114l20 70h8c27-51 88-79 159-80 81 0 138 26 166 80h13" id="n"/><path fill="#1d262b" d="M45-269c1-179 86-283 258-287 151-1 247 93 245 248v72H196c2 82 52 136 136 135 79 0 127-16 185-43v115C461-2 409 10 325 10 148 7 46-88 45-269zm363-66c-2-66-34-117-104-115-66 2-100 46-105 115h209" id="o"/><path fill="#1d262b" d="M220-476c29-51 93-79 168-80 124 2 194 67 194 200V0H433v-319c-1-72-20-117-88-118-100 1-118 75-118 180V0H78v-546h114l20 70h8" id="p"/><path fill="#1d262b" d="M243-171c-4 82 106 65 159 45v111c-35 14-86 26-137 25C150 9 94-49 94-171v-263H23v-63l82-50 43-115h95v116h153v112H243v263" id="q"/><g id="a"><use transform="matrix(0.02,0,0,0.02,0,0)" xlink:href="#j"/><use transform="matrix(0.02,0,0,0.02,14.8,0)" xlink:href="#k"/><use transform="matrix(0.02,0,0,0.02,27.18,0)" xlink:href="#l"/><use transform="matrix(0.02,0,0,0.02,37.46,0)" xlink:href="#m"/><use transform="matrix(0.02,0,0,0.02,50.6,0)" xlink:href="#n"/><use transform="matrix(0.02,0,0,0.02,70.24000000000001,0)" xlink:href="#o"/><use transform="matrix(0.02,0,0,0.02,82.06,0)" xlink:href="#p"/><use transform="matrix(0.02,0,0,0.02,95.2,0)" xlink:href="#q"/></g><path fill="#1d262b" d="M239 0H90v-714h409v124H239v184h242v124H239V0" id="r"/><path fill="#1d262b" d="M220-454c35-62 109-120 213-98l-11 140c-106-18-195 24-195 134V0H78v-546h113l22 92h7" id="s"/><path fill="#1d262b" d="M619-207C618-68 505 0 357 0H90v-714c224 8 515-45 511 181 0 80-40 144-110 154v5c81 17 130 66 128 167zM446-513c3-91-111-75-205-77v159h88c76 0 115-17 117-82zm16 291c0-67-45-90-127-89h-94v186h99c80 1 122-28 122-97" id="t"/><path fill="#1d262b" d="M93-508c55-29 128-49 209-49 140 0 227 57 227 193V0H425l-29-74h-4c-47 56-83 83-181 84C109 9 39-52 42-163c-1-166 165-176 339-177 6-70-22-108-85-107-61 0-108 21-154 40zM267-99c64 0 116-42 114-109v-45c-95 1-187 4-186 91-1 45 29 62 72 63" id="u"/><path fill="#1d262b" d="M408-406c-47-19-90-39-149-40-57-2-79 25-57 60 81 70 264 66 257 224-3 125-95 173-233 172-78 0-124-9-180-32v-123c48 22 123 40 185 46 81 8 106-64 41-97-89-45-227-66-227-208 0-180 279-177 408-109" id="v"/><g id="b"><use transform="matrix(0.02,0,0,0.02,0,0)" xlink:href="#r"/><use transform="matrix(0.02,0,0,0.02,10.98,0)" xlink:href="#k"/><use transform="matrix(0.02,0,0,0.02,23.36,0)" xlink:href="#s"/><use transform="matrix(0.02,0,0,0.02,32.44,0)" xlink:href="#n"/><use transform="matrix(0.02,0,0,0.02,52.08,0)" xlink:href="#t"/><use transform="matrix(0.02,0,0,0.02,65.52,0)" xlink:href="#u"/><use transform="matrix(0.02,0,0,0.02,77.6,0)" xlink:href="#v"/><use transform="matrix(0.02,0,0,0.02,87.53999999999998,0)" xlink:href="#o"/></g><path fill="#1d262b" d="M90 0v-714h151v589h290V0H90" id="w"/><path fill="#1d262b" d="M34 114c48 10 106 9 134-22 24-26 38-59 49-96L0-546h163c38 118 81 230 115 352 3 16 5 33 6 50h3c27-147 82-267 122-402h160L338 70C300 190 190 265 34 232V114" id="x"/><g id="c"><use transform="matrix(0.02,0,0,0.02,0,0)" xlink:href="#w"/><use transform="matrix(0.02,0,0,0.02,11.3,0)" xlink:href="#u"/><use transform="matrix(0.02,0,0,0.02,23.38,0)" xlink:href="#x"/><use transform="matrix(0.02,0,0,0.02,34.760000000000005,0)" xlink:href="#k"/><use transform="matrix(0.02,0,0,0.02,47.14000000000001,0)" xlink:href="#m"/><use transform="matrix(0.02,0,0,0.02,60.28000000000001,0)" xlink:href="#q"/></g><path fill="#1d262b" d="M583-491c0 183-133 252-342 237V0H90v-714h228c169-2 265 70 265 223zM241-378c103 5 189-11 189-108 0-96-84-112-189-104v212" id="y"/><path fill="#1d262b" d="M45-272c-2-159 65-281 210-284 67 0 120 27 158 80h4l12-70h126V1c-1 164-102 240-273 239-82 0-143-8-204-32V89c67 28 138 42 213 42 80 0 118-46 115-135 0-21 3-48 4-67h-4c-33 51-79 79-155 81C107 7 43-115 45-272zm371 19c1-111-15-180-114-182-70 0-105 55-105 165 0 109 36 163 107 163 87-3 112-49 112-146" id="z"/><g id="d"><use transform="matrix(0.02,0,0,0.02,0,0)" xlink:href="#y"/><use transform="matrix(0.02,0,0,0.02,12.56,0)" xlink:href="#u"/><use transform="matrix(0.02,0,0,0.02,24.64,0)" xlink:href="#z"/><use transform="matrix(0.02,0,0,0.02,37.3,0)" xlink:href="#o"/></g><path fill="#1d262b" d="M365 0H214v-588H20v-126h539v126H365V0" id="A"/><path fill="#1d262b" d="M227-475c31-44 77-83 155-81 141 5 206 121 206 282 0 162-69 279-210 284-75 2-118-33-151-70h-8c16 91 5 198 8 300H78v-786h121l21 71h7zm109 364c80 0 99-74 100-165 0-107-34-161-102-161-91 1-107 65-107 162 0 96 18 164 109 164" id="B"/><path fill="#1d262b" d="M227 0H78v-760h149V0" id="C"/><g id="e"><use transform="matrix(0.02,0,0,0.02,0,0)" xlink:href="#y"/><use transform="matrix(0.02,0,0,0.02,12.56,0)" xlink:href="#u"/><use transform="matrix(0.02,0,0,0.02,24.64,0)" xlink:href="#z"/><use transform="matrix(0.02,0,0,0.02,37.3,0)" xlink:href="#o"/><use transform="matrix(0.02,0,0,0.02,49.120000000000005,0)" xlink:href="#A"/><use transform="matrix(0.02,0,0,0.02,59.300000000000004,0)" xlink:href="#o"/><use transform="matrix(0.02,0,0,0.02,71.12,0)" xlink:href="#n"/><use transform="matrix(0.02,0,0,0.02,90.76,0)" xlink:href="#B"/><use transform="matrix(0.02,0,0,0.02,103.42,0)" xlink:href="#C"/><use transform="matrix(0.02,0,0,0.02,109.52,0)" xlink:href="#u"/><use transform="matrix(0.02,0,0,0.02,121.60000000000001,0)" xlink:href="#q"/><use transform="matrix(0.02,0,0,0.02,130.28,0)" xlink:href="#o"/></g><path fill="#1d262b" d="M291-598c-84-7-119 90-55 132 101 66 281 95 275 268C509-59 400 13 248 10 173 10 105-4 46-33v-141c61 24 133 59 214 59 85 0 135-70 84-122-93-93-286-96-290-284-3-172 177-234 348-190 34 9 69 21 106 37l-49 118c-57-22-99-36-168-42" id="D"/><path fill="#1d262b" d="M72-687c-2-54 33-72 81-73 47 1 81 20 81 73 0 52-34 72-81 73-48-1-83-21-81-73zm155 141V0H78v-546h149" id="E"/><g id="f"><use transform="matrix(0.02,0,0,0.02,0,0)" xlink:href="#D"/><use transform="matrix(0.02,0,0,0.02,11.02,0)" xlink:href="#p"/><use transform="matrix(0.02,0,0,0.02,24.16,0)" xlink:href="#E"/><use transform="matrix(0.02,0,0,0.02,30.26,0)" xlink:href="#B"/><use transform="matrix(0.02,0,0,0.02,42.92,0)" xlink:href="#B"/><use transform="matrix(0.02,0,0,0.02,55.58,0)" xlink:href="#o"/><use transform="matrix(0.02,0,0,0.02,67.4,0)" xlink:href="#q"/></g><path fill="#1d262b" d="M406-71c-31 45-77 83-155 81C111 5 45-111 45-272c0-164 67-279 210-284 78-1 126 35 157 80h5c-17-79-9-188-11-284h149V0H441l-29-71h-6zM196-270c0 92 27 161 107 161 95 0 113-64 113-162 0-99-19-164-115-164-77 0-106 75-105 165" id="F"/><path fill="#1d262b" d="M227-760c-3 154 7 321-8 463 66-90 146-166 220-249h168L390-309 620 0H448L291-221l-64 51V0H78v-760h149" id="G"/><g id="g"><use transform="matrix(0.02,0,0,0.02,0,0)" xlink:href="#t"/><use transform="matrix(0.02,0,0,0.02,13.44,0)" xlink:href="#m"/><use transform="matrix(0.02,0,0,0.02,26.580000000000002,0)" xlink:href="#E"/><use transform="matrix(0.02,0,0,0.02,32.68,0)" xlink:href="#C"/><use transform="matrix(0.02,0,0,0.02,38.78,0)" xlink:href="#F"/><use transform="matrix(0.02,0,0,0.02,51.44,0)" xlink:href="#E"/><use transform="matrix(0.02,0,0,0.02,57.54,0)" xlink:href="#p"/><use transform="matrix(0.02,0,0,0.02,70.68,0)" xlink:href="#z"/><use transform="matrix(0.02,0,0,0.02,83.34,0)" xlink:href="#t"/><use transform="matrix(0.02,0,0,0.02,96.78,0)" xlink:href="#C"/><use transform="matrix(0.02,0,0,0.02,102.88,0)" xlink:href="#k"/><use transform="matrix(0.02,0,0,0.02,115.25999999999999,0)" xlink:href="#l"/><use transform="matrix(0.02,0,0,0.02,125.53999999999998,0)" xlink:href="#G"/></g><g id="h"><use transform="matrix(0.02,0,0,0.02,0,0)" xlink:href="#A"/><use transform="matrix(0.02,0,0,0.02,10.18,0)" xlink:href="#o"/><use transform="matrix(0.02,0,0,0.02,22,0)" xlink:href="#n"/><use transform="matrix(0.02,0,0,0.02,41.64,0)" xlink:href="#B"/><use transform="matrix(0.02,0,0,0.02,54.300000000000004,0)" xlink:href="#C"/><use transform="matrix(0.02,0,0,0.02,60.4,0)" xlink:href="#u"/><use transform="matrix(0.02,0,0,0.02,72.48,0)" xlink:href="#q"/><use transform="matrix(0.02,0,0,0.02,81.16,0)" xlink:href="#o"/><use transform="matrix(0.02,0,0,0.02,92.97999999999999,0)" xlink:href="#r"/><use transform="matrix(0.02,0,0,0.02,103.96000000000001,0)" xlink:href="#k"/><use transform="matrix(0.02,0,0,0.02,116.33999999999999,0)" xlink:href="#s"/><use transform="matrix(0.02,0,0,0.02,125.41999999999999,0)" xlink:href="#n"/><use transform="matrix(0.02,0,0,0.02,145.06,0)" xlink:href="#t"/><use transform="matrix(0.02,0,0,0.02,158.5,0)" xlink:href="#u"/><use transform="matrix(0.02,0,0,0.02,170.58,0)" xlink:href="#v"/><use transform="matrix(0.02,0,0,0.02,180.52,0)" xlink:href="#o"/></g><path fill="#6b707b" d="M24 0v-248h52v208h133V0H24" id="H"/><path fill="#6b707b" d="M133-34C117-15 103 5 69 4 32 3 11-16 11-54c-1-60 55-63 116-61 1-26-3-47-28-47-18 1-26 9-28 27l-52-2c7-38 36-58 82-57s74 22 75 68l1 82c-1 14 12 18 25 15v27c-30 8-71 5-69-32zm-48 3c29 0 43-24 42-57-32 0-66-3-65 30 0 17 8 27 23 27" id="I"/><path fill="#6b707b" d="M123 10C108 53 80 86 19 72V37c35 8 53-11 59-39L3-190h52l48 148c12-52 28-100 44-148h51" id="J"/><path fill="#6b707b" d="M110-194c64 0 96 36 96 99 0 64-35 99-97 99-61 0-95-36-95-99 0-62 34-99 96-99zm-1 164c35 0 45-28 45-65 0-40-10-65-43-65-34 0-45 26-45 65 0 36 10 65 43 65" id="K"/><path fill="#6b707b" d="M85 4C-2 5 27-109 22-190h50c7 57-23 150 33 157 60-5 35-97 40-157h50l1 190h-47c-2-12 1-28-3-38-12 25-28 42-61 42" id="L"/><path fill="#6b707b" d="M115-3C79 11 28 4 28-45v-112H4v-33h27l15-45h31v45h36v33H77v99c-1 23 16 31 38 25v30" id="M"/><path fill="#6b707b" d="M67-125c0 53 21 87 73 88 37 1 54-22 65-47l45 17C233-25 199 4 140 4 58 4 20-42 15-125 8-235 124-281 211-232c18 10 29 29 36 50l-46 12c-8-25-30-41-62-41-52 0-71 34-72 86" id="N"/><path fill="#6b707b" d="M25 0v-261h50V0H25" id="O"/><g id="i"><use transform="matrix(0.05555555555555555,0,0,0.05555555555555555,0,0)" xlink:href="#H"/><use transform="matrix(0.05555555555555555,0,0,0.05555555555555555,12.166666666666666,0)" xlink:href="#I"/><use transform="matrix(0.05555555555555555,0,0,0.05555555555555555,23.27777777777778,0)" xlink:href="#J"/><use transform="matrix(0.05555555555555555,0,0,0.05555555555555555,34.388888888888886,0)" xlink:href="#K"/><use transform="matrix(0.05555555555555555,0,0,0.05555555555555555,46.55555555555555,0)" xlink:href="#L"/><use transform="matrix(0.05555555555555555,0,0,0.05555555555555555,58.72222222222222,0)" xlink:href="#M"/><use transform="matrix(0.05555555555555555,0,0,0.05555555555555555,65.33333333333333,0)" xlink:href="#N"/><use transform="matrix(0.05555555555555555,0,0,0.05555555555555555,79.72222222222221,0)" xlink:href="#I"/><use transform="matrix(0.05555555555555555,0,0,0.05555555555555555,90.83333333333333,0)" xlink:href="#O"/><use transform="matrix(0.05555555555555555,0,0,0.05555555555555555,96.38888888888889,0)" xlink:href="#O"/></g></defs></g></svg>
