<svg xmlns="http://www.w3.org/2000/svg" xmlns:xlink="http://www.w3.org/1999/xlink" xmlns:lucid="lucid" width="2160" height="846"><g transform="translate(-875.5000734625957 -260)" lucid:page-tab-id="66vMhK19zoyh"><path d="M1240 286a6 6 0 0 1 6-6h108a6 6 0 0 1 6 6v33a6 6 0 0 1-6 6h-108a6 6 0 0 1-6-6z" stroke="#2f3646" stroke-width="3" fill="#d9dbdd"/><use xlink:href="#a" transform="matrix(1,0,0,1,1248,288) translate(16.369999999999997 22.259999999999998)"/><path d="M920 406a6 6 0 0 1 6-6h348a6 6 0 0 1 6 6v74a6 6 0 0 1-6 6H926a6 6 0 0 1-6-6z" stroke="#064ae4" stroke-width="3" fill="#c2e2ff"/><path d="M920 443.24h360" stroke="#064ae4" stroke-width="3" fill="none"/><use xlink:href="#b" transform="matrix(1,0,0,1,928,408) translate(79.82000000000001 21.759999999999998)"/><use xlink:href="#c" transform="matrix(1,0,0,1,932,451.24) translate(0 21.759999999999998)"/><use xlink:href="#d" transform="matrix(1,0,0,1,932,451.24) translate(16.64 21.759999999999998)"/><use xlink:href="#e" transform="matrix(1,0,0,1,932,451.24) translate(131.57999999999998 21.759999999999998)"/><path d="M1100 397.5v-89a6 6 0 0 1 6-6h108.02" stroke="#6b707b" stroke-width="2" fill="none"/><path d="M1101 398.5h-2v-1.03h2z" stroke="#6b707b" stroke-width=".05" fill="#6b707b"/><path d="M1236.54 302.5l-21.52 12.73v-25.46z" stroke="#6b707b" stroke-width="2" fill="#fff"/><path d="M1440 406a6 6 0 0 1 6-6h348a6 6 0 0 1 6 6v155a6 6 0 0 1-6 6h-348a6 6 0 0 1-6-6z" stroke="#064ae4" stroke-width="3" fill="#c2e2ff"/><path d="M1440 443.24h360" stroke="#064ae4" stroke-width="3" fill="none"/><use xlink:href="#f" transform="matrix(1,0,0,1,1448,408) translate(133.95999999999998 21.759999999999998)"/><use xlink:href="#c" transform="matrix(1,0,0,1,1452,451.24) translate(0 34.519999999999996)"/><use xlink:href="#g" transform="matrix(1,0,0,1,1452,451.24) translate(16.64 34.519999999999996)"/><use xlink:href="#h" transform="matrix(1,0,0,1,1452,451.24) translate(68.2 34.519999999999996)"/><use xlink:href="#c" transform="matrix(1,0,0,1,1452,451.24) translate(0 61.75999999999999)"/><use xlink:href="#i" transform="matrix(1,0,0,1,1452,451.24) translate(16.64 61.75999999999999)"/><use xlink:href="#j" transform="matrix(1,0,0,1,1452,451.24) translate(136.12 61.75999999999999)"/><use xlink:href="#c" transform="matrix(1,0,0,1,1452,451.24) translate(0 89)"/><use xlink:href="#k" transform="matrix(1,0,0,1,1452,451.24) translate(16.64 89)"/><use xlink:href="#l" transform="matrix(1,0,0,1,1452,451.24) translate(100.76 89)"/><path d="M920 606a6 6 0 0 1 6-6h348a6 6 0 0 1 6 6v135a6 6 0 0 1-6 6H926a6 6 0 0 1-6-6z" stroke="#064ae4" stroke-width="3" fill="#c2e2ff"/><path d="M920 643.24h360" stroke="#064ae4" stroke-width="3" fill="none"/><use xlink:href="#m" transform="matrix(1,0,0,1,928,608) translate(115.45 21.759999999999998)"/><use xlink:href="#c" transform="matrix(1,0,0,1,932,651.24) translate(0 24.52)"/><use xlink:href="#n" transform="matrix(1,0,0,1,932,651.24) translate(16.64 24.52)"/><use xlink:href="#o" transform="matrix(1,0,0,1,932,651.24) translate(97.4 24.52)"/><use xlink:href="#c" transform="matrix(1,0,0,1,932,651.24) translate(0 51.76)"/><use xlink:href="#p" transform="matrix(1,0,0,1,932,651.24) translate(16.64 51.76)"/><use xlink:href="#q" transform="matrix(1,0,0,1,932,651.24) translate(68.32 79)"/><path d="M887.75 463.16h-3.25a6 6 0 0 0-6 6v83.34a6 6 0 0 0 6 6h209.93a6 6 0 0 1 6 6V580" stroke="#6b707b" stroke-width="2" fill="none"/><path d="M917.1 463.16L902.23 478l-15.15-14.84 15.14-14.85zM1100.43 595.26L1095.8 581h9.27z" stroke="#6b707b" stroke-width="2" fill="#6b707b"/><path d="M1312.25 662.85h3.25a6 6 0 0 0 6-6V364.5a6 6 0 0 1 6-6H1614a6 6 0 0 1 6 6V380" stroke="#6b707b" stroke-width="2" fill="none"/><path d="M1282.9 662.85l14.86-14.85 15.15 14.85-15.14 14.84z" stroke="#6b707b" stroke-width="2" fill="#fff"/><path d="M1620 395.26l-4.63-14.26h9.27z" stroke="#6b707b" stroke-width="2" fill="#6b707b"/><path d="M1832.25 534.75h3.25a6 6 0 0 0 6-6V308.5a6 6 0 0 0-6-6H1380" stroke="#6b707b" stroke-width="2" fill="none"/><path d="M1802.9 534.75l14.86-14.85 15.15 14.85-15.14 14.85zM1364.74 302.5l14.26-4.63v9.26z" stroke="#6b707b" stroke-width="2" fill="#6b707b"/><path d="M1440 686a6 6 0 0 1 6-6h348a6 6 0 0 1 6 6v115a6 6 0 0 1-6 6h-348a6 6 0 0 1-6-6z" stroke="#064ae4" stroke-width="3" fill="#c2e2ff"/><path d="M1440 723.24h360" stroke="#064ae4" stroke-width="3" fill="none"/><use xlink:href="#r" transform="matrix(1,0,0,1,1448,688) translate(80.74 21.759999999999998)"/><use xlink:href="#c" transform="matrix(1,0,0,1,1452,731.24) translate(0 28.14)"/><use xlink:href="#s" transform="matrix(1,0,0,1,1452,731.24) translate(16.64 28.14)"/><use xlink:href="#t" transform="matrix(1,0,0,1,1452,731.24) translate(80.76 28.14)"/><use xlink:href="#c" transform="matrix(1,0,0,1,1452,731.24) translate(0 55.379999999999995)"/><use xlink:href="#u" transform="matrix(1,0,0,1,1452,731.24) translate(16.64 55.379999999999995)"/><use xlink:href="#v" transform="matrix(1,0,0,1,1452,731.24) translate(171.04000000000002 55.379999999999995)"/><path d="M1407.75 499.86h-3.25a6 6 0 0 0-6 6V632.5a6 6 0 0 0 6 6H1614a6 6 0 0 1 6 6V660" stroke="#6b707b" stroke-width="2" fill="none"/><path d="M1437.1 499.86l-14.86 14.85-15.15-14.84 15.14-14.85zM1620 675.26l-4.63-14.26h9.27z" stroke="#6b707b" stroke-width="2" fill="#6b707b"/><path d="M920 866a6 6 0 0 1 6-6h348a6 6 0 0 1 6 6v115a6 6 0 0 1-6 6H926a6 6 0 0 1-6-6z" stroke="#064ae4" stroke-width="3" fill="#c2e2ff"/><path d="M920 903.24h360" stroke="#064ae4" stroke-width="3" fill="none"/><use xlink:href="#w" transform="matrix(1,0,0,1,928,868) translate(36.66 21.759999999999998)"/><g><use xlink:href="#c" transform="matrix(1,0,0,1,932,911.24) translate(0 28.14)"/><use xlink:href="#x" transform="matrix(1,0,0,1,932,911.24) translate(16.64 28.14)"/><use xlink:href="#y" transform="matrix(1,0,0,1,932,911.24) translate(126.54 28.14)"/><use xlink:href="#c" transform="matrix(1,0,0,1,932,911.24) translate(0 55.379999999999995)"/><use xlink:href="#z" transform="matrix(1,0,0,1,932,911.24) translate(16.64 55.379999999999995)"/><use xlink:href="#A" transform="matrix(1,0,0,1,932,911.24) translate(101.96 55.379999999999995)"/></g><path d="M887.75 705.17h-3.25a6 6 0 0 0-6 6V812.5a6 6 0 0 0 6 6H1094a6 6 0 0 1 6 6V840" stroke="#6b707b" stroke-width="2" fill="none"/><path d="M917.1 705.17l-14.86 14.85-15.15-14.85 15.14-14.84zM1100 855.26l-4.63-14.26h9.27z" stroke="#6b707b" stroke-width="2" fill="#6b707b"/><path d="M1312.25 923.5H1354a6 6 0 0 0 6-6v-168a6 6 0 0 1 6-6h54" stroke="#6b707b" stroke-width="2" fill="none"/><path d="M1282.9 923.5l14.86-14.85 15.15 14.85-15.14 14.85z" stroke="#6b707b" stroke-width="2" fill="#fff"/><path d="M1435.26 743.5l-14.26 4.63v-9.26z" stroke="#6b707b" stroke-width="2" fill="#6b707b"/><path d="M1540 886a6 6 0 0 1 6-6h148a6 6 0 0 1 6 6v31a6 6 0 0 1-6 6h-148a6 6 0 0 1-6-6z" stroke="#2f3646" stroke-width="3" fill="#d9dbdd"/><g><use xlink:href="#B" transform="matrix(1,0,0,1,1548,888) translate(24.659999999999997 21.38)"/></g><path d="M1832.25 780.4h3.25a6 6 0 0 1 6 6v50.35a6 6 0 0 1-6 6H1626a6 6 0 0 0-6 6V860" stroke="#6b707b" stroke-width="2" fill="none"/><path d="M1802.9 780.4l14.86-14.86 15.15 14.85-15.14 14.84zM1620 875.26l-4.63-14.26h9.27z" stroke="#6b707b" stroke-width="2" fill="#6b707b"/><path d="M1440 1006a6 6 0 0 1 6-6h348a6 6 0 0 1 6 6v74a6 6 0 0 1-6 6h-348a6 6 0 0 1-6-6z" stroke="#064ae4" stroke-width="3" fill="#c2e2ff"/><path d="M1440 1043.24h360" stroke="#064ae4" stroke-width="3" fill="none"/><g><use xlink:href="#C" transform="matrix(1,0,0,1,1448,1008) translate(115.75 21.759999999999998)"/></g><g><use xlink:href="#c" transform="matrix(1,0,0,1,1452,1051.24) translate(0 21.759999999999998)"/><use xlink:href="#D" transform="matrix(1,0,0,1,1452,1051.24) translate(16.64 21.759999999999998)"/><use xlink:href="#E" transform="matrix(1,0,0,1,1452,1051.24) translate(80.64 21.759999999999998)"/></g><path d="M1620 997.5v-48.52" stroke="#6b707b" stroke-width="2" fill="none"/><path d="M1621 998.5h-2v-1.03h2z" stroke="#6b707b" stroke-width=".05" fill="#6b707b"/><path d="M1620 926.46l12.73 21.52h-25.46z" stroke="#6b707b" stroke-width="2" fill="#fff"/><defs><path fill="#1d262b" d="M967-714L785 0H613c-44-180-98-350-130-542-31 193-86 361-129 542H182L0-714h149c42 193 95 373 126 577 30-209 91-384 137-577h143c46 192 106 370 137 577 31-204 84-384 126-577h149" id="F"/><path fill="#1d262b" d="M72-687c-2-54 33-72 81-73 47 1 81 20 81 73 0 52-34 72-81 73-48-1-83-21-81-73zm155 141V0H78v-546h149" id="G"/><path fill="#1d262b" d="M406-71c-31 45-77 83-155 81C111 5 45-111 45-272c0-164 67-279 210-284 78-1 126 35 157 80h5c-17-79-9-188-11-284h149V0H441l-29-71h-6zM196-270c0 92 27 161 107 161 95 0 113-64 113-162 0-99-19-164-115-164-77 0-106 75-105 165" id="H"/><path fill="#1d262b" d="M45-272c-2-159 65-281 210-284 67 0 120 27 158 80h4l12-70h126V1c-1 164-102 240-273 239-82 0-143-8-204-32V89c67 28 138 42 213 42 80 0 118-46 115-135 0-21 3-48 4-67h-4c-33 51-79 79-155 81C107 7 43-115 45-272zm371 19c1-111-15-180-114-182-70 0-105 55-105 165 0 109 36 163 107 163 87-3 112-49 112-146" id="I"/><path fill="#1d262b" d="M45-269c1-179 86-283 258-287 151-1 247 93 245 248v72H196c2 82 52 136 136 135 79 0 127-16 185-43v115C461-2 409 10 325 10 148 7 46-88 45-269zm363-66c-2-66-34-117-104-115-66 2-100 46-105 115h209" id="J"/><path fill="#1d262b" d="M243-171c-4 82 106 65 159 45v111c-35 14-86 26-137 25C150 9 94-49 94-171v-263H23v-63l82-50 43-115h95v116h153v112H243v263" id="K"/><g id="a"><use transform="matrix(0.02,0,0,0.02,0,0)" xlink:href="#F"/><use transform="matrix(0.02,0,0,0.02,19.34,0)" xlink:href="#G"/><use transform="matrix(0.02,0,0,0.02,25.44,0)" xlink:href="#H"/><use transform="matrix(0.02,0,0,0.02,38.1,0)" xlink:href="#I"/><use transform="matrix(0.02,0,0,0.02,50.76,0)" xlink:href="#J"/><use transform="matrix(0.02,0,0,0.02,62.58,0)" xlink:href="#K"/></g><path fill="#1d262b" d="M291-598c-84-7-119 90-55 132 101 66 281 95 275 268C509-59 400 13 248 10 173 10 105-4 46-33v-141c61 24 133 59 214 59 85 0 135-70 84-122-93-93-286-96-290-284-3-172 177-234 348-190 34 9 69 21 106 37l-49 118c-57-22-99-36-168-42" id="L"/><path fill="#1d262b" d="M220-476c29-51 93-79 168-80 124 2 194 67 194 200V0H433v-319c-1-72-20-117-88-118-100 1-118 75-118 180V0H78v-546h114l20 70h8" id="M"/><path fill="#1d262b" d="M227-475c31-44 77-83 155-81 141 5 206 121 206 282 0 162-69 279-210 284-75 2-118-33-151-70h-8c16 91 5 198 8 300H78v-786h121l21 71h7zm109 364c80 0 99-74 100-165 0-107-34-161-102-161-91 1-107 65-107 162 0 96 18 164 109 164" id="N"/><path fill="#1d262b" d="M553-551c-47-21-99-46-160-47-127 1-180 107-179 243 1 141 44 238 179 239 72-1 122-18 182-38v127C514-3 461 10 379 10 155 9 60-133 58-356c-3-257 173-414 442-354 36 9 69 21 102 36" id="O"/><path fill="#1d262b" d="M93-508c55-29 128-49 209-49 140 0 227 57 227 193V0H425l-29-74h-4c-47 56-83 83-181 84C109 9 39-52 42-163c-1-166 165-176 339-177 6-70-22-108-85-107-61 0-108 21-154 40zM267-99c64 0 116-42 114-109v-45c-95 1-187 4-186 91-1 45 29 62 72 63" id="P"/><path fill="#1d262b" d="M227 0H78v-760h149V0" id="Q"/><g id="b"><use transform="matrix(0.02,0,0,0.02,0,0)" xlink:href="#L"/><use transform="matrix(0.02,0,0,0.02,11.02,0)" xlink:href="#M"/><use transform="matrix(0.02,0,0,0.02,24.16,0)" xlink:href="#G"/><use transform="matrix(0.02,0,0,0.02,30.26,0)" xlink:href="#N"/><use transform="matrix(0.02,0,0,0.02,42.92,0)" xlink:href="#N"/><use transform="matrix(0.02,0,0,0.02,55.58,0)" xlink:href="#J"/><use transform="matrix(0.02,0,0,0.02,67.4,0)" xlink:href="#K"/><use transform="matrix(0.02,0,0,0.02,76.08000000000001,0)" xlink:href="#O"/><use transform="matrix(0.02,0,0,0.02,88.82000000000001,0)" xlink:href="#P"/><use transform="matrix(0.02,0,0,0.02,100.9,0)" xlink:href="#Q"/><use transform="matrix(0.02,0,0,0.02,107,0)" xlink:href="#Q"/><use transform="matrix(0.02,0,0,0.02,113.10000000000001,0)" xlink:href="#F"/><use transform="matrix(0.02,0,0,0.02,132.44,0)" xlink:href="#G"/><use transform="matrix(0.02,0,0,0.02,138.54,0)" xlink:href="#H"/><use transform="matrix(0.02,0,0,0.02,151.2,0)" xlink:href="#I"/><use transform="matrix(0.02,0,0,0.02,163.85999999999996,0)" xlink:href="#J"/><use transform="matrix(0.02,0,0,0.02,175.67999999999998,0)" xlink:href="#K"/></g><path fill="#1d262b" d="M321-388h199v71H321v206h-72v-206H50v-71h199v-207h72v207" id="R"/><use transform="matrix(0.02,0,0,0.02,0,0)" xlink:href="#R" id="c"/><path fill="#1d262b" d="M246-474c-75 0-138 40-98 102 80 80 284 66 286 224 0 112-95 158-214 158C149 10 97-1 52-24v-80c68 41 288 86 297-36-11-69-69-74-132-104-80-36-163-53-166-160-4-161 250-168 372-106l-30 70c-42-17-91-34-147-34" id="S"/><path fill="#1d262b" d="M174-463c29-51 94-82 169-83 132 1 195 61 194 197V0h-87v-343c0-86-40-129-120-129-123 0-157 72-157 194V0H85v-536h71l13 73h5" id="T"/><path fill="#1d262b" d="M78-681c-1-36 20-55 52-56 30 1 53 21 51 56 2 34-22 55-51 56-31 0-53-21-52-56zm95 145V0H85v-536h88" id="U"/><path fill="#1d262b" d="M173-463c34-47 82-85 167-83 148 4 220 111 220 277 0 164-73 276-221 279-79 2-133-36-166-78h-6c11 94 4 205 6 308H85v-776h72l12 73h4zm296 193c0-112-38-202-145-202-123 0-151 76-151 203 0 125 28 206 153 206 108-4 141-95 143-207" id="V"/><path fill="#1d262b" d="M55-264c2-166 77-282 237-282 163 0 232 117 221 295H146c1 115 59 186 171 186 74 0 118-15 172-37v77c-55 23-99 35-176 35C146 6 56-92 55-264zm366-57c-2-88-39-155-130-153-91 1-135 65-143 153h273" id="W"/><path fill="#1d262b" d="M180-158c-9 93 83 112 159 85v67c-18 10-61 16-90 16C146 8 92-45 92-156v-312H16v-42l77-35 35-114h52v123h155v68H180v310" id="X"/><path fill="#1d262b" d="M565-606c-44-19-98-40-162-39-160 0-250 121-247 288 0 170 77 289 246 288 65 0 119-13 171-28v78C517 2 467 10 389 10 164 8 61-134 61-358s119-362 343-366c75 0 141 14 197 42" id="Y"/><path fill="#1d262b" d="M105-499c45-24 114-47 183-46 129 1 191 52 192 180V0h-64l-17-76h-4c-47 56-81 85-180 86C116 9 43-43 46-149c3-159 172-173 348-174 7-99-22-152-111-151-59-1-110 22-151 41zM235-61c93-1 161-53 158-153v-48c-125 5-256-1-256 114-1 59 41 87 98 87" id="Z"/><path fill="#1d262b" d="M173 0H85v-760h88V0" id="aa"/><path fill="#1d262b" d="M133-414c-37-1-63-25-61-68-2-45 22-66 61-68 39 1 65 22 63 68 2 44-25 67-63 68zm0 428c-37-1-63-25-61-68-2-44 23-66 61-67 39 1 65 22 63 67 2 44-25 67-63 68" id="ab"/><g id="d"><use transform="matrix(0.02,0,0,0.02,0,0)" xlink:href="#S"/><use transform="matrix(0.02,0,0,0.02,9.58,0)" xlink:href="#T"/><use transform="matrix(0.02,0,0,0.02,21.939999999999994,0)" xlink:href="#U"/><use transform="matrix(0.02,0,0,0.02,27.099999999999994,0)" xlink:href="#V"/><use transform="matrix(0.02,0,0,0.02,39.4,0)" xlink:href="#V"/><use transform="matrix(0.02,0,0,0.02,51.7,0)" xlink:href="#W"/><use transform="matrix(0.02,0,0,0.02,62.980000000000004,0)" xlink:href="#X"/><use transform="matrix(0.02,0,0,0.02,70.2,0)" xlink:href="#Y"/><use transform="matrix(0.02,0,0,0.02,82.84,0)" xlink:href="#Z"/><use transform="matrix(0.02,0,0,0.02,94.06,0)" xlink:href="#aa"/><use transform="matrix(0.02,0,0,0.02,99.22,0)" xlink:href="#aa"/><use transform="matrix(0.02,0,0,0.02,104.38,0)" xlink:href="#ab"/></g><path fill="#1d262b" d="M457-607c-87-45-309-75-306 66 5 99 78 110 156 144 99 43 192 73 195 206C502-56 390 12 247 10 173 10 99-1 51-24v-86c98 48 366 86 361-73-3-101-84-112-168-147-104-43-180-82-184-212-6-199 273-214 425-142" id="ac"/><g id="e"><use transform="matrix(0.02,0,0,0.02,0,0)" xlink:href="#ac"/><use transform="matrix(0.02,0,0,0.02,10.98,0)" xlink:href="#T"/><use transform="matrix(0.02,0,0,0.02,23.34,0)" xlink:href="#U"/><use transform="matrix(0.02,0,0,0.02,28.5,0)" xlink:href="#V"/><use transform="matrix(0.02,0,0,0.02,40.8,0)" xlink:href="#V"/><use transform="matrix(0.02,0,0,0.02,53.099999999999994,0)" xlink:href="#W"/><use transform="matrix(0.02,0,0,0.02,64.38,0)" xlink:href="#X"/><use transform="matrix(0.02,0,0,0.02,71.6,0)" xlink:href="#Y"/><use transform="matrix(0.02,0,0,0.02,84.24,0)" xlink:href="#Z"/><use transform="matrix(0.02,0,0,0.02,95.46000000000001,0)" xlink:href="#aa"/><use transform="matrix(0.02,0,0,0.02,100.61999999999999,0)" xlink:href="#aa"/></g><g id="f"><use transform="matrix(0.02,0,0,0.02,0,0)" xlink:href="#L"/><use transform="matrix(0.02,0,0,0.02,11.02,0)" xlink:href="#M"/><use transform="matrix(0.02,0,0,0.02,24.16,0)" xlink:href="#G"/><use transform="matrix(0.02,0,0,0.02,30.26,0)" xlink:href="#N"/><use transform="matrix(0.02,0,0,0.02,42.92,0)" xlink:href="#N"/><use transform="matrix(0.02,0,0,0.02,55.58,0)" xlink:href="#J"/><use transform="matrix(0.02,0,0,0.02,67.4,0)" xlink:href="#K"/></g><path fill="#1d262b" d="M11 162c47 10 103 8 133-20 35-33 52-91 73-140L1-536h94c53 150 120 289 161 451h4c44-156 104-302 155-451h95L279 74c-36 90-78 165-195 166-28 0-52-3-73-8v-70" id="ad"/><g id="g"><use transform="matrix(0.02,0,0,0.02,0,0)" xlink:href="#X"/><use transform="matrix(0.02,0,0,0.02,7.22,0)" xlink:href="#ad"/><use transform="matrix(0.02,0,0,0.02,17.42,0)" xlink:href="#V"/><use transform="matrix(0.02,0,0,0.02,29.72,0)" xlink:href="#W"/><use transform="matrix(0.02,0,0,0.02,41,0)" xlink:href="#ab"/></g><path fill="#1d262b" d="M323 0h-90v-635H10v-79h535v79H323V0" id="ae"/><g id="h"><use transform="matrix(0.02,0,0,0.02,0,0)" xlink:href="#ac"/><use transform="matrix(0.02,0,0,0.02,10.98,0)" xlink:href="#T"/><use transform="matrix(0.02,0,0,0.02,23.34,0)" xlink:href="#U"/><use transform="matrix(0.02,0,0,0.02,28.5,0)" xlink:href="#V"/><use transform="matrix(0.02,0,0,0.02,40.8,0)" xlink:href="#V"/><use transform="matrix(0.02,0,0,0.02,53.099999999999994,0)" xlink:href="#W"/><use transform="matrix(0.02,0,0,0.02,64.38,0)" xlink:href="#X"/><use transform="matrix(0.02,0,0,0.02,71.6,0)" xlink:href="#ae"/><use transform="matrix(0.02,0,0,0.02,82.32000000000001,0)" xlink:href="#ad"/><use transform="matrix(0.02,0,0,0.02,92.52,0)" xlink:href="#V"/><use transform="matrix(0.02,0,0,0.02,104.82000000000001,0)" xlink:href="#W"/></g><path fill="#1d262b" d="M171-438c38-67 114-131 227-102l-11 81c-127-30-214 51-214 173V0H85v-536h72l10 98h4" id="af"/><path fill="#1d262b" d="M501-456c30-55 94-89 172-90 128 2 181 64 181 197V0h-87v-345c0-85-36-127-109-127-109 0-145 66-145 176V0h-87v-345c0-85-37-127-110-127-116 0-143 76-143 194V0H85v-536h71l13 73h5c28-50 86-82 158-83 84 0 139 30 164 90h5" id="ag"/><g id="i"><use transform="matrix(0.02,0,0,0.02,0,0)" xlink:href="#V"/><use transform="matrix(0.02,0,0,0.02,12.3,0)" xlink:href="#Z"/><use transform="matrix(0.02,0,0,0.02,23.520000000000007,0)" xlink:href="#af"/><use transform="matrix(0.02,0,0,0.02,31.38,0)" xlink:href="#Z"/><use transform="matrix(0.02,0,0,0.02,42.6,0)" xlink:href="#ag"/><use transform="matrix(0.02,0,0,0.02,61.300000000000004,0)" xlink:href="#W"/><use transform="matrix(0.02,0,0,0.02,72.58,0)" xlink:href="#X"/><use transform="matrix(0.02,0,0,0.02,79.8,0)" xlink:href="#W"/><use transform="matrix(0.02,0,0,0.02,91.08,0)" xlink:href="#af"/><use transform="matrix(0.02,0,0,0.02,99.34,0)" xlink:href="#S"/><use transform="matrix(0.02,0,0,0.02,108.92,0)" xlink:href="#ab"/></g><path fill="#1d262b" d="M554-504c0 158-111 227-285 226h-82V0H97v-714h189c168-1 268 59 268 210zm-93 4c0-136-129-143-274-137v282c149 3 274-3 274-145" id="ah"/><path fill="#1d262b" d="M304 158H80v-872h224v72H166V86h138v72" id="ai"/><path fill="#1d262b" d="M25 86h138v-728H25v-72h224v872H25V86" id="aj"/><g id="j"><use transform="matrix(0.02,0,0,0.02,0,0)" xlink:href="#ac"/><use transform="matrix(0.02,0,0,0.02,10.98,0)" xlink:href="#T"/><use transform="matrix(0.02,0,0,0.02,23.34,0)" xlink:href="#U"/><use transform="matrix(0.02,0,0,0.02,28.5,0)" xlink:href="#V"/><use transform="matrix(0.02,0,0,0.02,40.8,0)" xlink:href="#V"/><use transform="matrix(0.02,0,0,0.02,53.099999999999994,0)" xlink:href="#W"/><use transform="matrix(0.02,0,0,0.02,64.38,0)" xlink:href="#X"/><use transform="matrix(0.02,0,0,0.02,71.6,0)" xlink:href="#ah"/><use transform="matrix(0.02,0,0,0.02,83.69999999999999,0)" xlink:href="#Z"/><use transform="matrix(0.02,0,0,0.02,94.91999999999999,0)" xlink:href="#af"/><use transform="matrix(0.02,0,0,0.02,102.77999999999999,0)" xlink:href="#Z"/><use transform="matrix(0.02,0,0,0.02,113.99999999999999,0)" xlink:href="#ag"/><use transform="matrix(0.02,0,0,0.02,132.7,0)" xlink:href="#W"/><use transform="matrix(0.02,0,0,0.02,143.98,0)" xlink:href="#X"/><use transform="matrix(0.02,0,0,0.02,151.2,0)" xlink:href="#W"/><use transform="matrix(0.02,0,0,0.02,162.48,0)" xlink:href="#af"/><use transform="matrix(0.02,0,0,0.02,170.73999999999998,0)" xlink:href="#ai"/><use transform="matrix(0.02,0,0,0.02,177.32,0)" xlink:href="#aj"/></g><path fill="#1d262b" d="M523-1c-43-147-94-290-129-444h-4C358-288 301-148 258-1H158L11-537h91c36 148 81 291 109 446h4c33-159 87-298 131-446h96c42 149 95 287 128 445h4c29-153 75-298 111-445h90L626-1H523" id="ak"/><path fill="#1d262b" d="M442-72c-34 45-85 84-167 82C127 7 55-102 55-267s73-275 221-279c82-2 131 35 166 79h6c-11-89-4-195-6-293h88V0h-71l-13-72h-4zM146-265c0 115 37 200 143 202 125 0 156-74 154-203-2-127-29-207-155-207-105 1-142 96-142 208" id="al"/><path fill="#1d262b" d="M55-267c0-156 73-278 220-279 79 1 132 31 168 81h5l12-71h70V9c-1 157-79 231-240 231-79 0-143-11-193-34v-81c53 28 119 42 198 42 98 0 156-66 148-172 0-12 2-55 3-66h-4c-36 54-91 81-166 81C127 9 55-107 55-267zm389 21c2-143-28-226-157-226-102 0-142 91-141 206 0 117 37 204 143 204 116 0 154-62 155-184" id="am"/><g id="k"><use transform="matrix(0.02,0,0,0.02,0,0)" xlink:href="#ak"/><use transform="matrix(0.02,0,0,0.02,15.72,0)" xlink:href="#U"/><use transform="matrix(0.02,0,0,0.02,20.88,0)" xlink:href="#al"/><use transform="matrix(0.02,0,0,0.02,33.18000000000001,0)" xlink:href="#am"/><use transform="matrix(0.02,0,0,0.02,45.480000000000004,0)" xlink:href="#W"/><use transform="matrix(0.02,0,0,0.02,56.76,0)" xlink:href="#X"/><use transform="matrix(0.02,0,0,0.02,63.980000000000004,0)" xlink:href="#S"/><use transform="matrix(0.02,0,0,0.02,73.56,0)" xlink:href="#ab"/></g><path fill="#1d262b" d="M917-714L727 0h-91c-58-203-124-399-175-609C416-397 346-203 292 0h-91L12-714h94c48 202 109 393 145 606 37-218 111-403 164-606h93c56 202 129 389 170 606 37-212 98-404 145-606h94" id="an"/><g id="l"><use transform="matrix(0.02,0,0,0.02,0,0)" xlink:href="#an"/><use transform="matrix(0.02,0,0,0.02,18.6,0)" xlink:href="#U"/><use transform="matrix(0.02,0,0,0.02,23.76,0)" xlink:href="#al"/><use transform="matrix(0.02,0,0,0.02,36.06,0)" xlink:href="#am"/><use transform="matrix(0.02,0,0,0.02,48.36,0)" xlink:href="#W"/><use transform="matrix(0.02,0,0,0.02,59.64,0)" xlink:href="#X"/><use transform="matrix(0.02,0,0,0.02,66.86,0)" xlink:href="#ai"/><use transform="matrix(0.02,0,0,0.02,73.44,0)" xlink:href="#aj"/></g><g id="m"><use transform="matrix(0.02,0,0,0.02,0,0)" xlink:href="#L"/><use transform="matrix(0.02,0,0,0.02,11.02,0)" xlink:href="#M"/><use transform="matrix(0.02,0,0,0.02,24.16,0)" xlink:href="#G"/><use transform="matrix(0.02,0,0,0.02,30.26,0)" xlink:href="#N"/><use transform="matrix(0.02,0,0,0.02,42.92,0)" xlink:href="#N"/><use transform="matrix(0.02,0,0,0.02,55.58,0)" xlink:href="#J"/><use transform="matrix(0.02,0,0,0.02,67.4,0)" xlink:href="#K"/><use transform="matrix(0.02,0,0,0.02,76.08000000000001,0)" xlink:href="#O"/><use transform="matrix(0.02,0,0,0.02,88.82000000000001,0)" xlink:href="#P"/><use transform="matrix(0.02,0,0,0.02,100.9,0)" xlink:href="#Q"/><use transform="matrix(0.02,0,0,0.02,107,0)" xlink:href="#Q"/></g><g id="n"><use transform="matrix(0.02,0,0,0.02,0,0)" xlink:href="#S"/><use transform="matrix(0.02,0,0,0.02,9.58,0)" xlink:href="#T"/><use transform="matrix(0.02,0,0,0.02,21.939999999999994,0)" xlink:href="#U"/><use transform="matrix(0.02,0,0,0.02,27.099999999999994,0)" xlink:href="#V"/><use transform="matrix(0.02,0,0,0.02,39.4,0)" xlink:href="#V"/><use transform="matrix(0.02,0,0,0.02,51.7,0)" xlink:href="#W"/><use transform="matrix(0.02,0,0,0.02,62.980000000000004,0)" xlink:href="#X"/><use transform="matrix(0.02,0,0,0.02,70.2,0)" xlink:href="#ab"/></g><g id="o"><use transform="matrix(0.02,0,0,0.02,0,0)" xlink:href="#ac"/><use transform="matrix(0.02,0,0,0.02,10.98,0)" xlink:href="#T"/><use transform="matrix(0.02,0,0,0.02,23.34,0)" xlink:href="#U"/><use transform="matrix(0.02,0,0,0.02,28.5,0)" xlink:href="#V"/><use transform="matrix(0.02,0,0,0.02,40.8,0)" xlink:href="#V"/><use transform="matrix(0.02,0,0,0.02,53.099999999999994,0)" xlink:href="#W"/><use transform="matrix(0.02,0,0,0.02,64.38,0)" xlink:href="#X"/></g><path fill="#1d262b" d="M721 0c2-208-6-429 7-625h-4L486 0h-74L177-626h-4c13 195 4 419 7 626H97v-714h133l220 585h4l224-585h132V0h-89" id="ao"/><g id="p"><use transform="matrix(0.02,0,0,0.02,0,0)" xlink:href="#V"/><use transform="matrix(0.02,0,0,0.02,12.3,0)" xlink:href="#Z"/><use transform="matrix(0.02,0,0,0.02,23.520000000000007,0)" xlink:href="#af"/><use transform="matrix(0.02,0,0,0.02,31.38,0)" xlink:href="#Z"/><use transform="matrix(0.02,0,0,0.02,42.6,0)" xlink:href="#ag"/><use transform="matrix(0.02,0,0,0.02,61.300000000000004,0)" xlink:href="#W"/><use transform="matrix(0.02,0,0,0.02,72.58,0)" xlink:href="#X"/><use transform="matrix(0.02,0,0,0.02,79.8,0)" xlink:href="#W"/><use transform="matrix(0.02,0,0,0.02,91.08,0)" xlink:href="#af"/><use transform="matrix(0.02,0,0,0.02,99.34,0)" xlink:href="#ao"/><use transform="matrix(0.02,0,0,0.02,117.48,0)" xlink:href="#Z"/><use transform="matrix(0.02,0,0,0.02,128.70000000000002,0)" xlink:href="#V"/><use transform="matrix(0.02,0,0,0.02,141.00000000000003,0)" xlink:href="#V"/><use transform="matrix(0.02,0,0,0.02,153.30000000000004,0)" xlink:href="#U"/><use transform="matrix(0.02,0,0,0.02,158.46000000000004,0)" xlink:href="#T"/><use transform="matrix(0.02,0,0,0.02,170.82000000000005,0)" xlink:href="#am"/><use transform="matrix(0.02,0,0,0.02,183.1200000000001,0)" xlink:href="#S"/><use transform="matrix(0.02,0,0,0.02,192.70000000000007,0)" xlink:href="#ab"/></g><g id="q"><use transform="matrix(0.02,0,0,0.02,0,0)" xlink:href="#ac"/><use transform="matrix(0.02,0,0,0.02,10.98,0)" xlink:href="#T"/><use transform="matrix(0.02,0,0,0.02,23.34,0)" xlink:href="#U"/><use transform="matrix(0.02,0,0,0.02,28.5,0)" xlink:href="#V"/><use transform="matrix(0.02,0,0,0.02,40.8,0)" xlink:href="#V"/><use transform="matrix(0.02,0,0,0.02,53.099999999999994,0)" xlink:href="#W"/><use transform="matrix(0.02,0,0,0.02,64.38,0)" xlink:href="#X"/><use transform="matrix(0.02,0,0,0.02,71.6,0)" xlink:href="#ah"/><use transform="matrix(0.02,0,0,0.02,83.69999999999999,0)" xlink:href="#Z"/><use transform="matrix(0.02,0,0,0.02,94.91999999999999,0)" xlink:href="#af"/><use transform="matrix(0.02,0,0,0.02,102.77999999999999,0)" xlink:href="#Z"/><use transform="matrix(0.02,0,0,0.02,113.99999999999999,0)" xlink:href="#ag"/><use transform="matrix(0.02,0,0,0.02,132.7,0)" xlink:href="#W"/><use transform="matrix(0.02,0,0,0.02,143.98,0)" xlink:href="#X"/><use transform="matrix(0.02,0,0,0.02,151.2,0)" xlink:href="#W"/><use transform="matrix(0.02,0,0,0.02,162.48,0)" xlink:href="#af"/><use transform="matrix(0.02,0,0,0.02,170.73999999999998,0)" xlink:href="#ao"/><use transform="matrix(0.02,0,0,0.02,188.88,0)" xlink:href="#Z"/><use transform="matrix(0.02,0,0,0.02,200.1,0)" xlink:href="#V"/><use transform="matrix(0.02,0,0,0.02,212.4,0)" xlink:href="#V"/><use transform="matrix(0.02,0,0,0.02,224.70000000000002,0)" xlink:href="#U"/><use transform="matrix(0.02,0,0,0.02,229.86,0)" xlink:href="#T"/><use transform="matrix(0.02,0,0,0.02,242.22000000000003,0)" xlink:href="#am"/><use transform="matrix(0.02,0,0,0.02,254.52000000000004,0)" xlink:href="#ai"/><use transform="matrix(0.02,0,0,0.02,261.1,0)" xlink:href="#aj"/></g><path fill="#1d262b" d="M583-491c0 183-133 252-342 237V0H90v-714h228c169-2 265 70 265 223zM241-378c103 5 189-11 189-108 0-96-84-112-189-104v212" id="ap"/><path fill="#1d262b" d="M220-454c35-62 109-120 213-98l-11 140c-106-18-195 24-195 134V0H78v-546h113l22 92h7" id="aq"/><path fill="#1d262b" d="M558-476c27-51 90-79 161-80 130 2 189 65 188 200V0H758v-319c0-79-27-118-82-118-88 2-109 69-109 163V0H418v-319c0-79-27-118-82-118-94 2-109 78-109 180V0H78v-546h114l20 70h8c27-51 88-79 159-80 81 0 138 26 166 80h13" id="ar"/><g id="r"><use transform="matrix(0.02,0,0,0.02,0,0)" xlink:href="#L"/><use transform="matrix(0.02,0,0,0.02,11.02,0)" xlink:href="#M"/><use transform="matrix(0.02,0,0,0.02,24.16,0)" xlink:href="#G"/><use transform="matrix(0.02,0,0,0.02,30.26,0)" xlink:href="#N"/><use transform="matrix(0.02,0,0,0.02,42.92,0)" xlink:href="#N"/><use transform="matrix(0.02,0,0,0.02,55.58,0)" xlink:href="#J"/><use transform="matrix(0.02,0,0,0.02,67.4,0)" xlink:href="#K"/><use transform="matrix(0.02,0,0,0.02,76.08000000000001,0)" xlink:href="#ap"/><use transform="matrix(0.02,0,0,0.02,88.64000000000001,0)" xlink:href="#P"/><use transform="matrix(0.02,0,0,0.02,100.72000000000003,0)" xlink:href="#aq"/><use transform="matrix(0.02,0,0,0.02,109.4,0)" xlink:href="#P"/><use transform="matrix(0.02,0,0,0.02,121.48,0)" xlink:href="#ar"/><use transform="matrix(0.02,0,0,0.02,141.12,0)" xlink:href="#J"/><use transform="matrix(0.02,0,0,0.02,152.94,0)" xlink:href="#K"/><use transform="matrix(0.02,0,0,0.02,161.62,0)" xlink:href="#J"/><use transform="matrix(0.02,0,0,0.02,173.44,0)" xlink:href="#aq"/></g><g id="s"><use transform="matrix(0.02,0,0,0.02,0,0)" xlink:href="#T"/><use transform="matrix(0.02,0,0,0.02,12.36,0)" xlink:href="#Z"/><use transform="matrix(0.02,0,0,0.02,23.580000000000002,0)" xlink:href="#ag"/><use transform="matrix(0.02,0,0,0.02,42.28,0)" xlink:href="#W"/><use transform="matrix(0.02,0,0,0.02,53.56,0)" xlink:href="#ab"/></g><g id="t"><use transform="matrix(0.02,0,0,0.02,0,0)" xlink:href="#ac"/><use transform="matrix(0.02,0,0,0.02,10.98,0)" xlink:href="#X"/><use transform="matrix(0.02,0,0,0.02,18.2,0)" xlink:href="#af"/><use transform="matrix(0.02,0,0,0.02,26.46,0)" xlink:href="#U"/><use transform="matrix(0.02,0,0,0.02,31.62,0)" xlink:href="#T"/><use transform="matrix(0.02,0,0,0.02,43.980000000000004,0)" xlink:href="#am"/></g><g id="u"><use transform="matrix(0.02,0,0,0.02,0,0)" xlink:href="#V"/><use transform="matrix(0.02,0,0,0.02,12.3,0)" xlink:href="#Z"/><use transform="matrix(0.02,0,0,0.02,23.520000000000007,0)" xlink:href="#af"/><use transform="matrix(0.02,0,0,0.02,31.38,0)" xlink:href="#Z"/><use transform="matrix(0.02,0,0,0.02,42.6,0)" xlink:href="#ag"/><use transform="matrix(0.02,0,0,0.02,61.300000000000004,0)" xlink:href="#W"/><use transform="matrix(0.02,0,0,0.02,72.58,0)" xlink:href="#X"/><use transform="matrix(0.02,0,0,0.02,79.8,0)" xlink:href="#W"/><use transform="matrix(0.02,0,0,0.02,91.08,0)" xlink:href="#af"/><use transform="matrix(0.02,0,0,0.02,99.34,0)" xlink:href="#ae"/><use transform="matrix(0.02,0,0,0.02,110.06,0)" xlink:href="#ad"/><use transform="matrix(0.02,0,0,0.02,120.26,0)" xlink:href="#V"/><use transform="matrix(0.02,0,0,0.02,132.56,0)" xlink:href="#W"/><use transform="matrix(0.02,0,0,0.02,143.84,0)" xlink:href="#ab"/></g><path fill="#1d262b" d="M317-714c225 4 350 122 352 350C671-125 531 0 296 0H97v-714h220zm257 353c2-185-92-274-270-276H187v560h97c193 0 290-95 290-284" id="as"/><g id="v"><use transform="matrix(0.02,0,0,0.02,0,0)" xlink:href="#as"/><use transform="matrix(0.02,0,0,0.02,14.6,0)" xlink:href="#Z"/><use transform="matrix(0.02,0,0,0.02,25.82,0)" xlink:href="#X"/><use transform="matrix(0.02,0,0,0.02,33.04,0)" xlink:href="#Z"/><use transform="matrix(0.02,0,0,0.02,44.26,0)" xlink:href="#ae"/><use transform="matrix(0.02,0,0,0.02,54.980000000000004,0)" xlink:href="#ad"/><use transform="matrix(0.02,0,0,0.02,65.18,0)" xlink:href="#V"/><use transform="matrix(0.02,0,0,0.02,77.48,0)" xlink:href="#W"/></g><path fill="#1d262b" d="M712 0c1-188-3-380 7-559h-4L531 0H392L220-560h-4c13 177 8 371 9 560H90v-714h206l169 546h3l179-546h206V0H712" id="at"/><g id="w"><use transform="matrix(0.02,0,0,0.02,0,0)" xlink:href="#L"/><use transform="matrix(0.02,0,0,0.02,11.02,0)" xlink:href="#M"/><use transform="matrix(0.02,0,0,0.02,24.16,0)" xlink:href="#G"/><use transform="matrix(0.02,0,0,0.02,30.26,0)" xlink:href="#N"/><use transform="matrix(0.02,0,0,0.02,42.92,0)" xlink:href="#N"/><use transform="matrix(0.02,0,0,0.02,55.58,0)" xlink:href="#J"/><use transform="matrix(0.02,0,0,0.02,67.4,0)" xlink:href="#K"/><use transform="matrix(0.02,0,0,0.02,76.08000000000001,0)" xlink:href="#ap"/><use transform="matrix(0.02,0,0,0.02,88.64000000000001,0)" xlink:href="#P"/><use transform="matrix(0.02,0,0,0.02,100.72000000000003,0)" xlink:href="#aq"/><use transform="matrix(0.02,0,0,0.02,109.4,0)" xlink:href="#P"/><use transform="matrix(0.02,0,0,0.02,121.48,0)" xlink:href="#ar"/><use transform="matrix(0.02,0,0,0.02,141.12,0)" xlink:href="#J"/><use transform="matrix(0.02,0,0,0.02,152.94,0)" xlink:href="#K"/><use transform="matrix(0.02,0,0,0.02,161.62,0)" xlink:href="#J"/><use transform="matrix(0.02,0,0,0.02,173.44,0)" xlink:href="#aq"/><use transform="matrix(0.02,0,0,0.02,182.52,0)" xlink:href="#at"/><use transform="matrix(0.02,0,0,0.02,201.38,0)" xlink:href="#P"/><use transform="matrix(0.02,0,0,0.02,213.46,0)" xlink:href="#N"/><use transform="matrix(0.02,0,0,0.02,226.12,0)" xlink:href="#N"/><use transform="matrix(0.02,0,0,0.02,238.78,0)" xlink:href="#G"/><use transform="matrix(0.02,0,0,0.02,244.88,0)" xlink:href="#M"/><use transform="matrix(0.02,0,0,0.02,258.02,0)" xlink:href="#I"/></g><g id="x"><use transform="matrix(0.02,0,0,0.02,0,0)" xlink:href="#V"/><use transform="matrix(0.02,0,0,0.02,12.3,0)" xlink:href="#Z"/><use transform="matrix(0.02,0,0,0.02,23.520000000000007,0)" xlink:href="#af"/><use transform="matrix(0.02,0,0,0.02,31.38,0)" xlink:href="#Z"/><use transform="matrix(0.02,0,0,0.02,42.6,0)" xlink:href="#ag"/><use transform="matrix(0.02,0,0,0.02,61.300000000000004,0)" xlink:href="#W"/><use transform="matrix(0.02,0,0,0.02,72.58,0)" xlink:href="#X"/><use transform="matrix(0.02,0,0,0.02,79.8,0)" xlink:href="#W"/><use transform="matrix(0.02,0,0,0.02,91.08,0)" xlink:href="#af"/><use transform="matrix(0.02,0,0,0.02,99.34,0)" xlink:href="#ab"/></g><g id="y"><use transform="matrix(0.02,0,0,0.02,0,0)" xlink:href="#ac"/><use transform="matrix(0.02,0,0,0.02,10.98,0)" xlink:href="#T"/><use transform="matrix(0.02,0,0,0.02,23.34,0)" xlink:href="#U"/><use transform="matrix(0.02,0,0,0.02,28.5,0)" xlink:href="#V"/><use transform="matrix(0.02,0,0,0.02,40.8,0)" xlink:href="#V"/><use transform="matrix(0.02,0,0,0.02,53.099999999999994,0)" xlink:href="#W"/><use transform="matrix(0.02,0,0,0.02,64.38,0)" xlink:href="#X"/><use transform="matrix(0.02,0,0,0.02,71.6,0)" xlink:href="#ah"/><use transform="matrix(0.02,0,0,0.02,83.69999999999999,0)" xlink:href="#Z"/><use transform="matrix(0.02,0,0,0.02,94.91999999999999,0)" xlink:href="#af"/><use transform="matrix(0.02,0,0,0.02,102.77999999999999,0)" xlink:href="#Z"/><use transform="matrix(0.02,0,0,0.02,113.99999999999999,0)" xlink:href="#ag"/><use transform="matrix(0.02,0,0,0.02,132.7,0)" xlink:href="#W"/><use transform="matrix(0.02,0,0,0.02,143.98,0)" xlink:href="#X"/><use transform="matrix(0.02,0,0,0.02,151.2,0)" xlink:href="#W"/><use transform="matrix(0.02,0,0,0.02,162.48,0)" xlink:href="#af"/></g><path fill="#1d262b" d="M203 0L0-536h94c52 153 114 295 157 458h4c46-160 106-305 159-458h94L304 0H203" id="au"/><path fill="#1d262b" d="M339 10c-81 2-133-34-166-78h-7L148 0H85v-760h88c-1 97 4 206-5 295h5c33-46 84-82 166-80 148 3 221 112 221 277S486 6 339 10zm-13-73c108-3 143-88 143-206 0-135-48-203-145-203-125 2-151 75-151 205 0 126 28 204 153 204" id="av"/><g id="z"><use transform="matrix(0.02,0,0,0.02,0,0)" xlink:href="#au"/><use transform="matrix(0.02,0,0,0.02,10.16,0)" xlink:href="#Z"/><use transform="matrix(0.02,0,0,0.02,21.38,0)" xlink:href="#af"/><use transform="matrix(0.02,0,0,0.02,29.64,0)" xlink:href="#U"/><use transform="matrix(0.02,0,0,0.02,34.8,0)" xlink:href="#Z"/><use transform="matrix(0.02,0,0,0.02,46.01999999999999,0)" xlink:href="#av"/><use transform="matrix(0.02,0,0,0.02,58.31999999999999,0)" xlink:href="#aa"/><use transform="matrix(0.02,0,0,0.02,63.47999999999999,0)" xlink:href="#W"/><use transform="matrix(0.02,0,0,0.02,74.75999999999999,0)" xlink:href="#ab"/></g><path fill="#1d262b" d="M600-714L345 0h-90L0-714h94c62 180 128 358 188 540 7 26 13 51 18 74 54-216 138-409 205-614h95" id="aw"/><g id="A"><use transform="matrix(0.02,0,0,0.02,0,0)" xlink:href="#ah"/><use transform="matrix(0.02,0,0,0.02,12.1,0)" xlink:href="#Z"/><use transform="matrix(0.02,0,0,0.02,23.32,0)" xlink:href="#am"/><use transform="matrix(0.02,0,0,0.02,35.620000000000005,0)" xlink:href="#W"/><use transform="matrix(0.02,0,0,0.02,46.90000000000001,0)" xlink:href="#aw"/><use transform="matrix(0.02,0,0,0.02,58.50000000000001,0)" xlink:href="#Z"/><use transform="matrix(0.02,0,0,0.02,69.72000000000001,0)" xlink:href="#af"/><use transform="matrix(0.02,0,0,0.02,77.98000000000002,0)" xlink:href="#U"/><use transform="matrix(0.02,0,0,0.02,83.14000000000001,0)" xlink:href="#Z"/><use transform="matrix(0.02,0,0,0.02,94.36000000000001,0)" xlink:href="#av"/><use transform="matrix(0.02,0,0,0.02,106.66,0)" xlink:href="#aa"/><use transform="matrix(0.02,0,0,0.02,111.82000000000001,0)" xlink:href="#W"/></g><path fill="#1d262b" d="M314-714c229 4 366 119 368 350C684-121 535 0 292 0H90v-714h224zm211 354c1-150-62-228-203-230h-81v465c186 15 286-53 284-235" id="ax"/><path fill="#1d262b" d="M365 0H214v-588H20v-126h539v126H365V0" id="ay"/><path fill="#1d262b" d="M34 114c48 10 106 9 134-22 24-26 38-59 49-96L0-546h163c38 118 81 230 115 352 3 16 5 33 6 50h3c27-147 82-267 122-402h160L338 70C300 190 190 265 34 232V114" id="az"/><g id="B"><use transform="matrix(0.02,0,0,0.02,0,0)" xlink:href="#ax"/><use transform="matrix(0.02,0,0,0.02,14.8,0)" xlink:href="#P"/><use transform="matrix(0.02,0,0,0.02,26.88,0)" xlink:href="#K"/><use transform="matrix(0.02,0,0,0.02,35.56,0)" xlink:href="#P"/><use transform="matrix(0.02,0,0,0.02,47.64,0)" xlink:href="#ay"/><use transform="matrix(0.02,0,0,0.02,58.82,0)" xlink:href="#az"/><use transform="matrix(0.02,0,0,0.02,70.2,0)" xlink:href="#N"/><use transform="matrix(0.02,0,0,0.02,82.86,0)" xlink:href="#J"/></g><path fill="#1d262b" d="M399-725c231 1 339 139 339 367C738-129 630 9 398 10 167 9 58-130 58-359s109-365 341-366zm0 126c-136 0-181 101-182 241 1 139 46 241 181 241 137 0 180-101 181-241-1-140-43-241-180-241" id="aA"/><path fill="#1d262b" d="M378 10c-76 2-118-32-151-70h-10L192 0H78v-760h149c-1 95 4 199-6 285h6c31-45 77-83 155-81 141 5 206 121 206 282 0 164-67 279-210 284zm58-286c1-90-26-161-102-161-91 0-107 65-107 162 0 96 18 164 109 164 74 0 101-76 100-165" id="aB"/><path fill="#1d262b" d="M153-614c-48-1-83-21-81-73-2-54 33-72 81-73 47 1 81 20 81 73 0 52-34 72-81 73zm74 673c-3 118-68 182-193 181-31 0-74-5-98-12V111C3 129 78 126 78 37v-583h149V59" id="aC"/><path fill="#1d262b" d="M466-31c-47 30-89 41-166 41C128 8 45-87 45-270c0-220 149-320 365-275 28 7 52 16 73 26l-44 115c-41-15-76-31-126-32-77 0-116 55-116 165-1 96 31 157 116 160 68 0 109-20 153-47v127" id="aD"/><g id="C"><use transform="matrix(0.02,0,0,0.02,0,0)" xlink:href="#aA"/><use transform="matrix(0.02,0,0,0.02,15.92,0)" xlink:href="#aB"/><use transform="matrix(0.02,0,0,0.02,28.579999999999995,0)" xlink:href="#aC"/><use transform="matrix(0.02,0,0,0.02,34.68,0)" xlink:href="#J"/><use transform="matrix(0.02,0,0,0.02,46.5,0)" xlink:href="#aD"/><use transform="matrix(0.02,0,0,0.02,56.78,0)" xlink:href="#K"/><use transform="matrix(0.02,0,0,0.02,65.46000000000001,0)" xlink:href="#ay"/><use transform="matrix(0.02,0,0,0.02,76.64,0)" xlink:href="#az"/><use transform="matrix(0.02,0,0,0.02,88.02,0)" xlink:href="#N"/><use transform="matrix(0.02,0,0,0.02,100.67999999999998,0)" xlink:href="#J"/></g><g id="D"><use transform="matrix(0.02,0,0,0.02,0,0)" xlink:href="#W"/><use transform="matrix(0.02,0,0,0.02,11.28,0)" xlink:href="#T"/><use transform="matrix(0.02,0,0,0.02,23.64,0)" xlink:href="#X"/><use transform="matrix(0.02,0,0,0.02,30.86,0)" xlink:href="#U"/><use transform="matrix(0.02,0,0,0.02,36.019999999999996,0)" xlink:href="#X"/><use transform="matrix(0.02,0,0,0.02,43.239999999999995,0)" xlink:href="#ad"/><use transform="matrix(0.02,0,0,0.02,53.44,0)" xlink:href="#ab"/></g><path fill="#1d262b" d="M496 0H97v-714h399v79H187v223h291v78H187v255h309V0" id="aE"/><g id="E"><use transform="matrix(0.02,0,0,0.02,0,0)" xlink:href="#aE"/><use transform="matrix(0.02,0,0,0.02,11.120000000000001,0)" xlink:href="#T"/><use transform="matrix(0.02,0,0,0.02,23.48,0)" xlink:href="#X"/><use transform="matrix(0.02,0,0,0.02,30.7,0)" xlink:href="#U"/><use transform="matrix(0.02,0,0,0.02,35.86,0)" xlink:href="#X"/><use transform="matrix(0.02,0,0,0.02,43.08,0)" xlink:href="#ad"/></g></defs></g></svg>
