<svg viewBox="0 0 32 32" xmlns="http://www.w3.org/2000/svg">
<path fill-rule="evenodd" clip-rule="evenodd" d="M13 5C13 3.34315 14.3431 2 16 2C17.6569 2 19 3.34315 19 5V7C19 8.65685 17.6569 10 16 10C14.3431 10 13 8.65685 13 7V5ZM17 5V7C17 7.55228 16.5523 8 16 8C15.4477 8 15 7.55228 15 7V5C15 4.44772 15.4477 4 16 4C16.5523 4 17 4.44772 17 5Z"/>
<path fill-rule="evenodd" clip-rule="evenodd" d="M27 12C27 11.4477 26.5523 11 26 11H6C5.44772 11 5 11.4477 5 12C5 12.5523 5.44772 13 6 13H13V18.5668C13 18.8523 12.9389 19.1345 12.8207 19.3944L8.87755 28.0694C8.46659 28.9735 9.12756 30 10.1207 30C10.6562 30 11.1423 29.687 11.3639 29.1995L14.1793 23.0056C14.8898 21.4424 17.1102 21.4424 17.8207 23.0056L20.6361 29.1995C20.8577 29.687 21.3438 30 21.8793 30C22.8724 30 23.5334 28.9735 23.1224 28.0694L19.1793 19.3944C19.0611 19.1345 19 18.8523 19 18.5668V13H26C26.5523 13 27 12.5523 27 12ZM17 18.5668V13H15V18.5668C15 19.0711 14.9046 19.5704 14.7195 20.0382C15.5471 19.7649 16.4529 19.7649 17.2805 20.0382C17.0954 19.5704 17 19.0711 17 18.5668Z"/>
</svg>