<svg viewBox="0 0 32 32" xmlns="http://www.w3.org/2000/svg">
<path fill-rule="evenodd" clip-rule="evenodd" d="M17.7782 3.36393L16 1.58575L14.2218 3.36399C12.1589 5.42686 11 8.22468 11 11.142L11 12C11 14.7614 8.76142 17 6.00001 17C3.79086 17 1.99999 18.7909 2 21L2.00001 24L9.99996 24L9.99996 28H13.5858L16 30.4142L18.4142 28H22L22 24L30 24V21C30 18.7908 28.2092 17 26 17C23.2386 17 21 14.7614 21 12L21 11.1421C21 8.22473 19.8411 5.42683 17.7782 3.36393ZM16 7C16.5523 7 17 7.44772 17 8V12H15V8C15 7.44772 15.4477 7 16 7Z" fill="black"/>
<path d="M28 30H30V26H28V30Z" fill="black"/>
<path d="M4.00004 30V26H2.00004V30H4.00004Z" fill="black"/>
<path d="M26 28V26H24V28H26Z" fill="black"/>
<path d="M8.00004 28V26H6.00004V28H8.00004Z" fill="black"/>
</svg>