<svg viewBox="0 0 32 32" xmlns="http://www.w3.org/2000/svg">
<path d="M17 7.99998C17 7.4477 16.5523 6.99998 16 6.99998C15.4478 6.99998 15 7.4477 15 7.99998V12H17V7.99998Z"/>
<path fill-rule="evenodd" clip-rule="evenodd" d="M17.7782 3.36393L16 1.58575L14.2218 3.36399C12.1589 5.42686 11 8.22468 11 11.142L11 12C11 14.7614 8.76142 17 6.00001 17C3.79086 17 1.99999 18.7909 2 21L2.00001 24L9.99996 24L9.99996 28H13.5858L16 30.4142L18.4142 28H22L22 24L30 24V21C30 18.7908 28.2092 17 26 17C23.2386 17 21 14.7614 21 12L21 11.1421C21 8.22473 19.8411 5.42683 17.7782 3.36393ZM6.00001 19C9.86599 19 13 15.866 13 12L13 11.142C13 8.75512 13.9482 6.466 15.636 4.7782L16 4.41419L16.3639 4.77814C18.0518 6.46597 19 8.75516 19 11.1421L19 12C19 15.866 22.134 19 26 19C27.1046 19 28 19.8954 28 21V22H20L20 26L17.5858 26L16 27.5858L14.4142 26H12L12 22L4 22L4 21C4 19.8954 4.89543 19 6.00001 19Z"/>
<path d="M28 30H30V26H28V30Z"/>
<path d="M4.00004 26V30H2.00004V26H4.00004Z"/>
<path d="M26 28V26H24V28H26Z"/>
<path d="M8.00004 26V28H6.00004V26H8.00004Z"/>
</svg>