<svg viewBox="0 0 32 32" xmlns="http://www.w3.org/2000/svg">
<path d="M27.0801 2C25.3601 2 23.5501 2.79 22.2201 4.11L19.7501 6.58L7.81008 4.64H7.65008C7.20008 4.63 6.95008 4.66 6.39008 4.94L2.33008 7.89L12.8501 13.51L9.75008 17.05L4.48008 16.74L2.57008 19.8L9.03008 22.97L12.2001 29.43L15.2601 27.52L14.9501 22.25L18.4901 19.15L24.1101 29.67L26.9701 25.75L27.0601 25.61C27.3401 25.05 27.3701 24.8 27.3701 24.35L25.4101 12.25L27.8801 9.78C29.2001 8.46 29.9901 6.64 29.9901 4.92C29.9901 2.95 29.0301 2 27.0701 2H27.0801ZM26.4701 8.37L23.2701 11.57L25.3601 24.45C25.3601 24.45 25.3601 24.49 25.3601 24.51C25.3601 24.51 25.3501 24.55 25.3001 24.65L24.3701 25.93L19.0601 16L12.8901 21.4L13.1901 26.46L13.0101 26.57L10.5101 21.49L5.43008 18.99L5.54008 18.81L10.6001 19.11L16.0001 12.94L6.08008 7.63L7.36008 6.7C7.46008 6.65 7.49008 6.64 7.49008 6.64C7.51008 6.64 7.54008 6.63 7.56008 6.64L20.4401 8.73L23.6401 5.53C25.0601 4.11 26.6301 4 27.0801 4C27.9401 4 28.0001 4.06 28.0001 4.92C28.0001 5.37 27.8901 6.94 26.4701 8.36V8.37Z"/>
</svg>