<svg viewBox="0 0 32 32" xmlns="http://www.w3.org/2000/svg">
<path d="M29.7098 3.71L28.2998 2.3L23.9498 6.65C22.8698 5.06 21.0598 4.01 18.9998 4.01H16.9998V2H14.9998V4H12.9998C9.6898 4 6.9998 6.69 6.9998 10V18C6.9998 24 4.7398 24 3.9998 24V26H4.5898L2.2998 28.29L3.7098 29.7L29.7098 3.71Z" fill="black"/>
<path d="M12.5598 28C13.2498 29.19 14.5298 30 15.9998 30C17.4698 30 18.7498 29.19 19.4398 28H12.5598Z" fill="black"/>
<path d="M25.0002 11.24V18C25.0002 24 27.2602 24 28.0002 24V26H10.2402L25.0002 11.24Z" fill="black"/>
</svg>