<svg viewBox="0 0 32 32" xmlns="http://www.w3.org/2000/svg">
<path fill-rule="evenodd" clip-rule="evenodd" d="M18.9998 4C21.0298 4 22.8498 5 23.9498 6.63L23.9598 6.64L28.2998 2.3L29.7098 3.71L3.7098 29.7L2.2998 28.29L4.6298 25.96C4.4198 25.98 4.2098 26 3.9998 26V24C4.7398 24 6.9998 24 6.9998 18V10C6.9998 6.69 9.6898 4 12.9998 4H14.9998V2H16.9998V4H18.9998ZM8.9998 10V18H8.9898C8.9898 19.66 8.8198 20.99 8.5298 22.05L22.4998 8.08C21.8098 6.8 20.4898 6 18.9998 6H12.9998C10.7898 6 8.9998 7.79 8.9998 10Z"/>
<path fill-rule="evenodd" clip-rule="evenodd" d="M12.0002 26H10.6802V24H24.3002C23.5202 22.79 23.0002 20.89 23.0002 18V12H25.0002V18C25.0002 24 27.2602 24 28.0002 24V26H20.0002C20.0002 28.21 18.2102 30 16.0002 30C13.7902 30 12.0002 28.21 12.0002 26ZM14.0002 26C14.0002 27.1 14.9002 28 16.0002 28C17.1002 28 18.0002 27.1 18.0002 26H14.0002Z"/>
</svg>