<svg viewBox="0 0 32 32" xmlns="http://www.w3.org/2000/svg">
<path d="M16 24C16.8284 24 17.5 23.3284 17.5 22.5C17.5 21.6716 16.8284 21 16 21C15.1716 21 14.5 21.6716 14.5 22.5C14.5 23.3284 15.1716 24 16 24Z"/>
<path d="M15 11H17V19H15V11Z"/>
<path fill-rule="evenodd" clip-rule="evenodd" d="M27.9299 28H4.06991C3.31991 28 2.64991 27.61 2.27991 26.95C1.89991 26.29 1.91991 25.47 2.30991 24.82L14.2399 5.01C14.6199 4.38 15.2799 4 15.9999 4C16.7199 4 17.3799 4.38 17.7599 5.01L29.6899 24.82C30.0799 25.47 30.0899 26.29 29.7199 26.95C29.3499 27.61 28.6799 28 27.9299 28ZM16.0499 6.04L4.01991 25.85C4.01991 25.85 3.99991 25.93 4.01991 25.97L27.9399 26.01C28.0099 25.93 28.0099 25.89 27.9899 25.86L16.0499 6.04Z"/>
</svg>