<svg viewBox="0 0 32 32" xmlns="http://www.w3.org/2000/svg">
<path d="M29.7102 24.9699L23.7702 15.1099L17.6402 4.93994C16.8902 3.68994 15.1102 3.68994 14.3602 4.93994L8.23021 15.1099L2.29021 24.9699C1.50021 26.2899 2.42021 27.9999 3.94021 27.9999H28.0602C29.5802 27.9999 30.5002 26.2899 29.7102 24.9699ZM16.0002 24.9999C14.9002 24.9999 14.0002 24.0999 14.0002 22.9999C14.0002 21.9999 14.7402 21.1799 15.7002 21.0299C15.8002 21.0099 15.9002 20.9999 16.0002 20.9999C16.1002 20.9999 16.2102 21.0099 16.3002 21.0299C17.2602 21.1799 18.0002 21.9999 18.0002 22.9999C18.0002 24.0999 17.1002 24.9999 16.0002 24.9999ZM18.0002 18.9999H14.0002V10.9999H18.0002V18.9999Z" fill="black"/>
</svg>