<svg viewBox="0 0 32 32" xmlns="http://www.w3.org/2000/svg">
<path fill-rule="evenodd" clip-rule="evenodd" d="M5.37992 8H7.49992C8.20992 8 8.80992 8.51 8.98992 9.26L11.9999 23.77L10.0399 24.18L9.15992 19.94V20.01H3.91992L3.13992 24.16L1.16992 23.79L3.87992 9.33C4.05992 8.53 4.66992 8 5.37992 8ZM5.78992 10L4.28992 18H8.75992L7.09992 10H5.78992Z"/>
<path d="M23.9999 10L23.9999 24H25.9999V10H29.9999V8H19.9999V10H23.9999Z"/>
<path d="M20.9999 24H16.9999C15.3431 24 13.9999 22.6569 13.9999 21V8H15.9999L15.9999 21C15.9999 21.5523 16.4476 22 16.9999 22H20.9999V24Z"/>
</svg>