<svg viewBox="0 0 32 32" xmlns="http://www.w3.org/2000/svg">
<path fill-rule="evenodd" clip-rule="evenodd" d="M8 22C4.69 22 2 19.31 2 16V14C2 10.69 4.69 8 8 8C8 4.69 10.69 2 14 2H17C20.31 2 23 4.69 23 8V10H23.79C26.97 10 29.69 12.38 29.98 15.41C30.14 17.1 29.58 18.78 28.45 20.03C27.7722 20.7732 26.9282 21.3256 26 21.6512V23.1707C27.1652 23.5825 28 24.6938 28 26C28 27.6569 26.6569 29 25 29C23.3431 29 22 27.6569 22 26C22 24.6938 22.8348 23.5825 24 23.1707V22H16V23.382L18 24.382V26.1707C19.1652 26.5825 20 27.6938 20 29C20 30.6569 18.6569 32 17 32C15.3431 32 14 30.6569 14 29C14 27.6938 14.8348 26.5825 16 26.1707V25.618L14 24.618V22H10V24.1707C11.1652 24.5825 12 25.6938 12 27C12 28.6569 10.6569 30 9 30C7.34315 30 6 28.6569 6 27C6 25.6938 6.83481 24.5825 8 24.1707V22ZM24 26C24 25.4477 24.4477 25 25 25C25.5523 25 26 25.4477 26 26C26 26.5523 25.5523 27 25 27C24.4477 27 24 26.5523 24 26ZM9 26C8.44772 26 8 26.4477 8 27C8 27.5523 8.44772 28 9 28C9.55228 28 10 27.5523 10 27C10 26.4477 9.55228 26 9 26ZM8 10C5.79 10 4 11.79 4 14V16C4 18.21 5.79 20 8 20H24C25.12 20 26.2 19.52 26.96 18.69C27.73 17.85 28.09 16.75 27.98 15.6C27.79 13.58 25.94 12 23.78 12H20.99V8C20.99 5.79 19.2 4 16.99 4H13.99C11.78 4 9.99 5.79 9.99 8V10H8ZM18 29C18 29.5523 17.5523 30 17 30C16.4477 30 16 29.5523 16 29C16 28.4477 16.4477 28 17 28C17.5523 28 18 28.4477 18 29Z" fill="black"/>
</svg>