<svg viewBox="0 0 32 32" xmlns="http://www.w3.org/2000/svg">
<path fill-rule="evenodd" clip-rule="evenodd" d="M29.97 15.41C29.68 12.37 26.96 10 23.78 10H22.99V8C22.99 4.69 20.3 2 16.99 2H13.99C10.68 2 7.98999 4.69 7.98999 8C4.67999 8 1.98999 10.69 1.98999 14V16C1.98999 19.31 4.67999 22 7.98999 22H8V24.1707C6.83481 24.5825 6 25.6938 6 27C6 28.6569 7.34315 30 9 30C10.6569 30 12 28.6569 12 27C12 25.6938 11.1652 24.5825 10 24.1707V22H14V24.618L16 25.618V26.1707C14.8348 26.5825 14 27.6938 14 29C14 30.6569 15.3431 32 17 32C18.6569 32 20 30.6569 20 29C20 27.6938 19.1652 26.5825 18 26.1707V24.382L16 23.382V22H24L24 23.1707C22.8348 23.5825 22 24.6938 22 26C22 27.6569 23.3431 29 25 29C26.6569 29 28 27.6569 28 26C28 24.6938 27.1652 23.5825 26 23.1707V21.6558C26.9273 21.3279 27.7698 20.7754 28.44 20.04C29.57 18.79 30.13 17.11 29.97 15.42V15.41ZM24 26C24 25.4477 24.4477 25 25 25C25.5523 25 26 25.4477 26 26C26 26.5523 25.5523 27 25 27C24.4477 27 24 26.5523 24 26ZM9 26C8.44772 26 8 26.4477 8 27C8 27.5523 8.44772 28 9 28C9.55228 28 10 27.5523 10 27C10 26.4477 9.55228 26 9 26ZM18 29C18 29.5523 17.5523 30 17 30C16.4477 30 16 29.5523 16 29C16 28.4477 16.4477 28 17 28C17.5523 28 18 28.4477 18 29Z" fill="black"/>
</svg>