<svg viewBox="0 0 32 32" xmlns="http://www.w3.org/2000/svg">
<path d="M28.0201 9.67734L28.02 20.0001H26V9.50005L18.8201 5.46133L18.0101 4.99755L18.003 5.00173L18 5.00005L19.1162 3.32568L27.0001 7.85005C27.6301 8.21005 28.0201 8.88005 28.0201 9.67734Z" fill="black"/>
<path fill-rule="evenodd" clip-rule="evenodd" d="M4 22.4997L4.00014 11.6797C4.00014 10.9497 4.39014 10.2797 5.02014 9.92973L13.0501 5.24994C13.6601 4.91994 14.3801 4.91994 14.9801 5.24994L23.0701 9.92973C23.7001 10.2897 24.0901 10.9597 24.0901 11.6797L24.09 22.4997C24.09 23.1897 23.74 23.8197 23.16 24.1897L15.09 29.19C14.76 29.4 14.39 29.5 14.01 29.5C13.63 29.5 13.26 29.4 12.93 29.19L4.93 24.1897C4.35 23.8197 4 23.1897 4 22.4997ZM6.00014 12.7697L6 22.4997L13 26.86L13.0001 16.5897L6.00014 12.7697ZM15.0001 16.5897L15 26.86L22.07 22.4997L22.0701 12.7697L15.0001 16.5897ZM21.0001 11.0797L14.0101 6.99994L7.07014 11.0797L14.0001 14.8597L21.0001 11.0797Z" fill="black"/>
</svg>