<svg viewBox="0 0 32 32" xmlns="http://www.w3.org/2000/svg">
<path d="M5 3C3.89543 3 3 3.89543 3 5V7.75H5V5L7.75 5V3H5Z"/>
<path d="M18.75 3H13.25V5L18.75 5V3Z"/>
<path d="M27 3H24.25V5H27V7.75H29V5C29 3.89543 28.1046 3 27 3Z"/>
<path d="M3 13.25V18.75H5V13.25H3Z"/>
<path d="M29 18.75V13.25H27V18.75H29Z"/>
<path d="M3 24.25V27C3 28.1046 3.89543 29 5 29H7.75V27H5V24.25H3Z"/>
<path d="M29 27V24.25H27V27H24.25V29H27C28.1046 29 29 28.1046 29 27Z"/>
<path d="M13.25 27V29H18.75V27H13.25Z"/>
<path fill-rule="evenodd" clip-rule="evenodd" d="M9 12.7361C9 11.9785 9.428 11.286 10.1056 10.9472L15.1056 8.44723C15.6686 8.1657 16.3314 8.1657 16.8944 8.44723L21.8944 10.9472C22.572 11.286 23 11.9785 23 12.7361V18.4081C23 19.0886 22.654 19.7225 22.0815 20.0905L17.0815 23.3048C16.4227 23.7283 15.5773 23.7283 14.9185 23.3048L9.91849 20.0905C9.34604 19.7225 9 19.0886 9 18.4081V12.7361ZM15.9999 13.882L19.6459 12.059L16 10.2361L12.3541 12.059L15.9999 13.882ZM21 18.4081V13.618L17 15.618V20.9795L21 18.4081ZM15 20.9795L11 18.4081V13.6181L15 15.6181V20.9795Z"/>
</svg>