<svg viewBox="0 0 32 32" xmlns="http://www.w3.org/2000/svg">
<path d="M28.0201 9.67734L28.02 20.0001H26V9.50006L18.8207 5.46168L18.0101 4.99755L18.003 5.00173L18 5.00006L19.1162 3.32568L27.0001 7.85005C27.6301 8.21005 28.0201 8.88005 28.0201 9.67734Z" fill="black"/>
<path d="M13 16.5L4 11.5V22.3783C4 23.0751 4.36259 23.7216 4.9571 24.0849L13 29V16.5Z" fill="black"/>
<path d="M24 11.5L15 16.5V29L23.0429 24.0849C23.6374 23.7216 24 23.0751 24 22.3783V11.5Z" fill="black"/>
<path d="M14.9713 5.5396C14.3673 5.20402 13.6328 5.20402 13.0288 5.5396L5 10L14 15L23 10L14.9713 5.5396Z" fill="black"/>
</svg>