<svg viewBox="0 0 32 32" xmlns="http://www.w3.org/2000/svg">
<path d="M5 3C3.89543 3 3 3.89543 3 5V7.75H5V5L7.75 5V3H5Z" fill="black"/>
<path d="M18.75 3H13.25V5L18.75 5V3Z" fill="black"/>
<path d="M27 3H24.25V5H27V7.75H29V5C29 3.89543 28.1046 3 27 3Z" fill="black"/>
<path d="M3 13.25V18.75H5V13.25H3Z" fill="black"/>
<path d="M29 18.75V13.25H27V18.75H29Z" fill="black"/>
<path d="M3 24.25V27C3 28.1046 3.89543 29 5 29H7.75V27H5V24.25H3Z" fill="black"/>
<path d="M29 27V24.25H27V27H24.25V29H27C28.1046 29 29 28.1046 29 27Z" fill="black"/>
<path d="M13.25 27V29H18.75V27H13.25Z" fill="black"/>
<path d="M16.4741 7.75528C16.1781 7.59591 15.8219 7.59591 15.5259 7.75528L9.5 11L16 14.5L22.5 11L16.4741 7.75528Z" fill="black"/>
<path d="M9 19.9256C9 20.2813 9.18891 20.6102 9.49613 20.7894L15 24V16L9 13V19.9256Z" fill="black"/>
<path d="M22.5039 20.7894C22.8111 20.6102 23 20.2813 23 19.9256V13L17 16V24L22.5039 20.7894Z" fill="black"/>
</svg>