<svg viewBox="0 0 32 32" xmlns="http://www.w3.org/2000/svg">
<path d="M15.5977 8.75259C15.2996 7.12783 16.0679 5.45576 16.9931 4.32892C18.0127 3.0856 19.7626 2.13212 21.2579 2.02734C21.5105 3.7308 20.8153 5.39052 19.9003 6.56449C18.9186 7.8257 17.2309 8.80373 15.5977 8.75259ZM24.369 14.64C24.8317 13.349 25.7484 12.1875 27.1705 11.4038C25.7334 9.61053 23.7157 8.56939 21.8116 8.56939C19.2925 8.56939 18.2273 9.76962 16.4775 9.76962C14.675 9.76962 13.3076 8.56939 11.1255 8.56939C8.98573 8.56939 6.70805 9.87358 5.26353 12.1009C4.73241 12.9243 4.37262 13.9471 4.1764 15.0863C3.63193 18.2822 4.44524 22.4449 6.87134 26.1411C8.05095 27.9346 9.62327 29.9548 11.6773 29.9724C13.5071 29.9903 14.0262 28.8026 16.5033 28.7903C18.984 28.7762 19.4542 29.9847 21.2814 29.9673C23.3361 29.95 24.9951 27.7142 26.1747 25.9209C27.0146 24.634 27.3322 23.984 27.9854 22.529C24.6644 21.2766 23.2985 17.6172 24.369 14.64Z" fill="black"/>
</svg>