<svg viewBox="0 0 32 32" xmlns="http://www.w3.org/2000/svg">
<path d="M20.47 7.07004C19.87 6.50004 18.98 6.34004 18.22 6.68004C17.47 7.00004 17 7.70004 17 8.50004V11.01H5C3.9 11.01 3 11.91 3 13.01V19.01C3 20.11 3.9 21.01 5 21.01H17V23.52C17 24.32 17.47 25.02 18.22 25.34C18.49 25.46 18.77 25.51 19.05 25.51C19.57 25.51 20.08 25.31 20.47 24.94L28.38 17.43C28.78 17.05 29 16.55 29 16C29 15.45 28.78 14.95 28.38 14.57L20.47 7.06004V7.07004ZM19.09 23.49C19.09 23.49 19.02 23.51 19 23.51V19.01H5V13.01H19V8.53004C19 8.53004 19.05 8.49004 19.09 8.53004L27 15.99L19.09 23.5V23.49Z"/>
</svg>