<svg viewBox="0 0 32 32" xmlns="http://www.w3.org/2000/svg">
<path d="M16.0002 29C15.4602 29 14.9502 28.78 14.5702 28.38L7.06023 20.47C6.49023 19.87 6.34023 18.99 6.67023 18.22C6.99023 17.47 7.69023 17 8.49023 17H11.0002V5C11.0002 3.9 11.9002 3 13.0002 3H19.0002C20.1002 3 21.0002 3.9 21.0002 5V17H23.5102C24.3102 17 25.0102 17.47 25.3302 18.22C25.6602 18.99 25.5002 19.87 24.9402 20.47L17.4302 28.38C17.0502 28.78 16.5502 29 16.0002 29ZM8.50023 19C8.50023 19 8.48023 19.06 8.52023 19.09L16.0302 27L23.4902 19.09C23.4902 19.09 23.4902 18.99 23.4902 18.98H19.0102V5H13.0102V19H8.51023H8.50023Z"/>
</svg>