<svg viewBox="0 0 32 32" xmlns="http://www.w3.org/2000/svg">
<path d="M27 11H15V8.49005C15 7.69005 14.53 6.99005 13.78 6.67005C13.01 6.34005 12.13 6.50005 11.53 7.06005L3.62 14.57C3.22 14.95 3 15.45 3 16C3 16.55 3.22 17.05 3.62 17.43L11.53 24.94C11.92 25.31 12.43 25.51 12.95 25.51C13.23 25.51 13.51 25.45 13.78 25.34C14.53 25.02 15 24.32 15 23.52V21.01H27C28.1 21.01 29 20.11 29 19.01V13.01C29 11.91 28.1 11.01 27 11.01V11ZM27 19H13V23.48C13 23.48 12.95 23.53 12.91 23.48L5 16.02L12.91 8.51005C12.91 8.51005 12.94 8.49005 12.96 8.49005C12.98 8.49005 13 8.49005 13 8.49005V12.99H27V18.99V19Z"/>
</svg>