<svg viewBox="0 0 32 32" xmlns="http://www.w3.org/2000/svg">
<path d="M24.9302 11.53L17.4202 3.62002C16.6702 2.82002 15.3202 2.82002 14.5702 3.62002L7.06023 11.53C6.49023 12.13 6.34023 13.01 6.67023 13.78C6.99023 14.53 7.69023 15 8.49023 15H11.0002V27C11.0002 28.1 11.9002 29 13.0002 29H19.0002C20.1002 29 21.0002 28.1 21.0002 27V15H23.5102C24.3102 15 25.0102 14.53 25.3302 13.78C25.6602 13.01 25.5002 12.13 24.9402 11.53H24.9302ZM23.5002 13H19.0002V27H13.0002V13H8.52023C8.52023 13 8.48023 12.95 8.52023 12.91L15.9802 5.00002L23.4902 12.91C23.4902 12.91 23.5002 12.99 23.5102 13H23.5002Z"/>
</svg>