<svg viewBox="0 0 32 32" xmlns="http://www.w3.org/2000/svg">
<path fill-rule="evenodd" clip-rule="evenodd" d="M15.3739 2.19517C15.7681 1.99809 16.232 1.9981 16.6261 2.19517L29.6261 9.34795C30.9475 10.0086 30.4773 12.0001 29 12.0001H3C1.52269 12.0001 1.05254 10.0086 2.3739 9.34795L15.3739 2.19517ZM17.5 7.50015C17.5 8.32858 16.8284 9.00015 16 9.00015C15.1716 9.00015 14.5 8.32858 14.5 7.50015C14.5 6.67173 15.1716 6.00015 16 6.00015C16.8284 6.00015 17.5 6.67173 17.5 7.50015Z" fill="black"/>
<path d="M3.00004 28.0002C3.00004 26.8956 3.89547 26.0002 5.00004 26.0002H27C28.1046 26.0002 29 26.8956 29 28.0002L29 30.0002H3L3.00004 28.0002Z" fill="black"/>
<path d="M26 24.0002V18.0002H22V24.0002H26Z" fill="black"/>
<path d="M28 14.0002C28 15.1047 27.1046 16.0002 26 16.0002H6.00004C4.89547 16.0002 4.00004 15.1047 4.00004 14.0002H28Z" fill="black"/>
<path d="M18 24.0002V18.0002H14V24.0002H18Z" fill="black"/>
<path d="M10 24.0002V18.0002H6.00004V24.0002H10Z" fill="black"/>
</svg>