<svg viewBox="0 0 32 32" xmlns="http://www.w3.org/2000/svg">
<path d="M17.5001 7.50015C17.5001 8.32858 16.8285 9.00015 16.0001 9.00015C15.1717 9.00015 14.5001 8.32858 14.5001 7.50015C14.5001 6.67173 15.1717 6.00015 16.0001 6.00015C16.8285 6.00015 17.5001 6.67173 17.5001 7.50015Z"/>
<path fill-rule="evenodd" clip-rule="evenodd" d="M15.3741 2.19517C15.7682 1.99809 16.2321 1.9981 16.6263 2.19517L30.9318 9.34795C32.2532 10.0086 31.783 12.0001 30.3057 12.0001H1.69458C0.21727 12.0001 -0.252877 10.0086 1.06848 9.34795L15.3741 2.19517ZM16.0002 4.11818L4.23622 10.0001H27.7641L16.0002 4.11818Z"/>
<path fill-rule="evenodd" clip-rule="evenodd" d="M2.00012 30.0002V26.0002C2.00012 24.8956 2.89555 24.0002 4.00012 24.0002V16.0002C2.89555 16.0002 2.00012 15.1047 2.00012 14.0002V12.0002H4.00012V14.0002H28.0001V12.0002H30.0001V14.0002C30.0001 15.1047 29.1047 16.0002 28.0001 16.0002V24.0002C29.1047 24.0002 30.0001 24.8956 30.0001 26.0002V30.0002H2.00012ZM26.0001 16.0002H24.0001V24.0002H26.0001V16.0002ZM22.0001 16.0002H19.0001V24.0002H22.0001V16.0002ZM17.0001 24.0002V16.0002H15.0001V24.0002H17.0001ZM10.0001 16.0002H13.0001V24.0002H10.0001V16.0002ZM8.00012 16.0002H6.00012V24.0002H8.00012V16.0002ZM4.00012 28.0002V26.0002H28.0001V28.0002H4.00012Z"/>
</svg>