<svg viewBox="0 0 32 32" xmlns="http://www.w3.org/2000/svg">
<path d="M29.5702 19.7499L26.0702 6.15992C25.9502 5.63992 25.6202 5.18992 25.1802 4.92992C23.1502 3.67992 20.9902 3.64992 18.9602 4.84992C18.3702 5.19992 18.0002 5.84992 18.0002 6.55992V10.0099H14.0002V6.55992C14.0002 5.84992 13.6302 5.19992 13.0402 4.84992C11.0002 3.65992 8.85023 3.68992 6.82023 4.92992C6.38023 5.19992 6.06023 5.64992 5.94023 6.14992L2.43023 19.7599C2.15023 20.4599 1.99023 21.2099 1.99023 22.0099C1.99023 25.3199 4.68023 28.0099 7.99023 28.0099C11.3002 28.0099 13.9902 25.3199 13.9902 22.0099V20.0099H17.9902V22.0099C17.9902 25.3199 20.6802 28.0099 23.9902 28.0099C27.3002 28.0099 29.9902 25.3199 29.9902 22.0099C29.9902 21.2199 29.8302 20.4599 29.5502 19.7599L29.5702 19.7499ZM24.1302 6.63992L26.7102 16.6499C25.9002 16.2399 24.9802 15.9999 24.0102 15.9999C22.4702 15.9999 21.0702 16.5899 20.0002 17.5499L19.9802 6.56992C21.4002 5.73992 22.7202 5.75992 24.1402 6.64992L24.1302 6.63992ZM7.87023 6.62992C9.29023 5.75992 10.6202 5.73992 12.0102 6.54992V17.5399C10.9502 16.5899 9.55023 15.9999 8.01023 15.9999C7.03023 15.9999 6.12023 16.2399 5.30023 16.6499L7.86023 6.62992H7.87023ZM8.01023 25.9999C5.80023 25.9999 4.01023 24.2099 4.01023 21.9999C4.01023 19.7899 5.80023 17.9999 8.01023 17.9999C10.2202 17.9999 12.0102 19.7899 12.0102 21.9999C12.0102 24.2099 10.2202 25.9999 8.01023 25.9999ZM14.0102 17.9999V11.9999H18.0102V17.9999H14.0102ZM24.0102 25.9999C21.8002 25.9999 20.0102 24.2099 20.0102 21.9999C20.0102 19.7899 21.8002 17.9999 24.0102 17.9999C26.2202 17.9999 28.0102 19.7899 28.0102 21.9999C28.0102 24.2099 26.2202 25.9999 24.0102 25.9999Z"/>
</svg>