<svg viewBox="0 0 32 32" xmlns="http://www.w3.org/2000/svg">
<path d="M29.56 19.7499L26.05 6.1499C25.92 5.6299 25.6 5.1699 25.17 4.9199C23.11 3.6599 21.02 3.6299 18.92 4.8399C18.34 5.1999 17.99 5.8499 17.99 6.5399V9.9899H13.99V6.5399C13.99 5.8499 13.63 5.1999 13.03 4.8299C10.96 3.6299 8.86998 3.6599 6.81998 4.9099C6.37998 5.1699 6.04998 5.6199 5.92998 6.1299L2.41998 19.7399C2.13998 20.4399 1.97998 21.1899 1.97998 21.9899C1.97998 25.2999 4.66998 27.9899 7.97998 27.9899C11.29 27.9899 13.98 25.2999 13.98 21.9899V19.9899H17.98V21.9899C17.98 25.2999 20.67 27.9899 23.98 27.9899C27.29 27.9899 29.98 25.2999 29.98 21.9899C29.98 21.1999 29.82 20.4399 29.54 19.7399L29.56 19.7499ZM7.99998 25.9999C5.78998 25.9999 3.99998 24.2099 3.99998 21.9999C3.99998 19.7899 5.78998 17.9999 7.99998 17.9999C10.21 17.9999 12 19.7899 12 21.9999C12 24.2099 10.21 25.9999 7.99998 25.9999ZM24 25.9999C21.79 25.9999 20 24.2099 20 21.9999C20 19.7899 21.79 17.9999 24 17.9999C26.21 17.9999 28 19.7899 28 21.9999C28 24.2099 26.21 25.9999 24 25.9999Z" fill="black"/>
</svg>