<svg viewBox="0 0 32 32" xmlns="http://www.w3.org/2000/svg">
<path fill-rule="evenodd" clip-rule="evenodd" d="M4 10C4 8.89543 4.89543 8 6 8H12C13.1046 8 14 8.89543 14 10V17.3333C14 17.7661 13.8596 18.1871 13.6 18.5333L9.8 23.6C9.22339 24.3688 8 23.961 8 23V18H6C4.89543 18 4 17.1046 4 16V10ZM12 17.3333L10 20V16H6V10H12V17.3333Z"/>
<path fill-rule="evenodd" clip-rule="evenodd" d="M18 10C18 8.89543 18.8954 8 20 8H26C27.1046 8 28 8.89543 28 10V17.3333C28 17.7661 27.8596 18.1871 27.6 18.5333L23.8 23.6C23.2234 24.3688 22 23.961 22 23V18H20C18.8954 18 18 17.1046 18 16V10ZM26 17.3333L24 20V16H20V10H26V17.3333Z"/>
</svg>