<svg viewBox="0 0 32 32" xmlns="http://www.w3.org/2000/svg">
<path fill-rule="evenodd" clip-rule="evenodd" d="M10 5C10 3.9 10.9 3 12 3H20C21.1 3 22 3.9 22 5V13C22 14.1 21.1 15 20 15H12C10.9 15 10 14.1 10 13V5ZM12 5V13H20V5H12Z"/>
<path fill-rule="evenodd" clip-rule="evenodd" d="M13 17H5C3.9 17 3 17.9 3 19V27C3 28.1 3.9 29 5 29H13C14.1 29 15 28.1 15 27V19C15 17.9 14.1 17 13 17ZM5 27V19H13V27H5Z"/>
<path fill-rule="evenodd" clip-rule="evenodd" d="M27 17H19C17.9 17 17 17.9 17 19V27C17 28.1 17.9 29 19 29H27C28.1 29 29 28.1 29 27V19C29 17.9 28.1 17 27 17ZM19 27V19H27V27H19Z"/>
</svg>