<svg viewBox="0 0 32 32" xmlns="http://www.w3.org/2000/svg">
<path d="M11 3H21C21.5523 3 22 3.44772 22 4V14C22 14.5523 21.5523 15 21 15H11C10.4477 15 10 14.5523 10 14V4C10 3.44772 10.4477 3 11 3Z" fill="black"/>
<path d="M14 17H4C3.44772 17 3 17.4477 3 18V28C3 28.5523 3.44772 29 4 29H14C14.5523 29 15 28.5523 15 28V18C15 17.4477 14.5523 17 14 17Z" fill="black"/>
<path d="M28 17H18C17.4477 17 17 17.4477 17 18V28C17 28.5523 17.4477 29 18 29H28C28.5523 29 29 28.5523 29 28V18C29 17.4477 28.5523 17 28 17Z" fill="black"/>
</svg>