<svg viewBox="0 0 32 32" xmlns="http://www.w3.org/2000/svg">
<path d="M6.27505 11.0362L5.72545 12.9592L12.7252 14.9598L13.2748 13.0368L6.27505 11.0362Z"/>
<path d="M6.27405 17.0352L5.72446 18.9583L12.7242 20.9588L13.2738 19.0358L6.27405 17.0352Z"/>
<path d="M18.7293 13.0327L25.7297 11.0346L26.2786 12.9578L19.2782 14.9559L18.7293 13.0327Z"/>
<path d="M25.7265 17.0444L18.7261 19.0425L19.275 20.9657L26.2754 18.9676L25.7265 17.0444Z"/>
<path fill-rule="evenodd" clip-rule="evenodd" d="M27.52 3.04997C28.14 2.90997 28.76 3.04997 29.24 3.42997C29.72 3.80997 30 4.38997 30 4.99997V24C30 24.93 29.35 25.76 28.46 25.97L16 29.03L3.53 25.97C2.65 25.77 2 24.94 2 24V4.99997C2 4.37997 2.28 3.80997 2.76 3.42997C3.24 3.04997 3.86 2.90997 4.46 3.04997L15.99 5.95997L27.52 3.04997ZM15 7.77997L3.98 4.99997L4 24L15 26.72V7.77997ZM17 26.72L27.98 24.03L28 4.99997L17 7.77997V26.72Z"/>
</svg>