<svg viewBox="0 0 32 32" xmlns="http://www.w3.org/2000/svg">
<path fill-rule="evenodd" clip-rule="evenodd" d="M2 24.0001V5.00008C2 4.36008 2.6 3.88008 3.23 4.03008L15 7.69008V28.7001L2.77 25.0001C2.32 24.8901 2 24.4601 2 24.0001ZM12.27 13.0401L5.27 11.0401L4.72 12.9601L11.72 14.9601L12.27 13.0401ZM12.27 19.0401L5.27 17.0401L4.72 18.9601L11.72 20.9601L12.27 19.0401Z" fill="black"/>
<path fill-rule="evenodd" clip-rule="evenodd" d="M17 7.69008L28.77 4.03008C29.4 3.88008 30 4.36008 30 5.00008V24.0001C30 24.4601 29.68 24.8901 29.23 25.0001L17 28.7001V7.69008ZM19.72 19.0401L20.27 20.9601L27.27 18.9601L26.72 17.0401L19.72 19.0401ZM19.72 13.0401L20.27 14.9601L27.27 12.9601L26.72 11.0401L19.72 13.0401Z" fill="black"/>
</svg>