<svg viewBox="0 0 32 32" xmlns="http://www.w3.org/2000/svg">
<path fill-rule="evenodd" clip-rule="evenodd" d="M4.09966 2H21.9003L24 8.28744V12H22V10H18V16H8V10H4V22H12V24H3.91C2.85772 24 2 23.1423 2 22.09V8.28744L4.09966 2ZM4.20456 8H21.7954L20.4597 4H5.54034L4.20456 8ZM10 10V14H16V10H10Z"/>
<path d="M28.5 23C28.5 22.44 28.4 21.9 28.23 21.4L30.01 20.36L29 18.63L27.22 19.67C26.52 18.88 25.58 18.31 24.51 18.1V16H22.51V18.1C21.44 18.32 20.51 18.89 19.8 19.68L18.01 18.64L17 20.37L18.79 21.41C18.62 21.91 18.51 22.44 18.51 23C18.51 23.56 18.61 24.1 18.78 24.6L17 25.64L18.01 27.37L19.79 26.33C20.49 27.12 21.43 27.69 22.5 27.9V30H24.5V27.9C25.57 27.68 26.5 27.11 27.21 26.32L29 27.36L30.01 25.63L28.22 24.59C28.39 24.09 28.5 23.56 28.5 23ZM23.5 26C21.84 26 20.5 24.66 20.5 23C20.5 21.34 21.84 20 23.5 20C25.16 20 26.5 21.34 26.5 23C26.5 24.66 25.16 26 23.5 26Z"/>
</svg>