<svg viewBox="0 0 32 32" xmlns="http://www.w3.org/2000/svg">
<path d="M28.5 23C28.5 22.44 28.4 21.9 28.23 21.4L30.01 20.36L29 18.63L27.22 19.67C26.52 18.88 25.58 18.31 24.51 18.1V16H22.51V18.1C21.44 18.32 20.51 18.89 19.8 19.68L18.01 18.64L17 20.37L18.79 21.41C18.62 21.91 18.51 22.44 18.51 23C18.51 23.56 18.61 24.1 18.78 24.6L17 25.64L18.01 27.37L19.79 26.33C20.49 27.12 21.43 27.69 22.5 27.9V30H24.5V27.9C25.57 27.68 26.5 27.11 27.21 26.32L29 27.36L30.01 25.63L28.22 24.59C28.39 24.09 28.5 23.56 28.5 23ZM23.5 26C21.84 26 20.5 24.66 20.5 23C20.5 21.34 21.84 20 23.5 20C25.16 20 26.5 21.34 26.5 23C26.5 24.66 25.16 26 23.5 26Z" fill="black"/>
<path d="M24 8L22 2H3.99998L2 8H24Z" fill="black"/>
<path d="M16 10V14H10V10H2V23C2 23.55 2.45 24 3 24H15.8424L16.5363 23.5946C16.519 23.3993 16.51 23.2009 16.51 23C16.51 22.8002 16.5195 22.6049 16.5371 22.4141L15.9953 22.0993C15.0388 21.5436 14.7151 20.317 15.2728 19.3616L16.2828 17.6316C16.8389 16.6791 18.0611 16.3566 19.0147 16.9107L19.0936 16.9565C19.3836 17.125 19.7409 17.1073 20.0304 16.938C20.3164 16.7708 20.51 16.4718 20.51 16.1406V16C20.51 14.8954 21.4054 14 22.51 14H24V10H16Z" fill="black"/>
</svg>