<svg viewBox="0 0 32 32" xmlns="http://www.w3.org/2000/svg">
<path d="M23 22C22.3368 22 21.7085 21.8378 21.1554 21.55L22.0787 19.7759C22.3533 19.9188 22.6657 20 23 20V22Z"/>
<path d="M10.4771 19.1039C10.1727 19.6682 10 20.3139 10 21H12C12 19.8954 12.8954 19 14 19V17C13.2053 17 12.4648 17.2317 11.8422 17.6313C11.3319 17.2684 11 16.6722 11 16H9C9 17.2534 9.57623 18.3709 10.4771 19.1039Z"/>
<path fill-rule="evenodd" clip-rule="evenodd" d="M13.5 4C11.567 4 10 5.567 10 7.5V8H9.45833C7.54835 8 6 9.54835 6 11.4583C6 12.4564 6.2586 13.2101 6.65345 13.7602C5.65155 14.4872 5 15.6675 5 17V18C5 19.4806 5.8044 20.7733 7 21.4649V22C7 23.543 7.87368 24.882 9.15334 25.5491C9.32039 26.096 9.62585 26.5992 10.0791 27.0093C10.8053 27.6664 11.8159 28 13 28C14.1841 28 15.1947 27.6664 15.9209 27.0093C15.9478 26.985 15.9742 26.9603 16 26.9354C16.0258 26.9603 16.0522 26.985 16.0791 27.0093C16.8053 27.6664 17.8159 28 19 28C20.1841 28 21.1947 27.6664 21.9209 27.0093C22.3742 26.5992 22.6796 26.096 22.8467 25.5491C24.1263 24.882 25 23.543 25 22V21.4649C26.1956 20.7733 27 19.4806 27 18V17C27 15.6675 26.3485 14.4872 25.3466 13.7603C25.7414 13.2101 26 12.4564 26 11.4583C26 9.54835 24.4517 8 22.5417 8H22V8.03544L22 7.5C22 5.567 20.433 4 18.5 4C17.5207 4 16.6353 4.40223 16 5.05051C15.3647 4.40223 14.4793 4 13.5 4ZM20.0505 9H20V7.5C20 6.67157 19.3284 6 18.5 6C17.6716 6 17 6.67157 17 7.5L17 13C19.2091 13 21 14.7909 21 17H19C19 15.8954 18.1046 15 17 15L17 24.5C17 24.9404 17.1535 25.2842 17.4209 25.5263C17.6947 25.7739 18.1841 26 19 26C19.8159 26 20.3053 25.7739 20.5791 25.5263C20.8465 25.2842 21 24.9404 21 24.5V24C22.1046 24 23 23.1046 23 22V20C24.1046 20 25 19.1046 25 18V17C25 15.8954 24.1046 15 23 15V13.7141C22.9999 13 22.9988 13 22.9988 13L22.9954 13L22.9914 13L22.9853 13.0001L22.9802 13.0003L22.9954 13C23.0164 12.9981 23.0552 12.9926 23.1053 12.982C23.2086 12.9601 23.3393 12.9173 23.4637 12.8383C23.6507 12.7195 24 12.4168 24 11.4583C24 10.6529 23.3471 10 22.5417 10H22.5C21.6716 10 21 10.6716 21 11.5V12H19V11.5C19 10.5207 19.4022 9.63526 20.0505 9ZM11 11.5C11 10.6716 10.3284 10 9.5 10H9.45833C8.65292 10 8 10.6529 8 11.4583C8 12.4168 8.34936 12.7195 8.53631 12.8383C8.66073 12.9173 8.7914 12.9601 8.89471 12.982C8.94482 12.9926 8.98349 12.9972 9.00446 12.9991L9.01986 13.0003L9.01476 13.0001L9.00864 13L9.00446 12.9991L9.0024 13C9.0024 13 9.00002 13 9 13.9524V15C7.89543 15 7 15.8954 7 17V18C7 19.1046 7.89543 20 9 20L9 22C9 23.1046 9.89543 24 11 24V24.5C11 24.9404 11.1535 25.2842 11.4209 25.5263C11.6947 25.7739 12.1841 26 13 26C13.8159 26 14.3053 25.7739 14.5791 25.5263C14.8453 25.2854 14.9985 24.9436 15 24.5063L15 7.5C15 6.67157 14.3284 6 13.5 6C12.6716 6 12 6.67157 12 7.5V9H11.9495C12.5978 9.63526 13 10.5207 13 11.5V12H11V11.5Z"/>
</svg>