<svg viewBox="0 0 32 32" xmlns="http://www.w3.org/2000/svg">
<path fill-rule="evenodd" clip-rule="evenodd" d="M19.2003 7.74993C19.8832 6.95223 20.813 6.37212 21.8713 6.12793C21.4977 4.8964 20.3535 4 19 4C18.2316 4 17.5308 4.28885 17 4.76389V27.5987C17.5883 27.8539 18.2714 28 19 28C20.82 28 22.3561 27.0884 22.8408 25.8408C23.4583 25.6009 23.9935 25.1034 24.3766 24.4414C24.0899 24.48 23.7973 24.5 23.5 24.5C22.735 24.5 22.0008 24.3678 21.3192 24.1251L22 22.2439C22.4692 22.4098 22.9741 22.5 23.5 22.5C25.9786 22.5 27.9892 20.4961 28 18.02C28 18.0133 28 18.0067 28 18C28 16.9154 27.6763 15.9317 27.1506 15.2111C26.5935 14.3837 25.7955 13.7319 24.8571 13.3562C25.5532 12.8069 26 11.9556 26 11C26 9.34315 24.6569 8 23 8C22.9569 8 22.9139 8.00091 22.8712 8.00271C22.5669 8.01557 22.2743 8.07376 22 8.17071C21.4997 8.34734 21.06 8.65298 20.7195 9.05064L19.2003 7.74993ZM23 17C23 14.7909 21.2091 13 19 13V15C20.1046 15 21 15.8954 21 17H23Z" fill="black"/>
<path fill-rule="evenodd" clip-rule="evenodd" d="M15 4.76389V27.5987C14.4117 27.8539 13.7286 28 13 28C11.18 28 9.64394 27.0884 9.15922 25.8408C8.05102 25.4102 7.20792 24.1501 7.03334 22.5984C6.1424 22.2168 5.3847 21.5839 4.84942 20.7889C4.32375 20.0684 4 19.0846 4 18C4 16.9154 4.32374 15.9317 4.84941 15.2111C5.4065 14.3837 6.2045 13.7319 7.14289 13.3562C6.4468 12.8069 6 11.9556 6 11C6 9.34315 7.34315 8 9 8C9.02842 8 9.05674 8.0004 9.08497 8.00118C9.40504 8.01008 9.71257 8.06911 10 8.17071C10.5003 8.34735 10.94 8.65298 11.2805 9.05064L12.7997 7.74993C12.1168 6.95222 11.187 6.37211 10.1287 6.12793C10.5023 4.8964 11.6465 4 13 4C13.7684 4 14.4692 4.28885 15 4.76389ZM10.8422 17.6313C11.4648 17.2317 12.2053 17 13 17V19C11.8954 19 11 19.8954 11 21H9C9 20.3139 9.17273 19.6682 9.47708 19.1039C8.57623 18.3709 8 17.2534 8 16H10C10 16.6722 10.3319 17.2684 10.8422 17.6313Z" fill="black"/>
</svg>