<svg viewBox="0 0 32 32" xmlns="http://www.w3.org/2000/svg">
<path d="M20.5 7C20.5 4.51472 22.5147 2.5 25 2.5C27.4853 2.5 29.5 4.51472 29.5 7C29.5 9.22803 27.8808 11.0779 25.7549 11.437C24.5145 18.7441 18.7542 24.5181 11.4371 25.7539C11.0785 27.8803 9.22839 29.5 7 29.5C4.51472 29.5 2.5 27.4853 2.5 25C2.5 22.8584 3.99601 21.0662 6 20.6115V4H8V20.6115C9.59585 20.9736 10.8696 22.1839 11.3222 23.7433C17.6212 22.5861 22.5817 17.6164 23.7441 11.3224C21.87 10.7788 20.5 9.04939 20.5 7Z" fill="black"/>
</svg>