<svg viewBox="0 0 32 32" xmlns="http://www.w3.org/2000/svg">
<path fill-rule="evenodd" clip-rule="evenodd" d="M20 7C20 4.23858 22.2386 2 25 2C27.7614 2 30 4.23858 30 7C30 9.53821 28.1087 11.6347 25.6585 11.957C24.2735 18.8446 18.8533 24.2768 11.9571 25.6579C11.635 28.1084 9.53842 30 7 30C4.23858 30 2 27.7614 2 25C2 22.581 3.71776 20.5633 6 20.1V3H8V20.1C9.83905 20.4733 11.3116 21.856 11.8141 23.6446C17.7152 22.3604 22.3565 17.7112 23.645 11.8142C21.5419 11.2235 20 9.29181 20 7ZM25 4C23.3431 4 22 5.34315 22 7C22 8.65685 23.3431 10 25 10C26.6569 10 28 8.65685 28 7C28 5.34315 26.6569 4 25 4ZM4 25C4 23.3431 5.34315 22 7 22C8.65685 22 10 23.3431 10 25C10 26.6569 8.65685 28 7 28C5.34315 28 4 26.6569 4 25Z" fill="black"/>
</svg>