<svg viewBox="0 0 32 32" xmlns="http://www.w3.org/2000/svg">
<path fill-rule="evenodd" clip-rule="evenodd" d="M21.79 8H28C28.55 8 29 8.45 29 9V13.6C29 14.78 28.1 16 26.6 16H5.4C4.14 16 3 14.86 3 13.6V9C3 8.45 3.45 8 4 8H9.79V5.7C9.79 4.86 10.51 4 11.9 4H19.68C20.72 4 21.79 4.64 21.79 5.7V8ZM19.78 8V6.12L19.67 6.01H11.79V8H19.78Z" fill="black"/>
<path d="M17 20V18H26.6C27.49 18 28.31 17.74 29 17.3V27C29 27.55 28.55 28 28 28H4C3.45 28 3 27.55 3 27V17.24C3.7 17.71 4.53 18 5.4 18H15V20H17Z" fill="black"/>
</svg>