<svg viewBox="0 0 32 32" xmlns="http://www.w3.org/2000/svg">
<path d="M27 8H21.79V5.7C21.79 4.64 20.72 4 19.68 4H11.9C10.51 4 9.79 4.86 9.79 5.7V8H5C3.9 8 3 8.9 3 10V26C3 27.1 3.9 28 5 28H27C28.1 28 29 27.1 29 26V10C29 8.9 28.1 8 27 8ZM11.79 6.01C11.79 6.01 11.86 6.01 11.9 6.01H19.68C19.68 6.01 19.76 6.01 19.79 6.02V8.01H11.79V6.02V6.01ZM5 26V17.24C5.7 17.72 6.53 18 7.4 18H15V20H17V18H24.6C25.49 18 26.31 17.74 27 17.3V26H5ZM27 13.6C27 14.78 26.1 16 24.6 16H7.4C6.14 16 5 14.86 5 13.6V10H27V13.6Z"/>
</svg>