<svg viewBox="0 0 32 32" xmlns="http://www.w3.org/2000/svg">
<path fill-rule="evenodd" clip-rule="evenodd" d="M8 4C8 2.89543 8.89543 2 10 2H16C17.1046 2 18 2.89543 18 4V6H23C23.5523 6 24 6.44772 24 7V10C24 11.1046 23.1046 12 22 12H4C2.89543 12 2 11.1046 2 10V7C2 6.44772 2.44772 6 3 6H8V4ZM10 6V4H16V6H10Z" fill="black"/>
<path d="M27 18.02V17H25V18.02H24.51C23.1277 18.02 22 19.1477 22 20.53V21.59C22 22.2177 22.2642 22.7797 22.6208 23.1925C22.9739 23.6013 23.4761 23.9322 24.0584 24.0415C24.3109 24.0923 25.0187 24.1719 25.6891 24.2474L25.8342 24.2637C26.6298 24.3534 27.4075 24.4419 27.721 24.4956C27.9109 24.5282 28.09 24.746 28.09 24.94V26.49C28.09 26.5526 28.0528 26.6828 27.9166 26.8144C27.7834 26.943 27.6289 27 27.51 27H24.51C24.2323 27 24 26.7677 24 26.49V26H22V26.49C22 27.8723 23.1277 29 24.51 29H25V30H27V29H27.51C28.2211 29 28.8566 28.687 29.3059 28.2531C29.7521 27.8222 30.09 27.1974 30.09 26.49V24.94C30.09 23.834 29.2691 22.7318 28.0589 22.5244C27.6746 22.4585 26.8247 22.3627 26.0709 22.2777L26.0193 22.2719C25.6438 22.2296 25.2852 22.1892 24.9958 22.1544C24.8461 22.1363 24.7191 22.1203 24.6202 22.1067C24.5708 22.0999 24.5313 22.0941 24.5013 22.0893C24.4767 22.0854 24.4613 22.0826 24.4613 22.0826L24.4452 22.0791L24.4289 22.0761C24.3566 22.063 24.2385 22.0057 24.1342 21.885C24.0308 21.7653 24 21.6523 24 21.59V20.53C24 20.2523 24.2323 20.02 24.51 20.02L27.39 20.02C27.5373 20.02 27.7069 20.0841 27.8387 20.2038C27.968 20.3214 28.01 20.4428 28.01 20.53V21H30.01V20.53C30.01 19.0598 28.68 18.02 27.39 18.02H27Z" fill="black"/>
<path d="M24 14V16C21.7909 16 20 17.7909 20 20V22H3C2.44772 22 2 21.5523 2 21V14H12V16H14V14H24Z" fill="black"/>
</svg>