<svg viewBox="0 0 32 32" xmlns="http://www.w3.org/2000/svg">
<path fill-rule="evenodd" clip-rule="evenodd" d="M12 16.0001C12 14.0671 13.567 12.5001 15.5 12.5001H16C18.2091 12.5001 20 14.2909 20 16.5001V17.0001H20.5C22.1569 17.0001 23.5 18.3432 23.5 20.0001C23.5 21.6569 22.1569 23.0001 20.5 23.0001H11.5C9.84315 23.0001 8.5 21.6569 8.5 20.0001V19.0001C8.5 17.3432 9.84315 16.0001 11.5 16.0001H12ZM18 19.0001V16.5001C18 15.3955 17.1046 14.5001 16 14.5001H15.5C14.6716 14.5001 14 15.1716 14 16.0001V18.0001H11.5C10.9477 18.0001 10.5 18.4478 10.5 19.0001V20.0001C10.5 20.5523 10.9477 21.0001 11.5 21.0001H20.5C21.0523 21.0001 21.5 20.5523 21.5 20.0001C21.5 19.4478 21.0523 19.0001 20.5 19.0001H18Z" fill="black"/>
<path fill-rule="evenodd" clip-rule="evenodd" d="M28 5H4C2.9 5 2 5.9 2 7V25C2 26.1 2.9 27 4 27H28C29.1 27 30 26.1 30 25V7C30 5.9 29.1 5 28 5ZM28 7V9H4V7H28ZM4 25V11H28V25H4Z" fill="black"/>
</svg>