<svg viewBox="0 0 32 32" xmlns="http://www.w3.org/2000/svg">
<path fill-rule="evenodd" clip-rule="evenodd" d="M12 16C12 14.067 13.567 12.5 15.5 12.5H16C18.2091 12.5 20 14.2909 20 16.5V17H20.5C22.1569 17 23.5 18.3431 23.5 20C23.5 21.6569 22.1569 23 20.5 23H11.5C9.84315 23 8.5 21.6569 8.5 20V19C8.5 17.3431 9.84315 16 11.5 16H12ZM18 19V16.5C18 15.3954 17.1046 14.5 16 14.5H15.5C14.6716 14.5 14 15.1716 14 16V18H11.5C10.9477 18 10.5 18.4477 10.5 19V20C10.5 20.5523 10.9477 21 11.5 21H20.5C21.0523 21 21.5 20.5523 21.5 20C21.5 19.4477 21.0523 19 20.5 19H18Z" fill="black"/>
<path fill-rule="evenodd" clip-rule="evenodd" d="M28 5H4C2.9 5 2 5.9 2 7V25.32C2 26.25 2.83 27 3.86 27H28C29.1 27 30 26.19 30 25.19V7C30 5.9 29.1 5 28 5ZM4 25V10H28V25H4Z" fill="black"/>
</svg>