<svg viewBox="0 0 32 32" xmlns="http://www.w3.org/2000/svg">
<path d="M4 2H28C29.1 2 30 2.9 30 4V22.19L29.23 21.27C29.08 21.1 29 20.87 29 20.64C28.95 18.91 28.6 18.21 28 17.14V7H4V22H13.07C13.16 22.7 13.33 23.37 13.59 24H3.86C2.83 24 2 23.25 2 22.32V4C2 2.9 2.9 2 4 2Z" fill="black"/>
<path fill-rule="evenodd" clip-rule="evenodd" d="M21 15C24.31 15 27 17.69 27 21L26.99 21.01C26.99 22.3 26.58 23.5 25.88 24.48L29.7 28.3L28.29 29.71L24.47 25.89C23.49 26.58 22.29 27 21 27C17.69 27 15 24.31 15 21C15 17.69 17.69 15 21 15ZM21 17C18.79 17 17 18.79 17 21C17 23.21 18.79 25 21 25C23.21 25 25 23.21 25 21C25 18.79 23.21 17 21 17Z" fill="black"/>
</svg>