<svg viewBox="0 0 32 32" xmlns="http://www.w3.org/2000/svg">
<path d="M28 5H4C2.9 5 2 5.9 2 7V25C2 26.1 2.9 27 4 27H28C29.1 27 30 26.1 30 25V7C30 5.9 29.1 5 28 5ZM28 7V10H4V7H28ZM4 25V12H28V25H4Z"/>
<path d="M6 14H8V16H6V14Z"/>
<path d="M8 14H10V16H8V14Z"/>
<path d="M6 20H8V21H6V20Z"/>
<path d="M13 14H19V16H13V14Z"/>
<path d="M13 21H19V23H13V21Z"/>
<path d="M8 21H10V23H8V21Z"/>
<path d="M22 14H24V16H22V14Z"/>
<path d="M22 21H24V23H22V21Z"/>
<path d="M24 14H26V16H24V14Z"/>
<path d="M6 16H8V17H6V16Z"/>
<path d="M24 16H26V17H24V16Z"/>
<path d="M24 20H26V21H24V20Z"/>
<path d="M6 21H8V23H6V21Z"/>
<path d="M24 21H26V23H24V21Z"/>
</svg>