<svg viewBox="0 0 32 32" xmlns="http://www.w3.org/2000/svg">
<path d="M8.91009 18.5L11.7101 21.29L10.2901 22.71L6.09009 18.5L10.2901 14.29L11.7101 15.71L8.91009 18.5Z" fill="black"/>
<path d="M16.0359 14.7233L14.0391 21.7241L15.9624 22.2727L17.9592 15.2719L16.0359 14.7233Z" fill="black"/>
<path d="M25.91 18.5L21.71 22.71L20.29 21.29L23.09 18.5L20.29 15.71L21.71 14.29L25.91 18.5Z" fill="black"/>
<path fill-rule="evenodd" clip-rule="evenodd" d="M4 5H28C29.1 5 30 5.9 30 7V25.19C30 26.19 29.1 27 28 27H3.86C2.83 27 2 26.25 2 25.32V7C2 5.9 2.9 5 4 5ZM4 25H28V10H4V25Z" fill="black"/>
</svg>