<svg viewBox="0 0 32 32" xmlns="http://www.w3.org/2000/svg">
<path d="M28 5H4C2.9 5 2 5.9 2 7V25C2 26.1 2.9 27 4 27H28C29.1 27 30 26.1 30 25V7C30 5.9 29.1 5 28 5ZM28 7V10H4V7H28ZM4 25V12H28V25H4Z"/>
<path fill-rule="evenodd" clip-rule="evenodd" d="M6 16.6147C6 15.6942 6.74619 14.948 7.66667 14.948H11.3333C12.2538 14.948 13 15.6942 13 16.6147V20.2813C13 21.2018 12.2538 21.948 11.3333 21.948H7.66667C6.74619 21.948 6 21.2018 6 20.2813V16.6147ZM8 16.948V19.948H11V16.948H8Z"/>
<path fill-rule="evenodd" clip-rule="evenodd" d="M18.9688 18.448C18.9688 16.515 20.5358 14.948 22.4688 14.948C24.4017 14.948 25.9688 16.515 25.9688 18.448C25.9688 20.381 24.4017 21.948 22.4688 21.948C20.5358 21.948 18.9688 20.381 18.9688 18.448ZM22.4688 16.948C21.6403 16.948 20.9688 17.6196 20.9688 18.448C20.9688 19.2764 21.6403 19.948 22.4688 19.948C23.2972 19.948 23.9688 19.2764 23.9688 18.448C23.9688 17.6196 23.2972 16.948 22.4688 16.948Z"/>
<path fill-rule="evenodd" clip-rule="evenodd" d="M15.7903 14.3035L19.9068 18.5449L15.7039 22.7103L14.2961 21.2897L16.0704 19.5312H12V17.5312H16.1359L14.3551 15.6965L15.7903 14.3035Z"/>
</svg>