<svg viewBox="0 0 32 32" xmlns="http://www.w3.org/2000/svg">
<path fill-rule="evenodd" clip-rule="evenodd" d="M4 2H28C29.1 2 30 2.9 30 4V16H28V9H4V22H13V24H4C2.9 24 2 23.1 2 22V4C2 2.9 2.9 2 4 2ZM4 4V7H28V4H4Z"/>
<path fill-rule="evenodd" clip-rule="evenodd" d="M25.89 24.47L29.71 28.29L28.29 29.71L24.47 25.89C23.49 26.58 22.29 27 21 27C17.69 27 15 24.31 15 21C15 17.69 17.69 15 21 15C24.31 15 27 17.69 27 21C27 22.29 26.59 23.49 25.89 24.47ZM21 17C18.79 17 17 18.79 17 21C17 23.21 18.79 25 21 25C23.21 25 25 23.21 25 21C25 18.79 23.21 17 21 17Z"/>
</svg>