<svg viewBox="0 0 32 32" xmlns="http://www.w3.org/2000/svg">
<path fill-rule="evenodd" clip-rule="evenodd" d="M6 15.6147C6 14.6942 6.74619 13.948 7.66667 13.948H11.3333C12.2538 13.948 13 14.6942 13 15.6147V19.2813C13 20.2018 12.2538 20.948 11.3333 20.948H7.66667C6.74619 20.948 6 20.2018 6 19.2813V15.6147ZM8 15.948V18.948H11V15.948H8Z" fill="black"/>
<path fill-rule="evenodd" clip-rule="evenodd" d="M18.9688 17.448C18.9688 15.515 20.5358 13.948 22.4688 13.948C24.4017 13.948 25.9688 15.515 25.9688 17.448C25.9688 19.381 24.4017 20.948 22.4688 20.948C20.5358 20.948 18.9688 19.381 18.9688 17.448ZM22.4688 15.948C21.6403 15.948 20.9688 16.6196 20.9688 17.448C20.9688 18.2764 21.6403 18.948 22.4688 18.948C23.2972 18.948 23.9688 18.2764 23.9688 17.448C23.9688 16.6196 23.2972 15.948 22.4688 15.948Z" fill="black"/>
<path fill-rule="evenodd" clip-rule="evenodd" d="M15.7903 13.3035L19.9068 17.5449L15.7039 21.7103L14.2961 20.2897L16.0704 18.5312H12V16.5312H16.1359L14.3551 14.6965L15.7903 13.3035Z" fill="black"/>
<path d="M28 5H4C2.9 5 2 5.9 2 7V25C2 26.1 2.9 27 4 27H28C29.1 27 30 26.1 30 25V7C30 5.9 29.1 5 28 5ZM4 25V10H28V25H4Z" fill="black"/>
</svg>