<svg viewBox="0 0 32 32" xmlns="http://www.w3.org/2000/svg">
<path d="M12.5852 6.88798C12.0578 5.81456 11.4121 4.76318 10.7032 3.91931C10.2708 3.40451 9.79223 2.93972 9.27741 2.59715C8.76561 2.2566 8.16141 2 7.5 2V4C7.63859 4 7.85939 4.0559 8.16947 4.26222C8.47652 4.46653 8.81672 4.78299 9.1718 5.20569C9.82909 5.98818 10.4597 7.04146 10.965 8.13703C9.96708 9.16999 9.28416 10.5092 9.07091 11.9999L8.5 11.9999L22.9291 12C22.6923 10.3443 21.876 8.87547 20.6924 7.80554C21.1684 6.83079 21.7375 5.9089 22.3282 5.20569C22.6833 4.78299 23.0235 4.46653 23.3305 4.26222C23.6406 4.0559 23.8614 4 24 4V2C23.3386 2 22.7344 2.2566 22.2226 2.59715C21.7078 2.93972 21.2292 3.40451 20.7968 3.91931C20.1334 4.70912 19.5252 5.68071 19.0176 6.68201C18.1039 6.24482 17.0805 6 16 6C14.76 6 13.5953 6.32241 12.5852 6.88798Z" fill="black"/>
<path d="M6 9H4V15.618L8.07143 17.6537C8.04216 18.3557 8.01972 19.1014 8.00832 19.8778L4 21.882V29.5H6V23.118L8.05799 22.089C8.53589 26.546 11.9094 29.9999 16 29.9999C20.0906 29.9999 23.4641 26.546 23.942 22.089L26 23.118V29.5H28V21.882L23.9917 19.8778C23.9803 19.1014 23.9578 18.3557 23.9286 17.6538L28 15.618V9H26V14.382L23.8104 15.4768C23.7738 14.9308 23.7355 14.4351 23.6987 14H8.30127C8.26448 14.4351 8.22615 14.9308 8.18964 15.4768L6 14.382V9Z" fill="black"/>
</svg>