<svg viewBox="0 0 32 32" xmlns="http://www.w3.org/2000/svg">
<path fill-rule="evenodd" clip-rule="evenodd" d="M12.5547 6.82608C12.033 5.77419 11.3984 4.74695 10.7032 3.91931C10.2708 3.40451 9.79223 2.93972 9.27741 2.59715C8.76561 2.2566 8.16141 2 7.5 2V4C7.63859 4 7.85939 4.0559 8.16947 4.26222C8.47652 4.46653 8.81672 4.78299 9.1718 5.20569C9.81766 5.97457 10.4378 7.0049 10.9385 8.0799C10.018 9.15152 9.55724 10.5205 9.28111 12H8.71922L8.52986 12.7575C8.47094 12.9931 8.34263 13.5647 8.22704 14.4955L6 13.382V8H4V14.618L8.04652 16.6413C8.01758 17.2268 8 17.8791 8 18.6C8 18.86 8.00461 19.1185 8.01388 19.375L4 21.382V29H6V22.618L8.20746 21.5143C8.48767 23.3992 9.05482 25.1132 9.92764 26.506C11.2573 28.6278 13.3056 30 16 30C18.6944 30 20.7427 28.6278 22.0724 26.506C22.9452 25.1132 23.5123 23.3992 23.7925 21.5143L26 22.618V29H28V21.382L23.9861 19.375C23.9954 19.1185 24 18.86 24 18.6C24 17.8844 23.9816 17.2315 23.9516 16.6423L28 14.618V8H26V13.382L23.7687 14.4976C23.6543 13.575 23.5286 12.9911 23.4701 12.7575L23.2808 12H22.7203C22.4137 10.3578 21.8783 8.83931 20.7317 7.7255C21.1996 6.78041 21.7537 5.88962 22.3282 5.20569C22.6833 4.78299 23.0235 4.46653 23.3305 4.26222C23.6406 4.0559 23.8614 4 24 4V2C23.3386 2 22.7344 2.2566 22.2226 2.59715C21.7078 2.93972 21.2292 3.40451 20.7968 3.91931C20.1627 4.67422 19.579 5.59521 19.0854 6.54948C18.9106 6.4561 18.7289 6.37184 18.5357 6.30007C17.9457 6.08094 17.3153 6 16.5 6C15.2053 6 13.7669 6.23395 12.5547 6.82608ZM18.9255 8.81853C18.4189 8.46388 18.1408 8.28691 17.8393 8.17493C17.5543 8.06906 17.1847 8 16.5 8C15.2232 8 13.9426 8.27608 13.0584 8.83005C12.1615 9.47689 11.6473 10.4873 11.3211 12H20.6803C20.3515 10.475 19.8322 9.45675 18.9255 8.81853ZM10.3187 14C10.1784 14.843 10 16.3555 10 18.6C10 21.3813 10.5784 23.778 11.6224 25.444C12.6427 27.0722 14.0944 28 16 28C17.9056 28 19.3573 27.0722 20.3776 25.444C21.4216 23.778 22 21.3813 22 18.6C22 16.4048 21.8186 14.8612 21.6779 14H10.3187Z"/>
</svg>