<svg viewBox="0 0 32 32" xmlns="http://www.w3.org/2000/svg">
<path d="M20 18C20 20.2091 18.2091 22 16 22C13.7909 22 12 20.2091 12 18C12 15.7909 13.7909 14 16 14C18.2091 14 20 15.7909 20 18Z" fill="black"/>
<path fill-rule="evenodd" clip-rule="evenodd" d="M23 8H29C29.55 8 30 8.45 30 9V27C30 27.55 29.55 28 29 28H3C2.45 28 2 27.55 2 27V9C2 8.45 2.45 8 3 8H9L9.81 4.76C9.92 4.31 10.32 4 10.78 4H21.22C21.68 4 22.08 4.31 22.19 4.76L23 8ZM10 18C10 21.36 12.64 24 16 24C19.31 24 22 21.25 22 18C22 14.75 19.31 12 16 12C12.69 12 10 14.64 10 18Z" fill="black"/>
</svg>