<svg viewBox="0 0 32 32" xmlns="http://www.w3.org/2000/svg">
<path fill-rule="evenodd" clip-rule="evenodd" d="M10 18C10 14.69 12.69 12 16 12C19.25 12 22 14.69 22 18C22 21.31 19.36 24 16 24C12.64 24 10 21.31 10 18ZM12 18C12 20.24 13.76 22 16 22C18.21 22 20 20.13 20 18C20 15.87 18.21 14 16 14C13.79 14 12 15.76 12 18Z"/>
<path fill-rule="evenodd" clip-rule="evenodd" d="M22.78 8H28C29.1 8 30 8.9 30 10V26C30 27.1 29.1 28 28 28H4C2.9 28 2 27.1 2 26V10C2 8.9 2.9 8 4 8H9.22L9.84 5.52C10.06 4.62 10.86 4 11.78 4H20.22C21.14 4 21.94 4.63 22.16 5.52L22.78 8ZM4 10V26H28V10H21.22L20.22 6H11.78L10.78 10H4Z"/>
</svg>