<svg viewBox="0 0 32 32" xmlns="http://www.w3.org/2000/svg">
<path fill-rule="evenodd" clip-rule="evenodd" d="M6.11449 10.4211C3.60574 12.4372 2 15.5311 2 19V23H23.4615C27.0726 23 30 20.0726 30 16.4615C30 15.6544 29.3456 15 28.5385 15H23.2498C21.6499 10.9035 17.6652 8 13 8C11.4482 8 9.97148 8.32133 8.6327 8.90107C8.32014 8.59481 7.83055 8.52037 7.43304 8.74988L6.56701 9.24988C6.15172 9.48965 5.97347 9.98233 6.11449 10.4211ZM22.9731 17C21.3708 18.6583 19.5057 20.0055 17.4724 21H23.4615C25.7859 21 27.7021 19.2527 27.9684 17H22.9731Z" fill="black"/>
</svg>