<svg viewBox="0 0 32 32" xmlns="http://www.w3.org/2000/svg">
<path fill-rule="evenodd" clip-rule="evenodd" d="M3 19H2C2 15.5311 3.60575 12.4371 6.11451 10.421C5.97351 9.98231 6.15176 9.48965 6.56705 9.24989L7.43307 8.74989C7.83058 8.52039 8.32015 8.59481 8.63272 8.90106C9.97149 8.32132 11.4482 8 13 8C17.6652 8 21.6499 10.9035 23.2498 15H28.5385C29.3456 15 30 15.6544 30 16.4615C30 20.0726 27.0726 23 23.4615 23H2V20H4C4 19.4477 3.55228 19 3 19ZM4.17245 17.2378C4.99169 13.1109 8.63255 10 13 10C16.8241 10 20.0933 12.3856 21.3964 15.7519C18.084 19.1042 13.5611 21 8.83202 21H6V20C6 18.7592 5.24669 17.6943 4.17245 17.2378ZM22.9731 17C21.3708 18.6583 19.5057 20.0055 17.4724 21H23.4615C25.7859 21 27.7021 19.2527 27.9684 17H22.9731Z" fill="black"/>
</svg>