<svg viewBox="0 0 32 32" xmlns="http://www.w3.org/2000/svg">
<path fill-rule="evenodd" clip-rule="evenodd" d="M10 24H22V25C22 26.6569 23.3431 28 25 28C26.6569 28 28 26.6569 28 25V24C29.1046 24 30 23.1046 30 22V14C30 12.8954 29.1046 12 28 12H27.4142L28.4142 11H30V9H27.5858L26.5172 10.0686L25.3787 5.51493C25.1561 4.62459 24.3562 4 23.4384 4H8.56155C7.64382 4 6.84385 4.62459 6.62127 5.51493L5.48284 10.0686L4.41421 9H2V11H3.58579L4.58579 12H4C2.89543 12 2 12.8954 2 14V22C2 23.1046 2.89543 24 4 24L4 25C4 26.6569 5.34315 28 7 28C8.65685 28 10 26.6569 10 25V24ZM8.56155 6H23.4384L24.9384 12H7.06155L8.56155 6ZM24 25V24H26V25C26 25.5523 25.5523 26 25 26C24.4477 26 24 25.5523 24 25ZM6 24V25C6 25.5523 6.44772 26 7 26C7.55228 26 8 25.5523 8 25V24H6ZM8 17C8 17.5523 7.55228 18 7 18C6.44772 18 6 17.5523 6 17C6 16.4477 6.44772 16 7 16C7.55228 16 8 16.4477 8 17ZM20 18H12V20H20V18ZM26 17C26 17.5523 25.5523 18 25 18C24.4477 18 24 17.5523 24 17C24 16.4477 24.4477 16 25 16C25.5523 16 26 16.4477 26 17Z" fill="black"/>
</svg>