<svg viewBox="0 0 32 32" xmlns="http://www.w3.org/2000/svg">
<path d="M20 18H12V20H20V18Z"/>
<path d="M8 17C8 17.5523 7.55228 18 7 18C6.44772 18 6 17.5523 6 17C6 16.4477 6.44772 16 7 16C7.55228 16 8 16.4477 8 17Z"/>
<path d="M25 18C25.5523 18 26 17.5523 26 17C26 16.4477 25.5523 16 25 16C24.4477 16 24 16.4477 24 17C24 17.5523 24.4477 18 25 18Z"/>
<path fill-rule="evenodd" clip-rule="evenodd" d="M22 24H10V25C10 26.6569 8.65685 28 7 28C5.34315 28 4 26.6569 4 25L4 24C2.89543 24 2 23.1046 2 22V14C2 12.8954 2.89543 12 4 12H4.58579L3.58579 11H2V9H4.41421L5.48284 10.0686L6.62127 5.51493C6.84385 4.62459 7.64382 4 8.56155 4H23.4384C24.3562 4 25.1561 4.62459 25.3787 5.51493L26.5172 10.0686L27.5858 9H30V11H28.4142L27.4142 12H28C29.1046 12 30 12.8954 30 14V22C30 23.1046 29.1046 24 28 24V25C28 26.6569 26.6569 28 25 28C23.3431 28 22 26.6569 22 25V24ZM23.4384 6H8.56155L7.06155 12H24.9384L23.4384 6ZM28 14V22H4V14H28ZM24 24V25C24 25.5523 24.4477 26 25 26C25.5523 26 26 25.5523 26 25V24H24ZM6 25V24H8V25C8 25.5523 7.55228 26 7 26C6.44772 26 6 25.5523 6 25Z"/>
</svg>