<svg viewBox="0 0 32 32" xmlns="http://www.w3.org/2000/svg">
<path fill-rule="evenodd" clip-rule="evenodd" d="M10 10.0417C10 9.29009 10.4213 8.60197 11.0908 8.26029L15.0908 6.21863C15.6619 5.92712 16.3381 5.92712 16.9092 6.21863L20.9092 8.26029C21.5787 8.60197 22 9.29009 22 10.0417V14.7373C22 15.4112 21.6607 16.0397 21.0973 16.4094L17.0973 19.0344C16.4311 19.4716 15.5689 19.4716 14.9027 19.0344L10.9027 16.4094C10.3393 16.0397 10 15.4112 10 14.7373V10.0417ZM15.9999 10.6363L18.6091 9.3317L16 8L13.3909 9.33173L15.9999 10.6363ZM17 12.3723L20 10.8723V14.7373L17 16.7061V12.3723ZM15 12.3723L12 10.8723V14.7373L15 16.7061V12.3723Z" fill="black"/>
<path d="M22 25H14V23H22V25Z" fill="black"/>
<path d="M10 25H12V23H10V25Z" fill="black"/>
<path fill-rule="evenodd" clip-rule="evenodd" d="M6 4C6 2.89543 6.89543 2 8 2H24C25.1046 2 26 2.89543 26 4V28C26 29.1046 25.1046 30 24 30H8C6.89543 30 6 29.1046 6 28V4ZM8 4H24V28H8V4Z" fill="black"/>
<path d="M3 4C1.89543 4 1 4.89543 1 6V26C1 27.1046 1.89543 28 3 28H4V26H3V6L4 6V4H3Z" fill="black"/>
<path d="M31 6C31 4.89543 30.1046 4 29 4H28V6L29 6V26H28V28H29C30.1046 28 31 27.1046 31 26V6Z" fill="black"/>
</svg>