<svg viewBox="0 0 32 32" xmlns="http://www.w3.org/2000/svg">
<path d="M22 25H14V23H22V25Z" fill="black"/>
<path d="M10 25H12V23H10V25Z" fill="black"/>
<path d="M17.3846 15H14.6154C12.0677 15 10 16.24 10 19V20H22V19C22 16.24 19.9323 15 17.3846 15Z" fill="black"/>
<path d="M16 6.66663C14.6193 6.66663 13.5 7.78591 13.5 9.16662V10.8333C13.5 12.214 14.6193 13.3333 16 13.3333C17.3807 13.3333 18.5 12.214 18.5 10.8333V9.16663C18.5 7.78591 17.3807 6.66663 16 6.66663Z" fill="black"/>
<path fill-rule="evenodd" clip-rule="evenodd" d="M8 2C6.89543 2 6 2.89543 6 4V28C6 29.1046 6.89543 30 8 30H24C25.1046 30 26 29.1046 26 28V4C26 2.89543 25.1046 2 24 2H8ZM24 4H8V28H24V4Z" fill="black"/>
<path d="M1 6C1 4.89543 1.89543 4 3 4H4V6L3 6V26H4V28H3C1.89543 28 1 27.1046 1 26V6Z" fill="black"/>
<path d="M29 4C30.1046 4 31 4.89543 31 6V26C31 27.1046 30.1046 28 29 28H28V26H29V6L28 6V4H29Z" fill="black"/>
</svg>