<svg viewBox="0 0 32 32" xmlns="http://www.w3.org/2000/svg">
<path d="M22 25H14V23H22V25Z" fill="black"/>
<path d="M10 25H12V23H10V25Z" fill="black"/>
<path d="M17.3846 15H14.6154C12.0677 15 10 16.24 10 19V20H11.8462V19C11.8462 17.35 13.0923 17 14.6154 17H17.3846C18.9077 17 20.1538 17.35 20.1538 19V20H22V19C22 16.24 19.9323 15 17.3846 15Z" fill="black"/>
<path fill-rule="evenodd" clip-rule="evenodd" d="M19.5 10.6C19.5 12.47 17.98 14 16.1 14C14.23 14 12.7 12.47 12.7 10.6V9.4C12.7 7.53 14.23 6 16.1 6C17.97 6 19.5 7.53 19.5 9.4V10.6ZM16.1 8C15.33 8 14.7 8.63 14.7 9.4V10.6C14.7 11.37 15.33 12 16.1 12C16.87 12 17.5 11.37 17.5 10.6V9.4C17.5 8.63 16.87 8 16.1 8Z" fill="black"/>
<path fill-rule="evenodd" clip-rule="evenodd" d="M8 2C6.89543 2 6 2.89543 6 4V28C6 29.1046 6.89543 30 8 30H24C25.1046 30 26 29.1046 26 28V4C26 2.89543 25.1046 2 24 2H8ZM24 4H8V28H24V4Z" fill="black"/>
<path d="M1 6C1 4.89543 1.89543 4 3 4H4V6L3 6V26H4V28H3C1.89543 28 1 27.1046 1 26V6Z" fill="black"/>
<path d="M29 4C30.1046 4 31 4.89543 31 6V26C31 27.1046 30.1046 28 29 28H28V26H29V6L28 6V4H29Z" fill="black"/>
</svg>