<svg viewBox="0 0 32 32" xmlns="http://www.w3.org/2000/svg">
<path d="M14 25H22V23H14V25Z" fill="black"/>
<path d="M12 25H10V23H12V25Z" fill="black"/>
<path d="M16.4482 6.4999C16.1522 6.34053 15.796 6.34053 15.5 6.4999L10.5 8.9999L16 11.4999L21.5 8.9999L16.4482 6.4999Z" fill="black"/>
<path d="M10.5 15.9256C10.5 16.2813 10.6889 16.6102 10.9961 16.7894L15.0039 19.1363V13.1363L10.5 11V15.9256Z" fill="black"/>
<path d="M21.5 15.9256C21.5 16.2813 21.3111 16.6102 21.0039 16.7894L16.9961 19.1362V13.1362L21.5 11V15.9256Z" fill="black"/>
<path fill-rule="evenodd" clip-rule="evenodd" d="M6 4C6 2.89543 6.89543 2 8 2H24C25.1046 2 26 2.89543 26 4V28C26 29.1046 25.1046 30 24 30H8C6.89543 30 6 29.1046 6 28V4ZM8 4H24V28H8V4Z" fill="black"/>
<path d="M3 4C1.89543 4 1 4.89543 1 6V26C1 27.1046 1.89543 28 3 28H4V26H3V6L4 6V4H3Z" fill="black"/>
<path d="M31 6C31 4.89543 30.1046 4 29 4H28V6L29 6V26H28V28H29C30.1046 28 31 27.1046 31 26V6Z" fill="black"/>
</svg>