<svg viewBox="0 0 32 32" xmlns="http://www.w3.org/2000/svg">
<path d="M20 13.99V15H22V14H22.42C23.79 14 25 12.83 25 11.49V9.94001C25 8.76001 24.13 7.73001 22.97 7.52001C22.64 7.46001 22.04 7.38001 21.47 7.29001C20.85 7.20001 20.25 7.12001 20.03 7.07001C19.83 7.03001 19.6 6.78001 19.6 6.58001V5.52001C19.6 5.24001 19.84 5.01001 20.11 5.01001H22.03C22.31 5.01001 22.54 5.25001 22.54 5.52001V6.26001H24.54V5.52001C24.54 4.13001 23.41 3.01001 22.03 3.01001H21.99V2.01001H19.99V3.02001C18.66 3.08001 17.59 4.18001 17.59 5.52001V6.58001C17.59 7.74001 18.5 8.82001 19.62 9.03001C19.83 9.08001 20.49 9.17001 21.17 9.27001C21.72 9.35001 22.29 9.43001 22.61 9.49001C22.83 9.53001 22.99 9.76001 22.99 9.94001V11.49C22.99 11.7 22.7 12 22.41 12H20.1C19.82 12 19.59 11.76 19.59 11.49V10.75H17.59V11.49C17.59 12.84 18.66 13.93 19.99 13.99H20Z" fill="black"/>
<path d="M4 12H2V30H4V12Z" fill="black"/>
<path d="M28 8.00001H27V10H28V22H15C15.17 21.65 15.53 21.29 15.7 20.91L20.33 20.12C21.3 19.96 22 19.13 22 18.15V18C22 16.9 21.1 16 20 16H12V10H17.01V8.00001H12C10.9 8.00001 10 8.90001 10 10V12H10.01C8.64 12 7.19 12.37 6.6 12.99L5.99 13.64V27.83C8.49 27.54 12.39 26.34 13.99 24H27.99C29.09 24 29.99 23.1 29.99 22V10C29.99 8.90001 29.09 8.00001 27.99 8.00001H28Z" fill="black"/>
</svg>