<svg viewBox="0 0 32 32" xmlns="http://www.w3.org/2000/svg">
<path fill-rule="evenodd" clip-rule="evenodd" d="M19 6C17.37 6 16 7.37 16 9C16 10.63 17.37 12 19 12C20.63 12 22 10.63 22 9C22 7.37 20.63 6 19 6ZM19 10C18.49 10 18 9.51 18 9C18 8.49 18.49 8 19 8C19.51 8 20 8.49 20 9C20 9.51 19.51 10 19 10Z"/>
<path fill-rule="evenodd" clip-rule="evenodd" d="M28 2H10C8.9 2 8 2.9 8 4V14C8 15.1 8.9 16 10 16H28C29.1 16 30 15.1 30 14V4C30 2.9 29.1 2 28 2ZM10 14V4H28V14H10Z"/>
<path fill-rule="evenodd" clip-rule="evenodd" d="M18.64 22H28V22.01C29.1 22.01 30 22.91 30 24.01V25.13C30 26.13 29.25 26.99 28.25 27.11L13.01 29.01L4 28.11V30H2V16H4V18H17.5C18.33 18 19 18.67 19 19.5V20.87C19 21.29 18.86 21.68 18.64 22ZM12.99 27L28 25.12V24.01H11V23.01L10.82 22.03L17 20.88V20.01H4V26.1L12.99 27Z"/>
</svg>