<svg viewBox="0 0 32 32" xmlns="http://www.w3.org/2000/svg">
<path fill-rule="evenodd" clip-rule="evenodd" d="M29 2H9C8.45 2 8 2.45 8 3V15C8 15.55 8.45 16 9 16H29C29.55 16 30 15.55 30 15V3C30 2.45 29.55 2 29 2ZM19 12C17.37 12 16 10.63 16 9C16 7.37 17.37 6 19 6C20.63 6 22 7.37 22 9C22 10.63 20.63 12 19 12Z" fill="black"/>
<path d="M3.7601 15.95H1.8501V29.95H3.7601V15.95Z" fill="black"/>
<path d="M11.8498 22.9499H27.8498C28.9498 22.9499 29.8498 23.8499 29.8498 24.9499V25.0699C29.8498 26.0699 29.0998 26.9299 28.0998 27.0499L12.8598 28.9499L5.75977 28.2399V17.9399H17.3498C18.1798 17.9399 18.8498 18.6099 18.8498 19.4399V19.8099C18.8498 20.7799 18.1698 21.5999 17.2198 21.7799L11.8498 22.7799V22.9499Z" fill="black"/>
</svg>