<svg viewBox="0 0 32 32" xmlns="http://www.w3.org/2000/svg">
<path d="M28 8.00001H27V10H28V22H11.19C11.36 21.65 11.53 21.29 11.7 20.91L17.33 20.12C18.3 19.96 19 19.13 19 18.15V17C19 15.9 18.1 15 17 15H10V10H16.01V8.00001H10C8.9 8.00001 8 8.90001 8 10V12H7.01C5.64 12 5.19 12.37 4.6 12.99L3.99 13.64V12H2V30H4V27.83C6.5 27.54 8.43 26.34 10.03 24H28C29.1 24 30 23.1 30 22V10C30 8.90001 29.1 8.00001 28 8.00001ZM4 25.82V16.56L5.82 14.6L6.05 14.36C6.39 14 6.4 13.99 7.01 13.99H8V16.99H17L17.03 18.14L10.3 19.08L10.08 19.61C8.16 24.29 6.05 25.52 4 25.81V25.82Z"/>
<path d="M20 13.99V15H22V14H22.42C23.79 14 25 12.83 25 11.49V9.94001C25 8.76001 24.13 7.73001 22.97 7.52001C22.64 7.46001 22.04 7.38001 21.47 7.29001C20.85 7.20001 20.25 7.12001 20.03 7.07001C19.83 7.03001 19.6 6.78001 19.6 6.58001V5.52001C19.6 5.24001 19.84 5.01001 20.11 5.01001H22.03C22.31 5.01001 22.54 5.25001 22.54 5.52001V6.26001H24.54V5.52001C24.54 4.13001 23.41 3.01001 22.03 3.01001H21.99V2.01001H19.99V3.02001C18.66 3.08001 17.59 4.18001 17.59 5.52001V6.58001C17.59 7.74001 18.5 8.82001 19.62 9.03001C19.83 9.08001 20.49 9.17001 21.17 9.27001C21.72 9.35001 22.29 9.43001 22.61 9.49001C22.83 9.53001 22.99 9.76001 22.99 9.94001V11.49C22.99 11.7 22.7 12 22.41 12H20.1C19.82 12 19.59 11.76 19.59 11.49V10.75H17.59V11.49C17.59 12.84 18.66 13.93 19.99 13.99H20Z"/>
</svg>