<svg viewBox="0 0 32 32" xmlns="http://www.w3.org/2000/svg">
<path fill-rule="evenodd" clip-rule="evenodd" d="M5.99997 4L11 9H21L26 4L28.5177 19.7361C29.2955 24.5968 25.5407 29 20.6182 29H11.3817C6.45923 29 2.70449 24.5967 3.4822 19.7361L5.99997 4ZM9.99997 19C10.8284 19 11.5 18.3284 11.5 17.5C11.5 16.6716 10.8284 16 9.99997 16C9.17154 16 8.49997 16.6716 8.49997 17.5C8.49997 18.3284 9.17154 19 9.99997 19ZM22 19C22.8284 19 23.5 18.3284 23.5 17.5C23.5 16.6716 22.8284 16 22 16C21.1715 16 20.5 16.6716 20.5 17.5C20.5 18.3284 21.1715 19 22 19ZM17.0841 21.576L18.4472 20.8944L17.5528 19.1056L16 19.882L14.4472 19.1056L13.5528 20.8944L14.9158 21.576C14.6685 22.3998 13.9043 23 13 23V25C14.1947 25 15.267 24.4762 16 23.6458C16.7329 24.4762 17.8053 25 19 25V23C18.0956 23 17.3315 22.3998 17.0841 21.576Z" fill="black"/>
</svg>