<svg viewBox="0 0 32 32" xmlns="http://www.w3.org/2000/svg">
<path fill-rule="evenodd" clip-rule="evenodd" d="M11 9L5.99997 4L3.4822 19.7361C2.70449 24.5967 6.45923 29 11.3817 29H20.6182C25.5407 29 29.2955 24.5968 28.5177 19.7361L26 4L21 9H11ZM24.644 8.18437L21.8284 11H10.1715L7.35591 8.18437L5.45708 20.0521C4.8738 23.6976 7.68985 27 11.3817 27H20.6182C24.3101 27 27.1261 23.6976 26.5429 20.0521L24.644 8.18437Z"/>
<path d="M11.5 17.5C11.5 18.3284 10.8284 19 9.99997 19C9.17154 19 8.49997 18.3284 8.49997 17.5C8.49997 16.6716 9.17154 16 9.99997 16C10.8284 16 11.5 16.6716 11.5 17.5Z"/>
<path d="M23.5 17.5C23.5 18.3284 22.8284 19 22 19C21.1715 19 20.5 18.3284 20.5 17.5C20.5 16.6716 21.1715 16 22 16C22.8284 16 23.5 16.6716 23.5 17.5Z"/>
<path fill-rule="evenodd" clip-rule="evenodd" d="M18.4472 20.8944L16 22.118L13.5528 20.8944L14.4472 19.1056L16 19.882L17.5528 19.1056L18.4472 20.8944Z"/>
<path fill-rule="evenodd" clip-rule="evenodd" d="M17 21C17 22.1046 17.8954 23 19 23V25C16.7908 25 15 23.2091 15 21H17Z"/>
<path fill-rule="evenodd" clip-rule="evenodd" d="M15 21C15 22.1046 14.1045 23 13 23V25C15.2091 25 17 23.2091 17 21H15Z"/>
</svg>