<svg viewBox="0 0 32 32" xmlns="http://www.w3.org/2000/svg">
<path fill-rule="evenodd" clip-rule="evenodd" d="M16 11C13.24 11 11 13.24 11 16C11 18.76 13.24 21 16 21C18.76 21 21 18.76 21 16C21 13.24 18.76 11 16 11ZM16 19C14.35 19 13 17.65 13 16C13 14.35 14.35 13 16 13C17.65 13 19 14.35 19 16C19 17.65 17.65 19 16 19Z"/>
<path d="M18.73 8.4801L19.41 6.6001C22.57 7.7501 24.93 10.3801 25.72 13.6501L23.78 14.1201C23.15 11.5101 21.26 9.4001 18.73 8.4801Z"/>
<path fill-rule="evenodd" clip-rule="evenodd" d="M16 2C8.28 2 2 8.28 2 16C2 23.72 8.28 30 16 30C23.72 30 30 23.72 30 16C30 8.28 23.72 2 16 2ZM16 28C9.38 28 4 22.62 4 16C4 9.38 9.38 4 16 4C22.62 4 28 9.38 28 16C28 22.62 22.62 28 16 28Z"/>
</svg>