<svg viewBox="0 0 32 32" xmlns="http://www.w3.org/2000/svg">
<path fill-rule="evenodd" clip-rule="evenodd" d="M20.0142 9.99995V7.00005L18 7L18.0071 13.994L25.0071 13.994L25.0071 11.9858L22.0071 12H21.4076C24.3104 9.5909 29 11.5793 29 15.6205V16.2967C29 20.8214 23.3915 22.9288 20.4119 19.5236L13.0932 11.1593C8.89759 6.36431 1 9.33171 1 15.7032V16.3794C1 22.2225 7.85788 25.0637 11.9949 21.4351L11.9929 21.9942L11.9929 24.9941L14.0071 24.9941L14 18.0001L7 18.0001L7 20.0083L10 19.9941H10.5993C7.69706 22.4122 3 20.4238 3 16.3794V15.7032C3 11.1784 8.60851 9.07113 11.5881 12.4763L18.9068 20.8406C23.1024 25.6356 31 22.6682 31 16.2967V15.6205C31 9.78074 24.1499 6.93942 20.0122 10.5586L20.0142 9.99995ZM11.993 19.9941L12 19.9999L12 19.9941H11.993Z" fill="black"/>
</svg>