<svg viewBox="0 0 32 32" xmlns="http://www.w3.org/2000/svg">
<path fill-rule="evenodd" clip-rule="evenodd" d="M29.7335 18.7323L27.7715 18.3441C27.9212 17.5876 28 16.804 28 16C28 15.196 27.9212 14.4124 27.7715 13.6559L29.7335 13.2677C29.9083 14.1514 30 15.065 30 16C30 16.935 29.9083 17.8486 29.7335 18.7323ZM27.6419 8.22138L25.98 9.33402C25.1033 8.02454 23.9755 6.8967 22.666 6.02002L23.7786 4.35808C25.3053 5.3802 26.6198 6.69466 27.6419 8.22138ZM18.7323 2.26648L18.3441 4.22845C17.5876 4.07879 16.804 4 16 4C15.196 4 14.4124 4.07879 13.6559 4.22845L13.2677 2.26648C14.1514 2.09166 15.065 2 16 2C16.935 2 17.8486 2.09166 18.7323 2.26648ZM8.22138 4.35808L9.33402 6.02002C8.02454 6.8967 6.8967 8.02454 6.02002 9.33402L4.35808 8.22138C5.3802 6.69466 6.69466 5.3802 8.22138 4.35808ZM2.26648 13.2677C2.09166 14.1514 2 15.065 2 16C2 16.935 2.09166 17.8486 2.26648 18.7323L4.22845 18.3441C4.07879 17.5876 4 16.804 4 16C4 15.196 4.07879 14.4124 4.22845 13.6559L2.26648 13.2677ZM4.35808 23.7786L6.02002 22.666C6.8967 23.9755 8.02454 25.1033 9.33402 25.98L8.22138 27.6419C6.69466 26.6198 5.3802 25.3053 4.35808 23.7786ZM13.2677 29.7335L13.6559 27.7715C14.4124 27.9212 15.196 28 16 28C16.804 28 17.5876 27.9212 18.3441 27.7715L18.7323 29.7335C17.8486 29.9083 16.935 30 16 30C15.065 30 14.1514 29.9083 13.2677 29.7335ZM23.7786 27.6419L22.666 25.98C23.9755 25.1033 25.1033 23.9755 25.98 22.666L27.6419 23.7786C26.6198 25.3053 25.3053 26.6198 23.7786 27.6419Z"/>
</svg>