<svg viewBox="0 0 32 32" xmlns="http://www.w3.org/2000/svg">
<path fill-rule="evenodd" clip-rule="evenodd" d="M17 8V10.083C19.1684 10.4467 20.9423 11.9735 21.6586 14H23V16H22V19H29V21H28V30H4V21H3V19H10V16H9V14H10.3414C11.0577 11.9735 12.8316 10.4467 15 10.083V3C15 2.44771 15.4477 2 16 2C16.5523 2 17 2.44771 17 3H22V8H17ZM12 19V16H20V19H12ZM10 21L10 28H14V24C14 22.8954 14.8954 22 16 22C17.1046 22 18 22.8954 18 24V28H22V21H10ZM24 21V28H26V21H24ZM6 21H8L8 28H6V21ZM16 12C17.4806 12 18.7733 12.8044 19.4649 14H12.5351C13.2267 12.8044 14.5194 12 16 12ZM17 6H20V5H17V6Z"/>
</svg>