<svg viewBox="0 0 32 32" xmlns="http://www.w3.org/2000/svg">
<path fill-rule="evenodd" clip-rule="evenodd" d="M17 7V8.08296C19.1684 8.44674 20.9423 9.97354 21.6586 12H23V14H22V17H10V14H9V12H10.3414C11.0577 9.97354 12.8316 8.44674 15 8.08296V2C15 1.44771 15.4477 1 16 1C16.5523 1 17 1.44771 17 2H22V7H17ZM17 5H20V4H17V5ZM19.4649 12C18.7733 10.8044 17.4806 10 16 10C14.5195 10 13.2268 10.8044 12.5352 12H19.4649Z" fill="black"/>
<path fill-rule="evenodd" clip-rule="evenodd" d="M3 19H29V20.917H28V29.917H4V20.917H3V19ZM14 27.917V23.917C14 22.8125 14.8954 21.917 16 21.917C17.1046 21.917 18 22.8125 18 23.917V27.917H14ZM22 20.917V27.917H24V20.917H22ZM8 20.917H10L10 27.917H8V20.917Z" fill="black"/>
</svg>