<svg viewBox="0 0 32 32" xmlns="http://www.w3.org/2000/svg">
<path fill-rule="evenodd" clip-rule="evenodd" d="M9 5C9 3.89543 9.89543 3 11 3H17C18.1046 3 19 3.89543 19 5H22C23.1023 5 24 5.89772 24 7V16H22V7H19C19 8.10457 18.1046 9 17 9H11C9.89543 9 9 8.10457 9 7H6V27H17V29H6C4.89772 29 4 28.1023 4 27V7C4 5.89772 4.89772 5 6 5H9ZM17 5H11V7H17V5Z" fill="black"/>
<path fill-rule="evenodd" clip-rule="evenodd" d="M12.453 22.9687L14 24L15.547 22.9687C18.329 21.114 20 17.9917 20 14.6482V14.1532C20 13.4645 19.5593 12.8531 18.906 12.6353L14 11L9.09404 12.6353C8.44069 12.8531 8 13.4645 8 14.1532V14.6482C8 17.9917 9.67101 21.114 12.453 22.9687ZM14 13.1082L18 14.4415V14.6482C18 17.323 16.6632 19.8208 14.4376 21.3046L14 21.5963L13.5624 21.3046C11.3368 19.8208 10 17.323 10 14.6482V14.4415L14 13.1082Z" fill="black"/>
<path fill-rule="evenodd" clip-rule="evenodd" d="M27.31 25.8957C27.7471 25.202 28 24.3805 28 23.5C28 21.0147 25.9853 19 23.5 19C21.0147 19 19 21.0147 19 23.5C19 25.9853 21.0147 28 23.5 28C24.3805 28 25.202 27.7471 25.8957 27.31L27.8284 29.2426L29.2426 27.8284L27.31 25.8957ZM23.5 26C24.8807 26 26 24.8807 26 23.5C26 22.1193 24.8807 21 23.5 21C22.1193 21 21 22.1193 21 23.5C21 24.8807 22.1193 26 23.5 26Z" fill="black"/>
</svg>