<svg viewBox="0 0 32 32" xmlns="http://www.w3.org/2000/svg">
<path fill-rule="evenodd" clip-rule="evenodd" d="M11 5C11 3.89543 11.8954 3 13 3H19C20.1046 3 21 3.89543 21 5H24C25.1023 5 26 5.89772 26 7V17H24V7H21C21 8.10457 20.1046 9 19 9H13C11.8954 9 11 8.10457 11 7H8V27H23V29H8C6.89772 29 6 28.1023 6 27V7C6 5.89772 6.89772 5 8 5H11ZM19 5H13V7H19V5Z" fill="black"/>
<path fill-rule="evenodd" clip-rule="evenodd" d="M16 24L14.453 22.9687C11.671 21.114 10 17.9917 10 14.6482V14.1532C10 13.4645 10.4407 12.8531 11.094 12.6353L16 11L20.906 12.6353C21.5593 12.8531 22 13.4645 22 14.1532V14.6482C22 17.9917 20.329 21.114 17.547 22.9687L16 24ZM20 14.4415L16 13.1082L12 14.4415V14.6482C12 17.323 13.3368 19.8208 15.5624 21.3046L16 21.5963L16.4376 21.3046C18.6632 19.8208 20 17.323 20 14.6482V14.4415Z" fill="black"/>
<path d="M28 20H26V26H28V20Z" fill="black"/>
<path d="M26 28H28V30H26V28Z" fill="black"/>
</svg>