<svg viewBox="0 0 32 32" xmlns="http://www.w3.org/2000/svg">
<path fill-rule="evenodd" clip-rule="evenodd" d="M10 5C10 3.89543 10.8954 3 12 3H18C19.1046 3 20 3.89543 20 5H23C24.1023 5 25 5.89772 25 7V17H23V7H20C20 8.10457 19.1046 9 18 9H12C10.8954 9 10 8.10457 10 7H7V27H23V29H7C5.89772 29 5 28.1023 5 27V7C5 5.89772 5.89772 5 7 5H10ZM18 5H12V7H18V5Z" fill="black"/>
<path d="M28 20H26V26H28V20Z" fill="black"/>
<path d="M26 28H28V30H26V28Z" fill="black"/>
<path d="M10.1818 13.1173C9.77446 13.254 9.5 13.6357 9.5 14.0653V14.4766C9.5 17.8087 11.1597 20.9219 13.9262 22.7791L15 23.5L16.0738 22.7791C18.8403 20.9219 20.5 17.8087 20.5 14.4766V14.0653C20.5 13.6357 20.2255 13.254 19.8182 13.1173L15 11.5L10.1818 13.1173Z" fill="black"/>
</svg>