<svg viewBox="0 0 32 32" xmlns="http://www.w3.org/2000/svg">
<path fill-rule="evenodd" clip-rule="evenodd" d="M9 5C9 3.89543 9.89543 3 11 3H17C18.1046 3 19 3.89543 19 5H22C23.1023 5 24 5.89772 24 7V16H22V7H19C19 8.10457 18.1046 9 17 9H11C9.89543 9 9 8.10457 9 7H6V27H17V29H6C4.89772 29 4 28.1023 4 27V7C4 5.89772 4.89772 5 6 5H9ZM17 5H11V7H17V5Z" fill="black"/>
<path d="M9.18178 13.1173C8.77446 13.254 8.5 13.6357 8.5 14.0653V14.4766C8.5 17.8087 10.1597 20.9219 12.9262 22.7791L14 23.5L15.0738 22.7791C17.8403 20.9219 19.5 17.8087 19.5 14.4766V14.0653C19.5 13.6357 19.2255 13.254 18.8182 13.1173L14 11.5L9.18178 13.1173Z" fill="black"/>
<path fill-rule="evenodd" clip-rule="evenodd" d="M27.31 25.8957C27.7471 25.202 28 24.3805 28 23.5C28 21.0147 25.9853 19 23.5 19C21.0147 19 19 21.0147 19 23.5C19 25.9853 21.0147 28 23.5 28C24.3805 28 25.202 27.7471 25.8957 27.31L27.8284 29.2426L29.2426 27.8284L27.31 25.8957ZM23.5 26C24.8807 26 26 24.8807 26 23.5C26 22.1193 24.8807 21 23.5 21C22.1193 21 21 22.1193 21 23.5C21 24.8807 22.1193 26 23.5 26Z" fill="black"/>
</svg>