<svg viewBox="0 0 32 32" xmlns="http://www.w3.org/2000/svg">
<path fill-rule="evenodd" clip-rule="evenodd" d="M3 9C3 7.34315 4.34315 6 6 6H26C27.6569 6 29 7.34315 29 9V23C29 24.6569 27.6569 26 26 26H6C4.34315 26 3 24.6569 3 23V9ZM14.5 22H11C9.34314 22 8 20.6569 8 19L8 13C8 11.3431 9.34314 9.99999 11 9.99999L13.5 9.99999V12L11 12C10.4477 12 10 12.4477 10 13L10 19C10 19.5523 10.4477 20 11 20H14.5V22ZM20.5 22H24V20H20.5C19.9477 20 19.5 19.5523 19.5 19V13C19.5 12.4477 19.9477 12 20.5 12L23 12V9.99999L20.5 9.99999C18.8431 9.99999 17.5 11.3431 17.5 13L17.5 19C17.5 20.6569 18.8431 22 20.5 22Z" fill="black"/>
</svg>