<svg viewBox="0 0 32 32" xmlns="http://www.w3.org/2000/svg">
<path d="M24 22H20.5C18.8431 22 17.5 20.6569 17.5 19L17.5 13C17.5 11.3431 18.8431 9.99999 20.5 9.99999L23 9.99999V12L20.5 12C19.9477 12 19.5 12.4477 19.5 13V19C19.5 19.5523 19.9477 20 20.5 20H24V22Z"/>
<path d="M14.5 22H11C9.34315 22 8 20.6569 8 19L8 13C8 11.3431 9.34315 10 11 10L13.5 10V12L11 12C10.4477 12 10 12.4477 10 13L10 19C10 19.5523 10.4477 20 11 20H14.5V22Z"/>
<path fill-rule="evenodd" clip-rule="evenodd" d="M3 9C3 7.34315 4.34315 6 6 6H26C27.6569 6 29 7.34315 29 9V23C29 24.6569 27.6569 26 26 26H6C4.34315 26 3 24.6569 3 23V9ZM6 8H26C26.5523 8 27 8.44772 27 9V23C27 23.5523 26.5523 24 26 24H6C5.44772 24 5 23.5523 5 23V9C5 8.44772 5.44771 8 6 8Z"/>
</svg>