<svg viewBox="0 0 32 32" xmlns="http://www.w3.org/2000/svg">
<path fill-rule="evenodd" clip-rule="evenodd" d="M21.96 8.62004L28.29 2.29004L29.71 3.71004L3.71 29.69L2.3 28.28L5.27 25.31C3.32 24.3 2 22.27 2 19.99V17.99C2 14.68 4.69 11.99 8 11.99C8 8.68004 10.69 5.99004 14 5.99004H17C19.04 5.99004 20.87 7.00004 21.96 8.62004ZM4 18V20C4 21.74 5.16 23.28 6.78 23.8L20.5 10.09C19.81 8.83004 18.47 8.00004 17 8.00004H14C11.79 8.00004 10 9.79004 10 12V14H8C5.79 14 4 15.79 4 18Z"/>
<path d="M22 14H23.79L23.78 14.01C26.96 14.01 29.68 16.38 29.97 19.42C30.13 21.11 29.57 22.79 28.44 24.04C27.31 25.28 25.69 26 24 26H11.63V24H24.01C25.13 24 26.21 23.52 26.97 22.69C27.74 21.84 28.1 20.75 27.99 19.6C27.79 17.58 25.95 16 23.79 16H22V14Z"/>
</svg>