<svg viewBox="0 0 32 32" xmlns="http://www.w3.org/2000/svg">
<path d="M20.91 12.36C19.49 12.36 18.16 13.12 17.45 14.35L17.46 14.36L13 22.01H8C4.69 22.01 2 19.32 2 16.01V14.01C2 10.7 4.69 8.01001 8 8.01001C8 4.70001 10.69 2.01001 14 2.01001H17C20.31 2.01001 23 4.70001 23 8.01001V10.01H23.79C26.97 10.01 29.69 12.38 29.98 15.42C30.14 17.11 29.58 18.79 28.45 20.04C28.29 20.2 28.13 20.36 27.96 20.51L24.37 14.35C23.65 13.12 22.33 12.36 20.91 12.36Z" fill="black"/>
<path d="M21 27C21.5523 27 22 26.5523 22 26C22 25.4477 21.5523 25 21 25C20.4477 25 20 25.4477 20 26C20 26.5523 20.4477 27 21 27Z" fill="black"/>
<path d="M19.9161 23.959L20.0878 19.9627L22.086 20.0485L21.9143 24.0448L19.9161 23.959Z" fill="black"/>
<path fill-rule="evenodd" clip-rule="evenodd" d="M12.14 29.1701C12.44 29.6901 12.98 30.0001 13.57 30.0001H28.25C28.85 30.0001 29.38 29.6901 29.68 29.1701C29.99 28.6401 29.99 27.9701 29.68 27.4401L22.64 15.3601C22.28 14.7401 21.63 14.3701 20.91 14.3701C20.19 14.3701 19.54 14.7401 19.18 15.3601L12.14 27.4401C11.83 27.9701 11.83 28.6301 12.14 29.1701ZM27.69 28.0001H14.13L20.91 16.3601L27.69 28.0001Z" fill="black"/>
</svg>