<svg viewBox="0 0 32 32" xmlns="http://www.w3.org/2000/svg">
<path d="M29.97 15.41C29.68 12.37 26.96 10 23.78 10H22.99V8C22.99 4.69 20.3 2 16.99 2H13.99C10.68 2 7.98999 4.69 7.98999 8C4.67999 8 1.98999 10.69 1.98999 14V16C1.98999 18.84 4.00999 21.31 6.77999 21.88L7.17999 19.92C5.32999 19.54 3.98999 17.89 3.98999 16V14C3.98999 11.79 5.77999 10 7.98999 10H9.98999V8C9.98999 5.79 11.78 4 13.99 4H16.99C19.2 4 20.99 5.79 20.99 8V12H23.78C25.94 12 27.78 13.58 27.98 15.6C28.07 16.54 27.84 17.45 27.32 18.22L28.98 19.34C29.76 18.18 30.1 16.82 29.97 15.41Z"/>
<path d="M16.29 19.2901L17.71 20.7101L20 18.4101V30.0001H22V18.4101L24.29 20.7101L25.71 19.2901L21 14.5901L16.29 19.2901Z"/>
<path d="M13 15V26.59L15.29 24.29L16.71 25.71L12 30.41L7.29004 25.71L8.71004 24.29L11 26.59V15H13Z"/>
</svg>