<svg viewBox="0 0 32 32" xmlns="http://www.w3.org/2000/svg">
<path d="M23.79 12C26.97 12 29.69 14.37 29.98 17.41L29.99 17.42C30.15 19.11 29.59 20.79 28.46 22.04C27.33 23.28 25.71 24 24.02 24H19.01V22.71C19.01 22.16 19.46 21.71 20.01 21.71H20.3C20.81 21.71 21.32 21.51 21.71 21.12L23.12 19.71C23.9 18.93 23.9 17.66 23.12 16.88L17.41 11.17C17.02 10.78 16.51 10.58 16 10.58C15.49 10.58 14.98 10.78 14.59 11.17L8.88 16.88C8.1 17.66 8.1 18.93 8.88 19.71L10.29 21.12C10.68 21.51 11.19 21.71 11.7 21.71H11.99C12.54 21.71 12.99 22.16 12.99 22.71V24H8C4.69 24 2 21.31 2 18V16C2 12.69 4.69 10 8 10C8 6.69 10.69 4 14 4H17C20.31 4 23 6.69 23 10V12H23.79Z" fill="black"/>
<path d="M16 12.5901L21.71 18.2901L20.29 19.7101L17 16.4101V28.0001H15V16.4101L11.71 19.7101L10.29 18.2901L16 12.5901Z" fill="black"/>
</svg>