<svg viewBox="0 0 32 32" xmlns="http://www.w3.org/2000/svg">
<path d="M23.78 10C26.96 10 29.68 12.37 29.97 15.41L29.95 15.42C30.11 17.11 29.55 18.79 28.42 20.04C27.29 21.28 25.67 22 23.98 22H21.81L21.69 21.88C21.3 21.49 20.79 21.29 20.28 21.29C20.0983 21.29 19.929 21.3509 19.7723 21.4073C19.5322 21.4936 19.3215 21.5694 19.14 21.4C18.97 21.24 18.99 20.62 18.99 20.62V15C18.99 13.9 18.09 13 16.99 13H14.99C13.89 13 13 13.9 13 15V20.57C13 20.57 13.05 21.34 12.86 21.45C12.6424 21.5709 12.4467 21.5018 12.2133 21.4194C12.0606 21.3655 11.8917 21.3058 11.69 21.29C11.18 21.25 10.67 21.49 10.28 21.88L10.16 22H7.98999C4.67999 22 1.98999 19.31 1.98999 16V14C1.98999 10.69 4.67999 8 7.98999 8C7.98999 4.69 10.68 2 13.99 2H16.99C20.3 2 22.99 4.69 22.99 8V10H23.78Z" fill="black"/>
<path d="M17 26.59L20.29 23.29L21.71 24.71L16 30.41L10.29 24.71L11.71 23.29L15 26.59V15H17V26.59Z" fill="black"/>
</svg>