<svg viewBox="0 0 32 32" xmlns="http://www.w3.org/2000/svg">
<path d="M24 26H8C4.69 26 2 23.31 2 20V18C2 14.69 4.69 12 8 12C8 8.69 10.69 6 14 6H17C20.31 6 23 8.69 23 12V14H23.79C26.97 14 29.69 16.38 29.98 19.41C30.14 21.1 29.58 22.78 28.45 24.03C27.31 25.28 25.7 25.99 24.01 25.99L24 26ZM8 14C5.79 14 4 15.79 4 18V20C4 22.21 5.79 24 8 24H24C25.12 24 26.2 23.52 26.96 22.69C27.73 21.85 28.09 20.75 27.98 19.6C27.79 17.58 25.94 16 23.78 16H20.99V12C20.99 9.79 19.2 8 16.99 8H13.99C11.78 8 9.99 9.79 9.99 12V14H7.99H8Z"/>
</svg>