<svg viewBox="0 0 32 32" xmlns="http://www.w3.org/2000/svg">
<path d="M8.01 10.01H10.01V8.01C10.01 5.8 11.8 4.01 14.01 4.01H17.01C19.22 4.01 21.01 5.8 21.01 8.01V12.01H24.01C25.94 12.01 27.53 12.93 28.07 14.36L29.94 13.65C29.1 11.44 26.77 10 24 10H23V8C23 4.69 20.31 2 17 2H14C10.69 2 8 4.69 8 8C4.69 8 2 10.69 2 14V16C2 19.31 4.69 22 8 22H14.01V20H8.01C5.8 20 4.01 18.21 4.01 16V14C4.01 11.79 5.8 10 8.01 10V10.01Z" fill="black"/>
<path d="M18.7546 18L29.6643 18L29.0289 20.8119H21.4449L20.7259 24.1447H17.4343L18.7546 18Z" fill="black"/>
<path d="M15 28.7679L25.9097 28.7679L27.23 22.6233L23.9384 22.6233L23.2194 25.956H15.5926L15 28.7679Z" fill="black"/>
</svg>