<svg viewBox="0 0 32 32" xmlns="http://www.w3.org/2000/svg">
<path d="M10 10H8C5.79 10 4 11.79 4 14V16C4 18.21 5.79 20 8 20H14V22H8C4.69 22 2 19.31 2 16V14C2 10.69 4.69 8 8 8C8 4.69 10.69 2 14 2H17C20.31 2 23 4.69 23 8V10H24C26.9 10 29.42 12.02 29.98 14.8L28.02 15.2C27.65 13.38 25.92 12 24 12H21V8C21 5.79 19.21 4 17 4H14C11.79 4 10 5.79 10 8V10Z"/>
<path fill-rule="evenodd" clip-rule="evenodd" d="M16 23C16 19.14 19.14 16 23 16C26.86 16 30 19.14 30 23C30 26.86 26.86 30 23 30C19.14 30 16 26.86 16 23ZM23 18C20.24 18 18 20.24 18 23L18.01 22.99C18.01 24.07 18.36 25.06 18.94 25.88L25.89 18.93C25.07 18.35 24.08 18 23 18ZM20.4 27.25C21.16 27.72 22.04 28 23 28C25.76 28 28 25.76 28 23C28 22.05 27.72 21.16 27.25 20.4L20.4 27.25Z"/>
</svg>