<svg viewBox="0 0 32 32" xmlns="http://www.w3.org/2000/svg">
<path d="M10 10H8C5.79 10 4 11.79 4 14V16C4 18.21 5.79 20 8 20H16V22H8C4.69 22 2 19.31 2 16V14C2 10.69 4.69 8 8 8C8 4.69 10.69 2 14 2H17C20.31 2 23 4.69 23 8V10H24C27.53 10 30 12.47 30 16H28C28 13.57 26.43 12 24 12H21V8C21 5.79 19.21 4 17 4H14C11.79 4 10 5.79 10 8V10Z" fill="black"/>
<path fill-rule="evenodd" clip-rule="evenodd" d="M21.9389 18.1967C21.1044 17.6641 20 18.2659 20 19.2625V28.7437C20 29.7816 21.1183 30.2798 21.9037 29.8305L21.9152 29.8239L29.7105 25.0848C30.5829 24.5837 30.4938 23.3976 29.7243 22.9298L21.9389 18.1967ZM22 27.4317L27.6397 24.0031L22 20.5744V27.4317Z" fill="black"/>
</svg>