<svg viewBox="0 0 32 32" xmlns="http://www.w3.org/2000/svg">
<path d="M10 10H8C5.79 10 4 11.79 4 14V16C4 18.21 5.79 20 8 20H14V22H8C4.69 22 2 19.31 2 16V14C2 10.69 4.69 8 8 8C8 4.69 10.69 2 14 2H17C20.31 2 23 4.69 23 8V10H24C27.53 10 30 12.47 30 16H28C28 13.57 26.43 12 24 12H21V8C21 5.79 19.21 4 17 4H14C11.79 4 10 5.79 10 8V10Z"/>
<path fill-rule="evenodd" clip-rule="evenodd" d="M22 16C25.31 16 28 18.69 28 22L27.99 22.01C27.99 23.3 27.58 24.5 26.88 25.48L30.2 28.8L28.79 30.21L25.47 26.89C24.49 27.58 23.29 28 22 28C18.69 28 16 25.31 16 22C16 18.69 18.69 16 22 16ZM22 18C19.79 18 18 19.79 18 22C18 24.21 19.79 26 22 26C24.21 26 26 24.21 26 22C26 19.79 24.21 18 22 18Z"/>
</svg>