<svg viewBox="0 0 32 32" xmlns="http://www.w3.org/2000/svg">
<path d="M8 22H14V20H8C5.79 20 4 18.21 4 16V14C4 11.79 5.79 10 8 10H10V8C10 5.79 11.79 4 14 4H17C19.21 4 21 5.79 21 8V12H24C26.43 12 28 13.57 28 16H30C30 12.47 27.53 10 24 10H23V8C23 4.69 20.31 2 17 2H14C10.69 2 8 4.69 8 8C4.69 8 2 10.69 2 14V16C2 19.31 4.69 22 8 22Z"/>
<path fill-rule="evenodd" clip-rule="evenodd" d="M27.73 21.4C27.9 21.9 28 22.44 28 23C28 23.56 27.89 24.09 27.72 24.59L29.51 25.63L28.5 27.36L26.71 26.32C26.01 27.11 25.07 27.68 24 27.9V30H22V27.9C20.93 27.69 19.99 27.12 19.29 26.33L17.51 27.37L16.5 25.64L18.28 24.6C18.11 24.1 18.01 23.56 18.01 23C18.01 22.44 18.12 21.91 18.29 21.41L16.5 20.37L17.51 18.64L19.3 19.68C20 18.89 20.94 18.32 22.01 18.1V16H24.01V18.1C25.08 18.31 26.02 18.88 26.72 19.67L28.5 18.63L29.51 20.36L27.73 21.4ZM20 23C20 24.66 21.34 26 23 26C24.66 26 26 24.66 26 23C26 21.34 24.66 20 23 20C21.34 20 20 21.34 20 23Z"/>
</svg>