<svg viewBox="0 0 32 32" xmlns="http://www.w3.org/2000/svg">
<path d="M23.78 10C26.96 10 29.68 12.37 29.97 15.41V15.42C30.13 17.11 29.57 18.79 28.44 20.04C27.31 21.28 25.69 22 24 22H21V20H24C25.12 20 26.2 19.52 26.96 18.69C27.73 17.84 28.09 16.75 27.98 15.6C27.78 13.58 25.94 12 23.78 12H20.99V8C20.99 5.79 19.2 4 16.99 4H13.99C11.78 4 9.98999 5.79 9.98999 8V10H7.98999C5.77999 10 3.98999 11.79 3.98999 14V16C3.98999 18.21 5.77999 20 7.98999 20H10.99V22H7.98999C4.67999 22 1.98999 19.31 1.98999 16V14C1.98999 10.69 4.67999 8 7.98999 8C7.98999 4.69 10.68 2 13.99 2H16.99C20.3 2 22.99 4.69 22.99 8V10H23.78Z"/>
<path d="M17 15V26.59L20.29 23.29L21.71 24.71L16 30.41L10.29 24.71L11.71 23.29L15 26.59V15H17Z"/>
</svg>