<svg viewBox="0 0 32 32" xmlns="http://www.w3.org/2000/svg">
<path d="M27.59 15.26C26.21 14.44 24.63 14 23 14H22.99C18.37 14 14.55 17.51 14.05 22H7.98999C4.67999 22 1.98999 19.31 1.98999 16V14C1.98999 10.69 4.67999 8 7.98999 8C7.98999 4.69 10.68 2 13.99 2H16.99C20.3 2 22.99 4.69 22.99 8V10H23.78C26.41 10 28.71 11.63 29.6 13.9C29.62 13.95 29.66 14.06 29.66 14.06C29.66 14.06 29.39 14.39 28.83 15.04C28.54 15.38 27.97 15.49 27.59 15.26Z" fill="black"/>
<path d="M28.24 18.38L29.58 17.04C29.74 16.89 30.01 17 30.01 17.22V21.75C30.01 21.89 29.9 22 29.76 22H25.23C25 22 24.89 21.73 25.05 21.57L26.83 19.79C25.89 18.66 24.5 18 23 18C20.24 18 18 20.24 18 23C18 25.76 20.24 28 23 28C25.14 28 27.04 26.64 27.73 24.62L29.62 25.27C28.65 28.1 25.99 30 23 30C19.14 30 16 26.86 16 23C16 19.14 19.14 16 23 16C25.03 16 26.92 16.88 28.24 18.38Z" fill="black"/>
</svg>