<svg viewBox="0 0 32 32" xmlns="http://www.w3.org/2000/svg">
<path d="M29.98 16.41C29.69 13.37 26.97 11 23.79 11H23V9C23 5.69 20.31 3 17 3H14C10.69 3 8 5.69 8 9C4.69 9 2 11.69 2 15V17C2 20.31 4.69 23 8 23H10.5V21H8C5.79 21 4 19.21 4 17V15C4 12.79 5.79 11 8 11H10V9C10 6.79 11.79 5 14 5H17C19.21 5 21 6.79 21 9V13H23.79C25.95 13 27.79 14.58 27.99 16.6C28.0077 16.7848 28.0132 16.9681 28.0069 17.1491C28.0053 17.1943 27.9999 17.2844 27.9999 17.2844L29.98 17.5582C29.98 17.5582 29.9892 17.4544 29.9927 17.4023C30.015 17.0773 30.0111 16.7488 29.98 16.42V16.41Z" fill="black"/>
<path d="M23.2404 24.7863H23.5872C24.0502 24.7863 24.4188 24.6331 24.4188 24.1441C24.4188 23.6705 24.0502 23.518 23.5872 23.518H23.2404V24.7863Z" fill="black"/>
<path d="M19.3501 25.6036C19.4989 25.6596 19.6711 25.6931 19.8546 25.6931C20.0339 25.6931 20.2021 25.6606 20.3495 25.6079L19.8603 24.0282H19.8496L19.3501 25.6036Z" fill="black"/>
<path fill-rule="evenodd" clip-rule="evenodd" d="M14 28.9144V21H30L22.0856 28.9144H14ZM21.9204 22.4876H23.4953L23.4951 22.4892C25.0006 22.4892 25.7078 23.0254 25.7078 24.1945C25.7078 25.2449 24.9796 25.8708 23.75 25.8708H23.2408V27.3838H20.9073L20.6763 26.6602C20.4295 26.7415 20.1506 26.786 19.855 26.786C19.552 26.786 19.2658 26.7383 19.0145 26.6533L18.7743 27.3838H17.3441L17.5017 26.9603L17.4439 27.0108C17.0873 27.2973 16.6411 27.455 16.0886 27.4657H16.0065C15.3715 27.4657 14.7494 27.2907 14.2238 26.9915L14.7102 26.0251C15.2373 26.3366 15.5683 26.4061 16.0145 26.3972C16.246 26.392 16.4133 26.3501 16.5222 26.237C16.5883 26.1693 16.6224 26.0835 16.626 25.9921C16.6301 25.741 16.2729 25.6232 15.8354 25.4883C15.4808 25.3771 15.0793 25.2287 14.7645 24.998C14.3926 24.7241 14.2149 24.3816 14.2238 23.899C14.2297 23.5467 14.36 23.2302 14.6008 22.98C14.9472 22.6223 15.5057 22.4038 16.176 22.4038H16.1795C16.7541 22.4051 17.4564 22.5676 17.9633 22.8265L17.4161 23.7796C16.8607 23.511 16.5809 23.4854 16.2636 23.4693C15.793 23.4442 15.5544 23.6125 15.5508 23.7939C15.5467 24.0157 15.9976 24.2161 16.4212 24.3524C17.0638 24.5561 17.8813 24.8293 18.0055 25.6184L19.181 22.4876H20.5446L21.9204 26.2323V22.4876Z" fill="black"/>
<path fill-rule="evenodd" clip-rule="evenodd" d="M24.2416 28.1053V28.6956H24.3307V28.4394H24.4309L24.5925 28.6956H24.6927L24.52 28.4394C24.6063 28.4287 24.676 28.3785 24.676 28.2723C24.676 28.156 24.6048 28.1053 24.4644 28.1053H24.2416ZM24.3307 28.1832H24.4532C24.5135 28.1832 24.5813 28.193 24.5813 28.2667C24.5813 28.3589 24.5126 28.367 24.4365 28.367H24.3307V28.1832Z" fill="black"/>
<path fill-rule="evenodd" clip-rule="evenodd" d="M24.4421 27.888C24.1595 27.888 23.9186 28.1058 23.9186 28.4004C23.9186 28.6971 24.1594 28.9183 24.4421 28.9183C24.7208 28.9183 24.9545 28.6972 24.9545 28.4004C24.9545 28.1058 24.7208 27.888 24.4421 27.888ZM24.4421 27.9716C24.6727 27.9716 24.8542 28.1579 24.8542 28.4004C24.8542 28.6471 24.6727 28.8292 24.4421 28.8292C24.2076 28.8292 24.0188 28.6471 24.0188 28.4004C24.0188 28.1579 24.2076 27.9716 24.4421 27.9716Z" fill="black"/>
</svg>