<svg viewBox="0 0 32 32" xmlns="http://www.w3.org/2000/svg">
<path d="M14.77 19.35C14.5 19.81 14.42 20.36 14.56 20.87C14.68 21.34 15 22 15 22H8C4.69 22 2 19.31 2 16V14C2 10.69 4.69 8 8 8C8 4.69 10.69 2 14 2H17C20.31 2 23 4.69 23 8V10H23.79C26.97 10 29.69 12.37 29.98 15.41C30.06 16.18 29.93 16.89 29.93 16.89C29.93 16.89 29.01 16.63 28.5 16.63C28.15 16.63 27.81 16.72 27.49 16.9C27.49 16.9 27.13 17.09 26.95 17.09C26.76 17.09 26.66 17.09 26.38 16.92C26.1307 16.7686 26.1034 16.7045 26.0651 16.6146C26.0604 16.6035 26.0555 16.5921 26.05 16.58C25.96 16.37 26 16 26 16C26 14.9 25.1 14 24 14H22C20.9 14 19.98 14.9 20 16C20.01 16.23 20.02 16.48 19.53 16.81C19.0519 17.132 18.7642 17.0065 18.5368 16.9073C18.5312 16.9049 18.5256 16.9024 18.52 16.9C18.18 16.75 17.85 16.63 17.51 16.63C16.82 16.63 16.15 16.98 15.78 17.62L14.77 19.35Z" fill="black"/>
<path fill-rule="evenodd" clip-rule="evenodd" d="M27.73 21.4C27.9 21.9 28 22.44 28 23C28 23.56 27.89 24.09 27.72 24.59L29.51 25.63L28.5 27.36L26.71 26.32C26.01 27.11 25.07 27.68 24 27.9V30H22V27.9C20.93 27.69 19.99 27.12 19.29 26.33L17.51 27.37L16.5 25.64L18.28 24.6C18.11 24.1 18.01 23.56 18.01 23C18.01 22.44 18.12 21.91 18.29 21.41L16.5 20.37L17.51 18.64L19.3 19.68C20 18.89 20.94 18.32 22.01 18.1V16H24.01V18.1C25.08 18.31 26.02 18.88 26.72 19.67L28.5 18.63L29.51 20.36L27.73 21.4ZM20 23C20 24.66 21.34 26 23 26C24.66 26 26 24.66 26 23C26 21.34 24.66 20 23 20C21.34 20 20 21.34 20 23Z" fill="black"/>
</svg>