<svg viewBox="0 0 32 32" xmlns="http://www.w3.org/2000/svg">
<path d="M29.97 15.41C29.68 12.37 26.96 10 23.78 10H22.99V8C22.99 4.69 20.3 2 16.99 2H13.99C10.68 2 7.98999 4.69 7.98999 8C4.67999 8 1.98999 10.69 1.98999 14V16C1.98999 19.31 4.67999 22 7.98999 22H18V18.6942C18 16.3853 20.4992 14.9418 22.4992 16.0957L28.7318 19.6914C29.6652 18.4867 30.1156 16.9575 29.97 15.42V15.41Z" fill="black"/>
<path fill-rule="evenodd" clip-rule="evenodd" d="M21.9389 18.1967C21.1044 17.6641 20 18.2659 20 19.2625V28.7437C20 29.7816 21.1183 30.2798 21.9037 29.8305L21.9152 29.8239L29.7105 25.0848C30.5829 24.5837 30.4938 23.3976 29.7243 22.9298L21.9389 18.1967ZM22 27.4317L27.6397 24.0031L22 20.5744V27.4317Z" fill="black"/>
</svg>