<svg viewBox="0 0 32 32" xmlns="http://www.w3.org/2000/svg">
<path d="M23 14C20.24 14 18 16.24 18 19H17.99C17.99 19 18.08 19.75 17.41 19.83C16.1459 19.8802 16.1363 21.1079 16.1315 21.7234C16.1305 21.8432 16.1298 21.9398 16.12 22H7.98999C4.67999 22 1.98999 19.31 1.98999 16V14C1.98999 10.69 4.67999 8 7.98999 8C7.98999 4.69 10.68 2 13.99 2H16.99C20.3 2 22.99 4.69 22.99 8V10H23.78C26.96 10 29.68 12.37 29.97 15.41C30 15.73 29.98 16.36 29.98 16.36C29.98 16.36 29.88 17.19 29.77 17.59C29.16 15.52 27.27 14 25 14H23Z" fill="black"/>
<path fill-rule="evenodd" clip-rule="evenodd" d="M28 19V21H29C29.55 21 30 21.45 30 22V29C30 29.55 29.55 30 29 30H19C18.45 30 18 29.55 18 29V22C18 21.45 18.45 21 19 21H20V19C20 17.34 21.34 16 23 16H25C26.66 16 28 17.34 28 19ZM23 18C22.45 18 22 18.45 22 19V21H26V19C26 18.45 25.55 18 25 18H23Z" fill="black"/>
</svg>