<svg viewBox="0 0 32 32" xmlns="http://www.w3.org/2000/svg">
<path d="M29.87 17.2C28.22 15.24 25.76 14 23 14L22.99 14.01C18.36 14.01 14.55 17.51 14.05 22.01H7.98999C4.67999 22.01 1.98999 19.32 1.98999 16.01V14.01C1.98999 10.7 4.67999 8.01001 7.98999 8.01001C7.98999 4.70001 10.68 2.01001 13.99 2.01001H16.99C20.3 2.01001 22.99 4.70001 22.99 8.01001V10.01H23.78C26.96 10.01 29.68 12.38 29.97 15.42C30.03 16.02 29.99 16.62 29.87 17.2Z" fill="black"/>
<path fill-rule="evenodd" clip-rule="evenodd" d="M16 23C16 19.14 19.14 16 23 16C26.86 16 30 19.14 30 23C30 26.86 26.86 30 23 30C19.14 30 16 26.86 16 23ZM23 18C20.24 18 18 20.24 18 23L18.01 22.99C18.01 24.07 18.36 25.06 18.94 25.88L25.89 18.93C25.07 18.35 24.08 18 23 18ZM20.4 27.25C21.16 27.72 22.04 28 23 28C25.76 28 28 25.76 28 23C28 22.05 27.72 21.16 27.25 20.4L20.4 27.25Z" fill="black"/>
</svg>