<svg viewBox="0 0 32 32" xmlns="http://www.w3.org/2000/svg">
<path d="M8 22H13V20H8C5.79 20 4 18.21 4 16V14C4 11.79 5.79 10 8 10H10V8C10 5.79 11.79 4 14 4H17C19.21 4 21 5.79 21 8V12H24C26.43 12 28 13.57 28 16H30C30 12.47 27.53 10 24 10H23V8C23 4.69 20.31 2 17 2H14C10.69 2 8 4.69 8 8C4.69 8 2 10.69 2 14V16C2 19.31 4.69 22 8 22Z"/>
<path d="M22 26C22 26.5523 21.5523 27 21 27C20.4477 27 20 26.5523 20 26C20 25.4477 20.4477 25 21 25C21.5523 25 22 25.4477 22 26Z"/>
<path d="M22 20H20V24H22V20Z"/>
<path fill-rule="evenodd" clip-rule="evenodd" d="M12.14 29.1701C12.44 29.6901 12.98 30.0001 13.57 30.0001H28.25C28.85 30.0001 29.38 29.6901 29.68 29.1701C29.99 28.6401 29.99 27.9701 29.68 27.4401L22.64 15.3601C22.28 14.7401 21.63 14.3701 20.91 14.3701C20.19 14.3701 19.54 14.7401 19.18 15.3601L12.14 27.4401C11.83 27.9701 11.83 28.6301 12.14 29.1701ZM27.69 28.0001H14.13L20.91 16.3601L27.69 28.0001Z"/>
</svg>