<svg viewBox="0 0 32 32" xmlns="http://www.w3.org/2000/svg">
<path d="M29.31 18.77C28.07 15.96 25.26 14 22 14H21.99C17.58 14 13.99 17.59 13.99 22H7.98999C4.67999 22 1.98999 19.31 1.98999 16V14C1.98999 10.69 4.67999 8 7.98999 8C7.98999 4.69 10.68 2 13.99 2H16.99C20.3 2 22.99 4.69 22.99 8V10H23.78C26.96 10 29.68 12.37 29.97 15.41C30.08 16.58 29.84 17.75 29.31 18.77Z" fill="black"/>
<path fill-rule="evenodd" clip-rule="evenodd" d="M26.89 25.47L30.21 28.79L28.79 30.21L25.47 26.89C24.49 27.58 23.29 28 22 28C18.69 28 16 25.31 16 22C16 18.69 18.69 16 22 16C25.31 16 28 18.69 28 22C28 23.29 27.59 24.49 26.89 25.47ZM22 18C19.79 18 18 19.79 18 22C18 24.21 19.79 26 22 26C24.21 26 26 24.21 26 22C26 19.79 24.21 18 22 18Z" fill="black"/>
</svg>