<svg viewBox="0 0 32 32" xmlns="http://www.w3.org/2000/svg">
<path d="M14.05 21.96C14.05 21.96 14.02 22 14 22H8.05C4.71 22 2 19.29 2 15.95V14C2 10.7 4.67 8.02 7.96 8C7.98 8 8 7.98 8 7.96C8.02 4.67 10.7 2 14 2H16.95C20.29 2 23 4.71 23 8.05V10H23.79C26.79 10 29.38 12.13 29.9 14.93C29.9 14.96 29.88 14.99 29.85 14.98C29.23 14.95 28.62 15.17 28.17 15.61C26.79 14.63 25.12 14.06 23.34 14C18.94 13.84 14.76 17.59 14.05 21.93V21.96Z" fill="black"/>
<path d="M27.93 23.8301C27.53 26.2501 25.45 28.0001 23 28.0001C21.53 28.0001 20.13 27.3401 19.17 26.2101L20.95 24.4301C21.11 24.2701 21 24.0001 20.77 24.0001H16.24C16.1 24.0001 15.99 24.1101 15.99 24.2501V28.7801C15.99 29.0001 16.26 29.1101 16.42 28.9601L17.75 27.6301C19.07 29.1301 20.98 30.0001 23 30.0001C26.44 30.0001 29.34 27.5401 29.91 24.1501L27.94 23.8201L27.93 23.8301Z" fill="black"/>
<path d="M28.24 18.38L29.58 17.04C29.74 16.89 30.01 17 30.01 17.22V21.75C30.01 21.89 29.9 22 29.76 22H25.23C25 22 24.89 21.73 25.05 21.57L26.83 19.79C25.9 18.67 24.52 18 23 18C20.55 18 18.47 19.75 18.07 22.17L16.1 21.84C16.66 18.46 19.56 16 23 16C25.06 16 26.94 16.9 28.24 18.38Z" fill="black"/>
</svg>