<svg viewBox="0 0 32 32" xmlns="http://www.w3.org/2000/svg">
<path d="M9.99999 9.99999H7.99999L7.98999 9.98999C5.77999 9.98999 3.98999 11.78 3.98999 13.99V15.99C3.98999 18.2 5.77999 19.99 7.98999 19.99H13.99V21.99H7.98999C4.67999 21.99 1.98999 19.3 1.98999 15.99V13.99C1.98999 10.68 4.67999 7.98999 7.98999 7.98999C7.98999 4.67999 10.68 1.98999 13.99 1.98999H16.99C20.3 1.98999 22.99 4.67999 22.99 7.98999V9.98999H23.99C26.76 9.98999 29.09 11.43 29.93 13.64L28.06 14.35C27.52 12.92 25.93 12 24 12H21V7.99999C21 5.78999 19.21 3.99999 17 3.99999H14C11.79 3.99999 9.99999 5.78999 9.99999 7.99999V9.99999Z"/>
<path d="M28.24 18.38L29.58 17.04C29.74 16.89 30.01 17 30.01 17.22V21.75C30.01 21.89 29.9 22 29.76 22H25.23C25 22 24.89 21.73 25.05 21.57L26.83 19.79C25.89 18.66 24.5 18 23 18C20.24 18 18 20.24 18 23C18 25.76 20.24 28 23 28C25.14 28 27.04 26.64 27.73 24.62L29.62 25.27C28.65 28.1 25.99 30 23 30C19.14 30 16 26.86 16 23C16 19.14 19.14 16 23 16C25.03 16 26.92 16.88 28.24 18.38Z"/>
</svg>