<svg viewBox="0 0 32 32" xmlns="http://www.w3.org/2000/svg">
<path d="M16.88 18.52C16.1 19.3 16.1 20.57 16.88 21.35H16.84L17.49 22H7.95996C4.64996 22 1.95996 19.31 1.95996 16V14C1.95996 10.69 4.64996 8 7.95996 8C7.95996 4.69 10.65 2 13.96 2H16.96C20.27 2 22.96 4.69 22.96 8V10H23.75C26.93 10 29.65 12.37 29.94 15.41C30 16.03 29.96 16.66 29.83 17.26L29.68 17.11C29.29 16.72 28.78 16.52 28.27 16.52C27.76 16.52 27.25 16.72 26.86 17.11L24.69 19.28C24.3 19.67 23.67 19.67 23.28 19.28L21.11 17.11C20.72 16.72 20.21 16.52 19.7 16.52C19.19 16.52 18.68 16.72 18.29 17.11L16.88 18.52Z" fill="black"/>
<path d="M28.29 18.52L29.71 19.94L25.41 24.23L29.71 28.52L28.29 29.94L24 25.65L19.71 29.94L18.29 28.52L22.59 24.23L18.29 19.94L19.71 18.52L24 22.82L28.29 18.52Z" fill="black"/>
</svg>