<svg viewBox="0 0 32 32" xmlns="http://www.w3.org/2000/svg">
<path d="M23.78 11C26.96 11 29.68 13.37 29.97 16.41V16.42C30.0535 17.3026 29.9407 18.1824 29.6529 18.9997H14C12.8954 18.9997 12 19.8952 12 20.9997V23H7.98999C4.67999 23 1.98999 20.31 1.98999 17V15C1.98999 11.69 4.67999 9 7.98999 9C7.98999 5.69 10.68 3 13.99 3H16.99C20.3 3 22.99 5.69 22.99 9V11H23.78Z" fill="black"/>
<path fill-rule="evenodd" clip-rule="evenodd" d="M24.2416 28.1053V28.6956H24.3307V28.4394H24.4309L24.5924 28.6956H24.6927L24.52 28.4394C24.6063 28.4287 24.676 28.3786 24.676 28.2723C24.676 28.156 24.6048 28.1053 24.4644 28.1053H24.2416ZM24.3307 28.1832H24.4532C24.5135 28.1832 24.5813 28.193 24.5813 28.2668C24.5813 28.3589 24.5126 28.367 24.4365 28.367H24.3307V28.1832Z" fill="black"/>
<path fill-rule="evenodd" clip-rule="evenodd" d="M24.4421 27.8881C24.1594 27.8881 23.9186 28.1059 23.9186 28.4004C23.9186 28.6971 24.1594 28.9184 24.4421 28.9184C24.7208 28.9184 24.9545 28.6972 24.9545 28.4004C24.9545 28.1059 24.7208 27.8881 24.4421 27.8881ZM24.4421 27.9716C24.6727 27.9716 24.8542 28.1579 24.8542 28.4004C24.8542 28.6471 24.6727 28.8293 24.4421 28.8293C24.2075 28.8293 24.0188 28.6471 24.0188 28.4004C24.0188 28.1579 24.2075 27.9716 24.4421 27.9716Z" fill="black"/>
<path d="M23.5872 24.7863H23.2404V23.518H23.5872C24.0502 23.518 24.4188 23.6705 24.4188 24.1441C24.4188 24.6331 24.0502 24.7863 23.5872 24.7863Z" fill="black"/>
<path d="M19.8546 25.6931C19.6711 25.6931 19.4989 25.6596 19.3501 25.6036L19.8496 24.0282H19.8603L20.3495 25.6079C20.2021 25.6606 20.0339 25.6931 19.8546 25.6931Z" fill="black"/>
<path fill-rule="evenodd" clip-rule="evenodd" d="M14 21V28.9144H22.0856L30 21H14ZM23.4953 22.4876H21.9204V26.2323L20.5446 22.4876H19.181L18.0055 25.6184C17.8813 24.8293 17.0638 24.5561 16.4212 24.3524C15.9976 24.2161 15.5467 24.0157 15.5508 23.7939C15.5544 23.6125 15.793 23.4442 16.2636 23.4693C16.5809 23.4854 16.8607 23.511 17.4161 23.7796L17.9633 22.8265C17.4564 22.5676 16.7541 22.4051 16.1795 22.4038H16.176C15.5057 22.4038 14.9472 22.6223 14.6008 22.98C14.36 23.2302 14.2297 23.5467 14.2238 23.899C14.2149 24.3816 14.3926 24.7241 14.7645 24.998C15.0793 25.2287 15.4808 25.3771 15.8354 25.4883C16.2729 25.6232 16.6301 25.741 16.626 25.9921C16.6224 26.0835 16.5883 26.1693 16.5222 26.237C16.4133 26.3501 16.246 26.392 16.0145 26.3972C15.5683 26.4061 15.2373 26.3366 14.7102 26.0251L14.2238 26.9915C14.7494 27.2907 15.3715 27.4657 16.0065 27.4657H16.0886C16.6411 27.455 17.0873 27.2973 17.4439 27.0108L17.5017 26.9603L17.3441 27.3838H18.7743L19.0145 26.6533C19.2658 26.7383 19.552 26.786 19.855 26.786C20.1506 26.786 20.4295 26.7415 20.6763 26.6602L20.9073 27.3838H23.2408V25.8708H23.75C24.9796 25.8708 25.7078 25.2449 25.7078 24.1945C25.7078 23.0254 25.0006 22.4892 23.4951 22.4892L23.4953 22.4876Z" fill="black"/>
</svg>