<svg viewBox="0 0 32 32" xmlns="http://www.w3.org/2000/svg">
<path d="M29.71 3.71005L23.03 10.39L23.02 10.41L3.71001 29.72L2.30001 28.31L5.36001 25.25C3.51001 24.22 2.26001 22.26 2.26001 20.01V18.01C2.26001 14.7 4.95001 12.01 8.26001 12.01C8.26001 8.70005 10.95 6.01005 14.26 6.01005H17.26C19.25 6.01005 21.01 7.00005 22.1 8.50005L28.3 2.30005L29.71 3.71005Z" fill="black"/>
<path d="M24.03 14C27.21 14 29.93 16.37 30.22 19.41L30.21 19.42C30.37 21.11 29.81 22.79 28.68 24.04C27.55 25.28 25.93 26 24.24 26H10.24L23.24 13V14H24.03Z" fill="black"/>
</svg>