<svg viewBox="0 0 32 32" xmlns="http://www.w3.org/2000/svg">
<path fill-rule="evenodd" clip-rule="evenodd" d="M16.8748 23.8089C16.3934 23.3757 16 22.7688 16 22H18C18 22.0312 18.0066 22.1368 18.2127 22.3223C18.4275 22.5156 18.7866 22.7235 19.2966 22.912C20.311 23.2869 21.6888 23.5 23 23.5C24.3112 23.5 25.689 23.2869 26.7034 22.912C27.2134 22.7235 27.5725 22.5156 27.7873 22.3223C27.9934 22.1368 28 22.0312 28 22H30C30 22.7688 29.6066 23.3757 29.1252 23.8089C28.6525 24.2344 28.0366 24.5515 27.3967 24.788C26.111 25.2631 24.4888 25.5 23 25.5C21.5112 25.5 19.889 25.2631 18.6033 24.788C17.9634 24.5515 17.3475 24.2344 16.8748 23.8089Z" fill="black"/>
<path fill-rule="evenodd" clip-rule="evenodd" d="M16 26.5002V17.4102H18V26.5002C18 26.5034 17.9998 26.5207 18.0214 26.5604C18.0466 26.6066 18.1003 26.6807 18.2071 26.7752C18.4272 26.9704 18.7931 27.1831 19.3056 27.378C20.3244 27.7656 21.7012 28.0002 23 28.0002C24.2988 28.0002 25.6756 27.7656 26.6944 27.378C27.2069 27.1831 27.5728 26.9704 27.7929 26.7752C27.8997 26.6807 27.9534 26.6066 27.9786 26.5604C28.0002 26.5207 28 26.5037 28 26.5004L28 17.4102H30V26.5002C30 27.2622 29.588 27.8567 29.1196 28.2719C28.6522 28.6862 28.0431 29.0048 27.4056 29.2473C26.1244 29.7347 24.5012 30.0002 23 30.0002C21.4988 30.0002 19.8756 29.7347 18.5944 29.2473C17.9569 29.0048 17.3478 28.6862 16.8804 28.2719C16.412 27.8567 16 27.2622 16 26.5002Z" fill="black"/>
<path fill-rule="evenodd" clip-rule="evenodd" d="M18.0195 17.437C18.0003 17.4761 18 17.4947 18 17.5C18 17.5053 18.0003 17.5239 18.0195 17.563C18.0405 17.6058 18.0848 17.6736 18.1733 17.7607C18.3559 17.9406 18.6714 18.1486 19.142 18.3447C20.0787 18.735 21.4422 19 23 19C24.5578 19 25.9213 18.735 26.858 18.3447C27.3286 18.1486 27.6441 17.9406 27.8267 17.7607C27.9152 17.6736 27.9595 17.6058 27.9805 17.563C27.9997 17.5239 28 17.5053 28 17.5C28 17.4947 27.9997 17.4761 27.9805 17.437C27.9595 17.3942 27.9152 17.3264 27.8267 17.2393C27.6441 17.0594 27.3286 16.8514 26.858 16.6553C25.9213 16.265 24.5578 16 23 16C21.4422 16 20.0787 16.265 19.142 16.6553C18.6714 16.8514 18.3559 17.0594 18.1733 17.2393C18.0848 17.3264 18.0405 17.3942 18.0195 17.437ZM18.3727 14.8092C19.6076 14.2947 21.2441 14 23 14C24.7559 14 26.3924 14.2947 27.6273 14.8092C28.2425 15.0655 28.8056 15.3962 29.2303 15.8145C29.6584 16.2363 30 16.8065 30 17.5C30 18.1935 29.6584 18.7637 29.2303 19.1855C28.8056 19.6038 28.2425 19.9345 27.6273 20.1908C26.3924 20.7053 24.7559 21 23 21C21.2441 21 19.6076 20.7053 18.3727 20.1908C17.7575 19.9345 17.1944 19.6038 16.7697 19.1855C16.3416 18.7637 16 18.1935 16 17.5C16 16.8065 16.3416 16.2363 16.7697 15.8145C17.1944 15.3962 17.7575 15.0655 18.3727 14.8092Z" fill="black"/>
<path fill-rule="evenodd" clip-rule="evenodd" d="M14 22.01L14 17.5C14 16.1098 14.6889 15.0569 15.3662 14.3897C16.0328 13.733 16.8436 13.2796 17.6035 12.963C19.1364 12.3243 21.0461 12 23 12C24.9539 12 26.8636 12.3243 28.3965 12.963C28.7326 13.1031 29.0788 13.2699 29.4179 13.4692C28.4186 11.4243 26.2365 10.01 23.78 10.01H22.99V8.01001C22.99 4.70001 20.3 2.01001 16.99 2.01001H13.99C10.68 2.01001 7.98999 4.70001 7.98999 8.01001C4.67999 8.01001 1.98999 10.7 1.98999 14.01V16.01C1.98999 19.32 4.67999 22.01 7.98999 22.01H14Z" fill="black"/>
</svg>