<svg viewBox="0 0 32 32" xmlns="http://www.w3.org/2000/svg">
<path fill-rule="evenodd" clip-rule="evenodd" d="M8 22H24L24.01 21.99C25.7 21.99 27.31 21.28 28.45 20.03C29.58 18.78 30.14 17.1 29.98 15.41C29.69 12.38 26.97 10 23.79 10H23V8C23 4.69 20.31 2 17 2H14C10.69 2 8 4.69 8 8C4.69 8 2 10.69 2 14V16C2 19.31 4.69 22 8 22ZM4 14C4 11.79 5.79 10 8 10H9.99V8C9.99 5.79 11.78 4 13.99 4H16.99C19.2 4 20.99 5.79 20.99 8V12H23.78C25.94 12 27.79 13.58 27.98 15.6C28.09 16.75 27.73 17.85 26.96 18.69C26.2 19.52 25.12 20 24 20H8C5.79 20 4 18.21 4 16V14Z"/>
<path d="M18 28V26H28V28H18Z"/>
</svg>