<svg viewBox="0 0 32 32" xmlns="http://www.w3.org/2000/svg">
<path d="M29.97 15.41C29.68 12.37 26.96 10 23.78 10H22.99V8C22.99 4.69 20.3 2 16.99 2H13.99C10.68 2 7.98999 4.69 7.98999 8C4.67999 8 1.98999 10.69 1.98999 14V16C1.98999 19.31 4.67999 22 7.98999 22H12V16C12 14.8954 12.8954 14 14 14H24C25.1046 14 26 14.8954 26 16V17L28.7022 18.0133C28.9914 18.1218 29.2443 18.2924 29.4483 18.5066C29.8846 17.5525 30.0711 16.4882 29.97 15.42V15.41Z" fill="black"/>
<path d="M18 20H20V22H18V20Z" fill="black"/>
<path d="M20 24H18V26H20V24Z" fill="black"/>
<path fill-rule="evenodd" clip-rule="evenodd" d="M28 20V28H30V30H12V28H14V16H24V18.6667L28 20ZM16 18H22V28H16V18ZM26 28H24V20.7749L26 21.4415V28Z" fill="black"/>
</svg>