<svg viewBox="0 0 32 32" xmlns="http://www.w3.org/2000/svg">
<path d="M17.7 21.29C17.17 21.29 16.67 21.5 16.29 21.88L15.16 23.01H7.98999C4.67999 23.01 1.98999 20.32 1.98999 17.01V15.01C1.98999 11.7 4.67999 9.01001 7.98999 9.01001C7.98999 5.70001 10.68 3.01001 13.99 3.01001H16.99C20.3 3.01001 22.99 5.70001 22.99 9.01001V11.01H23.78C26.96 11.01 29.68 13.38 29.97 16.42C30.02 16.97 29.99 17.53 29.89 18.07L29.7 17.88C29.33 17.5 28.82 17.29 28.29 17.29C27.76 17.29 27.26 17.5 26.88 17.88L22.05 22.71C21.86 22.89 21.61 23 21.34 23H20.65C20.38 23 20.13 22.9 19.94 22.71L19.11 21.88C18.74 21.5 18.23 21.29 17.7 21.29Z" fill="black"/>
<path d="M16.29 24.71L21 29.41L29.71 20.71L28.29 19.29L21 26.59L17.71 23.29L16.29 24.71Z" fill="black"/>
</svg>