<svg viewBox="0 0 32 32" xmlns="http://www.w3.org/2000/svg">
<path d="M29.97 15.41C29.68 12.37 26.96 10 23.78 10H22.99V8C22.99 4.69 20.3 2 16.99 2H13.99C10.68 2 7.98999 4.69 7.98999 8C4.67999 8 1.98999 10.69 1.98999 14V16C1.98999 19.31 4.67999 22 7.98999 22H8.98999V15C8.98999 13.9 9.88999 13 10.99 13H12.99C14.09 13 14.99 13.9 14.99 15V17.76L19.58 13.17C19.97 12.78 20.48 12.58 20.99 12.58C21.5 12.58 22.01 12.78 22.4 13.17L27.11 17.88C27.95 18.64 28.43 20.04 28.43 20.04C29.62 18.85 30.12 17.11 29.96 15.42L29.97 15.41Z" fill="black"/>
<path d="M16.29 19.2901L17.71 20.7101L20 18.4101V30.0001H22V18.4101L24.29 20.7101L25.71 19.2901L21 14.5901L16.29 19.2901Z" fill="black"/>
<path d="M13 15V26.59L15.29 24.29L16.71 25.71L12 30.41L7.29004 25.71L8.71004 24.29L11 26.59V15H13Z" fill="black"/>
</svg>