<svg viewBox="0 0 32 32" xmlns="http://www.w3.org/2000/svg">
<path d="M9.99999 9.99999H7.99999V9.98999C5.78999 9.98999 3.99999 11.78 3.99999 13.99V15.99C3.99999 18.2 5.78999 19.99 7.99999 19.99H15.99V21.99H7.98999C4.67999 21.99 1.98999 19.3 1.98999 15.99V13.99C1.98999 10.68 4.67999 7.98999 7.98999 7.98999C7.98999 4.67999 10.68 1.98999 13.99 1.98999H16.99C20.3 1.98999 22.99 4.67999 22.99 7.98999V9.98999H23.99C26.76 9.98999 29.09 11.43 29.93 13.64L28.06 14.35C27.52 12.92 25.93 12 24 12H21V7.99999C21 5.78999 19.21 3.99999 17 3.99999H14C11.79 3.99999 9.99999 5.78999 9.99999 7.99999V9.99999Z"/>
<path fill-rule="evenodd" clip-rule="evenodd" d="M28 19V21C29.1 21 30 21.9 30 23V28C30 29.1 29.1 30 28 30H20C18.9 30 18 29.1 18 28V23C18 21.9 18.9 21 20 21V19C20 17.35 21.35 16 23 16H25C26.65 16 28 17.35 28 19ZM23 18C22.45 18 22 18.45 22 19V21H26V19C26 18.45 25.55 18 25 18H23ZM20 23V28H28V23H20Z"/>
</svg>