<svg viewBox="0 0 32 32" xmlns="http://www.w3.org/2000/svg">
<path d="M10.01 10.01H8.01V10C5.8 10 4.01 11.79 4.01 14V16C4.01 18.21 5.8 20 8.01 20H11.01V22H8C4.69 22 2 19.31 2 16V14C2 10.69 4.69 8 8 8C8 4.69 10.69 2 14 2H17C20.31 2 23 4.69 23 8V10H24C26.77 10 29.1 11.44 29.94 13.65L28.07 14.36C27.53 12.93 25.94 12.01 24.01 12.01H21.01V8.01C21.01 5.8 19.22 4.01 17.01 4.01H14.01C11.8 4.01 10.01 5.8 10.01 8.01V10.01Z" fill="black"/>
<path d="M20 20H18V22H20V20Z" fill="black"/>
<path d="M18 24H20V26H18V24Z" fill="black"/>
<path fill-rule="evenodd" clip-rule="evenodd" d="M14 28V16H24V18.6667L28 20V28H30V30H12V28H14ZM16 18H22V28H16V18ZM26 28V21.4415L24 20.7749V28H26Z" fill="black"/>
</svg>