<svg viewBox="0 0 32 32" xmlns="http://www.w3.org/2000/svg">
<path d="M8 10H10V8C10 5.79 11.79 4 14 4H17C19.21 4 21 5.79 21 8V12H24C25.31 12 26.56 12.63 27.34 13.69L28.95 12.5C27.79 10.93 25.94 10 24 10H23V8C23 4.69 20.31 2 17 2H14C10.69 2 8 4.69 8 8C4.69 8 2 10.69 2 14V16C2 19.31 4.69 22 8 22H14V20H8C5.79 20 4 18.21 4 16V14C4 11.79 5.79 10 8 10Z"/>
<path d="M28.24 18.38C26.94 16.9 25.06 16 23 16C19.56 16 16.66 18.46 16.1 21.84L18.07 22.17C18.47 19.75 20.55 18 23 18C24.52 18 25.9 18.67 26.83 19.79L25.05 21.57C24.89 21.73 25 22 25.23 22H29.76C29.9 22 30.01 21.89 30.01 21.75V17.22C30.01 17 29.74 16.89 29.58 17.04L28.24 18.38Z"/>
<path d="M19.17 26.2101C20.13 27.3401 21.53 28.0001 23 28.0001L23.01 27.9901C25.46 27.9901 27.54 26.2401 27.94 23.8201L29.91 24.1501C29.34 27.5401 26.44 30.0001 23 30.0001C20.98 30.0001 19.07 29.1301 17.75 27.6301L16.42 28.9601C16.26 29.1101 15.99 29.0001 15.99 28.7801V24.2501C15.99 24.1101 16.1 24.0001 16.24 24.0001H20.77C21 24.0001 21.11 24.2701 20.95 24.4301L19.17 26.2101Z"/>
</svg>