<svg viewBox="0 0 32 32" xmlns="http://www.w3.org/2000/svg">
<path d="M23.78 10C26.96 10 29.68 12.37 29.97 15.41V15.42C29.9883 15.6137 29.9972 15.8072 29.9969 16H18.6396C17.6862 16 16.8654 16.6729 16.6784 17.6078L15.8 22H7.98999C4.67999 22 1.98999 19.31 1.98999 16V14C1.98999 10.69 4.67999 8 7.98999 8C7.98999 4.69 10.68 2 13.99 2H16.99C20.3 2 22.99 4.69 22.99 8V10H23.78Z" fill="black"/>
<path d="M18.7546 18L29.6643 18L29.0289 20.8119H21.4449L20.7259 24.1447H17.4343L18.7546 18Z" fill="black"/>
<path d="M15 28.7679L25.9097 28.7679L27.23 22.6233L23.9384 22.6233L23.2194 25.956H15.5926L15 28.7679Z" fill="black"/>
</svg>