<svg viewBox="0 0 32 32" xmlns="http://www.w3.org/2000/svg">
<path d="M23.78 12C26.96 12 29.68 14.37 29.97 17.41V17.42C30.13 19.11 29.57 20.79 28.44 22.04C27.31 23.28 25.69 24 24 24H21V22H24C25.12 22 26.2 21.52 26.96 20.69C27.73 19.84 28.09 18.75 27.98 17.6C27.78 15.58 25.94 14 23.78 14H20.99V10C20.99 7.79 19.2 6 16.99 6H13.99C11.78 6 9.98999 7.79 9.98999 10V12H7.98999C5.77999 12 3.98999 13.79 3.98999 16V18C3.98999 20.21 5.77999 22 7.98999 22H10.99V24H7.98999C4.67999 24 1.98999 21.31 1.98999 18V16C1.98999 12.69 4.67999 10 7.98999 10C7.98999 6.69 10.68 4 13.99 4H16.99C20.3 4 22.99 6.69 22.99 10V12H23.78Z"/>
<path d="M16 12.5901L21.71 18.2901L20.29 19.7101L17 16.4101V28.0001H15V16.4101L11.71 19.7101L10.29 18.2901L16 12.5901Z"/>
</svg>