<svg viewBox="0 0 32 32" xmlns="http://www.w3.org/2000/svg">
<path fill-rule="evenodd" clip-rule="evenodd" d="M13.2802 12.32L11.5002 13.36V13.37L10.4902 11.64L12.2702 10.6C12.1002 10.1 12.0002 9.56 12.0002 9C12.0002 8.44 12.1102 7.91 12.2802 7.41L10.4902 6.37L11.5002 4.64L13.2902 5.68C13.9902 4.89 14.9302 4.32 16.0002 4.1V2H18.0002V4.09C19.0702 4.3 20.0102 4.87 20.7102 5.66L22.4902 4.62L23.5002 6.35L21.7202 7.39C21.8902 7.89 21.9902 8.43 21.9902 8.99C21.9902 9.55 21.8802 10.08 21.7102 10.58L23.5002 11.62L22.4902 13.35L20.7002 12.31C20.0002 13.1 19.0602 13.67 17.9902 13.89V15.99H15.9902V13.89C14.9202 13.68 13.9802 13.11 13.2802 12.32ZM20.0002 9C20.0002 7.34 18.6602 6 17.0002 6C15.3402 6 14.0002 7.34 14.0002 9C14.0002 10.66 15.3402 12 17.0002 12C18.6602 12 20.0002 10.66 20.0002 9Z"/>
<path fill-rule="evenodd" clip-rule="evenodd" d="M18.64 22H28V22.01C29.1 22.01 30 22.91 30 24.01V25.13C30 26.13 29.25 26.99 28.25 27.11L13.01 29.01L4 28.11V30H2V16H4V18H17.5C18.33 18 19 18.67 19 19.5V20.87C19 21.29 18.86 21.68 18.64 22ZM12.99 27L28 25.12V24.01H11V23.01L10.82 22.03L17 20.88V20.01H4V26.1L12.99 27Z"/>
</svg>