<svg viewBox="0 0 32 32" xmlns="http://www.w3.org/2000/svg">
<path d="M14.4999 20.57C14.2599 20.57 14.0099 20.51 13.7899 20.39C13.2999 20.13 12.9999 19.62 12.9999 19.07V12.94C12.9999 12.39 13.2999 11.88 13.7899 11.62C14.2799 11.36 14.8699 11.39 15.3299 11.69L19.9299 14.76C20.3499 15.04 20.5999 15.51 20.5999 16.01C20.5999 16.51 20.3499 16.98 19.9299 17.26L15.3299 20.33C15.0799 20.5 14.7899 20.58 14.4999 20.58V20.57ZM14.9999 13.87V18.13L18.1999 16L14.9999 13.87Z"/>
<path d="M17.9999 29H13.9999C12.8999 29 11.9999 28.1 11.9999 27V25.16C11.3099 24.86 10.6699 24.49 10.0699 24.05L8.47987 24.97C8.01987 25.24 7.47987 25.31 6.95987 25.17C6.43987 25.03 6.00987 24.7 5.74987 24.24L3.74987 20.78C3.19987 19.83 3.52987 18.6 4.47987 18.05L6.06987 17.13C6.02987 16.75 5.99987 16.38 5.99987 16.01C5.99987 15.64 6.01987 15.27 6.06987 14.89L4.47987 13.97C4.01987 13.7 3.68987 13.27 3.54987 12.76C3.40987 12.24 3.47987 11.7 3.74987 11.24L5.74987 7.78002C6.01987 7.32002 6.44987 6.99002 6.95987 6.85002C7.47987 6.71002 8.01987 6.78002 8.47987 7.05002L10.0699 7.97002C10.6699 7.53002 11.3199 7.16002 11.9999 6.86002V5.02002C11.9999 3.92002 12.8999 3.02002 13.9999 3.02002H17.9999C19.0999 3.02002 19.9999 3.92002 19.9999 5.02002V6.86002C20.6899 7.16002 21.3299 7.53002 21.9299 7.97002L23.5199 7.05002C23.9799 6.78002 24.5199 6.71002 25.0399 6.85002C25.5599 6.99002 25.9899 7.32002 26.2499 7.78002L28.2499 11.24C28.5199 11.7 28.5899 12.24 28.4499 12.76C28.3099 13.28 27.9799 13.71 27.5199 13.97L25.9299 14.89C25.9699 15.27 25.9999 15.64 25.9999 16.01C25.9999 16.38 25.9799 16.75 25.9299 17.13L27.5199 18.05C28.4699 18.6 28.7999 19.83 28.2499 20.78L26.2499 24.24C25.9799 24.7 25.5499 25.03 25.0399 25.17C24.5299 25.31 23.9899 25.24 23.5199 24.97L21.9299 24.05C21.3299 24.49 20.6799 24.86 19.9999 25.16V27C19.9999 28.1 19.0999 29 17.9999 29ZM10.2699 21.62L10.8099 22.08C11.5499 22.72 12.3999 23.21 13.3399 23.54L14.0099 23.78V27.01H18.0099V23.78L18.6799 23.54C19.6099 23.21 20.4599 22.72 21.2099 22.08L21.7499 21.62L24.5499 23.23L27.0499 18.9L26.5499 19.77L23.7599 18.16L23.8899 17.47C23.9799 16.96 24.0299 16.48 24.0299 16.01C24.0299 15.54 23.9799 15.06 23.8899 14.55L23.7599 13.86L26.5499 12.25L24.5499 8.79002L21.7499 10.4L21.2099 9.94002C20.4699 9.30002 19.6199 8.81002 18.6799 8.48002L18.0099 8.24002V5.01002H14.0099V8.24002L13.3399 8.48002C12.4099 8.81002 11.5599 9.30002 10.8099 9.94002L10.2699 10.4L7.46987 8.79002L5.46987 12.25L8.25987 13.86L8.12987 14.55C8.03987 15.06 7.98987 15.54 7.98987 16.01C7.98987 16.48 8.03987 16.96 8.12987 17.47L8.25987 18.16L5.46987 19.77L7.46987 23.23L10.2699 21.62Z"/>
</svg>