<svg viewBox="0 0 32 32" xmlns="http://www.w3.org/2000/svg">
<path d="M27.8902 19.4L25.7502 18.17C25.9002 17.47 25.9902 16.75 25.9902 16C25.9902 15.25 25.9002 14.53 25.7502 13.83L27.8902 12.6C28.3702 12.32 28.5302 11.71 28.2602 11.23L26.2602 7.77C25.9802 7.29 25.3702 7.13 24.8902 7.4L22.7502 8.64C21.6802 7.66 20.4102 6.91 19.0002 6.46V4C19.0002 3.45 18.5502 3 18.0002 3H14.0002C13.4502 3 13.0002 3.45 13.0002 4V6.46C11.5902 6.9 10.3102 7.66 9.2502 8.64L7.1102 7.4C6.6302 7.12 6.0202 7.29 5.7402 7.77L3.7402 11.23C3.4602 11.71 3.6302 12.32 4.1102 12.6L6.2502 13.83C6.1002 14.53 6.0102 15.25 6.0102 16C6.0102 16.75 6.1002 17.47 6.2502 18.17L4.1102 19.4C3.6302 19.68 3.4702 20.29 3.7402 20.77L5.7402 24.23C6.0202 24.71 6.6302 24.87 7.1102 24.6L9.2502 23.36C10.3202 24.34 11.5902 25.09 13.0002 25.54V28C13.0002 28.55 13.4502 29 14.0002 29H18.0002C18.5502 29 19.0002 28.55 19.0002 28V25.54C20.4102 25.1 21.6902 24.34 22.7502 23.36L24.8902 24.6C25.3702 24.88 25.9802 24.71 26.2602 24.23L28.2602 20.77C28.5402 20.29 28.3702 19.68 27.8902 19.4ZM19.3802 16.42L14.7802 19.49C14.4502 19.71 14.0002 19.47 14.0002 19.07V12.94C14.0002 12.54 14.4502 12.3 14.7802 12.52L19.3802 15.59C19.6802 15.79 19.6802 16.22 19.3802 16.42Z" fill="black"/>
</svg>