<svg viewBox="0 0 32 32" xmlns="http://www.w3.org/2000/svg">
<path fill-rule="evenodd" clip-rule="evenodd" d="M11.5002 13.36L13.2802 12.32C13.9802 13.11 14.9202 13.68 15.9902 13.89V15.99H17.9902V13.89C19.0602 13.67 20.0002 13.1 20.7002 12.31L22.4902 13.35L23.5002 11.62L21.7102 10.58C21.8802 10.08 21.9902 9.55 21.9902 8.99C21.9902 8.43 21.8902 7.89 21.7202 7.39L23.5002 6.35L22.4902 4.62L20.7102 5.66C20.0102 4.87 19.0702 4.3 18.0002 4.09V2H16.0002V4.1C14.9302 4.32 13.9902 4.89 13.2902 5.68L11.5002 4.64L10.4902 6.37L12.2802 7.41C12.1102 7.91 12.0002 8.44 12.0002 9C12.0002 9.56 12.1002 10.1 12.2702 10.6L10.4902 11.64L11.5002 13.37V13.36ZM17.0002 6C18.6602 6 20.0002 7.34 20.0002 9C20.0002 10.66 18.6602 12 17.0002 12C15.3402 12 14.0002 10.66 14.0002 9C14.0002 7.34 15.3402 6 17.0002 6Z" fill="black"/>
<path d="M28.0002 23H12.0002V22.83L17.3702 21.83C18.3202 21.65 19.0002 20.83 19.0002 19.86V19.49C19.0002 18.66 18.3302 17.99 17.5002 17.99H5.91016V28.29L13.0102 29L28.2502 27.1C29.2502 26.98 30.0002 26.12 30.0002 25.12V25C30.0002 23.9 29.1002 23 28.0002 23Z" fill="black"/>
<path d="M2 16H3.91V30H2V16Z" fill="black"/>
</svg>