<svg viewBox="0 0 32 32" xmlns="http://www.w3.org/2000/svg">
<path d="M16.0001 12C14.3401 12 13.0001 13.34 13.0001 15C13.0001 16.66 14.3401 18 16.0001 18C17.6601 18 19.0001 16.66 19.0001 15C19.0001 13.34 17.6601 12 16.0001 12ZM16.0001 12C14.3401 12 13.0001 13.34 13.0001 15C13.0001 16.66 14.3401 18 16.0001 18C17.6601 18 19.0001 16.66 19.0001 15C19.0001 13.34 17.6601 12 16.0001 12ZM25.9201 3H6.08008C4.98008 3 4.08008 3.9 4.08008 5V13.83C4.08008 23.58 10.5801 26.83 16.0001 29C21.4201 26.83 27.9201 23.58 27.9201 13.83V5C27.9201 3.9 27.0201 3 25.9201 3ZM21.0001 15C21.0001 15.56 20.8901 16.09 20.7201 16.59L22.5001 17.64L21.5001 19.36L19.7101 18.32C19.0101 19.11 18.0701 19.68 17.0001 19.9V22H15.0001V19.9C13.9301 19.68 12.9901 19.11 12.2901 18.32L10.5001 19.36L9.50008 17.64L11.2701 16.6C11.1001 16.1 11.0001 15.56 11.0001 15C11.0001 14.44 11.1101 13.91 11.2801 13.41L9.50008 12.36L10.5001 10.64L12.2901 11.68C12.9901 10.89 13.9301 10.32 15.0001 10.1V8H17.0001V10.1C18.0701 10.32 19.0101 10.89 19.7101 11.68L21.5001 10.64L22.5001 12.36L20.7301 13.4C20.9001 13.9 21.0001 14.44 21.0001 15ZM16.0001 12C14.3401 12 13.0001 13.34 13.0001 15C13.0001 16.66 14.3401 18 16.0001 18C17.6601 18 19.0001 16.66 19.0001 15C19.0001 13.34 17.6601 12 16.0001 12ZM16.0001 12C14.3401 12 13.0001 13.34 13.0001 15C13.0001 16.66 14.3401 18 16.0001 18C17.6601 18 19.0001 16.66 19.0001 15C19.0001 13.34 17.6601 12 16.0001 12ZM16.0001 12C14.3401 12 13.0001 13.34 13.0001 15C13.0001 16.66 14.3401 18 16.0001 18C17.6601 18 19.0001 16.66 19.0001 15C19.0001 13.34 17.6601 12 16.0001 12Z" fill="black"/>
</svg>