<svg viewBox="0 0 32 32" xmlns="http://www.w3.org/2000/svg">
<path d="M23 18C24.1046 18 25 17.1046 25 16C25 14.8954 24.1046 14 23 14C21.8954 14 21 14.8954 21 16C21 17.1046 21.8954 18 23 18Z"/>
<path d="M11 16C11 17.1046 10.1046 18 9 18C7.89543 18 7 17.1046 7 16C7 14.8954 7.89543 14 9 14C10.1046 14 11 14.8954 11 16Z"/>
<path d="M19 12C20.1046 12 21 11.1046 21 10C21 8.89543 20.1046 8 19 8C17.8954 8 17 8.89543 17 10C17 11.1046 17.8954 12 19 12Z"/>
<path d="M14 10C14 11.1046 13.1046 12 12 12C10.8954 12 10 11.1046 10 10C10 8.89543 10.8954 8 12 8C13.1046 8 14 8.89543 14 10Z"/>
<path fill-rule="evenodd" clip-rule="evenodd" d="M16 2C8.28 2 2 8.28 2 16C2 23.72 8.28 30 16 30C18.43 30 20 28.82 20 27C20 26.3875 19.7267 25.8726 19.4694 25.3878L19.4438 25.3394C19.1096 24.7108 18.793 24.1152 18.98 23.2C19.17 22.24 19.75 22.1 22.37 22.4L22.406 22.404C24.3772 22.6231 26.6098 22.8712 28.22 21.43C29.42 20.36 30 18.59 30 16C30 8.28 23.72 2 16 2ZM22.6 20.41L22.595 20.4094C20.4854 20.1695 17.6095 19.8424 17.02 22.8C16.6934 24.4332 17.2877 25.5471 17.6877 26.2969L17.7 26.32L17.7434 26.4031C17.8649 26.635 18 26.893 18 27C18 27.95 16.33 28 16 28C9.38 28 4 22.62 4 16C4 9.38 9.38 4 16 4C22.62 4 28 9.38 28 16C28 17.96 27.63 19.28 26.89 19.94C25.93 20.79 24.24 20.6 22.6 20.41Z"/>
</svg>