<svg viewBox="0 0 32 32" xmlns="http://www.w3.org/2000/svg">
<path fill-rule="evenodd" clip-rule="evenodd" d="M18 5.5H24.5C25.33 5.5 26 6.17 26 7C26 7.83 25.33 8.5 24.5 8.5H18V10.8C18 11.46 17.46 12 16.8 12H7V2H16.8C17.46 2 18 2.54 18 3.2V5.5ZM9 4V10H13V4H9Z" fill="black"/>
<path fill-rule="evenodd" clip-rule="evenodd" d="M5 14H27V16H25.14V29C25.14 29.55 24.69 30 24.14 30H7.86C7.31 30 6.86 29.55 6.86 29V16H5V14ZM19 24C20.05 24 21 23.48 21 22V16H9V24C9 25.5 9.93 26 11 26C12.07 26 13 25.5 13 24V22C13 20.52 13.95 20 15 20C16.05 20 17 20.52 17 22C17 23.48 17.95 24 19 24Z" fill="black"/>
</svg>