<svg viewBox="0 0 32 32" xmlns="http://www.w3.org/2000/svg">
<path fill-rule="evenodd" clip-rule="evenodd" d="M7 2H16.1C17.15 2 18 2.81 18 3.8V4H23.24C25.06 4 26.19 5.15 26.19 7C26.19 8.85 25.06 10 23.24 10H18V10.2C18 11.19 17.15 12 16.1 12H7V2ZM12 4H9V10H12V4ZM14 10H16V4H14V10ZM24.19 7C24.19 6.16 23.84 6 23.24 6H18V8H23.24C23.84 8 24.19 7.84 24.19 7Z"/>
<path fill-rule="evenodd" clip-rule="evenodd" d="M7 16H5V14H27V16H25V28C25 29.1 24.1 30 23 30H9C7.9 30 7 29.1 7 28V16ZM19 21V16H9V23C9 23.63 9.16 24 10 24C10.84 24 11 23.63 11 23V21C11 19.18 12.18 18 14 18C15.82 18 17 19.18 17 21C17 21.6 17.17 22 18 22C18.83 22 19 21.6 19 21ZM9 25.86V28H23V16H21V21C21 22.82 19.82 24 18 24C16.18 24 15 22.82 15 21C15 20.4 14.83 20 14 20C13.17 20 13 20.4 13 21V23C13 24.85 11.85 26 10 26C9.64 26 9.31 25.95 9 25.86Z"/>
</svg>