<svg viewBox="0 0 32 32" xmlns="http://www.w3.org/2000/svg">
<path fill-rule="evenodd" clip-rule="evenodd" d="M11 25C12.8501 25 14.5699 24.4417 16 23.4844C17.4301 24.4417 19.1499 25 21 25C25.9706 25 30 20.9706 30 16C30 11.0294 25.9706 7 21 7C19.1499 7 17.4301 7.55827 16 8.51555C14.5699 7.55827 12.8501 7 11 7C6.02944 7 2 11.0294 2 16C2 20.9706 6.02944 25 11 25ZM11 23C12.2343 23 13.394 22.6805 14.4009 22.1198C12.9109 20.5139 12 18.3633 12 16C12 13.6367 12.9109 11.4861 14.4009 9.8802C13.394 9.31946 12.2343 9 11 9C7.13401 9 4 12.134 4 16C4 19.866 7.13401 23 11 23ZM21 9C19.7657 9 18.606 9.31946 17.5991 9.8802C17.9227 10.2289 18.2189 10.6033 18.4845 11L25.899 11C24.6364 9.76281 22.9073 9 21 9ZM27.3264 13L19.4879 13C19.713 13.6368 19.8684 14.3065 19.9451 15L27.9291 15C27.8281 14.2939 27.6217 13.6217 27.3264 13ZM17.3264 13C17.6217 13.6217 17.8281 14.2939 17.9291 15H14.0709C14.1719 14.2939 14.3783 13.6217 14.6736 13H17.3264ZM14.6736 19C14.3783 18.3783 14.1719 17.7061 14.0709 17H17.9291C17.8281 17.7061 17.6217 18.3783 17.3264 19H14.6736ZM18.4845 21C18.2189 21.3967 17.9227 21.7711 17.5991 22.1198C18.606 22.6805 19.7657 23 21 23C22.9073 23 24.6364 22.2372 25.899 21L18.4845 21ZM27.3264 19C27.6217 18.3783 27.8281 17.7061 27.9291 17L19.9451 17C19.8684 17.6935 19.713 18.3632 19.4879 19L27.3264 19Z"/>
</svg>