<svg viewBox="0 0 32 32" xmlns="http://www.w3.org/2000/svg">
<path fill-rule="evenodd" clip-rule="evenodd" d="M19.2 21H12.8C11.77 21 11 20.23 11 19.2V12.8C11 11.77 11.77 11 12.8 11H19.2C20.23 11 21 11.77 21 12.8V19.2C21 20.23 20.23 21 19.2 21ZM19 13H13V19H19V13Z"/>
<path fill-rule="evenodd" clip-rule="evenodd" d="M24 6C25.16 6 26 6.84 26 8V10H29V12H26V15H29V17H26V20H29V22H26V24C26 25.16 25.16 26 24 26H22V29H20V26H17V29H15V26H12V29H10V26H8C6.84 26 6 25.16 6 24V22H3V20H6V17H3V15H6V12H3V10H6V8C6 6.84 6.84 6 8 6H10V3H12V6H15V3H17V6H20V3H22V6H24ZM8 24H24V8H8V24Z"/>
</svg>