<svg viewBox="0 0 32 32" xmlns="http://www.w3.org/2000/svg">
<path d="M29 12V10H26V8C26 6.84 25.16 6 24 6H22V3H20V6H17V3H15V6H12V3H10V6H8C6.84 6 6 6.84 6 8V10H3V12H6V15H3V17H6V20H3V22H6V24C6 25.16 6.84 26 8 26H10V29H12V26H15V29H17V26H20V29H22V26H24C25.16 26 26 25.16 26 24V22H29V20H26V17H29V15H26V12H29ZM24 24H8V8H24V24Z" fill="black"/>
<path d="M20 11H12C11.4477 11 11 11.4477 11 12V20C11 20.5523 11.4477 21 12 21H20C20.5523 21 21 20.5523 21 20V12C21 11.4477 20.5523 11 20 11Z" fill="black"/>
</svg>