<svg viewBox="0 0 32 32" xmlns="http://www.w3.org/2000/svg">
<path d="M23.9998 19C23.8098 19 23.6398 19.03 23.4598 19.05L19.2898 11.73C20.3298 10.81 20.9998 9.48999 20.9998 7.98999C20.9998 5.22999 18.7598 2.98999 15.9998 2.98999C13.2398 2.98999 10.9998 5.22999 10.9998 7.98999C10.9998 9.47999 11.6698 10.81 12.7198 11.73L8.59977 19.05C8.39977 19.03 8.20977 18.99 8.00977 18.99C5.24977 18.99 3.00977 21.23 3.00977 23.99C3.00977 26.75 5.24977 28.99 8.00977 28.99C10.4198 28.99 12.4398 27.27 12.9098 24.99H19.1098C19.5698 27.27 21.5898 28.99 24.0098 28.99C26.7698 28.99 29.0098 26.75 29.0098 23.99C29.0098 21.23 26.7698 18.99 24.0098 18.99L23.9998 19ZM15.9998 4.99999C17.6498 4.99999 18.9998 6.34999 18.9998 7.99999C18.9998 9.64999 17.6498 11 15.9998 11C14.3498 11 12.9998 9.64999 12.9998 7.99999C12.9998 6.34999 14.3498 4.99999 15.9998 4.99999ZM14.4498 12.73C14.9398 12.89 15.4498 13 15.9998 13C16.5498 13 17.0598 12.89 17.5498 12.73L21.5198 19.69C20.2998 20.39 19.3898 21.58 19.0998 23H12.8998C12.6098 21.59 11.7198 20.42 10.5198 19.71L14.4498 12.73ZM7.99977 27C6.34977 27 4.99977 25.65 4.99977 24C4.99977 22.35 6.34977 21 7.99977 21C9.64977 21 10.9998 22.35 10.9998 24C10.9998 25.65 9.64977 27 7.99977 27ZM23.9998 27C22.3498 27 20.9998 25.65 20.9998 24C20.9998 22.35 22.3498 21 23.9998 21C25.6498 21 26.9998 22.35 26.9998 24C26.9998 25.65 25.6498 27 23.9998 27Z"/>
</svg>