<svg viewBox="0 0 32 32" xmlns="http://www.w3.org/2000/svg">
<path d="M26.8 19.5C26.07 19.5 25.4 19.72 24.84 20.1L19.82 15.99C20.12 15.39 20.31 14.72 20.31 14C20.31 13.12 20.05 12.31 19.61 11.61L22.16 9.05999C22.65 9.32999 23.21 9.48999 23.81 9.48999C25.74 9.48999 27.31 7.91999 27.31 5.98999C27.31 4.05999 25.74 2.48999 23.81 2.48999C21.88 2.48999 20.31 4.05999 20.31 5.98999C20.31 6.58999 20.48 7.14999 20.74 7.63999L18.19 10.19C17.5 9.74999 16.68 9.48999 15.8 9.48999C14.83 9.48999 13.93 9.80999 13.19 10.34L9.96004 7.46999C10.17 7.01999 10.3 6.51999 10.3 5.99999C10.3 4.06999 8.73004 2.49999 6.80004 2.49999C4.87004 2.49999 3.30004 4.06999 3.30004 5.99999C3.30004 7.92999 4.87004 9.49999 6.80004 9.49999C7.47004 9.49999 8.10004 9.29999 8.63004 8.96999L11.87 11.85C11.52 12.49 11.3 13.22 11.3 14C11.3 14.68 11.46 15.32 11.73 15.9L8.82004 18.16C8.25004 17.75 7.55004 17.5 6.79004 17.5C4.86004 17.5 3.29004 19.07 3.29004 21C3.29004 22.93 4.86004 24.5 6.79004 24.5C8.72004 24.5 10.29 22.93 10.29 21C10.29 20.55 10.2 20.13 10.04 19.74L12.95 17.47C13.48 17.9 14.09 18.22 14.78 18.38V23.66C13.34 24.09 12.28 25.42 12.28 27C12.28 28.93 13.85 30.5 15.78 30.5C17.71 30.5 19.28 28.93 19.28 27C19.28 25.42 18.22 24.1 16.78 23.66V18.38C17.43 18.23 18.02 17.94 18.53 17.54L23.56 21.65C23.39 22.07 23.29 22.52 23.29 23C23.29 24.93 24.86 26.5 26.79 26.5C28.72 26.5 30.29 24.93 30.29 23C30.29 21.07 28.72 19.5 26.79 19.5H26.8Z" fill="black"/>
</svg>