<svg viewBox="0 0 32 32" xmlns="http://www.w3.org/2000/svg">
<path d="M24.4001 19C24.3101 19 24.2201 19.02 24.1301 19.03L19.4401 10.8C20.3301 9.98 20.9001 8.81 20.9001 7.5C20.9001 5.02 18.8801 3 16.4001 3C13.9201 3 11.9001 5.02 11.9001 7.5C11.9001 8.81 12.4701 9.98 13.3601 10.8L8.72014 19.03C8.61014 19.03 8.51014 19 8.39014 19C5.91014 19 3.89014 21.02 3.89014 23.5C3.89014 25.98 5.91014 28 8.39014 28C10.5301 28 12.3101 26.5 12.7701 24.5H20.0101C20.4701 26.5 22.2501 28 24.3901 28C26.8701 28 28.8901 25.98 28.8901 23.5C28.8901 21.02 26.8701 19 24.3901 19H24.4001ZM15.1001 11.79C15.5101 11.92 15.9401 12 16.4001 12C16.8601 12 17.2801 11.91 17.7001 11.79L22.1701 19.62C21.1001 20.24 20.3101 21.27 20.0301 22.5H12.7901C12.5101 21.28 11.7401 20.26 10.6901 19.64L15.1201 11.79H15.1001Z" fill="black"/>
</svg>