<svg viewBox="0 0 32 32" xmlns="http://www.w3.org/2000/svg">
<path fill-rule="evenodd" clip-rule="evenodd" d="M15 2C13.8954 2 13 2.89543 13 4V5.88197L11.1056 6.82918C10.428 7.16796 10 7.86049 10 8.61803V13H12V12L22 12V10L12 10V8.61803L13.2361 8L20.7639 8L22 8.61804V19H24V8.61804C24 7.86049 23.572 7.16796 22.8944 6.82918L21 5.88196V4C21 2.89543 20.1046 2 19 2H15ZM19 6V4H15V6L19 6Z"/>
<path fill-rule="evenodd" clip-rule="evenodd" d="M18 30L18 23.307L26.6489 20.0637L27.3511 21.9363L21.848 24H28V30H18ZM20 26H26V28H20V26Z"/>
<path fill-rule="evenodd" clip-rule="evenodd" d="M4.70711 15.7071C4.44617 15.4462 4.63098 15 5 15H13C13.369 15 13.5538 15.4462 13.2929 15.7071C13.1311 15.8689 13.1311 16.1311 13.2929 16.2929L13.7071 16.7071C13.8946 16.8946 14 17.149 14 17.4142V28C14 29.1046 13.1046 30 12 30H6C4.89543 30 4 29.1046 4 28V17.4142C4 17.149 4.10536 16.8946 4.29289 16.7071L4.70711 16.2929C4.86887 16.1311 4.86887 15.8689 4.70711 15.7071ZM11.8787 17.7071L12 17.8284V28H6V17.8284L6.12132 17.7071C6.33211 17.4963 6.49577 17.2563 6.6123 17H11.3877C11.5042 17.2563 11.6679 17.4963 11.8787 17.7071Z"/>
</svg>