<svg viewBox="0 0 32 32" xmlns="http://www.w3.org/2000/svg">
<path fill-rule="evenodd" clip-rule="evenodd" d="M14.94 26.7001L8.72 23.0001H4C2.9 23.0001 2 22.1001 2 21.0001V11.0001C2 9.90009 2.9 9.00009 4 9.00009H8.71L14.94 5.29009C15.55 4.92009 16.33 4.91009 16.97 5.26009C17.61 5.61009 17.99 6.26009 17.99 6.98009V25.0201C17.99 25.7401 17.61 26.3801 16.97 26.7401C16.67 26.9101 16.33 27.0001 15.99 27.0001C15.63 27.0001 15.26 26.9001 14.94 26.7001ZM9.28 11.0001H4V21.0001H9.27L15.98 24.9901L16 6.98009L9.28 11.0001Z"/>
<path d="M25 14.59L28.29 11.29L29.71 12.71L26.41 16L29.71 19.29L28.29 20.71L25 17.41L21.71 20.71L20.29 19.29L23.59 16L20.29 12.71L21.71 11.29L25 14.59Z"/>
</svg>