<svg viewBox="0 0 32 32" xmlns="http://www.w3.org/2000/svg">
<path fill-rule="evenodd" clip-rule="evenodd" d="M4.84999 25.3001C5.05999 25.4001 5.27999 25.4501 5.49999 25.4501L5.48999 25.4301C5.82999 25.4301 6.16999 25.3201 6.43999 25.0901L16.15 17.1501C16.5 16.8701 16.7 16.4401 16.7 15.9901C16.7 15.5401 16.5 15.1201 16.15 14.8301L6.43999 6.89006C5.98999 6.53006 5.37999 6.45006 4.84999 6.70006C4.31999 6.96006 3.98999 7.47006 3.98999 8.06006V23.9401C3.98999 24.5301 4.31999 25.0501 4.84999 25.3001ZM14.42 16.0001L5.99999 22.8901V9.11006L14.42 16.0001Z"/>
<path fill-rule="evenodd" clip-rule="evenodd" d="M17.85 25.3001C18.06 25.4001 18.28 25.4501 18.5 25.4501L18.49 25.4301C18.83 25.4301 19.17 25.3201 19.44 25.0901L29.15 17.1501C29.5 16.8701 29.7 16.4401 29.7 15.9901C29.7 15.5401 29.5 15.1201 29.15 14.8301L19.44 6.89006C18.99 6.53006 18.38 6.45006 17.85 6.70006C17.32 6.96006 16.99 7.47006 16.99 8.06006V23.9401C16.99 24.5301 17.32 25.0501 17.85 25.3001ZM27.42 16.0001L19 22.8901V9.11006L27.42 16.0001Z"/>
</svg>