<svg viewBox="0 0 32 32" xmlns="http://www.w3.org/2000/svg">
<path d="M21 6H23V26H21V6Z"/>
<path fill-rule="evenodd" clip-rule="evenodd" d="M8.84999 25.3C9.05999 25.4 9.27999 25.45 9.49999 25.45L9.48999 25.43C9.82999 25.43 10.17 25.32 10.44 25.09L20.15 17.15C20.5 16.87 20.7 16.44 20.7 15.99C20.7 15.54 20.5 15.12 20.15 14.83L10.44 6.89C9.98999 6.53 9.37999 6.45 8.84999 6.7C8.31999 6.96 7.98999 7.47 7.98999 8.06V23.94C7.98999 24.53 8.31999 25.05 8.84999 25.3ZM18.42 16L9.99999 22.89V9.11L18.42 16Z"/>
</svg>