<svg viewBox="0 0 32 32" xmlns="http://www.w3.org/2000/svg">
<path d="M24.61 4.1001L23.28 5.6001C26.28 8.2601 28 12.0801 28 16.0801C28 20.0801 26.34 23.7801 23.43 26.4201L24.78 27.9001C28.1 24.8701 30 20.5701 30 16.0801C30 11.5901 28.03 7.1401 24.61 4.1001Z"/>
<path d="M21.75 8.27002L20.34 9.69002C22.05 11.39 23 13.66 23 16.07C23 18.48 22.05 20.76 20.33 22.47L21.74 23.89C23.84 21.81 25 19.03 25 16.07C25 13.11 23.85 10.35 21.75 8.27002Z"/>
<path fill-rule="evenodd" clip-rule="evenodd" d="M14.95 5.29005C15.56 4.92005 16.34 4.90005 16.98 5.26005C17.62 5.61005 18 6.26005 18 6.98005V25.02C18 25.74 17.62 26.38 16.98 26.74C16.68 26.91 16.34 27 16 27C15.64 27 15.27 26.9 14.95 26.7L8.73 23H4C2.9 23 2 22.1 2 21V11C2 9.90005 2.9 9.00005 4 9.00005H8.72L14.95 5.29005ZM9.27 21L15.98 24.99L16 6.98005L9.27 11H4V21H9.27Z"/>
</svg>