<svg viewBox="0 0 32 32" xmlns="http://www.w3.org/2000/svg">
<path fill-rule="evenodd" clip-rule="evenodd" d="M10.73 9.00009L16.96 5.29009H16.94C17.55 4.92009 18.33 4.91009 18.97 5.26009C19.61 5.61009 19.99 6.26009 19.99 6.98009V25.0201C19.99 25.7401 19.61 26.3801 18.97 26.7401C18.67 26.9101 18.33 27.0001 17.99 27.0001C17.63 27.0001 17.26 26.9001 16.94 26.7001L10.72 23.0001H6C4.9 23.0001 4 22.1001 4 21.0001V11.0001C4 9.90009 4.9 9.00009 6 9.00009H10.73ZM11.27 21.0001L17.98 24.9901L18 6.98009L11.28 11.0001H6V21.0001H11.27Z"/>
<path d="M24.78 23.71C24.78 23.71 24.7801 23.71 24.78 23.71V23.71Z"/>
<path d="M28 16C28 18.92 26.85 21.66 24.78 23.71L23.38 22.3C25.07 20.63 26 18.39 26 16.01C26 13.63 25.07 11.4 23.38 9.72005L24.79 8.30005C26.86 10.35 28 13.08 28 16Z"/>
</svg>