<svg viewBox="0 0 32 32" xmlns="http://www.w3.org/2000/svg">
<path d="M17.47 25.8499L11 21.9999H6C5.45 21.9999 5 21.5499 5 20.9999V10.9999C5 10.4499 5.45 9.99989 6 9.99989H11L17.47 6.14989C18.14 5.73989 19 6.20989 19 6.97989V25.0199C19 25.7899 18.14 26.2599 17.47 25.8499Z" fill="black"/>
<path d="M24.77 23.7C24.77 23.7 24.77 23.7 24.77 23.7V23.7Z" fill="black"/>
<path d="M24.77 23.7C26.85 21.65 27.99 18.9 27.99 15.99C27.99 13.08 26.85 10.34 24.78 8.29004L23.37 9.71004C25.06 11.39 25.99 13.62 25.99 16C25.99 18.38 25.06 20.61 23.37 22.29L24.77 23.7Z" fill="black"/>
</svg>