<svg viewBox="0 0 32 32" xmlns="http://www.w3.org/2000/svg">
<path fill-rule="evenodd" clip-rule="evenodd" d="M12.55 25.1099C12.83 25.3299 13.16 25.4499 13.5 25.4499V25.4599C13.71 25.4599 13.93 25.4099 14.14 25.3099C14.67 25.0499 15 24.5399 15 23.9499V8.05989C15 7.46989 14.67 6.94989 14.14 6.69989C13.61 6.43989 13 6.51989 12.55 6.88989L2.84004 14.8399C2.49004 15.1299 2.29004 15.5499 2.29004 15.9999C2.29004 16.4499 2.49004 16.8699 2.84004 17.1599L12.55 25.1099ZM13 22.8899L4.58004 15.9999L13 9.10989V22.8899Z"/>
<path fill-rule="evenodd" clip-rule="evenodd" d="M25.55 25.1099C25.83 25.3299 26.16 25.4499 26.5 25.4499V25.4699C26.71 25.4699 26.93 25.4199 27.14 25.3199C27.67 25.0599 28 24.5499 28 23.9599V8.06989C28 7.47989 27.67 6.95989 27.14 6.70989C26.61 6.44989 26 6.52989 25.55 6.89989L15.84 14.8499C15.49 15.1399 15.29 15.5599 15.29 16.0099C15.29 16.4599 15.49 16.8799 15.84 17.1699L25.55 25.1099ZM26 22.8899L17.58 15.9999L26 9.10989V22.8899Z"/>
</svg>