<svg viewBox="0 0 32 32" xmlns="http://www.w3.org/2000/svg">
<path d="M28 6H30V26H28V6Z"/>
<path fill-rule="evenodd" clip-rule="evenodd" d="M3.49999 25.45C3.27999 25.45 3.05999 25.4 2.84999 25.3C2.31999 25.05 1.98999 24.53 1.98999 23.94V8.06C1.98999 7.47 2.31999 6.96 2.84999 6.7C3.37999 6.45 3.98999 6.53 4.43999 6.89L14.15 14.83C14.5 15.12 14.7 15.54 14.7 15.99C14.7 16.44 14.5 16.87 14.15 17.15L4.43999 25.09C4.16999 25.32 3.82999 25.43 3.48999 25.43L3.49999 25.45ZM3.99999 22.89L12.42 16L3.99999 9.11V22.89Z"/>
<path fill-rule="evenodd" clip-rule="evenodd" d="M16.5 25.45C16.28 25.45 16.06 25.4 15.85 25.3C15.32 25.05 14.99 24.53 14.99 23.94V8.06C14.99 7.47 15.32 6.96 15.85 6.7C16.38 6.45 16.99 6.53 17.44 6.89L27.15 14.83C27.5 15.12 27.7 15.54 27.7 15.99C27.7 16.44 27.5 16.87 27.15 17.15L17.44 25.09C17.17 25.32 16.83 25.43 16.49 25.43L16.5 25.45ZM17 22.89L25.42 16L17 9.11V22.89Z"/>
</svg>