<svg viewBox="0 0 32 32" xmlns="http://www.w3.org/2000/svg">
<path d="M2 6.02002H4V26.02H2V6.02002Z"/>
<path fill-rule="evenodd" clip-rule="evenodd" d="M15.5 25.47C15.16 25.47 14.83 25.35 14.55 25.13L4.84 17.19C4.49 16.9 4.29 16.48 4.29 16.03C4.29 15.58 4.49 15.16 4.84 14.87L14.55 6.92002C15 6.55002 15.61 6.47002 16.14 6.73002C16.67 6.98002 17 7.50002 17 8.09002V23.98C17 24.57 16.67 25.08 16.14 25.34C15.93 25.44 15.71 25.49 15.5 25.49V25.47ZM6.58 16.02L15 22.91V9.13002L6.58 16.02Z"/>
<path fill-rule="evenodd" clip-rule="evenodd" d="M28.5 25.47C28.16 25.47 27.83 25.35 27.55 25.13L17.84 17.19C17.49 16.9 17.29 16.48 17.29 16.03C17.29 15.58 17.49 15.16 17.84 14.87L27.55 6.92002C28 6.55002 28.61 6.47002 29.14 6.73002C29.67 6.98002 30 7.50002 30 8.09002V23.98C30 24.57 29.67 25.08 29.14 25.34C28.93 25.44 28.71 25.49 28.5 25.49V25.47ZM19.58 16.02L28 22.91V9.13002L19.58 16.02Z"/>
</svg>