<svg viewBox="0 0 32 32" xmlns="http://www.w3.org/2000/svg">
<path d="M23.43 26.4101L24.78 27.8901C28.1 24.8701 30 20.6501 30 16.0701C30 11.4901 28.04 7.13009 24.61 4.09009L23.28 5.59009C26.28 8.25009 28 12.1501 28 16.0701C28 19.9901 26.33 23.7601 23.43 26.4101Z" fill="black"/>
<path d="M9 21.9999L15.47 25.8499C16.14 26.2599 17 25.7899 17 25.0199V6.97989C17 6.20989 16.14 5.73989 15.47 6.14989L9 9.99989H4C3.45 9.99989 3 10.4499 3 10.9999V20.9999C3 21.5499 3.45 21.9999 4 21.9999H9Z" fill="black"/>
<path d="M21.74 23.89L20.33 22.47C22.05 20.77 23 18.49 23 16.07C23 13.65 22.06 11.39 20.34 9.69002L21.75 8.27002C23.84 10.35 25 13.12 25 16.07C25 19.02 23.84 21.8 21.74 23.89Z" fill="black"/>
</svg>