<svg viewBox="0 0 32 32" xmlns="http://www.w3.org/2000/svg">
<path d="M18 18H14C11.24 18 9 20.24 9 23V24H11V23C11 21.35 12.35 20 14 20H18C19.65 20 21 21.35 21 23V24H23V23C23 20.24 20.76 18 18 18Z"/>
<path fill-rule="evenodd" clip-rule="evenodd" d="M19.4 12.6C19.4 14.47 17.88 16 16 16C14.13 16 12.6 14.47 12.6 12.6V11.4C12.6 9.53 14.13 8 16 8C17.87 8 19.4 9.53 19.4 11.4V12.6ZM16 10C15.23 10 14.6 10.63 14.6 11.4V12.6C14.6 13.37 15.23 14 16 14C16.77 14 17.4 13.37 17.4 12.6V11.4C17.4 10.63 16.77 10 16 10Z"/>
<path fill-rule="evenodd" clip-rule="evenodd" d="M23 3H5V29H23C25.21 29 27 27.21 27 25V7C27 4.79 25.21 3 23 3ZM25 25C25 26.1 24.1 27 23 27H7V5H23C24.1 5 25 5.9 25 7V25Z"/>
</svg>