<svg viewBox="0 0 32 32" xmlns="http://www.w3.org/2000/svg">
<path fill-rule="evenodd" clip-rule="evenodd" d="M21 4.17071V2L19 2V4.17071C17.8348 4.58254 17 5.69378 17 7C17 8.30622 17.8348 9.41746 19 9.82929V11.5858L13.8299 16.7559L15.3621 20.6583L17.2237 19.9274L16.1702 17.2441L20 13.4142L23.8298 17.2441L22.7763 19.9274L24.6379 20.6583L26.1701 16.7559L21 11.5858V9.82929C22.1652 9.41746 23 8.30622 23 7C23 5.69378 22.1652 4.58254 21 4.17071ZM21 7C21 7.55228 20.5523 8 20 8C19.4477 8 19 7.55228 19 7C19 6.44772 19.4477 6 20 6C20.5523 6 21 6.44772 21 7Z"/>
<path d="M25 26H2V24H4V20H8V24H25C27.7614 24 30 26.2386 30 29V30H28V29C28 27.3431 26.6569 26 25 26Z"/>
<path d="M5 30C5.55228 30 6 29.5523 6 29C6 28.4477 5.55228 28 5 28C4.44772 28 4 28.4477 4 29C4 29.5523 4.44772 30 5 30Z"/>
<path d="M26 29C26 29.5523 25.5523 30 25 30C24.4477 30 24 29.5523 24 29C24 28.4477 24.4477 28 25 28C25.5523 28 26 28.4477 26 29Z"/>
<path d="M15 30C15.5523 30 16 29.5523 16 29C16 28.4477 15.5523 28 15 28C14.4477 28 14 28.4477 14 29C14 29.5523 14.4477 30 15 30Z"/>
<path d="M22 22V18H18V22H22Z"/>
</svg>