<svg viewBox="0 0 32 32" xmlns="http://www.w3.org/2000/svg">
<path fill-rule="evenodd" clip-rule="evenodd" d="M14 15C14 17.2091 12.2091 19 10 19C7.79086 19 6 17.2091 6 15C6 12.7909 7.79086 11 10 11C12.2091 11 14 12.7909 14 15ZM12 15C12 16.1046 11.1046 17 10 17C8.89543 17 8 16.1046 8 15C8 13.8954 8.89543 13 10 13C11.1046 13 12 13.8954 12 15Z"/>
<path fill-rule="evenodd" clip-rule="evenodd" d="M19 24C20.6569 24 22 22.6569 22 21C22 19.3431 20.6569 18 19 18C17.3431 18 16 19.3431 16 21C16 22.6569 17.3431 24 19 24ZM19 22C19.5523 22 20 21.5523 20 21C20 20.4477 19.5523 20 19 20C18.4477 20 18 20.4477 18 21C18 21.5523 18.4477 22 19 22Z"/>
<path d="M11 22.5C11.8284 22.5 12.5 21.8284 12.5 21C12.5 20.1716 11.8284 19.5 11 19.5C10.1716 19.5 9.5 20.1716 9.5 21C9.5 21.8284 10.1716 22.5 11 22.5Z"/>
<path d="M18.5 14C18.5 14.8284 17.8284 15.5 17 15.5C16.1716 15.5 15.5 14.8284 15.5 14C15.5 13.1716 16.1716 12.5 17 12.5C17.8284 12.5 18.5 13.1716 18.5 14Z"/>
<path d="M24 19C24.8284 19 25.5 18.3284 25.5 17.5C25.5 16.6716 24.8284 16 24 16C23.1716 16 22.5 16.6716 22.5 17.5C22.5 18.3284 23.1716 19 24 19Z"/>
<path fill-rule="evenodd" clip-rule="evenodd" d="M2 16C2 9.06045 7.04904 3.30017 13.674 2.19233L13.6944 2.18893C13.7959 2.17211 13.8978 2.15639 14 2.14176C14.041 2.1359 14.0858 2.13017 14.1336 2.12459C14.3893 2.09478 14.7327 2.06913 15.0552 2.04899C15.4796 2.02247 15.7671 2.46583 15.5769 2.84621C14.1211 5.75773 16.6509 9.06982 19.8428 8.43142L21.5851 8.08297C21.8157 8.03686 22.0408 8.18351 22.0918 8.41303L22.3931 9.76888C22.9208 12.1438 25.4586 13.1979 27.4378 12.3081L27.4477 12.3036C27.7454 12.1687 28.0303 11.9897 28.2937 11.7645C28.4516 11.6295 28.6017 11.478 28.7422 11.3094C28.8801 11.1438 29.1126 11.1506 29.2027 11.3464C29.2604 11.4719 29.3271 11.6382 29.398 11.8559C29.4932 12.148 29.5961 12.5326 29.6955 13.0347C29.7044 13.0798 29.7133 13.1257 29.7222 13.1727C29.7689 13.4206 29.8147 13.6955 29.8582 14C29.9517 14.6532 30 15.3209 30 16C30 23.732 23.732 30 16 30C8.26801 30 2 23.732 2 16ZM28 16C28 22.6274 22.6274 28 16 28C9.37258 28 4 22.6274 4 16C4 10.353 7.90216 5.6145 13.1566 4.33841C12.9907 7.95452 16.2758 11.1844 20.2351 10.3926L20.4741 10.3448C21.3237 13.777 24.9167 15.3651 27.8794 14.2906C27.9588 14.8479 28 15.4186 28 16Z"/>
</svg>