<svg viewBox="0 0 32 32" xmlns="http://www.w3.org/2000/svg">
<path fill-rule="evenodd" clip-rule="evenodd" d="M13.674 2.19233C7.04904 3.30017 2 9.06045 2 16C2 23.732 8.26801 30 16 30C23.732 30 30 23.732 30 16C30 15.3209 29.9517 14.6532 29.8582 14C29.8147 13.6955 29.7689 13.4206 29.7222 13.1727C29.7133 13.1257 29.7044 13.0798 29.6955 13.0347C29.5961 12.5326 29.4932 12.148 29.398 11.8559C29.3271 11.6382 29.2604 11.4719 29.2027 11.3464C29.1126 11.1506 28.8801 11.1438 28.7422 11.3094C28.6017 11.478 28.4516 11.6295 28.2937 11.7645C28.0303 11.9897 27.7454 12.1687 27.4477 12.3036L27.4378 12.3081C25.4586 13.1979 22.9208 12.1438 22.3931 9.76888L22.0918 8.41303C22.0408 8.18351 21.8157 8.03686 21.5851 8.08297L19.8428 8.43142C16.6509 9.06982 14.1211 5.75773 15.5769 2.84621C15.7671 2.46583 15.4796 2.02247 15.0552 2.04899C14.7327 2.06913 14.3893 2.09478 14.1336 2.12459C14.0858 2.13017 14.041 2.1359 14 2.14176C13.8978 2.15639 13.7959 2.17211 13.6944 2.18893L13.674 2.19233ZM13.5 13.5C13.5 15.7091 11.7091 17.5 9.5 17.5C7.29086 17.5 5.5 15.7091 5.5 13.5C5.5 11.2909 7.29086 9.5 9.5 9.5C11.7091 9.5 13.5 11.2909 13.5 13.5ZM19 25C20.6569 25 22 23.6569 22 22C22 20.3431 20.6569 19 19 19C17.3431 19 16 20.3431 16 22C16 23.6569 17.3431 25 19 25ZM12.5 22C12.5 22.8284 11.8284 23.5 11 23.5C10.1716 23.5 9.5 22.8284 9.5 22C9.5 21.1716 10.1716 20.5 11 20.5C11.8284 20.5 12.5 21.1716 12.5 22ZM18.5 14C18.5 14.8284 17.8284 15.5 17 15.5C16.1716 15.5 15.5 14.8284 15.5 14C15.5 13.1716 16.1716 12.5 17 12.5C17.8284 12.5 18.5 13.1716 18.5 14ZM26 17.5C26 18.3284 25.3284 19 24.5 19C23.6716 19 23 18.3284 23 17.5C23 16.6716 23.6716 16 24.5 16C25.3284 16 26 16.6716 26 17.5Z"/>
</svg>