<svg viewBox="0 0 32 32" xmlns="http://www.w3.org/2000/svg">
<path fill-rule="evenodd" clip-rule="evenodd" d="M21.5 14.1569L7.48523 28.1717L6.07234 26.7588L7.83173 25.0001H4.31368L1.82837 22.5148L19.1661 5.1771C19.3267 5.01654 19.5371 4.9154 19.7628 4.89032L28.2481 4.89026C29.1876 4.78587 29.734 5.92284 29.0656 6.59125L27.5 8.15688V16.5C27.5 17.3284 26.8284 18 26 18H25.5V22.4939C25.5039 22.5047 25.5171 22.5324 25.5569 22.5789C25.6337 22.6684 25.765 22.7719 25.9392 22.8673C26.8671 23.3753 27.5 24.363 27.5 25.5C27.5 27.1569 26.1569 28.5 24.5 28.5C23.5945 28.5 22.7261 28.1403 22.0858 27.5L21.7929 27.2071L23.2071 25.7929L23.5 26.0858C23.7652 26.351 24.1249 26.5 24.5 26.5C25.0523 26.5 25.5 26.0523 25.5 25.5C25.5 25.1228 25.2916 24.7928 24.9788 24.6216C24.6685 24.4518 24.3204 24.2093 24.0388 23.8809C23.7528 23.5474 23.5 23.0804 23.5 22.5V18H23C22.1716 18 21.5 17.3284 21.5 16.5V14.1569ZM12.9895 14.1821L18.6213 8.55032L18.6214 14.1821H12.9895ZM23.5 12.1569V16H25.5V10.1569L23.5 12.1569ZM20.6213 6.83935L20.6214 12.2157L26 6.83935L20.6213 6.83935ZM11.2218 16.1821V21.6114L16.6534 16.1821L11.2218 16.1821ZM9.2218 23.0001H4.17149L9.2218 17.9498L9.2218 23.0001Z"/>
</svg>