<svg viewBox="0 0 32 32" xmlns="http://www.w3.org/2000/svg">
<path d="M28.8566 19.1186C29.5899 17.5661 29.9999 15.8309 29.9999 14C29.9999 7.37258 24.6273 2 17.9999 2C15.7973 2 13.7332 2.59344 11.959 3.62916L13.5179 5.05821C14.8661 4.38115 16.3885 4 17.9999 4C23.5227 4 27.9999 8.47715 27.9999 14C27.9999 15.303 27.7507 16.5478 27.2973 17.6893L28.8566 19.1186Z" fill="black"/>
<path fill-rule="evenodd" clip-rule="evenodd" d="M14.0001 10.9899C11.9902 10.9899 10.1758 12.3789 9.94483 14.3444C7.94036 14.5082 6.22006 16.0437 6.22006 18.11V19.22C6.22006 21.3953 8.14557 23.0001 10.3001 23.0001L17.31 23.0002L18.3154 22.9902C20.5831 22.9873 22.6196 21.2002 22.3644 18.8344C22.1463 16.753 20.1456 15.44 18.18 15.44H18.08V14.77C18.08 12.5947 16.1546 10.9899 14.0001 10.9899ZM11.9201 14.7699C11.9201 13.8774 12.7521 12.9899 14.0001 12.9899C15.2456 12.9899 16.08 13.8853 16.08 14.77V17.4401H18.18C19.4138 17.4401 20.2923 18.2462 20.3754 19.0437L20.3758 19.0479C20.479 19.9993 19.6395 20.9901 18.31 20.9901L17.305 21.0001L10.3001 21C9.05456 21 8.22007 20.1048 8.22007 19.22V18.11C8.22007 17.2174 9.05211 16.33 10.3001 16.33H11.9201V14.7699Z" fill="black"/>
<path fill-rule="evenodd" clip-rule="evenodd" d="M26 18C26 24.6274 20.6274 30 14 30C7.37258 30 2 24.6274 2 18C2 11.3726 7.37258 6 14 6C20.6274 6 26 11.3726 26 18ZM24 18C24 23.5228 19.5228 28 14 28C8.47715 28 4 23.5228 4 18C4 12.4772 8.47715 8 14 8C19.5228 8 24 12.4772 24 18Z" fill="black"/>
</svg>