<svg viewBox="0 0 32 32" xmlns="http://www.w3.org/2000/svg">
<path d="M28.8566 19.1186C29.5899 17.5661 29.9999 15.8309 29.9999 14C29.9999 7.37258 24.6273 2 17.9999 2C15.7973 2 13.7332 2.59344 11.959 3.62916L13.5179 5.05821C14.8661 4.38115 16.3885 4 17.9999 4C23.5227 4 27.9999 8.47715 27.9999 14C27.9999 15.303 27.7507 16.5478 27.2973 17.6893L28.8566 19.1186Z" fill="black"/>
<path d="M9.5 15.5C7.84315 15.5 6.5 16.8431 6.5 18.5V20C6.5 21.6569 7.84315 23 9.5 23H19C20.6569 23 22 21.6569 22 20V19.5C22 17.8431 20.6569 16.5 19 16.5H17.5V15C17.5 13.3431 16.1569 12 14.5 12H13.5C11.8431 12 10.5 13.3431 10.5 15V15.5H9.5Z" fill="black"/>
<path fill-rule="evenodd" clip-rule="evenodd" d="M26 18C26 24.6274 20.6274 30 14 30C7.37258 30 2 24.6274 2 18C2 11.3726 7.37258 6 14 6C20.6274 6 26 11.3726 26 18ZM14 28C19.5228 28 24 23.5228 24 18C24 12.4772 19.5228 8 14 8C8.47715 8 4 12.4772 4 18C4 23.5228 8.47715 28 14 28Z" fill="black"/>
</svg>