<svg viewBox="0 0 32 32" xmlns="http://www.w3.org/2000/svg">
<path fill-rule="evenodd" clip-rule="evenodd" d="M26 2H6C3.79086 2 2 3.79086 2 6V26C2 28.2091 3.79086 30 6 30H26C28.2091 30 30 28.2091 30 26V6C30 3.79086 28.2091 2 26 2ZM6 0C2.68629 0 0 2.68629 0 6V26C0 29.3137 2.68629 32 6 32H26C29.3137 32 32 29.3137 32 26V6C32 2.68629 29.3137 0 26 0H6Z"/>
<path fill-rule="evenodd" clip-rule="evenodd" d="M6 10V22C6 23.1046 6.89543 24 8 24H24C25.1046 24 26 23.1046 26 22V10L21 14L16 7L11 14L6 10ZM16 10.4409L11.3999 16.8811L8 14.1613V22H24V14.1612L20.6001 16.8811L16 10.4409Z"/>
</svg>