<svg viewBox="0 0 32 32" xmlns="http://www.w3.org/2000/svg">
<path d="M16.0002 14L27.0502 7.54999C27.0292 7.53741 27.0082 7.5213 26.9865 7.50463C26.9565 7.48156 26.925 7.45741 26.8902 7.43999L16.8902 2.44999C16.3302 2.16999 15.6602 2.16999 15.1002 2.44999L5.1102 7.44999C5.07279 7.46869 5.04315 7.49129 5.0116 7.51534C4.99254 7.52987 4.97279 7.54493 4.9502 7.55999L16.0002 14.01V14Z" fill="black"/>
<path d="M17 15.42V29.5L26.89 24.55C27.57 24.21 28 23.52 28 22.76V9.23999C28 9.19596 27.9921 9.15194 27.9837 9.10543C27.9788 9.07799 27.9737 9.04967 27.97 9.01999L17 15.42Z" fill="black"/>
<path d="M4.03 9.01999L15 15.42V29.51L5.11 24.56C4.43 24.22 4 23.53 4 22.77V9.23999C4 9.19865 4.00801 9.15999 4.01575 9.12261C4.02299 9.08765 4.03 9.05382 4.03 9.01999Z" fill="black"/>
</svg>