<svg viewBox="0 0 32 32" xmlns="http://www.w3.org/2000/svg">
<path fill-rule="evenodd" clip-rule="evenodd" d="M10.1056 10.9472C9.428 11.286 9 11.9785 9 12.7361V18.4081C9 19.0886 9.34604 19.7225 9.91849 20.0905L14.9185 23.3048C15.5773 23.7283 16.4227 23.7283 17.0815 23.3048L22.0815 20.0905C22.654 19.7225 23 19.0886 23 18.4081V12.7361C23 11.9785 22.572 11.286 21.8944 10.9472L16.8944 8.44723C16.3314 8.1657 15.6686 8.1657 15.1056 8.44723L10.1056 10.9472ZM19.6459 12.059L15.9999 13.882L12.3541 12.059L16 10.2361L19.6459 12.059ZM21 13.618V18.4081L17 20.9795V15.618L21 13.618ZM11 18.4081L15 20.9795V15.6181L11 13.6181V18.4081Z" fill="black"/>
<path fill-rule="evenodd" clip-rule="evenodd" d="M3 5C3 3.89543 3.89543 3 5 3H27C28.1046 3 29 3.89543 29 5V27C29 28.1046 28.1046 29 27 29H5C3.89543 29 3 28.1046 3 27V5ZM5 5H27V27H5L5 5Z" fill="black"/>
</svg>