<svg viewBox="0 0 32 32" xmlns="http://www.w3.org/2000/svg">
<path d="M28 2C29.1023 2 30 2.89772 30 4V20H28V4H12V2H28Z" fill="black"/>
<path d="M18 19.9828V16.1181L15 17.6181V21.9516L18 19.9828Z" fill="black"/>
<path d="M13 21.9516L10 19.9828V16.1181L13 17.6181V21.9516Z" fill="black"/>
<path d="M14 15.882L16.6093 14.5773L14 13.2455L11.3907 14.5773L14 15.882Z" fill="black"/>
<path fill-rule="evenodd" clip-rule="evenodd" d="M2 7C2 6.44772 2.44772 6 3 6H25C25.5523 6 26 6.44772 26 7V29C26 29.5523 25.5523 30 25 30H3C2.44772 30 2 29.5523 2 29V7ZM9.09076 13.5058C8.42135 13.8475 8 14.5356 8 15.2872V19.9828C8 20.6567 8.33932 21.2852 8.90269 21.6549L12.9027 24.2799C13.5689 24.7171 14.4311 24.7171 15.0973 24.2799L19.0973 21.6549C19.6607 21.2852 20 20.6567 20 19.9828V15.2872C20 14.5356 19.5787 13.8475 18.9092 13.5058L14.9092 11.4641C14.3381 11.1726 13.6619 11.1726 13.0908 11.4641L9.09076 13.5058Z" fill="black"/>
</svg>