<svg viewBox="0 0 32 32" xmlns="http://www.w3.org/2000/svg">
<path d="M28.5 22.9999C28.5 22.4399 28.4 21.8999 28.23 21.3999L30.01 20.3599L29 18.6299L27.22 19.6699C26.52 18.8799 25.58 18.3099 24.51 18.0999V15.9999H22.51V18.0999C21.44 18.3199 20.51 18.8899 19.8 19.6799L18.01 18.6399L17 20.3699L18.79 21.4099C18.62 21.9099 18.51 22.4399 18.51 22.9999C18.51 23.5599 18.61 24.0999 18.78 24.5999L17 25.6399L18.01 27.3699L19.79 26.3299C20.49 27.1199 21.43 27.6899 22.5 27.8999V29.9999H24.5V27.8999C25.57 27.6799 26.5 27.1099 27.21 26.3199L29 27.3599L30.01 25.6299L28.22 24.5899C28.39 24.0899 28.5 23.5599 28.5 22.9999ZM23.5 25.9999C21.84 25.9999 20.5 24.6599 20.5 22.9999C20.5 21.3399 21.84 19.9999 23.5 19.9999C25.16 19.9999 26.5 21.3399 26.5 22.9999C26.5 24.6599 25.16 25.9999 23.5 25.9999Z"/>
<path fill-rule="evenodd" clip-rule="evenodd" d="M2 17.4099V8.58994C2 7.85994 2.39 7.18994 3.02 6.83994L11.03 2.24994C11.64 1.91994 12.36 1.91994 12.96 2.24994L21 6.83994C21.63 7.19994 22.02 7.86994 22.02 8.58994V13.9999H20V9.67994L13 13.5899V21.1699L14.6436 20.2871L15.5684 22.1368L13.09 23.4999C12.76 23.7099 12.39 23.8099 12.01 23.8099C11.63 23.8099 11.26 23.7099 10.93 23.4999L2.93 19.0999C2.35 18.7299 2 18.0999 2 17.4099ZM4 9.67994V17.4099L11 21.1699V13.5899L4 9.67994ZM18.93 7.98994L11.99 3.99994L5.07 7.98994L12 11.8599L18.93 7.98994Z"/>
</svg>