<svg viewBox="0 0 32 32" xmlns="http://www.w3.org/2000/svg">
<path d="M4 9.58994V21.4099C4 22.0999 4.35 22.7299 4.93 23.0999L14.93 29.4999C15.26 29.7099 15.63 29.8099 16.01 29.8099C16.39 29.8099 16.76 29.7099 17.09 29.4999L27.09 23.0999C27.67 22.7299 28.02 22.0999 28.02 21.4099V9.58994C28.02 8.86994 27.63 8.19994 27 7.83994L16.96 2.24994C16.36 1.91994 15.64 1.91994 15.03 2.24994L5.02 7.83994C4.39 8.18994 4 8.85994 4 9.58994ZM6 21.4099V10.6799L15 15.5899V27.1699L6 21.4099ZM17 27.1699V15.5899L26 10.6799V21.4099L17 27.1699ZM15.99 3.99994L24.93 8.98994L16 13.8599L7.07 8.98994L15.99 3.99994Z"/>
</svg>