<svg viewBox="0 0 32 32" xmlns="http://www.w3.org/2000/svg">
<path d="M28.5 22.9999C28.5 22.4399 28.4 21.8999 28.23 21.3999L30.01 20.3599L29 18.6299L27.22 19.6699C26.52 18.8799 25.58 18.3099 24.51 18.0999V15.9999H22.51V18.0999C21.44 18.3199 20.51 18.8899 19.8 19.6799L18.01 18.6399L17 20.3699L18.79 21.4099C18.62 21.9099 18.51 22.4399 18.51 22.9999C18.51 23.5599 18.61 24.0999 18.78 24.5999L17 25.6399L18.01 27.3699L19.79 26.3299C20.49 27.1199 21.43 27.6899 22.5 27.8999V29.9999H24.5V27.8999C25.57 27.6799 26.5 27.1099 27.21 26.3199L29 27.3599L30.01 25.6299L28.22 24.5899C28.39 24.0899 28.5 23.5599 28.5 22.9999ZM23.5 25.9999C21.84 25.9999 20.5 24.6599 20.5 22.9999C20.5 21.3399 21.84 19.9999 23.5 19.9999C25.16 19.9999 26.5 21.3399 26.5 22.9999C26.5 24.6599 25.16 25.9999 23.5 25.9999Z" fill="black"/>
<path d="M28.5 22.9999C28.5 22.4399 28.4 21.8999 28.23 21.3999L30.01 20.3599L29 18.6299L27.22 19.6699C26.52 18.8799 25.58 18.3099 24.51 18.0999V15.9999H22.51V18.0999C21.44 18.3199 20.51 18.8899 19.8 19.6799L18.01 18.6399L17 20.3699L18.79 21.4099C18.62 21.9099 18.51 22.4399 18.51 22.9999C18.51 23.5599 18.61 24.0999 18.78 24.5999L17 25.6399L18.01 27.3699L19.79 26.3299C20.49 27.1199 21.43 27.6899 22.5 27.8999V29.9999H24.5V27.8999C25.57 27.6799 26.5 27.1099 27.21 26.3199L29 27.3599L30.01 25.6299L28.22 24.5899C28.39 24.0899 28.5 23.5599 28.5 22.9999ZM23.5 25.9999C21.84 25.9999 20.5 24.6599 20.5 22.9999C20.5 21.3399 21.84 19.9999 23.5 19.9999C25.16 19.9999 26.5 21.3399 26.5 22.9999C26.5 24.6599 25.16 25.9999 23.5 25.9999Z" fill="black"/>
<path d="M2 17.4099V8.66978L3.56622 9.51476L11 13.592V23.5425C10.9765 23.5289 10.9531 23.5147 10.93 23.4999L2.93 19.0999C2.35 18.7299 2 18.0999 2 17.4099Z" fill="black"/>
<path d="M4.52498 7.75952L2.92496 6.8963C2.95599 6.87669 2.98768 6.8579 3.02 6.83994L11.03 2.24994C11.64 1.91994 12.36 1.91994 12.96 2.24994L21 6.83994C21.0578 6.87296 21.1135 6.90858 21.1672 6.94662L19.0139 8.11798L19.0074 8.12152L12.0062 11.8628L4.52498 7.75952Z" fill="black"/>
<path d="M19.9566 9.88195L22.02 8.75944V14.0604C21.1523 14.2789 20.51 15.0644 20.51 15.9999V16.1405C20.51 16.4718 20.3164 16.7708 20.0304 16.938C19.7409 17.1072 19.3836 17.1249 19.0936 16.9565L19.0147 16.9106C18.0611 16.3566 16.8389 16.6791 16.2828 17.6316L15.2728 19.3616C14.7484 20.2598 15.0032 21.3979 15.8306 21.9926L13.09 23.4999C13.0603 23.5188 13.0303 23.5368 13 23.5539V13.5994L19.9566 9.88195Z" fill="black"/>
</svg>