<svg viewBox="0 0 32 32" xmlns="http://www.w3.org/2000/svg">
<path d="M19.6923 17.8303V14.2628L16.9231 15.6474V19.6476L19.6923 17.8303Z" fill="black"/>
<path d="M15.0769 19.6476L12.3077 17.8303V14.2628L15.0769 15.6474V19.6476Z" fill="black"/>
<path d="M16 14.0449L18.4086 12.8406L16 11.6112L13.5914 12.8406L16 14.0449Z" fill="black"/>
<path fill-rule="evenodd" clip-rule="evenodd" d="M4 4.92308C4 4.41328 4.41328 4 4.92308 4H27.0769C27.5867 4 28 4.41328 28 4.92308V27.0769C28 27.5867 27.5867 28 27.0769 28H4.92308C4.41328 28 4 27.5867 4 27.0769V4.92308ZM11.4684 11.8515C10.8505 12.1669 10.4615 12.8021 10.4615 13.4958V17.8303C10.4615 18.4523 10.7748 19.0325 11.2948 19.3738L14.9871 21.7968C15.6021 22.2004 16.3979 22.2004 17.0129 21.7968L20.7052 19.3738C21.2252 19.0325 21.5385 18.4523 21.5385 17.8303V13.4958C21.5385 12.8021 21.1495 12.1669 20.5316 11.8515L16.8393 9.96687C16.3121 9.69779 15.6879 9.69779 15.1607 9.96687L11.4684 11.8515Z" fill="black"/>
</svg>