<svg viewBox="0 0 32 32" xmlns="http://www.w3.org/2000/svg">
<path d="M30 4C30 2.89772 29.1023 2 28 2H12V4H28V20H30V4Z" fill="black"/>
<path fill-rule="evenodd" clip-rule="evenodd" d="M8 15.2871C8 14.5356 8.42135 13.8475 9.09076 13.5058L13.0908 11.4641C13.6619 11.1726 14.3381 11.1726 14.9092 11.4641L18.9092 13.5058C19.5787 13.8475 20 14.5356 20 15.2871V19.9828C20 20.6567 19.6607 21.2852 19.0973 21.6549L15.0973 24.2799C14.4311 24.7171 13.5689 24.7171 12.9027 24.2799L8.90269 21.6549C8.33932 21.2852 8 20.6567 8 19.9828V15.2871ZM18 19.9828V16.118L15 17.618V21.9516L18 19.9828ZM13 21.9516L10 19.9828V16.1181L13 17.6181V21.9516ZM14 13.2455L11.3907 14.5773L13.9999 15.882L16.6093 14.5773L14 13.2455Z" fill="black"/>
<path fill-rule="evenodd" clip-rule="evenodd" d="M26 8C26 6.89543 25.1046 6 24 6H4C2.89543 6 2 6.89543 2 8V28C2 29.1046 2.89543 30 4 30H24C25.1046 30 26 29.1046 26 28V8ZM4 8H24V28H4V8Z" fill="black"/>
</svg>