<svg viewBox="0 0 32 32" xmlns="http://www.w3.org/2000/svg">
<path fill-rule="evenodd" clip-rule="evenodd" d="M20.96 3.02012C21.89 2.22012 23.05 1.84012 24.15 2.01012C25 2.14012 27 2.78012 27 6.00012V27.0001C27 28.5401 25.54 30.0001 24 30.0001C22.46 30.0001 21 28.5401 21 27.0001V18.4101L19 16.4101L18.98 8.00012C18.98 5.89012 19.68 4.12012 20.96 3.02012ZM24 28.0001C24.45 28.0001 25 27.4501 25 27.0001V6.01012C25 4.17012 24.13 4.04012 23.85 4.00012C23.33 3.93012 22.75 4.13012 22.26 4.55012C21.44 5.26012 20.98 6.49012 20.98 8.01012L21 15.5901L23 17.5901V27.0001C23 27.4501 23.55 28.0001 24 28.0001ZM13 14.59L11 16.59V27C11 27.45 10.45 28 10 28C9.55 28 9 27.45 9 27V16.59L7 14.59V2H5V15.41L7 17.41V27C7 28.54 8.46 30 10 30C11.54 30 13 28.54 13 27V17.41L15 15.41V2H13V14.59ZM11 2H9V14H11V2Z"/>
</svg>