<svg viewBox="0 0 32 32" xmlns="http://www.w3.org/2000/svg">
<path fill-rule="evenodd" clip-rule="evenodd" d="M2 7C2 5.34315 3.34315 4 5 4C6.65686 4 8 5.34315 8 7C8 8.30622 7.16519 9.41746 6 9.82929V12H9V14L4 14L4 9.82929C2.83481 9.41746 2 8.30622 2 7ZM4 7C4 6.44772 4.44772 6 5 6C5.55229 6 6 6.44772 6 7C6 7.55228 5.55229 8 5 8C4.44772 8 4 7.55228 4 7Z"/>
<path fill-rule="evenodd" clip-rule="evenodd" d="M4 18H8V20H6V22.1707C7.16519 22.5825 8 23.6938 8 25C8 26.6569 6.65685 28 5 28C3.34315 28 2 26.6569 2 25C2 23.6938 2.83481 22.5825 4 22.1707L4 18ZM5 24C4.44772 24 4 24.4477 4 25C4 25.5523 4.44772 26 5 26C5.55229 26 6 25.5523 6 25C6 24.4477 5.55229 24 5 24Z"/>
<path fill-rule="evenodd" clip-rule="evenodd" d="M28 14V9.82929C29.1652 9.41746 30 8.30622 30 7C30 5.34315 28.6569 4 27 4C25.3431 4 24 5.34315 24 7C24 8.30622 24.8348 9.41746 26 9.82929V12H23V14L28 14ZM28 7C28 6.44772 27.5523 6 27 6C26.4477 6 26 6.44772 26 7C26 7.55228 26.4477 8 27 8C27.5523 8 28 7.55228 28 7Z"/>
<path fill-rule="evenodd" clip-rule="evenodd" d="M28 18H24V20H26V22.1707C24.8348 22.5825 24 23.6938 24 25C24 26.6569 25.3431 28 27 28C28.6569 28 30 26.6569 30 25C30 23.6938 29.1652 22.5825 28 22.1707V18ZM27 24C27.5523 24 28 24.4477 28 25C28 25.5523 27.5523 26 27 26C26.4477 26 26 25.5523 26 25C26 24.4477 26.4477 24 27 24Z"/>
<path fill-rule="evenodd" clip-rule="evenodd" d="M11 15.4375C11 14.7298 11.5443 14 12.4 14H13V12.5C13 11.1193 14.1193 10 15.5 10H16.5C17.8807 10 19 11.1193 19 12.5V14H19.6C20.4557 14 21 14.7298 21 15.4375V21.5625C21 22.2702 20.4557 23 19.6 23H12.4C11.5443 23 11 22.2702 11 21.5625V15.4375ZM13 16V21H19V16H13ZM17 14V12.5C17 12.2239 16.7761 12 16.5 12H15.5C15.2239 12 15 12.2239 15 12.5V14H17Z"/>
</svg>