<svg viewBox="0 0 32 32" xmlns="http://www.w3.org/2000/svg">
<path d="M15.4292 20.1809L22.3334 15.3788L23.4754 17.0207L16.5712 21.8228L15.4292 20.1809Z"/>
<path fill-rule="evenodd" clip-rule="evenodd" d="M2 19.4C2 11.76 8.02 6 16 6C23.98 6 30 11.76 30 19.4C30 21.4 29.58 23.74 28.93 25.37L28.68 26H3.32L3.07 25.37C2.42 23.74 2 21.4 2 19.4ZM4 19.4C4 20.89 4.27 22.65 4.7 24H27.3C27.73 22.65 28 20.89 28 19.4C28 19 27.98 18.62 27.94 18.24L25.24 19.23L24.55 17.35L27.56 16.24C27 14.24 25.91 12.49 24.42 11.12L22.72 13.56L21.08 12.42L22.83 9.91C21.17 8.85 19.18 8.2 17 8.04V11H15V8.04C12.82 8.2 10.83 8.85 9.17 9.91L10.92 12.42L9.28 13.56L7.58 11.12C6.09 12.49 5 14.24 4.44 16.24L7.45 17.35L6.76 19.23L4.06 18.24C4.02 18.62 4 19.01 4 19.4Z"/>
</svg>