<svg viewBox="0 0 32 32" xmlns="http://www.w3.org/2000/svg">
<path d="M16 6C8.02 6 2 11.76 2 19.4C2 21.4 2.42 23.74 3.07 25.37L3.32 26H28.68L28.93 25.37C29.58 23.74 30 21.4 30 19.4C30 11.76 23.98 6 16 6ZM4.44 16.25L7.45 17.36L6.76 19.24L4.06 18.25C4.13 17.56 4.26 16.9 4.44 16.26V16.25ZM24.42 11.14L22.72 13.57L21.08 12.43L22.83 9.92C23.4 10.28 23.93 10.69 24.42 11.14ZM23.47 17.02L16.57 21.82L15.43 20.18L22.33 15.38L23.47 17.02ZM16 8C16.34 8 16.67 8.02 17 8.05V11H15V8.04C15.33 8.02 15.66 8 16 8ZM10.92 12.43L9.28 13.57L7.58 11.13C8.07 10.68 8.6 10.27 9.17 9.91L10.92 12.43ZM24.55 17.36L27.55 16.25C27.73 16.89 27.86 17.55 27.93 18.24L25.24 19.23L24.55 17.35V17.36Z" fill="black"/>
</svg>