<svg viewBox="0 0 32 32" xmlns="http://www.w3.org/2000/svg">
<path fill-rule="evenodd" clip-rule="evenodd" d="M14 12.757C7.92487 12.757 3 10.5728 3 7.8785C3 5.18418 7.92487 3 14 3C20.0751 3 25 5.18418 25 7.8785C25 10.5728 20.0751 12.757 14 12.757ZM21.8605 13.6395C19.6482 14.4657 16.9042 14.9252 14 14.9252C10.725 14.9252 7.65386 14.3409 5.31902 13.3054C4.53762 12.9588 3.72084 12.5035 3 11.9307V17.3619C3 17.7555 3.19017 18.1911 3.73244 18.6715C4.28408 19.1602 5.12651 19.6225 6.21494 20.0187C8.38553 20.8087 11.2762 21.243 14 21.243C14.159 21.243 14.3185 21.2415 14.4785 21.2385C14.5761 21.0011 14.7213 20.7787 14.9142 20.5858L21.8605 13.6395ZM14.9142 23.4142L14.8972 23.3969C14.5963 23.4064 14.2969 23.4112 14 23.4112C11.0808 23.4112 7.92147 22.9511 5.45281 22.0526C4.55487 21.7258 3.71367 21.3286 3 20.8504V26.1189C3 26.4442 3.17009 26.8554 3.72632 27.3408C4.28384 27.8274 5.13352 28.2975 6.22458 28.7061C8.40007 29.5207 11.2896 30 14 30C16.0241 30 18.1481 29.7327 20 29.2581V26H18.3284C17.798 26 17.2893 25.7893 16.9142 25.4142L14.9142 23.4142ZM17.7071 23.6213L22 19.3284V29.9142H24V19.3284L28.2929 23.6213L29.7071 22.2071L23 15.5L16.2929 22.2071L17.7071 23.6213Z" fill="black"/>
</svg>