<svg viewBox="0 0 32 32" xmlns="http://www.w3.org/2000/svg">
<path d="M3 7.8785C3 10.5728 7.92487 12.757 14 12.757C20.0751 12.757 25 10.5728 25 7.8785C25 5.18418 20.0751 3 14 3C7.92487 3 3 5.18418 3 7.8785Z" fill="black"/>
<path d="M14 14.9252C17.275 14.9252 20.3461 14.3409 22.681 13.3054C23.4624 12.9588 24.2792 12.5035 25 11.9307V14H22C20.8954 14 20 14.8954 20 16V19.5H18.3284C17.798 19.5 17.2893 19.7107 16.9142 20.0858L15.8197 21.1803C15.2114 21.2218 14.6016 21.243 14 21.243C11.2762 21.243 8.38553 20.8087 6.21494 20.0187C5.12651 19.6225 4.28408 19.1602 3.73244 18.6715C3.19017 18.1911 3 17.7555 3 17.3619V11.9307C3.72084 12.5035 4.53762 12.9588 5.31902 13.3054C7.65386 14.3409 10.725 14.9252 14 14.9252Z" fill="black"/>
<path d="M14.8426 24.9133C14.4443 24.494 14.2628 23.946 14.2966 23.4096C14.1975 23.4107 14.0986 23.4112 14 23.4112C11.0808 23.4112 7.92147 22.9511 5.45281 22.0526C4.55486 21.7258 3.71367 21.3286 3 20.8504V26.1189C3 26.4442 3.17009 26.8554 3.72632 27.3408C4.28384 27.8274 5.13352 28.2975 6.22458 28.7061C8.40007 29.5207 11.2896 30 14 30C15.7234 30 17.5192 29.8062 19.1579 29.4557L14.8426 24.9133Z" fill="black"/>
<path d="M17.7071 22.2929L22 26.5858V16H24V26.5858L28.2929 22.2929L29.7071 23.7071L23 30.4142L16.2929 23.7071L17.7071 22.2929Z" fill="black"/>
</svg>