<svg viewBox="0 0 32 32" xmlns="http://www.w3.org/2000/svg">
<path fill-rule="evenodd" clip-rule="evenodd" d="M4 11.3963C4.54209 11.8009 5.1598 12.1513 5.80802 12.4459C7.95605 13.4223 10.8533 14 14 14C17.1467 14 20.044 13.4223 22.192 12.4459C22.8402 12.1513 23.4579 11.8009 24 11.3963V12.5H26V8C26 5.98601 24.2497 4.48944 22.192 3.5541C20.044 2.57772 17.1467 2 14 2C10.8533 2 7.95605 2.57772 5.80802 3.5541C3.83634 4.45032 2.14696 5.8618 2.00908 7.75H2V24.42C2 25.4949 2.57913 26.3757 3.3344 27.0444C4.0885 27.7122 5.10418 28.2517 6.22106 28.676C8.46084 29.5271 11.334 30 14 30C14.3307 30 14.6645 29.9927 15 29.9784L15.1114 29.9733L15 27.9764C15 27.9764 14.9223 27.9799 14.8835 27.9815C14.5876 27.9938 14.2927 28 14 28C11.536 28 8.90915 27.5579 6.93144 26.8065C5.93957 26.4296 5.16713 25.9959 4.66029 25.5471C4.15462 25.0993 4 24.7201 4 24.42V19.6379C4.64879 20.079 5.41351 20.4454 6.22982 20.7468C8.14598 21.4544 10.5199 21.8673 12.8248 21.9728L12.9416 21.9779L13 19.9786C13 19.9786 12.9194 19.9751 12.879 19.9732C10.7507 19.8725 8.60016 19.4901 6.92268 18.8707C5.93319 18.5052 5.16734 18.0788 4.66585 17.628C4.17288 17.1849 4 16.7831 4 16.42V11.3963ZM24 8C24 8.74743 23.2878 9.75087 21.3644 10.6252C19.5312 11.4584 16.9284 12 14 12C11.0716 12 8.46882 11.4584 6.63563 10.6252C4.71217 9.75087 4 8.74743 4 8C4 7.25257 4.71217 6.24913 6.63563 5.37483C8.46882 4.54156 11.0716 4 14 4C16.9284 4 19.5312 4.54156 21.3644 5.37483C23.2878 6.24913 24 7.25257 24 8Z" fill="black"/>
<path d="M22 26.5858L17.7071 22.2929L16.2929 23.7071L23 30.4142L29.7071 23.7071L28.2929 22.2929L24 26.5858V16H22V26.5858Z" fill="black"/>
</svg>