<svg viewBox="0 0 32 32" xmlns="http://www.w3.org/2000/svg">
<path d="M24.681 13.3054C22.3461 14.3409 19.275 14.9252 16 14.9252C12.725 14.9252 9.65386 14.3409 7.31902 13.3054C6.53762 12.9588 5.72084 12.5035 5 11.9307V17.3619C5 17.7555 5.19017 18.1911 5.73244 18.6715C6.28408 19.1602 7.12651 19.6225 8.21494 20.0187C10.3855 20.8087 13.2762 21.243 16 21.243C18.7238 21.243 21.6145 20.8087 23.7851 20.0187C24.8735 19.6225 25.7159 19.1602 26.2676 18.6715C26.8098 18.1911 27 17.7555 27 17.3619V11.9307C26.2792 12.5035 25.4624 12.9588 24.681 13.3054Z" fill="black"/>
<path d="M16 12.757C9.92487 12.757 5 10.5728 5 7.8785C5 5.18418 9.92487 3 16 3C22.0751 3 27 5.18418 27 7.8785C27 10.5728 22.0751 12.757 16 12.757Z" fill="black"/>
<path d="M5 20.8504V26.1189C5 26.4442 5.17009 26.8554 5.72632 27.3408C6.28384 27.8274 7.13352 28.2975 8.22458 28.7061C10.4001 29.5207 13.2896 30 16 30C18.7104 30 21.5999 29.5207 23.7754 28.7061C24.8665 28.2975 25.7162 27.8274 26.2737 27.3408C26.8299 26.8554 27 26.4442 27 26.1189V20.8504C26.2863 21.3286 25.4451 21.7258 24.5472 22.0526C22.0785 22.9511 18.9192 23.4112 16 23.4112C13.0808 23.4112 9.92147 22.9511 7.45281 22.0526C6.55487 21.7258 5.71367 21.3286 5 20.8504Z" fill="black"/>
</svg>