<svg viewBox="0 0 32 32" xmlns="http://www.w3.org/2000/svg">
<path fill-rule="evenodd" clip-rule="evenodd" d="M5.32884 18.8654C4.56087 18.1751 4 17.2719 4 16.17H6C6 16.5331 6.17288 16.9349 6.66585 17.378C7.16734 17.8288 7.93319 18.2552 8.92268 18.6207C10.8959 19.3494 13.5238 19.75 16 19.75C18.4762 19.75 21.1041 19.3494 23.0773 18.6207C24.0668 18.2552 24.8327 17.8288 25.3342 17.378C25.8271 16.9349 26 16.5331 26 16.17H28C28 17.2719 27.4391 18.1751 26.6712 18.8654C25.9117 19.5481 24.8894 20.0835 23.7702 20.4968C21.5259 21.3256 18.6538 21.75 16 21.75C13.3462 21.75 10.4741 21.3256 8.22982 20.4968C7.11056 20.0835 6.08828 19.5481 5.32884 18.8654Z"/>
<path fill-rule="evenodd" clip-rule="evenodd" d="M4 24.17V7.5H6V24.17C6 24.4701 6.15462 24.8493 6.66029 25.2971C7.16713 25.7459 7.93957 26.1796 8.93144 26.5565C10.9092 27.3079 13.536 27.75 16 27.75C18.464 27.75 21.0908 27.3079 23.0686 26.5565C24.0604 26.1796 24.8329 25.7459 25.3397 25.2971C25.8454 24.8493 26 24.4701 26 24.17V7.5H28V24.17C28 25.2449 27.4209 26.1257 26.6656 26.7944C25.9115 27.4622 24.8958 28.0017 23.7789 28.426C21.5392 29.2771 18.666 29.75 16 29.75C13.334 29.75 10.4608 29.2771 8.22106 28.426C7.10418 28.0017 6.0885 27.4622 5.3344 26.7944C4.57913 26.1257 4 25.2449 4 24.17Z"/>
<path fill-rule="evenodd" clip-rule="evenodd" d="M8.63563 5.12483C6.71217 5.99913 6 7.00257 6 7.75C6 8.49743 6.71217 9.50087 8.63563 10.3752C10.4688 11.2084 13.0716 11.75 16 11.75C18.9284 11.75 21.5312 11.2084 23.3644 10.3752C25.2878 9.50087 26 8.49743 26 7.75C26 7.00257 25.2878 5.99913 23.3644 5.12483C21.5312 4.29156 18.9284 3.75 16 3.75C13.0716 3.75 10.4688 4.29156 8.63563 5.12483ZM7.80802 3.3041C9.95605 2.32772 12.8533 1.75 16 1.75C19.1467 1.75 22.044 2.32772 24.192 3.3041C26.2497 4.23944 28 5.73601 28 7.75C28 9.76399 26.2497 11.2606 24.192 12.1959C22.044 13.1723 19.1467 13.75 16 13.75C12.8533 13.75 9.95605 13.1723 7.80802 12.1959C5.75027 11.2606 4 9.76399 4 7.75C4 5.73601 5.75027 4.23944 7.80802 3.3041Z"/>
</svg>