<svg viewBox="0 0 32 32" xmlns="http://www.w3.org/2000/svg">
<path fill-rule="evenodd" clip-rule="evenodd" d="M2 7.75H2.00908C2.14696 5.8618 3.83634 4.45032 5.80802 3.5541C7.95605 2.57772 10.8533 2 14 2C17.1467 2 20.044 2.57772 22.192 3.5541C24.1637 4.45032 25.853 5.8618 25.9909 7.75H26V12.5H24V11.3963C23.4579 11.8009 22.8402 12.1513 22.192 12.4459C20.044 13.4223 17.1467 14 14 14C10.8533 14 7.95605 13.4223 5.80802 12.4459C5.1598 12.1513 4.54209 11.8009 4 11.3963V16.42C4 16.7831 4.17288 17.1849 4.66585 17.628C5.16734 18.0788 5.93319 18.5052 6.92268 18.8707C8.60016 19.4901 10.7507 19.8725 12.879 19.9732C12.9194 19.9751 13 19.9786 13 19.9786L12.9416 21.9779L12.8248 21.9728C10.5199 21.8673 8.14598 21.4544 6.22982 20.7468C5.41351 20.4454 4.64879 20.079 4 19.6379V24.42C4 24.7201 4.15462 25.0993 4.66029 25.5471C5.16713 25.9959 5.93957 26.4296 6.93144 26.8065C8.90915 27.5579 11.536 28 14 28C14.2927 28 14.5876 27.9938 14.8835 27.9815C14.9223 27.9799 15 27.9764 15 27.9764L15.1114 29.9733L15 29.9784C14.6645 29.9927 14.3307 30 14 30C11.334 30 8.46084 29.5271 6.22106 28.676C5.10418 28.2517 4.0885 27.7122 3.3344 27.0444C2.57913 26.3757 2 25.4949 2 24.42V7.75ZM6.63563 5.37483C4.71217 6.24913 4 7.25257 4 8C4 8.74743 4.71217 9.75087 6.63563 10.6252C8.46882 11.4584 11.0716 12 14 12C16.9284 12 19.5312 11.4584 21.3644 10.6252C23.2878 9.75087 24 8.74743 24 8C24 7.25257 23.2878 6.24913 21.3644 5.37483C19.5312 4.54156 16.9284 4 14 4C11.0716 4 8.46882 4.54156 6.63563 5.37483Z" fill="black"/>
<path d="M17.7071 23.6213L22 19.3285V29.9142H24V19.3284L28.2929 23.6213L29.7071 22.2071L23 15.5L16.2929 22.2071L17.7071 23.6213Z" fill="black"/>
</svg>