<svg viewBox="0 0 32 32" xmlns="http://www.w3.org/2000/svg">
<path d="M11 6H9V8H11V6Z" fill="black"/>
<path d="M14 6H23V8H14V6Z" fill="black"/>
<path fill-rule="evenodd" clip-rule="evenodd" d="M25 2H7C5.9 2 5 2.9 5 4V10.47L5.59 11.03L5 11.64V18C5 19.1 5.9 20 7 20H14V18H7V12.45L7.43 12H24.58L25 12.43V13H27V11.61L26.38 10.98L27 10.32V4C27 2.9 26.1 2 25 2ZM7 4H25V9.54L24.57 10H7.4L7 9.62V4Z" fill="black"/>
<path d="M16.5 14V16H14V14H16.5Z" fill="black"/>
<path d="M11 14H9V16H11V14Z" fill="black"/>
<path fill-rule="evenodd" clip-rule="evenodd" d="M7 24C7 22.8955 7.89543 22 9 22H13C14.1046 22 15 22.8955 15 24V25H22V18.4142L19.7071 20.7071L18.2929 19.2929L23 14.5858L27.7071 19.2929L26.2929 20.7071L24 18.4142V27H15V28C15 29.1046 14.1046 30 13 30H9C7.89543 30 7 29.1046 7 28V24ZM9 28V24H13V28H9Z" fill="black"/>
</svg>