<svg viewBox="0 0 32 32" xmlns="http://www.w3.org/2000/svg">
<path d="M10 6C7.79086 6 6 7.79086 6 10V12C6 14.2091 7.79086 16 10 16H18.7574L21.5858 13.1716C22.3668 12.3905 23.6332 12.3905 24.4142 13.1716L27.0918 15.8492C28.7703 15.374 30 13.8306 30 12C30 9.79086 28.2091 8 26 8H24V6C24 3.79086 22.2091 2 20 2H15C12.7909 2 11 3.79086 11 6H10Z" fill="black"/>
<path fill-rule="evenodd" clip-rule="evenodd" d="M27.7071 19.2929L23 14.5858L18.2929 19.2929L19.7071 20.7071L22 18.4142V25H15V24C15 22.8954 14.1046 22 13 22H9C7.89543 22 7 22.8954 7 24V28C7 29.1046 7.89543 30 9 30H13C14.1046 30 15 29.1046 15 28V27H24V18.4142L26.2929 20.7071L27.7071 19.2929ZM9 24V28H13V24H9Z" fill="black"/>
</svg>