<svg viewBox="0 0 32 32" xmlns="http://www.w3.org/2000/svg">
<path fill-rule="evenodd" clip-rule="evenodd" d="M6 2H26C26.55 2 27 2.45 27 3V9C27 9.55 26.55 10 26 10H6C5.45 10 5 9.55 5 9V3C5 2.45 5.45 2 6 2ZM9 7H11V5H9V7ZM14 7H23V5H14V7Z" fill="black"/>
<path fill-rule="evenodd" clip-rule="evenodd" d="M6 12H26C26.55 12 27 12.45 27 13V15.7574L23.7071 12.4645C23.3166 12.0739 22.6834 12.0739 22.2929 12.4645L19.7574 15H14V17H17.7574L16.1716 18.5858C15.781 18.9763 15.781 19.6095 16.1716 20L6 20C5.45 20 5 19.55 5 19V13C5 12.45 5.45 12 6 12ZM9 17H11V15H9V17Z" fill="black"/>
<path fill-rule="evenodd" clip-rule="evenodd" d="M7 24C7 22.8955 7.89543 22 9 22H13C14.1046 22 15 22.8955 15 24V25H22V18.4142L19.7071 20.7071L18.2929 19.2929L23 14.5858L27.7071 19.2929L26.2929 20.7071L24 18.4142V27H15V28C15 29.1046 14.1046 30 13 30H9C7.89543 30 7 29.1046 7 28V24ZM9 28V24H13V28H9Z" fill="black"/>
</svg>