<svg viewBox="0 0 32 32" xmlns="http://www.w3.org/2000/svg">
<path d="M15.9999 28.46L28.4499 15.3C29.1199 14.6 29.1799 13.52 28.5999 12.73L24.0999 6.80001C23.7199 6.30001 23.1299 6.01001 22.5099 6.01001H9.48992C8.86992 6.01001 8.26992 6.30001 7.89992 6.80001L3.38992 12.74C2.81992 13.52 2.88992 14.59 3.54992 15.3L15.9999 28.46ZM21.6899 15H25.9799L18.7499 22.64L21.6899 15ZM15.9999 24.21L12.4599 15H19.5499L16.0099 24.21H15.9999ZM12.9399 13L15.9999 8.72001L19.0599 13H12.9499H12.9399ZM10.3099 15L13.2499 22.65L5.99992 15H10.3099ZM26.2999 13H21.5099L17.9399 8.00001H22.4999L26.2999 13ZM9.48992 8.00001H14.0499L10.4799 13H5.69992L9.49992 8.00001H9.48992Z"/>
</svg>