<svg viewBox="0 0 32 32" xmlns="http://www.w3.org/2000/svg">
<path d="M9.42998 13L13.63 6H9.48998C8.86998 6 8.26998 6.29 7.89998 6.79L3.38998 12.74C3.32998 12.82 3.27998 12.91 3.22998 13H9.42998Z" fill="black"/>
<path d="M28.7799 13H22.5799L18.3799 6H22.5199C23.1399 6 23.7299 6.29 24.1099 6.79L28.6099 12.72C28.6675 12.7941 28.7116 12.8751 28.7533 12.9516L28.7799 13Z" fill="black"/>
<path d="M15.7999 28.25L11.3899 15H20.6099L16.1999 28.25L15.9999 28.46L15.7999 28.25Z" fill="black"/>
<path d="M20.23 13L16.03 6H15.97L11.77 13H20.23Z" fill="black"/>
<path d="M19.45 24.81L22.7199 15V15.01H28.68C28.61 15.11 28.54 15.21 28.45 15.3L19.45 24.81Z" fill="black"/>
<path d="M3.32007 15H9.28007V14.99L12.5501 24.8L3.55007 15.29C3.46007 15.2 3.39007 15.1 3.32007 15Z" fill="black"/>
</svg>