<svg viewBox="0 0 32 32" xmlns="http://www.w3.org/2000/svg">
<path fill-rule="evenodd" clip-rule="evenodd" d="M20 4V10.41L16 14.41L12 10.41V4C12 2.9 12.9 2 14 2H18C19.1 2 20 2.9 20 4ZM18 4H14V9.59L16 11.59L18 9.59V4Z"/>
<path fill-rule="evenodd" clip-rule="evenodd" d="M4 12H10.41L14.41 16L10.41 20H4C2.9 20 2 19.1 2 18V14C2 12.9 2.9 12 4 12ZM4 18H9.59L11.59 16L9.59 14H4V18Z"/>
<path fill-rule="evenodd" clip-rule="evenodd" d="M21.5898 12H27.9998C29.0998 12 29.9998 12.9 29.9998 14V18C29.9998 19.1 29.0998 20 27.9998 20H21.5898L17.5898 16L21.5898 12ZM22.4098 18H27.9998V14H22.4098L20.4098 16L22.4098 18Z"/>
<path fill-rule="evenodd" clip-rule="evenodd" d="M12 21.5901V28.0001C12 29.1001 12.9 30.0001 14 30.0001H18C19.1 30.0001 20 29.1001 20 28.0001V21.5901L16 17.5901L12 21.5901ZM14 28.0001V22.4101L16 20.4101L18 22.4101V28.0001H14Z"/>
</svg>