<svg viewBox="0 0 32 32" xmlns="http://www.w3.org/2000/svg">
<path fill-rule="evenodd" clip-rule="evenodd" d="M3 2H13.41L22.01 10.6V12.11C19.97 12.42 18.51 13.99 18.51 16.01V18.83C18.26 18.79 18 18.77 17.75 18.77C17.38 18.77 17.01 18.81 16.66 18.9C14.79 19.36 13.76 20.87 13.41 22.12C13.04 23.44 13.31 24.77 14.11 25.64L16.03 28H3C2.45 28 2 27.55 2 27V3C2 2.45 2.45 2 3 2ZM13 4.41V11C13 11 16.91 10.99 19.58 10.99L13 4.41Z" fill="black"/>
<path d="M24.9 20.0901L28.89 22.3801H28.9C29.3 22.5801 29.52 23.0101 29.44 23.4501L27.97 29.9601L20.14 29.8701L15.62 24.3101C15.27 23.9601 15.15 23.3201 15.34 22.6401C15.53 21.9301 16.11 21.0801 17.14 20.8201C17.87 20.6401 19.02 20.7201 20.5 22.0101V15.9901C20.5 13.3601 25 13.3601 25 15.9901L24.9 20.0901Z" fill="black"/>
</svg>