<svg viewBox="0 0 32 32" xmlns="http://www.w3.org/2000/svg">
<path d="M17.75 14.5C18.3023 14.5 18.75 14.9477 18.75 15.5V22.5C18.75 23.0523 18.3023 23.5 17.75 23.5C17.1977 23.5 16.75 23.0523 16.75 22.5L16.75 15.5C16.75 14.9477 17.1977 14.5 17.75 14.5Z"/>
<path d="M14.25 16.5C14.8023 16.5 15.25 16.9477 15.25 17.5V24.5C15.25 25.0523 14.8023 25.5 14.25 25.5C13.6977 25.5 13.25 25.0523 13.25 24.5L13.25 17.5C13.25 16.9477 13.6977 16.5 14.25 16.5Z"/>
<path d="M21.25 17C21.8023 17 22.25 17.4477 22.25 18V20C22.25 20.5523 21.8023 21 21.25 21C20.6977 21 20.25 20.5523 20.25 20V18C20.25 17.4477 20.6977 17 21.25 17Z"/>
<path d="M10.75 19C11.3023 19 11.75 19.4477 11.75 20L11.75 22C11.75 22.5523 11.3023 23 10.75 23C10.1977 23 9.75 22.5523 9.75 22V20C9.75 19.4477 10.1977 19 10.75 19Z"/>
<path fill-rule="evenodd" clip-rule="evenodd" d="M17.41 3H8C6.9 3 6 3.9 6 5V27C6 28.1 6.9 29 8 29H24C25.1 29 26 28.1 26 27V11.59L17.41 3ZM18 6.41L22.59 11H18V6.41ZM8 27V5H16V13H24V27H8Z"/>
</svg>