<svg viewBox="0 0 32 32" xmlns="http://www.w3.org/2000/svg">
<path fill-rule="evenodd" clip-rule="evenodd" d="M22 12H12V4H4V26H12V28H4C2.9 28 2 27.1 2 26V4C2 2.9 2.9 2 4 2H13.41L22 10.59V12ZM18.59 10L14 5.41V10H18.59Z"/>
<path fill-rule="evenodd" clip-rule="evenodd" d="M26 20.39L29.12 21.94V21.95C29.72 22.25 30.05 22.89 29.93 23.55L28.85 30.01H19.52L15.25 24.67C14.77 24.15 14.62 23.35 14.85 22.52C15.15 21.44 15.98 20.61 17.02 20.35C17.72 20.18 18.75 20.2 20 21.02V16.01C20 14.56 21.26 13.51 23 13.51C24.74 13.51 26 14.56 26 16.01V20.39ZM20.49 28H27.15L27.89 23.56L24 21.62V16C24 15.66 23.42 15.5 23 15.5C22.58 15.5 22 15.66 22 16V24H20.37L20.08 23.69C18.94 22.49 17.88 22 17.26 22.39C16.84 22.65 16.7 23.2 16.76 23.36L20.49 28Z"/>
</svg>