<svg viewBox="0 0 32 32" xmlns="http://www.w3.org/2000/svg">
<path fill-rule="evenodd" clip-rule="evenodd" d="M16 25.5C18.92 25.5 21.3085 23.2245 21.489 20.35C21.4963 20.2343 21.5 20.1176 21.5 20V18.35H17.65V14.5H16C15.8824 14.5 15.7657 14.5037 15.65 14.511C12.7755 14.6915 10.5 17.08 10.5 20C10.5 23.0376 12.9624 25.5 16 25.5ZM15.65 16.5173V20.35H19.4827C19.3071 22.1187 17.8149 23.5 16 23.5C14.067 23.5 12.5 21.933 12.5 20C12.5 18.1851 13.8813 16.6929 15.65 16.5173Z"/>
<path fill-rule="evenodd" clip-rule="evenodd" d="M17.41 3H8C6.9 3 6 3.9 6 5V27C6 28.1 6.9 29 8 29H24C25.1 29 26 28.1 26 27V11.59L17.41 3ZM18 6.41L22.59 11H18V6.41ZM8 27V5H16V13H24V27H8Z"/>
</svg>