<svg viewBox="0 0 32 32" xmlns="http://www.w3.org/2000/svg">
<path fill-rule="evenodd" clip-rule="evenodd" d="M6.00003 3.99999C6.00004 3.44771 6.44775 3 7.00003 3H17.41L26 11.59V28C26 28.5523 25.5523 29 25 29H7.00003C6.44775 29 6.00003 28.5523 6.00003 28L6.00003 3.99999ZM23.5 11.91L17 5.5V12L23.5 11.91ZM16 25.5C18.92 25.5 21.3085 23.2245 21.489 20.35C21.4963 20.2343 21.5 20.1176 21.5 20H16V14.5C15.8824 14.5 15.7657 14.5037 15.65 14.511C12.7755 14.6915 10.5 17.08 10.5 20C10.5 23.0376 12.9624 25.5 16 25.5Z"/>
</svg>