<svg viewBox="0 0 32 32" xmlns="http://www.w3.org/2000/svg">
<path fill-rule="evenodd" clip-rule="evenodd" d="M6.00012 3.99999C6.00013 3.44771 6.44784 3 7.00012 3H17.4101L26.0001 11.59V28C26.0001 28.5523 25.5524 29 25.0001 29H7.00012C6.44784 29 6.00012 28.5523 6.00012 28L6.00012 3.99999ZM23.5001 11.91L17.0001 5.5V12L23.5001 11.91ZM17.7501 14.5C18.3024 14.5 18.7501 14.9477 18.7501 15.5V22.5C18.7501 23.0523 18.3024 23.5 17.7501 23.5C17.1978 23.5 16.7501 23.0523 16.7501 22.5L16.7501 15.5C16.7501 14.9477 17.1978 14.5 17.7501 14.5ZM14.2501 16.5C14.8024 16.5 15.2501 16.9477 15.2501 17.5V24.5C15.2501 25.0523 14.8024 25.5 14.2501 25.5C13.6978 25.5 13.2501 25.0523 13.2501 24.5L13.2501 17.5C13.2501 16.9477 13.6978 16.5 14.2501 16.5ZM21.2501 17C21.8024 17 22.2501 17.4477 22.2501 18V20C22.2501 20.5523 21.8024 21 21.2501 21C20.6978 21 20.2501 20.5523 20.2501 20V18C20.2501 17.4477 20.6978 17 21.2501 17ZM10.7501 19C11.3024 19 11.7501 19.4477 11.7501 20L11.7501 22C11.7501 22.5523 11.3024 23 10.7501 23C10.1978 23 9.7501 22.5523 9.7501 22V20C9.7501 19.4477 10.1978 19 10.7501 19Z"/>
</svg>