<svg viewBox="0 0 32 32" xmlns="http://www.w3.org/2000/svg">
<path fill-rule="evenodd" clip-rule="evenodd" d="M12.5 15.8382C12.5 15.0457 13.3779 14.5681 14.0433 14.9986L19.7025 18.6605C20.3115 19.0545 20.3115 19.9456 19.7025 20.3396L14.0433 24.0015C13.3779 24.432 12.5 23.9544 12.5 23.1619V15.8382ZM17.3185 19.5L14.5 21.3238V17.6763L17.3185 19.5Z"/>
<path fill-rule="evenodd" clip-rule="evenodd" d="M17.41 3H8C6.9 3 6 3.9 6 5V27C6 28.1 6.9 29 8 29H24C25.1 29 26 28.1 26 27V11.59L17.41 3ZM18 6.41L22.59 11H18V6.41ZM8 27V5H16V13H24V27H8Z"/>
</svg>