<svg viewBox="0 0 32 32" xmlns="http://www.w3.org/2000/svg">
<path fill-rule="evenodd" clip-rule="evenodd" d="M7 3C6.44772 3 6.00001 3.44771 6 3.99999V28C6 28.5523 6.44772 29 7 29H25C25.5523 29 26 28.5523 26 28V11.59L17.41 3H7ZM17 5.5L23.5 11.91L17 12V5.5ZM14.0432 14.9986L14.039 14.9958L13.2716 14.4993C12.9389 14.284 12.5 14.5228 12.5 14.9191V24.0809C12.5 24.4772 12.9389 24.716 13.2716 24.5007L20.3512 19.9198C20.6557 19.7228 20.6557 19.2772 20.3512 19.0802L19.7065 18.6631L19.7025 18.6604L14.0432 14.9986Z"/>
</svg>