<svg viewBox="0 0 32 32" xmlns="http://www.w3.org/2000/svg">
<path d="M9.00023 21V22.64C9.00023 25.05 10.9602 27 13.3602 27H14.9002V30H16.9002V27H18.4902C20.8502 27 23.0002 24.92 23.0002 22.64V19.18C23.0002 17.18 21.4602 15.35 19.4902 15.01C18.7602 14.88 17.4602 14.7 16.2002 14.51C14.8202 14.31 13.3802 14.1 12.9402 14.01C11.9002 13.82 10.9902 12.75 10.9902 11.72V8.99C10.9902 7.89 11.8902 6.99 12.9902 6.99H17.9902C19.0902 6.99 19.9902 7.89 19.9902 8.99V10.99H21.9902V8.99C21.9902 6.78 20.2002 4.99 17.9902 4.99H16.8902V2H14.8902V5H12.9902C10.7802 5 8.99023 6.79 8.99023 9V11.73C8.99023 13.71 10.6002 15.62 12.5502 15.98C13.0302 16.09 14.3702 16.28 15.9202 16.5C17.1602 16.68 18.4302 16.86 19.1502 16.99C20.1702 17.17 21.0002 18.15 21.0002 19.19V22.65C21.0002 23.84 19.7602 25.01 18.4902 25.01H13.3602C12.0602 25.01 11.0002 23.95 11.0002 22.65V21.01H9.00023V21Z"/>
</svg>