<svg viewBox="0 0 32 32" xmlns="http://www.w3.org/2000/svg">
<path fill-rule="evenodd" clip-rule="evenodd" d="M23 4.00011C23.9899 3.85869 23.99 3.85931 23.9901 3.85995L23.9903 3.86137L23.9908 3.86471L23.9919 3.87333L23.9951 3.89826C23.9976 3.91825 24.0006 3.94498 24.004 3.97815C24.0108 4.04448 24.0189 4.13668 24.0256 4.2525C24.0391 4.48403 24.0475 4.81074 24.0303 5.2145C23.996 6.02136 23.8593 7.14143 23.4535 8.42624C22.7222 10.7422 21.1297 13.5484 17.7834 16.0001C21.1297 18.4518 22.7222 21.258 23.4536 23.574C23.8593 24.8588 23.996 25.9789 24.0304 26.7857C24.0475 27.1895 24.0392 27.5162 24.0257 27.7477C24.0189 27.8635 24.0109 27.9557 24.0041 28.0221C24.0007 28.0552 23.9976 28.082 23.9952 28.102L23.992 28.1269L23.9908 28.1355L23.9903 28.1388L23.9901 28.1403C23.9901 28.1409 23.99 28.1415 23 28.0001C22.0101 27.8587 22.01 27.8593 22.0099 27.8598L22.0101 27.8578L22.0145 27.8185C22.0184 27.7798 22.0241 27.7168 22.029 27.6314C22.039 27.4606 22.0462 27.2014 22.0322 26.8708C22.0214 26.6188 21.9984 26.3261 21.9549 26.0001H10.045C10.0016 26.3261 9.97853 26.6188 9.96781 26.8708C9.95374 27.2014 9.96097 27.4606 9.97093 27.6314C9.9759 27.7168 9.98153 27.7798 9.98549 27.8185L9.98986 27.8578L9.99007 27.8598C9.98999 27.8593 9.98991 27.8587 8.99996 28.0001C8.01001 28.1415 8.00992 28.1409 8.00983 28.1403L8.00963 28.1388L8.00917 28.1355L8.008 28.1269L8.00482 28.102C8.00236 28.082 7.99927 28.0552 7.99588 28.0221C7.98909 27.9557 7.98106 27.8635 7.97431 27.7477C7.96082 27.5162 7.95243 27.1895 7.96962 26.7857C8.00395 25.9789 8.14065 24.8588 8.54638 23.574C9.27775 21.258 10.8702 18.4518 14.2166 16.0001C10.8703 13.5484 9.2778 10.7422 8.54643 8.42624C8.1407 7.14143 8.004 6.02136 7.96967 5.2145C7.95249 4.81074 7.96088 4.48403 7.97436 4.2525C7.98111 4.13668 7.98914 4.04448 7.99593 3.97815C7.99932 3.94498 8.00241 3.91825 8.00487 3.89826L8.00805 3.87333L8.00922 3.86471L8.00968 3.86137L8.00988 3.85995C8.00998 3.85931 8.01006 3.85869 9.00001 4.00011C9.98996 4.14153 9.99004 4.14097 9.99012 4.14043L9.99045 4.13806C9.99046 4.13798 9.99055 4.13732 9.99045 4.13806L9.98991 4.14243L9.98554 4.18174C9.98159 4.22039 9.97595 4.28346 9.97098 4.36881C9.96103 4.53963 9.95379 4.79886 9.96786 5.12947C9.97858 5.38146 10.0016 5.67412 10.0451 6.00011H21.9549C21.9983 5.67412 22.0214 5.38146 22.0321 5.12947C22.0462 4.79886 22.0389 4.53963 22.029 4.36881C22.024 4.28346 22.0184 4.22039 22.0144 4.18174L22.0101 4.14243L22.0095 4.13806L22.0097 4.13948C22.0098 4.14002 22.01 4.14153 23 4.00011ZM21.4892 24.0001C21.2802 23.3746 20.9935 22.6997 20.5999 22.0001H11.4C11.0065 22.6997 10.7197 23.3746 10.5108 24.0001H21.4892ZM16 17.1915C17.3415 18.0929 18.3855 19.0479 19.198 20.0001H12.802C13.6145 19.0479 14.6585 18.0929 16 17.1915ZM11.4001 10.0001C11.0065 9.30053 10.7198 8.62561 10.5108 8.00011H21.4892C21.2802 8.62561 20.9934 9.30053 20.5999 10.0001H11.4001ZM12.802 12.0001H19.1979C18.3854 12.9524 17.3414 13.9073 16 14.8087C14.6585 13.9073 13.6146 12.9524 12.802 12.0001Z"/>
</svg>