<svg viewBox="0 0 32 32" xmlns="http://www.w3.org/2000/svg">
<path fill-rule="evenodd" clip-rule="evenodd" d="M15.0616 2C12.5696 2 9.83664 2.41794 8 4V27C9 30 10.8616 30 13.5539 30C15.3847 30 16.7847 29.4615 17.4309 28.4923C18.3423 27.2771 18.4995 26.3704 18.6569 25.4627C18.7784 24.7617 18.9 24.0601 19.3693 23.2154C19.8001 22.4615 20.4462 21.6 21.7386 20.5231C24.1078 18.5846 26 16.1077 26 12.5538C26 5.12308 20.2309 2 15.0616 2ZM13.0193 11.0735C13.5182 10.3607 14.2013 10 15.2 10C15.8915 10 16.6009 10.2331 17.1221 10.6824C17.6201 11.1117 18 11.7821 18 12.8C18 13.8991 17.5359 14.8107 16.7753 15.4191L16.7551 15.4353L16.7357 15.4526C16.5338 15.632 16.3342 15.792 16.1312 15.952L16.0416 16.0224C15.8711 16.1564 15.69 16.2986 15.5242 16.4407C15.1278 16.7805 14.7018 17.214 14.4637 17.8489L16.3364 18.5511C16.3983 18.386 16.5222 18.2195 16.8258 17.9593C16.9564 17.8474 17.0985 17.7356 17.2701 17.6007L17.3689 17.523C17.573 17.3622 17.8042 17.1776 18.0455 16.9642C19.2724 15.9727 20 14.4914 20 12.8C20 11.2179 19.3799 9.98826 18.428 9.16759C17.4992 8.3669 16.3086 8 15.2 8C13.5987 8 12.2818 8.63935 11.3808 9.92654L13.0193 11.0735Z" fill="black"/>
</svg>