<svg viewBox="0 0 32 32" xmlns="http://www.w3.org/2000/svg">
<path fill-rule="evenodd" clip-rule="evenodd" d="M15.1998 4C12.7528 4 10.534 4.90137 8.94313 6.66896L7.45654 5.33104C9.46571 3.09863 12.2469 2 15.1998 2C17.7881 2 20.4847 2.78044 22.5511 4.55361C24.6423 6.34813 25.9998 9.0855 25.9998 12.8C25.9998 16.4457 24.4273 19.0138 22.0366 20.9711C20.9276 21.8958 20.4077 22.603 20.0711 23.1909C19.724 23.8175 19.6385 24.3051 19.5256 24.9485C19.5084 25.0468 19.4905 25.1487 19.4709 25.2553C19.3173 26.0934 19.076 27.0245 18.2155 28.1791C17.3348 29.4747 15.6187 30 13.7998 30C12.4284 30 11.1734 29.7273 10.1763 29.0942C9.15275 28.4443 8.47146 27.4571 8.21926 26.1961L10.1804 25.8039C10.3282 26.5429 10.6969 27.0557 11.2483 27.4058C11.8262 27.7727 12.6712 28 13.7998 28C15.3696 28 16.2434 27.5319 16.5678 27.0453L16.5832 27.0222L16.5998 27C17.2266 26.1643 17.3833 25.5516 17.5037 24.8947C17.5195 24.8084 17.5349 24.7189 17.5508 24.626C17.6629 23.9719 17.8027 23.1557 18.3257 22.2144L18.3315 22.2038C18.7947 21.3933 19.4744 20.5028 20.7597 19.4318L20.7666 19.426C22.7739 17.7836 23.9998 15.7525 23.9998 12.8C23.9998 9.6145 22.8574 7.45187 21.2486 6.07139C19.615 4.66956 17.4116 4 15.1998 4ZM15.1998 10C14.2011 10 13.518 10.3607 13.0191 11.0735L11.3806 9.92654C12.2816 8.63935 13.5985 8 15.1998 8C16.3084 8 17.499 8.3669 18.4278 9.16759C19.3798 9.98826 19.9998 11.2179 19.9998 12.8C19.9998 14.4914 19.2722 15.9727 18.0453 16.9642C17.804 17.1776 17.5728 17.3622 17.3687 17.523C17.3347 17.5498 17.3018 17.5757 17.2699 17.6007C17.0983 17.7356 16.9562 17.8473 16.8256 17.9593C16.522 18.2195 16.3981 18.386 16.3362 18.5511L14.4635 17.8489C14.7016 17.214 15.1276 16.7805 15.524 16.4407C15.6898 16.2986 15.871 16.1563 16.0414 16.0224C16.0717 15.9987 16.1016 15.9752 16.131 15.952C16.334 15.792 16.5336 15.632 16.7355 15.4526L16.7549 15.4353L16.7751 15.4191C17.5357 14.8107 17.9998 13.8991 17.9998 12.8C17.9998 11.7821 17.6199 11.1117 17.1219 10.6824C16.6007 10.2331 15.8913 10 15.1998 10Z"/>
</svg>