<svg viewBox="0 0 32 32" xmlns="http://www.w3.org/2000/svg">
<path fill-rule="evenodd" clip-rule="evenodd" d="M28 4H4V28H28V4ZM4 2C2.89543 2 2 2.89543 2 4V28C2 29.1046 2.89543 30 4 30H28C29.1046 30 30 29.1046 30 28V4C30 2.89543 29.1046 2 28 2H4Z"/>
<path d="M17 17C18.1 17 19 16.1 19 15V13C19 11.9 18.1 11 17 11H15V13H17V15H15C15 18.6769 15 21.7261 15 17H17Z"/>
<path d="M15 17C13.9 17 13 16.1 13 15V13C13 11.9 13.9 11 15 11H17V13H15V15H17C17 18.6769 17 21.7261 17 17H15Z"/>
<path d="M17 15C18.1046 15 19 15.8954 19 17V19C19 20.1 18.1 21 17 21H15V19H17V17H15C15 13.3231 15 10.2739 15 15H17Z"/>
<path d="M15 15C13.8954 15 13 15.8954 13 17V19C13 20.1 13.9 21 15 21H17V19H15V17H17C17 13.3231 17 10.2739 17 15H15Z"/>
</svg>