<svg viewBox="0 0 32 32" xmlns="http://www.w3.org/2000/svg">
<path fill-rule="evenodd" clip-rule="evenodd" d="M19 17H14V19C14 19.5477 14.4523 20 15 20H19.5V22H15C13.3477 22 12 20.6523 12 19V13C12 11.3477 13.3477 10 15 10H17C18.6523 10 20 11.3477 20 13V16C20 16.5523 19.5523 17 19 17ZM14 13C14 12.4523 14.4523 12 15 12H17C17.5477 12 18 12.4523 18 13V15H14V13Z"/>
<path fill-rule="evenodd" clip-rule="evenodd" d="M6 4C4.89543 4 4 4.89543 4 6V26C4 27.1046 4.89543 28 6 28H26C27.1046 28 28 27.1046 28 26V6C28 4.89543 27.1046 4 26 4H6ZM6 6H26V26H6V6Z"/>
</svg>