<svg viewBox="0 0 32 32" xmlns="http://www.w3.org/2000/svg">
<path d="M19.77 3C17.7601 3 15.9457 4.38905 15.7147 6.35449C13.7103 6.51824 11.99 8.0537 11.99 10.12V11.23C11.99 13.4053 13.9155 15.01 16.07 15.01L24.92 15.01L25.9254 15C28.1931 14.9972 30.2296 13.21 29.9744 10.8443C29.7563 8.76298 27.7556 7.45 25.79 7.45H25.69V6.78C25.69 4.60475 23.7645 3 21.61 3H19.77Z" fill="black"/>
<path d="M8 26H6V24H8V26Z" fill="black"/>
<path d="M11 26H22V24H11V26Z" fill="black"/>
<path fill-rule="evenodd" clip-rule="evenodd" d="M4 8C2.89772 8 2 8.89772 2 10V18.4662L2.58895 19.0316L2 19.65V28C2 29.1023 2.89772 30 4 30H24C25.1023 30 26 29.1023 26 28V19.6116L25.3842 18.9835L26 18.3245V17H24V17.5355L23.5658 18H4.40231L4 17.6138V10H10V8H4ZM4.42857 20H23.58L24 20.4284V28H4V20.45L4.42857 20Z" fill="black"/>
<path d="M6 16H8V14H6V16Z" fill="black"/>
</svg>