<svg viewBox="0 0 32 32" xmlns="http://www.w3.org/2000/svg">
<path fill-rule="evenodd" clip-rule="evenodd" d="M3 2H25C25.55 2 26 2.45 26 3V11C26 11.55 25.55 12 25 12H3C2.45 12 2 11.55 2 11V3C2 2.45 2.45 2 3 2ZM6 8H8V6H6V8ZM11 8H22V6H11V8Z" fill="black"/>
<path fill-rule="evenodd" clip-rule="evenodd" d="M3 14H25C25.55 14 26 14.45 26 15V18.1154L22.4992 16.0957C20.7084 15.0625 18.5174 16.1117 18.0786 18H11V20H18V24H3C2.45 24 2 23.55 2 23V15C2 14.45 2.45 14 3 14ZM6 20H8V18H6V20Z" fill="black"/>
<path fill-rule="evenodd" clip-rule="evenodd" d="M21.9389 18.1967C21.1044 17.6641 20 18.2659 20 19.2625V28.7437C20 29.7816 21.1183 30.2798 21.9037 29.8305L21.9152 29.8239L29.7105 25.0848C30.5829 24.5837 30.4938 23.3976 29.7243 22.9298L21.9389 18.1967ZM22 27.4317L27.6397 24.0031L22 20.5744V27.4317Z" fill="black"/>
</svg>