<svg viewBox="0 0 32 32" xmlns="http://www.w3.org/2000/svg">
<path d="M6 8H8V10H6V8Z" fill="black"/>
<path d="M11 8H22V10H11V8Z" fill="black"/>
<path fill-rule="evenodd" clip-rule="evenodd" d="M4 24C2.89772 24 2 23.1023 2 22V13.5338L2.58895 12.9684L2 12.35V4C2 2.89771 2.89772 2 4 2H24C25.1023 2 26 2.89771 26 4V12.3884L25.3842 13.0165L26 13.6755V16H24V14.4645L23.5658 14H4.40231L4 14.3862V22H17V24H4ZM4.42857 12L4 11.55V4H24V11.5716L23.58 12H4.42857Z" fill="black"/>
<path d="M6 18H8V20H6V18Z" fill="black"/>
<path fill-rule="evenodd" clip-rule="evenodd" d="M21 19C20.4477 19 20 19.4477 20 20V28C20 28.5523 20.4477 29 21 29H29C29.5523 29 30 28.5523 30 28V20C30 19.4477 29.5523 19 29 19H21ZM22 27H28V21H22V27Z" fill="black"/>
<path d="M17 18H11V20H17V18Z" fill="black"/>
</svg>