<svg viewBox="0 0 32 32" xmlns="http://www.w3.org/2000/svg">
<path d="M28.9001 14.5001C30.0501 13.3401 30.0501 11.4401 28.9001 10.2801L22.5801 3.9001C21.4401 2.7501 19.4501 2.7501 18.3201 3.9001L2.86006 19.5001C1.71006 20.6701 1.71006 22.5601 2.86006 23.7201L8.08006 28.9901H30.0001V26.9901H16.5201L28.9001 14.4901V14.5001ZM19.7301 5.3101C20.1101 4.9301 20.7701 4.9301 21.1501 5.3101L27.4701 11.6901C27.8501 12.0801 27.8501 12.7101 27.4701 13.1001L18.3301 22.3301L10.6001 14.5301L19.7301 5.3101ZM8.92006 27.0001L4.28006 22.3201C3.90006 21.9301 3.90006 21.3001 4.28006 20.9101L9.20006 15.9401L16.9301 23.7401L13.7101 27.0001H8.92006Z"/>
</svg>