<svg viewBox="0 0 32 32" xmlns="http://www.w3.org/2000/svg">
<path fill-rule="evenodd" clip-rule="evenodd" d="M12.1056 2.55279C12.275 2.214 12.6212 2 13 2H23C23.3466 2 23.6684 2.17945 23.8507 2.47427C24.0329 2.76909 24.0494 3.13723 23.8944 3.44721L20.618 10H25C25.3938 10 25.7509 10.2311 25.9122 10.5903C26.0736 10.9496 26.009 11.37 25.7474 11.6644L9.74741 29.6644C9.43198 30.0192 8.91052 30.1034 8.49948 29.8657C8.08845 29.6281 7.90118 29.1342 8.05132 28.6838L11.6126 18H6C5.65342 18 5.33156 17.8205 5.14935 17.5257C4.96714 17.2309 4.95058 16.8628 5.10557 16.5528L12.1056 2.55279ZM13.618 4L7.61803 16H13C13.3214 16 13.6233 16.1545 13.8112 16.4153C13.9992 16.6761 14.0503 17.0113 13.9487 17.3162L11.4893 24.6943L22.7732 12H19C18.6534 12 18.3316 11.8205 18.1494 11.5257C17.9671 11.2309 17.9506 10.8628 18.1056 10.5528L21.382 4H13.618Z" fill="black"/>
</svg>