<svg viewBox="0 0 32 32" xmlns="http://www.w3.org/2000/svg">
<path d="M16.2959 2C24.0259 2 30.2959 8.27 30.2959 16L30.2859 16.01C30.2859 23 25.1659 28.79 18.4759 29.84V29.823C18.4826 29.822 18.4892 29.821 18.4959 29.82V20.06H21.7359L21.739 20.04H21.7474L21.7459 20.05L21.7559 20.04H21.7474L22.3659 16H18.4859V13.37C18.4859 12.7751 18.641 12.1889 19.0527 11.7729C19.4096 11.4183 19.9559 11.19 20.7559 11.19H22.5259V11.18H22.5359V7.72996C22.5359 7.72996 20.9359 7.45996 19.4059 7.45996C17.8024 7.45996 16.4777 7.94708 15.5549 8.87475C14.6299 9.79857 14.1059 11.1625 14.1059 12.92V15.99H10.5659V16H10.5559V20.05H14.1059V29.83C7.4159 28.78 2.2959 22.99 2.2959 16C2.2959 8.27 8.5659 2 16.2959 2Z"/>
</svg>