<svg viewBox="0 0 32 32" xmlns="http://www.w3.org/2000/svg">
<path fill-rule="evenodd" clip-rule="evenodd" d="M4 30C2.89543 30 2 29.1046 2 28V17.0711C2 16.9764 2.00672 16.8819 2.0201 16.7882L2.70413 12H11.2959L11.7845 15.4202L21 10.3005V15.3005L30 10.3005V28C30 29.1046 29.1046 30 28 30L4 30ZM18 24H14V22H18V24ZM22 24H26V22H22V24Z" fill="black"/>
<path d="M10.7244 8L10.1126 3.71716C9.97185 2.73186 9.12801 2 8.1327 2H5.8673C4.872 2 4.02815 2.73186 3.8874 3.71716L3.27556 8H10.7244Z" fill="black"/>
</svg>