<svg viewBox="0 0 32 32" xmlns="http://www.w3.org/2000/svg">
<path d="M18 24H14V22H18V24Z"/>
<path d="M22 24H26V22H22V24Z"/>
<path fill-rule="evenodd" clip-rule="evenodd" d="M4 30C2.89543 30 2 29.1046 2 28V17.0711C2 16.9764 2.00672 16.8819 2.0201 16.7882L3.8874 3.71716C4.02815 2.73186 4.872 2 5.8673 2H8.1327C9.12801 2 9.97185 2.73186 10.1126 3.71716L11.7845 15.4202L21 10.3005V15.3005L30 10.3005V28C30 29.1046 29.1046 30 28 30L4 30ZM4 17.0711V28L28 28V13.6995L19 18.6995V13.6995L10.2155 18.5798L9.27556 12H4.72444L4 17.0711ZM5.01015 10H8.98985L8.70413 8H5.29587L5.01015 10ZM8.1327 4L8.41842 6H5.58158L5.8673 4L8.1327 4Z"/>
</svg>