<svg viewBox="0 0 32 32" xmlns="http://www.w3.org/2000/svg">
<path d="M7 2V12.1716L5.17157 10.3432L3.75736 11.7574L8 16L12.2426 11.7574L10.8284 10.3432L9 12.1716V4H21V6H23V2H7Z" fill="black"/>
<path d="M18 13.5C16.3431 13.5 15 14.8431 15 16.5V17.5C15 19.1569 16.3431 20.5 18 20.5H27C28.6569 20.5 30 19.1569 30 17.5C30 15.8431 28.6569 14.5 27 14.5H26.5V13C26.5 11.3431 25.1569 10 23.5 10H21.5C19.8431 10 18.5 11.3431 18.5 13V13.5H18Z" fill="black"/>
<path d="M5 23.5C3.34315 23.5 2 24.8431 2 26.5V27.5C2 29.1569 3.34315 30.5 5 30.5H14C15.6569 30.5 17 29.1569 17 27.5C17 25.8431 15.6569 24.5 14 24.5H13.5V23C13.5 21.3431 12.1569 20 10.5 20H8.5C6.84315 20 5.5 21.3431 5.5 23V23.5H5Z" fill="black"/>
</svg>