<svg viewBox="0 0 32 32" xmlns="http://www.w3.org/2000/svg">
<path d="M7 2V12.1716L5.17157 10.3432L3.75736 11.7574L8 16L12.2426 11.7574L10.8284 10.3432L9 12.1716V4H21V6H23V2H7Z" fill="black"/>
<path fill-rule="evenodd" clip-rule="evenodd" d="M27 14.5H26.5V13C26.5 11.3431 25.1569 10 23.5 10H21.5C19.8431 10 18.5 11.3431 18.5 13V13.5H18C16.3431 13.5 15 14.8431 15 16.5V17.5C15 19.1569 16.3431 20.5 18 20.5H27C28.6569 20.5 30 19.1569 30 17.5C30 15.8431 28.6569 14.5 27 14.5ZM24.5 16.5V13C24.5 12.4477 24.0523 12 23.5 12H21.5C20.9477 12 20.5 12.4477 20.5 13V15.5H18C17.4477 15.5 17 15.9477 17 16.5V17.5C17 18.0523 17.4477 18.5 18 18.5H27C27.5523 18.5 28 18.0523 28 17.5C28 16.9477 27.5523 16.5 27 16.5H24.5Z" fill="black"/>
<path fill-rule="evenodd" clip-rule="evenodd" d="M13.5 24.5H14C15.6569 24.5 17 25.8431 17 27.5C17 29.1569 15.6569 30.5 14 30.5H5C3.34315 30.5 2 29.1569 2 27.5V26.5C2 24.8431 3.34315 23.5 5 23.5H5.5V23C5.5 21.3431 6.84315 20 8.5 20H10.5C12.1569 20 13.5 21.3431 13.5 23V24.5ZM11.5 23V26.5H14C14.5523 26.5 15 26.9477 15 27.5C15 28.0523 14.5523 28.5 14 28.5H5C4.44772 28.5 4 28.0523 4 27.5V26.5C4 25.9477 4.44772 25.5 5 25.5H7.5V23C7.5 22.4477 7.94772 22 8.5 22H10.5C11.0523 22 11.5 22.4477 11.5 23Z" fill="black"/>
</svg>