<svg viewBox="0 0 32 32" xmlns="http://www.w3.org/2000/svg">
<path fill-rule="evenodd" clip-rule="evenodd" d="M4.00003 3C3.44775 3 3.00004 3.44771 3.00003 3.99999V28C3.00003 28.5523 3.44775 29 4.00003 29H22C22.5523 29 23 28.5523 23 28V25H12C11.4477 25 11 24.5523 11 24V15C11 14.4477 11.4477 14 12 14H23V11.59L14.41 3H4.00003ZM14 5.5L20.5 11.91L14 12V5.5Z"/>
<path d="M14.5 23H17.125V21.5L14.5675 21.515C14.545 21.5 14.5 21.425 14.5 21.3125V17.6875C14.5 17.6417 14.5062 17.6022 14.511 17.5713C14.5181 17.5264 14.5222 17.5 14.5 17.5H17.125V16H14.5C13.675 16 13 16.7575 13 17.6875V21.3125C13 22.2425 13.675 23 14.5 23Z"/>
<path d="M18.25 21.5V23H21.25C22.075 23 22.75 22.325 22.75 21.5V20.3789C22.75 19.6439 22.225 19.0214 21.4975 18.9014L19.75 18.6089V17.5H22.375V16H19.75C18.925 16 18.25 16.675 18.25 17.5V18.6089C18.25 19.3439 18.775 19.9664 19.5025 20.0864L21.25 20.3789V21.5H18.25Z"/>
<path d="M23.5 16H24.25H25L26.125 21.125L27.25 16H28.75L27.4857 21.9C27.3482 22.5416 26.7812 23 26.125 23C25.4688 23 24.9018 22.5416 24.7643 21.9L23.5 16Z"/>
</svg>