<svg viewBox="0 0 32 32" xmlns="http://www.w3.org/2000/svg">
<path fill-rule="evenodd" clip-rule="evenodd" d="M3 5C3 3.89772 3.89772 3 5 3H14.4142L23 11.5858V14H21V13H13V5H5V27H21V25H23V27C23 28.1023 22.1023 29 21 29H5C3.89772 29 3 28.1023 3 27V5ZM15 6.41421L19.5858 11H15V6.41421Z"/>
<path d="M13 16L13 22.05C13 22.57 13.43 23 13.95 23H17V21.5H14.5V16H13Z"/>
<path fill-rule="evenodd" clip-rule="evenodd" d="M20.5 16C19.1193 16 18 17.1193 18 18.5V20.5C18 21.8807 19.1193 23 20.5 23C21.8807 23 23 21.8807 23 20.5V18.5C23 17.1193 21.8807 16 20.5 16ZM21.5 20.5V18.5C21.5 17.9477 21.0523 17.5 20.5 17.5C19.9477 17.5 19.5 17.9477 19.5 18.5V20.5C19.5 21.0523 19.9477 21.5 20.5 21.5C21.0523 21.5 21.5 21.0523 21.5 20.5Z"/>
<path d="M28 23.0202C28.5523 23.0173 29 22.5694 29 22.0171V19L26.75 19V20.5L27.5 20.5001V21.5171L26.5 21.5171C25.9477 21.5171 25.5 21.0694 25.5 20.5171V18.5C25.5 17.9478 25.9477 17.5 26.5 17.5L28.5 17.5V16L26 16C24.8954 16 24 16.8948 24 17.9994V21.0602C24 22.1412 24.8591 23.0259 25.9401 23.0278C26.4848 23.0288 27.0297 23.0256 27.5743 23.0225C27.7162 23.0217 27.8581 23.0209 28 23.0202Z"/>
</svg>