<svg viewBox="0 0 32 32" xmlns="http://www.w3.org/2000/svg">
<path fill-rule="evenodd" clip-rule="evenodd" d="M3 5C3 3.9 3.9 3 5 3H14.41L23 11.59V14H21V13H13V5H5V27H21V25H23V27C23 28.1 22.1 29 21 29H5C3.9 29 3 28.1 3 27V5ZM19.59 11L15 6.41V11H19.59Z"/>
<path d="M19.7 16.95V18.56L16.3 21.06V21.6H19.7V23H15.85C15.33 23 14.9 22.57 14.9 22.05V20.35L18.3 17.85V17.4H15V16H18.75C19.27 16 19.7 16.43 19.7 16.95Z"/>
<path fill-rule="evenodd" clip-rule="evenodd" d="M27.5 15.88H25.25C24.73 15.88 24.3 16.31 24.3 16.83V23H25.7V20.64H27.5C28.44 20.64 29.2 19.88 29.2 18.94V17.59C29.2 16.65 28.44 15.89 27.5 15.89V15.88ZM27.8 18.93C27.8 19.1 27.67 19.23 27.5 19.23H25.7V17.28H27.5C27.67 17.28 27.8 17.41 27.8 17.58V18.93Z"/>
<path d="M21.2 16H22.6V23H21.2V16Z"/>
</svg>