<svg viewBox="0 0 32 32" xmlns="http://www.w3.org/2000/svg">
<path fill-rule="evenodd" clip-rule="evenodd" d="M5 3C3.89772 3 3 3.89772 3 5V27C3 28.1023 3.89772 29 5 29H21C22.1023 29 23 28.1023 23 27V25H21V27H5V5H13V13H21V14H23V11.5858L14.4142 3H5ZM19.5858 11L15 6.41421V11H19.5858Z"/>
<path d="M14.5 23H16V17.5H17.5V16H13V17.5H14.5V23Z"/>
<path d="M27.5 23H26V17.5H24.5V16H29V17.5H27.5V23Z"/>
<path d="M22.3505 15.6609L23.6495 16.4109L21.866 19.5L23.6495 22.5891L22.3505 23.3391L21 21L19.6495 23.3391L18.3505 22.5891L20.134 19.5L18.3505 16.4109L19.6495 15.6609L21 18L22.3505 15.6609Z"/>
</svg>