<svg viewBox="0 0 32 32" xmlns="http://www.w3.org/2000/svg">
<path fill-rule="evenodd" clip-rule="evenodd" d="M4 3C3.44772 3 3.00001 3.44771 3 3.99999V28C3 28.5523 3.44772 29 4 29H22C22.5523 29 23 28.5523 23 28V25H9.99997C9.44768 25 8.99997 24.5523 8.99997 24V15C8.99997 14.4477 9.44769 14 9.99997 14H23V11.59L14.41 3H4ZM14 5.5L20.5 11.91L14 12V5.5Z"/>
<path d="M26.9045 20.5269L27.5195 23.1699L28.9805 22.83L28.3654 20.1869C28.2505 19.6929 27.899 19.304 27.4476 19.1285L29.2188 16.8331L28.0312 15.9168L25.6314 19.0269H25.625V15.9999H24.125V22.9999H25.625V20.5269L26.9045 20.5269Z"/>
<path fill-rule="evenodd" clip-rule="evenodd" d="M18.125 23V16H21.5C22.3284 16 23 16.6716 23 17.5V19C23 19.8284 22.3284 20.5 21.5 20.5H19.625V23H18.125ZM19.625 19V17.5H21.5V19H19.625Z"/>
<path d="M11 16H12.5L14 18.625L15.5 16H17V23H15.5V19L14.624 20.3139C14.3271 20.7592 13.6728 20.7592 13.3759 20.3139L12.5 19V23H11V16Z"/>
</svg>