<svg viewBox="0 0 32 32" xmlns="http://www.w3.org/2000/svg">
<path fill-rule="evenodd" clip-rule="evenodd" d="M4.00003 3C3.44775 3 3.00004 3.44771 3.00003 3.99999V28C3.00003 28.5523 3.44775 29 4.00003 29H22C22.5523 29 23 28.5523 23 28V25H12C11.4477 25 11 24.5523 11 24V15C11 14.4477 11.4477 14 12 14H23V11.59L14.41 3H4.00003ZM14 5.5L20.5 11.91L14 12V5.5Z"/>
<path d="M23.6495 16.4109L22.3505 15.6609L21 18L19.6495 15.6609L18.3505 16.4109L20.134 19.5L18.3505 22.5891L19.6495 23.3391L21 21L22.3505 23.3391L23.6495 22.5891L21.866 19.5L23.6495 16.4109Z"/>
<path d="M14.5 23H16V17.5H17.5V16H13V17.5H14.5V23Z"/>
<path d="M26 23H27.5V17.5H29V16H24.5V17.5H26V23Z"/>
</svg>