<svg viewBox="0 0 32 32" xmlns="http://www.w3.org/2000/svg">
<path fill-rule="evenodd" clip-rule="evenodd" d="M5 3C3.89772 3 3 3.89772 3 5V27C3 28.1023 3.89772 29 5 29H21C22.1023 29 23 28.1023 23 27V25H21V27H5V5H13V13H21V14H23V11.5858L14.4142 3H5ZM19.5858 11L15 6.41421V11H19.5858Z"/>
<path fill-rule="evenodd" clip-rule="evenodd" d="M18.125 23V16H21.5C22.3284 16 23 16.6716 23 17.5V19C23 19.8284 22.3284 20.5 21.5 20.5H19.625V23H18.125ZM19.625 19V17.5H21.5V19H19.625Z"/>
<path d="M27.5195 23.1699L26.9045 20.5269L25.625 20.5269V22.9999H24.125V15.9999H25.625V19.0269H25.6314L28.0312 15.9168L29.2188 16.8331L27.4476 19.1285C27.899 19.304 28.2505 19.6929 28.3654 20.1869L28.9805 22.83L27.5195 23.1699Z"/>
<path d="M12.5 16H11V23H12.5V19L13.376 20.3139C13.6728 20.7592 14.3272 20.7592 14.624 20.3139L15.5 19V23H17V16H15.5L14 18.625L12.5 16Z"/>
</svg>