<svg viewBox="0 0 32 32" xmlns="http://www.w3.org/2000/svg">
<path fill-rule="evenodd" clip-rule="evenodd" d="M23 14H12C11.45 14 11 14.45 11 15V24C11 24.55 11.45 25 12 25H23V28C23 28.55 22.55 29 22 29H4C3.45 29 3 28.55 3 28V4C3 3.45 3.45 3 4 3H14.41L23 11.59V14ZM21 12L14 5V12H21Z" fill="black"/>
<path fill-rule="evenodd" clip-rule="evenodd" d="M19.95 16H21.3C22.79 16 24 17.21 24 18.7V20.3C24 21.79 22.79 23 21.3 23H19.95C19.43 23 19 22.57 19 22.05V16.95C19 16.43 19.43 16 19.95 16ZM21.3 21.6C22.02 21.6 22.6 21.02 22.6 20.3V18.7C22.6 17.98 22.02 17.4 21.3 17.4H20.4V21.6H21.3Z" fill="black"/>
<path d="M29.5 17.4V16H26.25C25.73 16 25.3 16.43 25.3 16.95V23H26.7V20.2H29V18.8H26.7V17.4H29.5Z" fill="black"/>
<path fill-rule="evenodd" clip-rule="evenodd" d="M13.75 15.88H16V15.89C16.94 15.89 17.7 16.65 17.7 17.59V18.94C17.7 19.88 16.94 20.64 16 20.64H14.2V23H12.8V16.83C12.8 16.31 13.23 15.88 13.75 15.88ZM16 19.23C16.17 19.23 16.3 19.1 16.3 18.93V17.58C16.3 17.41 16.17 17.28 16 17.28H14.2V19.23H16Z" fill="black"/>
</svg>