<svg viewBox="0 0 32 32" xmlns="http://www.w3.org/2000/svg">
<path fill-rule="evenodd" clip-rule="evenodd" d="M5 27V5H13V13H21V14H23V11.59L14.41 3H5C3.9 3 3 3.9 3 5V27C3 28.1 3.9 29 5 29H21C22.1 29 23 28.1 23 27V25H21V27H5ZM15 6.41L19.59 11H15V6.41Z"/>
<path fill-rule="evenodd" clip-rule="evenodd" d="M19.95 16H21.3C22.79 16 24 17.21 24 18.7V20.3C24 21.79 22.79 23 21.3 23H19.95C19.43 23 19 22.57 19 22.05V16.95C19 16.43 19.43 16 19.95 16ZM21.3 21.6C22.02 21.6 22.6 21.02 22.6 20.3V18.7C22.6 17.98 22.02 17.4 21.3 17.4H20.4V21.6H21.3Z"/>
<path d="M25.3 23V16.95C25.3 16.43 25.73 16 26.25 16H29.5V17.4H26.7V18.8H29V20.2H26.7V23H25.3Z"/>
<path fill-rule="evenodd" clip-rule="evenodd" d="M12.8 16.83C12.8 16.31 13.23 15.88 13.75 15.88V15.89H16C16.94 15.89 17.7 16.65 17.7 17.59V18.94C17.7 19.88 16.94 20.64 16 20.64H14.2V23H12.8V16.83ZM16.3 18.93V17.58C16.3 17.41 16.17 17.28 16 17.28H14.2V19.23H16C16.17 19.23 16.3 19.1 16.3 18.93Z"/>
</svg>