<svg viewBox="0 0 32 32" xmlns="http://www.w3.org/2000/svg">
<path d="M3 2C2.44772 2 2 2.44772 2 3V7H7V2H3Z" fill="black"/>
<path d="M7 16H2V20C2 20.5523 2.44772 21 3 21H7V16Z" fill="black"/>
<path d="M13 9H2V14H12.1204C12.2785 13.4594 12.5855 12.9771 13 12.6061V9Z" fill="black"/>
<path d="M12 16H9V21H12.065C12.0219 20.5878 12 20.1714 12 19.7521V16Z" fill="black"/>
<path d="M26 9V11L22.7276 10.1819C22.2499 10.0625 21.7501 10.0625 21.2724 10.1819L15 11.75V9H26Z" fill="black"/>
<path d="M9 2H19V7H9V2Z" fill="black"/>
<path d="M25 2H21V7H26V3C26 2.44772 25.5523 2 25 2Z" fill="black"/>
<path d="M23 20.6181C23.3069 20.3434 23.5 19.9443 23.5 19.5C23.5 18.6716 22.8284 18 22 18C21.1716 18 20.5 18.6716 20.5 19.5C20.5 19.9443 20.6931 20.3434 21 20.6181V23H23V20.6181Z" fill="black"/>
<path fill-rule="evenodd" clip-rule="evenodd" d="M22 30L18.7 27.9375C15.7762 26.1101 14 22.9054 14 19.4575V15.5616C14 14.6438 14.6246 13.8439 15.5149 13.6213L22 12L28.4851 13.6213C29.3754 13.8439 30 14.6438 30 15.5616V19.4575C30 22.9054 28.2238 26.1101 25.3 27.9375L22 30ZM28 19.4575V15.5616L22 14.0616L16 15.5616V19.4575C16 22.2158 17.421 24.7796 19.76 26.2415L22 27.6415L24.24 26.2415C26.579 24.7796 28 22.2158 28 19.4575Z" fill="black"/>
</svg>