<svg viewBox="0 0 32 32" xmlns="http://www.w3.org/2000/svg">
<path d="M15.83 29.9899C15.83 29.9899 15.91 29.9899 15.95 29.9899H16C20.98 29.9899 26 27.0499 26 20.4899C26 18.4999 25.3 15.7499 24.37 14.0999L23.29 12.1799L22.56 14.2599C22.09 15.5999 20.91 17.5899 19.9 17.5899C19.58 17.5899 18.9 17.5899 18.9 15.5899C18.9 15.0799 18.95 14.3799 19 13.7099C19.05 12.9999 19.1 12.2699 19.1 11.6899C19.1 7.70988 17.69 5.64988 15.08 3.24988L13.86 2.12988L13.43 3.72988C12.64 6.69988 11.16 8.95988 9.74 11.1399C7.82 14.0899 6 16.8799 6 20.9899C6 26.4899 9.76 29.9199 15.83 29.9799V29.9899ZM12.83 26.4399C11.89 25.0299 12.4 22.8199 13.05 21.1899C13.77 22.1999 14.93 23.3599 16.68 23.9499C17.95 24.3699 18.59 25.1499 18.44 26.0799C18.29 27.0199 17.32 27.9899 15.97 27.9999C15.92 27.9999 15.87 27.9999 15.81 27.9999C14.43 27.9699 13.53 27.4999 12.83 26.4499V26.4399ZM11.42 12.2399C12.67 10.3199 13.96 8.33988 14.87 5.84988C16.41 7.48988 17.11 8.98988 17.11 11.6999C17.11 12.2099 17.06 12.9099 17.01 13.5799C16.96 14.2899 16.91 15.0199 16.91 15.5999C16.91 19.0799 18.79 19.5999 19.91 19.5999C21.49 19.5999 22.67 18.2899 23.43 17.0499C23.78 18.2099 24.01 19.4999 24.01 20.4999C24.01 23.9499 22.4 26.0199 20.24 27.0799C20.32 26.8599 20.38 26.6299 20.42 26.3999C20.67 24.8799 19.98 22.9399 17.32 22.0499C14.85 21.2299 13.96 18.6999 13.95 18.6799L13.26 16.6199L12.14 18.4799C12.02 18.6899 9.37 23.1899 10.7 26.6299C8.95 25.4499 8 23.5299 8 20.9999C8 17.4899 9.58 15.0599 11.42 12.2499V12.2399Z"/>
</svg>