<svg viewBox="0 0 32 32" xmlns="http://www.w3.org/2000/svg">
<path fill-rule="evenodd" clip-rule="evenodd" d="M2 20C2 21.1046 2.89543 22 4 22H12V20H10V16H12V14H4L4 10H12V13H14V10H24V11H26V4C26 2.89543 25.1046 2 24 2H4C2.89543 2 2 2.89543 2 4V20ZM18 4H10V8H18V4ZM8 4V8H4L4 4H8ZM4 16L4 20H8V16H4ZM24 4V8H20V4H24Z" fill="black"/>
<path d="M23 20.6181C23.3069 20.3434 23.5 19.9443 23.5 19.5C23.5 18.6716 22.8284 18 22 18C21.1716 18 20.5 18.6716 20.5 19.5C20.5 19.9443 20.6931 20.3434 21 20.6181V23H23V20.6181Z" fill="black"/>
<path fill-rule="evenodd" clip-rule="evenodd" d="M22 30L18.7 27.9375C15.7762 26.1101 14 22.9054 14 19.4575V15.5616C14 14.6438 14.6246 13.8439 15.5149 13.6213L22 12L28.4851 13.6213C29.3754 13.8439 30 14.6438 30 15.5616V19.4575C30 22.9054 28.2238 26.1101 25.3 27.9375L22 30ZM28 19.4575V15.5616L22 14.0616L16 15.5616V19.4575C16 22.2158 17.421 24.7796 19.76 26.2415L22 27.6415L24.24 26.2415C26.579 24.7796 28 22.2158 28 19.4575Z" fill="black"/>
</svg>