<svg viewBox="0 0 32 32" xmlns="http://www.w3.org/2000/svg">
<path d="M24.37 14.1099L23.29 12.1899L22.56 14.2699C22.09 15.6099 20.91 17.5999 19.9 17.5999C19.58 17.5999 18.9 17.5999 18.9 15.5999C18.9 15.0899 18.95 14.3899 19 13.7199C19.05 13.0099 19.1 12.2799 19.1 11.6999C19.1 7.71989 17.69 5.65989 15.08 3.25989L13.86 2.13989L13.43 3.73989C12.64 6.70989 11.16 8.96989 9.74 11.1499C7.82 14.0999 6 16.8899 6 20.9999C6 26.5499 9.83 29.9999 16 29.9999C20.98 29.9999 26 27.0599 26 20.4999C26 18.5099 25.3 15.7599 24.37 14.1099ZM15.95 28.9999C14.04 28.9999 12.84 28.2699 12 26.9999C10 23.9999 13 18.9999 13 18.9999C13 18.9999 14 21.9999 17 22.9999C21.24 24.4099 19.41 28.9999 15.95 28.9999Z" fill="black"/>
</svg>