<svg viewBox="0 0 32 32" xmlns="http://www.w3.org/2000/svg">
<path d="M26.34 3.52003C25.92 3.24003 25.39 3.19003 24.92 3.38003C21.04 4.96003 19.05 4.16003 16.75 3.22003C14.16 2.17003 11.22 0.980029 5.65 3.07003L5 3.31003V30H7V18.71C11.23 17.33 13.44 18.21 15.78 19.14C18.4 20.18 21.1 21.26 26.1 19.05C26.65 18.81 27 18.27 27 17.67V4.76003C27 4.26003 26.75 3.80003 26.34 3.52003ZM25 17.35C20.96 19.05 18.9 18.23 16.52 17.28C14.97 16.66 13.29 16 11.02 16C9.86 16 8.54 16.18 7 16.62V4.70003C11.41 3.20003 13.64 4.11003 16 5.07003C18.36 6.03003 20.79 7.01003 25 5.49003V17.35Z"/>
</svg>