<svg viewBox="0 0 32 32" xmlns="http://www.w3.org/2000/svg">
<path d="M9.74997 19.6699H14V28.7499C14 29.3199 14.37 29.7999 14.92 29.9599C15.03 29.9899 15.14 30.0099 15.25 30.0099C15.68 30.0099 16.1 29.7799 16.35 29.3499L23.97 14.6899C24.34 14.0599 24.34 13.3099 23.98 12.6799C23.62 12.0499 22.97 11.6699 22.24 11.6699H17.99V2.58992C17.99 2.01992 17.62 1.52992 17.07 1.37992C16.52 1.22992 15.95 1.45992 15.64 1.99992L8.01997 16.6599C7.64997 17.2899 7.64997 18.0399 8.00997 18.6699C8.36997 19.2999 9.01997 19.6799 9.74997 19.6799V19.6699ZM16 5.64992V13.6699L22.23 13.7199L16 25.6899V17.6699H9.74997L16 5.64992Z"/>
</svg>