<svg viewBox="0 0 32 32" xmlns="http://www.w3.org/2000/svg">
<path d="M22.25 12.4999H17.5V2.9199C17.5 2.5799 17.28 2.2899 16.95 2.1999C16.62 2.1099 16.28 2.2499 16.09 2.5699L8.46 17.2499C8.18 17.7199 8.18 18.2799 8.46 18.7599C8.74 19.2399 9.22 19.5199 9.76 19.5199H14.51V29.0999C14.51 29.4399 14.73 29.7299 15.06 29.8199C15.13 29.8399 15.19 29.8499 15.26 29.8499C15.52 29.8499 15.77 29.7099 15.92 29.4599L23.55 14.7799C23.83 14.3099 23.83 13.7499 23.55 13.2699C23.28 12.7999 22.79 12.5099 22.25 12.5099V12.4999Z" fill="black"/>
</svg>