<svg viewBox="0 0 32 32" xmlns="http://www.w3.org/2000/svg">
<path fill-rule="evenodd" clip-rule="evenodd" d="M3 2H19.98L25.98 8V17.77L24.69 19.06C24.3 19.45 23.67 19.45 23.28 19.06L21.11 16.89C20.72 16.5 20.21 16.3 19.7 16.3C19.19 16.3 18.68 16.5 18.29 16.89L16.88 18.3C16.1 19.08 16.1 20.35 16.88 21.13L19.05 23.3C19.44 23.69 19.44 24.32 19.05 24.71L17.76 26H3C2.45 26 2 25.55 2 25V3C2 2.45 2.45 2 3 2ZM8 11H18V4H8V11Z" fill="black"/>
<path d="M24 22.59L28.29 18.29L29.71 19.71L25.41 24L29.71 28.29L28.29 29.71L24 25.41L19.71 29.71L18.29 28.29L22.59 24L18.29 19.71L19.71 18.29L24 22.59Z" fill="black"/>
</svg>