<svg viewBox="0 0 32 32" xmlns="http://www.w3.org/2000/svg">
<path fill-rule="evenodd" clip-rule="evenodd" d="M3 2H19.99L25.99 8V18.43L20.36 24.06C19.97 24.45 19.34 24.45 18.95 24.06L17.11 22.22C16.74 21.84 16.23 21.63 15.7 21.63C15.17 21.63 14.67 21.84 14.29 22.22L12.88 23.63C12.24 24.27 12.13 25.24 12.55 26H3C2.45 26 2 25.55 2 25V3C2 2.45 2.45 2 3 2ZM8 11H18V4H8V11Z" fill="black"/>
<path d="M15.71 23.63L19.67 27.59L28.29 18.96L29.71 20.37L19.67 30.41L14.29 25.04L15.71 23.63Z" fill="black"/>
</svg>