<svg viewBox="0 0 32 32" xmlns="http://www.w3.org/2000/svg">
<path d="M5 2C4.45 2 4 2.45 4 3V25C4 25.55 4.45 26 5 26H13V24.57C13 23.73 12.37 23.88 11.96 23.96C11.21 24.11 10.68 23.51 10.29 23.12L8.88 21.71C8.78 21.61 8.7 21.51 8.63 21.4C8.6 21.36 8.58 21.31 8.56 21.26C8.52 21.19 8.48 21.13 8.46 21.06C8.43 20.99 8.41 20.91 8.39 20.84C8.38 20.8 8.36 20.75 8.35 20.71C8.33 20.61 8.32 20.52 8.31 20.42C8.31 20.4 8.31 20.38 8.31 20.35C8.31 20.24 8.31 20.12 8.33 20.01C8.33 20.01 8.33 20 8.33 19.99C8.38 19.63 8.54 19.28 8.79 18.99C8.79 18.99 8.85 18.91 8.89 18.87L14.6 13.16C15.38 12.38 16.65 12.38 17.43 13.16L23.14 18.87C23.14 18.87 23.2 18.95 23.24 18.99C23.49 19.28 23.64 19.63 23.7 19.99C23.7 19.99 23.7 20 23.7 20.01C23.72 20.12 23.72 20.24 23.72 20.35C23.72 20.37 23.72 20.39 23.72 20.42C23.72 20.52 23.7 20.61 23.68 20.71C23.68 20.75 23.65 20.8 23.64 20.84C23.62 20.91 23.6 20.99 23.57 21.06C23.54 21.13 23.5 21.19 23.47 21.26C23.44 21.31 23.43 21.35 23.4 21.4C23.33 21.51 23.25 21.61 23.15 21.71L21.74 23.12C21.35 23.51 20.79 24.11 20.03 24C19.59 23.94 19.02 23.75 19.03 24.62V26H27.03C27.58 26 28.03 25.55 28.03 25V8L22.03 2H5ZM20 11H10V4H20V11Z" fill="black"/>
<path d="M10.29 20.29L11.71 21.71L15 18.41V30H17V18.41L20.29 21.71L21.71 20.29L16 14.59L10.29 20.29Z" fill="black"/>
</svg>