<svg viewBox="0 0 32 32" xmlns="http://www.w3.org/2000/svg">
<path fill-rule="evenodd" clip-rule="evenodd" d="M5 2H22L28 8V25C28 25.55 27.55 26 27 26H23.22C23.89 25.21 23.86 24.03 23.12 23.29L21.71 21.88C21.6844 21.8544 21.6581 21.8278 21.6313 21.8007C21.2494 21.4144 20.7407 20.8999 20.04 21.04C20.0278 21.0424 20.0153 21.0448 20.0027 21.0473C19.5929 21.1281 19 21.2449 19 20.43V15C19 13.9 18.1 13 17 13H15C13.9 13 13 13.9 13 15V20.38C13.009 21.1618 12.5496 21.0876 12.1371 21.021C12.0905 21.0135 12.0446 21.0061 12 21C11.2714 20.8945 10.7267 21.4416 10.3393 21.8306C10.3225 21.8474 10.3061 21.8639 10.29 21.88L8.88 23.29C8.14 24.04 8.11 25.21 8.78 26H5C4.45 26 4 25.55 4 25V3C4 2.45 4.45 2 5 2ZM10 11H20V4H10V11Z" fill="black"/>
<path d="M17 15V26.59L20.29 23.29L21.71 24.71L16 30.41L10.29 24.71L11.71 23.29L15 26.59V15H17Z" fill="black"/>
</svg>