<svg viewBox="0 0 32 32" xmlns="http://www.w3.org/2000/svg">
<path d="M16.99 22C17.37 22 17.68 21.55 17.29 21.12L15.88 19.71C15.1 18.93 15.1 17.66 15.88 16.88L21.59 11.17C21.98 10.78 22.49 10.58 23 10.58C23.51 10.58 24.02 10.78 24.41 11.17L30 16.76V6C30 5.45 29.55 5 29 5H12L10 2H3C2.45 2 2 2.45 2 3V21C2 21.55 2.45 22 3 22H16.99Z" fill="black"/>
<path d="M18 28V25H16V28C16 29.1 16.9 30 18 30H28C29.1 30 30 29.1 30 28V25H28V28H18Z" fill="black"/>
<path d="M24 16.41V26H22V16.41L18.71 19.71L17.29 18.29L23 12.59L28.71 18.29L27.29 19.71L24 16.41Z" fill="black"/>
</svg>