<svg viewBox="0 0 32 32" xmlns="http://www.w3.org/2000/svg">
<path d="M21 7C20.23 7 19.44 7.14 18.67 7.38L20.91 3.5L19.18 2.5L15.71 8.52C14.28 7.56 12.59 7 10.99 7C6.22001 7.1 3.01001 10.87 3.01001 16.36C3.01001 22.95 6.63001 30 12.01 30C13.76 30 15.19 29.11 16.01 28.45C16.83 29.11 18.26 30 20.01 30C25.39 30 29.01 22.95 29.01 16.36C29.01 10.86 25.8 7.1 21.01 7H21ZM20 28C18.19 28 16.76 26.45 16.75 26.43L16.01 25.61L15.26 26.43C15.26 26.43 13.81 28 12 28C7.99001 28 5.00001 21.86 5.00001 16.36C5.00001 11.97 7.36001 9.08 11 9C12.45 9 14.12 9.67 15.34 10.75L16 11.33L16.66 10.75C17.88 9.67 19.55 9 20.98 9C24.64 9.08 27 11.97 27 16.36C27 21.85 24.01 28 20 28Z"/>
</svg>