<svg viewBox="0 0 32 32" xmlns="http://www.w3.org/2000/svg">
<path d="M28 11H24.03C24.46 10.14 24.7 9.27 24.7 8.4C24.7 5.85 22.72 4 20 4C18.51 4 16.97 4.83 16 6.42C15.03 4.83 13.49 4 12 4C9.28 4 7.3 5.85 7.3 8.4C7.3 9.27 7.54 10.14 7.97 11H4C2.9 11 2 11.9 2 13V16C2 17.1 2.9 18 4 18V26C4 27.1 4.9 28 6 28H26C27.1 28 28 27.1 28 26V18C29.1 18 30 17.1 30 16V13C30 11.9 29.1 11 28 11ZM20 6C21.64 6 22.7 6.94 22.7 8.4C22.7 9.25 22.35 10.12 21.69 11H17V10.3C17 7.51 18.55 6 20 6ZM9.3 8.4C9.3 6.94 10.36 6 12 6C13.45 6 15 7.51 15 10.3V11H10.3C9.66 10.13 9.3 9.24 9.3 8.4ZM4 13H15V16H4V13ZM6 18H15V26H6V18ZM26 26H17V18H26V26ZM17 16V13H28V16H17Z"/>
</svg>