<svg viewBox="0 0 32 32" xmlns="http://www.w3.org/2000/svg">
<path fill-rule="evenodd" clip-rule="evenodd" d="M29 10H24.43C24.59 9.47 24.7 8.93 24.7 8.4C24.7 5.85 22.72 4 20 4C18.51 4 16.97 4.83 16 6.42C15.03 4.83 13.49 4 12 4C9.28 4 7.3 5.85 7.3 8.4C7.3 8.93 7.41 9.47 7.57 10H3C2.45 10 2 10.45 2 11V15C2 15.55 2.45 16 3 16H15V10H17V16H29C29.55 16 30 15.55 30 15V11C30 10.45 29.55 10 29 10ZM9.69 10C9.44 9.46 9.3 8.92 9.3 8.4C9.3 6.94 10.36 6 12 6C13.4 6 14.87 7.41 14.98 10H9.69ZM22.31 10H17.02C17.13 7.41 18.6 6 20 6C21.64 6 22.7 6.94 22.7 8.4C22.7 8.93 22.56 9.46 22.31 10Z" fill="black"/>
<path d="M4 18V27C4 27.55 4.45 28 5 28H15V18H4Z" fill="black"/>
<path d="M17 28V18H28V27C28 27.55 27.55 28 27 28H17Z" fill="black"/>
</svg>