<svg viewBox="0 0 32 32" xmlns="http://www.w3.org/2000/svg">
<path d="M17.2265 2.50805C16.5491 1.83065 15.4508 1.83065 14.7734 2.50805L12.1099 5.17158L15.2872 8.34885C15.5176 8.2654 15.7663 8.2199 16.0255 8.2199C17.223 8.2199 18.1938 9.19065 18.1938 10.3881C18.1938 10.6474 18.1483 10.896 18.0648 11.1265L20.9246 13.9863C21.1551 13.9028 21.4037 13.8573 21.6629 13.8573C22.8604 13.8573 23.8312 14.8281 23.8312 16.0256C23.8312 17.2231 22.8604 18.1938 21.6629 18.1938C20.4655 18.1938 19.4947 17.2231 19.4947 16.0256C19.4947 15.7257 19.5556 15.4401 19.6656 15.1804L16.8928 12.4076L16.8928 19.6752C17.6586 20.0098 18.1938 20.7739 18.1938 21.663C18.1938 22.8605 17.223 23.8313 16.0255 23.8313C14.828 23.8313 13.8573 22.8605 13.8573 21.663C13.8573 20.7739 14.3925 20.0098 15.1582 19.6752L15.1582 12.376C14.3925 12.0414 13.8573 11.2773 13.8573 10.3881C13.8573 10.0883 13.9182 9.80268 14.0282 9.54295L10.8834 6.39813L2.50805 14.7735C1.83065 15.4509 1.83065 16.5492 2.50805 17.2266L14.7734 29.492C15.4508 30.1695 16.5491 30.1695 17.2265 29.492L29.4919 17.2266C30.1693 16.5492 30.1693 15.4509 29.4919 14.7735L17.2265 2.50805Z" fill="black"/>
</svg>