<svg viewBox="0 0 32 32" xmlns="http://www.w3.org/2000/svg">
<path fill-rule="evenodd" clip-rule="evenodd" d="M16 1.99999C8.27 1.99999 2 8.26999 2 16C2 22.18 6.01 27.43 11.57 29.28C12.27 29.41 12.53 28.98 12.53 28.61C12.53 28.28 12.52 27.4 12.51 26.23C8.62 27.08 7.79 24.35 7.79 24.35C7.15 22.73 6.24 22.3 6.24 22.3C4.97 21.43 6.34 21.45 6.34 21.45C7.74 21.55 8.48 22.89 8.48 22.89C9.73 25.03 11.76 24.41 12.55 24.05C12.68 23.15 13.04 22.53 13.44 22.18C10.33 21.83 7.06 20.63 7.06 15.26C7.06 13.73 7.61 12.48 8.5 11.5C8.36 11.15 7.88 9.71999 8.64 7.78999C8.64 7.78999 9.82 7.40999 12.49 9.22999C13.61 8.91999 14.8 8.75999 15.99 8.75999C17.18 8.75999 18.38 8.91999 19.49 9.22999C22.16 7.41999 23.34 7.78999 23.34 7.78999C24.1 9.71999 23.62 11.14 23.48 11.5C24.38 12.48 24.92 13.73 24.92 15.26C24.92 20.64 21.65 21.82 18.53 22.17C19.03 22.6 19.48 23.46 19.48 24.76C19.48 26.63 19.46 28.14 19.46 28.6C19.46 28.97 19.71 29.41 20.42 29.27C25.98 27.42 29.99 22.17 29.99 15.99C29.99 8.25999 23.72 1.98999 15.99 1.98999L16 1.99999Z"/>
</svg>