<svg viewBox="0 0 32 32" xmlns="http://www.w3.org/2000/svg">
<path d="M16 2C8.41 2 2 8.5 2 16.19C2 23.88 8.28 30 16 30C23.72 30 30 23.8 30 16.19C30 8.58 23.59 2 16 2ZM27.94 15H22.18C22.04 11.05 21.19 7.12 19.7 4.63C24.1 6.13 27.46 10.21 27.94 15ZM20.18 15H11.82C12.05 8.63 14.13 4 16 4C17.87 4 19.94 8.63 20.18 15ZM12.3 4.63C10.81 7.12 9.96 11.06 9.82 15H4.06C4.54 10.2 7.9 6.13 12.3 4.63ZM4.04 17H9.82C9.92 21.39 10.86 25.1 12.32 27.42C7.75 25.96 4.39 21.89 4.05 17H4.04ZM11.81 17H20.18C20.02 23.52 17.9 28 16 28C14.1 28 11.98 23.52 11.82 17H11.81ZM19.68 27.42C21.13 25.1 22.07 21.38 22.18 17H27.96C27.62 21.89 24.25 25.97 19.69 27.42H19.68Z"/>
</svg>