<svg viewBox="0 0 32 32" xmlns="http://www.w3.org/2000/svg">
<path d="M16 2C8.28 2 2 8.28 2 16C2 23.72 8.28 30 16 30C23.72 30 30 23.72 30 16C30 8.28 23.72 2 16 2ZM28 16C28 18.16 27.42 20.18 26.42 21.93L25.24 18H22.41L20.57 16.17L20.81 15H25.28L23.78 9H20V8.5L22.98 6.26C26.01 8.44 28 11.99 28 16ZM10.79 5.21L13 7.42V8.47L8.29 11.27L6.58 13.83L4.36 13.11C5.23 9.63 7.62 6.76 10.78 5.23L10.79 5.21ZM12 27.3C11.3 27.05 10.63 26.74 10 26.38V22.84L9 19.84V18.54L11.03 17.19L14.8 19.42L14.09 21.57L12 24.71V27.31V27.3ZM4 16C4 15.69 4.02 15.39 4.05 15.09L6.21 15.8L7 18.17V20.17L8 23.17V24.93C5.55 22.73 4 19.55 4 16.01V16ZM16 28C15.32 28 14.65 27.93 14 27.82V25.3L15.83 22.55L17.2 18.5L10.97 14.82L8.54 16.44L8.11 15.15L9.71 12.75L15 9.61V6.6L12.85 4.45C13.86 4.18 14.91 4.02 16 4.02C17.83 4.02 19.56 4.44 21.12 5.18L18 7.52V11.02H22.22L22.72 13.02H19.19L18.39 16.85L21.59 20.02H23.76L24.95 23.99C22.75 26.46 19.56 28.02 16 28.02V28Z"/>
</svg>