<svg viewBox="0 0 32 32" xmlns="http://www.w3.org/2000/svg">
<path d="M16 2C8.28 2 2 8.28 2 16C2 23.72 8.28 30 16 30C23.72 30 30 23.72 30 16C30 8.28 23.72 2 16 2ZM4 16C4 15.69 4.02 15.39 4.05 15.09L6.21 15.8L7 18.17V20.17L8 23.17V24.93C5.55 22.73 4 19.55 4 16.01V16ZM16 28C15.32 28 14.65 27.93 14 27.82V25.3L15.83 22.55L17.2 18.5L10.97 14.82L8.54 16.44L8.11 15.15L9.71 12.75L15 9.61V6.6L12.85 4.45C13.86 4.18 14.91 4.02 16 4.02C17.83 4.02 19.56 4.44 21.12 5.18L18 7.52V11.02H22.22L22.72 13.02H19.19L18.39 16.85L21.59 20.02H23.76L24.95 23.99C22.75 26.46 19.56 28.02 16 28.02V28Z" fill="black"/>
</svg>