<svg viewBox="0 0 32 32" xmlns="http://www.w3.org/2000/svg">
<path d="M16 2C18.25 2 20.73 7.48 20.98 15H11.02C11.27 7.48 13.75 2 16 2Z" fill="black"/>
<path d="M22.9701 15C22.8101 9.19004 21.5201 5.00004 19.8201 2.54004C25.3801 4.12004 29.5301 9.04004 29.9501 15H22.9701Z" fill="black"/>
<path d="M11.02 17C11.18 24.7 13.72 30 16 30C18.28 30 20.82 24.7 20.98 17H11.02Z" fill="black"/>
<path d="M2.05005 15C2.47005 9.04004 6.62005 4.12004 12.18 2.54004C10.48 5.00004 9.19005 9.19004 9.03005 15H2.05005Z" fill="black"/>
<path d="M2.05005 17C2.47005 22.92 6.56005 27.82 12.08 29.43C10.29 26.79 9.12005 22.32 9.02005 17H2.05005Z" fill="black"/>
<path d="M29.9499 17C29.5299 22.92 25.4299 27.82 19.9199 29.43C21.7099 26.79 22.8699 22.32 22.9799 17H29.9499Z" fill="black"/>
</svg>