<svg viewBox="0 0 32 32" xmlns="http://www.w3.org/2000/svg">
<path fill-rule="evenodd" clip-rule="evenodd" d="M16.277 13.9987V18.8007H24.2172C23.8948 20.862 21.816 24.8383 16.277 24.8383C11.4977 24.8383 7.59839 20.8796 7.59839 16.0006C7.59839 11.122 11.4977 7.16328 16.277 7.16328C18.9951 7.16328 20.8166 8.32336 21.8563 9.32274L25.6574 5.66371C23.2184 3.37869 20.0575 1.99951 16.2791 1.99951C8.54041 1.99951 2.27856 8.26136 2.27856 16C2.27856 23.7387 8.54041 30.0006 16.2791 30.0006C24.3573 30.0006 29.7215 24.3185 29.7215 16.322C29.7215 15.4032 29.6234 14.7036 29.5024 14.0034L16.2791 13.9977L16.277 13.9987Z"/>
</svg>