<svg viewBox="0 0 32 32" xmlns="http://www.w3.org/2000/svg">
<path fill-rule="evenodd" clip-rule="evenodd" d="M14.7953 6.96136C15.0189 7.02591 15.2554 7.0605 15.5001 7.0605C15.7456 7.0605 15.9828 7.02569 16.2071 6.96074L23.848 20.1949C23.677 20.3579 23.5263 20.5479 23.4027 20.763C23.2797 20.9769 23.1914 21.2014 23.1359 21.43H7.86451C7.80908 21.2016 7.7207 20.9771 7.59764 20.763C7.47346 20.5492 7.32305 20.3603 7.15289 20.1979L14.7953 6.96136ZM13.68 6.28928C13.7035 6.31368 13.7276 6.33762 13.7522 6.36106L6.10953 19.5981C6.0765 19.5885 6.04328 19.5796 6.0099 19.5714V12.8185C6.65387 12.6584 7.23412 12.2476 7.59032 11.628C7.94605 11.0092 8.01201 10.3032 7.82981 9.66696L13.68 6.28928ZM17.9258 5.25352C17.9938 5.02443 18.0303 4.78167 18.0303 4.53025C18.0303 3.131 16.8993 2 15.5001 2C14.1008 2 12.9698 3.131 12.9698 4.53025C12.9698 4.78034 13.006 5.02185 13.0733 5.24987L7.23391 8.62135C7.07011 8.44837 6.87898 8.2956 6.66232 8.16975C5.45157 7.47375 3.90007 7.887 3.20407 9.09775C2.50807 10.3085 2.92132 11.86 4.13207 12.556C4.34825 12.6803 4.5753 12.7692 4.8064 12.8245V19.5681C4.57796 19.6236 4.35346 19.7119 4.13939 19.835C2.92864 20.5382 2.51539 22.0825 3.21139 23.2932C3.90739 24.504 5.45164 24.9172 6.66964 24.2212C6.88398 24.0968 7.07333 23.9459 7.23596 23.7752L13.0722 27.1449C13.0056 27.3718 12.9698 27.612 12.9698 27.8607C12.9698 29.26 14.1008 30.391 15.5001 30.391C16.8993 30.391 18.0303 29.2527 18.0303 27.8607C18.0303 27.582 17.9855 27.3139 17.9025 27.0633L23.7048 23.7133C23.8802 23.9102 24.0896 24.0827 24.3307 24.2212C25.5414 24.9172 27.0929 24.504 27.7889 23.2932C28.4922 22.0825 28.0789 20.5382 26.8609 19.835C26.647 19.712 26.4225 19.6237 26.1939 19.5682V12.8245C26.4249 12.7692 26.652 12.6803 26.8681 12.556C28.0789 11.8527 28.4921 10.3085 27.7961 9.09775C27.0929 7.887 25.5486 7.47375 24.3379 8.16975C24.1201 8.29627 23.9281 8.45 23.7637 8.62412L17.9258 5.25352ZM17.2496 6.35953C17.2727 6.33746 17.2954 6.31495 17.3176 6.29202L23.1693 9.67062C22.9884 10.3059 23.0548 11.0104 23.4099 11.628C23.7661 12.2476 24.3464 12.6584 24.9904 12.8185V19.5707C24.9575 19.5788 24.9249 19.5875 24.8924 19.5968L17.2496 6.35953ZM23.1851 22.7995L17.3713 26.1561C16.9088 25.6486 16.2422 25.3305 15.5001 25.3305C14.7835 25.3305 14.1372 25.6271 13.6772 26.1045L7.83501 22.7314C7.84442 22.699 7.85317 22.6663 7.86127 22.6335H23.1384C23.1521 22.6893 23.1677 22.7447 23.1851 22.7995Z"/>
</svg>