<svg viewBox="0 0 32 32" xmlns="http://www.w3.org/2000/svg">
<path d="M28.0602 5.40001L25.9002 7.71001L25.0502 6.95001L27.1902 4.59001L26.3502 3.93001C25.5902 3.33001 24.6902 3.02001 23.6102 3.01001C22.2602 3.09001 20.8702 3.79001 19.8902 4.89001C18.9302 5.98001 18.4502 7.36001 18.5402 8.70001C18.5402 9.27001 18.6602 9.79001 18.8302 10.23L16.5202 12.71L13.6102 9.95001L16.6102 6.79001L13.4302 3.65001L8.92018 3.98001L1.68018 11.63L6.89018 17.01L9.37018 14.4L12.2902 17.16L6.81018 23.01C6.06018 23.84 5.82018 24.88 6.14018 25.85C6.50018 26.91 7.47018 27.73 8.62018 27.95C8.81018 27.99 9.00018 28 9.19018 28C10.0202 28 10.7802 27.65 11.3002 27.02L16.6602 21.29L22.6902 26.99C23.3402 27.62 24.1202 27.95 24.9302 27.95C25.2102 27.95 25.4902 27.91 25.7602 27.83C26.8202 27.52 27.6702 26.64 27.9202 25.58C28.1802 24.5 27.8002 23.39 26.9002 22.55L20.8902 16.84L23.2802 14.25C23.8202 14.42 24.3702 14.48 24.9202 14.43C26.2202 14.37 27.4802 13.72 28.4702 12.62C29.4902 11.48 30.0602 10.01 29.9902 8.65001C29.9002 7.58001 29.4902 6.68001 28.7802 6.05001L28.0502 5.40001H28.0602ZM6.87018 14.12L4.45018 11.62L9.84018 5.91001L12.6702 5.70001L13.8102 6.82001L6.87018 14.12ZM9.80018 25.69C9.72018 25.78 9.48018 26.07 8.98018 25.98C8.55018 25.9 8.15018 25.58 8.03018 25.21C7.99018 25.11 7.89018 24.79 8.28018 24.37L13.7402 18.54L15.2102 19.93L9.80018 25.71V25.69ZM25.9702 25.11C25.8802 25.48 25.5702 25.8 25.2002 25.91C24.8202 26.02 24.4302 25.9 24.0702 25.54L10.7502 12.95L12.2402 11.38L25.5402 24C25.8102 24.25 26.1002 24.64 25.9902 25.11H25.9702ZM26.9802 11.27C26.3602 11.96 25.5702 12.38 24.7802 12.42C24.3202 12.46 23.8902 12.38 23.4702 12.16L22.7902 11.81L19.4402 15.45L17.9702 14.06L21.2102 10.59L20.9102 9.97001C20.6502 9.43001 20.5402 9.07001 20.5402 8.62001C20.4602 7.50001 20.9602 6.68001 21.3902 6.20001C22.0102 5.50001 22.9002 5.04001 23.6502 5.00001C23.8002 5.00001 23.9402 5.01001 24.0802 5.04001L22.2202 7.10001L26.0202 10.51L27.9502 8.45001C27.9702 8.56001 27.9902 8.67001 28.0002 8.79001C28.0402 9.59001 27.6602 10.55 26.9902 11.29L26.9802 11.27Z"/>
</svg>