<svg viewBox="0 0 32 32" xmlns="http://www.w3.org/2000/svg">
<path d="M15.8199 11.5401L19.2899 8.11009L13.7099 2.59009L3.74994 12.4401L2.93994 18.0701L6.07994 21.1801L10.2399 17.0601L22.0399 28.7301C22.9399 29.5601 23.9999 29.9901 25.0599 29.9901C25.4599 29.9901 25.8599 29.9301 26.2499 29.8001C27.5999 29.3701 28.6199 28.2601 28.9199 26.9101C29.2099 25.5601 28.7099 24.1801 27.5799 23.1601L15.8199 11.5401ZM5.05994 17.3601L5.62994 13.3901L13.7099 5.41009L16.4499 8.12009L6.07994 18.3701L5.05994 17.3601ZM26.9599 26.5001C26.8199 27.1401 26.2999 27.7001 25.6399 27.9101C24.8999 28.1501 24.0999 27.9101 23.4199 27.2901L11.6599 15.6601L14.3999 12.9501L26.2099 24.6301C26.8399 25.2001 27.1099 25.8501 26.9599 26.5001Z"/>
</svg>