<svg viewBox="0 0 32 32" xmlns="http://www.w3.org/2000/svg">
<path d="M28.97 8.73C29.08 10.86 27.1301 13.32 24.85 13.43L24.84 13.41C24.15 13.47 23.53 13.33 22.98 13.05L19.4501 16.88L26.2001 23.29C28.43 25.37 25.4601 28.33 23.3701 26.3L16.58 19.89L10.5601 26.32C9.00005 28.19 5.67005 25.74 7.54005 23.67L13.66 17.14L14.58 18L10.64 14.28L13.59 11.33L16.5301 14.12L19.98 10.42C19.71 9.87 19.5201 9.32 19.5201 8.7C19.34 6.08 21.57 4.12 23.64 4C24.4 4.01 25.08 4.22 25.7001 4.71L23.6101 7.02L25.93 9.11L28.09 6.8C28.64 7.28 28.91 7.97 28.97 8.73Z" fill="black"/>
<path d="M9.38006 4.93991L13.0501 4.65991L15.2101 6.78991L6.88006 15.5699L3.06006 11.6199L9.38006 4.93991Z" fill="black"/>
</svg>