<svg viewBox="0 0 32 32" xmlns="http://www.w3.org/2000/svg">
<g clip-path="url(#clip0_5038_1425)">
<path d="M14 7C14 7.55228 13.5523 8 13 8C12.4477 8 12 7.55228 12 7C12 6.44772 12.4477 6 13 6C13.5523 6 14 6.44772 14 7Z" fill="black"/>
<path fill-rule="evenodd" clip-rule="evenodd" d="M11.0236 17.9999C11.061 17.2688 11.143 16.5413 11.2689 15.8213C11.317 15.5463 11.3714 15.2724 11.4323 14.9999C11.4517 14.913 11.4717 14.8262 11.4924 14.7396C11.5836 14.3576 11.6874 13.9784 11.8036 13.6026C11.8423 13.4776 11.8823 13.353 11.9237 13.2288L12 12.9999H11L10.3422 13.877C10.088 14.2158 9.78428 14.4923 9.4494 14.705C8.15551 15.5268 6.39704 15.3969 5.23971 14.2396C3.97936 12.9792 3.91205 10.9576 5.08577 9.61616L10 3.99988V0.647098C10 0.349745 10.3129 0.156347 10.5789 0.289327L14 1.99988H16C20.4183 1.99988 24 5.58161 24 9.99988V19.9999H11V18.9209C11 18.6135 11.0079 18.3064 11.0236 17.9999ZM12 4.75135V3.23595L13.5279 3.99988H16C19.3137 3.99988 22 6.68618 22 9.99988V17.9999H20V10.4143C20 9.24357 19.5349 8.12079 18.7071 7.29297L17.2929 8.70718C17.7456 9.15993 18 9.774 18 10.4143V17.9999H13.0265C13.1077 16.5927 13.3745 15.201 13.8211 13.8612L14.7749 10.9999H10L8.74219 12.677C8.23626 13.3515 7.25017 13.4216 6.65392 12.8254C6.13811 12.3096 6.11056 11.4822 6.59092 10.9332L12 4.75135Z" fill="black"/>
<path fill-rule="evenodd" clip-rule="evenodd" d="M4 21V31H6V29.344L15.0603 32.0621L28.2889 26.3927C29.4383 25.9001 29.8588 24.4854 29.1652 23.445L28.2935 22.1374C27.7587 21.3352 26.7277 21.0287 25.8415 21.4085L20.9394 23.5094C20.7207 22.642 19.9353 22 19 22H6V21H4ZM14.9397 29.9379L6 27.2559L6 24H19V25.1327L12.8586 26.0101L13.1414 27.99L19.2828 27.1126C20.076 26.9993 20.7049 26.4304 20.92 25.6936L26.6294 23.2468L27.5011 24.5544L14.9397 29.9379Z" fill="black"/>
</g>
</svg>