<svg viewBox="0 0 32 32" xmlns="http://www.w3.org/2000/svg">
<path fill-rule="evenodd" clip-rule="evenodd" d="M18.6538 6.62844L16 1.98438L13.3463 6.62844L8.12439 7.88169L11.6698 11.7869L11.124 17.1199L16.0222 14.9268L20.8771 17.13L20.3302 11.7869L23.8756 7.88169L18.6538 6.62844ZM14.6538 8.37144L16 6.0155L17.3463 8.37144L20.1244 9.03819L18.2498 11.103L18.533 13.8699L16.0278 12.733L13.466 13.88L13.7502 11.103L11.8756 9.03819L14.6538 8.37144Z" fill="black"/>
<path fill-rule="evenodd" clip-rule="evenodd" d="M6.82497 17.5368L6.10183 11.7517C5.97672 10.7508 5.12579 9.99965 4.11707 9.99976L2.99979 9.99987C1.8953 9.99999 0.999997 10.8954 1 11.9999L1.00003 24.4139L4.58434 27.9984H3.99976L3.99976 29.9984L13.9998 29.9984L13.9998 27.9984L13 27.9984V27.2749C13 26.915 12.9029 26.5618 12.7189 26.2524L8.08378 18.4607C7.79452 17.9744 7.33296 17.6569 6.82497 17.5368ZM4.11728 11.9998L3 11.9999L3.00003 23.5855L7.41268 27.9984L11 27.9984V27.2749L6.36492 19.4832L5.33726 20.1617L7.20601 23.9412L5.41319 24.8276L3.54444 21.0482C3.09738 20.144 3.39355 19.0484 4.23528 18.4927L4.876 18.0697L4.11728 11.9998Z" fill="black"/>
<path fill-rule="evenodd" clip-rule="evenodd" d="M25.175 17.5368L25.8982 11.7517C26.0233 10.7508 26.8742 9.99965 27.8829 9.99976L29.0002 9.99987C30.1047 9.99999 31 10.8954 31 11.9999L31 24.4139L27.4157 27.9984H28.0002L28.0002 29.9984L18.0002 29.9984L18.0002 27.9984L19 27.9984V27.2749C19 26.915 19.0971 26.5618 19.2811 26.2524L23.9162 18.4607C24.2055 17.9744 24.667 17.6569 25.175 17.5368ZM27.8827 11.9998L29 11.9999L29 23.5855L24.5873 27.9984L21 27.9984V27.2749L25.6351 19.4832L26.6627 20.1617L24.794 23.9412L26.5868 24.8276L28.4556 21.0482C28.9026 20.144 28.6064 19.0484 27.7647 18.4927L27.124 18.0697L27.8827 11.9998Z" fill="black"/>
</svg>