<svg viewBox="0 0 32 32" xmlns="http://www.w3.org/2000/svg">
<path d="M9.00021 4H11.2102L3.97021 15.76L4.00021 16.09C4.12021 17.4 5.53021 19 7.00021 19C8.16021 19 9.69021 17.81 11.0002 16.54V27.08C11.0002 28.61 12.4302 30 14.0002 30H15.0002C16.6502 30 18.0002 28.65 18.0002 27V22.29L24.4402 21C27.7502 20.08 28.0002 18.85 28.0002 17V11.75L26.0002 7.76V4H28.0002V2H9.00021V4ZM26.0002 12.23V17.07C26.0002 18.25 26.0002 18.5 23.9802 19.06L16.0002 20.65V27C16.0002 27.55 15.5502 28 15.0002 28H14.0002C13.5702 28 13.0002 27.54 13.0002 27.08V11.3L11.2402 13.35C8.91021 16.06 7.37021 16.98 7.00021 17C6.75021 17 6.27022 16.56 6.07021 16.16L13.5602 4H24.0002V8.24L26.0002 12.23Z"/>
</svg>