<svg viewBox="0 0 32 32" xmlns="http://www.w3.org/2000/svg">
<g clip-path="url(#clip0_5038_1431)">
<path d="M18 1H16V4H18V1Z" fill="black"/>
<path d="M23.7071 5.70718L25.7071 3.70718L24.2929 2.29297L22.2929 4.29297L23.7071 5.70718Z" fill="black"/>
<path fill-rule="evenodd" clip-rule="evenodd" d="M9.29148 13.2915L17 21L24.7085 13.2915C25.44 12.56 25.493 11.3916 24.8308 10.5969L21.5997 6.71963C21.2197 6.26365 20.6568 6 20.0633 6H13.9368C13.3432 6 12.7803 6.26365 12.4003 6.71963L9.16926 10.5969C8.50705 11.3916 8.56005 12.56 9.29148 13.2915ZM16.677 8H17.3231L18.5231 11H15.4769L16.677 8ZM20.6772 11L19.4772 8H20.0633L22.5633 11H20.6772ZM14.5229 8H13.9368L11.4368 11H13.3229L14.5229 8ZM15.4428 13H18.557L16.9999 17.1522L15.4428 13ZM19.8058 15.3658L20.693 13H22.1716L19.8058 15.3658ZM13.3068 13H11.8284L14.1938 15.3653L13.3068 13Z" fill="black"/>
<path fill-rule="evenodd" clip-rule="evenodd" d="M4 21V31H6V29.344L15.0603 32.0621L28.2889 26.3927C29.4383 25.9001 29.8588 24.4854 29.1652 23.445L28.2935 22.1374C27.7587 21.3352 26.7277 21.0287 25.8415 21.4085L20.9394 23.5094C20.7207 22.642 19.9353 22 19 22H6V21H4ZM14.9397 29.9379L6 27.2559L6 24H19V25.1327L12.8586 26.0101L13.1414 27.99L19.2828 27.1126C20.076 26.9993 20.7049 26.4304 20.92 25.6936L26.6294 23.2468L27.5011 24.5544L14.9397 29.9379Z" fill="black"/>
<path d="M8.29288 3.70718L10.2929 5.70718L11.7071 4.29297L9.70709 2.29297L8.29288 3.70718Z" fill="black"/>
</g>
</svg>