<svg viewBox="0 0 32 32" xmlns="http://www.w3.org/2000/svg">
<path d="M28 11.21L16.24 3.96997L15.91 3.99997C14.6 4.11997 13 5.51997 13 6.99997C13 7.69997 13.37 8.72997 15.73 11H4.92C3.39 11 2 12.43 2 14V15C2 16.65 3.35 18 5 18H9.74L11 23.44C11.74 26.11 12.44 28 14.75 28H18.01C18.59 28 18.82 27.94 20.96 27.19C21.12 27.13 21.41 27.01 21.76 26.86C22.28 26.63 23.66 26.02 24.05 26.01C24.4 26 26 26.01 27.28 26.01H28.01V28.01H30.01V8.99997H28.01V11.21H28ZM27.28 23.99C25.84 23.99 24.36 23.98 23.96 23.99C23.26 24.02 22.18 24.47 20.95 25.01C20.66 25.14 20.42 25.24 20.29 25.29C18.3 25.99 18.23 25.99 18 25.99H14.74C14.18 25.99 13.77 25.99 12.93 22.94L11.32 15.99H5C4.45 15.99 4 15.54 4 14.99V13.99C4 13.56 4.46 12.99 4.92 12.99H21.03L18.98 11.23C15.24 8.01997 15.01 7.06997 15 6.98997C15 6.73997 15.44 6.25997 15.84 6.05997L28 13.54V23.98H27.28V23.99Z"/>
</svg>