<svg viewBox="0 0 32 32" xmlns="http://www.w3.org/2000/svg">
<path d="M16.0001 2C12.0935 2 8.74805 5.17374 8.74805 9C8.74805 9.60581 8.82477 10.1922 8.96852 10.7507L7.03164 11.2493C6.84633 10.5293 6.74805 9.77539 6.74805 9C6.74805 3.98971 11.0701 0 16.0001 0C20.9301 0 25.252 3.98973 25.252 9C25.252 9.77539 25.1537 10.5293 24.9684 11.2493L23.0316 10.7507C23.1753 10.1922 23.252 9.60581 23.252 9C23.252 5.17371 19.9067 2 16.0001 2Z" fill="black"/>
<path d="M9 10C9 8.89543 9.89543 8 11 8H12C13.1046 8 14 8.89543 14 10V13C14 14.1046 13.1046 15 12 15H11C9.89543 15 9 14.1046 9 13V10Z" fill="black"/>
<path d="M21.5 15.4981V14.937C22.3626 14.715 23 13.9319 23 13V10C23 8.89543 22.1046 8 21 8H20C18.8954 8 18 8.89543 18 10V13C18 13.9319 18.6374 14.715 19.5 14.937V15.4981C19.5 16.0558 19.2145 16.5489 18.7794 16.8361C18.4475 16.1911 17.7753 15.75 17 15.75H15C13.8954 15.75 13 16.6454 13 17.75V18.25C13 19.3546 13.8954 20.25 15 20.25H17C17.8515 20.25 18.5787 19.7179 18.8672 18.9681C20.3909 18.5436 21.5 17.1462 21.5 15.4981Z" fill="black"/>
<path d="M4 31V20H6V31H4Z" fill="black"/>
<path d="M8 22V28.9441L14.058 30.7615C14.6946 30.9525 15.3766 30.9266 15.9969 30.688L27.9478 26.0916C28.7192 25.7949 29.067 24.898 28.6974 24.1588L28.0429 22.8498C27.7416 22.2472 27.0539 21.9446 26.4061 22.1297L21 23.6743V24.2654C21 25.7584 19.9022 27.0241 18.4243 27.2353L13.1414 27.99L12.8586 26.01L18.1414 25.2554C18.6341 25.185 19 24.7631 19 24.2654V23C19 22.4477 18.5523 22 18 22H8Z" fill="black"/>
</svg>