<svg viewBox="0 0 32 32" xmlns="http://www.w3.org/2000/svg">
<g clip-path="url(#clip0_5038_1426)">
<path d="M12 11L15.42 14.41L20.84 9.00008L19.42 7.58008L15.42 11.59L13.42 9.58003L12 11Z" fill="black"/>
<path fill-rule="evenodd" clip-rule="evenodd" d="M16 20L12.7 17.9375C9.7762 16.1101 8 12.9054 8 9.45752V5.56155C8 4.64382 8.6246 3.84385 9.51493 3.62127L16 2L22.4851 3.62127C23.3754 3.84385 24 4.64382 24 5.56155V9.45752C24 12.9054 22.2238 16.1101 19.3 17.9375L16 20ZM22 9.45752V5.56155L16 4.06155L10 5.56155V9.45752C10 12.2158 11.421 14.7796 13.76 16.2415L16 17.6415L18.24 16.2415C20.579 14.7796 22 12.2158 22 9.45752Z" fill="black"/>
<path fill-rule="evenodd" clip-rule="evenodd" d="M4 31L4 21H6V22H19C19.9353 22 20.7207 22.642 20.9394 23.5094L25.8415 21.4085C26.7277 21.0287 27.7587 21.3352 28.2935 22.1374L29.1652 23.445C29.8588 24.4854 29.4383 25.9001 28.2889 26.3927L15.0603 32.0621L6 29.344V31H4ZM6 27.2559L14.9397 29.9379L27.5011 24.5544L26.6294 23.2468L20.92 25.6936C20.7049 26.4304 20.076 26.9993 19.2828 27.1126L13.1414 27.99L12.8586 26.0101L19 25.1327V24H6V27.2559Z" fill="black"/>
</g>
</svg>