<svg viewBox="0 0 32 32" xmlns="http://www.w3.org/2000/svg">
<path d="M3.22833 7.9904L6.12611 8.76686L5.60847 10.6987L2.71069 9.92225L3.22833 7.9904Z" fill="black"/>
<path d="M19.6602 28.6602L17.9282 27.6602L18.4281 26.7942L14.1997 26.5404C14.0447 26.5311 13.894 26.4858 13.7596 26.4082L7.28509 22.6701C6.60588 22.278 6.21856 21.5251 6.29449 20.7445L6.73823 16.1828C7.0199 13.2873 10.2 11.6514 12.7194 13.106L15.9999 14.9999L16.0679 13.8682C16.1692 12.1797 17.3144 10.7661 18.8849 10.2841C19.1093 10.2153 19.3423 10.1654 19.5822 10.1365L20.3709 10.0415C20.8032 9.98943 21.2115 10.2224 21.3931 10.6035C21.419 10.658 21.4404 10.7154 21.4565 10.7755L23.4281 18.1339L23.9282 17.2679L25.6602 18.2679L19.6602 28.6602Z" fill="black"/>
<path d="M25.9282 13.8038L27.6602 14.8038L26.4102 16.9688L24.9999 16.1546L24.9736 16.0723L24.9578 16.1155L23.3883 10.2579C23.0019 8.8158 21.6139 7.8773 20.1317 8.05588L19.343 8.1509C19.0488 8.18634 18.7616 8.24275 18.4827 8.31857C19.069 7.14722 20.2138 6.30141 21.5822 6.13654L22.3709 6.04152C22.865 5.98199 23.3277 6.29482 23.4565 6.77552L25.5669 14.4295L25.9282 13.8038Z" fill="black"/>
<path d="M12.9695 4.9563V1.9563L10.9695 1.9563V4.9563H12.9695Z" fill="black"/>
<path d="M6.67662 3.52534L8.67662 5.52534L7.26241 6.93955L5.2624 4.93956L6.67662 3.52534Z" fill="black"/>
<path d="M14.7194 9.10596C12.6437 7.90751 10.1194 8.807 9.1372 10.7804C10.6023 10.3755 12.2371 10.5181 13.7194 11.3739L14.5091 11.8298C14.8274 11.0545 15.3032 10.3598 15.8982 9.7865L14.7194 9.10596Z" fill="black"/>
</svg>