<svg viewBox="0 0 32 32" xmlns="http://www.w3.org/2000/svg">
<path fill-rule="evenodd" clip-rule="evenodd" d="M22 10C22 11.8486 21.373 13.5508 20.32 14.9055L24.4145 18.9999L23.0002 20.4141L18.9059 16.3197C17.5512 17.3728 15.8488 18 14 18C9.58172 18 6 14.4183 6 10C6 5.58172 9.58172 2 14 2C18.4183 2 22 5.58172 22 10ZM11 10H13V14H11V10ZM17 7H15V14H17V7Z" fill="black"/>
<path d="M4 31V20H6V31H4Z" fill="black"/>
<path d="M8 22V28.9441L14.058 30.7615C14.6946 30.9525 15.3766 30.9266 15.9969 30.688L27.9478 26.0916C28.7192 25.7949 29.067 24.898 28.6974 24.1588L28.0429 22.8498C27.7416 22.2472 27.0539 21.9446 26.4061 22.1297L21 23.6743V24.2654C21 25.7584 19.9022 27.0241 18.4243 27.2353L13.1414 27.99L12.8586 26.01L18.1414 25.2554C18.6341 25.185 19 24.7631 19 24.2654V23C19 22.4477 18.5523 22 18 22H8Z" fill="black"/>
</svg>