<svg viewBox="0 0 32 32" xmlns="http://www.w3.org/2000/svg">
<path fill-rule="evenodd" clip-rule="evenodd" d="M8 5.56155C8 4.64382 8.62459 3.84385 9.51493 3.62127L16 2L22.4851 3.62127C23.3754 3.84385 24 4.64382 24 5.56155V9.45752C24 12.9054 22.2238 16.1101 19.3 17.9375L16 20L12.7 17.9375C9.7762 16.1101 8 12.9054 8 9.45752V5.56155ZM15.42 14.41L12 11L13.42 9.58003L15.42 11.59L19.4199 7.58008L20.8399 9.00008L15.42 14.41Z" fill="black"/>
<path d="M4 31V20H6V31H4Z" fill="black"/>
<path d="M8 22V28.9441L14.058 30.7615C14.6946 30.9525 15.3766 30.9266 15.9969 30.688L27.9478 26.0916C28.7192 25.7949 29.067 24.898 28.6974 24.1588L28.0429 22.8498C27.7416 22.2472 27.0539 21.9446 26.4061 22.1297L21 23.6743V24.2654C21 25.7584 19.9022 27.0241 18.4243 27.2353L13.1414 27.99L12.8586 26.01L18.1414 25.2554C18.6341 25.185 19 24.7631 19 24.2654V23C19 22.4477 18.5523 22 18 22H8Z" fill="black"/>
</svg>