<svg viewBox="0 0 32 32" xmlns="http://www.w3.org/2000/svg">
<g clip-path="url(#clip0_5038_1430)">
<path d="M11 10H13V14H11V10Z" fill="black"/>
<path d="M17 7H15V14H17V7Z" fill="black"/>
<path fill-rule="evenodd" clip-rule="evenodd" d="M14 18C15.8488 18 17.5512 17.3728 18.9059 16.3197L23.0002 20.4141L24.4145 18.9999L20.32 14.9055C21.373 13.5508 22 11.8486 22 10C22 5.58172 18.4183 2 14 2C9.58172 2 6 5.58172 6 10C6 14.4183 9.58172 18 14 18ZM14 16C17.3137 16 20 13.3137 20 10C20 6.68629 17.3137 4 14 4C10.6863 4 8 6.68629 8 10C8 13.3137 10.6863 16 14 16Z" fill="black"/>
<path fill-rule="evenodd" clip-rule="evenodd" d="M4 21V31H6V29.344L15.0603 32.0621L28.2889 26.3927C29.4383 25.9001 29.8588 24.4854 29.1652 23.445L28.2935 22.1374C27.7587 21.3352 26.7277 21.0287 25.8415 21.4085L20.9394 23.5094C20.7207 22.642 19.9353 22 19 22H6V21H4ZM20.92 25.6936C20.7049 26.4304 20.076 26.9993 19.2828 27.1126L13.1414 27.99L12.8586 26.0101L19 25.1327V24H6L6 27.2559L14.9397 29.9379L27.5011 24.5544L26.6294 23.2468L20.92 25.6936Z" fill="black"/>
</g>
</svg>