<svg viewBox="0 0 32 32" xmlns="http://www.w3.org/2000/svg">
<path d="M24.3702 10.98L18.0002 9.71V5C18.0002 3.35 16.6502 2 15.0002 2H14.0002C12.4302 2 11.0002 3.39 11.0002 4.92V15.46C9.69021 14.19 8.16021 13 7.00021 13C5.53021 13 4.12021 14.6 4.00021 15.91L3.97021 16.24L11.2102 28H9.00021V30H28.0002V28H26.0002V24.24L28.0002 20.25V14.94C28.0002 13.16 27.7502 11.92 24.3702 10.99V10.98ZM26.0002 19.77L24.0002 23.76V28H13.5602L6.07021 15.84C6.26022 15.44 6.75021 15 6.99021 15C7.37021 15.02 8.90021 15.94 11.2302 18.65L12.9902 20.7V4.92C12.9902 4.45 13.5602 4 13.9902 4H14.9902C15.5402 4 15.9902 4.45 15.9902 5V11.35L23.9002 12.93C25.9902 13.51 25.9902 13.76 25.9902 15V19.77H26.0002Z"/>
</svg>