<svg viewBox="0 0 32 32" xmlns="http://www.w3.org/2000/svg">
<path d="M6.12611 8.76686L3.22833 7.9904L2.71069 9.92225L5.60847 10.6987L6.12611 8.76686Z"/>
<path fill-rule="evenodd" clip-rule="evenodd" d="M18.4281 26.7942L13.964 26.5262L7.28508 22.6701C6.60587 22.278 6.21855 21.525 6.29448 20.7444L6.73822 16.1828C6.87114 14.8163 7.64957 13.7304 8.69944 13.1174L8.73823 12.7187C9.01989 9.82318 12.2 8.18727 14.7194 9.64185L17.3538 11.1628C17.5667 10.967 17.8011 10.7939 18.0532 10.6475L18.0679 10.404C18.0892 10.0483 18.1569 9.70476 18.2651 9.37957C18.7441 7.94077 20.0168 6.86103 21.5822 6.67243L23.232 6.47366L25.4281 14.6698L25.9281 13.8038L27.6602 14.8038L19.6602 28.6602L17.9281 27.6602L18.4281 26.7942ZM10.7926 12.5663L10.7914 12.5662C11.4387 12.577 12.0991 12.7478 12.7194 13.1059L15.9999 14.9999L16.0679 13.8681C16.0892 13.5124 16.1569 13.1688 16.2651 12.8437L13.7194 11.3739C12.564 10.7068 11.1306 11.3397 10.7926 12.5663ZM21.7494 8.66806C20.9795 8.78905 20.3623 9.3434 20.1449 10.0687L21.232 9.93775L23.4281 18.1339L24.0139 17.1193L21.7494 8.66806ZM19.4281 25.0621L22.0139 20.5834L19.7494 12.1321C18.825 12.2774 18.1207 13.0474 18.0643 13.988L17.8024 18.35L11.7194 14.838C10.4597 14.1107 8.86966 14.9287 8.72883 16.3764L8.28508 20.9381L14.5551 24.5581L19.0192 24.826L19.4281 25.0621Z"/>
<path d="M12.9695 1.9563V4.9563H10.9695V1.9563L12.9695 1.9563Z"/>
<path d="M8.67662 5.52534L6.67662 3.52534L5.2624 4.93956L7.26241 6.93955L8.67662 5.52534Z"/>
</svg>