<svg viewBox="0 0 32 32" xmlns="http://www.w3.org/2000/svg">
<path d="M4 20V31H6V20H4Z" fill="black"/>
<path d="M8 28.9441V22H18C18.5523 22 19 22.4477 19 23V24.2654C19 24.7631 18.6341 25.185 18.1414 25.2554L12.8586 26.01L13.1414 27.99L18.4243 27.2353C19.9022 27.0241 21 25.7584 21 24.2654V23.6743L26.4061 22.1297C27.0539 21.9446 27.7416 22.2472 28.0429 22.8498L28.6974 24.1588C29.067 24.898 28.7192 25.7949 27.9478 26.0916L15.9969 30.688C15.3766 30.9266 14.6946 30.9525 14.058 30.7615L8 28.9441Z" fill="black"/>
<path fill-rule="evenodd" clip-rule="evenodd" d="M16 20C20.9706 20 25 15.9706 25 11C25 6.02944 20.9706 2 16 2C11.0294 2 7 6.02944 7 11C7 15.9706 11.0294 20 16 20ZM18.4727 11.9354L15.165 8.62769L20.1175 6.9646L18.4727 11.9354ZM13.7563 10.0474L17.0519 13.343L12.1177 14.9999L13.7563 10.0474Z" fill="black"/>
</svg>