<svg viewBox="0 0 32 32" xmlns="http://www.w3.org/2000/svg">
<g clip-path="url(#clip0_5038_1429)">
<path fill-rule="evenodd" clip-rule="evenodd" d="M17 14C18.6569 14 20 12.6569 20 11C20 9.34315 18.6569 8 17 8C15.3431 8 14 9.34315 14 11C14 12.6569 15.3431 14 17 14ZM17 12C17.5523 12 18 11.5523 18 11C18 10.4477 17.5523 10 17 10C16.4477 10 16 10.4477 16 11C16 11.5523 16.4477 12 17 12Z" fill="black"/>
<path fill-rule="evenodd" clip-rule="evenodd" d="M15.4 2C14.6268 2 14 2.6268 14 3.4V4.67363C13.5995 4.86389 13.2199 5.09107 12.8657 5.35076L11.7841 4.81001C11.1217 4.4788 10.3159 4.72082 9.94562 5.36221L8.34634 8.13225C7.94324 8.83042 8.2116 9.72392 8.93268 10.0844L10.01 10.6231C10.0034 10.7479 10 10.8736 10 11C10 11.1264 10.0034 11.2521 10.01 11.3769L8.93268 11.9156C8.2116 12.2761 7.94324 13.1696 8.34634 13.8678L9.94562 16.6378C10.3159 17.2792 11.1217 17.5212 11.7841 17.19L12.8657 16.6492C13.2199 16.9089 13.5995 17.1361 14 17.3264V18.6C14 19.3732 14.6268 20 15.4 20H18.6C19.3732 20 20 19.3732 20 18.6V17.3264C20.4093 17.1319 20.7967 16.899 21.1576 16.6321L22.259 17.1289C22.9145 17.4245 23.6874 17.1754 24.047 16.5526L25.645 13.7848C26.0592 13.0674 25.7633 12.1491 25.0081 11.8086L23.9914 11.3501C23.9971 11.2341 24 11.1174 24 11C24 10.8826 23.9971 10.7659 23.9914 10.6499L25.0081 10.1914C25.7633 9.85083 26.0592 8.93261 25.645 8.21518L24.047 5.44737C23.6874 4.8246 22.9145 4.57552 22.259 4.87115L21.1576 5.36787C20.7967 5.10104 20.4093 4.86806 20 4.67363V3.4C20 2.6268 19.3732 2 18.6 2H15.4ZM16 4H18V6.10002C19.1481 6.33306 20.1533 6.95946 20.8688 7.83241L22.6836 6.78467L23.6265 8.41786L21.7682 9.49077C21.9188 9.96697 22 10.474 22 11C22 11.4782 21.9329 11.9407 21.8075 12.3787L23.6988 13.4706L22.623 15.334L20.7818 14.2709C20.0728 15.0899 19.1022 15.6762 18 15.9L18 18H16L16 15.9C14.8572 15.668 13.856 15.0463 13.1411 14.1796L11.4074 15.1806L10.4492 13.521L10.454 13.5183L10.3969 13.4195L10.4244 13.4058C10.4374 13.4414 10.4507 13.4769 10.4643 13.5123L12.2272 12.4945C12.0796 12.0226 12 11.5206 12 11C12 10.4947 12.075 10.0068 12.2144 9.54705L10.4491 8.52783C10.4407 8.54991 10.4325 8.57204 10.4244 8.59422L10.3969 8.5805L10.4328 8.51843L10.3691 8.48169L11.3697 6.74869L13.1686 7.7873C13.8816 6.93789 14.8718 6.32903 16 6.10002L16 4Z" fill="black"/>
<path fill-rule="evenodd" clip-rule="evenodd" d="M4 21V31H6V29.344L15.0603 32.0621L28.2889 26.3927C29.4383 25.9001 29.8588 24.4854 29.1652 23.445L28.2935 22.1374C27.7587 21.3352 26.7277 21.0287 25.8415 21.4085L20.9394 23.5094C20.7207 22.642 19.9353 22 19 22H6V21H4ZM14.9397 29.9379L6 27.256L6 24H19V25.1327L12.8586 26.0101L13.1414 27.99L19.2828 27.1126C20.076 26.9993 20.7049 26.4304 20.92 25.6936L26.6294 23.2468L27.5011 24.5544L14.9397 29.9379Z" fill="black"/>
</g>
</svg>