<svg viewBox="0 0 32 32" xmlns="http://www.w3.org/2000/svg">
<path d="M16 1H18V4H16V1Z" fill="black"/>
<path d="M10.2929 5.70718L8.29288 3.70718L9.70709 2.29297L11.7071 4.29297L10.2929 5.70718Z" fill="black"/>
<path d="M25.7071 3.70718L23.7071 5.70718L22.2929 4.29297L24.2929 2.29297L25.7071 3.70718Z" fill="black"/>
<path fill-rule="evenodd" clip-rule="evenodd" d="M9.29148 13.2915L17 21L24.7085 13.2915C25.44 12.56 25.493 11.3916 24.8308 10.5969L21.5997 6.71963C21.2197 6.26365 20.6568 6 20.0633 6H13.9368C13.3432 6 12.7803 6.26365 12.4003 6.71963L9.16926 10.5969C8.50705 11.3916 8.56005 12.56 9.29148 13.2915ZM13.9368 8H14.5229L13.3229 11H11.4368L13.9368 8ZM15.4769 11L16.677 8H17.3231L18.5231 11H15.4769ZM20.6772 11H22.5633L20.0633 8H19.4772L20.6772 11ZM11.8284 13L14.1938 15.3653L13.3068 13H11.8284ZM16.9999 17.1522L18.557 13H15.4428L16.9999 17.1522ZM19.8058 15.3658L22.1716 13H20.693L19.8058 15.3658Z" fill="black"/>
<path d="M4 31V20H6V31H4Z" fill="black"/>
<path d="M8 22V28.9441L14.058 30.7615C14.6946 30.9525 15.3766 30.9266 15.9969 30.688L27.9478 26.0916C28.7192 25.7949 29.067 24.898 28.6974 24.1588L28.0429 22.8498C27.7416 22.2472 27.0539 21.9446 26.4061 22.1297L21 23.6743V24.2654C21 25.7584 19.9022 27.0241 18.4243 27.2353L13.1414 27.99L12.8586 26.01L18.1414 25.2554C18.6341 25.185 19 24.7631 19 24.2654V23C19 22.4477 18.5523 22 18 22H8Z" fill="black"/>
</svg>