<svg viewBox="0 0 32 32" xmlns="http://www.w3.org/2000/svg">
<path d="M27.08 11H16.27C18.63 8.72997 19 7.69997 19 6.99997C19 5.52997 17.4 4.11997 16.09 3.99997L15.76 3.96997L4 11.21V8.99997H2V28H4V26H4.73C6.02 26 7.61 25.99 7.96 26C8.34 26.02 9.72 26.62 10.24 26.85C10.59 27 10.88 27.13 11.04 27.19C13.18 27.94 13.4 28 13.99 28H17.25C19.56 28 20.26 26.11 21.01 23.4L22.26 18H27C28.65 18 30 16.65 30 15V14C30 12.43 28.61 11 27.08 11ZM28 15C28 15.55 27.55 16 27 16H20.67L19.07 22.91C18.21 26 17.81 26 17.25 26H13.99C13.77 26 13.7 26 11.7 25.3C11.57 25.25 11.33 25.15 11.04 25.02C9.81 24.48 8.73 24.03 8.03 24C7.63 23.98 6.15 23.99 4.71 24H3.99V13.56L16.15 6.06997C16.54 6.25997 16.99 6.73997 16.99 6.97997C16.98 7.07997 16.74 8.02997 13.01 11.24L10.96 13H27.08C27.55 13 28 13.57 28 14V15Z"/>
</svg>