<svg viewBox="0 0 32 32" xmlns="http://www.w3.org/2000/svg">
<g clip-path="url(#clip0_5038_1427)">
<path d="M16.0001 2C12.0935 2 8.74805 5.17374 8.74805 9C8.74805 9.60581 8.82477 10.1922 8.96852 10.7507L7.03164 11.2493C6.84633 10.5293 6.74805 9.77539 6.74805 9C6.74805 3.98971 11.0701 0 16.0001 0C20.9301 0 25.252 3.98973 25.252 9C25.252 9.77539 25.1537 10.5293 24.9684 11.2493L23.0316 10.7507C23.1753 10.1922 23.252 9.60581 23.252 9C23.252 5.17371 19.9067 2 16.0001 2Z" fill="black"/>
<path fill-rule="evenodd" clip-rule="evenodd" d="M11 8C9.89543 8 9 8.89543 9 10V13C9 14.1046 9.89543 15 11 15H12C13.1046 15 14 14.1046 14 13V10C14 8.89543 13.1046 8 12 8H11ZM12 10H11V13H12V10Z" fill="black"/>
<path fill-rule="evenodd" clip-rule="evenodd" d="M19.5 14.937C18.6374 14.715 18 13.9319 18 13V10C18 8.89543 18.8954 8 20 8H21C22.1046 8 23 8.89543 23 10V13C23 13.9319 22.3626 14.715 21.5 14.937V15.4981C21.5 17.1462 20.3909 18.5436 18.8672 18.9681C18.5787 19.7179 17.8515 20.25 17 20.25H15C13.8954 20.25 13 19.3546 13 18.25V17.75C13 16.6454 13.8954 15.75 15 15.75H17C17.7753 15.75 18.4475 16.1911 18.7794 16.8361C19.2145 16.5489 19.5 16.0558 19.5 15.4981V14.937ZM17 18.25H15V17.75H17V18.25ZM20 10H21V13H20V10Z" fill="black"/>
<path fill-rule="evenodd" clip-rule="evenodd" d="M4 21V31H6V29.344L15.0603 32.0621L28.2889 26.3927C29.4383 25.9001 29.8588 24.4854 29.1652 23.445L28.2935 22.1374C27.7587 21.3352 26.7277 21.0287 25.8415 21.4085L20.9394 23.5094C20.7207 22.642 19.9353 22 19 22H6V21H4ZM14.9397 29.9379L6 27.256L6 24H19V25.1327L12.8586 26.0101L13.1414 27.99L19.2828 27.1126C20.076 26.9993 20.7049 26.4304 20.92 25.6936L26.6294 23.2468L27.5011 24.5544L14.9397 29.9379Z" fill="black"/>
</g>
</svg>