<svg viewBox="0 0 32 32" xmlns="http://www.w3.org/2000/svg">
<g clip-path="url(#clip0_5038_1424)">
<path fill-rule="evenodd" clip-rule="evenodd" d="M11.9999 14.9998L17.9997 12.9999L19.9999 6.99995L13.9998 8.99997L11.9999 14.9998ZM15.1621 11.8376L16.4186 11.4188L16.8375 10.1623L15.5809 10.5811L15.1621 11.8376Z" fill="black"/>
<path fill-rule="evenodd" clip-rule="evenodd" d="M16 20C20.9706 20 25 15.9706 25 11C25 6.02944 20.9706 2 16 2C11.0294 2 7 6.02944 7 11C7 15.9706 11.0294 20 16 20ZM16 18C19.866 18 23 14.866 23 11C23 7.13401 19.866 4 16 4C12.134 4 9 7.13401 9 11C9 14.866 12.134 18 16 18Z" fill="black"/>
<path fill-rule="evenodd" clip-rule="evenodd" d="M4 21V31H6V29.344L15.0603 32.0621L28.2889 26.3927C29.4383 25.9001 29.8588 24.4854 29.1652 23.445L28.2935 22.1374C27.7587 21.3352 26.7277 21.0287 25.8415 21.4085L20.9394 23.5094C20.7207 22.642 19.9353 22 19 22H6V21H4ZM20.92 25.6936C20.7049 26.4304 20.076 26.9993 19.2828 27.1126L13.1414 27.99L12.8586 26.0101L19 25.1327V24H6L6 27.2559L14.9397 29.9379L27.5011 24.5544L26.6294 23.2468L20.92 25.6936Z" fill="black"/>
</g>
</svg>