<svg viewBox="0 0 32 32" xmlns="http://www.w3.org/2000/svg">
<path d="M13.6667 6.26087L9 7.42957L12.1617 11.0635L11.6775 16L16.0292 13.967L20.3225 16L19.8383 11.0635L23 7.42957L18.3333 6.26087L16 2L13.6667 6.26087Z" fill="black"/>
<path d="M3 9C2.44772 9 2 9.44772 2 10V21.5858C2 21.851 2.10536 22.1054 2.29289 22.2929L5.99918 25.9992L12 26V25.5541C12 25.3718 11.9502 25.193 11.8559 25.037L7.33164 17.5489C7.15216 17.2518 6.75883 17.1686 6.47437 17.3674L5.75989 17.8668C5.51682 18.0367 5.43434 18.3587 5.56578 18.6245L7.20595 21.9417L5.41313 22.8281L3.54439 19.0487C3.09733 18.1445 3.3935 17.0489 4.23523 16.4932L5.26289 15.8147C5.43933 15.6982 5.62717 15.6134 5.81984 15.5587L5.1095 9.87597C5.04694 9.37554 4.62154 9 4.11722 9H3Z" fill="black"/>
<path d="M5 30V28H13V30H5Z" fill="black"/>
<path d="M30 10C30 9.44772 29.5523 9 29 9H27.8828C27.3785 9 26.9531 9.37554 26.8905 9.87597L26.1802 15.5587C26.3728 15.6134 26.5607 15.6982 26.7371 15.8147L27.7648 16.4932C28.6065 17.0489 28.9027 18.1445 28.4556 19.0487L26.5869 22.8281L24.794 21.9417L26.4342 18.6245C26.5657 18.3587 26.4832 18.0367 26.2401 17.8668L25.5256 17.3674C25.2412 17.1686 24.8478 17.2518 24.6684 17.5489L20.1441 25.037C20.0498 25.193 20 25.3718 20 25.5541V26L26.0008 25.9992L29.7071 22.2929C29.8946 22.1054 30 21.851 30 21.5858V10Z" fill="black"/>
<path d="M27 28V30H19V28H27Z" fill="black"/>
</svg>