<svg viewBox="0 0 32 32" xmlns="http://www.w3.org/2000/svg">
<path fill-rule="evenodd" clip-rule="evenodd" d="M10.5789 0.289327C10.3129 0.156347 9.99997 0.349745 9.99997 0.647098V3.99988L5.08574 9.61616C3.91202 10.9576 3.97933 12.9792 5.23968 14.2396C6.69654 15.6965 9.10597 15.5252 10.3422 13.877L11 12.9999H12L11.9237 13.2288C11.3119 15.0642 11 16.9862 11 18.9209V19.9999H18V10.4143C18 9.77401 17.7456 9.15994 17.2929 8.70719L18.7071 7.29298C19.5349 8.1208 20 9.24357 20 10.4143V19.9999H24V9.99988C24 5.58161 20.4183 1.99988 16 1.99988H14L10.5789 0.289327ZM14 6.99988C14 7.55217 13.5523 7.99988 13 7.99988C12.4477 7.99988 12 7.55217 12 6.99988C12 6.4476 12.4477 5.99988 13 5.99988C13.5523 5.99988 14 6.4476 14 6.99988Z" fill="black"/>
<path d="M4 31V20H6V31H4Z" fill="black"/>
<path d="M8 22V28.9441L14.058 30.7615C14.6946 30.9525 15.3766 30.9266 15.9969 30.688L27.9478 26.0916C28.7192 25.7949 29.067 24.898 28.6974 24.1588L28.0429 22.8498C27.7416 22.2472 27.0539 21.9446 26.4061 22.1297L21 23.6743V24.2654C21 25.7584 19.9022 27.0241 18.4243 27.2353L13.1414 27.99L12.8586 26.01L18.1414 25.2554C18.6341 25.185 19 24.7631 19 24.2654V23C19 22.4477 18.5523 22 18 22H8Z" fill="black"/>
</svg>