<svg viewBox="0 0 32 32" xmlns="http://www.w3.org/2000/svg">
<path fill-rule="evenodd" clip-rule="evenodd" d="M22.3801 12.4007L23.7613 13.1946C24.0711 13.3753 24.1808 13.769 24.0001 14.0788L22.7093 16.3119C22.5286 16.6217 22.1349 16.7314 21.8251 16.5507L20.4439 15.7504C19.7598 16.3829 18.9337 16.8734 18.0236 17.1574V18.7451C18.0236 19.1001 17.7332 19.3905 17.3782 19.3905H14.7966C14.4416 19.3905 14.1512 19.1001 14.1512 18.7451V17.1574C13.2411 16.867 12.4215 16.3829 11.7309 15.7504L10.3497 16.5507C10.0399 16.725 9.6462 16.6217 9.46549 16.3119L8.17467 14.0788C8.00041 13.769 8.10367 13.3753 8.41347 13.1946L9.79465 12.4007C9.69784 11.9489 9.63975 11.4843 9.63975 11.0002C9.63975 10.5161 9.69784 10.0514 9.79465 9.59966L8.41347 8.8058C8.10367 8.62509 7.99395 8.23139 8.17467 7.92159L9.46549 5.68847C9.6462 5.37867 10.0399 5.26895 10.3497 5.44967L11.7309 6.24998C12.415 5.61748 13.2411 5.12696 14.1512 4.84298V3.25527C14.1512 2.9003 14.4416 2.60986 14.7966 2.60986H17.3782C17.7332 2.60986 18.0236 2.9003 18.0236 3.25527V4.84298C18.9337 5.13342 19.7533 5.61748 20.4439 6.24998L21.8251 5.44967C22.1349 5.27541 22.5286 5.37867 22.7093 5.68847L24.0001 7.92159C24.1744 8.23139 24.0711 8.62509 23.7613 8.8058L22.3801 9.59966C22.477 10.0514 22.535 10.5161 22.535 11.0002C22.535 11.4843 22.477 11.9489 22.3801 12.4007ZM13.5058 11.0002C13.5058 12.4266 14.661 13.5818 16.0874 13.5818C17.5138 13.5818 18.669 12.4266 18.669 11.0002C18.669 9.57384 17.5138 8.41855 16.0874 8.41855C14.661 8.41855 13.5058 9.57384 13.5058 11.0002Z" fill="black"/>
<path d="M4 31V20H6V31H4Z" fill="black"/>
<path d="M8 22V28.9441L14.058 30.7615C14.6946 30.9525 15.3766 30.9266 15.9969 30.688L27.9478 26.0916C28.7192 25.7949 29.067 24.898 28.6974 24.1588L28.0429 22.8498C27.7416 22.2472 27.0539 21.9446 26.4061 22.1297L21 23.6743V24.2654C21 25.7584 19.9022 27.0241 18.4243 27.2353L13.1414 27.99L12.8586 26.01L18.1414 25.2554C18.6341 25.185 19 24.7631 19 24.2654V23C19 22.4477 18.5523 22 18 22H8Z" fill="black"/>
</svg>