<svg viewBox="0 0 32 32" xmlns="http://www.w3.org/2000/svg">
<path d="M2 6H4V26H2V6Z" fill="black"/>
<path d="M28 6H30V26H28V6Z" fill="black"/>
<path d="M19.1801 6.42989L12.2101 10.6099C11.1101 11.1599 10.9301 12.0799 11.1901 12.7099C11.5001 13.4499 12.5301 14.0999 14.4301 13.4899L20.5801 10.4099L21.4701 12.1999L20.8301 12.5199L23.5801 15.5499C24.4401 16.6999 24.2701 18.2199 23.2601 19.0899L18.6701 23.6299L26.0101 22.6599V9.49989L19.8401 6.46989C19.5901 6.31989 19.3701 6.31989 19.2001 6.42989H19.1801Z" fill="black"/>
<path d="M18.97 13.4499L22.04 16.8299L22.05 16.8199C22.22 17.0499 22.18 17.3799 21.91 17.6199L13.29 26.1299C13.07 26.3299 12.73 26.3099 12.53 26.0999L6.91 21.5599H6V8.88992L11.83 6.16992L13.39 7.56992L11.25 8.85992C9.17 9.89992 8.72 11.9699 9.34 13.4799C9.86 14.7399 11.14 15.7399 13.03 15.7399C13.66 15.7399 14.36 15.6199 15.12 15.3699L18.97 13.4499Z" fill="black"/>
</svg>