<svg viewBox="0 0 32 32" xmlns="http://www.w3.org/2000/svg">
<path d="M10 6.5C10 7.32843 9.32843 8 8.5 8C7.67157 8 7 7.32843 7 6.5C7 5.67157 7.67157 5 8.5 5C9.32843 5 10 5.67157 10 6.5Z" fill="black"/>
<path d="M8.5 27C9.32843 27 10 26.3284 10 25.5C10 24.6716 9.32843 24 8.5 24C7.67157 24 7 24.6716 7 25.5C7 26.3284 7.67157 27 8.5 27Z" fill="black"/>
<path d="M25 25.5C25 26.3284 24.3284 27 23.5 27C22.6716 27 22 26.3284 22 25.5C22 24.6716 22.6716 24 23.5 24C24.3284 24 25 24.6716 25 25.5Z" fill="black"/>
<path d="M23.5 8C24.3284 8 25 7.32843 25 6.5C25 5.67157 24.3284 5 23.5 5C22.6716 5 22 5.67157 22 6.5C22 7.32843 22.6716 8 23.5 8Z" fill="black"/>
<path fill-rule="evenodd" clip-rule="evenodd" d="M23.8995 21.8995C25.0216 20.7774 24.8957 18.9231 23.6323 17.9629L23.1486 17.5953C23.6933 16.5143 24 15.293 24 14C24 9.58172 20.4183 6 16 6C11.5817 6 8 9.58172 8 14C8 18.4183 11.5817 22 16 22C17.293 22 18.5144 21.6933 19.5953 21.1486L19.9629 21.6323C20.9231 22.8957 22.7774 23.0216 23.8995 21.8995ZM18.81 16.81L21.5553 20.4222C21.7821 20.7206 22.2202 20.7504 22.4853 20.4853C22.7504 20.2202 22.7207 19.7821 22.4222 19.5552L18.81 16.81ZM18.357 19.5193C17.6335 19.8287 16.8367 20 16 20C12.6863 20 10 17.3137 10 14C10 10.6863 12.6863 8 16 8C19.3137 8 22 10.6863 22 14C22 14.8367 21.8287 15.6335 21.5193 16.357L18.3508 13.949C17.6812 13.4401 16.7386 13.504 16.1439 14.0987L16.0987 14.1439C15.504 14.7386 15.4401 15.6812 15.949 16.3508L18.357 19.5193Z" fill="black"/>
<path fill-rule="evenodd" clip-rule="evenodd" d="M6 2C4.89543 2 4 2.89543 4 4V28C4 29.1046 4.89543 30 6 30H26C27.1046 30 28 29.1046 28 28V4C28 2.89543 27.1046 2 26 2H6ZM26 4H6L6 28H26V4Z" fill="black"/>
</svg>