<svg viewBox="0 0 32 32" xmlns="http://www.w3.org/2000/svg">
<path d="M21.5193 16.357C21.8287 15.6334 22 14.8367 22 14C22 10.6863 19.3137 8 16 8C12.6863 8 10 10.6863 10 14C10 17.3137 12.6863 20 16 20C16.8367 20 17.6335 19.8287 18.3571 19.5193L15.949 16.3508C15.4401 15.6812 15.504 14.7386 16.0987 14.1439L16.1439 14.0987C16.7386 13.504 17.6812 13.44 18.3508 13.9489L21.5193 16.357Z" fill="black"/>
<path d="M21.5553 20.4221L18.81 16.81L22.4222 19.5552C22.7207 19.7821 22.7504 20.2201 22.4853 20.4852C22.2202 20.7503 21.7821 20.7206 21.5553 20.4221Z" fill="black"/>
<path fill-rule="evenodd" clip-rule="evenodd" d="M6 2C4.89543 2 4 2.89543 4 4V28C4 29.1046 4.89543 30 6 30H26C27.1046 30 28 29.1046 28 28V4C28 2.89543 27.1046 2 26 2H6ZM7.5 7C8.32843 7 9 6.32843 9 5.5C9 4.67157 8.32843 4 7.5 4C6.67157 4 6 4.67157 6 5.5C6 6.32843 6.67157 7 7.5 7ZM9 26.5C9 27.3284 8.32843 28 7.5 28C6.67157 28 6 27.3284 6 26.5C6 25.6716 6.67157 25 7.5 25C8.32843 25 9 25.6716 9 26.5ZM24.5 28C25.3284 28 26 27.3284 26 26.5C26 25.6716 25.3284 25 24.5 25C23.6716 25 23 25.6716 23 26.5C23 27.3284 23.6716 28 24.5 28ZM26 5.5C26 6.32843 25.3284 7 24.5 7C23.6716 7 23 6.32843 23 5.5C23 4.67157 23.6716 4 24.5 4C25.3284 4 26 4.67157 26 5.5ZM23.1486 17.5952C23.6933 16.5143 24 15.293 24 14C24 9.58172 20.4183 6 16 6C11.5817 6 8 9.58172 8 14C8 18.4183 11.5817 22 16 22C17.293 22 18.5144 21.6932 19.5953 21.1485L19.9629 21.6323C20.9231 22.8957 22.7774 23.0216 23.8995 21.8995C25.0216 20.7774 24.8957 18.9231 23.6323 17.9629L23.1486 17.5952Z" fill="black"/>
</svg>