<svg viewBox="0 0 32 32" xmlns="http://www.w3.org/2000/svg">
<path d="M16 2C8.83 2 3 7.83 3 15C3 16.35 3.21 17.68 3.61 18.95L5.52 18.34C5.18 17.26 5 16.14 5 15C5 8.93 9.93 4 16 4C22.07 4 27 8.93 27 15C27 16.19 26.81 17.36 26.44 18.48L28.34 19.11C28.78 17.79 29 16.41 29 15C29 7.83 23.17 2 16 2Z"/>
<path fill-rule="evenodd" clip-rule="evenodd" d="M10 14H8C6.9 14 6 14.9 6 16V22C6 23.1 6.9 24 8 24H10C11.1 24 12 23.1 12 22V16C12 14.9 11.1 14 10 14ZM8 22V16H10V22H8Z"/>
<path fill-rule="evenodd" clip-rule="evenodd" d="M22 14H24C25.1 14 26 14.9 26 16V22C26 23.1 25.1 24 24 24H23.9C23.5 25.96 21.96 27.5 20 27.9V28C20 29.1 19.1 30 18 30H15C13.9 30 13 29.1 13 28V26C13 24.9 13.9 24 15 24H18C19.04 24 19.89 24.8 19.98 25.82C20.84 25.52 21.52 24.84 21.82 23.98C20.8 23.89 20 23.04 20 22V16C20 14.9 20.9 14 22 14ZM15 26V28H18V26H15ZM22 16V22H24V16H22Z"/>
</svg>