<svg viewBox="0 0 32 32" xmlns="http://www.w3.org/2000/svg">
<path d="M16 4C8.83 4 3 9.83 3 17C3 18.35 3.21 19.68 3.61 20.95L5.52 20.34C5.18 19.26 5 18.14 5 17C5 10.93 9.93 6 16 6C22.07 6 27 10.93 27 17C27 18.19 26.81 19.36 26.44 20.48L28.34 21.11C28.78 19.79 29 18.41 29 17C29 9.83 23.17 4 16 4Z"/>
<path fill-rule="evenodd" clip-rule="evenodd" d="M10 16H8C6.9 16 6 16.9 6 18V26C6 27.1 6.9 28 8 28H10C11.1 28 12 27.1 12 26V18C12 16.9 11.1 16 10 16ZM8 26V18H10V26H8Z"/>
<path fill-rule="evenodd" clip-rule="evenodd" d="M22 16H24C25.1 16 26 16.9 26 18V26C26 27.1 25.1 28 24 28H22C20.9 28 20 27.1 20 26V18C20 16.9 20.9 16 22 16ZM22 18V26H24V18H22Z"/>
</svg>