<svg viewBox="0 0 32 32" xmlns="http://www.w3.org/2000/svg">
<path fill-rule="evenodd" clip-rule="evenodd" d="M15.995 1.5C15.9967 1.5 15.9983 1.5 16 1.5H15.99C15.9917 1.5 15.9933 1.5 15.995 1.5ZM15.995 1.5C8.27729 1.50276 2 7.9017 2 15.76C2 17.23 2.22 18.69 2.65 20.08L5.51 19.19C5.17 18.09 4.99 16.93 4.99 15.76C4.99 9.55 9.92 4.5 15.99 4.5C22.06 4.5 26.99 9.55 26.99 15.76C26.99 16.98 26.8 18.18 26.43 19.33L29.28 20.26C29.75 18.81 29.99 17.3 29.99 15.76C29.99 7.9017 23.7127 1.50276 15.995 1.5Z" fill="black"/>
<path d="M11 15H7C6.44772 15 6 15.4477 6 16V24C6 24.5523 6.44772 25 7 25H11C11.5523 25 12 24.5523 12 24V16C12 15.4477 11.5523 15 11 15Z" fill="black"/>
<path d="M21 15H25C25.55 15 26 15.45 26 16V24C26 24.55 25.55 25 25 25H24C24 27.23 22.52 28.65 20 28.94V29C20 29.55 19.55 30 19 30H14C13.45 30 13 29.55 13 29V27C13 26.45 13.45 26 14 26H19C19.53 26 19.95 26.41 19.99 26.93C22 26.64 22 25.43 22 25H21C20.45 25 20 24.55 20 24V16C20 15.45 20.45 15 21 15Z" fill="black"/>
</svg>