<svg viewBox="0 0 32 32" xmlns="http://www.w3.org/2000/svg">
<path d="M16 3.5C8.28 3.5 2 9.56 2 17C2 18.4 2.22 19.79 2.66 21.12L5.51 20.18C5.17 19.16 5 18.09 5 17.01C5 11.22 9.93 6.51 16 6.51C22.07 6.51 27 11.22 27 17.01C27 18.14 26.81 19.25 26.45 20.31L29.28 21.29C29.76 19.91 30 18.47 30 17.01C30 9.57 23.72 3.51 16 3.51V3.5Z" fill="black"/>
<path d="M11 16H7C6.44772 16 6 16.4477 6 17V27C6 27.5523 6.44772 28 7 28H11C11.5523 28 12 27.5523 12 27V17C12 16.4477 11.5523 16 11 16Z" fill="black"/>
<path d="M21 16H25C25.5523 16 26 16.4477 26 17V27C26 27.5523 25.5523 28 25 28H21C20.4477 28 20 27.5523 20 27V17C20 16.4477 20.4477 16 21 16Z" fill="black"/>
</svg>