<svg viewBox="0 0 32 32" xmlns="http://www.w3.org/2000/svg">
<path fill-rule="evenodd" clip-rule="evenodd" d="M15.43 28.83L16 29.22V29.21L16.57 28.82C17.12 28.44 30 19.43 30 11C30 6.29 27.12 3 23 3C20 3 17.95 4.7 16.06 6.54C14.84 5.25 12.25 3 9 3C4.88 3 2 6.29 2 11.01C2 19.43 14.88 28.45 15.43 28.83ZM4 11C4 8.23 5.31 5 9 5H9.01C11.7108 5 13.9924 7.21903 14.8483 8.17272L11.9959 15.0128L17.0572 15.0108L14.5701 21.649L16.443 22.3507L19.9427 13.0096L14.9973 13.0116L16.8497 8.5696C18.6988 6.71274 20.4736 5 23 5C26.69 5 28 8.23 28 11C28 17.47 18.46 24.95 16 26.77C13.54 24.95 4 17.47 4 11Z"/>
</svg>