<svg viewBox="0 0 32 32" xmlns="http://www.w3.org/2000/svg">
<path d="M19.9102 15C21.6902 14.09 24.0002 12 24.0002 8.95V4H26.0002V2H6.00023V4H8.00023V8.95C8.00023 12 10.3102 14.09 12.0902 15C12.8102 15.37 12.8302 16.38 12.1102 16.77C10.3202 17.74 7.99023 20 7.99023 22.75V28H5.99023V30H26.0002V28H24.0002V22.75C24.0002 20 21.6702 17.74 19.8802 16.77C19.1702 16.38 19.1802 15.37 19.9002 15H19.9102ZM16.0002 26C15.1702 26 14.5002 25.33 14.5002 24.5C14.5002 23.67 15.1702 23 16.0002 23C16.8302 23 17.5002 23.67 17.5002 24.5C17.5002 25.33 16.8302 26 16.0002 26ZM16.0002 21C15.1702 21 14.5002 20.33 14.5002 19.5C14.5002 18.67 15.1702 18 16.0002 18C16.8302 18 17.5002 18.67 17.5002 19.5C17.5002 20.33 16.8302 21 16.0002 21Z" fill="black"/>
</svg>