<svg viewBox="0 0 32 32" xmlns="http://www.w3.org/2000/svg">
<path d="M16 22C16.5523 22 17 21.5523 17 21C17 20.4477 16.5523 20 16 20C15.4477 20 15 20.4477 15 21C15 21.5523 15.4477 22 16 22Z"/>
<path d="M17 25C17 25.5523 16.5523 26 16 26C15.4477 26 15 25.5523 15 25C15 24.4477 15.4477 24 16 24C16.5523 24 17 24.4477 17 25Z"/>
<path fill-rule="evenodd" clip-rule="evenodd" d="M24 9.95V4H26V2H6V4H8V9.95C8 12.34 9.27 14.57 11.3 15.85C9.27 17.13 8 19.36 8 21.75V28H6V30H26V28H24V21.75C24 19.36 22.73 17.14 20.7 15.85C22.73 14.57 24 12.34 24 9.95ZM19.01 14.49C18.47 14.74 18.13 15.26 18.13 15.85C18.13 16.44 18.47 16.96 19.01 17.21C20.82 18.04 22 19.83 22 21.75V28H10V21.75C10 19.82 11.17 18.04 12.99 17.21C13.53 16.96 13.87 16.44 13.87 15.85C13.87 15.26 13.53 14.74 12.99 14.49C11.18 13.66 10 11.88 10 9.95V4H22V9.95C22 11.88 20.83 13.66 19.01 14.49Z"/>
</svg>