<svg viewBox="0 0 32 32" xmlns="http://www.w3.org/2000/svg">
<path d="M16 10C14.8954 10 14 10.8954 14 12V14H30V12C30 10.8954 29.1046 10 28 10H16Z" fill="black"/>
<path fill-rule="evenodd" clip-rule="evenodd" d="M30 16V28C30 29.1046 29.1046 30 28 30H16V28C16 26.223 15.2275 24.6264 14 23.5278V16H30ZM26 22C26 24.2091 24.2091 26 22 26C19.7909 26 18 24.2091 18 22C18 19.7909 19.7909 18 22 18C24.2091 18 26 19.7909 26 22Z" fill="black"/>
<path fill-rule="evenodd" clip-rule="evenodd" d="M9 2H7V10H6.84027C5.80009 10 4.93356 10.7973 4.84718 11.8339L4.18051 19.8339C4.08334 20.9999 5.00352 22 6.1736 22H7V24H6C3.79086 24 2 25.7909 2 28V29C2 29.5523 2.44772 30 3 30H13C13.5523 30 14 29.5523 14 29V28C14 25.7909 12.2091 24 10 24H9V22H9.8264C10.9965 22 11.9167 20.9999 11.8195 19.8339L11.1528 11.8339C11.0664 10.7973 10.1999 10 9.15973 10H9V2Z" fill="black"/>
</svg>