<svg viewBox="0 0 32 32" xmlns="http://www.w3.org/2000/svg">
<path fill-rule="evenodd" clip-rule="evenodd" d="M9 2H7V10H6.84027C5.80009 10 4.93356 10.7973 4.84718 11.8339L4.18051 19.8339C4.08334 20.9999 5.00352 22 6.1736 22H7V24H6C3.79086 24 2 25.7909 2 28V29C2 29.5523 2.44772 30 3 30H13C13.5523 30 14 29.5523 14 29V28C14 25.7909 12.2091 24 10 24H9V22H9.8264C10.9965 22 11.9167 20.9999 11.8195 19.8339L11.1528 11.8339C11.0664 10.7973 10.1999 10 9.15973 10H9V2ZM9.15973 12L9.8264 20H6.1736L6.84027 12H9.15973ZM4 28H12C12 26.8954 11.1046 26 10 26H6C4.89543 26 4 26.8954 4 28Z"/>
<path fill-rule="evenodd" clip-rule="evenodd" d="M17 30H28C29.1046 30 30 29.1046 30 28V12C30 10.8954 29.1046 10 28 10H16C14.8954 10 14 10.8954 14 12V23H16V16H28V28H17V30ZM28 14H16V12H28V14Z"/>
<path fill-rule="evenodd" clip-rule="evenodd" d="M22 26C24.2091 26 26 24.2091 26 22C26 19.7909 24.2091 18 22 18C19.7909 18 18 19.7909 18 22C18 24.2091 19.7909 26 22 26ZM22 24C23.1046 24 24 23.1046 24 22C24 20.8954 23.1046 20 22 20C20.8954 20 20 20.8954 20 22C20 23.1046 20.8954 24 22 24Z"/>
</svg>