<svg viewBox="0 0 32 32" xmlns="http://www.w3.org/2000/svg">
<path d="M18.9001 7.22C20.5201 5.6 23.1601 5.6 24.7801 7.22C26.4001 8.84 26.4001 11.48 24.7801 13.1L20.4001 17.48L21.8101 18.89L26.1901 14.51C28.5901 12.11 28.5901 8.2 26.1901 5.8C23.7901 3.4 19.8801 3.4 17.4801 5.8L13.1001 10.18L14.5101 11.59L18.8901 7.21L18.9001 7.22Z"/>
<path d="M10.16 28C11.74 28 13.32 27.4 14.52 26.2L18.9 21.82L17.49 20.41L13.11 24.79C11.49 26.41 8.85002 26.41 7.23002 24.79C5.61002 23.17 5.61002 20.53 7.23002 18.91L11.61 14.53L10.2 13.12L5.82002 17.5C3.42002 19.9 3.42002 23.81 5.82002 26.21C7.02002 27.41 8.60002 28.01 10.18 28.01L10.16 28Z"/>
<path d="M9.44971 21.1336L21.124 9.45927L22.5383 10.8735L10.8639 22.5478L9.44971 21.1336Z"/>
</svg>