<svg viewBox="0 0 32 32" xmlns="http://www.w3.org/2000/svg">
<path d="M12 13H11C10.7239 13 10.5 13.2239 10.5 13.5V15.5C10.5 15.7761 10.7239 16 11 16H12C12.2761 16 12.5 15.7761 12.5 15.5V13.5C12.5 13.2239 12.2761 13 12 13Z" fill="black"/>
<path fill-rule="evenodd" clip-rule="evenodd" d="M13 7V4C13 3.44772 13.4477 3 14 3H18C18.5523 3 19 3.44772 19 4V7H29C29.5523 7 30 7.44772 30 8V26C30 26.5523 29.5523 27 29 27H3C2.44771 27 2 26.5523 2 26V8C2 7.44772 2.44772 7 3 7H13ZM15 5H17V9H15V5ZM11 11C9.61929 11 8.5 12.1193 8.5 13.5V15.5C8.5 16.8807 9.61929 18 11 18H12C13.3807 18 14.5 16.8807 14.5 15.5V13.5C14.5 12.1193 13.3807 11 12 11H11ZM9.11782 19C7.40689 19 5.94672 20.2369 5.66544 21.9246L5.51361 22.8356L7.4864 23.1644L7.63823 22.2534C7.75878 21.5301 8.38456 21 9.11782 21H13.8822C14.6154 21 15.2412 21.5301 15.3618 22.2534L15.5136 23.1644L17.4864 22.8356L17.3346 21.9246C17.0533 20.2369 15.5931 19 13.8822 19H9.11782ZM18 14H26V16H18V14Z" fill="black"/>
</svg>