<svg viewBox="0 0 32 32" xmlns="http://www.w3.org/2000/svg">
<path fill-rule="evenodd" clip-rule="evenodd" d="M19.5 10C20.8807 10 22 11.1193 22 12.5V19.5C22 20.8807 20.8807 22 19.5 22H15V10H19.5ZM20 12.5C20 12.2239 19.7761 12 19.5 12H17V20H19.5C19.7761 20 20 19.7761 20 19.5V12.5Z"/>
<path d="M13 10H11V22H13V10Z"/>
<path fill-rule="evenodd" clip-rule="evenodd" d="M16 30C23.732 30 30 23.732 30 16C30 8.26801 23.732 2 16 2C8.26801 2 2 8.26801 2 16C2 23.732 8.26801 30 16 30ZM16 28C22.6274 28 28 22.6274 28 16C28 9.37258 22.6274 4 16 4C9.37258 4 4 9.37258 4 16C4 22.6274 9.37258 28 16 28Z"/>
</svg>