<svg viewBox="0 0 32 32" xmlns="http://www.w3.org/2000/svg">
<path fill-rule="evenodd" clip-rule="evenodd" d="M8.5 13.5C8.5 12.1193 9.61929 11 11 11H12C13.3807 11 14.5 12.1193 14.5 13.5V15.5C14.5 16.8807 13.3807 18 12 18H11C9.61929 18 8.5 16.8807 8.5 15.5V13.5ZM11 13H12C12.2761 13 12.5 13.2239 12.5 13.5V15.5C12.5 15.7761 12.2761 16 12 16H11C10.7239 16 10.5 15.7761 10.5 15.5V13.5C10.5 13.2239 10.7239 13 11 13Z" fill="black"/>
<path d="M5.66544 21.9246C5.94672 20.2369 7.40689 19 9.11782 19H13.8822C15.5931 19 17.0533 20.2369 17.3346 21.9246L17.4864 22.8356L15.5136 23.1644L15.3618 22.2534C15.2412 21.5301 14.6154 21 13.8822 21H9.11782C8.38456 21 7.75878 21.5301 7.63823 22.2534L7.4864 23.1644L5.51361 22.8356L5.66544 21.9246Z" fill="black"/>
<path d="M26 14H18V16H26V14Z" fill="black"/>
<path fill-rule="evenodd" clip-rule="evenodd" d="M17 5V7H28C29.1046 7 30 7.89543 30 9V25C30 26.1046 29.1046 27 28 27H4C2.89543 27 2 26.1046 2 25V9C2 7.89543 2.89543 7 4 7H15V5H17ZM15 10V9H4V25H28V9H17V10H15Z" fill="black"/>
</svg>