<svg viewBox="0 0 32 32" xmlns="http://www.w3.org/2000/svg">
<path d="M13.3183 14.9889C13.5976 14.4642 14.3126 14 15.3741 14C17.2958 14 17.6421 15.4228 17.6421 16.0182V20.1956L19.5197 17.2436L17.6762 14.1211H19.8325L20.7487 15.8466L21.6649 14.1211H23.8212L21.9777 17.2436L24 20.4H21.8213L20.7487 18.6139L19.6761 20.4L15.7875 20.4V16.6539C15.7875 15.7659 15.4523 15.4834 14.8713 15.4834C14.0892 15.4834 13.7428 16.0787 13.7428 16.9566V20.4H11.8993V16.6539C11.8993 15.7659 11.5641 15.4834 10.9831 15.4834C10.2011 15.4834 9.85468 16.0888 9.85468 16.9566V20.4H8V14.1211H9.47482L9.57537 14.8678H9.60889C10.0335 14.2624 10.6368 14 11.4077 14C12.3574 14 12.9942 14.444 13.2847 14.9889H13.3183Z" fill="black"/>
<path fill-rule="evenodd" clip-rule="evenodd" d="M17 5V7H28C29.1046 7 30 7.89543 30 9V25C30 26.1046 29.1046 27 28 27H4C2.89543 27 2 26.1046 2 25V9C2 7.89543 2.89543 7 4 7H15V5H17ZM15 10V9H4V25H28V9H17V10H15Z" fill="black"/>
</svg>