<svg viewBox="0 0 32 32" xmlns="http://www.w3.org/2000/svg">
<path d="M10.65 4H5V19H3V4C3 2.9 3.9 2 5 2H10.64C11.18 2 11.7 2.22 12.08 2.61L13.43 4H25V6H12.59L10.65 4Z"/>
<path d="M15 16C16.1046 16 17 15.1046 17 14C17 12.8954 16.1046 12 15 12C13.8954 12 13 12.8954 13 14C13 15.1046 13.8954 16 15 16Z"/>
<path fill-rule="evenodd" clip-rule="evenodd" d="M27 8H9C7.9 8 7 8.9 7 10V28C7 29.1 7.9 30 9 30H27C28.1 30 29 29.1 29 28V10C29 8.9 28.1 8 27 8ZM27 10V21.01L22.55 16.55L16.19 22.91L12.55 19.27L9 22.82V10H27ZM9 28V25.65L12.55 22.11L16.19 25.75L22.55 19.39L27.01 23.85V28.01H9.01L9 28Z"/>
</svg>