<svg viewBox="0 0 32 32" xmlns="http://www.w3.org/2000/svg">
<path d="M27 3H9V5H27V23H29V5C29 3.9 28.1 3 27 3Z"/>
<path d="M13 13C13 14.1046 12.1046 15 11 15C9.89543 15 9 14.1046 9 13C9 11.8954 9.89543 11 11 11C12.1046 11 13 11.8954 13 13Z"/>
<path fill-rule="evenodd" clip-rule="evenodd" d="M23 29C24.1 29 25 28.1 25 27V9C25 7.9 24.1 7 23 7H5C3.9 7 3 7.9 3 9V27C3 28.1 3.9 29 5 29H23ZM5 27V24.65L8.55 21.11L12.19 24.75L18.55 18.39L23.01 22.85V27.01H5.01L5 27ZM23 9V20.01L18.55 15.55L12.19 21.91L8.55 18.27L5 21.82V9H23Z"/>
</svg>