<svg viewBox="0 0 32 32" xmlns="http://www.w3.org/2000/svg">
<path d="M3 19H5V4H10.65L12.59 6H25.01V4H13.44L12.09 2.61C11.71 2.22 11.19 2 10.65 2H5C3.9 2 3 2.9 3 4V19Z" fill="black"/>
<path fill-rule="evenodd" clip-rule="evenodd" d="M12.55 19.28L16.19 22.92L22.55 16.56L29 23.01V9C29 8.45 28.55 8 28 8H8C7.45 8 7 8.45 7 9V24.83L12.55 19.28ZM15 12C16.1 12 17 12.9 17 14C17 15.1 16.1 16 15 16C13.9 16 13 15.1 13 14C13 12.9 13.9 12 15 12Z" fill="black"/>
<path d="M22.55 19.3801L16.19 25.7401L12.55 22.1001L7 27.6401V28.9901C7 29.5401 7.45 29.9901 8 29.9901H28C28.55 29.9901 29 29.5401 29 28.9901V25.8201L22.55 19.3701V19.3801Z" fill="black"/>
</svg>