<svg viewBox="0 0 32 32" xmlns="http://www.w3.org/2000/svg">
<path d="M29 23H27V5H9V3H27C28.1 3 29 3.9 29 5V23Z" fill="black"/>
<path fill-rule="evenodd" clip-rule="evenodd" d="M8.55 18.28L12.19 21.92L18.55 15.56L25 22.01V8C25 7.45 24.55 7 24 7H4C3.45 7 3 7.45 3 8V23.83L8.55 18.28ZM11 11C12.1 11 13 11.9 13 13C13 14.1 12.1 15 11 15C9.9 15 9 14.1 9 13C9 11.9 9.9 11 11 11Z" fill="black"/>
<path d="M12.19 24.7401L18.55 18.3801V18.3701L25 24.8201V27.9901C25 28.5401 24.55 28.9901 24 28.9901H4C3.45 28.9901 3 28.5401 3 27.9901V26.6401L8.55 21.1001L12.19 24.7401Z" fill="black"/>
</svg>