<svg viewBox="0 0 32 32" xmlns="http://www.w3.org/2000/svg">
<path fill-rule="evenodd" clip-rule="evenodd" d="M16 11C16 12.65 14.65 14 13 14C11.35 14 10 12.65 10 11C10 9.35 11.35 8 13 8C14.65 8 16 9.35 16 11ZM14 11C14 10.45 13.55 10 13 10C12.45 10 12 10.45 12 11C12 11.55 12.45 12 13 12C13.55 12 14 11.55 14 11Z"/>
<path fill-rule="evenodd" clip-rule="evenodd" d="M4 26V6C4 4.9 4.9 4 6 4H26C27.1 4 28 4.9 28 6V26C28 27.1 27.1 28 26 28H6C4.9 28 4 27.1 4 26ZM6 23.41V25.99H26V21.41L21 16.41L14 23.41L10 19.41L6 23.41ZM26 18.59V6H6V20.59L10 16.59L14 20.59L21 13.59L26 18.59Z"/>
</svg>