<svg viewBox="0 0 32 32" xmlns="http://www.w3.org/2000/svg">
<path d="M17 22V13H12V15H15V22H12V24H20V22H17Z"/>
<path d="M17.5 9.5C17.5 10.3284 16.8284 11 16 11C15.1716 11 14.5 10.3284 14.5 9.5C14.5 8.67157 15.1716 8 16 8C16.8284 8 17.5 8.67157 17.5 9.5Z"/>
<path fill-rule="evenodd" clip-rule="evenodd" d="M16 2C8.28 2 2 8.28 2 16C2 23.72 8.28 30 16 30C23.72 30 30 23.72 30 16C30 8.28 23.72 2 16 2ZM16 28C9.38 28 4 22.62 4 16C4 9.38 9.38 4 16 4C22.62 4 28 9.38 28 16C28 22.62 22.62 28 16 28Z"/>
</svg>