<svg viewBox="0 0 32 32" xmlns="http://www.w3.org/2000/svg">
<path d="M10.2001 2.10012C8.71011 2.17012 7.69011 2.41012 6.80011 2.76012C5.88011 3.12012 5.10011 3.60012 4.32011 4.38012C3.54011 5.16012 3.07011 5.94012 2.71011 6.86012C2.37011 7.75012 2.13011 8.77012 2.07011 10.2601C2.00011 11.7501 1.99011 12.2301 2.00011 16.0301C2.00011 19.8301 2.02011 20.3101 2.10011 21.8001C2.17011 23.2901 2.41011 24.3101 2.76011 25.2001C3.12011 26.1201 3.60011 26.9001 4.38011 27.6801C5.16011 28.4601 5.94011 28.9301 6.86011 29.2901C7.75011 29.6301 8.77011 29.8701 10.2601 29.9301C11.7501 30.0001 12.2301 30.0101 16.0301 30.0001C19.8301 30.0001 20.3101 29.9801 21.8001 29.9101C23.2901 29.8401 24.3101 29.6001 25.2001 29.2501C26.1201 28.8901 26.9001 28.4101 27.6801 27.6301C28.4601 26.8501 28.9301 26.0701 29.2901 25.1501C29.6301 24.2601 29.8701 23.2401 29.9301 21.7501C30.0001 20.2601 30.0101 19.7801 30.0001 15.9801C30.0001 12.1801 29.9801 11.7001 29.9001 10.2101C29.8301 8.72012 29.5901 7.70012 29.2401 6.81012C28.8801 5.89012 28.4001 5.11012 27.6201 4.33012C26.8401 3.55012 26.0601 3.08012 25.1401 2.72012C24.2501 2.38012 23.2301 2.14012 21.7401 2.08012C20.2501 2.01012 19.7701 2.00012 15.9701 2.01012C12.1701 2.01012 11.6901 2.03012 10.2001 2.11012M10.3601 27.4201C9.00011 27.3601 8.25011 27.1301 7.76011 26.9401C7.11011 26.6901 6.64011 26.3801 6.15011 25.9001C5.66011 25.4101 5.36011 24.9501 5.10011 24.2901C4.91011 23.8001 4.68011 23.0601 4.61011 21.6901C4.54011 20.2101 4.52011 19.7701 4.52011 16.0301C4.52011 12.2901 4.52011 11.8501 4.59011 10.3701C4.65011 9.01012 4.88011 8.26012 5.07011 7.77012C5.32011 7.11012 5.63011 6.65012 6.11011 6.16012C6.60011 5.67012 7.06011 5.37012 7.72011 5.11012C8.21011 4.92012 8.95011 4.69012 10.3201 4.62012C11.8001 4.55012 12.2401 4.54012 15.9801 4.53012C19.7201 4.53012 20.1601 4.53012 21.6401 4.60012C23.0001 4.66012 23.7501 4.89012 24.2401 5.08012C24.8901 5.33012 25.3601 5.63012 25.8501 6.12012C26.3401 6.61012 26.6501 7.07012 26.9001 7.73012C27.0901 8.22012 27.3201 8.96012 27.3901 10.3301C27.4601 11.8101 27.4801 12.2501 27.4801 15.9901C27.4801 19.7301 27.4801 20.1701 27.4101 21.6501C27.3501 23.0101 27.1201 23.7601 26.9301 24.2501C26.6801 24.9001 26.3701 25.3701 25.8901 25.8601C25.4001 26.3501 24.9401 26.6501 24.2801 26.9101C23.7901 27.1001 23.0501 27.3301 21.6801 27.4001C20.2001 27.4701 19.7601 27.4901 16.0201 27.4901C12.2801 27.4901 11.8401 27.4901 10.3601 27.4201ZM21.7701 8.53012C21.7701 9.46012 22.5301 10.2101 23.4501 10.2101C24.3801 10.2101 25.1301 9.45012 25.1301 8.53012C25.1301 7.60012 24.3701 6.85012 23.4501 6.85012C22.5201 6.85012 21.7701 7.61012 21.7701 8.53012ZM8.80011 16.0301C8.80011 20.0001 12.0301 23.2101 16.0001 23.2001C19.9701 23.2001 23.1801 19.9701 23.1801 16.0001C23.1801 12.0301 19.9501 8.82012 15.9801 8.83012C12.0101 8.83012 8.80011 12.0601 8.81011 16.0301M11.3301 16.0301C11.3301 13.4501 13.4101 11.3601 15.9901 11.3601C18.5701 11.3601 20.6601 13.4401 20.6701 16.0201C20.6701 18.6001 18.5901 20.6901 16.0101 20.7001C13.4301 20.7001 11.3401 18.6201 11.3301 16.0401"/>
</svg>