<svg viewBox="0 0 32 32" xmlns="http://www.w3.org/2000/svg">
<path fill-rule="evenodd" clip-rule="evenodd" d="M29.23 7.4C29.4 7.9 29.5 8.44 29.5 9C29.5 9.56 29.39 10.09 29.22 10.59L31.01 11.63L30 13.36L28.21 12.32C27.5 13.11 26.57 13.68 25.5 13.9V16H23.5V13.9C22.43 13.69 21.49 13.12 20.79 12.33L19.01 13.37L18 11.64L19.78 10.6C19.61 10.1 19.51 9.56 19.51 9C19.51 8.44 19.62 7.91 19.79 7.41L18 6.37L19.01 4.64L20.8 5.68C21.51 4.89 22.44 4.32 23.51 4.1V2H25.51V4.1C26.58 4.31 27.52 4.88 28.22 5.67L30 4.63L31.01 6.36L29.23 7.4ZM21.5 9C21.5 10.66 22.84 12 24.5 12C26.16 12 27.5 10.66 27.5 9C27.5 7.34 26.16 6 24.5 6C22.84 6 21.5 7.34 21.5 9ZM16.4966 13.4966C16.4966 14.276 16.3851 15.0293 16.1773 15.7415L25.4966 24.8557V30.4965H21.9966C21.1643 30.4965 20.4966 29.8288 20.4966 28.9965V28.4965H18.9966C18.1643 28.4965 17.4966 27.8288 17.4966 26.9965V25.2098L14.9466 24.5806L11.3418 20.9758C10.4578 21.3123 9.49869 21.4966 8.49658 21.4966C4.0783 21.4966 0.496582 17.9149 0.496582 13.4966C0.496582 9.0783 4.0783 5.49658 8.49658 5.49658C12.9149 5.49658 16.4966 9.0783 16.4966 13.4966ZM7.49658 13.4966C8.32501 13.4966 8.99658 12.825 8.99658 11.9966C8.99658 11.1682 8.32501 10.4966 7.49658 10.4966C6.66815 10.4966 5.99658 11.1682 5.99658 11.9966C5.99658 12.825 6.66815 13.4966 7.49658 13.4966Z" fill="black"/>
</svg>