<svg viewBox="0 0 32 32" xmlns="http://www.w3.org/2000/svg">
<path fill-rule="evenodd" clip-rule="evenodd" d="M29.23 7.4C29.4 7.9 29.5 8.44 29.5 9C29.5 9.56 29.39 10.09 29.22 10.59L31.01 11.63L30 13.36L28.21 12.32C27.5 13.11 26.57 13.68 25.5 13.9V16H23.5V13.9C22.43 13.69 21.49 13.12 20.79 12.33L19.01 13.37L18 11.64L19.78 10.6C19.61 10.1 19.51 9.56 19.51 9C19.51 8.44 19.62 7.91 19.79 7.41L18 6.37L19.01 4.64L20.8 5.68C21.51 4.89 22.44 4.32 23.51 4.1V2H25.51V4.1C26.58 4.31 27.52 4.88 28.22 5.67L30 4.63L31.01 6.36L29.23 7.4ZM21.5 9C21.5 10.66 22.84 12 24.5 12C26.16 12 27.5 10.66 27.5 9C27.5 7.34 26.16 6 24.5 6C22.84 6 21.5 7.34 21.5 9Z" fill="black"/>
<path d="M8.99658 11.9966C8.99658 12.825 8.32501 13.4966 7.49658 13.4966C6.66815 13.4966 5.99658 12.825 5.99658 11.9966C5.99658 11.1682 6.66815 10.4966 7.49658 10.4966C8.32501 10.4966 8.99658 11.1682 8.99658 11.9966Z" fill="black"/>
<path fill-rule="evenodd" clip-rule="evenodd" d="M8.49658 21.4966C9.49868 21.4966 10.4578 21.3123 11.3418 20.9759L14.9466 24.5807L17.4966 25.2098V26.9965C17.4966 27.8288 18.1643 28.4965 18.9966 28.4965H20.4966V28.9965C20.4966 29.8288 21.1643 30.4965 21.9966 30.4965H25.4966V24.8558L16.1773 15.7416C16.3851 15.0293 16.4966 14.276 16.4966 13.4966C16.4966 9.0783 12.9149 5.49658 8.49658 5.49658C4.0783 5.49658 0.496582 9.0783 0.496582 13.4966C0.496582 17.9149 4.0783 21.4966 8.49658 21.4966ZM13.8451 16.2184C14.2617 15.4015 14.4966 14.4765 14.4966 13.4966C14.4966 10.1829 11.8103 7.49658 8.49658 7.49658C5.18287 7.49658 2.49658 10.1829 2.49658 13.4966C2.49658 16.8103 5.18287 19.4966 8.49658 19.4966C9.68549 19.4966 10.7936 19.1508 11.7259 18.5543L13.939 20.7673L13.9503 20.756L15.9667 22.7724L19.4966 23.6432V26.4965H22.4966V28.4965H23.4966V25.6973L15.6531 18.0264L13.8451 16.2184Z" fill="black"/>
</svg>