<svg viewBox="0 0 32 32" xmlns="http://www.w3.org/2000/svg">
<path fill-rule="evenodd" clip-rule="evenodd" d="M13.8913 19.5255C12.9839 19.8332 12.0114 20 11 20C6.02944 20 2 15.9706 2 11C2 6.02944 6.02944 2 11 2C15.9706 2 20 6.02944 20 11C20 12.0114 19.8332 12.9838 19.5255 13.8913L30 24.3658V30L26.0003 29.9999C25.448 29.9999 25 29.5522 25 28.9999V27.9999H23C22.4477 27.9999 22 27.5522 22 26.9999V24.3658L18.4499 24.0841L13.8913 19.5255ZM10 12C11.1046 12 12 11.1046 12 10C12 8.89543 11.1046 8 10 8C8.89543 8 8 8.89543 8 10C8 11.1046 8.89543 12 10 12Z" fill="black"/>
</svg>