<svg viewBox="0 0 32 32" xmlns="http://www.w3.org/2000/svg">
<path d="M9.99988 11.9999C11.1045 11.9999 11.9999 11.1045 11.9999 9.99988C11.9999 8.89531 11.1045 7.99988 9.99988 7.99988C8.89531 7.99988 7.99988 8.89531 7.99988 9.99988C7.99988 11.1045 8.89531 11.9999 9.99988 11.9999Z" fill="black"/>
<path fill-rule="evenodd" clip-rule="evenodd" d="M11.1893 2.0101C6.07193 1.90908 1.90908 6.07193 2.0101 11.1893L11.1893 2.0101ZM2.0101 11.1893C2.10044 15.8318 5.88213 19.7507 10.527 19.9885C11.7109 20.0535 12.8473 19.8793 13.8907 19.5249L18.4498 24.0841L20.9999 24.7132V26.4999C20.9999 27.3322 21.6676 27.9999 22.4999 27.9999H23.9999V28.4999C23.9999 29.3322 24.6676 29.9999 25.4999 29.9999H29.9999V24.3657L19.524 13.8898C19.8784 12.8442 20.0536 11.7137 19.9885 10.5269C19.7507 5.88209 15.8318 2.10044 11.1893 2.0101M11.1501 4.00972C7.16782 3.93095 3.93095 7.16782 4.00972 11.1501C4.07956 14.7468 7.03673 17.808 10.6308 17.9912L10.6349 17.9914C11.743 18.0525 12.8006 17.8434 13.7481 17.4399L14.3694 17.1752L19.47 22.2758L22.9999 23.1466V25.9999H25.9999V27.9999H27.9999V25.1941L17.1769 14.3711L17.4386 13.7511C17.8441 12.7902 18.0524 11.7415 17.9914 10.6349L17.9912 10.6308C17.808 7.03673 14.7468 4.07956 11.1501 4.00972Z" fill="black"/>
</svg>