<svg viewBox="0 0 32 32" xmlns="http://www.w3.org/2000/svg">
<path fill-rule="evenodd" clip-rule="evenodd" d="M4 16H14V14H3.5C2.67157 14 2 14.6716 2 15.5V18.5C2 19.3284 2.67157 20 3.5 20H14V18H4V16Z"/>
<path d="M23 27C22.4477 27 22 26.5523 22 26C22 25.4477 22.4477 25 23 25C23.5523 25 24 25.4477 24 26C24 26.5523 23.5523 27 23 27Z"/>
<path fill-rule="evenodd" clip-rule="evenodd" d="M30 15C30 13.8954 29.1046 13 28 13H18C16.8954 13 16 13.8954 16 15V28C16 29.1046 16.8954 30 18 30H28C29.1046 30 30 29.1046 30 28V15ZM18 15H28V28H18V15Z"/>
<path fill-rule="evenodd" clip-rule="evenodd" d="M24 4C24 2.89543 23.1046 2 22 2H6C4.89543 2 4 2.89543 4 4V15H6V4H22V11H24V4Z"/>
</svg>