<svg viewBox="0 0 32 32" xmlns="http://www.w3.org/2000/svg">
<path fill-rule="evenodd" clip-rule="evenodd" d="M24 3C24 2.45 23.55 2 23 2H5C4.45 2 4 2.45 4 3V14H14V13C14 11.8954 14.8954 11 16 11H24V3ZM14 20H3C2.44772 20 2 19.5523 2 19V17C2 16.4477 2.44772 16 3 16H14V20Z" fill="black"/>
<path fill-rule="evenodd" clip-rule="evenodd" d="M17 13C16.4477 13 16 13.4477 16 14V29C16 29.5523 16.4477 30 17 30H29C29.5523 30 30 29.5523 30 29V14C30 13.4477 29.5523 13 29 13H17ZM23 27C23.5523 27 24 26.5523 24 26C24 25.4477 23.5523 25 23 25C22.4477 25 22 25.4477 22 26C22 26.5523 22.4477 27 23 27Z" fill="black"/>
</svg>