<svg viewBox="0 0 32 32" xmlns="http://www.w3.org/2000/svg">
<path d="M7 10C5.35 10 4 8.65 4 7C4 5.35 5.35 4 7 4C8.65 4 10 5.35 10 7C10 8.65 8.65 10 7 10Z" fill="black"/>
<path d="M16 10C14.35 10 13 8.65 13 7C13 5.35 14.35 4 16 4C17.65 4 19 5.35 19 7C19 8.65 17.65 10 16 10Z" fill="black"/>
<path d="M22 7C22 8.65 23.35 10 25 10C26.65 10 28 8.65 28 7C28 5.35 26.65 4 25 4C23.35 4 22 5.35 22 7Z" fill="black"/>
<path d="M7 19C5.35 19 4 17.65 4 16C4 14.35 5.35 13 7 13C8.65 13 10 14.35 10 16C10 17.65 8.65 19 7 19Z" fill="black"/>
<path d="M13 16C13 17.65 14.35 19 16 19C17.65 19 19 17.65 19 16C19 14.35 17.65 13 16 13C14.35 13 13 14.35 13 16Z" fill="black"/>
<path d="M25 19C23.35 19 22 17.65 22 16C22 14.35 23.35 13 25 13C26.65 13 28 14.35 28 16C28 17.65 26.65 19 25 19Z" fill="black"/>
<path d="M4 25C4 26.65 5.35 28 7 28C8.65 28 10 26.65 10 25C10 23.35 8.65 22 7 22C5.35 22 4 23.35 4 25Z" fill="black"/>
<path d="M16 28C14.35 28 13 26.65 13 25C13 23.35 14.35 22 16 22C17.65 22 19 23.35 19 25C19 26.65 17.65 28 16 28Z" fill="black"/>
<path d="M22 25C22 26.65 23.35 28 25 28C26.65 28 28 26.65 28 25C28 23.35 26.65 22 25 22C23.35 22 22 23.35 22 25Z" fill="black"/>
</svg>