<svg viewBox="0 0 32 32" xmlns="http://www.w3.org/2000/svg">
<path d="M26.5 4H13.5C12.67 4 12 4.67 12 5.5V8.5C12 9.33 12.67 10 13.5 10H26.5C27.33 10 28 9.33 28 8.5V5.5C28 4.67 27.33 4 26.5 4ZM26 8H14V6H26V8Z"/>
<path d="M8.5 4H5.5C4.67 4 4 4.67 4 5.5V8.5C4 9.33 4.67 10 5.5 10H8.5C9.33 10 10 9.33 10 8.5V5.5C10 4.67 9.33 4 8.5 4ZM8 8H6V6H8V8Z"/>
<path d="M26.5 13H13.5C12.67 13 12 13.67 12 14.5V17.5C12 18.33 12.67 19 13.5 19H26.5C27.33 19 28 18.33 28 17.5V14.5C28 13.67 27.33 13 26.5 13ZM26 17H14V15H26V17Z"/>
<path d="M8.5 13H5.5C4.67 13 4 13.67 4 14.5V17.5C4 18.33 4.67 19 5.5 19H8.5C9.33 19 10 18.33 10 17.5V14.5C10 13.67 9.33 13 8.5 13ZM8 17H6V15H8V17Z"/>
<path d="M26.5 22H13.5C12.67 22 12 22.67 12 23.5V26.5C12 27.33 12.67 28 13.5 28H26.5C27.33 28 28 27.33 28 26.5V23.5C28 22.67 27.33 22 26.5 22ZM26 26H14V24H26V26Z"/>
<path d="M8.5 22H5.5C4.67 22 4 22.67 4 23.5V26.5C4 27.33 4.67 28 5.5 28H8.5C9.33 28 10 27.33 10 26.5V23.5C10 22.67 9.33 22 8.5 22ZM8 26H6V24H8V26Z"/>
</svg>