<svg viewBox="0 0 32 32" xmlns="http://www.w3.org/2000/svg">
<path d="M7 10C5.35 10 4 8.65 4 7C4 5.35 5.35 4 7 4C8.65 4 10 5.35 10 7C10 8.65 8.65 10 7 10ZM7 6C6.45 6 6 6.45 6 7C6 7.55 6.45 8 7 8C7.55 8 8 7.55 8 7C8 6.45 7.55 6 7 6Z"/>
<path d="M16 10C14.35 10 13 8.65 13 7C13 5.35 14.35 4 16 4C17.65 4 19 5.35 19 7C19 8.65 17.65 10 16 10ZM16 6C15.45 6 15 6.45 15 7C15 7.55 15.45 8 16 8C16.55 8 17 7.55 17 7C17 6.45 16.55 6 16 6Z"/>
<path d="M25 10C23.35 10 22 8.65 22 7C22 5.35 23.35 4 25 4C26.65 4 28 5.35 28 7C28 8.65 26.65 10 25 10ZM25 6C24.45 6 24 6.45 24 7C24 7.55 24.45 8 25 8C25.55 8 26 7.55 26 7C26 6.45 25.55 6 25 6Z"/>
<path d="M7 19C5.35 19 4 17.65 4 16C4 14.35 5.35 13 7 13C8.65 13 10 14.35 10 16C10 17.65 8.65 19 7 19ZM7 15C6.45 15 6 15.45 6 16C6 16.55 6.45 17 7 17C7.55 17 8 16.55 8 16C8 15.45 7.55 15 7 15Z"/>
<path d="M16 19C14.35 19 13 17.65 13 16C13 14.35 14.35 13 16 13C17.65 13 19 14.35 19 16C19 17.65 17.65 19 16 19ZM16 15C15.45 15 15 15.45 15 16C15 16.55 15.45 17 16 17C16.55 17 17 16.55 17 16C17 15.45 16.55 15 16 15Z"/>
<path d="M25 19C23.35 19 22 17.65 22 16C22 14.35 23.35 13 25 13C26.65 13 28 14.35 28 16C28 17.65 26.65 19 25 19ZM25 15C24.45 15 24 15.45 24 16C24 16.55 24.45 17 25 17C25.55 17 26 16.55 26 16C26 15.45 25.55 15 25 15Z"/>
<path d="M7 28C5.35 28 4 26.65 4 25C4 23.35 5.35 22 7 22C8.65 22 10 23.35 10 25C10 26.65 8.65 28 7 28ZM7 24C6.45 24 6 24.45 6 25C6 25.55 6.45 26 7 26C7.55 26 8 25.55 8 25C8 24.45 7.55 24 7 24Z"/>
<path d="M16 28C14.35 28 13 26.65 13 25C13 23.35 14.35 22 16 22C17.65 22 19 23.35 19 25C19 26.65 17.65 28 16 28ZM16 24C15.45 24 15 24.45 15 25C15 25.55 15.45 26 16 26C16.55 26 17 25.55 17 25C17 24.45 16.55 24 16 24Z"/>
<path d="M25 28C23.35 28 22 26.65 22 25C22 23.35 23.35 22 25 22C26.65 22 28 23.35 28 25C28 26.65 26.65 28 25 28ZM25 24C24.45 24 24 24.45 24 25C24 25.55 24.45 26 25 26C25.55 26 26 25.55 26 25C26 24.45 25.55 24 25 24Z"/>
</svg>