<svg viewBox="0 0 32 32" xmlns="http://www.w3.org/2000/svg">
<path fill-rule="evenodd" clip-rule="evenodd" d="M6 4H12C13.1 4 14 4.9 14 6V12C14 13.1 13.1 14 12 14H6C4.9 14 4 13.1 4 12V6C4 4.9 4.9 4 6 4ZM6 6V12H12V6H6Z"/>
<path fill-rule="evenodd" clip-rule="evenodd" d="M20 4H26C27.1 4 28 4.9 28 6V12C28 13.1 27.1 14 26 14H20C18.9 14 18 13.1 18 12V6C18 4.9 18.9 4 20 4ZM20 6V12H26V6H20Z"/>
<path fill-rule="evenodd" clip-rule="evenodd" d="M12 18H6C4.9 18 4 18.9 4 20V26C4 27.1 4.9 28 6 28H12C13.1 28 14 27.1 14 26V20C14 18.9 13.1 18 12 18ZM6 26V20H12V26H6Z"/>
<path fill-rule="evenodd" clip-rule="evenodd" d="M20 18H26C27.1 18 28 18.9 28 20V26C28 27.1 27.1 28 26 28H20C18.9 28 18 27.1 18 26V20C18 18.9 18.9 18 20 18ZM20 20V26H26V20H20Z"/>
</svg>