<svg viewBox="0 0 32 32" xmlns="http://www.w3.org/2000/svg">
<path fill-rule="evenodd" clip-rule="evenodd" d="M8.5 28H5.5C4.67 28 4 27.33 4 26.5V5.5C4 4.67 4.67 4 5.5 4H8.5C9.33 4 10 4.67 10 5.5V26.5C10 27.33 9.33 28 8.5 28ZM6 26H8V6H6V26Z"/>
<path fill-rule="evenodd" clip-rule="evenodd" d="M17.5 28H14.5C13.67 28 13 27.33 13 26.5V5.5C13 4.67 13.67 4 14.5 4H17.5C18.33 4 19 4.67 19 5.5V26.5C19 27.33 18.33 28 17.5 28ZM15 26H17V6H15V26Z"/>
<path fill-rule="evenodd" clip-rule="evenodd" d="M23.5 28H26.5C27.33 28 28 27.33 28 26.5V5.5C28 4.67 27.33 4 26.5 4H23.5C22.67 4 22 4.67 22 5.5V26.5C22 27.33 22.67 28 23.5 28ZM26 26H24V6H26V26Z"/>
</svg>