<svg viewBox="0 0 32 32" xmlns="http://www.w3.org/2000/svg">
<path d="M5 14H13C13.55 14 14 13.55 14 13V5C14 4.45 13.55 4 13 4H5C4.45 4 4 4.45 4 5V13C4 13.55 4.45 14 5 14Z" fill="black"/>
<path d="M19 14H27C27.55 14 28 13.55 28 13V5C28 4.45 27.55 4 27 4H19C18.45 4 18 4.45 18 5V13C18 13.55 18.45 14 19 14Z" fill="black"/>
<path d="M27 28H19C18.45 28 18 27.55 18 27V19C18 18.45 18.45 18 19 18H27C27.55 18 28 18.45 28 19V27C28 27.55 27.55 28 27 28Z" fill="black"/>
<path d="M5 28H13C13.55 28 14 27.55 14 27V19C14 18.45 13.55 18 13 18H5C4.45 18 4 18.45 4 19V27C4 27.55 4.45 28 5 28Z" fill="black"/>
</svg>