<svg viewBox="0 0 32 32" xmlns="http://www.w3.org/2000/svg">
<path fill-rule="evenodd" clip-rule="evenodd" d="M4 9C4 11.76 6.24 14 9 14C11.76 14 14 11.76 14 9C14 6.24 11.76 4 9 4C6.24 4 4 6.24 4 9ZM6 9C6 7.35 7.35 6 9 6C10.65 6 12 7.35 12 9C12 10.65 10.65 12 9 12C7.35 12 6 10.65 6 9Z"/>
<path fill-rule="evenodd" clip-rule="evenodd" d="M18 9C18 11.76 20.24 14 23 14C25.76 14 28 11.76 28 9C28 6.24 25.76 4 23 4C20.24 4 18 6.24 18 9ZM20 9C20 7.35 21.35 6 23 6C24.65 6 26 7.35 26 9C26 10.65 24.65 12 23 12C21.35 12 20 10.65 20 9Z"/>
<path fill-rule="evenodd" clip-rule="evenodd" d="M9 28C6.24 28 4 25.76 4 23C4 20.24 6.24 18 9 18C11.76 18 14 20.24 14 23C14 25.76 11.76 28 9 28ZM9 20C7.35 20 6 21.35 6 23C6 24.65 7.35 26 9 26C10.65 26 12 24.65 12 23C12 21.35 10.65 20 9 20Z"/>
<path fill-rule="evenodd" clip-rule="evenodd" d="M18 23C18 25.76 20.24 28 23 28C25.76 28 28 25.76 28 23C28 20.24 25.76 18 23 18C20.24 18 18 20.24 18 23ZM20 23C20 21.35 21.35 20 23 20C24.65 20 26 21.35 26 23C26 24.65 24.65 26 23 26C21.35 26 20 24.65 20 23Z"/>
</svg>