<svg viewBox="0 0 32 32" xmlns="http://www.w3.org/2000/svg">
<path d="M5 4H9C9.55 4 10 4.45 10 5V9C10 9.55 9.55 10 9 10H5C4.45 10 4 9.55 4 9V5C4 4.45 4.45 4 5 4Z" fill="black"/>
<path d="M13 4H27C27.55 4 28 4.45 28 5V9C28 9.55 27.55 10 27 10H13C12.45 10 12 9.55 12 9V5C12 4.45 12.45 4 13 4Z" fill="black"/>
<path d="M9 13H5C4.45 13 4 13.45 4 14V18C4 18.55 4.45 19 5 19H9C9.55 19 10 18.55 10 18V14C10 13.45 9.55 13 9 13Z" fill="black"/>
<path d="M13 13H27C27.55 13 28 13.45 28 14V18C28 18.55 27.55 19 27 19H13C12.45 19 12 18.55 12 18V14C12 13.45 12.45 13 13 13Z" fill="black"/>
<path d="M9 22H5C4.45 22 4 22.45 4 23V27C4 27.55 4.45 28 5 28H9C9.55 28 10 27.55 10 27V23C10 22.45 9.55 22 9 22Z" fill="black"/>
<path d="M13 22H27C27.55 22 28 22.45 28 23V27C28 27.55 27.55 28 27 28H13C12.45 28 12 27.55 12 27V23C12 22.45 12.45 22 13 22Z" fill="black"/>
</svg>