<svg viewBox="0 0 32 32" xmlns="http://www.w3.org/2000/svg">
<path d="M9 10H5C4.45 10 4 9.55 4 9V5C4 4.45 4.45 4 5 4H9C9.55 4 10 4.45 10 5V9C10 9.55 9.55 10 9 10Z" fill="black"/>
<path d="M18 10H14C13.45 10 13 9.55 13 9V5C13 4.45 13.45 4 14 4H18C18.55 4 19 4.45 19 5V9C19 9.55 18.55 10 18 10Z" fill="black"/>
<path d="M27 10H23C22.45 10 22 9.55 22 9V5C22 4.45 22.45 4 23 4H27C27.55 4 28 4.45 28 5V9C28 9.55 27.55 10 27 10Z" fill="black"/>
<path d="M9 19H5C4.45 19 4 18.55 4 18V14C4 13.45 4.45 13 5 13H9C9.55 13 10 13.45 10 14V18C10 18.55 9.55 19 9 19Z" fill="black"/>
<path d="M18 19H14C13.45 19 13 18.55 13 18V14C13 13.45 13.45 13 14 13H18C18.55 13 19 13.45 19 14V18C19 18.55 18.55 19 18 19Z" fill="black"/>
<path d="M27 19H23C22.45 19 22 18.55 22 18V14C22 13.45 22.45 13 23 13H27C27.55 13 28 13.45 28 14V18C28 18.55 27.55 19 27 19Z" fill="black"/>
<path d="M9 28H5C4.45 28 4 27.55 4 27V23C4 22.45 4.45 22 5 22H9C9.55 22 10 22.45 10 23V27C10 27.55 9.55 28 9 28Z" fill="black"/>
<path d="M18 28H14C13.45 28 13 27.55 13 27V23C13 22.45 13.45 22 14 22H18C18.55 22 19 22.45 19 23V27C19 27.55 18.55 28 18 28Z" fill="black"/>
<path d="M27 28H23C22.45 28 22 27.55 22 27V23C22 22.45 22.45 22 23 22H27C27.55 22 28 22.45 28 23V27C28 27.55 27.55 28 27 28Z" fill="black"/>
</svg>