<svg viewBox="0 0 32 32" xmlns="http://www.w3.org/2000/svg">
<path d="M26.5 28H23.5C22.67 28 22 27.33 22 26.5V23.5C22 22.67 22.67 22 23.5 22H26.5C27.33 22 28 22.67 28 23.5V26.5C28 27.33 27.33 28 26.5 28ZM24 26H26V24H24V26Z"/>
<path d="M17.5 28H14.5C13.67 28 13 27.33 13 26.5V23.5C13 22.67 13.67 22 14.5 22H17.5C18.33 22 19 22.67 19 23.5V26.5C19 27.33 18.33 28 17.5 28ZM15 26H17V24H15V26Z"/>
<path d="M8.5 28H5.5C4.67 28 4 27.33 4 26.5V23.5C4 22.67 4.67 22 5.5 22H8.5C9.33 22 10 22.67 10 23.5V26.5C10 27.33 9.33 28 8.5 28ZM6 26H8V24H6V26Z"/>
<path d="M26.5 19H23.5C22.67 19 22 18.33 22 17.5V14.5C22 13.67 22.67 13 23.5 13H26.5C27.33 13 28 13.67 28 14.5V17.5C28 18.33 27.33 19 26.5 19ZM24 17H26V15H24V17Z"/>
<path d="M17.5 19H14.5C13.67 19 13 18.33 13 17.5V14.5C13 13.67 13.67 13 14.5 13H17.5C18.33 13 19 13.67 19 14.5V17.5C19 18.33 18.33 19 17.5 19ZM15 17H17V15H15V17Z"/>
<path d="M8.5 19H5.5C4.67 19 4 18.33 4 17.5V14.5C4 13.67 4.67 13 5.5 13H8.5C9.33 13 10 13.67 10 14.5V17.5C10 18.33 9.33 19 8.5 19ZM6 17H8V15H6V17Z"/>
<path d="M26.5 10H23.5C22.67 10 22 9.33 22 8.5V5.5C22 4.67 22.67 4 23.5 4H26.5C27.33 4 28 4.67 28 5.5V8.5C28 9.33 27.33 10 26.5 10ZM24 8H26V6H24V8Z"/>
<path d="M17.5 10H14.5C13.67 10 13 9.33 13 8.5V5.5C13 4.67 13.67 4 14.5 4H17.5C18.33 4 19 4.67 19 5.5V8.5C19 9.33 18.33 10 17.5 10ZM15 8H17V6H15V8Z"/>
<path d="M8.5 10H5.5C4.67 10 4 9.33 4 8.5V5.5C4 4.67 4.67 4 5.5 4H8.5C9.33 4 10 4.67 10 5.5V8.5C10 9.33 9.33 10 8.5 10ZM6 8H8V6H6V8Z"/>
</svg>