<svg viewBox="0 0 32 32" xmlns="http://www.w3.org/2000/svg">
<path d="M4 9C4 11.76 6.24 14 9 14C11.76 14 14 11.76 14 9C14 6.24 11.76 4 9 4C6.24 4 4 6.24 4 9Z" fill="black"/>
<path d="M4 23C4 25.76 6.24 28 9 28C11.76 28 14 25.76 14 23C14 20.24 11.76 18 9 18C6.24 18 4 20.24 4 23Z" fill="black"/>
<path d="M23 14C20.24 14 18 11.76 18 9C18 6.24 20.24 4 23 4C25.76 4 28 6.24 28 9C28 11.76 25.76 14 23 14Z" fill="black"/>
<path d="M18 23C18 25.76 20.24 28 23 28C25.76 28 28 25.76 28 23C28 20.24 25.76 18 23 18C20.24 18 18 20.24 18 23Z" fill="black"/>
</svg>