<svg viewBox="0 0 32 32" xmlns="http://www.w3.org/2000/svg">
<path d="M24.7901 4.18001L24.2601 4.03001C17.9201 2.28001 12.1601 5.70001 9.26006 9.86001C6.46006 13.87 6.20006 18.54 8.50006 22.18C7.37006 24.4 6.55006 26.36 6.06006 27.64L7.93006 28.36C8.39006 27.18 9.14006 25.37 10.1701 23.33C11.2101 23.64 12.2601 23.8 13.3001 23.8C16.0001 23.8 18.6101 22.74 20.8001 20.7C24.9701 16.8 26.6801 10.22 24.9601 4.70001L24.8001 4.18001H24.7901ZM19.4201 19.24C17.0101 21.5 14.0901 22.27 11.1201 21.51C12.9701 18.13 15.4901 14.42 18.6401 11.77L17.3501 10.24C14.1301 12.95 11.5501 16.66 9.63006 20.08C8.38006 17.29 8.81006 14.01 10.9101 11.01C13.3201 7.55001 18.0101 4.67001 23.2001 5.83001C24.4301 10.53 22.9201 15.97 19.4301 19.24H19.4201Z"/>
</svg>