<svg viewBox="0 0 32 32" xmlns="http://www.w3.org/2000/svg">
<path d="M24.7901 4.18002L24.9601 4.70002C26.6701 10.22 24.9601 16.8 20.7901 20.7C18.6001 22.75 16.0001 23.8 13.2901 23.8C12.2601 23.8 11.2101 23.65 10.1601 23.33C12.0601 19.54 14.9101 14.91 18.6401 11.77L17.3601 10.23C13.4701 13.51 10.5001 18.26 8.51005 22.18C6.20005 18.55 6.47005 13.88 9.27005 9.87002C12.1701 5.71002 17.9301 2.29002 24.2701 4.04002L24.7901 4.18002Z" fill="black"/>
<path d="M7.92995 28.3599C8.38995 27.1799 9.14005 25.38 10.1601 23.33C9.87005 23.24 9.57995 23.1399 9.28995 23.0299L9.00995 22.9299L8.83995 22.6799C8.71995 22.5199 8.61005 22.35 8.51005 22.18C7.38005 24.41 6.55995 26.3699 6.06995 27.6399L7.92995 28.3599Z" fill="black"/>
</svg>