<svg viewBox="0 0 32 32" xmlns="http://www.w3.org/2000/svg">
<path fill-rule="evenodd" clip-rule="evenodd" d="M3 2H29C29.55 2 30 2.45 30 3V21C30 21.55 29.55 22 29 22H25.82C25.93 21.52 26 21.02 26 20.5C26 16.92 23.08 14 19.5 14C15.92 14 13 16.92 13 20.5C13 21.02 13.07 21.52 13.18 22H3C2.45 22 2 21.55 2 21V3C2 2.45 2.45 2 3 2ZM8 16H13V14H8V16ZM8 10H24V8H8V10Z" fill="black"/>
<path fill-rule="evenodd" clip-rule="evenodd" d="M19.5 16C21.98 16 24 18.02 24 20.5H24.02C24.02 21.87 23.39 23.08 22.42 23.91L23.98 29.74L22.05 30.26L20.6 24.85C20.25 24.94 19.89 25 19.51 25C19.13 25 18.77 24.94 18.42 24.85L16.97 30.26L15.04 29.74L16.6 23.91C15.63 23.08 15 21.87 15 20.5C15 18.02 17.02 16 19.5 16ZM17 20.5C17 21.88 18.12 23 19.5 23C20.88 23 22 21.88 22 20.5C22 19.12 20.88 18 19.5 18C18.12 18 17 19.12 17 20.5Z" fill="black"/>
</svg>