<svg viewBox="0 0 32 32" xmlns="http://www.w3.org/2000/svg">
<path d="M4 2H28C29.16 2 30 2.84 30 4V20C30 21.16 29.16 22 28 22H26V20H28V4H4V20H13V22H4C2.84 22 2 21.16 2 20V4C2 2.84 2.84 2 4 2Z"/>
<path d="M8 14H13V16H8V14Z"/>
<path d="M24 8H8V10H24V8Z"/>
<path fill-rule="evenodd" clip-rule="evenodd" d="M19.5 16C21.98 16 24 18.02 24 20.5H24.02C24.02 21.87 23.39 23.08 22.42 23.91L23.98 29.74L22.05 30.26L20.6 24.85C20.25 24.94 19.89 25 19.51 25C19.13 25 18.77 24.94 18.42 24.85L16.97 30.26L15.04 29.74L16.6 23.91C15.63 23.08 15 21.87 15 20.5C15 18.02 17.02 16 19.5 16ZM19.5 18C18.12 18 17 19.12 17 20.5C17 21.88 18.12 23 19.5 23C20.88 23 22 21.88 22 20.5C22 19.12 20.88 18 19.5 18Z"/>
</svg>