<svg viewBox="0 0 32 32" xmlns="http://www.w3.org/2000/svg">
<path d="M15 2H17V6H15V2Z"/>
<path d="M23.2937 7.79297L26.0938 4.99283L27.5081 6.40704L24.7079 9.20718L23.2937 7.79297Z"/>
<path d="M6 14H2V16H6V14Z"/>
<path d="M26 14H30V16H26V14Z"/>
<path fill-rule="evenodd" clip-rule="evenodd" d="M17 30C19.21 30 21 28.21 21 26V25C21 21.98 21.8 20.67 22.58 19.4C23.28 18.26 24 17.08 24 15C24 10.94 20.64 8 16 8C11.36 8 8 10.94 8 15C8 17.08 8.72 18.26 9.42 19.4C10.2 20.67 11 21.98 11 25V26C11 28.21 12.79 30 15 30H17ZM10 15C10 11.56 13.11 10 16 10C18.89 10 22 11.56 22 15C22 16.5126 21.5049 17.3221 20.8792 18.345L20.87 18.36C20.21 19.44 19.43 20.74 19.13 23H12.86C12.56 20.74 11.78 19.43 11.12 18.36L11.1108 18.345C10.4851 17.3221 9.99 16.5126 9.99 15H10ZM19 25V26C19 27.1 18.1 28 17 28H15C13.9 28 13 27.1 13 26V25H19Z"/>
<path d="M4.49023 6.41064L5.90445 4.99643L8.70459 7.79657L7.29038 9.21079L4.49023 6.41064Z"/>
</svg>