<svg viewBox="0 0 32 32" xmlns="http://www.w3.org/2000/svg">
<path d="M17 2H15V6H17V2Z" fill="black"/>
<path d="M26.0938 4.99283L23.2937 7.79297L24.7079 9.20718L27.5081 6.40704L26.0938 4.99283Z" fill="black"/>
<path d="M2 14H6V16H2V14Z" fill="black"/>
<path d="M30 14H26V16H30V14Z" fill="black"/>
<path d="M4.49023 6.41064L5.90445 4.99643L8.70459 7.79657L7.29038 9.21079L4.49023 6.41064Z" fill="black"/>
<path d="M11.5 26V27C11.5 28.38 12.62 29.5 14 29.5H18C19.38 29.5 20.5 28.38 20.5 27V26H11.5Z" fill="black"/>
<path d="M8.5 15C8.5 11.17 11.58 8.5 16 8.5H16.01C20.43 8.5 23.51 11.17 23.51 15C23.51 16.9292 22.8573 17.9981 22.1715 19.1212L22.1573 19.1444C21.4381 20.323 20.6998 21.5331 20.54 24H11.47C11.31 21.54 10.57 20.32 9.85 19.14C9.15 18.01 8.5 16.94 8.5 15Z" fill="black"/>
</svg>