<svg viewBox="0 0 32 32" xmlns="http://www.w3.org/2000/svg">
<path fill-rule="evenodd" clip-rule="evenodd" d="M3.9 2H28.1C29.1493 2 30 2.85066 30 3.9V28.1C30 29.1493 29.1493 30 28.1 30H3.9C2.85066 30 2 29.1493 2 28.1V3.9C2 2.85066 2.85066 2 3.9 2ZM8.21006 10.9299L8.20508 10.9299C9.54273 10.9272 10.6101 9.86823 10.6101 8.54988C10.6101 7.20988 9.54006 6.12988 8.21006 6.12988C6.87006 6.12988 5.81006 7.18988 5.81006 8.53988C5.82005 9.86822 6.87741 10.9272 8.20508 10.9299L8.20006 10.9299H8.21006ZM18.49 12.89C17.81 13.26 17.27 13.78 16.82 14.5L16.81 14.49C16.81 14.2966 16.8077 14.1127 16.8054 13.9355C16.801 13.5996 16.797 13.2877 16.81 12.98C16.82 12.74 16.73 12.68 16.5 12.68H13.14C12.8 12.68 12.8 12.68 12.8 13.02V25.62C12.8 25.89 12.88 25.96 13.14 25.96H16.63C16.8067 25.96 16.8942 25.96 16.9376 25.9163C16.98 25.8733 16.98 25.7884 16.98 25.62C16.98 24.9174 16.9789 24.2137 16.9778 23.5096L16.9778 23.5085C16.9756 22.0987 16.9734 20.6869 16.98 19.28C16.98 18.84 17.01 18.4 17.09 17.97C17.25 17.08 17.66 16.36 18.62 16.12C18.91 16.04 19.22 16.04 19.5201 16.04C20.51 16.05 21.12 16.51 21.34 17.47C21.46 18.01 21.51 18.56 21.51 19.11C21.5234 20.5569 21.5189 22.0083 21.5145 23.4582C21.5123 24.1826 21.51 24.9071 21.51 25.63C21.51 25.89 21.59 25.97 21.85 25.97C23.01 25.96 24.18 25.96 25.34 25.97C25.59 25.98 25.68 25.91 25.68 25.64C25.6764 24.7236 25.6781 23.8073 25.6797 22.8909C25.6826 21.2873 25.6855 19.6836 25.66 18.08C25.65 17.24 25.54 16.4 25.35 15.58C25.01 14.11 24.16 13.04 22.66 12.62C22.2252 12.5029 21.7764 12.4558 21.3253 12.4084C21.237 12.3991 21.1485 12.3898 21.06 12.38C20.15 12.27 19.29 12.46 18.49 12.89ZM6.12012 13.02V25.67C6.12012 25.89 6.16012 25.98 6.40012 25.98H10.0201C10.2401 25.98 10.3001 25.9 10.3001 25.69V12.99C10.3001 12.75 10.2201 12.7 10.0001 12.7C8.81012 12.71 7.62012 12.71 6.43012 12.7C6.18012 12.69 6.12012 12.78 6.12012 13.02Z"/>
</svg>