<svg viewBox="0 0 32 32" xmlns="http://www.w3.org/2000/svg">
<path fill-rule="evenodd" clip-rule="evenodd" d="M11 12C11 9.24 13.24 7 16 7C18.76 7 21 9.24 21 12C21 14.76 18.76 17 16 17C13.24 17 11 14.76 11 12ZM13 12C13 13.65 14.35 15 16 15C17.65 15 19 13.65 19 12C19 10.35 17.65 9 16 9C14.35 9 13 10.35 13 12Z"/>
<path fill-rule="evenodd" clip-rule="evenodd" d="M6 12C6 6.49 10.49 2 16 2C21.51 2 26 6.49 26 12C26 17.93 21.56 23.99 16.76 29.65L15.99 30.56L15.23 29.64C10.76 24.26 6 18.02 6 12ZM7.99 12C7.99 16.58 11.16 21.52 16 27.44C20.24 22.34 23.99 16.98 23.99 12C23.99 7.59 20.4 4 15.99 4C11.58 4 7.99 7.42 7.99 12Z"/>
</svg>