<svg viewBox="0 0 32 32" xmlns="http://www.w3.org/2000/svg">
<path fill-rule="evenodd" clip-rule="evenodd" d="M10.5 13.5C10.5 12.6716 11.1716 12 12 12H12.5V10.5C12.5 9.11772 13.6177 8 15 8H17C18.3823 8 19.5 9.11772 19.5 10.5V12H20C20.8284 12 21.5 12.6716 21.5 13.5V19.5C21.5 20.3284 20.8284 21 20 21H12C11.1716 21 10.5 20.3284 10.5 19.5V13.5ZM12.5 14V19H19.5V14H12.5ZM17.5 12V10.5C17.5 10.2223 17.2777 10 17 10H15C14.7223 10 14.5 10.2223 14.5 10.5V12H17.5Z"/>
<path fill-rule="evenodd" clip-rule="evenodd" d="M4 5C4 3.89772 4.89772 3 6 3H26C27.1023 3 28 3.89772 28 5V14C28 18.7549 26.4018 22.0124 24.0821 24.3321C21.8019 26.6123 18.8837 27.9236 16.3714 28.9285L16 29.077L15.6286 28.9285C13.1163 27.9236 10.1981 26.6123 7.91789 24.3321C5.59819 22.0124 4 18.7549 4 14V5ZM26 5H6V14C6 18.2451 7.40181 20.9876 9.33211 22.9179C11.204 24.7898 13.6286 25.9564 16 26.9217C18.3714 25.9564 20.796 24.7898 22.6679 22.9179C24.5982 20.9876 26 18.2451 26 14V5Z"/>
</svg>