<svg viewBox="0 0 32 32" xmlns="http://www.w3.org/2000/svg">
<path fill-rule="evenodd" clip-rule="evenodd" d="M22 21.01L21 22C20.36 22.64 19.5 23 18.59 23H12C11.45 23 11 23.45 11 24V26H3C2.45 26 2 25.55 2 25V11C2 10.45 2.45 10 3 10H6V6C6 3.79 7.79 2 10 2H14C16.21 2 18 3.79 18 6V10H21C21.55 10 22 10.45 22 11V21.01ZM10 4C8.9 4 8 4.9 8 6V10H16V6C16 4.9 15.1 4 14 4H10Z" fill="black"/>
<path fill-rule="evenodd" clip-rule="evenodd" d="M22.17 25C22.66 23.33 24.18 22.1 26 22.1C28.21 22.1 30 23.89 30 26.1C30 28.31 28.21 30.1 26 30.1C24.1 30.1 22.52 28.77 22.11 27H19V30H17V27H15V30H13V25H22.17ZM24 26.1C24 27.2 24.9 28.1 26 28.1C27.1 28.1 28 27.2 28 26.1C28 25 27.1 24.1 26 24.1C24.9 24.1 24 25 24 26.1Z" fill="black"/>
</svg>