<svg viewBox="0 0 32 32" xmlns="http://www.w3.org/2000/svg">
<path fill-rule="evenodd" clip-rule="evenodd" d="M8.95 26H4C2.9 26 2 25.1 2 24V12C2 10.9 2.9 10 4 10H6V6C6 3.79 7.79 2 10 2H14C16.21 2 18 3.79 18 6V10H20C21.1 10 22 10.9 22 12V20.94H20V12H4V24H8.95V26ZM10 4C8.9 4 8 4.9 8 6V10H16V6C16 4.9 15.1 4 14 4H10Z"/>
<path fill-rule="evenodd" clip-rule="evenodd" d="M22.14 25C22.59 23.28 24.14 22 26 22C28.21 22 30 23.79 30 26C30 28.21 28.21 30 26 30C24.14 30 22.59 28.72 22.14 27H19V30H17V27H15V30H13V25H22.14ZM24 26C24 27.1 24.9 28 26 28C27.1 28 28 27.1 28 26C28 24.9 27.1 24 26 24C24.9 24 24 24.9 24 26Z"/>
</svg>