<svg viewBox="0 0 32 32" xmlns="http://www.w3.org/2000/svg">
<path fill-rule="evenodd" clip-rule="evenodd" d="M5.08008 3H26.9201C27.4701 3 27.9201 3.45 27.9201 4V13.83C27.9201 23.58 21.4201 26.83 16.0001 29C10.5801 26.83 4.08008 23.58 4.08008 13.83V4C4.08008 3.45 4.53008 3 5.08008 3ZM14.5 10.5C14.5 10.2223 14.7223 10 15 10H17C17.2777 10 17.5 10.2223 17.5 10.5V12H14.5V10.5ZM19.5 10.5V12H20C20.8284 12 21.5 12.6716 21.5 13.5V19.5C21.5 20.3284 20.8284 21 20 21H12C11.1716 21 10.5 20.3284 10.5 19.5V13.5C10.5 12.6716 11.1716 12 12 12H12.5V10.5C12.5 9.11772 13.6177 8 15 8H17C18.3823 8 19.5 9.11772 19.5 10.5ZM12.5 19V14H19.5V19H12.5Z" fill="black"/>
</svg>