<svg viewBox="0 0 32 32" xmlns="http://www.w3.org/2000/svg">
<path d="M12 1.9057L2 6.35013V22H7.99999L7.99999 12.0001H16L16 14L22 14L22 6.35013L12 1.9057Z" fill="black"/>
<path fill-rule="evenodd" clip-rule="evenodd" d="M10 18C10 16.8954 10.8954 16 12 16H22C23.1046 16 24 16.8954 24 18V19H26.4648C27.1335 19 27.758 19.3342 28.1289 19.8906L29.6641 22.1934C29.8831 22.5219 30 22.9079 30 23.3028V26C30 27.1046 29.1046 28 28 28H26C26 29.1046 25.1046 30 24 30C22.8954 30 22 29.1046 22 28H16C16 29.1046 15.1046 30 14 30C12.8954 30 12 29.1046 12 28C10.8954 28 10 27.1046 10 26V18ZM28 26H24V21H26.4648L28 23.3028V26ZM22 26V18H12V26H22Z" fill="black"/>
</svg>