<svg viewBox="0 0 32 32" xmlns="http://www.w3.org/2000/svg">
<path d="M14 18.5C14 19.3284 13.3284 20 12.5 20C11.6716 20 11 19.3284 11 18.5C11 17.6716 11.6716 17 12.5 17C13.3284 17 14 17.6716 14 18.5Z"/>
<path fill-rule="evenodd" clip-rule="evenodd" d="M15.51 29.94L5.51 27.38C4.62 27.15 4 26.35 4 25.44V6.56C4 5.64 4.62 4.85 5.51 4.62L15.5 2.06C16.09 1.91 16.72 2.04 17.21 2.42C17.7 2.8 17.99 3.38 17.99 4H25.99C27.09 4 27.99 4.9 27.99 6V26C27.99 27.1 27.09 28 25.99 28H17.99C17.98 28.62 17.7 29.2 17.21 29.58C16.86 29.86 16.43 30 16 30C15.84 30 15.67 29.98 15.51 29.94ZM18 26H26V6H18V26ZM16 4.03L6 6.56V25.45L16 28V4.03Z"/>
</svg>