<svg viewBox="0 0 32 32" xmlns="http://www.w3.org/2000/svg">
<path d="M12 18.5C12 19.3284 11.3284 20 10.5 20C9.67157 20 9 19.3284 9 18.5C9 17.6716 9.67157 17 10.5 17C11.3284 17 12 17.6716 12 18.5Z"/>
<path fill-rule="evenodd" clip-rule="evenodd" d="M13.51 29.94C13.67 29.98 13.84 30 14 30C14.43 30 14.86 29.86 15.21 29.58C15.7 29.2 15.98 28.62 15.99 28H23.99C25.09 28 25.99 27.1 25.99 26V24H23.99V26H15.99V6H23.99V8H25.99V6C25.99 4.9 25.09 4 23.99 4H16C16 3.38 15.71 2.8 15.22 2.42C14.73 2.04 14.1 1.91 13.51 2.06L3.51 4.62C2.62 4.85 2 5.64 2 6.56V25.44C2 26.35 2.62 27.15 3.51 27.38L13.51 29.94ZM4 6.56L14 4.03V28L4 25.45V6.56Z"/>
<path d="M23.9398 12.71L22.5298 11.29L17.8198 16L22.5298 20.71L23.9398 19.29L21.6498 17H29.9998V15H21.6498L23.9398 12.71Z"/>
</svg>