<svg viewBox="0 0 32 32" xmlns="http://www.w3.org/2000/svg">
<path fill-rule="evenodd" clip-rule="evenodd" d="M16 26H24V24H26V26C26 27.1 25.1 28 24 28H16V28.98C16 29.64 15.39 30.13 14.76 29.97L2.75 27.41C2.31 27.3 2 26.9 2 26.44V5.56001C2 5.10001 2.31 4.70001 2.75 4.59001L14.76 2.03001C15.39 1.87001 16 2.36001 16 3.02001V4.00001H24C25.1 4.00001 26 4.90001 26 6.00001V8.00001H24V6.00001H16V26ZM8 18C8 19.1 8.9 20 10 20C11.1 20 12 19.1 12 18C12 16.9 11.1 16 10 16C8.9 16 8 16.9 8 18Z" fill="black"/>
<path d="M22.5298 11.29L23.9398 12.71L21.6498 15H29.9998V17H21.6498L23.9398 19.29L22.5298 20.71L17.8198 16L22.5298 11.29Z" fill="black"/>
</svg>