<svg viewBox="0 0 32 32" xmlns="http://www.w3.org/2000/svg">
<path d="M10.5 20C11.3284 20 12 19.3284 12 18.5C12 17.6716 11.3284 17 10.5 17C9.67157 17 9 17.6716 9 18.5C9 19.3284 9.67157 20 10.5 20Z"/>
<path fill-rule="evenodd" clip-rule="evenodd" d="M15.21 29.58C14.86 29.86 14.43 30 14 30C13.84 30 13.67 29.98 13.51 29.94L3.51 27.38C2.62 27.15 2 26.35 2 25.44V6.56C2 5.64 2.62 4.85 3.51 4.62L13.51 2.06C14.1 1.91 14.73 2.04 15.22 2.42C15.71 2.8 16 3.38 16 4H23.99C25.09 4 25.99 4.9 25.99 6V8H23.99V6H15.99V26H23.99V24H25.99V26C25.99 27.1 25.09 28 23.99 28H15.99C15.98 28.62 15.7 29.2 15.21 29.58ZM14 4.03L4 6.56V25.45L14 28V4.03Z"/>
<path d="M25.71 20.71L30.41 16L25.71 11.29L24.29 12.71L26.59 15H18V17H26.59L24.29 19.29L25.71 20.71Z"/>
</svg>