<svg viewBox="0 0 32 32" xmlns="http://www.w3.org/2000/svg">
<path d="M23.8399 7H20.9999V4C20.9999 2.9 20.0999 2 18.9999 2H12.9999C11.8999 2 10.9999 2.9 10.9999 4V7H8.15991C7.60991 7 7.15991 7.45 7.15991 8V27C7.15991 27.55 7.60991 28 8.15991 28H10.9999V30H12.9999V28H18.9999V30H20.9999V28H23.8399C24.3899 28 24.8399 27.55 24.8399 27V8C24.8399 7.45 24.3899 7 23.8399 7ZM12.9999 4H18.9999V7H12.9999V4ZM12.9999 9H14.9999V12H12.9999V9ZM15.9999 19H11.9999V14.54L13.9999 13.21L15.9999 14.54V19Z" fill="black"/>
</svg>