<svg viewBox="0 0 32 32" xmlns="http://www.w3.org/2000/svg">
<path fill-rule="evenodd" clip-rule="evenodd" d="M8 9.91999C8 5.54999 11.59 1.99999 16 1.99999V1.98999C20.41 1.98999 24 5.53999 24 9.90999C24 14.55 20.52 19.25 16.76 23.64L15.99 24.54L15.23 23.64C11.73 19.47 8 14.63 8 9.91999ZM14 10.03C14.01 11.13 14.93 12.02 16.03 12C17.13 11.99 18.02 11.07 18 9.96999C17.99 8.86999 17.07 7.97999 15.97 7.99999C14.87 8.00999 13.99 8.92999 14 10.03Z" fill="black"/>
<path d="M4.01996 30H27.97C28.58 30 29.15 29.73 29.54 29.26C29.92 28.8 30.07 28.2 29.95 27.61L28.13 18.61C27.94 17.68 27.12 17.01 26.17 17.01H23.99V19.01H26.17L27.98 28.01H3.99996L5.81996 19.01H7.99996V17.01H5.81996C4.86996 17.01 4.04996 17.68 3.85996 18.61L2.03996 27.61C1.91996 28.19 2.06996 28.8 2.44996 29.26C2.83996 29.73 3.40996 30 4.01996 30Z" fill="black"/>
</svg>