<svg viewBox="0 0 32 32" xmlns="http://www.w3.org/2000/svg">
<path fill-rule="evenodd" clip-rule="evenodd" d="M16 6C18.21 6 20 7.79 20 10C20 12.21 18.21 14 16 14C13.79 14 12 12.21 12 10C12 7.79 13.79 6 16 6ZM14 10C14 11.1 14.9 12 16 12C17.1 12 18 11.1 18 10C18 8.9 17.1 8 16 8C14.9 8 14 8.9 14 10Z"/>
<path fill-rule="evenodd" clip-rule="evenodd" d="M16.76 23.65C20.52 19.26 24 14.56 24 9.92C24 5.55 20.41 2 16 2C11.59 2 8 5.55 8 9.92C8 14.63 11.73 19.47 15.23 23.64L15.99 24.54L16.76 23.64V23.65ZM10 9.92C10 6.65 12.69 4 16 4C19.31 4 22 6.66 22 9.92C22 13.62 19.21 17.61 16.01 21.44C12.37 17.01 10 13.32 10 9.92Z"/>
<path d="M28.14 18.6C27.95 17.67 27.13 17 26.18 17H24V19H26.18L27.99 28H3.99996L5.81996 19H7.99996V17H5.81996C4.86996 17 4.04996 17.67 3.85996 18.6L2.03996 27.6C1.91996 28.19 2.06996 28.79 2.44996 29.25C2.82996 29.72 3.40996 29.99 4.01996 29.99H27.98C28.59 29.99 29.16 29.72 29.55 29.25C29.93 28.79 30.08 28.18 29.96 27.6L28.14 18.6Z"/>
</svg>