<svg viewBox="0 0 32 32" xmlns="http://www.w3.org/2000/svg">
<path d="M13 9.9999L23.52 3.8099V3.7999C24.19 3.43989 25 3.91989 25 4.67989V27.3199C25 28.0799 24.19 28.5599 23.52 28.1999L13 22.0099H11.29L12.42 26.2299C12.56 26.7599 12.24 27.3099 11.71 27.4499L9.78 27.9699C9.25 28.1099 8.7 27.7899 8.56 27.2599L7.1 21.9999H6C4.34 21.9999 3 20.6599 3 18.9999V12.9999C3 11.3399 4.34 9.9999 6 9.9999H13Z" fill="black"/>
<path d="M27 13H27.05C28.76 13 30 14.38 30 15.92C30 17.62 28.76 19 27.05 19H27V13Z" fill="black"/>
</svg>