<svg viewBox="0 0 32 32" xmlns="http://www.w3.org/2000/svg">
<path d="M25.04 12.0001H25V5.0001C25 4.6401 24.81 4.3101 24.49 4.1301C24.18 3.9501 23.79 3.9601 23.48 4.1401L13.72 10.0001H7C4.79 10.0001 3 11.7901 3 14.0001V18.0001C3 19.9901 4.46 21.6301 6.36 21.9401L7.59 26.5201C7.83 27.4101 8.64 28.0001 9.52 28.0001C9.69 28.0001 9.86 27.9801 10.04 27.9301L11.97 27.4101C13.03 27.1201 13.67 26.0301 13.38 24.9601L12.59 22.0001H13.72L23.48 27.8601C23.64 27.9601 23.82 28.0001 23.99 28.0001C24.16 28.0001 24.33 27.9601 24.48 27.8701C24.79 27.6901 24.99 27.3601 24.99 27.0001V20.0001H25.03C27.25 20.0001 28.99 18.2101 28.99 15.9201C28.99 13.7601 27.22 12.0001 25.03 12.0001H25.04ZM5 18.0001V14.0001C5 12.9001 5.9 12.0001 7 12.0001H13V20.0001H7C5.9 20.0001 5 19.1001 5 18.0001ZM11.45 25.4801L9.52 26.0001L8.45 22.0001H10.52L11.45 25.4801ZM23 25.2301L15 20.4301V11.5701L23 6.7701V25.2301ZM25.04 18.0001H25V14.0001H25.04C26.25 14.0001 27 15.0001 27 15.9201C27 17.1001 26.16 18.0001 25.04 18.0001Z"/>
</svg>