<svg viewBox="0 0 32 32" xmlns="http://www.w3.org/2000/svg">
<path d="M23.7802 11C26.9602 11 29.6802 13.37 29.9702 16.41V16.42C30.0579 17.3464 29.9293 18.2699 29.609 19.1211L14.0002 19.1211C12.8957 19.1211 12.0002 20.0165 12.0002 21.1211V23H7.99023C4.68023 23 1.99023 20.31 1.99023 17V15C1.99023 11.69 4.68023 9 7.99023 9C7.99023 5.69 10.6802 3 13.9902 3H16.9902C20.3002 3 22.9902 5.69 22.9902 9V11H23.7802Z" fill="black"/>
<path d="M19.3185 21.9889C19.5978 21.4642 20.3129 21 21.3743 21C23.296 21 23.6424 22.4228 23.6424 23.0182V27.1956L25.5199 24.2436L23.6764 21.1211H25.8328L26.749 22.8466L27.6651 21.1211H29.8215L27.978 24.2436L30.0002 27.4H27.8215L26.749 25.6139L25.6764 27.4L21.7877 27.4V23.6539C21.7877 22.7659 21.4525 22.4834 20.8715 22.4834C20.0894 22.4834 19.7431 23.0787 19.7431 23.9566V27.4H17.8996V23.6539C17.8996 22.7659 17.5644 22.4834 16.9834 22.4834C16.2013 22.4834 15.8549 23.0888 15.8549 23.9566V27.4H14.0002V21.1211H15.4751L15.5756 21.8678H15.6091C16.0337 21.2624 16.637 21 17.4079 21C18.3577 21 18.9945 21.444 19.285 21.9889H19.3185Z" fill="black"/>
</svg>