<svg viewBox="0 0 32 32" xmlns="http://www.w3.org/2000/svg">
<path d="M8 11H10V9C10 6.79 11.79 5 14 5H17C19.21 5 21 6.79 21 9V13H24C26.43 13 28 14.57 28 17V18H30V17C30 13.47 27.53 11 24 11H23V9C23 5.69 20.31 3 17 3H14C10.69 3 8 5.69 8 9C4.69 9 2 11.69 2 15V17C2 20.31 4.69 23 8 23H10V21H8C5.79 21 4 19.21 4 17V15C4 12.79 5.79 11 8 11Z" fill="black"/>
<path d="M19.3183 21.9889C19.5976 21.4642 20.3126 21 21.3741 21C23.2958 21 23.6421 22.4228 23.6421 23.0182V27.1956L25.5197 24.2436L23.6762 21.1211H25.8325L26.7487 22.8466L27.6649 21.1211H29.8212L27.9777 24.2436L30 27.4H27.8213L26.7487 25.6139L25.6761 27.4L21.7875 27.4V23.6539C21.7875 22.7659 21.4523 22.4834 20.8713 22.4834C20.0892 22.4834 19.7428 23.0787 19.7428 23.9566V27.4H17.8993V23.6539C17.8993 22.7659 17.5641 22.4834 16.9831 22.4834C16.2011 22.4834 15.8547 23.0888 15.8547 23.9566V27.4H14V21.1211H15.4748L15.5754 21.8678H15.6089C16.0335 21.2624 16.6368 21 17.4077 21C18.3574 21 18.9942 21.444 19.2847 21.9889H19.3183Z" fill="black"/>
</svg>