<svg viewBox="0 0 32 32" xmlns="http://www.w3.org/2000/svg">
<path d="M28 5H4C2.9 5 2 5.9 2 7V25C2 26.1 2.9 27 4 27H28C29.1 27 30 26.1 30 25V7C30 5.9 29.1 5 28 5ZM28 7V10H4V7H28ZM4 25V12H28V25H4Z"/>
<path d="M13.3183 16.9889C13.5976 16.4642 14.3126 16 15.3741 16C17.2958 16 17.6421 17.4228 17.6421 18.0182V22.1956L19.5197 19.2436L17.6762 16.1211H19.8325L20.7487 17.8466L21.6649 16.1211H23.8212L21.9777 19.2436L24 22.4H21.8213L20.7487 20.614L19.6761 22.4L15.7875 22.4V18.6539C15.7875 17.7659 15.4523 17.4834 14.8713 17.4834C14.0892 17.4834 13.7428 18.0787 13.7428 18.9566V22.4H11.8993V18.6539C11.8993 17.7659 11.5641 17.4834 10.9831 17.4834C10.2011 17.4834 9.85468 18.0888 9.85468 18.9566V22.4H8V16.1211H9.47482L9.57537 16.8678H9.60889C10.0335 16.2624 10.6368 16 11.4077 16C12.3574 16 12.9942 16.444 13.2847 16.9889H13.3183Z"/>
</svg>