<svg viewBox="0 0 32 32" xmlns="http://www.w3.org/2000/svg">
<path d="M13.3183 15.8678C13.5976 15.3431 14.3126 14.8789 15.3741 14.8789C17.2958 14.8789 17.6421 16.3017 17.6421 16.8971V21.0745L19.5197 18.1225L17.6762 15H19.8325L20.7487 16.7255L21.6649 15H23.8212L21.9777 18.1225L24 21.2789H21.8213L20.7487 19.4928L19.6761 21.2789L15.7875 21.2789V17.5328C15.7875 16.6448 15.4523 16.3623 14.8713 16.3623C14.0892 16.3623 13.7428 16.9576 13.7428 17.8355V21.2789H11.8993V17.5328C11.8993 16.6448 11.5641 16.3623 10.9831 16.3623C10.2011 16.3623 9.85468 16.9677 9.85468 17.8355V21.2789H8V15H9.47482L9.57537 15.7467H9.60889C10.0335 15.1413 10.6368 14.8789 11.4077 14.8789C12.3574 14.8789 12.9942 15.3229 13.2847 15.8678H13.3183Z"/>
<path fill-rule="evenodd" clip-rule="evenodd" d="M28 5H4C2.9 5 2 5.9 2 7V25C2 26.1 2.9 27 4 27H28C29.1046 27 30 26.1046 30 25V7C30 5.9 29.1 5 28 5ZM28 10H4V25H28V10Z"/>
</svg>