<svg viewBox="0 0 32 32" xmlns="http://www.w3.org/2000/svg">
<path d="M28 5H4C2.9 5 2 5.9 2 7V25C2 26.1 2.9 27 4 27H28C29.1 27 30 26.1 30 25V7C30 5.9 29.1 5 28 5ZM4 25V10H28V25H4Z" fill="black"/>
<path d="M13.3183 15.9889C13.5976 15.4642 14.3126 15 15.3741 15C17.2958 15 17.6421 16.4228 17.6421 17.0182V21.1956L19.5197 18.2436L17.6762 15.1211H19.8325L20.7487 16.8466L21.6649 15.1211H23.8212L21.9777 18.2436L24 21.4H21.8213L20.7487 19.614L19.6761 21.4L15.7875 21.4V17.6539C15.7875 16.7659 15.4523 16.4834 14.8713 16.4834C14.0892 16.4834 13.7428 17.0787 13.7428 17.9566V21.4H11.8993V17.6539C11.8993 16.7659 11.5641 16.4834 10.9831 16.4834C10.2011 16.4834 9.85468 17.0888 9.85468 17.9566V21.4H8V15.1211H9.47482L9.57537 15.8678H9.60889C10.0335 15.2624 10.6368 15 11.4077 15C12.3574 15 12.9942 15.444 13.2847 15.9889H13.3183Z" fill="black"/>
</svg>