<svg viewBox="0 0 32 32" xmlns="http://www.w3.org/2000/svg">
<path d="M13.3183 16.8678C13.5976 16.3431 14.3126 15.8789 15.3741 15.8789C17.2958 15.8789 17.6421 17.3017 17.6421 17.8971V22.0745L19.5197 19.1225L17.6762 16H19.8325L20.7487 17.7255L21.6649 16H23.8212L21.9777 19.1225L24 22.2789H21.8213L20.7487 20.4928L19.6761 22.2789L15.7875 22.2789V18.5328C15.7875 17.6448 15.4523 17.3623 14.8713 17.3623C14.0892 17.3623 13.7428 17.9576 13.7428 18.8355V22.2789H11.8993V18.5328C11.8993 17.6448 11.5641 17.3623 10.9831 17.3623C10.2011 17.3623 9.85468 17.9677 9.85468 18.8355V22.2789H8V16H9.47482L9.57537 16.7467H9.60889C10.0335 16.1413 10.6368 15.8789 11.4077 15.8789C12.3574 15.8789 12.9942 16.3229 13.2847 16.8678H13.3183Z"/>
<path fill-rule="evenodd" clip-rule="evenodd" d="M28 5H4C2.9 5 2 5.9 2 7V25C2 26.1 2.9 27 4 27H28C29.1046 27 30 26.1046 30 25V7C30 5.9 29.1 5 28 5ZM28 12H4V25H28V12ZM28 7V10H4V7H28Z"/>
</svg>