<svg viewBox="0 0 32 32" xmlns="http://www.w3.org/2000/svg">
<path fill-rule="evenodd" clip-rule="evenodd" d="M7.33333 2C4.38781 2 2 4.38782 2 7.33333V24.6667C2 27.6122 4.38782 30 7.33333 30H24.6667C27.6122 30 30 27.6122 30 24.6667V7.33333C30 4.38781 27.6122 2 24.6667 2H7.33333ZM15.3741 18.0002C14.3126 18.0002 13.5976 18.4643 13.3183 18.989H13.2847C12.9942 18.4441 12.3574 18.0002 11.4077 18.0002C10.6368 18.0002 10.0335 18.2625 9.60889 18.8679H9.57537L9.47482 18.1212H8V24.4H9.85468V20.9567C9.85468 20.0889 10.2011 19.4835 10.9831 19.4835C11.5641 19.4835 11.8993 19.766 11.8993 20.654V24.4H13.7428V20.9567C13.7428 20.0788 14.0892 19.4835 14.8713 19.4835C15.4523 19.4835 15.7875 19.766 15.7875 20.654V24.4L19.6761 24.4L20.7487 22.614L21.8213 24.4H24L21.9777 21.2436L23.8212 18.1212H21.6649L20.7487 19.8467L19.8325 18.1212H17.6762L19.5197 21.2436L17.6421 24.1956V20.0183C17.6421 19.4229 17.2958 18.0002 15.3741 18.0002Z" fill="black"/>
</svg>