<svg viewBox="0 0 32 32" xmlns="http://www.w3.org/2000/svg">
<path d="M28.24 18.38C26.94 16.9 25.06 16 23 16C19.56 16 16.66 18.46 16.1 21.84L18.07 22.17C18.47 19.75 20.55 18 23 18C24.52 18 25.9 18.67 26.83 19.79L25.05 21.57C24.89 21.73 25 22 25.23 22H29.76C29.9 22 30.01 21.89 30.01 21.75V17.22C30.01 17 29.74 16.89 29.58 17.04L28.24 18.38Z" fill="black"/>
<path d="M23 28.0001C21.53 28.0001 20.13 27.3401 19.17 26.2101L20.95 24.4301C21.11 24.2701 21 24.0001 20.77 24.0001H16.24C16.1 24.0001 15.99 24.1101 15.99 24.2501V28.7801C15.99 29.0001 16.26 29.1101 16.42 28.9601L17.75 27.6301C19.07 29.1301 20.98 30.0001 23 30.0001C26.44 30.0001 29.34 27.5401 29.91 24.1501L27.94 23.8201C27.54 26.2401 25.46 27.9901 23.01 27.9901L23 28.0001Z" fill="black"/>
<path d="M14.32 20H14.52C15.76 16.51 19.09 14 22.99 14C24.04 14 25.05 14.19 25.99 14.53V3C25.99 2.45 25.54 2 24.99 2H3C2.45 2 2 2.45 2 3V19C2 19.55 2.45 20 3 20H6V25.94L14.32 20Z" fill="black"/>
</svg>