<svg viewBox="0 0 32 32" xmlns="http://www.w3.org/2000/svg">
<path d="M19.05 20H14.32L6 25.94V20H3C2.45 20 2 19.55 2 19V3C2 2.45 2.45 2 3 2H25C25.55 2 26 2.45 26 3V14.04C25.31 14.1 24.66 14.39 24.19 14.86L19.05 20Z" fill="black"/>
<path d="M28.7299 18.08L26.9299 16.28C26.7699 16.12 26.5299 16.02 26.2699 16.02C26.0099 16.02 25.7699 16.11 25.6099 16.27L23.6499 18.23L26.7799 21.36L28.7299 19.4C28.9099 19.22 28.9999 18.99 28.9999 18.74C28.9999 18.49 28.9099 18.26 28.7299 18.08Z" fill="black"/>
<path d="M22.23 19.6499L16 25.8799V28.9999H19.15L25.36 22.7699L22.23 19.6499Z" fill="black"/>
</svg>