<svg viewBox="0 0 32 32" xmlns="http://www.w3.org/2000/svg">
<path d="M14.32 20L6 25.94V20H4C2.9 20 2 19.1 2 18V4C2 2.9 2.9 2 4 2H24C25.1 2 26 2.9 26 4V13H24V4H4V18H8V22.06L13.68 18H18V20H14.32Z"/>
<path fill-rule="evenodd" clip-rule="evenodd" d="M24.89 15.57C25.62 14.84 26.9 14.84 27.63 15.57L29.43 17.37C29.8 17.74 30 18.22 30 18.74C30 19.26 29.8 19.74 29.43 20.11L19.56 30.01H14.99V25.47L24.89 15.57ZM16.99 28H18.73L25.29 21.42L23.54 19.67L16.99 26.29V28ZM24.96 18.25L26.71 20L28.02 18.69L26.22 16.98L24.96 18.25Z"/>
</svg>