<svg viewBox="0 0 32 32" xmlns="http://www.w3.org/2000/svg">
<path d="M27 4H5C4.45 4 4 4.45 4 5V21C4 21.55 4.45 22 5 22H10V26L16 22H27C27.55 22 28 21.55 28 21V5C28 4.45 27.55 4 27 4ZM10.5 15C9.67 15 9 14.33 9 13.5C9 12.67 9.67 12 10.5 12C11.33 12 12 12.67 12 13.5C12 14.33 11.33 15 10.5 15ZM16 15C15.17 15 14.5 14.33 14.5 13.5C14.5 12.67 15.17 12 16 12C16.83 12 17.5 12.67 17.5 13.5C17.5 14.33 16.83 15 16 15ZM21.5 15C20.67 15 20 14.33 20 13.5C20 12.67 20.67 12 21.5 12C22.33 12 23 12.67 23 13.5C23 14.33 22.33 15 21.5 15Z" fill="black"/>
</svg>