<svg viewBox="0 0 32 32" xmlns="http://www.w3.org/2000/svg">
<path d="M14.52 20H14.32L6 25.94V20H3C2.45 20 2 19.55 2 19V3C2 2.45 2.45 2 3 2H24.99C25.54 2 25.99 2.45 25.99 3V14.53C25.05 14.19 24.04 14 22.99 14C19.09 14 15.76 16.51 14.52 20Z" fill="black"/>
<path fill-rule="evenodd" clip-rule="evenodd" d="M16 23C16 19.14 19.14 16 23 16C26.86 16 30 19.14 30 23C30 26.86 26.86 30 23 30C19.14 30 16 26.86 16 23ZM23 18C20.24 18 18 20.24 18 23L18.01 22.99C18.01 24.07 18.36 25.06 18.94 25.88L25.89 18.93C25.07 18.35 24.08 18 23 18ZM20.4 27.25C21.16 27.72 22.04 28 23 28C25.76 28 28 25.76 28 23C28 22.05 27.72 21.16 27.25 20.4L20.4 27.25Z" fill="black"/>
</svg>