<svg viewBox="0 0 32 32" xmlns="http://www.w3.org/2000/svg">
<path d="M5.99976 19.9998V25.9398L13.9998 19.9998V17.9998H13.6798L7.99976 22.0598V17.9998H3.99976V3.99976H23.9998V12.9998H25.9998V3.99976C25.9998 2.89976 25.0998 1.99976 23.9998 1.99976H3.99976C2.89976 1.99976 1.99976 2.89976 1.99976 3.99976V17.9998C1.99976 19.0998 2.89976 19.9998 3.99976 19.9998H5.99976Z"/>
<path d="M28.2399 18.3801C26.9399 16.9001 25.0599 16.0001 22.9999 16.0001C19.5599 16.0001 16.6599 18.4601 16.0999 21.8401L18.0699 22.1701C18.4699 19.7501 20.5499 18.0001 22.9999 18.0001C24.5199 18.0001 25.8999 18.6701 26.8299 19.7901L25.0499 21.5701C24.8899 21.7301 24.9999 22.0001 25.2299 22.0001H29.7599C29.8999 22.0001 30.0099 21.8901 30.0099 21.7501V17.2201C30.0099 17.0001 29.7399 16.8901 29.5799 17.0401L28.2399 18.3801Z"/>
<path d="M22.9999 28.0002C21.5299 28.0002 20.1299 27.3401 19.1699 26.2101L20.9499 24.4302C21.1099 24.2702 20.9999 24.0002 20.7699 24.0002H16.2399C16.0999 24.0002 15.9899 24.1102 15.9899 24.2502V28.7802C15.9899 29.0002 16.2599 29.1101 16.4199 28.9601L17.7499 27.6301C19.0699 29.1301 20.9799 30.0002 22.9999 30.0002C26.4399 30.0002 29.3399 27.5401 29.9099 24.1502L27.9399 23.8202C27.5399 26.2402 25.4599 27.9902 23.0099 27.9902L22.9999 28.0002Z"/>
</svg>