<svg viewBox="0 0 32 32" xmlns="http://www.w3.org/2000/svg">
<path d="M18.29 16.88L16.88 18.29C16.41 18.76 16.23 19.4 16.32 20H14.32L6 25.94V20H3C2.45 20 2 19.55 2 19V3C2 2.45 2.45 2 3 2H24.98C25.53 2 25.98 2.45 25.98 3V17.76L24.69 19.05C24.3 19.44 23.67 19.44 23.28 19.05L21.11 16.88C20.72 16.49 20.21 16.29 19.7 16.29C19.19 16.29 18.68 16.49 18.29 16.88Z" fill="black"/>
<path d="M18.29 19.71L19.71 18.29L24 22.59L28.29 18.29L29.71 19.71L25.41 24L29.71 28.29L28.29 29.71L24 25.41L19.71 29.71L18.29 28.29L22.59 24L18.29 19.71Z" fill="black"/>
</svg>