<svg viewBox="0 0 32 32" xmlns="http://www.w3.org/2000/svg">
<path fill-rule="evenodd" clip-rule="evenodd" d="M4.67211 24.6721C4.28371 25.0605 4 25.7473 4 27H12C12 25.7473 11.7163 25.0605 11.3279 24.6721C10.9395 24.2837 10.2527 24 9 24H7C5.74726 24 5.0605 24.2837 4.67211 24.6721ZM3.25789 23.2579C4.1795 22.3363 5.49274 22 7 22H9C10.5073 22 11.8205 22.3363 12.7421 23.2579C13.6637 24.1795 14 25.4927 14 27V29H2V27C2 25.4927 2.33629 24.1795 3.25789 23.2579Z"/>
<path fill-rule="evenodd" clip-rule="evenodd" d="M20.6721 24.6721C20.2837 25.0605 20 25.7473 20 27H28C28 25.7473 27.7163 25.0605 27.3279 24.6721C26.9395 24.2837 26.2527 24 25 24H23C21.7473 24 21.0605 24.2837 20.6721 24.6721ZM19.2579 23.2579C20.1795 22.3363 21.4927 22 23 22H25C26.5073 22 27.8205 22.3363 28.7421 23.2579C29.6637 24.1795 30 25.4927 30 27V29H18V27C18 25.4927 18.3363 24.1795 19.2579 23.2579Z"/>
<path fill-rule="evenodd" clip-rule="evenodd" d="M7.66667 14C7.40595 14 7 14.2778 7 14.875V17.125C7 17.7222 7.40595 18 7.66667 18H8.33333C8.59405 18 9 17.7222 9 17.125V14.875C9 14.2778 8.59405 14 8.33333 14H7.66667ZM5 14.875C5 13.4012 6.08643 12 7.66667 12H8.33333C9.91357 12 11 13.4012 11 14.875V17.125C11 18.5988 9.91357 20 8.33333 20H7.66667C6.08643 20 5 18.5988 5 17.125V14.875Z"/>
<path fill-rule="evenodd" clip-rule="evenodd" d="M23.6667 14C23.4059 14 23 14.2778 23 14.875V17.125C23 17.7222 23.4059 18 23.6667 18H24.3333C24.5941 18 25 17.7222 25 17.125V14.875C25 14.2778 24.5941 14 24.3333 14H23.6667ZM21 14.875C21 13.4012 22.0864 12 23.6667 12H24.3333C25.9136 12 27 13.4012 27 14.875V17.125C27 18.5988 25.9136 20 24.3333 20H23.6667C22.0864 20 21 18.5988 21 17.125V14.875Z"/>
<path d="M16 14C16.5523 14 17 13.5523 17 13C17 12.4477 16.5523 12 16 12C15.4477 12 15 12.4477 15 13C15 13.5523 15.4477 14 16 14Z"/>
<path fill-rule="evenodd" clip-rule="evenodd" d="M15 6.00099C15 6.00099 15 6 14 6C13 6 13 5.99896 13 5.99896L13 5.99787L13 5.99555L13 5.99032L13.0002 5.97753C13.0004 5.968 13.0006 5.95643 13.0011 5.94298C13.002 5.91609 13.0037 5.88146 13.0068 5.84016C13.0129 5.7579 13.0246 5.64719 13.047 5.51711C13.0912 5.26153 13.1815 4.90627 13.3717 4.53953C13.5644 4.16812 13.8671 3.77174 14.3348 3.47121C14.807 3.1678 15.3886 3 16.075 3C16.9043 3 17.5982 3.22367 18.115 3.68029C18.623 4.12909 18.8463 4.70291 18.9381 5.18964C19.0291 5.67234 19.0036 6.12911 18.9638 6.44509C18.9434 6.60751 18.9177 6.74395 18.8965 6.84258C18.8858 6.89211 18.8761 6.93274 18.8685 6.96303C18.8647 6.9782 18.8614 6.99082 18.8587 7.00074L18.8552 7.01358L18.8539 7.01845L18.8533 7.02049C18.8533 7.02049 18.8528 7.02226 17.8906 6.75L18.8528 7.02226L18.7546 7.3692L17.075 8.52561V10H15.075V7.47439L16.9836 6.16032C17.0052 5.96908 17.0091 5.75322 16.9728 5.56036C16.9349 5.35959 16.8664 5.24591 16.7908 5.17908C16.724 5.12008 16.5425 5 16.075 5C15.7238 5 15.5274 5.0822 15.416 5.15379C15.3001 5.22826 15.2138 5.33188 15.147 5.46047C15.0779 5.59373 15.0384 5.73847 15.0178 5.85789C15.0079 5.91531 15.0033 5.96085 15.0013 5.98797C15.0003 6.00135 15 6.00969 14.9999 6.0121L15 6.00678L15 6.00372L15 6.00099Z"/>
</svg>