<svg viewBox="0 0 32 32" xmlns="http://www.w3.org/2000/svg">
<path d="M6.8 22H9.2C12.512 22 14 23.488 14 26.8V28H2V26.8C2 23.488 3.488 22 6.8 22Z" fill="black"/>
<path d="M22.8 22H25.2C28.512 22 30 23.488 30 26.8V28H18V26.8C18 23.488 19.488 22 22.8 22Z" fill="black"/>
<path d="M8.5 12H7.5C6.11929 12 5 13.1193 5 14.5V17.5C5 18.8807 6.11929 20 7.5 20H8.5C9.88071 20 11 18.8807 11 17.5V14.5C11 13.1193 9.88071 12 8.5 12Z" fill="black"/>
<path d="M24.5 12H23.5C22.1193 12 21 13.1193 21 14.5V17.5C21 18.8807 22.1193 20 23.5 20H24.5C25.8807 20 27 18.8807 27 17.5V14.5C27 13.1193 25.8807 12 24.5 12Z" fill="black"/>
<path d="M16 14C16.5523 14 17 13.5523 17 13C17 12.4477 16.5523 12 16 12C15.4477 12 15 12.4477 15 13C15 13.5523 15.4477 14 16 14Z" fill="black"/>
<path fill-rule="evenodd" clip-rule="evenodd" d="M15 6.00099C15 6.00099 15 6 14 6C13 6 13 5.99896 13 5.99896L13 5.99787L13 5.99555L13 5.99032L13.0002 5.97753C13.0004 5.968 13.0006 5.95643 13.0011 5.94298C13.002 5.91609 13.0037 5.88146 13.0068 5.84016C13.0129 5.7579 13.0246 5.64719 13.047 5.51711C13.0912 5.26153 13.1815 4.90627 13.3717 4.53953C13.5644 4.16812 13.8671 3.77174 14.3348 3.47121C14.807 3.1678 15.3886 3 16.075 3C16.9043 3 17.5982 3.22367 18.115 3.68029C18.623 4.12909 18.8463 4.70291 18.9381 5.18964C19.0291 5.67234 19.0036 6.12911 18.9638 6.44509C18.9434 6.60751 18.9177 6.74395 18.8965 6.84258C18.8858 6.89211 18.8761 6.93274 18.8685 6.96303C18.8647 6.9782 18.8614 6.99082 18.8587 7.00074L18.8552 7.01358L18.8539 7.01845L18.8533 7.02049C18.8533 7.02049 18.8528 7.02226 17.8906 6.75L18.8528 7.02226L18.7546 7.3692L17.075 8.52561V10H15.075V7.47439L16.9836 6.16032C17.0052 5.96908 17.0091 5.75322 16.9728 5.56036C16.9349 5.35959 16.8664 5.24591 16.7908 5.17908C16.724 5.12008 16.5425 5 16.075 5C15.7238 5 15.5274 5.0822 15.416 5.15379C15.3001 5.22826 15.2138 5.33188 15.147 5.46047C15.0779 5.59373 15.0384 5.73847 15.0178 5.85789C15.0079 5.91531 15.0033 5.96085 15.0013 5.98797C15.0003 6.00135 15 6.00969 14.9999 6.0121L15 6.00678L15 6.00372L15 6.00099Z" fill="black"/>
</svg>