<svg viewBox="0 0 32 32" xmlns="http://www.w3.org/2000/svg">
<path fill-rule="evenodd" clip-rule="evenodd" d="M9 4H29C29.55 4 30 4.45 30 5V21C30 21.55 29.55 22 29 22H9C8.45 22 8 21.55 8 21V5C8 4.45 8.45 4 9 4ZM24.8 14.2L26.21 12.79L24.42 11L26.21 9.21L24.8 7.8L23.01 9.59L21.22 7.8L19.81 9.21L21.6 11L19.81 12.79L21.22 14.2L23.01 12.41L24.8 14.2Z" fill="black"/>
<path d="M23 28H3C2.45 28 2 27.55 2 27V11C2 10.45 2.45 10 3 10H6V22C6 23.1 6.9 24 8 24H24V27C24 27.55 23.55 28 23 28Z" fill="black"/>
</svg>