<svg viewBox="0 0 32 32" xmlns="http://www.w3.org/2000/svg">
<path d="M23 9.59004L24.79 7.79004L26.21 9.21004L24.41 11L26.21 12.79L24.79 14.21L23 12.41L21.21 14.21L19.79 12.79L21.59 11L19.79 9.21004L21.21 7.79004L23 9.59004Z"/>
<path fill-rule="evenodd" clip-rule="evenodd" d="M28 4H10C8.9 4 8 4.9 8 6V20C8 21.1 8.9 22 10 22H28C29.1 22 30 21.1 30 20V6C30 4.9 29.1 4 28 4ZM10 20V6H28V20H10Z"/>
<path d="M4 28H22C23.1 28 24 27.1 24 26V24H22V26H4V12H6V10H4C2.9 10 2 10.9 2 12V26C2 27.1 2.9 28 4 28Z"/>
</svg>