<svg viewBox="0 0 32 32" xmlns="http://www.w3.org/2000/svg">
<path fill-rule="evenodd" clip-rule="evenodd" d="M3.15 7H24.85C25.4851 7 26 7.52233 26 8.16667V14C23.5667 14 21.4717 15.4485 20.5303 17.5303C18.4485 18.4717 17 20.5667 17 23H3.15C2.51487 23 2 22.4777 2 21.8333V8.16667C2 7.52233 2.51487 7 3.15 7ZM14 17C15.1046 17 16 16.1046 16 15C16 13.8954 15.1046 13 14 13C12.8954 13 12 13.8954 12 15C12 16.1046 12.8954 17 14 17Z" fill="black"/>
<path fill-rule="evenodd" clip-rule="evenodd" d="M23 21C21.8954 21 21 21.8954 21 23C21 24.1046 21.8954 25 23 25C24.1046 25 25 24.1046 25 23C25 21.8954 24.1046 21 23 21ZM19 23C19 20.7909 20.7909 19 23 19C25.2091 19 27 20.7909 27 23C27 25.2091 25.2091 27 23 27C20.7909 27 19 25.2091 19 23Z" fill="black"/>
<path fill-rule="evenodd" clip-rule="evenodd" d="M26 18C25.8258 18 25.6582 18.022 25.4993 18.063C25.3227 18.1084 25.1553 18.1775 25.0007 18.267L23.9993 16.5357C24.3089 16.3566 24.6452 16.2176 25.0007 16.1261C25.3212 16.0436 25.6562 16 26 16C28.2091 16 30 17.7909 30 20C30 20.3438 29.9564 20.6788 29.8739 20.9993C29.7824 21.3548 29.6434 21.6911 29.4643 22.0007L27.733 20.9993C27.8225 20.8447 27.8916 20.6773 27.937 20.5007C27.978 20.3418 28 20.1742 28 20C28 18.8954 27.1046 18 26 18Z" fill="black"/>
</svg>