<svg viewBox="0 0 32 32" xmlns="http://www.w3.org/2000/svg">
<path fill-rule="evenodd" clip-rule="evenodd" d="M18 10H14C9.18794 11.8045 6 16.4047 6 21.544V27.9881C6 29.0992 6.90075 30 8.01189 30H24.3015C25.2396 30 26 29.2396 26 28.3015V21.544C26 16.4047 22.8121 11.8045 18 10ZM14.3792 12C10.5287 13.5926 8 17.3545 8 21.544V27.9881L8.00015 27.9917C8.00015 27.9917 8.00111 27.9941 8.00348 27.9965C8.00546 27.9985 8.00763 27.9998 8.00763 27.9998L8.01189 28H24V21.544C24 17.3545 21.4713 13.5926 17.6208 12H14.3792Z"/>
<path fill-rule="evenodd" clip-rule="evenodd" d="M10.6464 4.56066C9.70149 3.61571 10.3708 2 11.7071 2H20.2929C21.6293 2 22.2985 3.61571 21.3536 4.56066L17.9142 8H14.0858L10.6464 4.56066ZM12.9142 4L14.9142 6H17.0858L19.0858 4H12.9142Z"/>
<path fill-rule="evenodd" clip-rule="evenodd" d="M14.51 17.02C14.2323 17.02 14 17.2523 14 17.53V18.59C14 18.6523 14.0308 18.7653 14.1342 18.885C14.2385 19.0057 14.3566 19.063 14.4289 19.0761L14.4452 19.0791L14.4613 19.0826C14.4639 19.0831 14.4767 19.0855 14.5029 19.0897C14.5325 19.0945 14.5712 19.1003 14.6195 19.1071C14.716 19.1207 14.8397 19.1367 14.9852 19.1547C15.2702 19.19 15.6238 19.2311 15.9938 19.274L16.038 19.2792C16.7684 19.3639 17.5883 19.4591 17.969 19.5244C19.1791 19.7318 20 20.834 20 21.94V23.49C20 24.1974 19.6621 24.8222 19.2159 25.2531C18.7666 25.687 18.1311 26 17.42 26H14.51C13.1277 26 12 24.8723 12 23.49V23H14V23.49C14 23.7677 14.2323 24 14.51 24H17.42C17.5389 24 17.6934 23.943 17.8266 23.8144C17.9629 23.6828 18 23.5526 18 23.49V21.94C18 21.746 17.8209 21.5282 17.631 21.4956C17.3154 21.4415 16.5577 21.3529 15.7859 21.2633C15.7429 21.2583 15.6995 21.2533 15.656 21.2482C15.0009 21.1723 14.3085 21.092 14.0579 21.0414C13.4758 20.932 12.9738 20.6012 12.6208 20.1925C12.2642 19.7796 12 19.2177 12 18.59V17.53C12 16.1477 13.1277 15.02 14.51 15.02L17 15.02C18.3823 15.02 19.51 16.1477 19.51 17.53V18H17.51V17.53C17.51 17.2523 17.2777 17.02 17 17.02L14.51 17.02L14.51 16.02L14.51 17.02Z"/>
<path fill-rule="evenodd" clip-rule="evenodd" d="M17 14V16H15V14H17Z"/>
<path fill-rule="evenodd" clip-rule="evenodd" d="M17 25V27H15V25H17Z"/>
</svg>