<svg viewBox="0 0 32 32" xmlns="http://www.w3.org/2000/svg">
<path d="M20.9597 3H11.0403C10.6211 3 10.388 3.48497 10.6499 3.81235L14 8H18L21.3501 3.81235C21.612 3.48497 21.3789 3 20.9597 3Z" fill="black"/>
<path fill-rule="evenodd" clip-rule="evenodd" d="M24.3015 30C25.2396 30 26 29.2396 26 28.3015V21.544C26 16.4047 22.8121 11.8045 18 10H14C9.18794 11.8045 6 16.4047 6 21.544L6 27.9881C6 29.0992 6.90076 30 8.01189 30L24.3015 30ZM14 15C12.8954 15 12 15.8954 12 17V18.8057C12 19.7834 12.7068 20.6178 13.6712 20.7785L17.5822 21.4304C17.8233 21.4705 18 21.6791 18 21.9236L18 23.5C18 23.7761 17.7761 24 17.5 24H14.5C14.2239 24 14 23.7761 14 23.5V23H12V24C12 25.1046 12.8954 26 14 26H15V27H17V26H18C19.1046 26 20 25.1046 20 24L20 21.6943C20 20.7166 19.2932 19.8822 18.3288 19.7215L14.4178 19.0696C14.1767 19.0295 14 18.8209 14 18.5764V17.5C14 17.2239 14.2239 17 14.5 17H17C17.2761 17 17.5 17.2239 17.5 17.5V18H19.5V17C19.5 15.8954 18.6046 15 17.5 15H17V14H15L15 15H14Z" fill="black"/>
</svg>