<svg viewBox="0 0 32 32" xmlns="http://www.w3.org/2000/svg">
<path fill-rule="evenodd" clip-rule="evenodd" d="M14 16C14.5523 16 15 15.5523 15 15C15 14.4477 14.5523 14 14 14C13.4477 14 13 14.4477 13 15C13 15.5523 13.4477 16 14 16ZM14 18C15.6569 18 17 16.6569 17 15C17 13.3431 15.6569 12 14 12C12.3431 12 11 13.3431 11 15C11 16.6569 12.3431 18 14 18Z"/>
<path fill-rule="evenodd" clip-rule="evenodd" d="M23 21C21.8954 21 21 21.8954 21 23C21 24.1046 21.8954 25 23 25C24.1046 25 25 24.1046 25 23C25 21.8954 24.1046 21 23 21ZM19 23C19 20.7909 20.7909 19 23 19C25.2091 19 27 20.7909 27 23C27 25.2091 25.2091 27 23 27C20.7909 27 19 25.2091 19 23Z"/>
<path fill-rule="evenodd" clip-rule="evenodd" d="M4.15 9C4.08067 9 4 9.06101 4 9.16667V20.8333C4 20.939 4.08067 21 4.15 21H17V23H4.15C2.94907 23 2 22.0163 2 20.8333V9.16667C2 7.98366 2.94907 7 4.15 7H23.85C25.0509 7 26 7.98366 26 9.16667V14H24V9.16667C24 9.061 23.9193 9 23.85 9H4.15Z"/>
<path fill-rule="evenodd" clip-rule="evenodd" d="M26 18C25.8258 18 25.6582 18.022 25.4993 18.063C25.3227 18.1084 25.1553 18.1775 25.0007 18.267L23.9993 16.5357C24.3089 16.3566 24.6452 16.2176 25.0007 16.1261C25.3212 16.0436 25.6562 16 26 16C28.2091 16 30 17.7909 30 20C30 20.3438 29.9564 20.6788 29.8739 20.9993C29.7824 21.3548 29.6434 21.6911 29.4643 22.0007L27.733 20.9993C27.8225 20.8447 27.8916 20.6773 27.937 20.5007C27.978 20.3418 28 20.1742 28 20C28 18.8954 27.1046 18 26 18Z"/>
</svg>