<svg viewBox="0 0 32 32" xmlns="http://www.w3.org/2000/svg">
<path d="M12 10H18V16H12V10Z" fill="black"/>
<path fill-rule="evenodd" clip-rule="evenodd" d="M4 4H28C28.55 4 29 4.45 29 5V21C29 21.55 28.55 22 28 22H17V26H24V28H8V26H15V22H4C3.45 22 3 21.55 3 21V5C3 4.45 3.45 4 4 4ZM22.3 15.7C22.63 15.84 23 15.6 23 15.24V10.78C23 10.42 22.63 10.18 22.3 10.32L20 11.31V10.01C20 8.91 19.1 8.01 18 8.01H12C10.9 8.01 10 8.91 10 10.01V16.01C10 17.11 10.9 18.01 12 18.01H18C19.1 18.01 20 17.11 20 16.01V14.71L22.3 15.7Z" fill="black"/>
</svg>