<svg viewBox="0 0 32 32" xmlns="http://www.w3.org/2000/svg">
<path d="M19 11V15.36C16.52 15.95 13.48 15.95 11 15.36V11H19Z" fill="black"/>
<path fill-rule="evenodd" clip-rule="evenodd" d="M3.88989 4H27.8899C28.4399 4 28.8899 4.45 28.8899 5V21C28.8899 21.55 28.4399 22 27.8899 22H16.8899V26H23.8899V28H7.88989V26H14.8899V22H3.88989C3.33989 22 2.88989 21.55 2.88989 21V5C2.88989 4.45 3.33989 4 3.88989 4ZM24.9999 14V9H6.99989V11H8.99989V16.87L9.70989 17.08C11.3199 17.56 13.1599 17.8 14.9999 17.8C16.8399 17.8 18.6799 17.56 20.2899 17.08L20.9999 16.87V11H22.9999V14H24.9999Z" fill="black"/>
</svg>