<svg viewBox="0 0 32 32" xmlns="http://www.w3.org/2000/svg">
<path d="M24 12C24 12 23 12 23 13C23 13.53 22.55 14 22 14C20.9 14 20 14.9 20 16V20H16V24H20V26H7V24H14V20H3C2.45 20 2 19.55 2 19V3C2 2.45 2.45 2 3 2H27C27.55 2 28 2.45 28 3V12H24Z" fill="black"/>
<path d="M27 16H27.32C28.8 16 30 17.2 30 18.68V20H28V18.68C28 18.31 27.69 18 27.32 18H24.68C24.31 18 24 18.31 24 18.68V19.86C24 20.13 24.29 20.46 24.57 20.51C24.772 20.5585 25.2481 20.6265 25.7874 20.7036C25.9156 20.7219 26.0475 20.7408 26.18 20.76C26.82 20.85 27.47 20.95 27.84 21.01C29.08 21.23 30.01 22.34 30.01 23.59V25.32C30.01 26.75 28.73 28 27.26 28H27.01V30H25.01V28H24.69C23.21 28 22.01 26.8 22.01 25.32V25H24.01V25.32C24.01 25.69 24.32 26 24.69 26H27.25C27.63 26 28 25.62 28 25.32V23.59C28 23.34 27.79 23.03 27.49 22.98C27.2146 22.9341 26.7813 22.8707 26.3197 22.8031C26.1779 22.7823 26.0334 22.7612 25.89 22.74C25.13 22.63 24.4 22.52 24.17 22.47C22.97 22.25 22 21.1 22 19.86V18.68C22 17.2 23.2 16 24.68 16H25V14H27V16Z" fill="black"/>
</svg>