<svg viewBox="0 0 32 32" xmlns="http://www.w3.org/2000/svg">
<path fill-rule="evenodd" clip-rule="evenodd" d="M20 11.29L22.3 10.3V10.28C22.63 10.14 23 10.38 23 10.74V15.22C23 15.58 22.63 15.82 22.3 15.68L20 14.69V15.99C20 17.09 19.1 17.99 18 17.99H12C10.9 17.99 10 17.09 10 15.99V9.98999C10 8.88999 10.9 7.98999 12 7.98999H18C19.1 7.98999 20 8.88999 20 9.98999V11.29ZM12 9.99999V16H18V9.99999H12Z"/>
<path fill-rule="evenodd" clip-rule="evenodd" d="M5 4H27C28.1 4 29 4.9 29 6V20C29 21.1 28.1 22 27 22H17V26H24V28H8V26H15V22H5C3.9 22 3 21.1 3 20V6C3 4.9 3.9 4 5 4ZM5 6V20H27V6H5Z"/>
</svg>