<svg viewBox="0 0 32 32" xmlns="http://www.w3.org/2000/svg">
<path d="M11 6.21997V21H7C4.79 21 3 22.79 3 25V26C3 28.21 4.79 30 7 30H9C11.21 30 13 28.21 13 26V12.78L27 9.27997V16H23C20.79 16 19 17.79 19 20V21.01C19 23.21 20.79 25 22.99 25H25C27.21 25 29 23.21 29 21V1.71997L11 6.21997ZM11 26C11 27.1 10.1 28 9 28H7C5.9 28 5 27.1 5 26V25C5 23.9 5.9 23 7 23H11V26ZM27 21C27 22.1 26.1 23 25 23H22.99C21.89 23 21 22.11 21 21.01V20C21 18.9 21.9 18 23 18H27V21ZM13 10.72V7.77997L27 4.27997V7.21997L13 10.72Z"/>
</svg>