<svg viewBox="0 0 32 32" xmlns="http://www.w3.org/2000/svg">
<path d="M20 26H4C2.9 26 2 25.1 2 24V8C2 6.9 2.9 6 4 6H20C21.1 6 22 6.9 22 8V10H20V8H4V24H20V20H22V24C22 25.1 21.1 26 20 26Z"/>
<path d="M23.6796 13.9592L23.7499 13.96V13.95C24.3299 13.96 24.9399 13.97 25.5699 13.97L23.2899 11.69L24.6999 10.28L29.4099 14.99L24.6999 19.7L23.2899 18.29L25.5999 15.98C25.2684 15.98 24.9421 15.9748 24.6224 15.9697C24.3151 15.9648 24.0139 15.96 23.7199 15.96C18.5499 15.89 15.1399 15.85 13.8399 17.14C13.4899 17.49 13.0299 18.17 13.0299 20H11.0299C11.0199 18.04 11.4699 16.68 12.4399 15.72C14.3224 13.8476 17.8515 13.8897 23.6796 13.9592Z"/>
</svg>