<svg viewBox="0 0 32 32" xmlns="http://www.w3.org/2000/svg">
<path fill-rule="evenodd" clip-rule="evenodd" d="M2 6C2 4.89543 2.89543 4 4 4H24C25.1046 4 26 4.89543 26 6V28H4C2.89543 28 2 27.1046 2 26V6ZM24 6H4V26H24V6Z"/>
<path fill-rule="evenodd" clip-rule="evenodd" d="M18 24H6V22H18V24Z"/>
<path fill-rule="evenodd" clip-rule="evenodd" d="M22 20H6V18H22V20Z"/>
<path fill-rule="evenodd" clip-rule="evenodd" d="M20 10H8V14H20V10ZM6 8V16H22V8H6Z"/>
<path fill-rule="evenodd" clip-rule="evenodd" d="M28 18H26V26C27.1046 26 28 25.1046 28 24V18ZM24 16V28H26C28.2091 28 30 26.2091 30 24V16H24Z"/>
</svg>