<svg viewBox="0 0 32 32" xmlns="http://www.w3.org/2000/svg">
<path d="M11 28H6C4.9 28 4 27.1 4 26V4C4 2.9 4.9 2 6 2H22C23.1 2 24 2.9 24 4V13H22V4H6V26H11V28Z" fill="black"/>
<path d="M20 8H8V10H20V8Z" fill="black"/>
<path d="M8 12H16V14H8V12Z" fill="black"/>
<path d="M20.28 18.8899L13.5 25.6699V29.4999H17.36L24.11 22.7299L20.28 18.8899Z" fill="black"/>
<path d="M25.28 15.9199L27.08 17.7199C27.35 17.9899 27.5 18.3399 27.5 18.7299C27.5 19.1199 27.35 19.4799 27.08 19.7499L25.52 21.3099L21.69 17.4799L23.25 15.9199C23.79 15.3799 24.74 15.3799 25.28 15.9199Z" fill="black"/>
</svg>