<svg viewBox="0 0 32 32" xmlns="http://www.w3.org/2000/svg">
<path d="M24 13H18V15H24V13Z"/>
<path d="M18 21H24V23H18V21Z"/>
<path d="M11.4 13.5899L9.71 11.8899L8.29 13.3099L11.4 16.4099L15.71 12.1099L14.29 10.6899L11.4 13.5899Z"/>
<path d="M9.71 19.8899L11.4 21.5899L14.29 18.6899L15.71 20.1099L11.4 24.4099L8.29 21.3099L9.71 19.8899Z"/>
<path fill-rule="evenodd" clip-rule="evenodd" d="M26 5H22V3H20V5H12V3H10V5H6C4.9 5 4 5.9 4 7V27C4 28.1 4.9 29 6 29H26C27.1 29 28 28.1 28 27V7C28 5.9 27.1 5 26 5ZM6 27V7H10V9H12V7H20V9H22V7H26V27H6Z"/>
</svg>