<svg viewBox="0 0 32 32" xmlns="http://www.w3.org/2000/svg">
<path d="M24 12H16V14H24V12Z"/>
<path d="M16 20H24V22H16V20Z"/>
<path d="M10.4 12.5899L8.70998 10.8899L7.28998 12.3099L10.4 15.4099L14.71 11.1099L13.29 9.68994L10.4 12.5899Z"/>
<path d="M8.70998 18.8899L10.4 20.5899L13.29 17.6899L14.71 19.1099L10.4 23.4099L7.28998 20.3099L8.70998 18.8899Z"/>
<path fill-rule="evenodd" clip-rule="evenodd" d="M26 4H6C4.9 4 4 4.9 4 6V26C4 27.1 4.9 28 6 28H26C27.1 28 28 27.1 28 26V6C28 4.9 27.1 4 26 4ZM6 26V6H26V26H6Z"/>
</svg>