<svg viewBox="0 0 32 32" xmlns="http://www.w3.org/2000/svg">
<path d="M29.2002 19H26.2002V16C26.2002 15.45 25.7502 15 25.2002 15H17.2002V13H21.2002C21.7502 13 22.2002 12.55 22.2002 12V4C22.2002 3.45 21.7502 3 21.2002 3H11.2002C10.6502 3 10.2002 3.45 10.2002 4V12C10.2002 12.55 10.6502 13 11.2002 13H15.2002V15H7.2002C6.6502 15 6.2002 15.45 6.2002 16V19H3.2002C2.6502 19 2.2002 19.45 2.2002 20V28C2.2002 28.55 2.6502 29 3.2002 29H11.2002C11.7502 29 12.2002 28.55 12.2002 28V20C12.2002 19.45 11.7502 19 11.2002 19H8.2002V17H24.2002V19H21.2002C20.6502 19 20.2002 19.45 20.2002 20V28C20.2002 28.55 20.6502 29 21.2002 29H29.2002C29.7502 29 30.2002 28.55 30.2002 28V20C30.2002 19.45 29.7502 19 29.2002 19Z" fill="black"/>
</svg>