<svg viewBox="0 0 32 32" xmlns="http://www.w3.org/2000/svg">
<path fill-rule="evenodd" clip-rule="evenodd" d="M12 2C10.8954 2 10 2.89543 10 4V10C10 11.1046 10.8954 12 12 12H15V16H6V20H4C2.89543 20 2 20.8954 2 22V28C2 29.1046 2.89543 30 4 30H10C11.1046 30 12 29.1046 12 28V22C12 20.8954 11.1046 20 10 20H8V18H24V20H22C20.8954 20 20 20.8954 20 22V28C20 29.1046 20.8954 30 22 30H28C29.1046 30 30 29.1046 30 28V22C30 20.8954 29.1046 20 28 20H26V16H17V12H20C21.1046 12 22 11.1046 22 10V4C22 2.89543 21.1046 2 20 2H12ZM12 4H20V10H12V4ZM22 22H28V28H22V22ZM10 22H4V28H10V22Z"/>
</svg>