<svg viewBox="0 0 32 32" xmlns="http://www.w3.org/2000/svg">
<path d="M16.39 6.39C19.36 3.43 22.55 3.22 25.16 5.83C26.36 7.03 26.99 8.4 26.99 9.79C26.99 11.39 26.18 13.01 24.6 14.6L12.73 26.47C10.33 28.87 8.47004 28.01 7.33004 26.87C6.81004 26.35 6.20004 25.52 6.20004 24.47C6.20004 23.49 6.72004 22.48 7.73004 21.47L19.6 9.6C20.27 8.94 21.21 8.3 21.96 9.04C22.21 9.29 22.32 9.57 22.29 9.88C22.25 10.33 21.94 10.85 21.4 11.38L10.3 22.28L11.7 23.71L22.81 12.8C23.7 11.91 24.19 10.99 24.28 10.06C24.36 9.15 24.04 8.29 23.37 7.62C22.3 6.55 20.31 6.06 18.19 8.18L6.32004 20.05C4.91004 21.46 4.20004 22.94 4.20004 24.47C4.20004 25.84 4.79004 27.16 5.92004 28.28C6.91004 29.27 8.25004 29.99 9.76004 29.99C11.13 29.99 12.64 29.4 14.16 27.88L26.03 16.01C28.01 14.03 29.01 11.94 29.01 9.79C29.01 7.85 28.17 5.99 26.59 4.41C23.92 1.74 19.47 0.489997 14.99 4.97L3.29004 16.66L4.70004 18.07L16.39 6.39Z"/>
</svg>