<svg viewBox="0 0 32 32" xmlns="http://www.w3.org/2000/svg">
<path d="M25.39 4.09L5.32999 10.72C4.58999 10.97 4.06999 11.6 3.96999 12.38C3.87999 13.16 4.22999 13.9 4.89999 14.31L12.74 19.19L17.58 27.07C17.95 27.67 18.58 28.02 19.28 28.02C19.36 28.02 19.44 28.02 19.51 28.01C20.29 27.92 20.93 27.4 21.18 26.66L27.91 6.62C28.15 5.9 27.97 5.11 27.43 4.57C26.89 4.03 26.11 3.84 25.39 4.08V4.09ZM5.95999 12.62L5.42999 13.47L5.95999 12.62L23.9 6.69L13.32 17.21L5.95999 12.63V12.62ZM19.29 26.03L14.73 18.62L25.3 8.11L19.28 26.03H19.29Z"/>
</svg>