<svg viewBox="0 0 32 32" xmlns="http://www.w3.org/2000/svg">
<path d="M30 6C30 8.20914 28.2091 10 26 10C23.7909 10 22 8.20914 22 6C22 3.79086 23.7909 2 26 2C28.2091 2 30 3.79086 30 6Z" fill="black"/>
<path fill-rule="evenodd" clip-rule="evenodd" d="M17 13C17 11.3431 15.6569 10 14 10V8.5C14 6.01472 11.9853 4 9.5 4C7.01472 4 5 6.01472 5 8.5V9C3.34315 9 2 10.3431 2 12V13C2 15.2091 3.79086 17 6 17H8V28H2V30H30V28H28V26H29C29.5523 26 30 25.5523 30 25V21C30 20.4477 29.5523 20 29 20H15C14.4477 20 14 20.4477 14 21V25C14 25.5523 14.4477 26 15 26H16V28H10V19H13.625C15.489 19 17 17.489 17 15.625V13ZM18 26V28H26V26H18ZM8.00001 19V12L9.9979 11.9832V18.9832L8.00001 19Z" fill="black"/>
</svg>