<svg viewBox="0 0 32 32" xmlns="http://www.w3.org/2000/svg">
<path fill-rule="evenodd" clip-rule="evenodd" d="M30 6C30 8.20914 28.2091 10 26 10C23.7909 10 22 8.20914 22 6C22 3.79086 23.7909 2 26 2C28.2091 2 30 3.79086 30 6ZM28 6C28 7.10457 27.1046 8 26 8C24.8954 8 24 7.10457 24 6C24 4.89543 24.8954 4 26 4C27.1046 4 28 4.89543 28 6Z"/>
<path fill-rule="evenodd" clip-rule="evenodd" d="M17 13C17 11.3431 15.6569 10 14 10V8.5C14 6.01472 11.9853 4 9.5 4C7.01472 4 5 6.01472 5 8.5V9C3.34315 9 2 10.3431 2 12V13C2 15.2091 3.79086 17 6 17H8V28H2V30H30V28H28V26C29.1046 26 30 25.1046 30 24V22C30 20.8954 29.1046 20 28 20H16C14.8954 20 14 20.8954 14 22V24C14 25.1046 14.8954 26 16 26V28H10V19H13.625C15.489 19 17 17.489 17 15.625V13ZM10 12H8V15H6C4.89543 15 4 14.1046 4 13V12C4 11.4477 4.44772 11 5 11H7V8.5C7 7.11929 8.11929 6 9.5 6C10.8807 6 12 7.11929 12 8.5V12H14C14.5523 12 15 12.4477 15 13V15.625C15 16.3844 14.3844 17 13.625 17H10V12ZM28 24H16V22H28V24ZM26 28V26H18V28H26Z"/>
</svg>