<svg viewBox="0 0 32 32" xmlns="http://www.w3.org/2000/svg">
<path fill-rule="evenodd" clip-rule="evenodd" d="M29 14.03C28.09 12.81 26.64 12 25 12H23C20.24 12 18 14.24 18 17H3C2.45 17 2 16.55 2 16V5C2 4.45 2.45 4 3 4H28C28.55 4 29 4.45 29 5V14.03ZM24 10.5C24 9.67 23.33 9 22.5 9C21.67 9 21 9.67 21 10.5C21 11.33 21.67 12 22.5 12C23.33 12 24 11.33 24 10.5ZM7 10.5C7 11.33 7.67 12 8.5 12C9.33 12 10 11.33 10 10.5C10 9.67 9.33 9 8.5 9C7.67 9 7 9.67 7 10.5ZM14 10.5C14 11.33 14.67 12 15.5 12C16.33 12 17 11.33 17 10.5C17 9.67 16.33 9 15.5 9C14.67 9 14 9.67 14 10.5Z" fill="black"/>
<path fill-rule="evenodd" clip-rule="evenodd" d="M28 17V19C29.1 19 30 19.9 30 21V26C30 27.1 29.1 28 28 28H20C18.9 28 18 27.1 18 26V21C18 19.9 18.9 19 20 19V17C20 15.35 21.35 14 23 14H25C26.65 14 28 15.35 28 17ZM23 16C22.45 16 22 16.45 22 17V19H26V17C26 16.45 25.55 16 25 16H23Z" fill="black"/>
</svg>