<svg viewBox="0 0 32 32" xmlns="http://www.w3.org/2000/svg">
<path d="M22 16H26V18H22V16Z"/>
<path d="M10.79 11.79L9.00004 13.59L7.21004 11.79L5.79004 13.21L7.59004 15L5.79004 16.79L7.21004 18.21L9.00004 16.41L10.79 18.21L12.21 16.79L10.41 15L12.21 13.21L10.79 11.79Z"/>
<path d="M17 13.59L18.79 11.79L20.21 13.21L18.41 15L20.21 16.79L18.79 18.21L17 16.41L15.21 18.21L13.79 16.79L15.59 15L13.79 13.21L15.21 11.79L17 13.59Z"/>
<path fill-rule="evenodd" clip-rule="evenodd" d="M4 8H28C29.1 8 30 8.9 30 10V20C30 21.1 29.1 22 28 22H4C2.9 22 2 21.1 2 20V10C2 8.9 2.9 8 4 8ZM4 10V20H28V10H4Z"/>
</svg>