<svg viewBox="0 0 32 32" xmlns="http://www.w3.org/2000/svg">
<path d="M4 17H17.06V15H4V6H27V12H29V6C29 4.9 28.1 4 27 4H4C2.9 4 2 4.9 2 6V15C2 16.1 2.9 17 4 17Z"/>
<path d="M8.5 12C9.32843 12 10 11.3284 10 10.5C10 9.67157 9.32843 9 8.5 9C7.67157 9 7 9.67157 7 10.5C7 11.3284 7.67157 12 8.5 12Z"/>
<path d="M17 10.5C17 11.3284 16.3284 12 15.5 12C14.6716 12 14 11.3284 14 10.5C14 9.67157 14.6716 9 15.5 9C16.3284 9 17 9.67157 17 10.5Z"/>
<path d="M22.5 12C23.3284 12 24 11.3284 24 10.5C24 9.67157 23.3284 9 22.5 9C21.6716 9 21 9.67157 21 10.5C21 11.3284 21.6716 12 22.5 12Z"/>
<path fill-rule="evenodd" clip-rule="evenodd" d="M28 17V19C29.1 19 30 19.9 30 21V26C30 27.1 29.1 28 28 28H20C18.9 28 18 27.1 18 26V21C18 19.9 18.9 19 20 19V17C20 15.35 21.35 14 23 14H25C26.65 14 28 15.35 28 17ZM23 16C22.45 16 22 16.45 22 17V19H26V17C26 16.45 25.55 16 25 16H23ZM20 21V26H28V21H20Z"/>
</svg>