<svg viewBox="0 0 32 32" xmlns="http://www.w3.org/2000/svg">
<path fill-rule="evenodd" clip-rule="evenodd" d="M11 25V27H5C3.9 27 3 26.1 3 25V6C3 4.9 3.9 4 5 4H8C8 2.9 8.9 2 10 2H16C17.1 2 18 2.9 18 4H21C22.1 4 23 4.9 23 6V11H21V6H18V7C18 8.1 17.1 9 16 9H10C8.9 9 8 8.1 8 7V6H5V25H11ZM16 4H10V7H16V4Z"/>
<path d="M18 19V21H24V19H18Z"/>
<path d="M18 25V23H24V25H18Z"/>
<path fill-rule="evenodd" clip-rule="evenodd" d="M13 28V16C13 14.9 13.9 14 15 14H27C28.1 14 29 14.9 29 16V28C29 29.1 28.1 30 27 30H15C13.9 30 13 29.1 13 28ZM15 16V28H27V16H15Z"/>
</svg>