<svg viewBox="0 0 32 32" xmlns="http://www.w3.org/2000/svg">
<path fill-rule="evenodd" clip-rule="evenodd" d="M18 4H22C22.55 4 23 4.45 23 5V12H14C12.35 12 11 13.35 11 15V28H4C3.45 28 3 27.55 3 27V5C3 4.45 3.45 4 4 4H8C8 2.9 8.9 2 10 2H16C17.1 2 18 2.9 18 4ZM10 7H16V4H10V7Z" fill="black"/>
<path fill-rule="evenodd" clip-rule="evenodd" d="M14 14H28C28.55 14 29 14.45 29 15V29C29 29.55 28.55 30 28 30H14C13.45 30 13 29.55 13 29V15C13 14.45 13.45 14 14 14ZM18 25H24V23H18V25ZM18 21H24V19H18V21Z" fill="black"/>
</svg>