<svg viewBox="0 0 32 32" xmlns="http://www.w3.org/2000/svg">
<path fill-rule="evenodd" clip-rule="evenodd" d="M28.2699 6.46L28.2399 6.78V6.79L29.4099 7.96C29.7899 8.33 29.9999 8.84 29.9999 9.37C29.9999 9.9 29.7899 10.4 29.4099 10.78L25.1699 15.02L23.7599 13.61L27.9999 9.37L26.8499 8.22001L16.8699 18.23L10.6699 19.65L12.0899 13.48L23.4799 2.07L23.8399 2.03C25.3799 1.88 26.5499 2.2 27.3199 2.97C28.0999 3.75 28.4199 4.92 28.2699 6.46ZM25.9199 4.4C25.5799 4.06 24.9499 3.99 24.3899 4.01H24.3999L21.1299 7.28L23.0499 9.2L26.3099 5.93C26.3299 5.37 26.2599 4.74 25.9199 4.4ZM13.3299 16.99L15.8599 16.41V16.4L21.6299 10.61L19.7099 8.69L13.9099 14.49L13.3299 16.99Z"/>
<path d="M4 28H20V18H22V28C22 29.1 21.1 30 20 30H4C2.9 30 2 29.1 2 28V6C2 4.9 2.9 4 4 4H17V6H4V28Z"/>
</svg>