<svg viewBox="0 0 32 32" xmlns="http://www.w3.org/2000/svg">
<path d="M27.3801 6.95997L28.8901 8.46997L28.8701 8.45997C29.2401 8.82997 29.4501 9.29997 29.4801 9.79997C29.5101 10.34 29.3201 10.85 28.9501 11.22L25.1601 15.01L23.7501 13.6L27.4601 9.88997L25.9601 8.37997L24.1001 10.25L20.0601 6.20997L23.7201 2.54997L23.9001 2.52997C25.2801 2.38997 26.3201 2.65997 26.9801 3.31997C27.6401 3.97997 27.9101 5.01997 27.7801 6.39997L27.7601 6.57997L27.3801 6.95997Z" fill="black"/>
<path d="M20 28H4V6H17V4H4C2.9 4 2 4.9 2 6V28C2 29.1 2.9 30 4 30H20C21.1 30 22 29.1 22 28V17H20V28Z" fill="black"/>
<path d="M18.6501 7.62L12.5401 13.73L11.3301 18.98L16.6201 17.77L22.7001 11.67L18.6501 7.62Z" fill="black"/>
</svg>