<svg viewBox="0 0 32 32" xmlns="http://www.w3.org/2000/svg">
<path fill-rule="evenodd" clip-rule="evenodd" d="M10 16.61L21.85 4.58999L21.86 4.60999C22.61 3.83999 23.87 3.81999 24.65 4.55999L27.38 7.14999C27.77 7.51999 28 8.02999 28 8.56999C28.01 9.10999 27.8 9.61999 27.42 9.99999L15.4 22H10V16.61ZM12 20H14.56L22.68 11.89L19.97 9.33999L12 17.43V20ZM24.1 10.48L26 8.57999H25.99L23.26 5.99999L21.37 7.91999L24.1 10.48Z"/>
<path d="M4 26V8C4 6.9 4.9 6 6 6H14.09V8H6V26H24V17.95H26V26C26 27.1 25.1 28 24 28H6C4.9 28 4 27.1 4 26Z"/>
</svg>