<svg viewBox="0 0 32 32" xmlns="http://www.w3.org/2000/svg">
<path d="M22.9999 9H20.9999V5.2L14.0299 11.3L9.00986 7.29L3.63986 11.77L2.35986 10.23L8.98986 4.71L13.9699 8.7L19.3399 4H15.9999V2H22.9999V9Z"/>
<path d="M24 20H26V22H24V20Z"/>
<path d="M22 20H20V22H22V20Z"/>
<path d="M24 24H26V26H24V24Z"/>
<path d="M22 24H20V26H22V24Z"/>
<path fill-rule="evenodd" clip-rule="evenodd" d="M18 12H28C29.1 12 30 12.9 30 14V28C30 29.1 29.1 30 28 30H18C16.9 30 16 29.1 16 28V14C16 12.9 16.9 12 18 12ZM28 16V14H18V16H28ZM18 18V28H28V18H18Z"/>
</svg>