<svg viewBox="0 0 32 32" xmlns="http://www.w3.org/2000/svg">
<path d="M22.9999 9H20.9999V5.2L14.0299 11.3L9.00986 7.29L3.63986 11.77L2.35986 10.23L8.98986 4.71L13.9699 8.7L19.3399 4H15.9999V2H22.9999V9Z" fill="black"/>
<path d="M29 12H17C16.45 12 16 12.45 16 13V16H30V13C30 12.45 29.55 12 29 12Z" fill="black"/>
<path fill-rule="evenodd" clip-rule="evenodd" d="M16 29C16 29.55 16.45 30 17 30H29C29.55 30 30 29.55 30 29V18H16V29ZM24 20H26V22H24V20ZM24 24H26V26H24V24ZM20 20H22V22H20V20ZM20 24H22V26H20V24Z" fill="black"/>
</svg>