<svg viewBox="0 0 32 32" xmlns="http://www.w3.org/2000/svg">
<path d="M16 3C9.64 3 2 6.07 2 8V11C2 11.55 2.45 12 3 12H10C10.55 12 11 11.55 11 11V8H21V11C21 11.55 21.45 12 22 12H29C29.55 12 30 11.55 30 11V8C30 6.07 22.36 3 16 3Z" fill="black"/>
<path d="M16 23C17.1046 23 18 22.1046 18 21C18 19.8954 17.1046 19 16 19C14.8954 19 14 19.8954 14 21C14 22.1046 14.8954 23 16 23Z" fill="black"/>
<path fill-rule="evenodd" clip-rule="evenodd" d="M28.36 17.44L29.83 26.72C29.8401 26.8077 29.8593 26.9295 29.8815 27.07C29.9251 27.3463 29.9801 27.6951 30 28C30.04 28.58 29.52 29 28.94 29H3.05997C2.47997 29 1.95997 28.58 1.99997 28C2.02469 27.621 2.09692 27.1742 2.14396 26.8831C2.15402 26.8209 2.16292 26.7658 2.16997 26.72L3.63997 17.44C3.91997 15.47 5.60997 14.01 7.59997 14.01H24.4C26.39 14.01 28.08 15.47 28.36 17.44ZM12 21C12 23.21 13.79 25 16 25C18.21 25 20 23.21 20 21C20 18.79 18.21 17 16 17C13.79 17 12 18.79 12 21Z" fill="black"/>
</svg>