<svg viewBox="0 0 32 32" xmlns="http://www.w3.org/2000/svg">
<path d="M23.17 17.72C22.78 17.33 22.14 17.33 21.76 17.72L18.98 20.5L12.01 13.53L14.79 10.75C15.18 10.36 15.18 9.73001 14.79 9.34001L9.18995 3.74001C8.79995 3.35001 8.15996 3.35001 7.77995 3.74001L3.94995 7.57001C3.50995 8.01001 3.28995 8.63001 3.36995 9.24001C4.08995 14.51 6.27995 19.01 9.87995 22.61C13.48 26.21 17.97 28.4 23.23 29.12C23.32 29.13 23.41 29.14 23.49 29.14C24.02 29.14 24.54 28.93 24.92 28.55L28.75 24.72C29.14 24.33 29.14 23.7 28.75 23.31L23.16 17.72H23.17Z" fill="black"/>
</svg>