<svg viewBox="0 0 32 32" xmlns="http://www.w3.org/2000/svg">
<path d="M24.2301 17.5699C23.4501 16.7899 22.1801 16.7899 21.4001 17.5699L18.6201 20.3499L11.6501 13.3799L14.4301 10.5999C15.2101 9.81989 15.2101 8.54989 14.4301 7.76989L10.2501 3.59989C9.47009 2.81989 8.20009 2.81989 7.42009 3.59989L3.59009 7.42989C3.15009 7.86989 2.93009 8.50989 3.01009 9.12989C3.73009 14.3899 5.92009 18.8799 9.52009 22.4799C13.1201 26.0799 17.6101 28.2699 22.8701 28.9899C22.9601 28.9999 23.0501 29.0099 23.1301 29.0099C23.6601 29.0099 24.1801 28.7999 24.5601 28.4199L28.3901 24.5899C29.1701 23.8099 29.1701 22.5399 28.3901 21.7599L24.2101 17.5799L24.2301 17.5699ZM23.1501 26.9999C18.3401 26.3399 14.2301 24.3399 10.9401 21.0599C7.65009 17.7699 5.66009 13.6699 5.01009 8.83989L8.84009 5.00989L13.0201 9.18989L8.83009 13.3799L18.6301 23.1799L22.8201 18.9899L27.0001 23.1699L23.1601 27.0099L23.1501 26.9999Z"/>
</svg>