<svg viewBox="0 0 32 32" xmlns="http://www.w3.org/2000/svg">
<path fill-rule="evenodd" clip-rule="evenodd" d="M2 7C2 5.07 9.64 2 16 2C22.36 2 30 5.07 30 7V10C30 11.1 29.1 12 28 12H23C21.84 12 21 11.16 21 10V9H11V10C11 11.16 10.16 12 9 12H4C2.9 12 2 11.1 2 10V7ZM23 10H28V7.26C26.99 6.35 21.29 4 16 4C10.71 4 5.01 6.35 4 7.26V10H9V7H23V10Z"/>
<path fill-rule="evenodd" clip-rule="evenodd" d="M15.8899 18C13.6799 18 11.8899 19.79 11.8899 22C11.8899 24.21 13.6499 26 15.8899 26C18.1299 26 19.8899 24.24 19.8899 22C19.8899 19.76 18.0999 18 15.8899 18ZM15.8899 24C14.7499 24 13.8899 23.14 13.8899 22C13.8899 20.86 14.7899 20 15.8899 20C16.9899 20 17.8899 20.9 17.8899 22C17.8899 23.1 17.0299 24 15.8899 24Z"/>
<path fill-rule="evenodd" clip-rule="evenodd" d="M28.48 18.29C28.13 15.84 26 14 23.53 14H8.47C6 14 3.87 15.85 3.52 18.29L2.17 27.71C2.09 28.28 2.26 28.87 2.64 29.3C3.02 29.73 3.57 29.99 4.15 29.99H27.85C28.43 29.99 28.98 29.74 29.36 29.3C29.74 28.86 29.91 28.28 29.83 27.71L28.48 18.29ZM4.15 28L5.5 18.58C5.71 17.11 6.99 16 8.47 16H23.53C25.01 16 26.29 17.11 26.5 18.58L27.85 28H4.15Z"/>
</svg>