<svg viewBox="0 0 32 32" xmlns="http://www.w3.org/2000/svg">
<path d="M19 6C19 7.65685 17.6569 9 16 9C14.3431 9 13 7.65685 13 6C13 4.34315 14.3431 3 16 3C17.6569 3 19 4.34315 19 6Z" fill="black"/>
<path fill-rule="evenodd" clip-rule="evenodd" d="M26.81 16.0001H28L28.01 15.9901C29.11 15.9901 30.01 16.8901 30.01 17.9901V21.9901C30.01 23.0401 29.06 23.9901 28.01 23.9901H26.76C26.38 24.9301 25.78 25.3801 25.23 25.7901C25.1743 25.8379 25.1186 25.8793 25.0578 25.9244C25.0423 25.936 25.0263 25.9479 25.01 25.9601V27.9901C25.01 29.0901 24.11 29.9901 23.01 29.9901H21.01C19.96 29.9901 19.01 29.0401 19.01 27.9901V26.9901H15.01V27.9901C15.01 29.0901 14.11 29.9901 13.01 29.9901H11.01C9.96001 29.9901 9.01001 29.0401 9.01001 27.9901V26.4301C7.40001 25.3701 6.01001 24.4501 6.01001 21.9901V20.9101C3.09001 20.4801 2.01001 18.1701 2.01001 15.9901C2.01001 14.4401 2.95001 13.0001 4.52001 12.1201L5.49001 13.8701C4.56001 14.3901 4.00001 15.1901 4.00001 16.0001C4.00001 17.1601 4.39001 18.4901 6.00001 18.8801V18.0001C6.00001 14.7501 9.25001 12.0001 13.1 12.0001H19.21C19.91 9.88012 21.87 8.88012 25.04 9.00012L26.27 9.05012L25.12 13.6401C25.84 14.2901 26.49 15.0201 26.81 16.0001ZM20.5 18.0001C20.5 18.8301 21.17 19.5001 22 19.5001C22.83 19.5001 23.5 18.8301 23.5 18.0001C23.5 17.1701 22.83 16.5001 22 16.5001C21.17 16.5001 20.5 17.1701 20.5 18.0001Z" fill="black"/>
</svg>