<svg viewBox="0 0 32 32" xmlns="http://www.w3.org/2000/svg">
<path d="M28 16H26.81C26.49 15.02 25.84 14.29 25.12 13.64L26.27 9.05L25.04 9C21.87 8.88 19.91 9.88 19.21 12H13.1C9.25001 12 6.00001 14.75 6.00001 18V18.88C4.39001 18.49 4.00001 17.16 4.00001 16C4.00001 15.19 4.56001 14.39 5.49001 13.87L4.52001 12.12C2.95001 13 2.01001 14.44 2.01001 15.99C2.01001 18.17 3.09001 20.48 6.01001 20.91V21.99C6.01001 24.45 7.40001 25.37 9.01001 26.43V27.99C9.01001 29.04 9.96001 29.99 11.01 29.99H13.01C14.11 29.99 15.01 29.09 15.01 27.99V26.99H19.01V27.99C19.01 29.04 19.96 29.99 21.01 29.99H23.01C24.11 29.99 25.01 29.09 25.01 27.99V25.96C25.09 25.9 25.16 25.85 25.23 25.79C25.78 25.38 26.38 24.93 26.76 23.99H28.01C29.06 23.99 30.01 23.04 30.01 21.99V17.99C30.01 16.89 29.11 15.99 28.01 15.99L28 16ZM28 22H25.18L25.02 22.8C24.87 23.57 24.6 23.77 24.02 24.2C23.8 24.36 23.57 24.54 23.33 24.75L22.99 25.05V28H20.99V25H13V28H11V25.37L10.12 24.78C8.51001 23.72 8.00001 23.32 8.00001 22V18C8.00001 15.87 10.38 14 13.1 14H20.85L20.98 13.16C21.14 12.19 21.6 11.21 23.71 11.02L22.87 14.36L23.35 14.76C24.53 15.74 24.93 16.31 24.99 17.07L25.07 17.99H27.99V21.99L28 22Z"/>
<path d="M12 6C12 8.17 13.83 10 16 10C18.17 10 20 8.17 20 6C20 3.83 18.17 2 16 2C13.83 2 12 3.83 12 6ZM18 6C18 7.05 17.05 8 16 8C14.95 8 14 7.05 14 6C14 4.95 14.95 4 16 4C17.05 4 18 4.95 18 6Z"/>
<path d="M22 19.5C22.8284 19.5 23.5 18.8284 23.5 18C23.5 17.1716 22.8284 16.5 22 16.5C21.1716 16.5 20.5 17.1716 20.5 18C20.5 18.8284 21.1716 19.5 22 19.5Z"/>
</svg>