<svg viewBox="0 0 32 32" xmlns="http://www.w3.org/2000/svg">
<path d="M3.71004 29.71L13.11 20.32L16.82 24.03C17.19 24.4 17.7 24.61 18.23 24.61C18.25 24.61 18.28 24.61 18.3 24.61C18.86 24.59 19.39 24.34 19.76 23.92C21.73 21.66 22.58 19.35 22.28 17.05L26.81 12.52L28.31 14.02L29.72 12.61L19.42 2.29004L18.01 3.70004L19.51 5.20004L14.98 9.73004C12.68 9.44004 10.37 10.27 8.11004 12.25C7.69004 12.62 7.44004 13.15 7.42004 13.71C7.40004 14.26 7.61004 14.8 8.00004 15.19L11.71 18.9L2.29004 28.29L3.70004 29.7L3.71004 29.71ZM15.1 11.79L15.63 11.9L20.91 6.62004L25.38 11.09L20.1 16.37L20.21 16.9C20.6 18.76 19.96 20.63 18.22 22.61L9.41004 13.76C11.38 12.04 13.24 11.4 15.11 11.79H15.1Z"/>
</svg>