<svg viewBox="0 0 32 32" xmlns="http://www.w3.org/2000/svg">
<path fill-rule="evenodd" clip-rule="evenodd" d="M10 5V3H8V5H6.22222C4.9148 5 4 6.12835 4 7.33333V12.6667C4 13.8716 4.9148 15 6.22222 15H8V17H6.22222C4.9148 17 4 18.1284 4 19.3333V24.6667C4 25.8716 4.9148 27 6.22222 27H8V29H10V27H25.7778C27.0852 27 28 25.8716 28 24.6667V19.3333C28 18.1284 27.0852 17 25.7778 17H10V15H25.7778C27.0852 15 28 13.8716 28 12.6667V7.33333C28 6.12835 27.0852 5 25.7778 5L10 5ZM25.9049 12.9338C25.9559 12.8781 26 12.7862 26 12.6667V7.33333C26 7.21376 25.9559 7.12195 25.9049 7.06625C25.8551 7.012 25.8095 7 25.7778 7H6.22222C6.19054 7 6.14486 7.012 6.09513 7.06625C6.04408 7.12195 6 7.21376 6 7.33333V12.6667C6 12.7862 6.04408 12.8781 6.09513 12.9338C6.14486 12.988 6.19054 13 6.22222 13H25.7778C25.8095 13 25.8551 12.988 25.9049 12.9338ZM25.9049 24.9338C25.9559 24.8781 26 24.7862 26 24.6667V19.3333C26 19.2138 25.9559 19.1219 25.9049 19.0662C25.8551 19.012 25.8095 19 25.7778 19H6.22222C6.19054 19 6.14486 19.012 6.09513 19.0662C6.04408 19.1219 6 19.2138 6 19.3333V24.6667C6 24.7862 6.04408 24.8781 6.09513 24.9338C6.14486 24.988 6.19054 25 6.22222 25H25.7778C25.8095 25 25.8551 24.988 25.9049 24.9338Z"/>
</svg>