<svg viewBox="0 0 32 32" xmlns="http://www.w3.org/2000/svg">
<path fill-rule="evenodd" clip-rule="evenodd" d="M8 4V2H6V4H4.22222C2.9148 4 2 5.12835 2 6.33333V11.6667C2 12.8716 2.9148 14 4.22222 14H6V16H4.22223C2.9148 16 2.00001 17.1284 2.00001 18.3333V23.6667C2.00001 24.8716 2.9148 26 4.22223 26H6V28H8V26H14V24H4.22223C4.19055 24 4.14487 23.988 4.09514 23.9338C4.04408 23.8781 4.00001 23.7862 4.00001 23.6667V18.3333C4.00001 18.2138 4.04408 18.1219 4.09514 18.0662C4.14487 18.012 4.19054 18 4.22223 18H16.0001V16H8V14H23.7778C25.0852 14 26 12.8716 26 11.6667V6.33333C26 5.12835 25.0852 4 23.7778 4H8ZM23.9049 11.9338C23.9559 11.8781 24 11.7862 24 11.6667V6.33333C24 6.21376 23.9559 6.12195 23.9049 6.06625C23.8551 6.012 23.8095 6 23.7778 6H4.22222C4.19054 6 4.14486 6.012 4.09513 6.06625C4.04408 6.12195 4 6.21376 4 6.33333V11.6667C4 11.7862 4.04408 11.8781 4.09513 11.9338C4.14486 11.988 4.19054 12 4.22222 12H23.7778C23.8095 12 23.8551 11.988 23.9049 11.9338Z"/>
<path d="M27.7286 21.6299L28.3535 20.2045L30.1852 21.0076L28.1777 25.5868L23.5984 23.5793L24.4014 21.7476L25.8628 22.3882C25.7707 21.9771 25.509 21.4378 24.8358 20.7647C23.2675 19.1963 20.733 19.1958 19.1716 20.7573C17.6101 22.3188 17.6106 24.8532 19.179 26.4215C20.6615 27.9041 23.0124 27.9854 24.5826 26.6652L25.8697 28.196C23.5089 30.1809 19.9845 30.0555 17.7647 27.8357C15.4181 25.4891 15.4121 21.6884 17.7574 19.3431C20.1027 16.9978 23.9034 17.0039 26.25 19.3505C27.0359 20.1363 27.4998 20.8982 27.7286 21.6299Z" fill="black"/>
</svg>