<svg viewBox="0 0 32 32" xmlns="http://www.w3.org/2000/svg">
<path d="M8 5V3H6V5H3C2.44772 5 2 5.44772 2 6V12C2 12.5523 2.44772 13 3 13H6V17H3C2.44772 17 2 17.4477 2 18V24C2 24.5523 2.44772 25 3 25H6V27H8V25H18.7574L19.7574 24L16.8787 21.1213C16.0976 20.3403 16.0976 19.074 16.8787 18.2929L18.1716 17H8V13H25C25.5523 13 26 12.5523 26 12V6C26 5.44772 25.5523 5 25 5H8Z" fill="black"/>
<path d="M24 25.4142L28.2929 29.7071L29.7071 28.2929L25.4142 24L29.7071 19.7071L28.2929 18.2929L24 22.5858L19.7071 18.2929L18.2929 19.7071L22.5858 24L18.2929 28.2929L19.7071 29.7071L24 25.4142Z" fill="black"/>
<path d="M25 17C25.4772 17 25.8763 17.3342 25.976 17.7814L24 19.7574L21.2426 17H25Z" fill="black"/>
</svg>