<svg viewBox="0 0 32 32" xmlns="http://www.w3.org/2000/svg">
<path d="M8 5V3H6V5H3C2.44772 5 2 5.44772 2 6V12C2 12.5523 2.44772 13 3 13H6V17H3C2.44772 17 2 17.4477 2 18V24C2 24.5523 2.44772 25 3 25H6V27H8V25H18V19.2623C18 18.3532 18.3548 17.571 18.9092 17H8V13H25C25.5523 13 26 12.5523 26 12V6C26 5.44772 25.5523 5 25 5H8Z" fill="black"/>
<path fill-rule="evenodd" clip-rule="evenodd" d="M21.9389 18.1966C21.1044 17.664 20 18.2658 20 19.2623V28.7436C20 29.7815 21.1183 30.2797 21.9037 29.8304L21.9152 29.8238L29.7105 25.0846C30.5829 24.5836 30.4938 23.3975 29.7243 22.9297L21.9389 18.1966ZM22 27.4316L27.6397 24.003L22 20.5743V27.4316Z" fill="black"/>
</svg>