<svg viewBox="0 0 32 32" xmlns="http://www.w3.org/2000/svg">
<path fill-rule="evenodd" clip-rule="evenodd" d="M8 5V3H6V5H3C2.44772 5 2 5.44772 2 6V12C2 12.5523 2.44772 13 3 13H6V17H3C2.44772 17 2 17.4477 2 18V24C2 24.5523 2.44772 25 3 25H6V27H8V25H14.1275C13.682 22.5118 14.4183 19.8537 16.3431 17.9289C16.6917 17.5803 17.0644 17.2707 17.4557 17H8V13H25C25.5523 13 26 12.5523 26 12V6C26 5.44772 25.5523 5 25 5L8 5ZM19.1716 20.7573C20.733 19.1958 23.2675 19.1963 24.8358 20.7647C25.509 21.4378 25.7707 21.9771 25.8628 22.3882L24.4014 21.7476L23.5984 23.5793L28.1777 25.5868L30.1852 21.0076L28.3535 20.2045L27.7286 21.6299C27.4998 20.8982 27.0359 20.1363 26.25 19.3505C23.9034 17.0039 20.1027 16.9978 17.7574 19.3431C15.4121 21.6884 15.4181 25.4891 17.7647 27.8357C19.9845 30.0555 23.5089 30.1809 25.8697 28.196L24.5826 26.6652C23.0124 27.9854 20.6615 27.9041 19.179 26.4215C17.6106 24.8532 17.6101 22.3188 19.1716 20.7573Z" fill="black"/>
</svg>