<svg viewBox="0 0 32 32" xmlns="http://www.w3.org/2000/svg">
<path fill-rule="evenodd" clip-rule="evenodd" d="M8 2V4H23.7778C25.0852 4 26 5.12835 26 6.33333V11.6667C26 12.8716 25.0852 14 23.7778 14H8V16H17.0001V18H4.22223C4.19054 18 4.14487 18.012 4.09514 18.0662C4.04408 18.1219 4.00001 18.2138 4.00001 18.3333V23.6667C4.00001 23.7862 4.04408 23.8781 4.09514 23.9338C4.14487 23.988 4.19055 24 4.22223 24H17V26H8V28H6V26H4.22223C2.9148 26 2.00001 24.8716 2.00001 23.6667V18.3333C2.00001 17.1284 2.9148 16 4.22223 16H6V14H4.22222C2.9148 14 2 12.8716 2 11.6667V6.33333C2 5.12835 2.9148 4 4.22222 4H6V2H8ZM24 11.6667C24 11.7862 23.9559 11.8781 23.9049 11.9338C23.8551 11.988 23.8095 12 23.7778 12H4.22222C4.19054 12 4.14486 11.988 4.09513 11.9338C4.04408 11.8781 4 11.7862 4 11.6667V6.33333C4 6.21376 4.04408 6.12195 4.09513 6.06625C4.14486 6.012 4.19054 6 4.22222 6H23.7778C23.8095 6 23.8551 6.012 23.9049 6.06625C23.9559 6.12195 24 6.21376 24 6.33333V11.6667Z"/>
<path fill-rule="evenodd" clip-rule="evenodd" d="M20 19.2623C20 18.2658 21.1044 17.664 21.9389 18.1966L29.7243 22.9297C30.4938 23.3975 30.5829 24.5836 29.7105 25.0846L21.9152 29.8238L21.9037 29.8304C21.1183 30.2797 20 29.7815 20 28.7436V19.2623ZM27.6397 24.003L22 27.4316V20.5743L27.6397 24.003Z" fill="black"/>
</svg>