<svg viewBox="0 0 32 32" xmlns="http://www.w3.org/2000/svg">
<path d="M30.17 12.98L19.02 1.83002C18.69 1.50002 18.17 1.50002 17.84 1.83002L15.4 4.27002V6.90002H12.77L1.83002 17.84C1.50002 18.17 1.50002 18.69 1.83002 19.02L12.98 30.17C13.31 30.5 13.83 30.5 14.16 30.17L25.1 19.23V16.6H27.73L30.17 14.16C30.5 13.83 30.5 13.31 30.17 12.98ZM19.43 13.98L17.63 15.78L18.78 20.4L16.84 20.89L15.98 17.44L13.16 20.26L13.61 21.6L11.71 22.24L11.22 20.79L9.77002 20.3L10.41 18.4L11.75 18.85L14.57 16.03L11.12 15.17L11.61 13.23L16.23 14.38L18.03 12.58C18.42 12.19 19.05 12.19 19.44 12.58C19.83 12.97 19.83 13.6 19.44 13.99L19.43 13.98Z" fill="black"/>
</svg>