<svg viewBox="0 0 32 32" xmlns="http://www.w3.org/2000/svg">
<path fill-rule="evenodd" clip-rule="evenodd" d="M19.72 2.53996L29.46 12.28L29.48 12.27C29.83 12.62 30.02 13.08 30.02 13.57C30.02 14.06 29.83 14.52 29.48 14.87L26.74 17.61H26.11V18.24L14.88 29.47C14.53 29.82 14.07 30.01 13.58 30.01C13.09 30.01 12.63 29.82 12.28 29.47L2.54 19.73C2.19 19.38 2 18.92 2 18.43C2 17.94 2.19 17.48 2.54 17.13L13.76 5.90996H14.39V5.27996L17.13 2.53996C17.82 1.84996 19.03 1.84996 19.72 2.53996ZM24.1 15.61H25.9L25.89 15.6L27.92 13.57L18.42 4.06996L16.39 6.09996V7.89996H14.59L4.07 18.43L13.57 27.93L24.1 17.41V15.61ZM11.6 13.2201L16.22 14.3701L16.21 14.3601L18.01 12.5601C18.4 12.1701 19.03 12.1701 19.42 12.5601C19.81 12.9501 19.81 13.5801 19.42 13.9701L17.62 15.7701L18.77 20.3901L16.83 20.8801L15.97 17.4301L13.15 20.2501L13.6 21.5901L11.7 22.2301L11.21 20.7801L9.76001 20.2901L10.4 18.3901L11.74 18.8401L14.56 16.0201L11.11 15.1601L11.6 13.2201Z"/>
</svg>