<svg viewBox="0 0 32 32" xmlns="http://www.w3.org/2000/svg">
<path d="M12 11.5C12 12.3284 11.3284 13 10.5 13C9.67157 13 9 12.3284 9 11.5C9 10.6716 9.67157 10 10.5 10C11.3284 10 12 10.6716 12 11.5Z"/>
<path d="M21.5 13C22.3284 13 23 12.3284 23 11.5C23 10.6716 22.3284 10 21.5 10C20.6716 10 20 10.6716 20 11.5C20 12.3284 20.6716 13 21.5 13Z"/>
<path d="M13 24C13 23.4477 13.4477 23 14 23C14.5523 23 15 23.4477 15 24V25C15 25.5523 14.5523 26 14 26C13.4477 26 13 25.5523 13 25V24Z"/>
<path d="M18 23C17.4477 23 17 23.4477 17 24V25C17 25.5523 17.4477 26 18 26C18.5523 26 19 25.5523 19 25V24C19 23.4477 18.5523 23 18 23Z"/>
<path fill-rule="evenodd" clip-rule="evenodd" d="M24.5767 22.3772C25.5732 22.0262 26.5198 21.5311 27.3847 20.902L27.6489 20.7099C29.1261 19.6356 30 17.9194 30 16.0929V15.278C30 9.45124 26.2383 4.2909 20.6911 2.50786C17.6405 1.52733 14.3595 1.52733 11.3089 2.50786C5.76168 4.2909 2 9.45124 2 15.278V16.0929C2 17.9194 2.87393 19.6356 4.35106 20.7099L4.6153 20.902C5.53203 21.5688 6.54054 22.0851 7.6029 22.4387C5.98882 25.6425 7.78413 29.8098 11.7567 30.2303C13.2543 30.3889 14.7465 30.5 16 30.5C17.298 30.5 18.9305 30.3808 20.5927 30.213C24.6125 29.8075 26.3599 25.5121 24.5767 22.3772ZM23.2394 20.6984C24.3014 20.4158 25.3089 19.9387 26.2084 19.2846L26.4726 19.0924C27.4322 18.3945 28 17.2795 28 16.0929V15.278C28 10.32 24.7992 5.9291 20.0791 4.41191C17.4265 3.55931 14.5735 3.55931 11.9209 4.41191C7.20081 5.9291 4 10.32 4 15.278V16.0929C4 17.2795 4.56776 18.3945 5.5274 19.0924L5.79164 19.2846C6.70435 19.9484 7.72831 20.4298 8.80755 20.7108C8.93305 20.4619 8.99999 20.1851 8.99999 19.9018V17C8.99999 15.8954 9.89542 15 11 15V19.9018C11 20.8601 10.6376 21.783 9.98547 22.4853C7.99485 24.629 9.21371 27.95 11.9672 28.2415C13.4356 28.3969 14.8484 28.5 16 28.5C17.197 28.5 18.7511 28.3887 20.392 28.2232C23.1667 27.9432 24.3109 24.5247 22.1719 22.5284C21.4244 21.8307 21 20.854 21 19.8315L21 17C19.931 17 19.1603 16.2519 18.757 15.6584C18.4511 15.2082 17.736 14.5 16 14.5C14.264 14.5 13.5489 15.2082 13.243 15.6584C12.8397 16.2519 12.069 17 11 17L11 15C11.0413 15 11.1193 14.9856 11.2358 14.9053C11.3546 14.8234 11.4801 14.6943 11.5889 14.5343C12.2559 13.5526 13.582 12.5 16 12.5C18.418 12.5 19.7441 13.5526 20.4111 14.5343C20.5199 14.6943 20.6454 14.8234 20.7642 14.9053C20.8807 14.9856 20.9586 15 21 15C22.1046 15 23 15.8954 23 17V19.8315C23 20.1397 23.0842 20.4388 23.2394 20.6984Z"/>
</svg>