<svg viewBox="0 0 32 32" xmlns="http://www.w3.org/2000/svg">
<path d="M13 24C13 23.4477 13.4477 23 14 23C14.5523 23 15 23.4477 15 24V25C15 25.5523 14.5523 26 14 26C13.4477 26 13 25.5523 13 25V24Z"/>
<path d="M18 23C17.4477 23 17 23.4477 17 24V25C17 25.5523 17.4477 26 18 26C18.5523 26 19 25.5523 19 25V24C19 23.4477 18.5523 23 18 23Z"/>
<path fill-rule="evenodd" clip-rule="evenodd" d="M4.6153 20.902C5.53204 21.5688 6.54055 22.0851 7.60292 22.4387C5.98885 25.6425 7.78416 29.8098 11.7567 30.2303C13.2543 30.3889 14.7465 30.5 16 30.5C17.298 30.5 18.9306 30.3808 20.5928 30.213C24.6125 29.8075 26.3599 25.5121 24.5768 22.3771C25.5732 22.0262 26.5198 21.5311 27.3847 20.902L27.6489 20.7099C29.1261 19.6356 30 17.9194 30 16.0929V15.278C30 9.45124 26.2383 4.2909 20.6911 2.50786C17.6405 1.52733 14.3595 1.52733 11.3089 2.50786C5.76168 4.2909 2 9.45124 2 15.278V16.0929C2 17.9194 2.87393 19.6356 4.35106 20.7099L4.6153 20.902ZM21 16V17C19.931 17 19.1603 16.2519 18.757 15.6584C18.4511 15.2082 17.736 14.5 16 14.5C14.264 14.5 13.5489 15.2082 13.243 15.6584C12.8397 16.2519 12.069 17 11 17V19.9018C11 20.8601 10.6376 21.783 9.9855 22.4853C7.99488 24.629 9.21374 27.95 11.9672 28.2415C13.4356 28.3969 14.8484 28.5 16 28.5C17.197 28.5 18.7511 28.3887 20.392 28.2232C23.1667 27.9432 24.3109 24.5247 22.172 22.5284C21.4244 21.8307 21 20.854 21 19.8315L21 16ZM12 11.5C12 12.3284 11.3284 13 10.5 13C9.67157 13 9 12.3284 9 11.5C9 10.6716 9.67157 10 10.5 10C11.3284 10 12 10.6716 12 11.5ZM21.5 13C22.3284 13 23 12.3284 23 11.5C23 10.6716 22.3284 10 21.5 10C20.6716 10 20 10.6716 20 11.5C20 12.3284 20.6716 13 21.5 13Z"/>
</svg>