<svg viewBox="0 0 32 32" xmlns="http://www.w3.org/2000/svg">
<path fill-rule="evenodd" clip-rule="evenodd" d="M13.91 10.39L21.19 14.94H21.18C21.55 15.17 21.77 15.57 21.77 16C21.77 16.43 21.55 16.83 21.18 17.06L13.9 21.61C13.7 21.74 13.47 21.8 13.24 21.8C13.04 21.8 12.83 21.74 12.64 21.64C12.24 21.42 11.99 21 11.99 20.55V11.45C11.99 11 12.24 10.58 12.64 10.36C13.04 10.14 13.53 10.15 13.91 10.39ZM14 12.81V19.21L19.11 16.01L14 12.81Z"/>
<path fill-rule="evenodd" clip-rule="evenodd" d="M2 16C2 8.28 8.28 2 16 2C23.72 2 30 8.28 30 16C30 23.72 23.72 30 16 30C8.28 30 2 23.72 2 16ZM4 16C4 22.62 9.38 28 16 28C22.62 28 28 22.62 28 16C28 9.38 22.62 4 16 4C9.38 4 4 9.38 4 16Z"/>
</svg>