<svg viewBox="0 0 32 32" xmlns="http://www.w3.org/2000/svg">
<path fill-rule="evenodd" clip-rule="evenodd" d="M18.2202 3.76442C20.5624 1.42228 24.3634 1.42228 26.7055 3.76442L28.247 5.30591C30.5891 7.64805 30.5891 11.4491 28.247 13.7912L23.8983 18.1399L13.8715 8.11312L18.2202 3.76442Z" fill="black"/>
<path d="M14.5613 20.3244L11.6755 17.4387L15.557 13.5572L14.1428 12.143L10.2613 16.0245L8.10177 13.8649L3.75306 18.2137C1.41093 20.5558 1.41093 24.3568 3.75306 26.6989L5.29456 28.2404C7.6367 30.5826 11.4377 30.5826 13.7798 28.2404L18.1285 23.8917L15.9755 21.7386L19.8571 17.857L18.4429 16.4428L14.5613 20.3244Z" fill="black"/>
</svg>