<svg viewBox="0 0 32 32" xmlns="http://www.w3.org/2000/svg">
<path fill-rule="evenodd" clip-rule="evenodd" d="M26.7055 3.76442C24.3634 1.42228 20.5624 1.42228 18.2202 3.76442L13.8715 8.11312L23.8983 18.1399L28.247 13.7912C30.5892 11.4491 30.5892 7.64805 28.247 5.30591L26.7055 3.76442ZM19.6345 5.17863C21.1956 3.61754 23.7302 3.61754 25.2913 5.17863L26.8328 6.72012C28.3939 8.28121 28.3939 10.8159 26.8328 12.377L23.8983 15.3115L16.7 8.11312L19.6345 5.17863Z"/>
<path fill-rule="evenodd" clip-rule="evenodd" d="M11.6755 17.4388L14.5613 20.3245L18.4429 16.4429L19.8571 17.8571L15.9755 21.7387L18.1285 23.8918L13.7798 28.2405C11.4377 30.5827 7.6367 30.5827 5.29456 28.2405L3.75306 26.699C1.41093 24.3569 1.41093 20.5559 3.75306 18.2137L8.10177 13.865L10.2613 16.0246L14.1428 12.1431L15.557 13.5573L11.6755 17.4388ZM5.16728 19.628L8.10177 16.6935L15.3001 23.8918L12.3656 26.8263C10.8045 28.3874 8.26986 28.3874 6.70877 26.8263L5.16728 25.2848C3.60619 23.7237 3.60619 21.189 5.16728 19.628Z"/>
</svg>