<svg viewBox="0 0 32 32" xmlns="http://www.w3.org/2000/svg">
<path d="M15 4H17V13H15V4Z"/>
<path d="M3.97998 15.9799C3.97998 22.6099 9.36998 27.9999 16 27.9999L15.99 28.0099C22.6 28.0099 27.97 22.6199 27.97 15.9899C27.97 11.7399 25.7 7.76988 22.03 5.63988L21.03 7.36988C24.08 9.13988 25.98 12.4499 25.98 15.9899C25.98 21.5099 21.52 26.0099 16 26.0099C10.48 26.0099 5.97998 21.5199 5.97998 15.9899C5.97998 12.4399 7.88998 9.12988 10.97 7.36988L9.96998 5.62988C6.27998 7.74988 3.97998 11.7099 3.97998 15.9799Z"/>
</svg>