<svg viewBox="0 0 32 32" xmlns="http://www.w3.org/2000/svg">
<path d="M28 22V20C28 18.35 26.65 17 25 17H23C21.35 17 20 18.35 20 20V22C18.9 22 18 22.9 18 24V28C18 29.1 18.9 30 20 30H28C29.1 30 30 29.1 30 28V24C30 22.9 29.1 22 28 22ZM22 20C22 19.45 22.45 19 23 19H25C25.55 19 26 19.45 26 20V22H22V20ZM20 28V24H28V28H20Z" fill="black"/>
<path d="M11.3183 11.5889C11.5976 11.0642 12.3126 10.6 13.3741 10.6C15.2958 10.6 15.6421 12.0228 15.6421 12.6182V16.7956L17.5197 13.8436L15.6762 10.7211H17.8325L18.7487 12.4466L19.6649 10.7211H21.8212L19.9777 13.8436L22 17H19.8213L18.7487 15.2139L17.6761 17L13.7875 17V13.2539C13.7875 12.3659 13.4523 12.0834 12.8713 12.0834C12.0892 12.0834 11.7428 12.6787 11.7428 13.5566V17H9.89932V13.2539C9.89932 12.3659 9.56412 12.0834 8.98314 12.0834C8.20106 12.0834 7.85468 12.6888 7.85468 13.5566V17H6V10.7211H7.47482L7.57537 11.4678H7.60889C8.03346 10.8624 8.6368 10.6 9.4077 10.6C10.3574 10.6 10.9942 11.044 11.2847 11.5889H11.3183Z" fill="black"/>
<path d="M4 2H24C25.1 2 26 2.9 26 4V14H24V7H4V20H16V22H3.86C2.83 22 2 21.25 2 20.32V4C2 2.9 2.9 2 4 2Z" fill="black"/>
</svg>