<svg viewBox="0 0 32 32" xmlns="http://www.w3.org/2000/svg">
<path fill-rule="evenodd" clip-rule="evenodd" d="M4 2H24C25.1 2 26 2.9 26 4V14H24V8H4V20H16V22H4C2.9 22 2 21.1 2 20V4C2 2.9 2.9 2 4 2ZM24 6V4H4V6H24Z"/>
<path d="M13.3741 10.6C12.3126 10.6 11.5976 11.0642 11.3183 11.5889H11.2847C10.9942 11.044 10.3574 10.6 9.4077 10.6C8.6368 10.6 8.03346 10.8624 7.60889 11.4678H7.57537L7.47482 10.7211H6V17H7.85468V13.5566C7.85468 12.6888 8.20106 12.0834 8.98314 12.0834C9.56412 12.0834 9.89932 12.3659 9.89932 13.2539V17H11.7428V13.5566C11.7428 12.6787 12.0892 12.0834 12.8713 12.0834C13.4523 12.0834 13.7875 12.3659 13.7875 13.2539V17L17.6761 17L18.7487 15.214L19.8213 17H22L19.9777 13.8436L21.8212 10.7211H19.6649L18.7487 12.4466L17.8325 10.7211H15.6762L17.5197 13.8436L15.6421 16.7956V12.6182C15.6421 12.0228 15.2958 10.6 13.3741 10.6Z"/>
<path d="M28 22V20C28 18.35 26.65 17 25 17H23C21.35 17 20 18.35 20 20V22C18.9 22 18 22.9 18 24V28C18 29.1 18.9 30 20 30H28C29.1 30 30 29.1 30 28V24C30 22.9 29.1 22 28 22ZM22 20C22 19.45 22.45 19 23 19H25C25.55 19 26 19.45 26 20V22H22V20ZM20 28V24H28V28H20Z"/>
</svg>