<svg viewBox="0 0 32 32" xmlns="http://www.w3.org/2000/svg">
<path d="M6 6H13V4H4V13H6V6Z" fill="black"/>
<path d="M19 6H26V13H28V4H19V6Z" fill="black"/>
<path d="M6 19H4V28H13V26H6V19Z" fill="black"/>
<path d="M26 26H19V28H28V19H26V26Z" fill="black"/>
<path d="M13.5 8H9.5C8.67 8 8 8.67 8 9.5V13.5C8 14.33 8.67 15 9.5 15H13.5C14.33 15 15 14.33 15 13.5V9.5C15 8.67 14.33 8 13.5 8ZM13 13H10V10H13V13Z" fill="black"/>
<path d="M13.5 17H9.5C8.67 17 8 17.67 8 18.5V22.5C8 23.33 8.67 24 9.5 24H13.5C14.33 24 15 23.33 15 22.5V18.5C15 17.67 14.33 17 13.5 17ZM13 22H10V19H13V22Z" fill="black"/>
<path d="M18.5 15H22.5C23.33 15 24 14.33 24 13.5V9.5C24 8.67 23.33 8 22.5 8H18.5C17.67 8 17 8.67 17 9.5V13.5C17 14.33 17.67 15 18.5 15ZM19 10H22V13H19V10Z" fill="black"/>
<path d="M19 17H17V19H19V17Z" fill="black"/>
<path d="M21 21V23H24V21H22V19H19V21H21Z" fill="black"/>
<path d="M24 17H22V19H24V17Z" fill="black"/>
<path d="M19 21H17V24H19V21Z" fill="black"/>
</svg>