<svg viewBox="0 0 32 32" xmlns="http://www.w3.org/2000/svg">
<path d="M16 2C8.27 2 2 8.27 2 16C2 23.73 8.27 30 16 30C23.73 30 30 23.73 30 16C30 8.27 23.73 2 16 2ZM16 27C14.62 27 13.5 25.88 13.5 24.5C13.5 23.12 14.62 22 16 22C17.38 22 18.5 23.12 18.5 24.5C18.5 25.88 17.38 27 16 27ZM21.45 14.95L21.28 15.69L18 18.03V20H14V15.97L17.66 13.35C17.77 12.33 17.71 11.02 17.23 10.42C17.14 10.3 16.89 9.99 16 9.99C14.39 9.99 14.02 11.09 14 12.01L10 11.99C10 9.58 11.6 5.99 16 5.99C18.33 5.99 19.66 7.05 20.37 7.93C22.4 10.49 21.55 14.49 21.45 14.94V14.95Z" fill="black"/>
</svg>