<svg viewBox="0 0 32 32" xmlns="http://www.w3.org/2000/svg">
<path d="M16 25C16.8284 25 17.5 24.3284 17.5 23.5C17.5 22.6716 16.8284 22 16 22C15.1716 22 14.5 22.6716 14.5 23.5C14.5 24.3284 15.1716 25 16 25Z"/>
<path d="M11 12C11 10.27 12.04 6.99999 16 6.99999V6.98999C17.69 6.98999 18.96 7.52999 19.78 8.59999C21.3 10.59 20.5 13.62 20.46 13.75L20.37 14.09L17 16.5V19.99H15V15.48L18.61 12.9C18.75 12.12 18.85 10.67 18.19 9.81999C17.76 9.26999 17.05 8.99999 16 8.99999C13.18 8.99999 13 11.5 13 12H11Z"/>
<path fill-rule="evenodd" clip-rule="evenodd" d="M16 2C8.28 2 2 8.28 2 16C2 23.72 8.28 30 16 30C23.72 30 30 23.72 30 16C30 8.28 23.72 2 16 2ZM16 28C9.38 28 4 22.62 4 16C4 9.38 9.38 4 16 4C22.62 4 28 9.38 28 16C28 22.62 22.62 28 16 28Z"/>
</svg>