<svg viewBox="0 0 32 32" xmlns="http://www.w3.org/2000/svg">
<path d="M18.6739 16.0001C18.6739 17.4768 17.4768 18.674 16 18.674C14.5232 18.674 13.3261 17.4768 13.3261 16.0001C13.3261 14.5233 14.5232 13.3261 16 13.3261C17.4768 13.3261 18.6739 14.5233 18.6739 16.0001Z" fill="black"/>
<path fill-rule="evenodd" clip-rule="evenodd" d="M16 5.93786C15.5616 5.51166 15.1249 5.12161 14.6933 4.77088C13.5788 3.86504 12.4713 3.19876 11.4373 2.86423C10.4033 2.52973 9.37055 2.50706 8.5 3.00967C7.62945 3.51228 7.1327 4.41803 6.9054 5.48072C6.67808 6.5435 6.70137 7.83572 6.92858 9.25387C7.01655 9.80296 7.13596 10.3762 7.28588 10.969C6.6976 11.1355 6.14143 11.3187 5.62192 11.5171C4.28017 12.0294 3.14942 12.6553 2.34269 13.3836C1.53602 14.1118 1 14.9948 1 16.0001C1 17.0053 1.53602 17.8883 2.34269 18.6165C3.14942 19.3448 4.28017 19.9707 5.62192 20.483C6.14143 20.6814 6.6976 20.8646 7.28588 21.0311C7.13596 21.6239 7.01655 22.1971 6.92858 22.7462C6.70137 24.1644 6.67808 25.4566 6.9054 26.5194C7.1327 27.5821 7.62945 28.4878 8.5 28.9904C9.37054 29.493 10.4033 29.4704 11.4373 29.1359C12.4713 28.8013 13.5788 28.1351 14.6933 27.2292C15.1249 26.8785 15.5616 26.4884 16 26.0622C16.4384 26.4884 16.8751 26.8785 17.3067 27.2292C18.4212 28.1351 19.5287 28.8013 20.5627 29.1359C21.5967 29.4704 22.6295 29.493 23.5 28.9904C24.3705 28.4878 24.8673 27.5821 25.0946 26.5194C25.3219 25.4566 25.2986 24.1644 25.0714 22.7462C24.9834 22.1971 24.864 21.6239 24.7141 21.0311C25.3024 20.8646 25.8586 20.6814 26.3781 20.483C27.7198 19.9707 28.8506 19.3448 29.6573 18.6165C30.464 17.8883 31 17.0053 31 16.0001C31 14.9948 30.464 14.1118 29.6573 13.3836C28.8506 12.6553 27.7198 12.0294 26.3781 11.5171C25.8586 11.3187 25.3024 11.1355 24.7141 10.969C24.864 10.3762 24.9834 9.80296 25.0714 9.25387C25.2986 7.83572 25.3219 6.5435 25.0946 5.48072C24.8673 4.41803 24.3705 3.51228 23.5 3.00967C22.6295 2.50706 21.5967 2.52973 20.5627 2.86423C19.5287 3.19876 18.4212 3.86504 17.3067 4.77088C16.8751 5.12161 16.4384 5.51166 16 5.93786ZM22.8478 4.13927C23.2874 4.39305 23.6372 4.90328 23.8191 5.75354C24.0009 6.6037 23.996 7.7214 23.7835 9.04753C23.7019 9.55703 23.5905 10.0921 23.4499 10.6481C22.2158 10.3688 20.8709 10.1576 19.4491 10.0261C18.6243 8.86051 17.7689 7.80135 16.91 6.87232C17.3212 6.47254 17.7289 6.10853 18.1293 5.78308C19.1715 4.93602 20.137 4.37285 20.9642 4.10525C21.7915 3.83762 22.4083 3.88549 22.8478 4.13927ZM15.09 6.87232C14.6788 6.47254 14.2711 6.10853 13.8707 5.78308C12.8285 4.93602 11.863 4.37285 11.0358 4.10525C10.2085 3.83762 9.59173 3.88549 9.15217 4.13927C8.71261 4.39305 8.36276 4.90328 8.1809 5.75354C7.99905 6.6037 8.00404 7.7214 8.2165 9.04753C8.29813 9.55703 8.40954 10.0921 8.55015 10.6481C9.78415 10.3688 11.1291 10.1576 12.5509 10.0261C13.3757 8.86051 14.2311 7.80135 15.09 6.87232ZM23.0932 11.9048C22.2507 11.7166 21.3494 11.5605 20.4013 11.4415C20.7107 11.9251 21.0138 12.4233 21.3091 12.9348C21.6044 13.4463 21.8843 13.958 22.1484 14.4677C22.5195 13.5871 22.8349 12.7285 23.0932 11.9048ZM22.8981 16.0001C23.4952 14.703 23.9847 13.4326 24.3598 12.2243C24.9117 12.3805 25.4308 12.5516 25.9128 12.7356C27.1675 13.2147 28.1379 13.7692 28.7833 14.3518C29.4287 14.9344 29.6957 15.4925 29.6957 16.0001C29.6957 16.5076 29.4287 17.0657 28.7833 17.6483C28.1379 18.2309 27.1675 18.7854 25.9128 19.2645C25.4308 19.4486 24.9117 19.6196 24.3598 19.7758C23.9847 18.5675 23.4952 17.2971 22.8981 16.0001ZM21.4564 16.0001C21.073 15.2041 20.647 14.3968 20.1795 13.587C19.712 12.7772 19.2258 12.0047 18.7282 11.2747C17.8472 11.2087 16.935 11.174 16 11.174C15.065 11.174 14.1528 11.2087 13.2718 11.2747C12.7742 12.0047 12.288 12.7772 11.8205 13.587C11.353 14.3968 10.927 15.2041 10.5436 16.0001C10.927 16.796 11.353 17.6033 11.8205 18.4131C12.288 19.2229 12.7742 19.9955 13.2718 20.7254C14.1528 20.7914 15.065 20.8261 16 20.8261C16.935 20.8261 17.8472 20.7914 18.7282 20.7254C19.2258 19.9955 19.712 19.2229 20.1795 18.4131C20.647 17.6033 21.073 16.796 21.4564 16.0001ZM20.4013 20.5586C20.7107 20.075 21.0138 19.5768 21.3091 19.0653C21.6044 18.5538 21.8843 18.0421 22.1484 17.5325C22.5195 18.413 22.8349 19.2716 23.0932 20.0953C22.2507 20.2835 21.3494 20.4396 20.4013 20.5586ZM17.7471 22.091C17.1737 22.1171 16.5906 22.1305 16 22.1305C15.4094 22.1305 14.8263 22.1171 14.2529 22.091C14.8299 22.8526 15.4158 23.555 16 24.1905C16.5842 23.555 17.1701 22.8526 17.7471 22.091ZM16.91 25.1278C17.7689 24.1988 18.6243 23.1396 19.4491 21.974C20.8709 21.8425 22.2158 21.6313 23.4499 21.352C23.5905 21.908 23.7019 22.4431 23.7835 22.9526C23.996 24.2787 24.0009 25.3964 23.8191 26.2466C23.6372 27.0968 23.2874 27.6071 22.8478 27.8608C22.4083 28.1146 21.7915 28.1625 20.9642 27.8949C20.137 27.6272 19.1715 27.0641 18.1293 26.217C17.7289 25.8916 17.3212 25.5276 16.91 25.1278ZM15.09 25.1278C14.2311 24.1988 13.3757 23.1396 12.5509 21.974C11.1291 21.8425 9.78415 21.6313 8.55015 21.352C8.40954 21.908 8.29813 22.4431 8.2165 22.9526C8.00404 24.2787 7.99905 25.3964 8.1809 26.2466C8.36276 27.0968 8.71261 27.6071 9.15217 27.8608C9.59173 28.1146 10.2085 28.1625 11.0358 27.8949C11.863 27.6272 12.8285 27.0641 13.8707 26.217C14.2711 25.8916 14.6788 25.5276 15.09 25.1278ZM8.90684 20.0953C9.7493 20.2835 10.6506 20.4396 11.5987 20.5586C11.2893 20.075 10.9862 19.5768 10.6909 19.0653C10.3956 18.5538 10.1157 18.0421 9.85155 17.5325C9.48052 18.413 9.16508 19.2716 8.90684 20.0953ZM9.85155 14.4676C10.1157 13.958 10.3956 13.4463 10.6909 12.9348C10.9862 12.4233 11.2893 11.9251 11.5987 11.4415C10.6506 11.5605 9.7493 11.7166 8.90684 11.9048C9.16508 12.7285 9.48052 13.5871 9.85155 14.4676ZM9.10188 16C8.50482 17.2971 8.01527 18.5675 7.64015 19.7758C7.08833 19.6196 6.56925 19.4486 6.08719 19.2645C4.8325 18.7854 3.86205 18.2309 3.21671 17.6483C2.57129 17.0657 2.30435 16.5076 2.30435 16.0001C2.30435 15.4925 2.57129 14.9344 3.21671 14.3518C3.86205 13.7692 4.8325 13.2147 6.08719 12.7356C6.56925 12.5516 7.08833 12.3805 7.64015 12.2243C8.01527 13.4326 8.50482 14.703 9.10188 16ZM14.2529 9.90914C14.8263 9.88302 15.4094 9.86962 16 9.86962C16.5906 9.86962 17.1737 9.88302 17.7471 9.90914C17.1701 9.14754 16.5842 8.44507 16 7.80958C15.4158 8.44507 14.8299 9.14754 14.2529 9.90914Z" fill="black"/>
</svg>