<svg viewBox="0 0 32 32" xmlns="http://www.w3.org/2000/svg">
<path d="M16 15.65L11.71 19.94L10.29 18.52L14.59 14.23L10.29 9.94002L11.71 8.52002L16 12.82L20.29 8.52002L21.71 9.94002L17.41 14.23L21.71 18.52L20.29 19.94L16 15.65Z"/>
<path fill-rule="evenodd" clip-rule="evenodd" d="M6 3H26C27.1 3 28 3.9 28 5V14C28 24.2609 20.4581 27.2888 16.3926 28.9209L16.37 28.93L16 29.08L15.63 28.93L15.6209 28.9263C11.5487 27.2955 4 24.2723 4 14V5C4 3.9 4.9 3 6 3ZM16 26.92C20.91 24.92 26 22.03 26 14V5H6V14C6 22.03 11.09 24.92 16 26.92Z"/>
</svg>