<svg viewBox="0 0 32 32" xmlns="http://www.w3.org/2000/svg">
<path d="M26.9201 3H5.08008C4.53008 3 4.08008 3.45 4.08008 4V13.83C4.08008 23.56 10.5601 26.82 15.9701 28.99C15.9901 28.99 16.0001 28.99 16.0201 28.99C21.4301 26.82 27.9101 23.56 27.9101 13.83V4C27.9101 3.45 27.4601 3 26.9101 3H26.9201ZM22.3701 17.86L19.6301 20.6C19.6301 20.6 19.5601 20.63 19.5401 20.6L16.0501 17.11C16.0501 17.11 15.9801 17.08 15.9601 17.11L12.4701 20.6C12.4701 20.6 12.4001 20.63 12.3801 20.6L9.64008 17.86C9.64008 17.86 9.61008 17.79 9.64008 17.77L13.1301 14.28C13.1301 14.28 13.1601 14.21 13.1301 14.19L9.64008 10.7C9.64008 10.7 9.61008 10.63 9.64008 10.61L12.3801 7.87C12.3801 7.87 12.4501 7.84 12.4701 7.87L15.9601 11.36C15.9601 11.36 16.0301 11.39 16.0501 11.36L19.5401 7.87C19.5401 7.87 19.6101 7.84 19.6301 7.87L22.3701 10.61C22.3701 10.61 22.4001 10.68 22.3701 10.7L18.8801 14.19C18.8801 14.19 18.8501 14.26 18.8801 14.28L22.3701 17.77C22.3701 17.77 22.4001 17.84 22.3701 17.86Z" fill="black"/>
</svg>