<svg viewBox="0 0 32 32" xmlns="http://www.w3.org/2000/svg">
<path fill-rule="evenodd" clip-rule="evenodd" d="M5 2C4.44772 2 4 2.44772 4 3V9H20V3C20 2.44772 19.5523 2 19 2H5ZM10 6H14V4H10V6Z" fill="black"/>
<path fill-rule="evenodd" clip-rule="evenodd" d="M4 18V11H20V18H4ZM10 15H14V13H10V15Z" fill="black"/>
<path d="M4 20V27C4 27.5523 4.44772 28 5 28H12V24H10V22H12.2676C12.6134 21.4022 13.2597 21 14 21H20V20H4Z" fill="black"/>
<path d="M19.3183 23.9889C19.5976 23.4642 20.3126 23 21.3741 23C23.2958 23 23.6421 24.4228 23.6421 25.0182V29.1956L25.5197 26.2436L23.6762 23.1211H25.8325L26.7487 24.8466L27.6649 23.1211H29.8212L27.9777 26.2436L30 29.4H27.8213L26.7487 27.6139L25.6761 29.4L21.7875 29.4V25.6539C21.7875 24.7659 21.4523 24.4834 20.8713 24.4834C20.0892 24.4834 19.7428 25.0787 19.7428 25.9566V29.4H17.8993V25.6539C17.8993 24.7659 17.5641 24.4834 16.9831 24.4834C16.2011 24.4834 15.8547 25.0888 15.8547 25.9566V29.4H14V23.1211H15.4748L15.5754 23.8678H15.6089C16.0335 23.2624 16.6368 23 17.4077 23C18.3574 23 18.9942 23.444 19.2847 23.9889H19.3183Z" fill="black"/>
</svg>