<svg viewBox="0 0 32 32" xmlns="http://www.w3.org/2000/svg">
<path fill-rule="evenodd" clip-rule="evenodd" d="M5 2C4.44772 2 4 2.44772 4 3V9H20V3C20 2.44772 19.5523 2 19 2H5ZM10 6H14V4H10V6Z" fill="black"/>
<path fill-rule="evenodd" clip-rule="evenodd" d="M4 18V11H20V13H18.2361C17.4785 13 16.786 13.428 16.4472 14.1056L14.5 18H4ZM10 15H14V13H10V15Z" fill="black"/>
<path d="M4 20H14V22H10V24H14V28H5C4.44772 28 4 27.5523 4 27V20Z" fill="black"/>
<path fill-rule="evenodd" clip-rule="evenodd" d="M18 15H28L30 19V28C30 29.1046 29.1046 30 28 30H18C16.8954 30 16 29.1046 16 28V19L18 15ZM18.7361 18L19.2361 17H26.7639L27.2639 18H18.7361ZM20 20H18V28H28V20H26V24H20V20ZM24 20H22V22H24V20Z" fill="black"/>
</svg>