<svg viewBox="0 0 32 32" xmlns="http://www.w3.org/2000/svg">
<path d="M14 15H10V13H14V15Z" fill="black"/>
<path d="M14 7H10V5H14V7Z" fill="black"/>
<path fill-rule="evenodd" clip-rule="evenodd" d="M4 4C4 2.89543 4.89543 2 6 2H18C19.1046 2 20 2.89543 20 4V20H6V26H12V28H6C4.89543 28 4 27.1046 4 26V4ZM6 12H18V18H6V12ZM6 10H18V4L6 4V10Z" fill="black"/>
<path d="M10 23H12V21H10V23Z" fill="black"/>
<path d="M19.3183 23.9889C19.5976 23.4642 20.3126 23 21.3741 23C23.2958 23 23.6421 24.4228 23.6421 25.0182V29.1956L25.5197 26.2436L23.6762 23.1211H25.8325L26.7487 24.8466L27.6649 23.1211H29.8212L27.9777 26.2436L30 29.4H27.8213L26.7487 27.6139L25.6761 29.4L21.7875 29.4V25.6539C21.7875 24.7659 21.4523 24.4834 20.8713 24.4834C20.0892 24.4834 19.7428 25.0787 19.7428 25.9566V29.4H17.8993V25.6539C17.8993 24.7659 17.5641 24.4834 16.9831 24.4834C16.2011 24.4834 15.8547 25.0888 15.8547 25.9566V29.4H14V23.1211H15.4748L15.5754 23.8678H15.6089C16.0335 23.2624 16.6368 23 17.4077 23C18.3574 23 18.9942 23.444 19.2847 23.9889H19.3183Z" fill="black"/>
</svg>