<svg viewBox="0 0 32 32" xmlns="http://www.w3.org/2000/svg">
<path fill-rule="evenodd" clip-rule="evenodd" d="M4 3C4 2.44772 4.44772 2 5 2H19C19.5523 2 20 2.44772 20 3V9H4V3ZM14 6H10V4H14V6Z" fill="black"/>
<path fill-rule="evenodd" clip-rule="evenodd" d="M4 11V18H19L17.4142 16.4142C16.6332 15.6332 16.6332 14.3668 17.4142 13.5858L18.5858 12.4142C18.9763 12.0237 19.4882 11.8284 20 11.8284V11H4ZM14 15H10V13H14V15Z" fill="black"/>
<path fill-rule="evenodd" clip-rule="evenodd" d="M20 25.3542C19.3776 26.0593 19 26.9856 19 28H5C4.44772 28 4 27.5523 4 27V20H20V25.3542ZM10 24H14V22H10V24Z" fill="black"/>
<path d="M27.482 21.0678L24.9323 18.518C24.9765 18.3528 25 18.1792 25 18C25 16.8955 24.1046 16 23 16C22.8209 16 22.6472 16.0236 22.482 16.0678L20.0126 13.5984L18.5984 15.0126L21.0678 17.482C21.0236 17.6472 21 17.8209 21 18C21 18.7403 21.4022 19.3867 22 19.7325V26.2676C21.4022 26.6134 21 27.2597 21 28C21 29.1046 21.8955 30 23 30C24.1046 30 25 29.1046 25 28C25 27.2597 24.5978 26.6134 24 26.2676L24 20.4142L26.0678 22.482C26.0236 22.6472 26 22.8209 26 23C26 24.1046 26.8955 25 28 25C29.1046 25 30 24.1046 30 23C30 21.8955 29.1046 21 28 21C27.8209 21 27.6472 21.0236 27.482 21.0678Z" fill="black"/>
</svg>