<svg viewBox="0 0 32 32" xmlns="http://www.w3.org/2000/svg">
<path d="M14 7H10V5H14V7Z" fill="black"/>
<path fill-rule="evenodd" clip-rule="evenodd" d="M4 4C4 2.89543 4.89543 2 6 2H18C19.1046 2 20 2.89543 20 4V12H6V18H18V20H6V26H19V28H6C4.89543 28 4 27.1046 4 26V4ZM6 10H18V4L6 4V10Z" fill="black"/>
<path d="M14 15H10V13H14V15Z" fill="black"/>
<path d="M10 23H14V21H10V23Z" fill="black"/>
<path d="M27.482 21.0678L24.9323 18.518C24.9765 18.3528 25 18.1792 25 18C25 16.8955 24.1046 16 23 16C22.8209 16 22.6472 16.0236 22.482 16.0678L20.0126 13.5984L18.5984 15.0126L21.0678 17.482C21.0236 17.6472 21 17.8209 21 18C21 18.7403 21.4022 19.3867 22 19.7325V26.2676C21.4022 26.6134 21 27.2597 21 28C21 29.1046 21.8955 30 23 30C24.1046 30 25 29.1046 25 28C25 27.2597 24.5978 26.6134 24 26.2676L24 20.4142L26.0678 22.482C26.0236 22.6472 26 22.8209 26 23C26 24.1046 26.8955 25 28 25C29.1046 25 30 24.1046 30 23C30 21.8955 29.1046 21 28 21C27.8209 21 27.6472 21.0236 27.482 21.0678Z" fill="black"/>
</svg>