<svg viewBox="0 0 32 32" xmlns="http://www.w3.org/2000/svg">
<path d="M14 7H10V5H14V7Z" fill="black"/>
<path fill-rule="evenodd" clip-rule="evenodd" d="M4 4C4 2.89543 4.89543 2 6 2H18C19.1046 2 20 2.89543 20 4V13H18V12H6V18H14V20H6V26H14V28H6C4.89543 28 4 27.1046 4 26V4ZM6 10H18V4L6 4V10Z" fill="black"/>
<path d="M14 15H10V13H14V15Z" fill="black"/>
<path d="M10 23H14V21H10V23Z" fill="black"/>
<path fill-rule="evenodd" clip-rule="evenodd" d="M18 15H28L30 19V28C30 29.1046 29.1046 30 28 30H18C16.8954 30 16 29.1046 16 28V19L18 15ZM18.7361 18L19.2361 17H26.7639L27.2639 18H18.7361ZM20 20H18V28H28V20H26V24H20V20ZM24 20H22V22H24V20Z" fill="black"/>
</svg>