<svg viewBox="0 0 32 32" xmlns="http://www.w3.org/2000/svg">
<path fill-rule="evenodd" clip-rule="evenodd" d="M7 18.11C7 16.46 8.35 15.11 10 15.11C11.65 15.11 13 16.46 13 18.11C13 19.76 11.65 21.11 10 21.11C8.35 21.11 7 19.76 7 18.11ZM9 18.11C9 18.66 9.45 19.11 10 19.11C10.55 19.11 11 18.66 11 18.11C11 17.56 10.55 17.11 10 17.11C9.45 17.11 9 17.56 9 18.11Z"/>
<path fill-rule="evenodd" clip-rule="evenodd" d="M19 18.11C19 16.46 20.35 15.11 22 15.11C23.65 15.11 25 16.46 25 18.11C25 19.76 23.65 21.11 22 21.11C20.35 21.11 19 19.76 19 18.11ZM21 18.11C21 18.66 21.45 19.11 22 19.11C22.55 19.11 23 18.66 23 18.11C23 17.56 22.55 17.11 22 17.11C21.45 17.11 21 17.56 21 18.11Z"/>
<path d="M19 22.11H13V24.11H19V22.11Z"/>
<path fill-rule="evenodd" clip-rule="evenodd" d="M22.77 11.11C24.84 11.11 26.62 12.36 27.47 14.16C29.45 14.39 31 16.06 31 18.11V21.11C31 23.15 29.45 24.83 27.47 25.06C26.62 26.86 24.83 28.11 22.77 28.11H9.23C7.16 28.11 5.38 26.86 4.53 25.06C2.55 24.83 1 23.16 1 21.11V18.11C1 16.07 2.55 14.39 4.53 14.16C5.38 12.36 7.17 11.11 9.23 11.11H15V8.92999C13.84 8.50999 13 7.40999 13 6.10999C13 4.45999 14.35 3.10999 16 3.10999C17.65 3.10999 19 4.45999 19 6.10999C19 7.41999 18.16 8.51999 17 8.92999V11.11H22.77ZM17 6.10999C17 5.55999 16.55 5.10999 16 5.10999C15.45 5.10999 15 5.55999 15 6.10999C15 6.65999 15.45 7.10999 16 7.10999C16.55 7.10999 17 6.65999 17 6.10999ZM3 18.11V21.11C3 21.85 3.41 22.49 4.01 22.84V16.38C3.41 16.73 3 17.37 3 18.11ZM22.77 26.11C24.55 26.11 26 24.58 26 22.7V16.52C26 14.64 24.55 13.11 22.77 13.11H9.23C7.45 13.11 6 14.64 6 16.52V22.7C6 24.58 7.45 26.11 9.23 26.11H22.77ZM27.99 22.84C28.59 22.49 29 21.85 29 21.11V18.11C29 17.37 28.59 16.73 27.99 16.38V22.84Z"/>
</svg>