<svg viewBox="0 0 32 32" xmlns="http://www.w3.org/2000/svg">
<path fill-rule="evenodd" clip-rule="evenodd" d="M17 12H22.39C24.94 12 27.01 14.24 27.01 17V23C27.01 25.76 24.94 28 22.39 28H9.62C7.07 28 5 25.76 5 23V17C5 14.24 7.07 12 9.62 12H15V7.72C14.4 7.38 14 6.74 14 6C14 4.9 14.9 4 16 4C17.1 4 18 4.9 18 6C18 6.74 17.6 7.37 17 7.72V12ZM8 18C8 19.1 8.9 20 10 20C11.1 20 12 19.1 12 18C12 16.9 11.1 16 10 16C8.9 16 8 16.9 8 18ZM20 18C20 19.1 20.9 20 22 20C23.1 20 24 19.1 24 18C24 16.9 23.1 16 22 16C20.9 16 20 16.9 20 18ZM13 25H19V23H13V25Z" fill="black"/>
<path d="M2 18V22C2 23.1 2.9 24 4 24V16C2.89 16 2 16.9 2 18Z" fill="black"/>
<path d="M28 16V24C29.1 24 30 23.1 30 22V18C30 16.9 29.11 16 28 16Z" fill="black"/>
</svg>