<svg viewBox="0 0 32 32" xmlns="http://www.w3.org/2000/svg">
<path fill-rule="evenodd" clip-rule="evenodd" d="M20.9282 3.93156C19.2113 4.79088 17.6318 5.92486 16.2565 7.30012L15.2253 8.33133L15.2072 8.3285L7.40457 16.1311L7.53833 15.9974L16.0236 24.4827L24.5088 15.9974L24.5193 16.0079L24.7418 15.7854C26.1171 14.4101 27.2511 12.8307 28.1104 11.1137L20.9282 3.93156ZM18.6896 29.2686L16.9558 26.3789L24.0908 19.2438L24.7811 23.6505C24.8305 23.9662 24.7261 24.2865 24.5002 24.5124L19.6284 29.3842C19.3524 29.6602 18.8905 29.6033 18.6896 29.2686ZM5.6368 15.0705L12.7618 7.94549L8.39136 7.26096C8.07571 7.21152 7.75543 7.31589 7.52951 7.54181L2.65772 12.4136C2.3817 12.6896 2.43857 13.1515 2.77329 13.3524L5.6368 15.0705ZM5.45429 18.4535L6.59539 17.8829L14.1378 25.4254L13.5673 26.5665C13.3841 26.9328 12.896 27.012 12.6064 26.7224L5.29835 19.4144C5.00877 19.1248 5.08799 18.6366 5.45429 18.4535ZM28.9577 9.13264C29.3656 7.995 29.6601 6.81295 29.833 5.60307L30.0215 4.28313C30.2101 2.9632 29.0787 1.83183 27.7588 2.02039L26.4389 2.20895C25.229 2.38179 24.0469 2.67631 22.9093 3.08423L28.9577 9.13264ZM4.86891 21.8134C3.76888 23.3149 2.90507 24.9825 2.31295 26.7589L2.09315 27.4183C1.57198 28.9818 3.05946 30.4693 4.62297 29.9481L5.28236 29.7283C7.05873 29.1362 8.72639 28.2724 10.2279 27.1724L8.79483 25.7393C7.52621 26.6315 6.13054 27.3374 4.6499 27.831L3.99052 28.0508L4.21031 27.3914C4.70386 25.9107 5.40976 24.5151 6.302 23.2464L4.86891 21.8134ZM18.8787 13.1213C20.0503 14.2929 21.9497 14.2929 23.1213 13.1213C24.2929 11.9497 24.2929 10.0503 23.1213 8.87868C21.9497 7.70711 20.0503 7.70711 18.8787 8.87868C17.7071 10.0503 17.7071 11.9497 18.8787 13.1213Z" fill="black"/>
</svg>