<svg viewBox="0 0 32 32" xmlns="http://www.w3.org/2000/svg">
<path fill-rule="evenodd" clip-rule="evenodd" d="M19.085 12.9572C20.2566 14.1288 22.1561 14.1288 23.3276 12.9572C24.4992 11.7856 24.4992 9.88615 23.3276 8.71457C22.1561 7.543 20.2566 7.543 19.085 8.71457C17.9134 9.88615 17.9134 11.7856 19.085 12.9572ZM20.4992 11.543C20.8897 11.9335 21.5229 11.9335 21.9134 11.543C22.3039 11.1525 22.3039 10.5193 21.9134 10.1288C21.5229 9.73826 20.8897 9.73826 20.4992 10.1288C20.1087 10.5193 20.1087 11.1525 20.4992 11.543Z"/>
<path fill-rule="evenodd" clip-rule="evenodd" d="M26.4389 2.2092C22.5833 2.75999 19.0105 4.54642 16.2565 7.30037L15.2253 8.33158L8.89367 7.33988C8.26236 7.241 7.62182 7.44974 7.16998 7.90158L3.01997 12.0516C2.55994 12.5116 2.65472 13.2815 3.21258 13.6162L8.39969 16.7285L8.365 16.7433C7.06447 17.3007 6.73812 18.9953 7.73862 19.9958L12.0462 24.3034C13.0467 25.3039 14.7414 24.9776 15.2987 23.6771L15.3137 23.6422L18.4261 28.8295C18.7608 29.3874 19.5306 29.4822 19.9907 29.0222L24.1407 24.8721C24.5925 24.4203 24.8012 23.7798 24.7024 23.1485L23.7107 16.8169L24.7418 15.7856C27.4958 13.0317 29.2822 9.45883 29.833 5.60331L30.0215 4.28338C30.2101 2.96344 29.0787 1.83207 27.7588 2.02064L26.4389 2.2092ZM16.2565 21.4425L23.3276 14.3714C24.7909 12.9082 25.9468 11.1848 26.7446 9.30319L22.739 5.29756C20.8574 6.09535 19.134 7.25132 17.6707 8.71458L10.5997 15.7856L16.2565 21.4425ZM24.8433 4.57346L27.4687 7.19886C27.6336 6.5834 27.7622 5.95626 27.8531 5.32047L28.0416 4.00053L26.7217 4.1891C26.0859 4.27992 25.4588 4.40855 24.8433 4.57346ZM21.9604 18.5671L17.3608 23.1668L19.4821 26.7023L22.7265 23.4579L21.9604 18.5671ZM8.87536 14.6815L13.475 10.0818L8.58419 9.31579L5.33983 12.5602L8.87536 14.6815ZM10.1428 18.1573L9.15284 18.5816L13.4604 22.8892L13.8847 21.8993L10.1428 18.1573Z"/>
<path d="M2.31295 26.7591C3.04416 24.5655 4.18967 22.5376 5.68269 20.7837L7.10204 22.203C5.82545 23.7336 4.84326 25.4927 4.21031 27.3916L3.99052 28.0509L4.6499 27.8311C6.54874 27.1982 8.30782 26.216 9.83841 24.9394L11.2578 26.3588C9.50381 27.8518 7.47598 28.9973 5.28236 29.7285L4.62297 29.9483C3.05946 30.4695 1.57198 28.982 2.09315 27.4185L2.31295 26.7591Z"/>
</svg>