<svg viewBox="0 0 32 32" xmlns="http://www.w3.org/2000/svg">
<path d="M2.01998 2L1.97998 4C16.33 4.3 27.52 15.5 28 30.03L30 29.96C29.48 14.35 17.45 2.33 2.01998 2Z"/>
<path d="M2.01997 12L1.96997 14C10.57 14.2 17.6 21.25 17.99 30.04L19.99 29.95C19.55 20.11 11.66 12.22 2.00997 11.99L2.01997 12Z"/>
<path fill-rule="evenodd" clip-rule="evenodd" d="M2 26C2 23.76 3.76 22 6 22C8.24 22 10 23.76 10 26C10 28.24 8.24 30 6 30C3.76 30 2 28.24 2 26ZM4 26C4 27.14 4.86 28 6 28C7.14 28 8 27.14 8 26C8 24.86 7.14 24 6 24C4.86 24 4 24.86 4 26Z"/>
</svg>