<svg viewBox="0 0 32 32" xmlns="http://www.w3.org/2000/svg">
<path d="M28.9592 14.158C28.138 15.4712 27.3167 16.7843 26.4543 18.1618C25.6021 16.8018 24.7808 15.4926 23.9596 14.1826C23.9303 14.1897 23.9009 14.1969 23.8723 14.2032V20.6168H21.918V10.685C22.6012 10.685 23.2812 10.6723 23.9596 10.6993C24.0564 10.7032 24.1659 10.8842 24.2357 11.0032C24.903 12.1275 25.5624 13.2566 26.2257 14.3833C26.2916 14.4952 26.3694 14.5999 26.4733 14.7555C26.7851 14.231 27.074 13.747 27.3612 13.2606C27.8174 12.4869 28.2618 11.7062 28.7378 10.9453C28.8219 10.8112 29.037 10.6921 29.1973 10.6842C29.7876 10.6533 30.3811 10.6723 31 10.6723V20.6096H29.0457V14.1802C29.0163 14.1731 28.9886 14.1651 28.9592 14.158Z"/>
<path d="M1 19.0544C1.40387 18.5458 1.77204 18.0824 2.15687 17.5976C2.48695 17.8198 2.80354 18.0483 3.13521 18.2522C3.80092 18.6609 4.53011 18.8037 5.30136 18.7101C5.92978 18.6339 6.26145 18.2999 6.20273 17.7373C6.17972 17.5215 6.0361 17.2287 5.86075 17.135C5.41165 16.897 4.91097 16.7566 4.4349 16.5669C3.71602 16.2797 2.97096 16.0385 2.29176 15.6743C1.67048 15.341 1.43164 14.6983 1.36896 14.0112C1.14679 11.5776 3.02809 10.5366 4.88955 10.7017C6.16385 10.8143 7.23502 11.2642 7.88169 11.9442C7.55399 12.4417 7.22233 12.9448 6.88828 13.451C6.50345 13.2384 6.15433 13.0281 5.79013 12.8488C5.27041 12.5925 4.71816 12.4766 4.13814 12.5671C3.67714 12.6393 3.37483 12.9146 3.30977 13.3034C3.24312 13.7009 3.4272 14.0461 3.88741 14.2302C4.38808 14.4309 4.91573 14.565 5.42672 14.7404C5.85123 14.8864 6.28049 15.0252 6.68753 15.2109C7.79124 15.7132 8.26732 16.6018 8.19591 17.7936C8.12846 18.9124 7.64762 19.8019 6.58676 20.2303C4.71261 20.9865 2.99318 20.5477 1.40467 19.4051C1.26819 19.3068 1.14996 19.1846 1.00079 19.0536L1 19.0544Z"/>
<path d="M16.1527 11.3975C15.825 11.8958 15.4926 12.4013 15.1879 12.8646C14.6848 12.7781 14.2111 12.6258 13.7382 12.6314C12.6544 12.6433 11.8911 13.228 11.4523 14.1921C10.9833 15.222 11.0095 16.2733 11.53 17.285C12.16 18.5093 13.4851 19.0148 14.792 18.5553C14.8911 18.5204 14.9903 18.4863 15.1347 18.4355C15.464 18.9378 15.7949 19.4416 16.1242 19.9423C14.9157 21.1436 11.9188 20.7961 10.4636 19.2988C8.51408 17.2937 8.59264 13.8596 10.6318 11.9006C12.0648 10.5247 15.0514 10.2375 16.1527 11.3975Z"/>
<path d="M17.5524 20.6382V10.6755C17.9531 10.6755 18.3324 10.6628 18.7101 10.6842C18.8053 10.6898 18.9418 10.7842 18.9775 10.8715C19.2433 11.5292 19.5043 12.1902 19.7281 12.8623C19.7717 12.9932 19.6741 13.1979 19.5908 13.3391C19.3972 13.6684 19.4313 13.9604 19.6519 14.2572C19.9272 14.6277 20.1923 15.0062 20.4636 15.3799C20.8246 15.8766 20.7651 16.1702 20.2422 16.4693C19.7812 16.7328 19.7178 16.851 19.928 17.3183C20.0812 17.6595 19.9336 17.8381 19.6329 18.0063C19.8304 18.2221 19.8566 18.4165 19.6138 18.6101C19.5527 18.6585 19.5607 18.8259 19.5765 18.933C19.7606 20.1716 19.2933 20.6898 18.0309 20.6382C17.8872 20.6326 17.7428 20.6382 17.5524 20.6382Z"/>
</svg>