<svg viewBox="0 0 32 32" xmlns="http://www.w3.org/2000/svg">
<path d="M27.49 7.29L14.6 14.84L9.66 11.95C11.26 11.2 12.38 9.58 12.38 7.69C12.38 5.1 10.28 3 7.69 3C5.1 3 3 5.11 3 7.69C3 9.46 3.79 10.8 5.43 11.78L12.62 15.99L5.42 20.21C3.79 21.19 3 22.52 3 24.3C3 26.89 5.1 28.99 7.69 28.99C10.28 28.99 12.38 26.88 12.38 24.3C12.38 22.42 11.27 20.79 9.66 20.04L14.6 17.15L27.49 24.7L28.5 22.97L16.58 15.99L28.5 9.01L27.49 7.28V7.29ZM7.69 10.38H7L6.45 10.06C5.4 9.43 5 8.77 5 7.69C5 6.21 6.21 5 7.69 5C9.17 5 10.38 6.21 10.38 7.69C10.38 9.17 9.17 10.38 7.69 10.38ZM10.38 24.3C10.38 25.78 9.17 26.99 7.69 26.99C6.21 26.99 5 25.78 5 24.3C5 23.22 5.41 22.55 6.44 21.93L6.99 21.6H7.68C9.16 21.6 10.37 22.81 10.37 24.29L10.38 24.3Z"/>
</svg>