<svg viewBox="0 0 32 32" xmlns="http://www.w3.org/2000/svg">
<path d="M8 8H6V10H8V8Z" fill="black"/>
<path d="M22 8H11V10H22V8Z" fill="black"/>
<path fill-rule="evenodd" clip-rule="evenodd" d="M2 22C2 23.1023 2.89772 24 4 24H16V22H4V14.3862L4.40231 14H23.5658L24 14.4645V16H26V13.6755L25.3842 13.0165L26 12.3884V4C26 2.89771 25.1023 2 24 2H4C2.89772 2 2 2.89771 2 4V12.35L2.58895 12.9684L2 13.5338V22ZM4 11.55L4.42857 12H23.58L24 11.5716V4H4V11.55Z" fill="black"/>
<path d="M8 18H6V20H8V18Z" fill="black"/>
<path fill-rule="evenodd" clip-rule="evenodd" d="M20.1716 26.8995L18.0503 24.7782V21.9497L23 17L26.5355 20.5355L24.2426 22.8284L29.7071 28.2929L28.2929 29.7071L22.8284 24.2427L20.1716 26.8995ZM20.0503 23.9497V22.7782L23 19.8284L23.7071 20.5355L20.1716 24.0711L20.0503 23.9497Z" fill="black"/>
<path d="M17 18H11V20H17V18Z" fill="black"/>
</svg>