<svg viewBox="0 0 32 32" xmlns="http://www.w3.org/2000/svg">
<path fill-rule="evenodd" clip-rule="evenodd" d="M3 2C2.44772 2 2 2.44772 2 3V11C2 11.5523 2.44772 12 3 12H25C25.5523 12 26 11.5523 26 11V3C26 2.44772 25.5523 2 25 2H3ZM8 6H6V8H8V6ZM22 6H11V8H22V6Z" fill="black"/>
<path fill-rule="evenodd" clip-rule="evenodd" d="M2 15C2 14.4477 2.44772 14 3 14H25C25.5523 14 26 14.4477 26 15V17.1716L24.4142 15.5858C23.6331 14.8047 22.3668 14.8047 21.5858 15.5858L16.9289 20.2426C16.3663 20.8052 16.0502 21.5683 16.0502 22.364V24H3C2.44772 24 2 23.5523 2 23V15ZM11 18H17V20H11V18ZM8 18H6V20H8V18Z" fill="black"/>
<path fill-rule="evenodd" clip-rule="evenodd" d="M18.0503 24.7782L20.1716 26.8995L22.8284 24.2427L28.2929 29.7071L29.7071 28.2929L24.2426 22.8284L26.5355 20.5355L23 17L18.0503 21.9497V24.7782ZM20.0503 22.7782V23.9497L20.1716 24.0711L23.7071 20.5355L23 19.8284L20.0503 22.7782Z" fill="black"/>
</svg>