<svg viewBox="0 0 32 32" xmlns="http://www.w3.org/2000/svg">
<path fill-rule="evenodd" clip-rule="evenodd" d="M19.77 2C17.7601 2 15.9457 3.38905 15.7147 5.35449C13.7103 5.51824 11.99 7.0537 11.99 9.12V10.23C11.99 12.4053 13.9155 14.01 16.07 14.01L24.92 14.01L25.9254 14C28.1931 13.9972 30.2296 12.21 29.9744 9.8443C29.7563 7.76298 27.7556 6.45 25.79 6.45H25.69V5.78C25.69 3.60475 23.7645 2 21.61 2H19.77ZM17.69 5.78C17.69 4.88746 18.522 4 19.77 4H21.61C22.8555 4 23.69 4.89525 23.69 5.78V8.45H25.79C27.0238 8.45 27.9023 9.25613 27.9854 10.0536L27.9858 10.0578C28.089 11.0092 27.2495 12 25.92 12L24.915 12.01H16.07C14.8245 12.01 13.99 11.1147 13.99 10.23V9.12C13.99 8.22746 14.822 7.34 16.07 7.34H17.69V5.78Z" fill="black"/>
<path d="M6 26H8V24H6V26Z" fill="black"/>
<path d="M11 26H22V24H11V26Z" fill="black"/>
<path fill-rule="evenodd" clip-rule="evenodd" d="M2 10C2 8.89772 2.89772 8 4 8H8V10H4V17.6138L4.40231 18H23.5658L24 17.5355V16H26V18.3245L25.3842 18.9835L26 19.6116V28C26 29.1023 25.1023 30 24 30H4C2.89772 30 2 29.1023 2 28V19.65L2.58895 19.0316L2 18.4662V10ZM4 20.45L4.42857 20H23.58L24 20.4284V28H4V20.45Z" fill="black"/>
<path d="M6 16H8V14H6V16Z" fill="black"/>
</svg>