<svg viewBox="0 0 32 32" xmlns="http://www.w3.org/2000/svg">
<path fill-rule="evenodd" clip-rule="evenodd" d="M15.7147 5.35449C15.9457 3.38905 17.7601 2 19.77 2H21.61C23.7645 2 25.69 3.60475 25.69 5.78V6.45H25.79C27.7556 6.45 29.7563 7.76298 29.9744 9.8443C30.2296 12.21 28.1931 13.9972 25.9254 14L24.92 14.01L16.07 14.01C13.9155 14.01 11.99 12.4053 11.99 10.23V9.12C11.99 7.0537 13.7103 5.51824 15.7147 5.35449ZM19.77 4C18.522 4 17.69 4.88746 17.69 5.78V7.34H16.07C14.822 7.34 13.99 8.22746 13.99 9.12V10.23C13.99 11.1147 14.8245 12.01 16.07 12.01H24.915L25.92 12C27.2495 12 28.089 11.0092 27.9858 10.0578L27.9854 10.0536C27.9023 9.25613 27.0238 8.45 25.79 8.45H23.69V5.78C23.69 4.89525 22.8555 4 21.61 4H19.77Z" fill="black"/>
<path fill-rule="evenodd" clip-rule="evenodd" d="M3 8H10V11C10 13.7614 12.2386 16 15 16H26V17C26 17.55 25.55 18 25 18H3C2.45 18 2 17.55 2 17V9C2 8.45 2.45 8 3 8ZM6 14H8V12H6V14Z" fill="black"/>
<path fill-rule="evenodd" clip-rule="evenodd" d="M3 20H25C25.55 20 26 20.45 26 21V29C26 29.55 25.55 30 25 30H3C2.45 30 2 29.55 2 29V21C2 20.45 2.45 20 3 20ZM6 26H8V24H6V26ZM11 26H22V24H11V26Z" fill="black"/>
</svg>