<svg viewBox="0 0 32 32" xmlns="http://www.w3.org/2000/svg">
<path fill-rule="evenodd" clip-rule="evenodd" d="M18 9C16.7 9 15.6 9.84 15.18 11H8V13H15.18C15.59 14.16 16.69 15 18 15C19.31 15 20.4 14.16 20.82 13H24V11H20.82C20.41 9.84 19.31 9 18 9ZM18 13C17.45 13 17 12.55 17 12C17 11.45 17.45 11 18 11C18.55 11 19 11.45 19 12C19 12.55 18.55 13 18 13Z"/>
<path fill-rule="evenodd" clip-rule="evenodd" d="M11.18 19C11.6 17.84 12.7 17 14 17C15.31 17 16.41 17.84 16.82 19H24V21H16.82C16.4 22.16 15.31 23 14 23C12.69 23 11.59 22.16 11.18 21H8V19H11.18ZM13 20C13 20.55 13.45 21 14 21C14.55 21 15 20.55 15 20C15 19.45 14.55 19 14 19C13.45 19 13 19.45 13 20Z"/>
<path fill-rule="evenodd" clip-rule="evenodd" d="M26 4H6C4.9 4 4 4.9 4 6V26C4 27.1 4.9 28 6 28H26C27.1 28 28 27.1 28 26V6C28 4.9 27.1 4 26 4ZM6 26V6H26V26H6Z"/>
</svg>