<svg viewBox="0 0 32 32" xmlns="http://www.w3.org/2000/svg">
<path fill-rule="evenodd" clip-rule="evenodd" d="M19 5C20.86 5 22.41 6.28 22.86 8H28V10H22.86C22.41 11.72 20.86 13 19 13C17.14 13 15.59 11.72 15.14 10H4V8H15.14C15.59 6.28 17.14 5 19 5ZM17 9C17 10.1 17.9 11 19 11C20.1 11 21 10.1 21 9C21 7.9 20.1 7 19 7C17.9 7 17 7.9 17 9Z"/>
<path fill-rule="evenodd" clip-rule="evenodd" d="M9.14 22C9.59 20.28 11.14 19 13 19C14.86 19 16.41 20.28 16.86 22H28V24H16.86C16.41 25.72 14.86 27 13 27C11.14 27 9.59 25.72 9.14 24H4V22H9.14ZM11 23C11 24.1 11.9 25 13 25C14.1 25 15 24.1 15 23C15 21.9 14.1 21 13 21C11.9 21 11 21.9 11 23Z"/>
</svg>