<svg viewBox="0 0 32 32" xmlns="http://www.w3.org/2000/svg">
<path d="M21.2998 5.70003L22.7198 4.28003L28.4298 9.99003L22.7198 15.7L21.3098 14.29L24.6198 10.98H24.2898C20.4698 10.93 18.1598 10.91 17.1498 11.91C16.3398 12.71 16.0098 14.48 16.0098 18H14.0098C14.0098 14.42 14.2998 11.92 15.7398 10.49C17.3243 8.91535 19.9192 8.93941 24.1751 8.97887L24.2998 8.98003H24.5798L21.2998 5.70003Z"/>
<path d="M14.09 6V8H6V26H24V17.95H26V26C26 27.1 25.1 28 24 28H6C4.9 28 4 27.1 4 26V8C4 6.9 4.89 6 6 6H14.09Z"/>
</svg>