<svg viewBox="0 0 32 32" xmlns="http://www.w3.org/2000/svg">
<path d="M24 20C22.52 20 21.24 20.81 20.55 22.01L11.86 16.99C11.94 16.67 12 16.34 12 16C12 15.66 11.94 15.33 11.86 15.01L20.55 9.99C21.24 11.19 22.52 12 24 12C26.21 12 28 10.21 28 8C28 5.79 26.21 4 24 4C21.79 4 20 5.79 20 8L10.9 13.26C10.17 12.49 9.15 12 8 12C5.79 12 4 13.79 4 16C4 18.21 5.79 20 8 20C9.14 20 10.17 19.51 10.9 18.75L20 24.01C20 26.22 21.79 28.01 24 28.01C26.21 28.01 28 26.22 28 24.01C28 21.8 26.21 20.01 24 20.01V20Z" fill="black"/>
</svg>