<svg viewBox="0 0 32 32" xmlns="http://www.w3.org/2000/svg">
<path d="M24 13C26.76 13 29 10.76 29 8C29 5.24 26.76 3 24 3C21.24 3 19 5.24 19 8C19 8.19 19.04 8.36 19.06 8.54L11.77 12.75C10.85 11.69 9.51 11 8 11C5.24 11 3 13.24 3 16C3 18.76 5.24 21 8 21C9.51 21 10.85 20.31 11.77 19.25L19.06 23.46C19.04 23.64 19 23.82 19 24C19 26.76 21.24 29 24 29C26.76 29 29 26.76 29 24C29 21.24 26.76 19 24 19C22.15 19 20.56 20.02 19.69 21.51L12.74 17.5C12.89 17.02 13 16.53 13 16C13 15.47 12.9 14.98 12.74 14.5L19.69 10.49C20.56 11.98 22.15 13 24 13ZM24 21C25.65 21 27 22.35 27 24C27 25.65 25.65 27 24 27C22.35 27 21 25.65 21 24C21 22.35 22.35 21 24 21ZM8 19C6.35 19 5 17.65 5 16C5 14.35 6.35 13 8 13C9.65 13 11 14.35 11 16C11 17.65 9.65 19 8 19ZM24 5C25.65 5 27 6.35 27 8C27 9.65 25.65 11 24 11C22.35 11 21 9.65 21 8C21 6.35 22.35 5 24 5Z"/>
</svg>