<svg viewBox="0 0 32 32" xmlns="http://www.w3.org/2000/svg">
<path d="M20.5 4.11994C20.06 3.71994 19.43 3.61994 18.89 3.86994C18.35 4.10994 18 4.64994 18 5.23994V8.99994H17.01C11.94 8.96994 8.51 10.0399 6.1 12.4299C3.27 15.2399 2 19.7299 2 26.9999V27.9999H3.87L4.11 27.3399C6.61 20.3799 10.83 16.9999 17.01 16.9999H18.01V20.9899C18.01 21.5799 18.36 22.1199 18.9 22.3599C19.44 22.5999 20.07 22.4999 20.51 22.1099L28.85 14.5999C29.27 14.2199 29.51 13.6799 29.51 13.1099C29.51 12.5399 29.27 11.9999 28.85 11.6199L20.51 4.10994L20.5 4.11994ZM20 19.8699V14.9999H17C11.43 14.9999 7.15 17.4699 4.23 22.3599C4.66 18.3599 5.73 15.6099 7.51 13.8499C9.47 11.9099 12.39 10.9999 16.71 10.9999C16.81 10.9999 16.91 10.9999 17.01 10.9999H20.01V6.35994L27.51 13.1099L20.01 19.8599L20 19.8699Z"/>
</svg>