<svg viewBox="0 0 32 32" xmlns="http://www.w3.org/2000/svg">
<path fill-rule="evenodd" clip-rule="evenodd" d="M19.3846 28.5897L16 30L12.6154 28.5897C7.39833 26.416 4 21.3185 4 15.6667V7.88599C4 7.0523 4.51715 6.30606 5.29775 6.01333L15.2978 2.26333C15.7505 2.09354 16.2495 2.09354 16.7022 2.26333L26.7022 6.01333C27.4829 6.30606 28 7.0523 28 7.88599V15.6667C28 21.3185 24.6017 26.416 19.3846 28.5897ZM26 7.88599L26 15.6667C26 20.5111 23.0871 24.8803 18.6154 26.7436L16 27.8333L13.3846 26.7436C8.91285 24.8803 6 20.5111 6 15.6667V7.88599L15.6959 4.25002L12.3276 14.355L16.9077 17.9174L16.0161 22.8212L17.9839 23.1789L19.0923 17.0827L14.6724 13.645L17.6374 4.75002L26 7.88599Z" fill="black"/>
</svg>