<svg viewBox="0 0 32 32" xmlns="http://www.w3.org/2000/svg">
<path fill-rule="evenodd" clip-rule="evenodd" d="M21.7302 9.00002L22.0402 3.17002H22.0502L27.8102 2.02002L28.2002 3.98002L23.9602 4.83002L22.9502 24H10.0002V22H21.0502L21.2102 19H7.78015C6.86015 19 6.06015 18.38 5.84015 17.49L4.34015 11.49C4.19015 10.88 4.32015 10.26 4.70015 9.77002C5.09015 9.28002 5.66015 9.00002 6.28015 9.00002H7.00015V6.00002C7.00015 4.90002 7.90015 4.00002 9.00015 4.00002H17.9902C19.0902 4.00002 19.9902 4.90002 19.9902 6.00002V9.00002H21.7302ZM18.0002 6.00002H9.00015V9.00002H18.0002V6.00002Z" fill="black"/>
<path d="M11 30C12.1046 30 13 29.1046 13 28C13 26.8954 12.1046 26 11 26C9.89543 26 9 26.8954 9 28C9 29.1046 9.89543 30 11 30Z" fill="black"/>
<path d="M21 30C22.1046 30 23 29.1046 23 28C23 26.8954 22.1046 26 21 26C19.8954 26 19 26.8954 19 28C19 29.1046 19.8954 30 21 30Z" fill="black"/>
</svg>