<svg viewBox="0 0 32 32" xmlns="http://www.w3.org/2000/svg">
<path fill-rule="evenodd" clip-rule="evenodd" d="M6.17777 29.0179V23.6883C9.21098 24.6431 11.895 25.1203 14.2299 25.1203C17.4536 25.1203 19.0658 24.2683 19.0658 22.5651C19.0658 21.9301 18.8314 21.397 18.3611 20.9648C17.8803 20.5065 16.6488 19.8715 14.669 19.0575C11.1178 17.5971 8.80218 16.3519 7.72488 15.3219C6.32872 13.9624 5.63086 12.2474 5.63086 10.1758C5.63086 7.50781 6.64805 5.47389 8.68059 4.0768C10.6907 2.69165 13.3086 1.99976 16.5378 1.99976C18.317 1.99976 20.8919 2.32735 24.2605 2.98299V8.10977C21.7545 7.10864 19.4278 6.60899 17.2788 6.60899C14.252 6.60899 12.7388 7.4399 12.7388 9.10586C12.7388 9.72847 13.0434 10.2364 13.6541 10.63C14.1616 10.9485 15.5605 11.6215 17.8472 12.6511C21.1401 14.1133 23.3319 15.3847 24.4243 16.4657C25.7205 17.7481 26.3697 19.4076 26.3697 21.442C26.3697 24.366 25.0979 26.5963 22.5565 28.1328C20.4973 29.379 17.827 29.9998 14.5479 29.9998C11.7785 29.9998 8.988 29.6735 6.17822 29.0179H6.17777Z"/>
</svg>