<svg viewBox="0 0 32 32" xmlns="http://www.w3.org/2000/svg">
<path d="M25 4H31C31.5523 4 32 4.44772 32 5V27C32 27.5523 31.5523 28 31 28H25C24.4477 28 24 27.5523 24 27V5C24 4.44772 24.4477 4 25 4Z" fill="black"/>
<path d="M21 12H15C14.4477 12 14 12.4477 14 13V27C14 27.5523 14.4477 28 15 28H21C21.5523 28 22 27.5523 22 27V13C22 12.4477 21.5523 12 21 12Z" fill="black"/>
<path d="M11 20H5C4.44772 20 4 20.4477 4 21V27C4 27.5523 4.44772 28 5 28H11C11.5523 28 12 27.5523 12 27V21C12 20.4477 11.5523 20 11 20Z" fill="black"/>
</svg>