<svg viewBox="0 0 32 32" xmlns="http://www.w3.org/2000/svg">
<path d="M7.84391 19.6204C7.84391 21.2474 6.52913 22.5599 4.90445 22.5599C3.27978 22.5599 1.96272 21.2451 1.96272 19.6204C1.96272 17.9935 3.2775 16.681 4.90218 16.681H7.84163V19.6204H7.84391ZM9.31363 19.6204C9.31363 17.9935 10.6284 16.681 12.2531 16.681C13.8778 16.681 15.1925 17.9958 15.1925 19.6204V26.9713C15.1925 28.5983 13.8778 29.9108 12.2531 29.9108C10.6284 29.9108 9.31363 28.596 9.31363 26.9713V19.6204Z"/>
<path d="M12.2531 7.81491C10.6261 7.81491 9.31364 6.50013 9.31364 4.87546C9.31364 3.2485 10.6284 1.936 12.2531 1.936C13.8778 1.936 15.1925 3.25078 15.1925 4.87546V7.81491H12.2531ZM12.2531 9.30743C13.88 9.30743 15.1925 10.6222 15.1925 12.2469C15.1925 13.8738 13.8778 15.1863 12.2531 15.1863H4.87939C3.25472 15.1886 1.93994 13.8738 1.93994 12.2469C1.93994 10.6199 3.25472 9.30743 4.87939 9.30743H12.2531Z"/>
<path d="M24.036 12.2467C24.036 10.6198 25.3507 9.30729 26.9754 9.30729C28.6024 9.30729 29.9149 10.6221 29.9149 12.2467C29.9149 13.8737 28.6001 15.1862 26.9754 15.1862H24.036V12.2467ZM22.5662 12.2467C22.5662 13.8737 21.2515 15.1862 19.6268 15.1862C17.9998 15.1862 16.6873 13.8714 16.6873 12.2467V4.87305C16.6873 3.24609 18.0021 1.93359 19.6268 1.93359C21.2537 1.93359 22.5662 3.24837 22.5662 4.87305V12.2467Z"/>
<path d="M19.6268 24.0296C21.2537 24.0296 22.5662 25.3444 22.5662 26.9691C22.5662 28.596 21.2515 29.9085 19.6268 29.9085C17.9998 29.9085 16.6873 28.5937 16.6873 26.9691V24.0296H19.6268ZM19.6268 22.5599C17.9998 22.5599 16.6873 21.2451 16.6873 19.6204C16.6873 17.9935 18.0021 16.681 19.6268 16.681H27.0005C28.6274 16.681 29.9399 17.9958 29.9399 19.6204C29.9399 21.2474 28.6252 22.5599 27.0005 22.5599H19.6268Z"/>
</svg>