<svg viewBox="0 0 32 32" xmlns="http://www.w3.org/2000/svg">
<path d="M23 21H29C29.55 21 30 20.55 30 20V7L21 2L12 7V20C12 20.55 12.45 21 13 21H19V16H23V21Z" fill="black"/>
<path d="M3 15H9C9.55228 15 10 15.4477 10 16V29C10 29.5523 9.55228 30 9 30H3C2.44772 30 2 29.5523 2 29V16C2 15.4477 2.44772 15 3 15Z" fill="black"/>
<path d="M7.67005 13.2099C7.43005 12.8499 7.03005 12.4399 6.00005 12.4399C5.24005 12.4399 4.68005 12.6999 4.34005 13.2099L2.68005 12.0999C3.39005 11.0299 4.57005 10.4399 6.00005 10.4399H6.02005C7.50005 10.4399 8.62005 10.9999 9.35005 12.0999L7.69005 13.2099H7.67005Z" fill="black"/>
<path d="M5.99997 8.23999C6.86997 8.23999 7.67997 8.61999 8.21997 9.29999L9.77997 8.04999C8.85997 6.89999 7.47997 6.23999 5.99997 6.23999C4.51997 6.23999 3.13997 6.89999 2.21997 8.04999L3.77997 9.29999C4.31997 8.62999 5.12997 8.23999 5.99997 8.23999Z" fill="black"/>
</svg>