<svg viewBox="0 0 32 32" xmlns="http://www.w3.org/2000/svg">
<path d="M12 22.92V27C12 28.1 12.9 29 14 29H18C19.1 29 20 28.1 20 27V22.92C22.39 21.53 24 18.96 24 16C24 13.04 22.39 10.47 20 9.08V5C20 3.9 19.1 3 18 3H14C12.9 3 12 3.9 12 5V9.08C9.61 10.47 8 13.04 8 16C8 18.96 9.61 21.53 12 22.92ZM18 27H14V23.74C14.64 23.91 15.31 24 16 24C16.69 24 17.36 23.9 18 23.74V27ZM14 5H18V8.26C17.36 8.09 16.69 8 16 8C15.31 8 14.64 8.1 14 8.26V5ZM16 10C19.31 10 22 12.69 22 16C22 19.31 19.31 22 16 22C12.69 22 10 19.31 10 16C10 12.69 12.69 10 16 10Z"/>
</svg>