<svg viewBox="0 0 32 32" xmlns="http://www.w3.org/2000/svg">
<path fill-rule="evenodd" clip-rule="evenodd" d="M12 19.0001V6.85011L21 1.86011L30 6.85011V19.0001C30 20.1001 29.1 21.0001 28 21.0001H23V16.0001H19V21.0001H14C12.9 21.0001 12 20.1001 12 19.0001ZM25 19.0001H28V8.02011L21 4.14011L14 8.02011V19.0001H17V14.0001H25V19.0001Z"/>
<path fill-rule="evenodd" clip-rule="evenodd" d="M3.75 15H8.25C9.18 15 10 15.93 10 17V28C10 29.1 9.21 30 8.25 30H3.75C2.74 30 2 29.16 2 28V17C2 15.88 2.77 15 3.75 15ZM4 28H8V17H4V28Z"/>
<path d="M5.99004 10.4399C4.56004 10.4399 3.38004 11.0299 2.67004 12.0999L4.33004 13.2099C4.67004 12.6999 5.23004 12.4399 5.99004 12.4399C7.02004 12.4399 7.42004 12.8499 7.66004 13.2099L9.32004 12.0999C8.59004 10.9999 7.47004 10.4399 5.99004 10.4399Z"/>
<path d="M8.21997 9.29999C7.67997 8.62999 6.86997 8.23999 5.99997 8.23999C5.12997 8.23999 4.31997 8.61999 3.77997 9.29999L2.21997 8.04999C3.13997 6.89999 4.51997 6.23999 5.99997 6.23999C7.47997 6.23999 8.85997 6.89999 9.77997 8.04999L8.21997 9.29999Z"/>
</svg>