<svg viewBox="0 0 32 32" xmlns="http://www.w3.org/2000/svg">
<path fill-rule="evenodd" clip-rule="evenodd" d="M19.6337 20C19.5062 20.3099 19.3443 20.6493 19.1426 20.9855C18.483 22.0849 17.5031 23 16.0001 23C14.4971 23 13.5172 22.0849 12.8576 20.9855C12.6559 20.6493 12.4939 20.3099 12.3664 20H19.6337ZM11.0001 19C10.0195 19.1961 10.0197 19.1969 10.0197 19.1969L10.0203 19.2L10.0214 19.2057L10.025 19.2226C10.0279 19.2362 10.0319 19.2545 10.037 19.2772C10.0473 19.3226 10.0622 19.3857 10.0824 19.4639C10.1225 19.6201 10.1837 19.8381 10.2701 20.0975C10.4419 20.6128 10.7195 21.3093 11.1426 22.0145C11.983 23.4151 13.5031 25 16.0001 25C18.4971 25 20.0172 23.4151 20.8576 22.0145C21.2807 21.3093 21.5582 20.6128 21.73 20.0975C21.8165 19.8381 21.8776 19.6201 21.9178 19.4639C21.9379 19.3857 21.9528 19.3226 21.9631 19.2772C21.9683 19.2545 21.9723 19.2362 21.9752 19.2226L21.9787 19.2057L21.9799 19.2L21.9803 19.1978C21.9803 19.1978 21.9807 19.1961 21.0001 19L21.9807 19.1961L22.2199 18L9.78027 18L10.0197 19.1969L11.0001 19Z"/>
<path fill-rule="evenodd" clip-rule="evenodd" d="M28.768 19.5C29.0442 19.0217 28.8803 18.4101 28.402 18.134C28.4096 18.1383 28.4048 18.1369 28.3855 18.1313C28.3166 18.1109 28.0629 18.0361 27.5315 17.9776C27.07 17.9268 26.5358 17.9012 25.9848 17.8931C26.2673 18.3663 26.5566 18.8161 26.8314 19.1904C27.1477 19.6213 27.3394 19.8036 27.3914 19.8531C27.4059 19.8669 27.4096 19.8704 27.402 19.866C27.8803 20.1422 28.4919 19.9783 28.768 19.5ZM23.7079 17.9408C23.1208 16.8752 22.7059 16 22.7059 16C22.7059 16 23.6712 15.9218 24.8877 15.8974C26.5111 15.8649 28.5818 15.9284 29.402 16.4019C30.8369 17.2304 31.3285 19.0651 30.5001 20.5C29.6717 21.9349 27.8369 22.4265 26.402 21.5981C25.5818 21.1245 24.4915 19.363 23.7079 17.9408Z"/>
<path fill-rule="evenodd" clip-rule="evenodd" d="M3.23213 19.5C3.50827 19.9783 4.11986 20.1422 4.59816 19.866C4.59059 19.8704 4.59423 19.8669 4.60876 19.8531C4.66079 19.8036 4.85245 19.6213 5.1688 19.1903C5.44357 18.8161 5.73285 18.3662 6.01533 17.8931C5.46435 17.9012 4.93016 17.9268 4.46862 17.9776C3.93725 18.0361 3.68352 18.1109 3.61464 18.1312C3.59541 18.1369 3.59059 18.1383 3.59816 18.134C3.11986 18.4101 2.95599 19.0217 3.23213 19.5ZM7.11248 15.8974C5.48906 15.8649 3.41841 15.9283 2.59816 16.4019C1.16328 17.2303 0.671654 19.0651 1.50008 20.5C2.32851 21.9349 4.16328 22.4265 5.59816 21.5981C6.41841 21.1245 7.50871 19.363 8.29226 17.9408C8.8794 16.8751 9.29431 16 9.29431 16C9.29431 16 8.32895 15.9217 7.11248 15.8974Z"/>
<path fill-rule="evenodd" clip-rule="evenodd" d="M25.7082 23.055C23.5265 26.052 19.9908 28 16.0001 28C11.9446 28 8.35894 25.9882 6.18674 22.9081C5.99982 23.0678 5.80317 23.2118 5.59816 23.3301C5.21067 23.5538 4.80568 23.7198 4.39317 23.8307C6.90934 27.5529 11.1689 30 16.0001 30C20.7783 30 24.9975 27.6062 27.5237 23.9524C27.0853 23.8419 26.6547 23.6696 26.2438 23.4323C26.0581 23.3251 25.8792 23.1969 25.7082 23.055ZM29.8952 14.2776C29.0463 7.35819 23.1489 2 16.0001 2C8.8994 2 3.0334 7.28624 2.12282 14.1379C2.57117 14.048 3.01112 13.9993 3.38225 13.9673C3.64376 13.9447 3.9116 13.928 4.18039 13.916C5.16692 8.28197 10.0834 4 16.0001 4C21.9554 4 26.8976 8.33822 27.8386 14.0268C28.0478 14.0379 28.2557 14.0519 28.4597 14.0695C28.8793 14.1057 29.3869 14.1632 29.8952 14.2776Z"/>
<path fill-rule="evenodd" clip-rule="evenodd" d="M12.0001 15H8.00007V13H12.0001V15Z"/>
<path fill-rule="evenodd" clip-rule="evenodd" d="M24.0001 15H20.0001V13H24.0001V15Z"/>
</svg>