<svg viewBox="0 0 32 32" xmlns="http://www.w3.org/2000/svg">
<path d="M16.1513 4C9.42939 4 4 9.38346 4 16C4 22.6165 9.42939 28 16.1513 28C19.6014 28 22.7123 26.5815 24.9239 24.3034C25.203 24.0159 25.4678 23.7147 25.717 23.401L27.283 24.6452C26.9924 25.0108 26.684 25.3617 26.3589 25.6966C23.7837 28.3492 20.1605 30 16.1513 30C8.34671 30 2 23.7429 2 16C2 8.25713 8.34671 2 16.1513 2C21.6064 2 26.3442 5.05474 28.7058 9.5336L26.9366 10.4664C24.9116 6.6257 20.844 4 16.1513 4Z"/>
<path d="M11 13.5C11 14.3284 10.3284 15 9.5 15C8.67157 15 8 14.3284 8 13.5C8 12.6716 8.67157 12 9.5 12C10.3284 12 11 12.6716 11 13.5Z"/>
<path d="M22.5 15C23.3284 15 24 14.3284 24 13.5C24 12.6716 23.3284 12 22.5 12C21.6716 12 21 12.6716 21 13.5C21 14.3284 21.6716 15 22.5 15Z"/>
<path d="M11.9804 23.6968C11.9805 23.6965 11.9805 23.6961 11 23.5C10.0194 23.3039 10.0195 23.3035 10.0195 23.3031L10.0202 23.3L10.0213 23.2943L10.0249 23.2774C10.0278 23.2638 10.0318 23.2455 10.0369 23.2228C10.0472 23.1774 10.0621 23.1143 10.0822 23.0361C10.1224 22.8799 10.1836 22.6619 10.27 22.4025C10.4418 21.8872 10.7193 21.1907 11.1425 20.4855C11.9828 19.0849 13.5029 17.5 16 17.5C18.497 17.5 20.0171 19.0849 20.8574 20.4855C21.2806 21.1907 21.5581 21.8872 21.7299 22.4025C21.8164 22.6619 21.8775 22.8799 21.9177 23.0361C21.9378 23.1143 21.9527 23.1774 21.963 23.2228L21.9705 23.2564L21.975 23.2774L21.9786 23.2943L21.9798 23.3L21.9802 23.3022C21.9803 23.3026 21.9805 23.3039 21 23.5C20.0194 23.6961 20.0194 23.6965 20.0195 23.6968L20.0189 23.6939L20.0125 23.6649C20.0062 23.6371 19.9957 23.5927 19.9807 23.5342C19.9505 23.417 19.9023 23.2443 19.8325 23.035C19.6918 22.6128 19.4693 22.0593 19.1425 21.5145C18.4828 20.4151 17.5029 19.5 16 19.5C14.497 19.5 13.5171 20.4151 12.8574 21.5145C12.5306 22.0593 12.3081 22.6128 12.1674 23.035C12.0976 23.2443 12.0494 23.417 12.0192 23.5342C12.0042 23.5927 11.9937 23.6371 11.9874 23.6649L11.981 23.6939L11.9804 23.6968Z"/>
<path fill-rule="evenodd" clip-rule="evenodd" d="M27 13C27 13 26.4495 13.7969 25.8202 14.8382C24.9804 16.2279 24 18.0529 24 19C24 20.6569 25.3431 22 27 22C28.6569 22 30 20.6569 30 19C30 18.0529 29.0196 16.2279 28.1798 14.8382C27.5504 13.7969 27 13 27 13ZM28 19C28 19.5523 27.5523 20 27 20C26.4477 20 26 19.5523 26 19C26 19.0087 26.0012 19.0039 26.0059 18.9844C26.0227 18.9146 26.0848 18.6574 26.2998 18.168C26.4866 17.7429 26.7315 17.2674 27 16.7862C27.2685 17.2674 27.5134 17.7429 27.7002 18.168C27.9152 18.6574 27.9773 18.9146 27.9941 18.9844C27.9988 19.0038 28 19.0087 28 19Z"/>
</svg>