<svg viewBox="0 0 32 32" xmlns="http://www.w3.org/2000/svg">
<path d="M11 13.5C11 14.3284 10.3284 15 9.5 15C8.67157 15 8 14.3284 8 13.5C8 12.6716 8.67157 12 9.5 12C10.3284 12 11 12.6716 11 13.5Z"/>
<path d="M24 13.5C24 14.3284 23.3284 15 22.5 15C21.6716 15 21 14.3284 21 13.5C21 12.6716 21.6716 12 22.5 12C23.3284 12 24 12.6716 24 13.5Z"/>
<path fill-rule="evenodd" clip-rule="evenodd" d="M16 28C22.6274 28 28 22.6274 28 16C28 9.37258 22.6274 4 16 4C9.37258 4 4 9.37258 4 16C4 22.6274 9.37258 28 16 28ZM16 30C23.732 30 30 23.732 30 16C30 8.26801 23.732 2 16 2C8.26801 2 2 8.26801 2 16C2 23.732 8.26801 30 16 30Z"/>
<path fill-rule="evenodd" clip-rule="evenodd" d="M16 23C17.1046 23 18 22.1046 18 21C18 19.8954 17.1046 19 16 19C14.8954 19 14 19.8954 14 21C14 22.1046 14.8954 23 16 23ZM16 25C18.2091 25 20 23.2091 20 21C20 18.7909 18.2091 17 16 17C13.7909 17 12 18.7909 12 21C12 23.2091 13.7909 25 16 25Z"/>
</svg>