<svg viewBox="0 0 32 32" xmlns="http://www.w3.org/2000/svg">
<path d="M11 13.5C11 14.3284 10.3284 15 9.5 15C8.67157 15 8 14.3284 8 13.5C8 12.6716 8.67157 12 9.5 12C10.3284 12 11 12.6716 11 13.5Z"/>
<path d="M24 13.5C24 14.3284 23.3284 15 22.5 15C21.6716 15 21 14.3284 21 13.5C21 12.6716 21.6716 12 22.5 12C23.3284 12 24 12.6716 24 13.5Z"/>
<path fill-rule="evenodd" clip-rule="evenodd" d="M11.9699 23.2434C11.9699 23.2434 11.9701 23.2425 11 23C10.0299 22.7575 10.0301 22.7565 10.0301 22.7565L10.0304 22.7555L10.0309 22.7531L10.0324 22.7473L10.0366 22.7313C10.04 22.7188 10.0444 22.7024 10.0501 22.6825C10.0614 22.6426 10.0774 22.5885 10.0988 22.5221C10.1414 22.3895 10.2055 22.2068 10.2957 21.9904C10.4749 21.5603 10.7629 20.9828 11.2 20.4C12.0865 19.218 13.6071 18 16 18C18.3929 18 19.9135 19.218 20.8 20.4C21.2371 20.9828 21.5251 21.5603 21.7043 21.9904C21.7945 22.2068 21.8586 22.3895 21.9012 22.5221C21.9226 22.5885 21.9386 22.6426 21.9499 22.6825C21.9556 22.7024 21.96 22.7188 21.9634 22.7313L21.9676 22.7473L21.9691 22.7531L21.9699 22.7565C21.9699 22.7565 21.9701 22.7575 21 23C20.0299 23.2425 20.0301 23.2434 20.0301 23.2434L20.0306 23.2454L20.0257 23.2277C20.0203 23.2089 20.011 23.1771 19.9972 23.1341C19.9695 23.048 19.9243 22.9182 19.8582 22.7596C19.7249 22.4397 19.5129 22.0172 19.2 21.6C18.5865 20.782 17.6071 20 16 20C14.3929 20 13.4135 20.782 12.8 21.6C12.4871 22.0172 12.2751 22.4397 12.1418 22.7596C12.0757 22.9182 12.0305 23.048 12.0028 23.1341C11.989 23.1771 11.9797 23.2089 11.9743 23.2277L11.9694 23.2457L11.9699 23.2434ZM20.031 23.2469L20.0306 23.2454L20.031 23.2469Z"/>
<path fill-rule="evenodd" clip-rule="evenodd" d="M16 28C22.6274 28 28 22.6274 28 16C28 9.37258 22.6274 4 16 4C9.37258 4 4 9.37258 4 16C4 22.6274 9.37258 28 16 28ZM16 30C23.732 30 30 23.732 30 16C30 8.26801 23.732 2 16 2C8.26801 2 2 8.26801 2 16C2 23.732 8.26801 30 16 30Z"/>
</svg>