<svg viewBox="0 0 32 32" xmlns="http://www.w3.org/2000/svg">
<path d="M11 13.5C11 14.3284 10.3284 15 9.5 15C8.67157 15 8 14.3284 8 13.5C8 12.6716 8.67157 12 9.5 12C10.3284 12 11 12.6716 11 13.5Z"/>
<path d="M24 13.5C24 14.3284 23.3284 15 22.5 15C21.6716 15 21 14.3284 21 13.5C21 12.6716 21.6716 12 22.5 12C23.3284 12 24 12.6716 24 13.5Z"/>
<path fill-rule="evenodd" clip-rule="evenodd" d="M20.106 19.052C20.1058 19.0524 20.1056 19.0528 21 19.5C21.8944 19.9472 21.8942 19.9476 21.894 19.9481L21.8935 19.949L21.8925 19.951L21.89 19.956L21.8832 19.9691C21.8779 19.9793 21.8711 19.9924 21.8626 20.0081C21.8457 20.0395 21.8224 20.0815 21.7925 20.1328C21.7328 20.2351 21.6465 20.3747 21.5323 20.5391C21.3049 20.8667 20.9615 21.3003 20.4908 21.7348C19.5442 22.6086 18.0627 23.5 16 23.5C13.9373 23.5 12.4558 22.6086 11.5092 21.7348C11.0385 21.3003 10.6952 20.8667 10.4677 20.5391C10.3535 20.3747 10.2672 20.2351 10.2075 20.1328C10.1776 20.0815 10.1543 20.0395 10.1374 20.0081C10.1289 19.9924 10.1221 19.9793 10.1168 19.9691L10.11 19.956L10.1075 19.951L10.1065 19.949L10.106 19.9481C10.1058 19.9476 10.1056 19.9472 11 19.5C11.8944 19.0528 11.8942 19.0524 11.894 19.052L11.8931 19.0501L11.8922 19.0484L11.898 19.0593C11.9048 19.0719 11.9171 19.0942 11.9351 19.125C11.9711 19.1868 12.0293 19.2815 12.1104 19.3984C12.2736 19.6333 12.524 19.9497 12.8658 20.2652C13.5442 20.8914 14.5627 21.5 16 21.5C17.4373 21.5 18.4558 20.8914 19.1342 20.2652C19.476 19.9497 19.7264 19.6333 19.8896 19.3984C19.9707 19.2815 20.0289 19.1868 20.0649 19.125C20.0829 19.0942 20.0952 19.0719 20.102 19.0593L20.1079 19.0481L20.1069 19.0501L20.106 19.052ZM11.8922 19.0484C11.8918 19.0476 11.8919 19.0478 11.8922 19.0484V19.0484Z"/>
<path fill-rule="evenodd" clip-rule="evenodd" d="M16 28C22.6274 28 28 22.6274 28 16C28 9.37258 22.6274 4 16 4C9.37258 4 4 9.37258 4 16C4 22.6274 9.37258 28 16 28ZM16 30C23.732 30 30 23.732 30 16C30 8.26801 23.732 2 16 2C8.26801 2 2 8.26801 2 16C2 23.732 8.26801 30 16 30Z"/>
</svg>