<svg viewBox="0 0 32 32" xmlns="http://www.w3.org/2000/svg">
<path fill-rule="evenodd" clip-rule="evenodd" d="M21 28C22.6569 28 24 26.6569 24 25V21.8285C24 21.1201 23.7495 20.4376 23.2975 19.8993C23.1426 19.7148 22.9719 19.5839 22.8463 19.4958L10.4255 10.7788C10.1588 10.5916 10 10.2861 10 9.96023V7C10 6.44772 10.4477 6 11 6L21 6C21.5523 6 22 6.44772 22 7L22 11H24V7C24 5.34315 22.6569 4 21 4L11 4C9.34315 4 8 5.34315 8 7L8 9.96023C8 10.9379 8.47639 11.8542 9.27663 12.4158L21.6974 21.1329C21.7276 21.1541 21.7462 21.1687 21.7579 21.1787C21.7633 21.1833 21.7676 21.1875 21.7676 21.1875C21.9171 21.3666 22 21.5933 22 21.8285V25C22 25.5523 21.5523 26 21 26H11C10.4477 26 10 25.5523 10 25L10 21H8L8 25C8 26.6569 9.34315 28 11 28H21Z"/>
</svg>