<svg viewBox="0 0 32 32" xmlns="http://www.w3.org/2000/svg">
<path fill-rule="evenodd" clip-rule="evenodd" d="M2 11C2 9.34315 3.34315 8 5 8H8.17157C8.96722 8 9.73028 8.31607 10.2929 8.87868L12.7304 11.3162L11.3162 12.7304L8.87868 10.2929C8.69114 10.1054 8.43679 10 8.17157 10H5C4.44772 10 4 10.4477 4 11V21C4 21.5523 4.44772 22 5 22H8.17157C8.43679 22 8.69114 21.8946 8.87868 21.7071L13.2929 17.2929L14.7071 18.7071L10.2929 23.1213C9.73028 23.6839 8.96722 24 8.17157 24H5C3.34315 24 2 22.6569 2 21V11Z"/>
<path fill-rule="evenodd" clip-rule="evenodd" d="M21.7071 8.87868C22.2697 8.31607 23.0328 8 23.8284 8H27C28.6568 8 30 9.34315 30 11V21C30 22.6569 28.6568 24 27 24H23.8284C23.0328 24 22.2697 23.6839 21.7071 23.1213L11.2777 12.6919L12.6919 11.2777L23.1213 21.7071C23.3088 21.8946 23.5632 22 23.8284 22H27C27.5523 22 28 21.5523 28 21V11C28 10.4477 27.5523 10 27 10H23.8284C23.5632 10 23.3088 10.1054 23.1213 10.2929L18.7071 14.7071L17.2929 13.2929L21.7071 8.87868Z"/>
</svg>