<svg viewBox="0 0 32 32" xmlns="http://www.w3.org/2000/svg">
<path d="M10 24.59V4H8.00004V24.59L4.71004 21.29L3.29004 22.71L9.00004 28.41L14.71 22.71L13.29 21.29L10 24.59Z"/>
<path d="M27.33 7.98C27.75 7.7 28 7.23 28 6.73V5.5C28 4.67 27.33 4 26.5 4H20V6H26V6.46L20.67 10.01C20.25 10.29 20 10.76 20 11.26V12.49C20 13.32 20.67 13.99 21.5 13.99H28V11.99H22V11.53L27.33 7.98Z"/>
<path fill-rule="evenodd" clip-rule="evenodd" d="M25.22 18C25.85 18 26.41 18.39 26.61 18.97V18.96L26.65 19.12L28.18 27.82L26.21 28.17L25.83 26H21.5L21.19 28.15L19.21 27.86L20.52 19.01C20.71 18.4 21.28 18 21.92 18H25.22ZM22.38 20L21.79 24H25.47L24.77 20H22.38Z"/>
</svg>