<svg viewBox="0 0 32 32" xmlns="http://www.w3.org/2000/svg">
<path fill-rule="evenodd" clip-rule="evenodd" d="M8 16C8 13.2386 5.76142 11 3 11V9C5.76142 9 8 6.76142 8 4H10C10 6.76142 12.2386 9 15 9V11C12.2386 11 10 13.2386 10 16H8ZM6.60759 10C7.58687 9.40992 8.40992 8.58687 9 7.60758C9.59008 8.58687 10.4131 9.40992 11.3924 10C10.4131 10.5901 9.59008 11.4131 9 12.3924C8.40992 11.4131 7.58687 10.5901 6.60759 10Z"/>
<path fill-rule="evenodd" clip-rule="evenodd" d="M20 28C20 24.134 16.866 21 13 21L13 19C16.866 19 20 15.866 20 12H22C22 15.866 25.134 19 29 19V21C25.134 21 22 24.134 22 28H20ZM21 16.1272C21.8572 17.7853 23.2147 19.1428 24.8728 20C23.2147 20.8572 21.8572 22.2147 21 23.8728C20.1428 22.2147 18.7853 20.8572 17.1272 20C18.7853 19.1428 20.1428 17.7853 21 16.1272Z"/>
</svg>