<svg viewBox="0 0 32 32" xmlns="http://www.w3.org/2000/svg">
<path fill-rule="evenodd" clip-rule="evenodd" d="M4.29287 28.2929L5.70708 29.7071L13.5 21.9142L17.5 25.9142L29.7071 13.7071L28.2929 12.2929L17.5 23.0858L13.5 19.0858L4.29287 28.2929Z"/>
<path fill-rule="evenodd" clip-rule="evenodd" d="M28 14L28 21H30L30 12L21 12V14L28 14Z"/>
<path fill-rule="evenodd" clip-rule="evenodd" d="M6.49999 6.01999C6.22228 6.01999 5.98999 6.25227 5.98999 6.52999V7.58999C5.98999 7.65232 6.02084 7.76533 6.12423 7.88503C6.22847 8.0057 6.34655 8.06297 6.41888 8.07612L6.43515 8.07908L6.45132 8.08258C6.45443 8.08316 6.46672 8.08542 6.49126 8.08933C6.52129 8.0941 6.56077 8.0999 6.6102 8.1067C6.70905 8.1203 6.83611 8.13632 6.98584 8.15434C7.27516 8.18914 7.63376 8.22956 8.00925 8.27189L8.06087 8.27771C8.81467 8.36267 9.66459 8.45848 10.0489 8.52437C11.259 8.73181 12.08 9.834 12.08 10.94V12.49C12.08 13.1974 11.7421 13.8222 11.2959 14.2531C10.8466 14.687 10.2111 15 9.49997 15H6.49999C5.11771 15 3.98999 13.8723 3.98999 12.49V12H5.98999V12.49C5.98999 12.7677 6.22227 13 6.49999 13H9.49997C9.61887 13 9.77338 12.943 9.90657 12.8144C10.0428 12.6828 10.08 12.5526 10.08 12.49V10.94C10.08 10.746 9.9009 10.5282 9.711 10.4956C9.3975 10.4419 8.61979 10.3534 7.82422 10.2637C7.77618 10.2583 7.72776 10.2528 7.67914 10.2474C7.00872 10.1719 6.30092 10.0922 6.04837 10.0415C5.46611 9.9322 4.96394 9.60131 4.61075 9.19245C4.25414 8.77965 3.98999 8.21766 3.98999 7.58999V6.52999C3.98999 5.1477 5.11771 4.01999 6.49999 4.01999L9.37997 4.01999C10.67 4.01999 12 5.05978 12 6.52999V7H9.99997V6.52999C9.99997 6.44279 9.95803 6.32134 9.8287 6.20382C9.69693 6.08408 9.52726 6.01999 9.37997 6.01999L6.49999 6.01999Z"/>
<path fill-rule="evenodd" clip-rule="evenodd" d="M8.99997 3V5H6.99997V3H8.99997Z"/>
<path fill-rule="evenodd" clip-rule="evenodd" d="M8.99997 14V16H6.99997V14H8.99997Z"/>
</svg>