<svg viewBox="0 0 32 32" xmlns="http://www.w3.org/2000/svg">
<path fill-rule="evenodd" clip-rule="evenodd" d="M4.29286 3.70718L5.70708 2.29297L13.5 10.0859L17.5 6.08585L29.7071 18.293L28.2929 19.7072L17.5 8.91428L13.5 12.9143L4.29286 3.70718Z"/>
<path fill-rule="evenodd" clip-rule="evenodd" d="M28 18.0001V11.0001H30V20.0001L21 20.0001V18.0001L28 18.0001Z"/>
<path fill-rule="evenodd" clip-rule="evenodd" d="M6.49999 19.02C6.22228 19.02 5.98999 19.2523 5.98999 19.53V20.59C5.98999 20.6524 6.02084 20.7654 6.12423 20.8851C6.22847 21.0057 6.34655 21.063 6.41888 21.0762L6.43515 21.0791L6.45132 21.0826C6.45443 21.0832 6.46672 21.0855 6.49126 21.0894C6.52129 21.0942 6.56077 21.1 6.6102 21.1068C6.70905 21.1204 6.83611 21.1364 6.98584 21.1544C7.27516 21.1892 7.63376 21.2296 8.00925 21.2719L8.06087 21.2778C8.81467 21.3627 9.66459 21.4585 10.0489 21.5244C11.259 21.7319 12.08 22.8341 12.08 23.94V25.49C12.08 26.1975 11.7421 26.8222 11.2959 27.2531C10.8466 27.687 10.2111 28 9.49997 28H6.49999C5.11771 28 3.98999 26.8723 3.98999 25.49V25.0001H5.98999V25.49C5.98999 25.7678 6.22227 26 6.49999 26H9.49997C9.61887 26 9.77338 25.9431 9.90657 25.8144C10.0428 25.6829 10.08 25.5526 10.08 25.49V23.94C10.08 23.746 9.9009 23.5282 9.711 23.4957C9.3975 23.4419 8.61979 23.3534 7.82422 23.2637C7.77618 23.2583 7.72776 23.2529 7.67914 23.2474C7.00872 23.172 6.30092 23.0923 6.04837 23.0416C5.46611 22.9322 4.96394 22.6014 4.61075 22.1925C4.25414 21.7797 3.98999 21.2177 3.98999 20.59V19.53C3.98999 18.1478 5.11771 17.02 6.49999 17.02L9.37997 17.02C10.67 17.02 12 18.0598 12 19.53V20.0001H9.99997V19.53C9.99997 19.4428 9.95803 19.3214 9.8287 19.2039C9.69693 19.0841 9.52726 19.02 9.37997 19.02L6.49999 19.02Z"/>
<path fill-rule="evenodd" clip-rule="evenodd" d="M8.99997 16.0001V18.0001H6.99997V16.0001H8.99997Z"/>
<path fill-rule="evenodd" clip-rule="evenodd" d="M8.99997 27.0001V29.0001H6.99997V27.0001H8.99997Z"/>
</svg>