<svg viewBox="0 0 32 32" xmlns="http://www.w3.org/2000/svg">
<path d="M9.63379 13.053L11.048 11.6388L16.7049 17.2956L15.2906 18.7098L9.63379 13.053Z"/>
<path fill-rule="evenodd" clip-rule="evenodd" d="M25.83 5.76L27.24 7.17V7.18L24.68 9.74C26.73 11.89 28 14.8 28 18C28 24.62 22.62 30 16 30C9.38 30 4 24.62 4 18C4 11.72 8.85 6.56 15 6.05V4H13V2H19V4H17V6.05C19.31 6.25 21.43 7.09 23.18 8.41L25.83 5.76ZM6 18C6 23.51 10.49 28 16 28C21.51 28 26 23.51 26 18C26 12.49 21.51 8 16 8C10.49 8 6 12.49 6 18Z"/>
</svg>