<svg viewBox="0 0 32 32" xmlns="http://www.w3.org/2000/svg">
<path d="M2.5 8L4.74359 2.61538C4.89886 2.24274 5.26297 2 5.66667 2H26.3333C26.737 2 27.1011 2.24274 27.2564 2.61538L29.5 8H2.5Z" fill="black"/>
<path fill-rule="evenodd" clip-rule="evenodd" d="M2 10V12C2 13.4806 2.8044 14.7733 4 15.4649V28H2V30H30V28H28V15.4649C29.1956 14.7733 30 13.4806 30 12V10H2ZM6 28H26V16C24.7305 16 23.5991 15.4086 22.8664 14.4863C22.042 15.4149 20.8394 16 19.5 16C18.0864 16 16.825 15.3482 16 14.3287C15.175 15.3482 13.9136 16 12.5 16C11.1606 16 9.95796 15.4149 9.13362 14.4863C8.40085 15.4086 7.26949 16 6 16V28Z" fill="black"/>
<path d="M9 20C9 19.4477 9.44772 19 10 19H13C13.5523 19 14 19.4477 14 20V23C14 23.5523 13.5523 24 13 24H10C9.44772 24 9 23.5523 9 23V20Z" fill="black"/>
<path d="M18 20C18 19.4477 18.4477 19 19 19H22C22.5523 19 23 19.4477 23 20V28C23 28.5523 22.5523 29 22 29H19C18.4477 29 18 28.5523 18 28V20Z" fill="black"/>
</svg>