<svg viewBox="0 0 32 32" xmlns="http://www.w3.org/2000/svg">
<path fill-rule="evenodd" clip-rule="evenodd" d="M8 20C8 18.8954 8.89543 18 10 18H12C13.1046 18 14 18.8954 14 20V22C14 23.1046 13.1046 24 12 24H10C8.89543 24 8 23.1046 8 22V20ZM10 20H12V22H10V20Z"/>
<path fill-rule="evenodd" clip-rule="evenodd" d="M4 2L2 10V12C2 13.4806 2.8044 14.7733 4 15.4649V28H2V30H30V28H28V15.4649C29.1956 14.7733 30 13.4806 30 12V10L28 2H4ZM5.56155 4L4.06155 10H27.9384L26.4384 4H5.56155ZM22 28H18V20H22V28ZM26 28H24V20C24 18.8954 23.1046 18 22 18H18C16.8954 18 16 18.8954 16 20V28H6V16C7.26949 16 8.40085 15.4086 9.13362 14.4863C9.95796 15.4149 11.1606 16 12.5 16C13.9136 16 15.175 15.3482 16 14.3287C16.825 15.3482 18.0864 16 19.5 16C20.8394 16 22.042 15.4149 22.8664 14.4863C23.5991 15.4086 24.7305 16 26 16V28ZM6 14C4.89543 14 4 13.1046 4 12H8C8 13.1046 7.10457 14 6 14ZM12.5 14C11.2905 14 10.2816 13.1411 10.05 12H14.95C14.7184 13.1411 13.7095 14 12.5 14ZM19.5 14C18.2905 14 17.2816 13.1411 17.05 12H21.95C21.7184 13.1411 20.7095 14 19.5 14ZM26 14C24.8954 14 24 13.1046 24 12H28C28 13.1046 27.1046 14 26 14Z"/>
</svg>