<svg viewBox="0 0 32 32" xmlns="http://www.w3.org/2000/svg">
<path d="M12 7.43891C12 6.97049 12.1825 6.65192 12.4775 6.42472C12.7988 6.17728 13.312 6.00046 13.9799 6L21.9944 6.04463L22.0056 4.04466L13.9881 4H13.9825C12.9881 4 12.0109 4.25977 11.2573 4.8401C10.477 5.44099 10 6.34187 10 7.43891V11.46C10 12.9527 10.83 14.3125 12.1376 15H4V17H16.6718L19.7509 18.3508C20.4685 18.6656 20.9361 19.3704 20.9472 20.1539L21 23.8694C20.9977 24.3029 20.7539 24.8369 20.2719 25.2904C19.7917 25.7422 19.1934 25.9999 18.6667 25.9999H9V27.9999H18.6667C19.8036 27.9999 20.8719 27.472 21.6425 26.747C22.409 26.0257 23 24.9944 23 23.8634V23.8563L22.947 20.1255C22.9294 18.8801 22.3349 17.734 21.3711 17H28V15H17.0912L13.1965 13.2915C12.4695 12.9726 12 12.2538 12 11.46V7.43891Z"/>
</svg>