<svg viewBox="0 0 32 32" xmlns="http://www.w3.org/2000/svg">
<path d="M30 26.2118V18.8548C26.1675 20.3668 21.411 21.8368 15.7317 23.2718C10.442 24.6076 5.864 25.5701 2 26.1593V26.2118H30ZM2 18.4243V24.4128C6.361 23.7711 10.302 23.0058 13.8183 22.1179C17.274 21.2453 19.9375 20.3971 21.8065 19.5746C23.6755 18.7544 24.5365 18.0614 24.3965 17.4979C24.2717 17.0079 23.4095 16.7571 21.81 16.7454C20.9898 16.7571 19.8617 16.8154 18.422 16.9204C16.98 17.0254 15.1857 17.1934 13.0437 17.4174C9.71867 17.7721 6.95833 18.0439 4.76033 18.2271C3.715 18.3146 2.7945 18.3811 2 18.4254V18.4243ZM3.2075 21.8659C3.2775 21.8659 3.3405 21.8951 3.39417 21.9476C3.44783 22.0013 3.47583 22.0678 3.47583 22.1413C3.47583 22.2183 3.44783 22.2813 3.39417 22.3373C3.33933 22.3898 3.27283 22.4143 3.20283 22.4143C3.1655 22.4143 3.12817 22.4073 3.0955 22.3933C3.0605 22.3793 3.0325 22.3583 3.008 22.3349C2.98117 22.3186 2.96133 22.2836 2.94967 22.2486C2.94967 22.2311 2.931 22.1961 2.931 22.1436C2.931 22.0736 2.966 22.0036 3.0185 21.9511C3.071 21.8986 3.141 21.8811 3.2285 21.8811L3.2075 21.8659ZM4.1525 21.8659C4.226 21.8659 4.289 21.8951 4.345 21.9476C4.3975 22.0013 4.422 22.0678 4.422 22.1413C4.422 22.2183 4.39633 22.2813 4.34383 22.3373C4.27383 22.3898 4.22017 22.4143 4.13383 22.4143C4.09883 22.4143 4.06383 22.4073 4.02883 22.3933C3.99383 22.3793 3.95883 22.3583 3.94017 22.3349C3.90517 22.3186 3.88767 22.2836 3.87017 22.2486C3.85267 22.2311 3.85267 22.1961 3.85267 22.1436C3.85267 22.0736 3.869 22.0036 3.92267 21.9511C3.97633 21.8986 4.044 21.8811 4.114 21.8811L4.1525 21.8659ZM3.2075 20.1043C3.2775 20.1043 3.3405 20.1299 3.39417 20.1859C3.44783 20.2384 3.47583 20.3026 3.47583 20.3784C3.47583 20.4531 3.44783 20.5184 3.39417 20.5709C3.3405 20.6234 3.2775 20.6526 3.20283 20.6526C3.127 20.6526 3.0605 20.6246 3.008 20.5709C2.9555 20.5184 2.92633 20.4519 2.92633 20.3784C2.92633 20.3003 2.945 20.2349 2.99633 20.1824C3.04767 20.1299 3.12 20.1031 3.19 20.1031L3.2075 20.1043ZM4.1525 20.1043C4.226 20.1043 4.289 20.1299 4.345 20.1859C4.3975 20.2384 4.422 20.3026 4.422 20.3784C4.422 20.4531 4.39633 20.5184 4.34383 20.5709C4.27383 20.6234 4.22017 20.6526 4.13383 20.6526C4.0475 20.6526 3.99383 20.6246 3.94017 20.5709C3.88767 20.5184 3.85267 20.4519 3.85267 20.3784C3.85267 20.3003 3.869 20.2349 3.92267 20.1824C3.97633 20.1299 4.044 20.1031 4.114 20.1031L4.1525 20.1043ZM30 7.36309V12.9783C28.0925 13.0949 25.7067 13.3014 22.839 13.6013C19.934 13.9163 17.5657 14.1613 15.7305 14.3188C13.8918 14.4938 12.5653 14.5824 11.7522 14.5988C10.162 14.6338 9.31383 14.4238 9.19133 13.9524C9.06883 13.4274 10.0138 12.7274 12.0438 11.8874C14.0738 11.0299 16.7688 10.1724 20.0938 9.33242C23.0163 8.59742 26.3238 7.94992 29.9988 7.40742L30 7.36309ZM29.0025 5.78809C25.205 6.49392 21.271 7.36309 17.2028 8.38975C10.8515 9.99392 5.78467 11.5899 2 13.1684V5.78925H29.0037L29.0025 5.78809Z" fill="black"/>
</svg>