<svg viewBox="0 0 32 32" xmlns="http://www.w3.org/2000/svg">
<path d="M17 2H15V6H17V2Z" fill="black"/>
<path d="M25.1904 5.392L22.3903 8.19214L23.8045 9.60635L26.6046 6.80621L25.1904 5.392Z" fill="black"/>
<path d="M6.80362 5.39292L5.3894 6.80713L8.18955 9.60727L9.60376 8.19306L6.80362 5.39292Z" fill="black"/>
<path d="M23.8053 22.3929L22.3911 23.8071L25.1913 26.6073L26.6055 25.1931L23.8053 22.3929Z" fill="black"/>
<path d="M5.39026 25.1938L8.1904 22.3937L9.60462 23.8079L6.80447 26.6081L5.39026 25.1938Z" fill="black"/>
<path d="M15 30V26H17V30H15Z" fill="black"/>
<path d="M2 15H6V17H2V15Z" fill="black"/>
<path d="M30 15H26V17H30V15Z" fill="black"/>
<path d="M24 16C24 20.4183 20.4183 24 16 24C11.5817 24 8 20.4183 8 16C8 11.5817 11.5817 8 16 8C20.4183 8 24 11.5817 24 16Z" fill="black"/>
</svg>