<svg viewBox="0 0 32 32" xmlns="http://www.w3.org/2000/svg">
<path d="M17 2H15V6H17V2Z"/>
<path d="M25.1904 5.392L22.3903 8.19214L23.8045 9.60635L26.6046 6.80621L25.1904 5.392Z"/>
<path d="M6.80362 5.39292L5.3894 6.80713L8.18955 9.60727L9.60376 8.19306L6.80362 5.39292Z"/>
<path d="M23.8053 22.3929L22.3911 23.8071L25.1913 26.6073L26.6055 25.1931L23.8053 22.3929Z"/>
<path d="M5.39026 25.1938L8.1904 22.3937L9.60462 23.8079L6.80447 26.6081L5.39026 25.1938Z"/>
<path d="M15 30V26H17V30H15Z"/>
<path d="M2 15H6V17H2V15Z"/>
<path d="M30 15H26V17H30V15Z"/>
<path fill-rule="evenodd" clip-rule="evenodd" d="M8 16C8 11.66 11.66 8 16 8C20.34 8 24 11.66 24 16C24 20.34 20.34 24 16 24C11.66 24 8 20.34 8 16ZM10 16C10 19.25 12.75 22 16 22C19.25 22 22 19.25 22 16C22 12.75 19.25 10 16 10C12.75 10 10 12.75 10 16Z"/>
</svg>