<svg viewBox="0 0 32 32" xmlns="http://www.w3.org/2000/svg">
<path fill-rule="evenodd" clip-rule="evenodd" d="M12 3L6.8233 4.03534C4.01876 4.59625 2 7.05874 2 9.91882V18H7V29H25V18H30V9.91882C30 7.05874 27.9812 4.59625 25.1767 4.03534L20 3C18.7187 6.84405 13.2814 6.84405 12 3ZM21.0945 5.25851L24.7845 5.9965C26.6542 6.37044 28 8.0121 28 9.91882V16H23V27H9V16H4V9.91882C4 8.0121 5.34584 6.37044 7.21554 5.9965L10.9055 5.25851C13.3109 8.75788 18.6891 8.75788 21.0945 5.25851Z"/>
<path d="M7 12H9V16H7V12Z"/>
<path d="M23 12H25V16H23V12Z"/>
</svg>