<svg viewBox="0 0 32 32" xmlns="http://www.w3.org/2000/svg">
<path d="M27.05 15.23L15.83 4H8V2H16.65L28.47 13.81L27.05 15.23Z"/>
<path d="M10.5 14C11.3284 14 12 13.3284 12 12.5C12 11.6716 11.3284 11 10.5 11C9.67157 11 9 11.6716 9 12.5C9 13.3284 9.67157 14 10.5 14Z"/>
<path fill-rule="evenodd" clip-rule="evenodd" d="M16.48 29.4C16.87 29.79 17.38 29.98 17.89 29.98L17.9 29.97C18.41 29.97 18.92 29.78 19.31 29.39L27.4 21.3C27.78 20.93 27.99 20.42 27.99 19.89C27.99 19.36 27.78 18.86 27.4 18.48L14.92 6H4V16.92L16.48 29.4ZM17.89 27.99L6 16.09V8H14.09L25.98 19.9L17.89 27.99Z"/>
</svg>