<svg viewBox="0 0 32 32" xmlns="http://www.w3.org/2000/svg">
<path d="M28.47 13.81L27.05 15.23L15.83 4H8V2H16.65L28.47 13.81Z" fill="black"/>
<path fill-rule="evenodd" clip-rule="evenodd" d="M14.92 6L27.96 19.04C28.19 19.27 28.31 19.57 28.31 19.89C28.31 20.21 28.19 20.51 27.96 20.74L18.74 29.96C18.51 30.19 18.21 30.31 17.89 30.31C17.57 30.31 17.27 30.19 17.04 29.96L4 16.92V6H14.92ZM9.44 13.56C10.03 14.15 10.97 14.15 11.56 13.56C12.15 12.98 12.15 12.03 11.56 11.44C10.97 10.85 10.03 10.85 9.44 11.44C8.85 12.03 8.85 12.98 9.44 13.56Z" fill="black"/>
</svg>