<svg viewBox="0 0 32 32" xmlns="http://www.w3.org/2000/svg">
<path d="M12 10.5C12 11.3284 11.3284 12 10.5 12C9.67157 12 9 11.3284 9 10.5C9 9.67157 9.67157 9 10.5 9C11.3284 9 12 9.67157 12 10.5Z"/>
<path fill-rule="evenodd" clip-rule="evenodd" d="M16.48 27.4C16.87 27.79 17.38 27.98 17.89 27.98L17.9 27.97C18.41 27.97 18.92 27.78 19.31 27.39L27.4 19.3C27.78 18.93 27.99 18.42 27.99 17.89C27.99 17.36 27.78 16.86 27.4 16.48L14.92 4H4V14.92L16.48 27.4ZM17.89 25.99L6 14.09V6H14.09L25.98 17.9L17.89 25.99Z"/>
</svg>