<svg viewBox="0 0 32 32" xmlns="http://www.w3.org/2000/svg">
<path d="M16 4C9.92487 4 5 8.92487 5 15C5 21.0751 9.92487 26 16 26C22.0751 26 27 21.0751 27 15C27 13.7125 26.7792 12.4788 26.3743 11.3332L28.26 10.6668C28.7395 12.0234 29 13.4824 29 15C29 19.5714 26.6404 23.5917 23.0728 25.9094L24.8944 29.5528L23.1056 30.4472L21.3155 26.8671C19.6928 27.5951 17.8937 28 16 28C14.1063 28 12.3072 27.5951 10.6845 26.8671L8.89444 30.4472L7.10558 29.5528L8.92725 25.9094C5.35957 23.5917 3 19.5714 3 15C3 7.8203 8.8203 2 16 2C17.5176 2 18.9766 2.26047 20.3332 2.73998L19.6668 4.62566C18.5212 4.22076 17.2875 4 16 4Z" fill="black"/>
<path d="M25 6L24.2929 2.46447L20 6.75734L20 9.58581L18.7574 10.8284C19.3184 11.2 19.8001 11.6816 20.1716 12.2426L16.7071 15.7071L15.2929 14.2929L18.7574 10.8284C17.967 10.3049 17.0191 10 16 10C13.2386 10 11 12.2386 11 15C11 17.7614 13.2386 20 16 20C18.7614 20 21 17.7614 21 15C21 13.9809 20.6951 13.0331 20.1716 12.2426L21.4143 11L24.2426 11L28.5356 6.7071L25 6Z" fill="black"/>
</svg>