<svg viewBox="0 0 32 32" xmlns="http://www.w3.org/2000/svg">
<path d="M5 15C5 8.92487 9.92487 4 16 4C17.2875 4 18.5212 4.22076 19.6668 4.62566L20.3332 2.73998C18.9766 2.26047 17.5176 2 16 2C8.8203 2 3 7.8203 3 15C3 19.5714 5.35957 23.5917 8.92724 25.9094L7.10557 29.5528L8.89442 30.4472L10.6845 26.8671C12.3072 27.5951 14.1063 28 16 28C17.8937 28 19.6928 27.5951 21.3155 26.8671L23.1056 30.4472L24.8944 29.5528L23.0728 25.9094C26.6404 23.5917 29 19.5714 29 15C29 13.4824 28.7395 12.0234 28.26 10.6668L26.3743 11.3332C26.7792 12.4788 27 13.7125 27 15C27 21.0751 22.0751 26 16 26C9.92487 26 5 21.0751 5 15Z"/>
<path fill-rule="evenodd" clip-rule="evenodd" d="M24.2929 2.46447L25 6L28.5356 6.7071L24.2427 11L21.4143 11L16.7071 15.7071L15.2929 14.2929L20 9.58578L20 6.75734L24.2929 2.46447ZM23.0647 6.52114L22 7.58577L22 8.99998L23.4142 8.99997L24.4789 7.93537L23.3004 7.69967L23.0647 6.52114Z"/>
<path d="M12 15C12 12.7909 13.7909 11 16 11V9C12.6863 9 10 11.6863 10 15C10 18.3137 12.6863 21 16 21C19.3137 21 22 18.3137 22 15H20C20 17.2091 18.2091 19 16 19C13.7909 19 12 17.2091 12 15Z"/>
</svg>