<svg viewBox="0 0 32 32" xmlns="http://www.w3.org/2000/svg">
<path d="M9 3H27C28.1 3 29 3.9 29 5V23H27V5H9V3Z"/>
<path d="M21 13H15V15H21V13Z"/>
<path d="M15 21H21V23H15V21Z"/>
<path d="M9.39999 13.5899L7.70999 11.8899L6.28999 13.3099L9.39999 16.4099L13.71 12.1099L12.29 10.6899L9.39999 13.5899Z"/>
<path d="M7.70999 19.8899L9.39999 21.5899L12.29 18.6899L13.71 20.1099L9.39999 24.4099L6.28999 21.3099L7.70999 19.8899Z"/>
<path fill-rule="evenodd" clip-rule="evenodd" d="M5 7H23C24.1 7 25 7.9 25 9V27C25 28.1 24.1 29 23 29H5C3.9 29 3 28.1 3 27V9C3 7.9 3.9 7 5 7ZM5 9V27H23V9H5Z"/>
</svg>