<svg viewBox="0 0 32 32" xmlns="http://www.w3.org/2000/svg">
<path d="M4 5H6.4C8.38823 5 10 6.61177 10 8.6V11.4C10 13.3882 8.38823 15 6.4 15H4V5Z" fill="black"/>
<path d="M28 5H25.6C23.6118 5 22 6.61177 22 8.6V11.4C22 13.3882 23.6118 15 25.6 15H28V5Z" fill="black"/>
<path d="M13 15C13 13.8954 13.8954 13 15 13H17C18.1046 13 19 13.8954 19 15V16C19 17.1046 19.8954 18 21 18H28V30H22V25H21C19.1081 25 17.3696 24.3433 16 23.2454C15.9702 23.2215 15.9407 23.1975 15.9113 23.1732C14.1333 21.7059 13 19.4853 13 17V15Z" fill="black"/>
<path d="M14.7071 8.29289L12.7071 6.29289L11.2929 7.70711L13.2929 9.70711L14.7071 8.29289Z" fill="black"/>
<path d="M19.2929 6.29289L17.2929 8.29289L18.7071 9.70711L20.7071 7.70711L19.2929 6.29289Z" fill="black"/>
<path d="M11 18C11.0165 18 11.0329 17.9998 11.0493 17.9994C11.2969 20.4945 12.4616 22.7199 14.2016 24.3336C13.2212 24.7622 12.1384 25 11 25H10V30H4V18H11Z" fill="black"/>
</svg>