<svg viewBox="0 0 32 32" xmlns="http://www.w3.org/2000/svg">
<path d="M4 6H5.4C6.83594 6 8 7.16406 8 8.6V11.4C8 12.8359 6.83594 14 5.4 14H4V16H5.4C7.94051 16 10 13.9405 10 11.4V8.6C10 6.05949 7.94051 4 5.4 4H4V6Z"/>
<path d="M28 6H26.6C25.1641 6 24 7.16406 24 8.6V11.4C24 12.8359 25.1641 14 26.6 14H28V16H26.6C24.0595 16 22 13.9405 22 11.4V8.6C22 6.05949 24.0595 4 26.6 4H28V6Z"/>
<path d="M15 12C13.3431 12 12 13.3431 12 15V17C12 17.5523 11.5523 18 11 18H4V20H11C11.5048 20 11.9806 19.8753 12.398 19.655C12.801 20.962 13.4936 22.1419 14.4009 23.1198C13.394 23.6805 12.2343 24 11 24H9V30H11V26C12.8501 26 14.5699 25.4417 16 24.4844C17.4301 25.4417 19.1499 26 21 26V30H23V24H21C19.0413 24 17.2705 23.1955 16 21.899C14.7628 20.6364 14 18.9073 14 17V15C14 14.4477 14.4477 14 15 14H17C17.5523 14 18 14.4477 18 15V17C18 18.6569 19.3431 20 21 20H28V18H21C20.4477 18 20 17.5523 20 17V15C20 13.3431 18.6569 12 17 12H15Z"/>
<path d="M12.7071 6.29288L14.7071 8.29288L13.2929 9.70709L11.2929 7.70709L12.7071 6.29288Z"/>
<path d="M17.2929 8.29288L19.2929 6.29288L20.7071 7.70709L18.7071 9.70709L17.2929 8.29288Z"/>
</svg>