<svg viewBox="0 0 32 32" xmlns="http://www.w3.org/2000/svg">
<path fill-rule="evenodd" clip-rule="evenodd" d="M16 28C22.6274 28 28 22.6274 28 16C28 9.37258 22.6274 4 16 4C9.37258 4 4 9.37258 4 16C4 22.6274 9.37258 28 16 28ZM16 30C23.732 30 30 23.732 30 16C30 8.26801 23.732 2 16 2C8.26801 2 2 8.26801 2 16C2 23.732 8.26801 30 16 30Z"/>
<path d="M15.0645 29C15.6633 27.795 16 26.4368 16 25C16 20.0294 11.9706 16 7 16C5.56316 16 4.20496 16.3367 3 16.9355V19.2547C4.13383 18.4638 5.51275 18 7 18C10.866 18 14 21.134 14 25C14 26.4872 13.5362 27.8662 12.7453 29H15.0645Z"/>
<path d="M16.9355 3C16.3367 4.20496 16 5.56316 16 7C16 11.9706 20.0294 16 25 16C26.4368 16 27.795 15.6633 29 15.0645V12.7453C27.8662 13.5362 26.4872 14 25 14C21.134 14 18 10.866 18 7C18 5.51275 18.4638 4.13383 19.2547 3H16.9355Z"/>
</svg>