<svg viewBox="0 0 32 32" xmlns="http://www.w3.org/2000/svg">
<path d="M29.5185 12.3465C28.2992 13.3781 26.7222 14 25 14C21.134 14 18 10.866 18 7C18 5.27779 18.6219 3.70084 19.6535 2.4815C24.449 3.77438 28.2256 7.55097 29.5185 12.3465Z" fill="black"/>
<path d="M17.4654 2.07578C16.9838 2.02568 16.4949 2 16 2C8.26801 2 2 8.26801 2 16C2 16.4949 2.02568 16.9838 2.07577 17.4654C3.49067 16.5388 5.18242 16 7 16C11.9706 16 16 20.0294 16 25C16 26.8176 15.4612 28.5093 14.5346 29.9242C15.0162 29.9743 15.5051 30 16 30C23.732 30 30 23.732 30 16C30 15.5051 29.9743 15.0162 29.9242 14.5346C28.5093 15.4612 26.8176 16 25 16C20.0294 16 16 11.9706 16 7C16 5.18242 16.5388 3.49067 17.4654 2.07578Z" fill="black"/>
<path d="M14 25C14 26.7222 13.3781 28.2992 12.3465 29.5185C7.55097 28.2256 3.77437 24.449 2.4815 19.6535C3.70084 18.6219 5.27779 18 7 18C10.866 18 14 21.134 14 25Z" fill="black"/>
</svg>