<svg viewBox="0 0 32 32" xmlns="http://www.w3.org/2000/svg">
<path fill-rule="evenodd" clip-rule="evenodd" d="M20.8998 20.24L19.7198 16H12.0498L10.9898 20.21L9.0498 19.72L12.6698 5.25999C12.8998 4.48999 13.5698 3.98999 14.3298 3.98999H17.1598C17.9098 3.98999 18.5698 4.46999 18.7998 5.17999L22.8298 19.7L20.8998 20.24ZM16.9398 5.99999H14.5198L12.5198 14H19.1598L16.9398 5.99999Z" fill="black"/>
<path d="M5.5 22H26.5C27.33 22 28 22.67 28 23.5V26.5C28 27.33 27.33 28 26.5 28H5.5C4.67 28 4 27.33 4 26.5V23.5C4 22.67 4.67 22 5.5 22Z" fill="black"/>
</svg>