<svg viewBox="0 0 32 32" xmlns="http://www.w3.org/2000/svg">
<path fill-rule="evenodd" clip-rule="evenodd" d="M15.02 27.92L13.63 21H5.24002L3.99002 27.9L2.02002 27.54L5.99002 5.61C6.19002 4.65 6.91002 4 7.73002 4H10.84C11.66 4 12.35 4.62 12.57 5.53L16.98 27.53L15.02 27.92ZM10.62 6H7.96002L5.60002 19H13.23L10.62 6Z"/>
<path fill-rule="evenodd" clip-rule="evenodd" d="M23.2198 12H25.3398C26.0498 12 26.6498 12.51 26.8298 13.26L29.8398 27.77L27.8798 28.18L26.9998 23.94V24.01H21.7598L20.9798 28.16L19.0098 27.79L21.7198 13.33C21.8998 12.53 22.5098 12 23.2198 12ZM23.6298 14L22.1298 22H26.5998L24.9398 14H23.6298Z"/>
</svg>