<svg viewBox="0 0 32 32" xmlns="http://www.w3.org/2000/svg">
<path fill-rule="evenodd" clip-rule="evenodd" d="M6 20C8.21 20 10 18.21 10 16C10 13.79 8.21 12 6 12C3.79 12 2 13.79 2 16C2 18.21 3.79 20 6 20ZM6 14C7.1 14 8 14.9 8 16C8 17.1 7.1 18 6 18C4.9 18 4 17.1 4 16C4 14.9 4.9 14 6 14Z"/>
<path fill-rule="evenodd" clip-rule="evenodd" d="M16 12C13.79 12 12 13.79 12 16C12 18.21 13.79 20 16 20C18.21 20 20 18.21 20 16C20 13.79 18.21 12 16 12ZM16 18C14.9 18 14 17.1 14 16C14 14.9 14.9 14 16 14C17.1 14 18 14.9 18 16C18 17.1 17.1 18 16 18Z"/>
<path fill-rule="evenodd" clip-rule="evenodd" d="M22 16C22 13.79 23.79 12 26 12C28.21 12 30 13.79 30 16C30 18.21 28.21 20 26 20C23.79 20 22 18.21 22 16ZM24 16C24 17.1 24.9 18 26 18C27.1 18 28 17.1 28 16C28 14.9 27.1 14 26 14C24.9 14 24 14.9 24 16Z"/>
</svg>