<svg viewBox="0 0 32 32" xmlns="http://www.w3.org/2000/svg">
<path d="M9 16C9 17.3807 7.88071 18.5 6.5 18.5C5.11929 18.5 4 17.3807 4 16C4 14.6193 5.11929 13.5 6.5 13.5C7.88071 13.5 9 14.6193 9 16Z"/>
<path d="M18.5 16C18.5 17.3807 17.3807 18.5 16 18.5C14.6193 18.5 13.5 17.3807 13.5 16C13.5 14.6193 14.6193 13.5 16 13.5C17.3807 13.5 18.5 14.6193 18.5 16Z"/>
<path d="M25.5 18.5C26.8807 18.5 28 17.3807 28 16C28 14.6193 26.8807 13.5 25.5 13.5C24.1193 13.5 23 14.6193 23 16C23 17.3807 24.1193 18.5 25.5 18.5Z"/>
</svg>