<svg viewBox="0 0 32 32" xmlns="http://www.w3.org/2000/svg">
<path fill-rule="evenodd" clip-rule="evenodd" d="M20 6C20 8.21 18.21 10 16 10C13.79 10 12 8.21 12 6C12 3.79 13.79 2 16 2C18.21 2 20 3.79 20 6ZM18 6C18 4.9 17.1 4 16 4C14.9 4 14 4.9 14 6C14 7.1 14.9 8 16 8C17.1 8 18 7.1 18 6Z"/>
<path fill-rule="evenodd" clip-rule="evenodd" d="M16 20C18.21 20 20 18.21 20 16C20 13.79 18.21 12 16 12C13.79 12 12 13.79 12 16C12 18.21 13.79 20 16 20ZM16 14C17.1 14 18 14.9 18 16C18 17.1 17.1 18 16 18C14.9 18 14 17.1 14 16C14 14.9 14.9 14 16 14Z"/>
<path fill-rule="evenodd" clip-rule="evenodd" d="M16 30C18.21 30 20 28.21 20 26C20 23.79 18.21 22 16 22C13.79 22 12 23.79 12 26C12 28.21 13.79 30 16 30ZM16 24C17.1 24 18 24.9 18 26C18 27.1 17.1 28 16 28C14.9 28 14 27.1 14 26C14 24.9 14.9 24 16 24Z"/>
</svg>