<svg viewBox="0 0 32 32" xmlns="http://www.w3.org/2000/svg">
<path d="M21 4H15C14.28 4 13.15 4.43 11.37 5.15C10.55 5.48 9.31 5.98 9 6H6V4H4V21H6V18.73L15.54 30H16C17.79 30 19 28.39 19 26C19 23.96 17.96 21.79 16.86 20H24C25.88 20 28 20 28 18C28 16 25.86 10.09 24.93 7.64C24.02 5.32 23.39 4 21 4ZM24 18H13.09L14.18 19.57C15.39 21.31 17 23.87 17 26C17 26.57 16.86 27.56 16.37 27.89L6 15.63V8H9C9.59 8 10.52 7.64 12.11 7C13.04 6.63 14.6 6 15 6H21C21.98 6 22.17 6.07 23.06 8.35C25.12 13.79 25.91 16.81 25.99 17.88C25.75 17.94 25.21 18 24 18Z"/>
</svg>