<svg viewBox="0 0 32 32" xmlns="http://www.w3.org/2000/svg">
<path d="M24 12H16.86C17.96 10.21 19 8.04 19 6C19 3.61 17.79 2 16 2H15.54L6 13.27V11H4V28H6V26H8.98C9.3 26.03 10.54 26.53 11.37 26.85C13.15 27.56 14.29 28 15 28H21C23.39 28 24.02 26.69 24.94 24.35C25.86 21.91 28 16.02 28 14C28 11.98 25.88 12 24 12ZM23.07 23.64C22.17 25.94 21.98 26 21 26H15C14.59 26 13.04 25.37 12.11 25C10.52 24.36 9.59 24 9 24H6V16.37L16.37 4.11C16.86 4.44 17 5.43 17 6C17 8.13 15.39 10.69 14.18 12.43L13.09 14H24C25.22 14 25.76 14.06 26 14.12C25.94 15.13 25.14 18.15 23.07 23.63V23.64Z"/>
</svg>