<svg viewBox="0 0 32 32" xmlns="http://www.w3.org/2000/svg">
<path fill-rule="evenodd" clip-rule="evenodd" d="M7 24L6.09977 5.09513C6.04545 3.9545 6.95558 3 8.0975 3H23.9025C25.0444 3 25.9545 3.9545 25.9002 5.09513L25 24L27.0023 24C28.1058 24.0012 29 24.8962 29 26V28C29 29.1046 28.1046 30 27 30H5C3.89543 30 3 29.1046 3 28V26C3 24.8962 3.89421 24.0012 4.99773 24L7 24ZM22.9977 24L22.9025 26H27V28H5V26H9.0975L9.00227 24H22.9977ZM23.093 22H8.90703L8.81179 20H23.1882L23.093 22ZM23.2834 18L23.9025 5H8.0975L8.71655 18H23.2834Z" fill="black"/>
</svg>