<svg viewBox="0 0 32 32" xmlns="http://www.w3.org/2000/svg">
<path fill-rule="evenodd" clip-rule="evenodd" d="M17.1968 6H2V4H17.1968C21.1442 4 24.789 6.11515 26.7474 9.54247L29.0407 13.5557C30.9445 16.8873 30.5266 21.0597 27.9997 23.9475L24.7526 27.6585L23.2474 26.3415L26.4946 22.6305C27.9059 21.0175 28.4714 18.8894 28.1297 16.8582L21.1055 15.581C18.7281 15.1488 16.9999 13.0781 16.9999 10.6617V10H7.82929C7.93985 10.3128 8 10.6494 8 11V18C8 19.6569 6.65685 21 5 21H3V19H5C5.55228 19 6 18.5523 6 18V11C6 10.4477 5.55228 10 5 10H2V8H22.8538C21.2772 6.72619 19.2889 6 17.1968 6ZM24.6802 10H18.9999V10.6617C18.9999 12.1116 20.0368 13.3539 21.4633 13.6133L27.383 14.6896C27.3574 14.6422 27.3311 14.595 27.3042 14.548L25.011 10.5348C24.9065 10.3519 24.7961 10.1736 24.6802 10Z"/>
<path d="M30 30H2V28H30V30Z"/>
</svg>