<svg viewBox="0 0 32 32" xmlns="http://www.w3.org/2000/svg">
<path fill-rule="evenodd" clip-rule="evenodd" d="M2 4H17.1968C21.1442 4 24.789 6.11515 26.7474 9.54247L29.0407 13.5557C30.9445 16.8873 29.9994 21.895 27.9997 23.9475C26 26 24.6802 26 24.6802 26H3C3 26 3 24.8237 3 19H5C5.55228 19 6 18.5523 6 18V11C6 10.4477 5.55228 10 5 10H2C2 2.68809 2 10.4662 2 4ZM24.6802 10H18.9999V10.6617C18.9999 12.1116 20.0368 13.3539 21.4633 13.6133L27.383 14.6896C27.3574 14.6422 27.3311 14.595 27.3042 14.548L25.011 10.5348C24.9065 10.3519 24.7961 10.1736 24.6802 10Z" fill="black"/>
<path d="M30 30H2V28H30V30Z" fill="black"/>
</svg>