<svg viewBox="0 0 32 32" xmlns="http://www.w3.org/2000/svg">
<path d="M22 10V8C22 4.64 19.36 2 16 2H15C11.64 2 9 4.64 9 8C5.64 8 3 10.64 3 14V16C3 19.36 5.64 22 9 22H15V30H17V24H22C25.86 24 29 20.86 29 17C29 13.14 25.86 10 22 10ZM22 22H17V19.48L21.62 15.78L20.37 14.22L16.99 16.92V12H14.99V20H8.99C6.75 20 4.99 18.24 4.99 16V14C4.99 11.76 6.75 10 8.99 10H10.99V8C10.99 5.76 12.75 4 14.99 4H15.99C18.23 4 19.99 5.76 19.99 8V12H21.99C24.75 12 26.99 14.24 26.99 17C26.99 19.76 24.75 22 21.99 22H22Z"/>
</svg>