<svg viewBox="0 0 32 32" xmlns="http://www.w3.org/2000/svg">
<path d="M27.41 10.3999C27.43 10.6499 27.43 10.8899 27.43 11.1399C27.43 18.7299 21.65 27.4799 11.09 27.4799C7.97003 27.4799 4.91003 26.5899 2.28003 24.8999C2.73003 24.9499 3.19003 24.9799 3.65003 24.9799C6.24003 24.9799 8.75003 24.1099 10.78 22.5199C8.32003 22.4699 6.17003 20.8699 5.41003 18.5299C6.27003 18.6999 7.16003 18.6599 8.00003 18.4299C5.32003 17.8899 3.39003 15.5299 3.39003 12.7999V12.7299C4.19003 13.1699 5.08003 13.4199 6.00003 13.4499C3.48003 11.7599 2.70003 8.40989 4.22003 5.77989C7.14003 9.36989 11.44 11.5499 16.06 11.7799C15.6 9.77989 16.23 7.68989 17.72 6.28989C20.03 4.11989 23.67 4.22989 25.85 6.53989C27.14 6.28989 28.37 5.80989 29.5 5.14989C29.07 6.47989 28.17 7.60989 26.97 8.32989C28.11 8.19989 29.22 7.88989 30.27 7.42989C29.5 8.58989 28.53 9.58989 27.4 10.4099L27.41 10.3999Z"/>
</svg>