<svg viewBox="0 0 32 32" xmlns="http://www.w3.org/2000/svg">
<path d="M20.6451 16.9871C20.2373 13.7247 19.2777 10.5554 17.8074 7.61472L16 4L14.1926 7.61472C12.7223 10.5554 11.7627 13.7247 11.3549 16.9871L11.0078 19.7638H20.9922L20.6451 16.9871Z" fill="black"/>
<path d="M22.9772 19.5195L30 17.7638C30 10.9404 25.0142 5.11619 18.2812 4.09033L19.5962 6.72028C21.168 9.86376 22.1937 13.2516 22.6296 16.739L22.9772 19.5195Z" fill="black"/>
<path d="M2 17.7638L9.0228 19.5195L9.37036 16.739C9.80627 13.2516 10.832 9.86376 12.4038 6.72028L13.7188 4.09033C6.98585 5.11619 2 10.9404 2 17.7638Z" fill="black"/>
<path d="M15 26.7638V19.7638H17V26.7638C17 28.4207 15.6569 29.7638 14 29.7638C12.3431 29.7638 11 28.4207 11 26.7638V25.7638H13V26.7638C13 27.3161 13.4477 27.7638 14 27.7638C14.5523 27.7638 15 27.3161 15 26.7638Z" fill="black"/>
</svg>