<svg viewBox="0 0 32 32" xmlns="http://www.w3.org/2000/svg">
<path fill-rule="evenodd" clip-rule="evenodd" d="M30 18C30 11.1333 24.9509 5.27866 18.1532 4.30757C16.725 4.10353 15.275 4.10353 13.8468 4.30757C7.04915 5.27866 2 11.1333 2 18L10 20H22L30 18ZM16 6.72047L16.0763 6.82724C18.4592 10.1633 20.0776 13.9781 20.8228 18H11.1772C11.9224 13.9781 13.5408 10.1633 15.9237 6.82724L16 6.72047ZM22.8079 17.7364C22.0664 13.6569 20.4869 9.77399 18.1681 6.33386C23.3151 7.20312 27.2364 11.3677 27.9005 16.4633L22.8079 17.7364ZM4.09949 16.4633C4.76356 11.3677 8.68494 7.20312 13.8319 6.33386C11.5131 9.77399 9.93361 13.6569 9.19214 17.7364L4.09949 16.4633Z"/>
<path d="M15 27V20H17V27C17 28.6568 15.6569 30 14 30C12.3431 30 11 28.6568 11 27V26H13V27C13 27.5523 13.4477 28 14 28C14.5523 28 15 27.5523 15 27Z"/>
</svg>