<svg viewBox="0 0 32 32" xmlns="http://www.w3.org/2000/svg">
<path d="M18.8972 7.2171C20.5267 5.58763 23.1536 5.58763 24.783 7.2171C26.4125 8.84658 26.4125 11.4734 24.783 13.1029L20.403 17.4829L21.8172 18.8971L26.1972 14.5171C28.6078 12.1066 28.6078 8.21341 26.1972 5.80289C23.7867 3.39236 19.8936 3.39236 17.483 5.80289L13.103 10.1829L14.5172 11.5971L18.8972 7.2171Z"/>
<path d="M7.21722 18.8971L11.5972 14.5171L10.183 13.1029L5.80301 17.4829C3.39249 19.8934 3.39249 23.7866 5.80301 26.1971C8.21353 28.6076 12.1067 28.6076 14.5172 26.1971L18.8972 21.8171L17.483 20.4029L13.103 24.7829C11.4735 26.4124 8.8467 26.4124 7.21722 24.7829C5.58775 23.1534 5.58775 20.5266 7.21722 18.8971Z"/>
<path d="M12 4V8H10V4H12Z"/>
<path d="M20 24V28H22V24H20Z"/>
<path d="M4 10H8V12H4V10Z"/>
<path d="M24 22H28V20H24V22Z"/>
</svg>