<svg viewBox="0 0 32 32" xmlns="http://www.w3.org/2000/svg">
<g clip-path="url(#clip0_5030_1149)">
<path d="M17.6974 3.10791C18.8317 3.2577 19.9331 3.55649 20.9751 3.98897L20.2084 5.83618C19.326 5.46993 18.3942 5.21729 17.4356 5.09069L17.6974 3.10791Z" fill="black"/>
<path d="M26.3163 8.08404C25.6194 7.17661 24.81 6.37218 23.9145 5.68602L22.6981 7.2736C23.4565 7.85467 24.1412 8.53531 24.7301 9.3022L26.3163 8.08404Z" fill="black"/>
<path d="M28.8904 14.3039C28.8166 13.7484 28.706 13.1913 28.5571 12.6354C28.4082 12.0795 28.2254 11.5418 28.0115 11.0238L26.1628 11.7869C26.3438 12.2252 26.4988 12.681 26.6252 13.153C26.7517 13.6251 26.8454 14.0973 26.9078 14.5673L28.8904 14.3039Z" fill="black"/>
<path d="M14.3039 3.1097C13.7484 3.18351 13.1913 3.29408 12.6354 3.44302C12.0796 3.59197 11.5418 3.77477 11.0238 3.98861L11.787 5.83728C12.2252 5.65636 12.681 5.50137 13.1531 5.37487C13.6251 5.24838 14.0973 5.15473 14.5673 5.09228L14.3039 3.1097Z" fill="black"/>
<path d="M25.0205 25.2977C25.4551 24.8739 25.8583 24.4215 26.2256 23.9422L24.6381 22.7258C24.3239 23.1358 23.9807 23.5242 23.6104 23.8877L23.6085 23.8857C19.3069 28.0522 12.4294 28.0104 8.17942 23.7604C5.0349 20.6159 4.8366 16.6542 5.27334 13.7833L7.9044 16.4143L9.31861 15.0001L4.64438 10.3259L-0.0297852 15.0001L1.38443 16.4143L3.16297 14.6357C2.89175 17.8193 3.44029 21.8497 6.76521 25.1746C11.793 30.2024 19.9431 30.2442 25.0228 25.3001L25.0205 25.2977Z" fill="black"/>
<path d="M28.0112 20.9751C28.4436 19.9331 28.7424 18.8317 28.8922 17.6974L26.9094 17.4356C26.7828 18.3942 26.5302 19.326 26.1639 20.2084L28.0112 20.9751Z" fill="black"/>
<path d="M14.0001 17.1401L14.0001 9.1401L16.0001 9.1401L16.0001 16.0001L20.5101 18.7101L19.4901 20.4301L14.0001 17.1401Z" fill="black"/>
</g>
</svg>