<svg viewBox="0 0 32 32" xmlns="http://www.w3.org/2000/svg">
<path d="M13.2688 2.26645C14.153 2.09155 15.0663 2 16 2C16.9337 2 17.847 2.09155 18.7312 2.26645L18.343 4.22843C17.586 4.07867 16.8027 4 16 4C15.1973 4 14.414 4.07867 13.657 4.22843L13.2688 2.26645Z"/>
<path d="M4.35868 8.22068C5.38051 6.69439 6.69439 5.38051 8.22068 4.35868L9.33332 6.02062C8.02427 6.897 6.897 8.02427 6.02062 9.33332L4.35868 8.22068Z"/>
<path d="M23.7793 4.35868C25.3056 5.38051 26.6195 6.69439 27.6413 8.22068L25.9794 9.33332C25.103 8.02427 23.9757 6.897 22.6667 6.02062L23.7793 4.35868Z"/>
<path d="M29.7335 13.2688C29.9085 14.153 30 15.0663 30 16C30 16.9337 29.9085 17.847 29.7335 18.7312L27.7716 18.343C27.9213 17.586 28 16.8027 28 16C28 15.1973 27.9213 14.414 27.7716 13.657L29.7335 13.2688Z"/>
<path d="M2 16C2 15.0663 2.09155 14.153 2.26645 13.2688L4.22843 13.657C4.07867 14.414 4 15.1973 4 16C4 16.8027 4.07867 17.586 4.22843 18.343L2.26645 18.7312C2.09155 17.847 2 16.9337 2 16Z"/>
<path d="M8.22068 27.6413C6.69439 26.6195 5.38051 25.3056 4.35868 23.7793L6.02062 22.6667C6.897 23.9757 8.02427 25.103 9.33332 25.9794L8.22068 27.6413Z"/>
<path d="M27.6413 23.7793C26.6195 25.3056 25.3056 26.6195 23.7793 27.6413L22.6667 25.9794C23.9757 25.103 25.103 23.9757 25.9794 22.6667L27.6413 23.7793Z"/>
<path d="M16 30C15.0663 30 14.153 29.9085 13.2688 29.7335L13.657 27.7716C14.414 27.9213 15.1973 28 16 28C16.8027 28 17.586 27.9213 18.343 27.7716L18.7312 29.7335C17.847 29.9085 16.9337 30 16 30Z"/>
<path fill-rule="evenodd" clip-rule="evenodd" d="M15.5 18H16.5C18.43 18 20 16.43 20 14.5V11.5C20 9.57 18.43 8 16.5 8H15.5C13.57 8 12 9.57 12 11.5V14.5C12 16.43 13.57 18 15.5 18ZM14 11.5C14 10.67 14.67 10 15.5 10H16.5C17.33 10 18 10.67 18 11.5V14.5C18 15.33 17.33 16 16.5 16H15.5C14.67 16 14 15.33 14 14.5V11.5Z"/>
<path d="M10.9899 24.1758C11.3578 22.8879 12.535 22 13.8744 22H18.1257C19.4652 22 20.6423 22.8879 21.0103 24.1758L21.0386 24.2747L22.9616 23.7253L22.9334 23.6264C22.3201 21.4799 20.3582 20 18.1257 20H13.8744C11.642 20 9.68012 21.4799 9.06683 23.6264L9.03857 23.7253L10.9616 24.2747L10.9899 24.1758Z"/>
</svg>