<svg viewBox="0 0 32 32" xmlns="http://www.w3.org/2000/svg">
<path fill-rule="evenodd" clip-rule="evenodd" d="M17 15H15C12.79 15 11 13.21 11 11V7C11 4.79 12.79 3 15 3H17C19.21 3 21 4.79 21 7V11C21 13.21 19.21 15 17 15ZM17 13C18.1 13 19 12.1 19 11V7C19 6.975 18.995 6.95 18.99 6.925C18.985 6.9 18.98 6.875 18.98 6.85C17.52 8.37 15.52 9.34 13 9.76V11C13 12.1 13.9 13 15 13H17ZM17 5H15C13.9 5 13 5.9 13 7V7.74C15.11 7.35 16.7 6.5 17.82 5.18C17.57 5.07 17.29 5 17 5Z"/>
<path fill-rule="evenodd" clip-rule="evenodd" d="M12 17H20C23.86 17 27 20.14 27 24V29H5V24C5 20.14 8.14 17 12 17ZM7 27H25V24C25 21.24 22.76 19 20 19H12C9.24 19 7 21.24 7 24V27Z"/>
</svg>