<svg viewBox="0 0 32 32" xmlns="http://www.w3.org/2000/svg">
<path fill-rule="evenodd" clip-rule="evenodd" d="M12 4C10.8954 4 10 4.89543 10 6V9C10 10.1046 10.8954 11 12 11H13C14.1046 11 15 10.1046 15 9V6C15 4.89543 14.1046 4 13 4H12ZM8 6C8 3.79086 9.79086 2 12 2H13C15.2091 2 17 3.79086 17 6V9C17 11.2091 15.2091 13 13 13H12C9.79086 13 8 11.2091 8 9V6Z"/>
<path fill-rule="evenodd" clip-rule="evenodd" d="M2 22C2 18.1377 5.13772 15 9 15H16C18.0711 15 19.9341 15.9034 21.2145 17.3328L19.7247 18.6672C18.8068 17.6425 17.4775 17 16 17H9C6.24228 17 4 19.2423 4 22V24H11V26H2V22Z"/>
<path fill-rule="evenodd" clip-rule="evenodd" d="M13 23.6667C13 22.7462 13.7462 22 14.6667 22H17.3333C18.2538 22 19 22.7462 19 23.6667V26.3333C19 27.2538 18.2538 28 17.3333 28H14.6667C13.7462 28 13 27.2538 13 26.3333V23.6667ZM15 24V26H17V24H15Z"/>
<path fill-rule="evenodd" clip-rule="evenodd" d="M24 25C24 23.3431 25.3431 22 27 22C28.6569 22 30 23.3431 30 25C30 26.6569 28.6569 28 27 28C25.3431 28 24 26.6569 24 25ZM27 24C26.4477 24 26 24.4477 26 25C26 25.5523 26.4477 26 27 26C27.5523 26 28 25.5523 28 25C28 24.4477 27.5523 24 27 24Z"/>
<path fill-rule="evenodd" clip-rule="evenodd" d="M21.1759 21.2616L24.9142 25L21.1759 28.7384L19.7616 27.3241L21.0858 26H18V24H21.0858L19.7616 22.6759L21.1759 21.2616Z"/>
</svg>