<svg viewBox="0 0 32 32" xmlns="http://www.w3.org/2000/svg">
<path fill-rule="evenodd" clip-rule="evenodd" d="M21 26V23H23V26H21Z" fill="black"/>
<path fill-rule="evenodd" clip-rule="evenodd" d="M24 26V20H26V26H24Z" fill="black"/>
<path fill-rule="evenodd" clip-rule="evenodd" d="M18.9817 17.75H18.4583C18.8248 17.75 18.9434 17.75 18.9817 17.75ZM19 18V28H28V18H19ZM18 17.75C17 17.75 17 17.7501 17 17.7501V28.25C17 28.6104 17.0872 28.9848 17.281 29.3018C17.4642 29.6016 17.8516 30 18.4583 30H28.5417C29.1484 30 29.5358 29.6016 29.719 29.3018C29.9128 28.9848 30 28.6104 30 28.25V17.75C30 17.3896 29.9128 17.0152 29.719 16.6982C29.5358 16.3984 29.1484 16 28.5417 16H18.4583C17.8516 16 17.4642 16.3984 17.281 16.6982C17.0872 17.0152 17 17.3897 17 17.7501L18 17.75Z" fill="black"/>
<path d="M14 15H9C5.13833 15 2 17.9889 2 21.6667V26H14V15Z" fill="black"/>
<path d="M13.0714 3H11.9286C10.035 3 8.5 4.49238 8.5 6.33333V9.66667C8.5 11.5076 10.035 13 11.9286 13H13.0714C14.965 13 16.5 11.5076 16.5 9.66667V6.33333C16.5 4.49238 14.965 3 13.0714 3Z" fill="black"/>
</svg>