<svg viewBox="0 0 32 32" xmlns="http://www.w3.org/2000/svg">
<path d="M13.2688 2.26645C14.153 2.09155 15.0663 2 16 2C16.9337 2 17.847 2.09155 18.7312 2.26645L18.343 4.22843C17.586 4.07867 16.8027 4 16 4C15.1973 4 14.414 4.07867 13.657 4.22843L13.2688 2.26645Z" fill="black"/>
<path d="M4.35868 8.22068C5.38051 6.69439 6.69439 5.38051 8.22068 4.35868L9.33332 6.02062C8.02427 6.897 6.897 8.02427 6.02062 9.33332L4.35868 8.22068Z" fill="black"/>
<path d="M23.7793 4.35868C25.3056 5.38051 26.6195 6.69439 27.6413 8.22068L25.9794 9.33332C25.103 8.02427 23.9757 6.897 22.6667 6.02062L23.7793 4.35868Z" fill="black"/>
<path d="M29.7335 13.2688C29.9085 14.153 30 15.0663 30 16C30 16.9337 29.9085 17.847 29.7335 18.7312L27.7716 18.343C27.9213 17.586 28 16.8027 28 16C28 15.1973 27.9213 14.414 27.7716 13.657L29.7335 13.2688Z" fill="black"/>
<path d="M2 16C2 15.0663 2.09155 14.153 2.26645 13.2688L4.22843 13.657C4.07867 14.414 4 15.1973 4 16C4 16.8027 4.07867 17.586 4.22843 18.343L2.26645 18.7312C2.09155 17.847 2 16.9337 2 16Z" fill="black"/>
<path d="M8.22068 27.6413C6.69439 26.6195 5.38051 25.3056 4.35868 23.7793L6.02062 22.6667C6.897 23.9757 8.02427 25.103 9.33332 25.9794L8.22068 27.6413Z" fill="black"/>
<path d="M27.6413 23.7793C26.6195 25.3056 25.3056 26.6195 23.7793 27.6413L22.6667 25.9794C23.9757 25.103 25.103 23.9757 25.9794 22.6667L27.6413 23.7793Z" fill="black"/>
<path d="M16 30C15.0663 30 14.153 29.9085 13.2688 29.7335L13.657 27.7716C14.414 27.9213 15.1973 28 16 28C16.8027 28 17.586 27.9213 18.343 27.7716L18.7312 29.7335C17.847 29.9085 16.9337 30 16 30Z" fill="black"/>
<path d="M9.461 22.4243L9 23.5C9 23.5 11.5001 26 16 26C20.5 26 23 23.5 23 23.5L22.539 22.4243C21.9087 20.9536 20.4625 20 18.8624 20H13.1376C11.5375 20 10.0913 20.9536 9.461 22.4243Z" fill="black"/>
<path d="M15.5 10C14.1193 10 13 11.1193 13 12.5V15.5C13 16.8807 14.1193 18 15.5 18H16.5C17.8807 18 19 16.8807 19 15.5V12.5C19 11.1193 17.8807 10 16.5 10H15.5Z" fill="black"/>
</svg>