<svg viewBox="0 0 32 32" xmlns="http://www.w3.org/2000/svg">
<path d="M29.48 18.59L25.33 11.33C25.33 5.42 20.25 2 14.96 2C6.56002 2 2.52002 7.19 2.52002 12.37C2.52002 17.55 3.56002 19.63 6.67002 22.74C9.60002 25.67 9.78002 24.81 9.78002 30H21.19C21.19 25.64 20.88 25.85 22.23 25.85C26.38 25.85 26.38 25.44 26.38 19.63H28.97C29.9 19.63 29.72 19.28 29.49 18.59H29.48ZM17.79 10.22L14 12.32L10.21 10.22L14 8.07L17.79 10.22ZM9.17002 16.67V11.93L13 14.05V19.16L9.17002 16.67ZM15 19.16V14.05L18.83 11.93V16.67L15 19.16Z" fill="black"/>
</svg>