<svg viewBox="0 0 32 32" xmlns="http://www.w3.org/2000/svg">
<path d="M13.0714 3H11.9286C10.035 3 8.5 4.49238 8.5 6.33333V9.66667C8.5 11.5076 10.035 13 11.9286 13H13.0714C14.965 13 16.5 11.5076 16.5 9.66667V6.33333C16.5 4.49238 14.965 3 13.0714 3Z" fill="black"/>
<path d="M16 15C16.6948 15 17.3661 15.0967 18 15.2768V16H17.6427C15.8394 16 14.3104 17.3274 14.0554 19.1125C14.0236 19.3348 13.8333 19.5 13.6088 19.5C11.6157 19.5 10 21.1157 10 23.1088V26H2V21.6667C2 17.9889 5.13833 15 9 15H16Z" fill="black"/>
<path fill-rule="evenodd" clip-rule="evenodd" d="M15.7248 21.3545C15.9557 19.389 17.7701 18 19.78 18H21.62C23.7745 18 25.7 19.6047 25.7 21.78V22.45H25.8C27.7656 22.45 29.7663 23.763 29.9844 25.8443C30.2396 28.21 28.2031 29.9972 25.9354 30L24.93 30.01L16.08 30.01C13.9255 30.01 12 28.4053 12 26.23V25.12C12 23.0537 13.7203 21.5182 15.7248 21.3545ZM19.78 20C18.532 20 17.7 20.8875 17.7 21.78V23.34H16.08C14.832 23.34 14 24.2275 14 25.12V26.23C14 27.1147 14.8345 28.01 16.08 28.01H24.925L25.93 28C27.2595 28 28.099 27.0092 27.9958 26.0578L27.9954 26.0536C27.9123 25.2561 27.0338 24.45 25.8 24.45H23.7V21.78C23.7 20.8953 22.8655 20 21.62 20H19.78Z" fill="black"/>
</svg>