<svg viewBox="0 0 32 32" xmlns="http://www.w3.org/2000/svg">
<path fill-rule="evenodd" clip-rule="evenodd" d="M21 26V23H23V26H21Z"/>
<path fill-rule="evenodd" clip-rule="evenodd" d="M24 26V20H26V26H24Z"/>
<path fill-rule="evenodd" clip-rule="evenodd" d="M18.9817 17.75H18.4583C18.8248 17.75 18.9434 17.75 18.9817 17.75ZM19 18V28H28V18H19ZM18 17.75C17 17.75 17 17.7501 17 17.7501V28.25C17 28.6104 17.0872 28.9848 17.281 29.3018C17.4642 29.6016 17.8516 30 18.4583 30H28.5417C29.1484 30 29.5358 29.6016 29.719 29.3018C29.9128 28.9848 30 28.6104 30 28.25V17.75C30 17.3896 29.9128 17.0152 29.719 16.6982C29.5358 16.3984 29.1484 16 28.5417 16H18.4583C17.8516 16 17.4642 16.3984 17.281 16.6982C17.0872 17.0152 17 17.3897 17 17.7501L18 17.75Z"/>
<path fill-rule="evenodd" clip-rule="evenodd" d="M12 4C10.8954 4 10 4.89543 10 6V9C10 10.1046 10.8954 11 12 11H13C14.1046 11 15 10.1046 15 9V6C15 4.89543 14.1046 4 13 4H12ZM8 6C8 3.79086 9.79086 2 12 2H13C15.2091 2 17 3.79086 17 6V9C17 11.2091 15.2091 13 13 13H12C9.79086 13 8 11.2091 8 9V6Z"/>
<path fill-rule="evenodd" clip-rule="evenodd" d="M2 22C2 18.1377 5.13772 15 9 15H15V17H9C6.24228 17 4 19.2423 4 22V24H15V26H2V22Z"/>
</svg>