<svg viewBox="0 0 32 32" xmlns="http://www.w3.org/2000/svg">
<path fill-rule="evenodd" clip-rule="evenodd" d="M8 6C8 3.79086 9.79086 2 12 2H13C15.2091 2 17 3.79086 17 6V9C17 11.2091 15.2091 13 13 13H12C9.79086 13 8 11.2091 8 9V6ZM12 4C10.8954 4 10 4.89543 10 6V9C10 10.1046 10.8954 11 12 11H13C14.1046 11 15 10.1046 15 9V6C15 4.89543 14.1046 4 13 4H12Z" fill="black"/>
<path fill-rule="evenodd" clip-rule="evenodd" d="M27.73 21.4C27.9 21.9 28 22.44 28 23C28 23.56 27.89 24.09 27.72 24.59L29.51 25.63L28.5 27.36L26.71 26.32C26.01 27.11 25.07 27.68 24 27.9V30H22V27.9C20.93 27.69 19.99 27.12 19.29 26.33L17.51 27.37L16.5 25.64L18.28 24.6C18.11 24.1 18.01 23.56 18.01 23C18.01 22.44 18.12 21.91 18.29 21.41L16.5 20.37L17.51 18.64L19.3 19.68C20 18.89 20.94 18.32 22.01 18.1V16H24.01V18.1C25.08 18.31 26.02 18.88 26.72 19.67L28.5 18.63L29.51 20.36L27.73 21.4ZM20 23C20 24.66 21.34 26 23 26C24.66 26 26 24.66 26 23C26 21.34 24.66 20 23 20C21.34 20 20 21.34 20 23Z" fill="black"/>
<path d="M9 15C5.13772 15 2 18.1377 2 22V26H14V24H4V22C4 19.2423 6.24228 17 9 17H15V15H9Z" fill="black"/>
</svg>