<svg viewBox="0 0 32 32" xmlns="http://www.w3.org/2000/svg">
<path fill-rule="evenodd" clip-rule="evenodd" d="M6.68994 13.2443C7.41117 14.2964 8.62639 15 10.0002 15H11.0002C12.3802 15 13.6002 14.3 14.3202 13.23C14.8402 13.96 15.5702 14.55 16.6702 14.94L17.3402 13.06C15.5702 12.43 15.2902 11.15 15.0002 7.91C14.9502 5.75 13.1802 4 11.0102 4H10.0102C7.83018 4 6.07018 5.75 6.02018 7.91C5.73018 11.14 5.46018 12.43 3.68018 13.06L4.35018 14.94C5.43304 14.5526 6.17048 13.9677 6.68994 13.2443ZM13.0002 8.07C11.7102 9.17 10.0402 9.87 8.00018 10.17V10.99C8.00018 12.09 8.90018 12.99 10.0002 12.99H11.0002C12.1002 12.99 13.0002 12.09 13.0002 10.99V8.07Z" fill="black"/>
<path fill-rule="evenodd" clip-rule="evenodd" d="M24 15H23C20.79 15 19 13.21 19 11V8C19 5.79 20.79 4 23 4H24C26.21 4 28 5.79 28 8V11C28 13.21 26.21 15 24 15ZM26 8.08C24.71 9.18 23.04 9.88 21 10.18V11C21 12.1 21.9 13 23 13H24C25.1 13 26 12.1 26 11V8.08Z" fill="black"/>
<path d="M12 17H9C5.14 17 2 20.14 2 24V28H19V24C19 20.14 15.86 17 12 17Z" fill="black"/>
<path d="M20.0002 17H23.0002C26.8602 17 30.0002 20.14 30.0002 24V28H21.0002V24C21.0002 21.34 19.8302 18.95 17.9902 17.3C18.6202 17.11 19.3002 17 20.0002 17Z" fill="black"/>
</svg>