<svg viewBox="0 0 32 32" xmlns="http://www.w3.org/2000/svg">
<path d="M15.5 4H16.5C18.433 4 20 5.567 20 7.5V10.5C20 12.433 18.433 14 16.5 14H15.5C13.567 14 12 12.433 12 10.5V7.5C12 5.567 13.567 4 15.5 4Z" fill="black"/>
<path d="M10 12.5C10 14.43 8.43 16 6.5 16C4.57 16 3 14.43 3 12.5V10.5C3 8.57 4.57 7 6.5 7C8.43 7 10 8.57 10 10.5V12.5Z" fill="black"/>
<path d="M29 12.5C29 14.43 27.43 16 25.5 16C23.57 16 22 14.43 22 12.5V10.5C22 8.57 23.57 7 25.5 7C27.43 7 29 8.57 29 10.5V12.5Z" fill="black"/>
<path d="M18 16H14C10.69 16 8 18.69 8 22V28H24V22C24 18.69 21.31 16 18 16Z" fill="black"/>
<path d="M2 24V28H6V22C6 20.65 6.34 19.37 6.94 18.25C6.42 18.34 5.93 18.44 5.49 18.55C3.23 19.13 2.01 21.67 2.01 24H2Z" fill="black"/>
<path d="M25.0698 18.25C25.5198 18.32 25.9498 18.39 26.3398 18.47H26.3498C28.7198 18.95 30.0098 21.58 30.0098 24V28H26.0098V22C26.0098 20.64 25.6698 19.37 25.0698 18.25Z" fill="black"/>
</svg>