<svg viewBox="0 0 32 32" xmlns="http://www.w3.org/2000/svg">
<path d="M13.0714 3H11.9286C10.035 3 8.5 4.49238 8.5 6.33333V9.66667C8.5 11.5076 10.035 13 11.9286 13H13.0714C14.965 13 16.5 11.5076 16.5 9.66667V6.33333C16.5 4.49238 14.965 3 13.0714 3Z" fill="black"/>
<path fill-rule="evenodd" clip-rule="evenodd" d="M16 15C16.6948 15 17.3661 15.0967 18 15.2768V17C18 17.5523 17.5523 18 17 18H16C14.8954 18 14 18.8954 14 20V26H2V21.6667C2 17.9889 5.13833 15 9 15H16Z" fill="black"/>
<path fill-rule="evenodd" clip-rule="evenodd" d="M18 22V28H28V22H18ZM17 20C16.4477 20 16 20.4477 16 21V29C16 29.5523 16.4477 30 17 30H29C29.5523 30 30 29.5523 30 29V21C30 20.4477 29.5523 20 29 20H17Z" fill="black"/>
<path fill-rule="evenodd" clip-rule="evenodd" d="M22 19V20H20V19C20 17.8954 20.8954 17 22 17H24C25.1046 17 26 17.8954 26 19V20H24V19H22Z" fill="black"/>
</svg>