<svg viewBox="0 0 32 32" xmlns="http://www.w3.org/2000/svg">
<path d="M15 2C20.26 2 25.84 5.41 26 11.73H26.01L30 18.81C30.16 19.25 30.36 19.86 29.96 20.42C29.54 21 28.79 21 28.51 21H27.01C26.99 25.7 26.69 27 22.01 27H21.98C21.9735 27.1829 21.9755 27.4043 21.9776 27.6445C21.9788 27.772 21.98 27.9048 21.98 28.04C21.99 28.56 22 29.2 22 30H20C20 29.5687 19.9939 29.1833 19.9884 28.8387C19.984 28.56 19.98 28.308 19.98 28.08C19.95 26.5 19.94 25.91 20.43 25.42C20.86 25 21.38 25 21.84 25H22C23.8 25 24.45 24.9 24.65 24.57C25 24.01 25 22.42 25 20V19H27.85L24 12.27V12C24 6.75 19.47 4 15 4C7.4 4 4 8.52 4 13C4 17.78 4.93 19.51 7.71 22.29C8.17 22.75 8.55 23.11 8.88 23.41C10.86 25.26 11 25.69 11 30H9C9 27.5067 8.50333 25.8 7.51 24.88C7.45805 24.8311 7.40471 24.781 7.34989 24.7296C7.0459 24.4444 6.69666 24.1167 6.29 23.71C2.92 20.34 2 18.3 2 13C2 7.7 6.07 2 15 2Z"/>
<path fill-rule="evenodd" clip-rule="evenodd" d="M19.26 9.77C19.72 10.03 20 10.51 20 11.04V16.49C20 16.99 19.75 17.45 19.33 17.72L14.79 20.67C14.55 20.82 14.28 20.9 14 20.9C13.72 20.9 13.45 20.83 13.21 20.67L8.67 17.72C8.25 17.45 8 16.99 8 16.49V11.03C8 10.51 8.28 10.02 8.74 9.76L13.29 7.18C13.74 6.94 14.26 6.94 14.7 7.18L19.26 9.77ZM16.95 10.76L14 9.08L11.05 10.76L14 12.4L16.95 10.76ZM13 14.12L10 12.46V16.2L13 18.15V14.12ZM15 14.12V18.15L18 16.2V12.46L15 14.12Z"/>
</svg>