<svg viewBox="0 0 32 32" xmlns="http://www.w3.org/2000/svg">
<path d="M11 13H12C14.21 13 16 11.21 16 9V6C16 3.79 14.21 2 12 2H11C8.79 2 7 3.79 7 6V9C7 11.21 8.79 13 11 13ZM9 6C9 4.9 9.9 4 11 4H12C13.1 4 14 4.9 14 6V9C14 10.1 13.1 11 12 11H11C9.9 11 9 10.1 9 9V6Z"/>
<path d="M4 22C4 19.24 6.24 17 9 17H16V15H9C5.14 15 2 18.14 2 22V26H13.99V24H4V22Z"/>
<path d="M29.57 17.05L28.24 18.38C28.24 18.38 28.19 18.33 28.16 18.3C27.91 18.02 27.63 17.77 27.34 17.53C27.25 17.45 27.16 17.37 27.06 17.3C26.92 17.2 26.77 17.11 26.62 17.02C26.49 16.94 26.37 16.87 26.24 16.8C26.1 16.73 25.95 16.66 25.81 16.6C25.66 16.53 25.5 16.47 25.34 16.41C25.2 16.36 25.07 16.32 24.93 16.28C24.74 16.23 24.54 16.18 24.34 16.14C24.22 16.12 24.11 16.09 23.99 16.07C23.67 16.02 23.34 16 23 16C22.77 16 22.54 16.01 22.32 16.03C22.26 16.03 22.21 16.05 22.15 16.05C21.98 16.07 21.81 16.1 21.64 16.13C21.59 16.14 21.54 16.15 21.49 16.16C21.31 16.2 21.14 16.24 20.97 16.29C20.94 16.3 20.9 16.31 20.87 16.32C20.68 16.38 20.48 16.45 20.3 16.53H20.28C18.62 17.24 17.29 18.55 16.58 20.23C16.57 20.25 16.56 20.28 16.55 20.3C16.48 20.47 16.42 20.64 16.36 20.81C16.34 20.87 16.32 20.94 16.3 21C16.26 21.14 16.22 21.28 16.19 21.42C16.17 21.51 16.15 21.6 16.13 21.68C16.13 21.73 16.11 21.77 16.1 21.82C16.04 22.2 16 22.58 16 22.98C16 26.84 19.14 29.98 23 29.98C25.99 29.98 28.65 28.08 29.62 25.25L27.73 24.6C27.04 26.62 25.14 27.98 23 27.98C20.24 27.98 18 25.74 18 22.98C18 22.66 18.04 22.35 18.09 22.05C18.11 21.94 18.15 21.83 18.17 21.72C18.22 21.51 18.28 21.31 18.36 21.12C18.39 21.03 18.44 20.95 18.48 20.87C18.58 20.66 18.68 20.46 18.81 20.27C18.85 20.21 18.89 20.15 18.94 20.09C19.08 19.89 19.24 19.7 19.41 19.53C19.45 19.48 19.5 19.44 19.55 19.39C19.73 19.22 19.92 19.06 20.12 18.92C20.18 18.88 20.23 18.84 20.29 18.8C20.49 18.67 20.7 18.56 20.92 18.46C20.99 18.43 21.06 18.39 21.13 18.36C21.35 18.27 21.58 18.21 21.81 18.15C21.89 18.13 21.96 18.1 22.04 18.09C22.35 18.03 22.67 17.99 23 17.99C23.24 17.99 23.48 18.01 23.72 18.05C23.77 18.05 23.81 18.07 23.86 18.08C24.06 18.12 24.25 18.16 24.44 18.22C24.47 18.22 24.51 18.24 24.54 18.25C24.76 18.32 24.97 18.4 25.17 18.5H25.18C25.81 18.81 26.37 19.26 26.82 19.79L25.04 21.57C24.88 21.73 24.99 22 25.22 22H29.75C29.89 22 30 21.89 30 21.75V17.22C30 17 29.73 16.89 29.57 17.04V17.05Z"/>
</svg>