<svg viewBox="0 0 32 32" xmlns="http://www.w3.org/2000/svg">
<path fill-rule="evenodd" clip-rule="evenodd" d="M20.0385 28.7253L22.0385 21.7253L23.9615 22.2747L21.9615 29.2747L20.0385 28.7253Z"/>
<path fill-rule="evenodd" clip-rule="evenodd" d="M27.2711 25.5L25.1863 22.5812L26.8137 21.4188L29.7289 25.5L26.8137 29.5812L25.1863 28.4188L27.2711 25.5Z"/>
<path fill-rule="evenodd" clip-rule="evenodd" d="M16.7289 25.5L18.8137 22.5812L17.1863 21.4188L14.2711 25.5L17.1863 29.5812L18.8137 28.4188L16.7289 25.5Z"/>
<path fill-rule="evenodd" clip-rule="evenodd" d="M12 4C10.8954 4 10 4.89543 10 6V9C10 10.1046 10.8954 11 12 11H13C14.1046 11 15 10.1046 15 9V6C15 4.89543 14.1046 4 13 4H12ZM8 6C8 3.79086 9.79086 2 12 2H13C15.2091 2 17 3.79086 17 6V9C17 11.2091 15.2091 13 13 13H12C9.79086 13 8 11.2091 8 9V6Z"/>
<path fill-rule="evenodd" clip-rule="evenodd" d="M2 22C2 18.1377 5.13772 15 9 15H16C18.0711 15 19.9341 15.9034 21.2145 17.3328L19.7247 18.6672C18.8068 17.6425 17.4775 17 16 17H9C6.24228 17 4 19.2423 4 22V24H12V26H2V22Z"/>
</svg>