<svg viewBox="0 0 32 32" xmlns="http://www.w3.org/2000/svg">
<path fill-rule="evenodd" clip-rule="evenodd" d="M12 4C10.8954 4 10 4.89543 10 6V9C10 10.1046 10.8954 11 12 11H13C14.1046 11 15 10.1046 15 9V6C15 4.89543 14.1046 4 13 4H12ZM8 6C8 3.79086 9.79086 2 12 2H13C15.2091 2 17 3.79086 17 6V9C17 11.2091 15.2091 13 13 13H12C9.79086 13 8 11.2091 8 9V6Z"/>
<path fill-rule="evenodd" clip-rule="evenodd" d="M2 22C2 18.1377 5.13772 15 9 15H16C17.4282 15 18.7596 15.4301 19.8684 16.1673C20.1348 16.3444 20.3884 16.5393 20.6274 16.7501L20.6672 16.7855L19.3328 18.2753L19.3042 18.2499C19.1331 18.0989 18.9516 17.9594 18.761 17.8327C17.9696 17.3065 17.0213 17 16 17H9C6.24228 17 4 19.2423 4 22V24H15V26H2V22Z"/>
<path fill-rule="evenodd" clip-rule="evenodd" d="M25 15V29H23V15H25Z"/>
<path fill-rule="evenodd" clip-rule="evenodd" d="M18.2929 24.7071L19.7071 23.2929L24 27.5858L28.2929 23.2929L29.7071 24.7071L24 30.4142L18.2929 24.7071Z"/>
</svg>