<svg viewBox="0 0 32 32" xmlns="http://www.w3.org/2000/svg">
<path fill-rule="evenodd" clip-rule="evenodd" d="M11 15H12C14.21 15 16 13.21 16 11V8C16 5.79 14.21 4 12 4H11C8.79 4 7 5.79 7 8V11C7 13.21 8.79 15 11 15ZM9 8C9 6.9 9.9 6 11 6H12C13.1 6 14 6.9 14 8V11C14 12.1 13.1 13 12 13H11C9.9 13 9 12.1 9 11V8Z"/>
<path fill-rule="evenodd" clip-rule="evenodd" d="M22 15H23C25.21 15 27 13.21 27 11V8C27 5.79 25.21 4 23 4H22C19.79 4 18 5.79 18 8V11C18 13.21 19.79 15 22 15ZM20 8C20 6.9 20.9 6 22 6H23C24.1 6 25 6.9 25 8V11C25 12.1 24.1 13 23 13H22C20.9 13 20 12.1 20 11V8Z"/>
<path d="M30 28H28V23.59C28 21.06 25.94 19 23.41 19H22V17H23.41C27.05 17 30 19.96 30 23.59V28Z"/>
<path fill-rule="evenodd" clip-rule="evenodd" d="M2 28H21V24C21 20.14 17.86 17 14 17H9C5.14 17 2 20.14 2 24V28ZM19 26H4V24C4 21.24 6.24 19 9 19H14C16.76 19 19 21.24 19 24V26Z"/>
</svg>