<svg viewBox="0 0 32 32" xmlns="http://www.w3.org/2000/svg">
<path d="M11.9286 3H13.0714C14.965 3 16.5 4.49238 16.5 6.33333V9.66667C16.5 11.5076 14.965 13 13.0714 13H11.9286C10.035 13 8.5 11.5076 8.5 9.66667V6.33333C8.5 4.49238 10.035 3 11.9286 3Z" fill="black"/>
<path d="M18 15.2768C17.3661 15.0967 16.6948 15 16 15H9C8.30523 15 7.63387 15.0967 7 15.2768C4.11065 16.0978 2 18.6506 2 21.6667V26H11C11 24.3431 12.3431 23 14 23H20.8195C21.3319 22.1147 22.0648 21.3677 22.9466 20.8406C22.6019 18.192 20.6214 16.0217 18 15.2768Z" fill="black"/>
<path fill-rule="evenodd" clip-rule="evenodd" d="M26 22C24.14 22 22.59 23.28 22.14 25H13V30H15V27H17V30H19V27H22.14C22.59 28.72 24.14 30 26 30C28.21 30 30 28.21 30 26C30 23.79 28.21 22 26 22ZM26 28C24.9 28 24 27.1 24 26C24 24.9 24.9 24 26 24C27.1 24 28 24.9 28 26C28 27.1 27.1 28 26 28Z" fill="black"/>
</svg>