<svg viewBox="0 0 32 32" xmlns="http://www.w3.org/2000/svg">
<path d="M11.9998 2H10.9998C8.79063 2 6.99977 3.79086 6.99977 6V9C6.99977 11.2091 8.79063 13 10.9998 13H11.9998C14.2089 13 15.9998 11.2091 15.9998 9V6C15.9998 3.79086 14.2089 2 11.9998 2Z" fill="black"/>
<path d="M28.2398 18.38C26.9198 16.88 25.0298 16 22.9998 16C19.1398 16 15.9998 19.14 15.9998 23C15.9998 26.86 19.1398 30 22.9998 30C25.9898 30 28.6498 28.1 29.6198 25.27L27.7298 24.62C27.0398 26.64 25.1398 28 22.9998 28C20.2398 28 17.9998 25.76 17.9998 23C17.9998 20.24 20.2398 18 22.9998 18C24.4998 18 25.8898 18.66 26.8298 19.79L25.0498 21.57C24.8898 21.73 24.9998 22 25.2298 22H29.7598C29.8998 22 30.0098 21.89 30.0098 21.75V17.22C30.0098 17 29.7398 16.89 29.5798 17.04L28.2398 18.38Z" fill="black"/>
<path d="M13.9998 23C13.9998 20.07 15.4098 17.48 17.5798 15.83C16.6198 15.3 15.5398 15 14.4098 15H8.59977C4.95977 15 2.00977 17.96 2.00977 21.59V26H14.5298C14.1998 25.06 13.9998 24.05 13.9998 23Z" fill="black"/>
</svg>