<svg viewBox="0 0 32 32" xmlns="http://www.w3.org/2000/svg">
<path fill-rule="evenodd" clip-rule="evenodd" d="M12 2C9.79086 2 8 3.79086 8 6V9C8 11.2091 9.79086 13 12 13H13C15.2091 13 17 11.2091 17 9V6C17 3.79086 15.2091 2 13 2H12ZM10 6C10 4.89543 10.8954 4 12 4H13C14.1046 4 15 4.89543 15 6V9C15 10.1046 14.1046 11 13 11H12C10.8954 11 10 10.1046 10 9V6Z" fill="black"/>
<path d="M9 15C5.13772 15 2 18.1377 2 22V26H9V24H4V22C4 20.7163 4.48584 19.5444 5.28335 18.6582C6.19915 17.6407 7.52594 17 9 17C9 17 9 17 9 17H16C16.0058 17 16.0115 17 16.0173 17C16.0821 17.0002 16.1466 17.0017 16.2108 17.0044C17.6037 17.0623 18.8507 17.6915 19.7247 18.6672C20.0052 18.9803 20.2468 19.3289 20.442 19.7053L22.1136 18.591C20.9525 16.5156 18.7653 15.09 16.2417 15.0041C16.1615 15.0014 16.0809 15 16 15" fill="black"/>
<path d="M16 15H9Z" fill="black"/>
<path fill-rule="evenodd" clip-rule="evenodd" d="M22.14 25C22.59 23.28 24.14 22 26 22C28.21 22 30 23.79 30 26C30 28.21 28.21 30 26 30C24.14 30 22.59 28.72 22.14 27H19V30H17V27H15V30H13V25H22.14ZM24 26C24 27.1 24.9 28 26 28C27.1 28 28 27.1 28 26C28 24.9 27.1 24 26 24C24.9 24 24 24.9 24 26Z" fill="black"/>
</svg>