<svg viewBox="0 0 32 32" xmlns="http://www.w3.org/2000/svg">
<path fill-rule="evenodd" clip-rule="evenodd" d="M16.5 18H15.5C13.57 18 12 16.43 12 14.5V11.5C12 9.57 13.57 8 15.5 8H16.5C18.43 8 20 9.57 20 11.5V14.5C20 16.43 18.43 18 16.5 18ZM15.5 10C14.67 10 14 10.67 14 11.5V14.5C14 15.33 14.67 16 15.5 16H16.5C17.33 16 18 15.33 18 14.5V11.5C18 10.67 17.33 10 16.5 10H15.5Z"/>
<path fill-rule="evenodd" clip-rule="evenodd" d="M6 3H26C27.1 3 28 3.9 28 5V14C28 24.2609 20.4581 27.2888 16.3926 28.9209L16.37 28.93L16 29.08L15.63 28.93L15.6209 28.9263C11.5487 27.2955 4 24.2723 4 14V5C4 3.9 4.9 3 6 3ZM10.51 23.93C12.16 25.23 14.09 26.14 16 26.92C17.96 26.13 19.94 25.18 21.62 23.83C20.87 22.26 18.96 22 17.8 22H14.37C13.18 22 11.22 22.28 10.51 23.93ZM23.12 22.4C24.85 20.45 26 17.81 26 14V5H5.99V14C5.99 17.88 7.19 20.56 8.98 22.52C9.97 20.92 11.87 20 14.37 20H17.8C20.27 20 22.12 20.86 23.12 22.4Z"/>
</svg>