<svg viewBox="0 0 32 32" xmlns="http://www.w3.org/2000/svg">
<path fill-rule="evenodd" clip-rule="evenodd" d="M6.68994 13.2443C7.41117 14.2964 8.62639 15 10.0002 15H11.0002C12.3802 15 13.6002 14.3 14.3202 13.23C14.8402 13.96 15.5702 14.55 16.6702 14.94L17.3402 13.06C15.5702 12.43 15.2902 11.15 15.0002 7.91C14.9502 5.75 13.1802 4 11.0102 4H10.0102C7.83018 4 6.07018 5.75 6.02018 7.91C5.73018 11.14 5.46018 12.43 3.68018 13.06L4.35018 14.94C5.43304 14.5526 6.17048 13.9677 6.68994 13.2443ZM10.0002 13H11.0002C12.1002 13 13.0002 12.1 13.0002 11V8.08C11.7102 9.18 10.0402 9.88 8.00018 10.18V11C8.00018 12.1 8.90018 13 10.0002 13ZM11.0002 6H10.0002C8.90018 6 8.00018 6.9 8.00018 8V8.16C9.71018 7.86 11.0302 7.24 12.0102 6.28C11.7102 6.11 11.3702 6 11.0002 6Z"/>
<path fill-rule="evenodd" clip-rule="evenodd" d="M24 15H23C20.79 15 19 13.21 19 11V8C19 5.79 20.79 4 23 4H24C26.21 4 28 5.79 28 8V11C28 13.21 26.21 15 24 15ZM23 13H24C25.1 13 26 12.1 26 11V8.08C24.71 9.18 23.04 9.88 21 10.18V11C21 12.1 21.9 13 23 13ZM24 6H23C21.9 6 21 6.9 21 8V8.16C22.71 7.86 24.03 7.24 25.01 6.28C24.71 6.11 24.37 6 24 6Z"/>
<path d="M23.41 17H20V19H23.41C25.94 19 28 21.06 28 23.59V28H30V23.59C30 19.95 27.04 17 23.41 17Z"/>
<path fill-rule="evenodd" clip-rule="evenodd" d="M9 17H12C15.86 17 19 20.14 19 24V28H2V24C2 20.14 5.14 17 9 17ZM4 26H17V24C17 21.24 14.76 19 12 19H9C6.24 19 4 21.24 4 24V26Z"/>
</svg>