<svg viewBox="0 0 32 32" xmlns="http://www.w3.org/2000/svg">
<path d="M25 14C25.5523 14 26 13.5523 26 13C26 12.4477 25.5523 12 25 12C24.4477 12 24 12.4477 24 13C24 13.5523 24.4477 14 25 14Z" fill="black"/>
<path fill-rule="evenodd" clip-rule="evenodd" d="M24 6.00099C24 6.00099 24 6 23 6C22 6 22 5.99896 22 5.99896L22 5.99787L22 5.99555L22 5.99032L22.0002 5.97753C22.0004 5.968 22.0006 5.95643 22.0011 5.94298C22.002 5.91609 22.0037 5.88146 22.0068 5.84016C22.0129 5.7579 22.0245 5.64719 22.047 5.51711C22.0912 5.26153 22.1815 4.90627 22.3717 4.53953C22.5644 4.16812 22.8671 3.77174 23.3348 3.47121C23.807 3.1678 24.3886 3 25.075 3C25.9043 3 26.5982 3.22367 27.115 3.68029C27.623 4.12909 27.8463 4.70291 27.9381 5.18964C28.0291 5.67234 28.0036 6.12911 27.9638 6.44509C27.9434 6.60751 27.9177 6.74395 27.8965 6.84258C27.8858 6.89211 27.8761 6.93274 27.8685 6.96303C27.8647 6.9782 27.8614 6.99082 27.8587 7.00074L27.8552 7.01358L27.8539 7.01845L27.8533 7.02049C27.8533 7.02049 27.8528 7.02226 26.8906 6.75L27.8528 7.02226L27.7546 7.3692L26.075 8.52561V10H24.075V7.47439L25.9836 6.16032C26.0052 5.96908 26.0091 5.75322 25.9727 5.56036C25.9349 5.35959 25.8664 5.24591 25.7908 5.17908C25.724 5.12008 25.5425 5 25.075 5C24.7238 5 24.5274 5.0822 24.416 5.15379C24.3001 5.22826 24.2138 5.33188 24.147 5.46047C24.0779 5.59373 24.0384 5.73847 24.0178 5.85789C24.0079 5.91531 24.0033 5.96085 24.0013 5.98797C24.0003 6.00135 24 6.00969 23.9999 6.0121L24 6.00678L24 6.00372L24 6.00099Z" fill="black"/>
<path d="M24 28V24.6667C24 20.9889 20.8617 18 17 18H10C6.13833 18 3 20.9889 3 24.6667V28H24Z" fill="black"/>
<path d="M14.625 5H12.375C10.511 5 9 6.47746 9 8.3V12.7C9 14.5225 10.511 16 12.375 16H14.625C16.489 16 18 14.5225 18 12.7V8.3C18 6.47746 16.489 5 14.625 5Z" fill="black"/>
</svg>