<svg viewBox="0 0 32 32" xmlns="http://www.w3.org/2000/svg">
<path d="M11 4H12C14.2091 4 16 5.79086 16 8V11C16 13.2091 14.2091 15 12 15H11C8.79086 15 7 13.2091 7 11V8C7 5.79086 8.79086 4 11 4Z" fill="black"/>
<path d="M22 4H23C25.2091 4 27 5.79086 27 8V11C27 13.2091 25.2091 15 23 15H22C19.7909 15 18 13.2091 18 11V8C18 5.79086 19.7909 4 22 4Z" fill="black"/>
<path d="M19.6499 17C21.6899 18.65 23.0099 21.17 23.0099 24V28H30.0099V23.59C30.0099 19.95 27.0499 17 23.4199 17H19.6499Z" fill="black"/>
<path d="M9 17H14C17.86 17 21 20.14 21 24V28H2V24C2 20.14 5.14 17 9 17Z" fill="black"/>
</svg>