<svg viewBox="0 0 32 32" xmlns="http://www.w3.org/2000/svg">
<path fill-rule="evenodd" clip-rule="evenodd" d="M25 15V29H23V15H25Z" fill="black"/>
<path d="M2 22C2 18.5442 4.51203 15.6685 7.80747 15.1014C8.06948 15.0356 8.35033 15 8.65338 15H16C16.6192 15 17.1407 15.0975 17.5957 15.2737C18.9404 15.662 20.1194 16.4432 21 17.4846V20.7574C21 21.1264 20.5538 21.3112 20.2929 21.0502L-nan -nanL20.2929 21.0502C19.9694 20.7267 19.4448 20.7267 19.1213 21.0502L16.0503 24.1213C15.7267 24.4448 15.7267 24.9694 16.0503 25.2929L-nan -nanL16.0503 25.2929C16.3112 25.5538 16.1264 26 15.7574 26H2V22Z" fill="black"/>
<path fill-rule="evenodd" clip-rule="evenodd" d="M18.2929 24.7071L19.7071 23.2929L24 27.5858L28.2929 23.2929L29.7071 24.7071L24 30.4142L18.2929 24.7071Z" fill="black"/>
<path d="M13.0714 3H11.9286C10.035 3 8.5 4.49238 8.5 6.33333V9.66667C8.5 11.5076 10.035 13 11.9286 13H13.0714C14.965 13 16.5 11.5076 16.5 9.66667V6.33333C16.5 4.49238 14.965 3 13.0714 3Z" fill="black"/>
</svg>