<svg viewBox="0 0 32 32" xmlns="http://www.w3.org/2000/svg">
<path fill-rule="evenodd" clip-rule="evenodd" d="M12 4C10.8954 4 10 4.89543 10 6V9C10 10.1046 10.8954 11 12 11H13C14.1046 11 15 10.1046 15 9V6C15 4.89543 14.1046 4 13 4H12ZM8 6C8 3.79086 9.79086 2 12 2H13C15.2091 2 17 3.79086 17 6V9C17 11.2091 15.2091 13 13 13H12C9.79086 13 8 11.2091 8 9V6Z"/>
<path fill-rule="evenodd" clip-rule="evenodd" d="M2 22C2 18.1377 5.13772 15 9 15H16C17.0392 15 18.0283 15.2278 18.9178 15.6368L18.0822 17.4539C17.4491 17.1628 16.7445 17 16 17H9C6.24228 17 4 19.2423 4 22V24H14V26H2V22Z"/>
<path fill-rule="evenodd" clip-rule="evenodd" d="M18 22V28H28V22H18ZM17 20C16.4477 20 16 20.4477 16 21V29C16 29.5523 16.4477 30 17 30H29C29.5523 30 30 29.5523 30 29V21C30 20.4477 29.5523 20 29 20H17Z"/>
<path fill-rule="evenodd" clip-rule="evenodd" d="M22 19V20H20V19C20 17.8954 20.8954 17 22 17H24C25.1046 17 26 17.8954 26 19V20H24V19H22Z"/>
</svg>