<svg viewBox="0 0 32 32" xmlns="http://www.w3.org/2000/svg">
<path fill-rule="evenodd" clip-rule="evenodd" d="M27.2711 25.5L25.1863 22.5812L26.8137 21.4188L29.7289 25.5L26.8137 29.5812L25.1863 28.4188L27.2711 25.5Z" fill="black"/>
<path d="M9 15C5.13772 15 2 18.1377 2 22V26H11.5L11.8133 25.5L15.5588 20.2563C16.2008 19.3575 17.4499 19.1493 18.3487 19.7913L19.5053 20.6174C19.817 20.84 20.2551 20.6869 20.3603 20.3186L-nan -nanL20.3603 20.3186C20.5285 19.73 21.1421 19.3891 21.7307 19.5573L22.6534 19.8209C22.4387 19.1662 22.1299 18.5539 21.7432 18C20.4774 16.1872 18.3758 15 16 15H9Z" fill="black"/>
<path d="M13.0714 3H11.9286C10.035 3 8.5 4.49238 8.5 6.33333V9.66667C8.5 11.5076 10.035 13 11.9286 13H13.0714C14.965 13 16.5 11.5076 16.5 9.66667V6.33333C16.5 4.49238 14.965 3 13.0714 3Z" fill="black"/>
<path fill-rule="evenodd" clip-rule="evenodd" d="M20.0385 28.7253L22.0385 21.7253L23.9615 22.2747L21.9615 29.2747L20.0385 28.7253Z" fill="black"/>
<path fill-rule="evenodd" clip-rule="evenodd" d="M16.7289 25.5L18.8137 22.5812L17.1863 21.4188L14.2711 25.5L17.1863 29.5812L18.8137 28.4188L16.7289 25.5Z" fill="black"/>
</svg>