<svg viewBox="0 0 32 32" xmlns="http://www.w3.org/2000/svg">
<path fill-rule="evenodd" clip-rule="evenodd" d="M15.5 14H16.5C18.43 14 20 12.43 20 10.5V7.5C20 5.57 18.43 4 16.5 4H15.5C13.57 4 12 5.57 12 7.5V10.5C12 12.43 13.57 14 15.5 14ZM14 7.5C14 6.67 14.67 6 15.5 6H16.5C17.33 6 18 6.67 18 7.5V10.5C18 11.33 17.33 12 16.5 12H15.5C14.67 12 14 11.33 14 10.5V7.5Z"/>
<path fill-rule="evenodd" clip-rule="evenodd" d="M6.5 16C4.57 16 3 14.43 3 12.5V10.5C3 8.57 4.57 7 6.5 7C8.43 7 10 8.57 10 10.5V12.5C10 14.43 8.43 16 6.5 16ZM6.5 9C5.67 9 5 9.67 5 10.5V12.5C5 13.33 5.67 14 6.5 14C7.33 14 8 13.33 8 12.5V10.5C8 9.67 7.33 9 6.5 9Z"/>
<path d="M28.0001 27H30.0001V24C30.0001 21.58 28.5701 19.41 26.3401 18.47L25.5601 20.31C27.0401 20.94 28.0001 22.39 28.0001 24V27Z"/>
<path d="M4 27V24C4 22.4501 4.91 21.0201 6.32 20.3701L5.48 18.55C3.37 19.53 2 21.67 2 24V27H4Z"/>
<path fill-rule="evenodd" clip-rule="evenodd" d="M22 12.5C22 14.43 23.57 16 25.5 16C27.43 16 29 14.43 29 12.5V10.5C29 8.57 27.43 7 25.5 7C23.57 7 22 8.57 22 10.5V12.5ZM24 10.5C24 9.67 24.67 9 25.5 9C26.33 9 27 9.67 27 10.5V12.5C27 13.33 26.33 14 25.5 14C24.67 14 24 13.33 24 12.5V10.5Z"/>
<path fill-rule="evenodd" clip-rule="evenodd" d="M24 28H8V22C8 18.69 10.69 16 14 16H18C21.31 16 24 18.69 24 22V28ZM10 26H22V22C22 19.79 20.21 18 18 18H14C11.79 18 10 19.79 10 22V26Z"/>
</svg>