<svg viewBox="0 0 32 32" xmlns="http://www.w3.org/2000/svg">
<path fill-rule="evenodd" clip-rule="evenodd" d="M12 2C9.79086 2 8 3.79086 8 6V9C8 11.2091 9.79086 13 12 13H13C15.2091 13 17 11.2091 17 9V6C17 3.79086 15.2091 2 13 2H12ZM10 6C10 4.89543 10.8954 4 12 4H13C14.1046 4 15 4.89543 15 6V9C15 10.1046 14.1046 11 13 11H12C10.8954 11 10 10.1046 10 9V6Z" fill="black"/>
<path d="M9 15C5.13772 15 2 18.1377 2 22V26H10V24H4V22C4 19.2423 6.24228 17 9 17H16V15H9Z" fill="black"/>
<path fill-rule="evenodd" clip-rule="evenodd" d="M15.7248 21.3545C15.9557 19.389 17.7701 18 19.78 18H21.62C23.7745 18 25.7 19.6047 25.7 21.78V22.45H25.8C27.7656 22.45 29.7663 23.763 29.9844 25.8443C30.2396 28.21 28.2031 29.9972 25.9354 30L24.93 30.01L16.08 30.01C13.9255 30.01 12 28.4053 12 26.23V25.12C12 23.0537 13.7203 21.5182 15.7248 21.3545ZM19.78 20C18.532 20 17.7 20.8875 17.7 21.78V23.34H16.08C14.832 23.34 14 24.2275 14 25.12V26.23C14 27.1147 14.8345 28.01 16.08 28.01H24.925L25.93 28C27.2595 28 28.099 27.0092 27.9958 26.0578L27.9954 26.0536C27.9123 25.2561 27.0338 24.45 25.8 24.45H23.7V21.78C23.7 20.8953 22.8655 20 21.62 20H19.78Z" fill="black"/>
</svg>