<svg viewBox="0 0 32 32" xmlns="http://www.w3.org/2000/svg">
<path d="M9 15C5.13772 15 2 18.1377 2 22V26H9C10.1046 26 11 25.1046 11 24V22C11 20.8954 11.8954 20 13 20H17.5279C17.8384 20 18.1446 20.0723 18.4223 20.2111L18.4472 20.2236C18.786 20.393 19.1914 20.3564 19.4944 20.1292L20.0142 19.7393C20.6187 19.286 21.427 19.212 22.1037 19.548L22.6534 19.8209C22.4387 19.1662 22.1299 18.5539 21.7432 18C20.4774 16.1872 18.3758 15 16 15H9Z" fill="black"/>
<path d="M13.0714 3H11.9286C10.035 3 8.5 4.49238 8.5 6.33333V9.66667C8.5 11.5076 10.035 13 11.9286 13H13.0714C14.965 13 16.5 11.5076 16.5 9.66667V6.33333C16.5 4.49238 14.965 3 13.0714 3Z" fill="black"/>
<path fill-rule="evenodd" clip-rule="evenodd" d="M13 23.6667C13 22.7462 13.7462 22 14.6667 22H17.3333C18.2538 22 19 22.7462 19 23.6667V26.3333C19 27.2538 18.2538 28 17.3333 28H14.6667C13.7462 28 13 27.2538 13 26.3333V23.6667ZM15 24V26H17V24H15Z" fill="black"/>
<path fill-rule="evenodd" clip-rule="evenodd" d="M24 25C24 23.3431 25.3431 22 27 22C28.6569 22 30 23.3431 30 25C30 26.6569 28.6569 28 27 28C25.3431 28 24 26.6569 24 25ZM27 24C26.4477 24 26 24.4477 26 25C26 25.5523 26.4477 26 27 26C27.5523 26 28 25.5523 28 25C28 24.4477 27.5523 24 27 24Z" fill="black"/>
<path fill-rule="evenodd" clip-rule="evenodd" d="M21.1759 21.2616L24.9142 25L21.1759 28.7384L19.7616 27.3241L21.0858 26H18V24H21.0858L19.7616 22.6759L21.1759 21.2616Z" fill="black"/>
</svg>