<svg viewBox="0 0 32 32" xmlns="http://www.w3.org/2000/svg">
<path fill-rule="evenodd" clip-rule="evenodd" d="M27.73 21.4C27.9 21.9 28 22.44 28 23C28 23.56 27.89 24.09 27.72 24.59L29.51 25.63L28.5 27.36L26.71 26.32C26.01 27.11 25.07 27.68 24 27.9V30H22V27.9C20.93 27.69 19.99 27.12 19.29 26.33L17.51 27.37L16.5 25.64L18.28 24.6C18.11 24.1 18.01 23.56 18.01 23C18.01 22.44 18.12 21.91 18.29 21.41L16.5 20.37L17.51 18.64L19.3 19.68C20 18.89 20.94 18.32 22.01 18.1V16H24.01V18.1C25.08 18.31 26.02 18.88 26.72 19.67L28.5 18.63L29.51 20.36L27.73 21.4ZM20 23C20 24.66 21.34 26 23 26C24.66 26 26 24.66 26 23C26 21.34 24.66 20 23 20C21.34 20 20 21.34 20 23Z" fill="black"/>
<path d="M13.0714 3H11.9286C10.035 3 8.5 4.49238 8.5 6.33333V9.66667C8.5 11.5076 10.035 13 11.9286 13H13.0714C14.965 13 16.5 11.5076 16.5 9.66667V6.33333C16.5 4.49238 14.965 3 13.0714 3Z" fill="black"/>
<path d="M16 15C16.6948 15 17.3661 15.0967 18 15.2768C18.7327 15.485 19.4152 15.8045 20.0261 16.2147C20.0154 16.3084 20.01 16.4035 20.01 16.5V16.6811C19.6794 16.8404 19.3642 17.0247 19.0664 17.2312L18.9461 17.1614C17.754 16.4688 16.2263 16.8719 15.5312 18.0625L15.0254 18.9289C14.3282 20.1231 14.7328 21.6564 15.9284 22.351L16.0371 22.4141C16.0195 22.6049 16.01 22.8003 16.01 23C16.01 23.2009 16.019 23.3993 16.0362 23.5946L15.9226 23.661C15.0721 24.1579 14.6238 25.0796 14.6897 26H2V21.6667C2 18.6506 4.11065 16.0978 7 15.2768C7.63387 15.0967 8.30523 15 9 15H16Z" fill="black"/>
</svg>