<svg viewBox="0 0 32 32" xmlns="http://www.w3.org/2000/svg">
<path fill-rule="evenodd" clip-rule="evenodd" d="M15 15H17C19.21 15 21 13.21 21 11V7C21 4.79 19.21 3 17 3H15C12.79 3 11 4.79 11 7V11C11 13.21 12.79 15 15 15ZM13 7C13 5.9 13.9 5 15 5H17C18.1 5 19 5.9 19 7V11C19 12.1 18.1 13 17 13H15C13.9 13 13 12.1 13 11V7Z"/>
<path fill-rule="evenodd" clip-rule="evenodd" d="M5 29H27V24C27 20.14 23.86 17 20 17H12C8.14 17 5 20.14 5 24V29ZM25 27H7V24C7 21.24 9.24 19 12 19H20C22.76 19 25 21.24 25 24V27Z"/>
</svg>