<svg viewBox="0 0 32 32" xmlns="http://www.w3.org/2000/svg">
<path fill-rule="evenodd" clip-rule="evenodd" d="M11.1758 12.1093C11.6619 13.7695 13.1772 15 15.0002 15H17.0002C18.8202 15 20.3502 13.76 20.8302 12.09C21.8002 13.39 23.1002 14.38 24.6702 14.94L25.3402 13.06C22.8902 12.19 21.2702 9.89 21.0002 6.91C20.9502 4.75 19.1802 3 17.0102 3H15.0102C12.8302 3 11.0702 4.75 11.0202 6.91C10.7602 9.89 9.13018 12.19 6.68018 13.06L7.35018 14.94C8.91241 14.3828 10.2073 13.3998 11.1758 12.1093ZM17.0002 13C18.1002 13 19.0002 12.1 19.0002 11V7C19.0002 6.975 18.9952 6.95 18.9902 6.925C18.9852 6.9 18.9802 6.875 18.9802 6.85C17.5202 8.37 15.5202 9.34 13.0002 9.76V11C13.0002 12.1 13.9002 13 15.0002 13H17.0002ZM17.0002 5H15.0002C13.9002 5 13.0002 5.9 13.0002 7V7.74C15.1102 7.35 16.7002 6.5 17.8202 5.18C17.5702 5.07 17.2902 5 17.0002 5Z"/>
<path fill-rule="evenodd" clip-rule="evenodd" d="M13 17H19C22.86 17 26 20.14 26 24V29H6V24C6 20.14 9.14 17 13 17ZM8 27H24V24C24 21.24 21.76 19 19 19H13C10.24 19 8 21.24 8 24V27Z"/>
</svg>