<svg viewBox="0 0 32 32" xmlns="http://www.w3.org/2000/svg">
<path fill-rule="evenodd" clip-rule="evenodd" d="M24 4H26V2H20V4H22V6H16V12H24V13C24 13.5523 24.4477 14 25 14H29C29.5523 14 30 13.5523 30 13V12C30 8.68629 27.3137 6 24 6V4ZM18 10H24C25.1046 10 26 10.8954 26 12H28C28 9.79086 26.2091 8 24 8H18V10Z"/>
<path fill-rule="evenodd" clip-rule="evenodd" d="M2 7C2 4.23858 4.23858 2 7 2C9.76142 2 12 4.23858 12 7V7.1659C12 8.34025 11.5335 9.46651 10.7031 10.2969L10.5 10.5C10.1799 10.8201 10 11.2544 10 11.7071V14C10 15.1046 9.10457 16 8 16H6C4.89543 16 4 15.1046 4 14V11.7071C4 11.2544 3.82014 10.8201 3.5 10.5L3.29691 10.2969C2.46651 9.46651 2 8.34025 2 7.1659V7ZM8 11.7071V12H6V11.7071C6 10.7239 5.60943 9.781 4.91421 9.08579L4.71112 8.88269C4.2558 8.42737 4 7.80982 4 7.1659V7C4 5.34315 5.34315 4 7 4C8.65685 4 10 5.34315 10 7V7.1659C10 7.80982 9.7442 8.42737 9.28888 8.88269L9.08578 9.08579C8.39057 9.781 8 10.7239 8 11.7071Z"/>
<path fill-rule="evenodd" clip-rule="evenodd" d="M10 27V20H8V18H10.1707C10.5825 16.8348 11.6938 16 13 16C13.7684 16 14.4692 16.2889 15 16.7639C15.5308 16.2889 16.2316 16 17 16C17.7684 16 18.4692 16.2889 19 16.7639C19.5308 16.2889 20.2316 16 21 16C22.6569 16 24 17.3431 24 19V26H26V28H23.8293C23.4175 29.1652 22.3062 30 21 30C20.2316 30 19.5308 29.7111 19 29.2361C18.4692 29.7111 17.7684 30 17 30C16.2316 30 15.5308 29.7111 15 29.2361C14.4692 29.7111 13.7684 30 13 30C11.3431 30 10 28.6569 10 27ZM14 27C14 27.5523 13.5523 28 13 28C12.4477 28 12 27.5523 12 27V19C12 18.4477 12.4477 18 13 18C13.5523 18 14 18.4477 14 19V27ZM22 27C22 27.5523 21.5523 28 21 28C20.4477 28 20 27.5523 20 27V19C20 18.4477 20.4477 18 21 18C21.5523 18 22 18.4477 22 19V27ZM18 19V27C18 27.5523 17.5523 28 17 28C16.4477 28 16 27.5523 16 27V19C16 18.4477 16.4477 18 17 18C17.5523 18 18 18.4477 18 19Z"/>
</svg>