<svg viewBox="0 0 32 32" xmlns="http://www.w3.org/2000/svg">
<path d="M4 6C4 4.89772 4.89772 4 6 4H9V6H6V14.4142L4.41421 16L6 17.5858V26H9V28H6C4.89772 28 4 27.1023 4 26V18.4142L2.29289 16.7071C1.90237 16.3166 1.90237 15.6834 2.29289 15.2929L4 13.5858V6Z"/>
<path d="M16 14.2795L20.1863 8.41876L21.8137 9.58124L17.2289 16L21.8137 22.4188L20.1863 23.5812L16 17.7205L11.8137 23.5812L10.1863 22.4188L14.7711 16L10.1863 9.58124L11.8137 8.41876L16 14.2795Z"/>
<path d="M26 4C27.1023 4 28 4.89772 28 6V13.5858L29.7071 15.2929C30.0976 15.6834 30.0976 16.3166 29.7071 16.7071L28 18.4142V26C28 27.1023 27.1023 28 26 28H23V26H26V17.5858L27.5858 16L26 14.4142V6H23V4H26Z"/>
</svg>