<svg viewBox="0 0 32 32" xmlns="http://www.w3.org/2000/svg">
<path d="M4 5C4 3.89772 4.89772 3 6 3H9V5H6V14.4142L4.41421 16L6 17.5858V27H9V29H6C4.89772 29 4 28.1023 4 27V18.4142L2.29289 16.7071C1.90237 16.3166 1.90237 15.6834 2.29289 15.2929L4 13.5858V5Z" fill="black"/>
<path d="M16 13.1698L19.728 7.205L22.272 8.795L17.7689 16L22.272 23.205L19.728 24.795L16 18.8302L12.272 24.795L9.72803 23.205L14.2312 16L9.72803 8.795L12.272 7.205L16 13.1698Z" fill="black"/>
<path d="M26 3C27.1023 3 28 3.89772 28 5V13.5858L29.7071 15.2929C30.0976 15.6834 30.0976 16.3166 29.7071 16.7071L28 18.4142V27C28 28.1023 27.1023 29 26 29H23V27H26V17.5858L27.5858 16L26 14.4142V5H23V3H26Z" fill="black"/>
</svg>