<svg viewBox="0 0 32 32" xmlns="http://www.w3.org/2000/svg">
<path d="M30 4C30 2.89772 29.1023 2 28 2H12V4H28V20H30V4Z" fill="black"/>
<path fill-rule="evenodd" clip-rule="evenodd" d="M3 6C2.44772 6 2 6.44772 2 7V29C2 29.5523 2.44772 30 3 30H25C25.5523 30 26 29.5523 26 29V7C26 6.44772 25.5523 6 25 6H3ZM13 17C13 18.1 12.1 19 11 19H9V21H13V23H9C7.9 23 7 22.1 7 21V19C7 17.9 7.9 17 9 17H11V15H7V13H11C12.1 13 13 13.9 13 15V17ZM19 15H17V13H19.5C20.3323 13 21 13.6677 21 14.5V23H19V15ZM17 21H15V23H17V21Z" fill="black"/>
</svg>