<svg viewBox="0 0 32 32" xmlns="http://www.w3.org/2000/svg">
<path fill-rule="evenodd" clip-rule="evenodd" d="M12 7.95C12 5.88 10.12 4 8.05 4C5.85 4 4 5.81 4 7.95C4 10.22 5.78 12 8.05 12C10.19 12 12 10.14 12 7.95ZM6 7.95C6 7.03 6.84 6 8.05 6C9.02 6 10 6.98 10 7.95C10 9.16 8.97 10 8.05 10C6.88 10 6 9.12 6 7.95Z"/>
<path fill-rule="evenodd" clip-rule="evenodd" d="M22 7.95C22 5.88 20.12 4 18.05 4C15.85 4 14 5.81 14 7.95C14 10.22 15.78 12 18.05 12C20.19 12 22 10.14 22 7.95ZM16 7.95C16 7.03 16.84 6 18.05 6C19.02 6 20 6.98 20 7.95C20 9.16 18.97 10 18.05 10C16.88 10 16 9.12 16 7.95Z"/>
<path fill-rule="evenodd" clip-rule="evenodd" d="M27.1 15.83C27.73 15.52 28.46 15.56 29.05 15.92H29.06C29.66 16.29 30.01 16.92 30.01 17.62V24.38C30.01 25.08 29.65 25.71 29.06 26.08C28.74 26.28 28.37 26.38 28.01 26.38C27.7 26.38 27.39 26.31 27.11 26.17L24 24.62V26C24 27.1 23.1 28 22 28H4C2.9 28 2 27.1 2 26V16C2 14.9 2.9 14 4 14H21.99C23.09 14 23.99 14.9 23.99 16V17.38L27.1 15.83ZM4 16V26H22V16H4ZM24 22.38L28 24.38V17.62L24 19.62V22.38Z"/>
</svg>