<svg viewBox="0 0 32 32" xmlns="http://www.w3.org/2000/svg">
<path d="M12 7.95C12 5.88 10.12 4 8.05 4C5.85 4 4 5.81 4 7.95C4 10.22 5.78 12 8.05 12C10.19 12 12 10.14 12 7.95Z" fill="black"/>
<path d="M22 7.95C22 5.88 20.12 4 18.05 4C15.85 4 14 5.81 14 7.95C14 10.22 15.78 12 18.05 12C20.19 12 22 10.14 22 7.95Z" fill="black"/>
<path d="M24 17.59L28.55 15.72V15.74C29.22 15.4 30 15.89 30 16.63V25.39C30 26.13 29.21 26.61 28.55 26.28L24 24.41V27C24 27.55 23.55 28 23 28H3C2.45 28 2 27.55 2 27V15C2 14.45 2.45 14 3 14H23C23.55 14 24 14.45 24 15V17.59Z" fill="black"/>
</svg>