<svg viewBox="0 0 32 32" xmlns="http://www.w3.org/2000/svg">
<path fill-rule="evenodd" clip-rule="evenodd" d="M22.6598 7.92004L28.2898 2.29004L29.7098 3.71004L3.69979 29.7L2.28979 28.29L7.60979 22.97C3.78979 20.27 1.28979 16.73 1.17979 16.57L0.779785 16L1.17979 15.43C1.44979 15.04 7.83979 6.00004 15.9998 5.99004C18.1698 5.99004 20.4098 6.65004 22.6598 7.92004ZM15.9998 8.00004C9.97979 8.00004 4.74979 14.08 3.24979 16C4.11979 17.11 6.24979 19.62 9.04979 21.53L11.8298 18.75C11.2998 17.94 10.9998 16.99 10.9998 16C10.9998 13.24 13.2398 11 15.9998 11C16.9898 11 17.9398 11.3 18.7498 11.83L21.1798 9.40004C19.4098 8.48004 17.6698 8.00004 15.9998 8.00004ZM15.9998 13C14.3498 13 12.9998 14.35 12.9998 16C12.9998 16.45 13.1098 16.89 13.2998 17.29L17.2898 13.3C16.8898 13.11 16.4498 13 15.9998 13Z"/>
<path d="M24.6799 11.76L25.9599 10.23L25.9699 10.22C28.8192 12.6138 30.6354 15.1485 30.8175 15.4027C30.8233 15.4108 30.8274 15.4166 30.8299 15.42L31.2299 15.99L30.8299 16.56C30.5599 16.95 24.1699 25.99 16.0099 25.99C14.6399 25.99 13.2199 25.72 11.8099 25.21L11.6499 25.15L12.3599 23.28L12.4799 23.33C13.6799 23.77 14.8599 23.99 15.9999 23.99C22.0199 23.99 27.2499 17.91 28.7499 15.99C28.0699 15.12 26.6199 13.38 24.6799 11.76Z"/>
</svg>