<svg viewBox="0 0 32 32" xmlns="http://www.w3.org/2000/svg">
<path fill-rule="evenodd" clip-rule="evenodd" d="M11 16C11 13.24 13.24 11 16 11C18.76 11 21 13.24 21 16C21 18.76 18.76 21 16 21C13.24 21 11 18.76 11 16ZM13 16C13 17.65 14.35 19 16 19C17.65 19 19 17.65 19 16C19 14.35 17.65 13 16 13C14.35 13 13 14.35 13 16Z"/>
<path fill-rule="evenodd" clip-rule="evenodd" d="M1.17979 15.43C1.44979 15.04 7.83979 6 15.9998 6C24.1598 6 30.5498 15.04 30.8198 15.43L31.2198 16L30.8198 16.57C30.5498 16.96 24.1598 26 15.9998 26C7.83979 26 1.44979 16.96 1.17979 16.57L0.779785 16L1.17979 15.43ZM3.24979 16C4.74979 17.92 9.97979 24 15.9998 24C22.0198 24 27.2498 17.92 28.7498 16C27.2498 14.08 22.0198 8 15.9998 8C9.97979 8 4.74979 14.08 3.24979 16Z"/>
</svg>