<svg viewBox="0 0 32 32" xmlns="http://www.w3.org/2000/svg">
<path fill-rule="evenodd" clip-rule="evenodd" d="M22.6598 7.92004L28.2898 2.29004L29.7098 3.71004L3.69979 29.7L2.28979 28.29L7.60979 22.97C3.78979 20.27 1.28979 16.73 1.17979 16.57L0.779785 16L1.17979 15.43C1.44979 15.04 7.83979 6.00004 15.9998 5.99004C18.1698 5.99004 20.4098 6.65004 22.6598 7.92004ZM15.9998 12C13.7898 12 11.9998 13.79 11.9998 16L11.9898 16.01C11.9898 16.75 12.2198 17.43 12.5698 18.02L18.0098 12.58C17.4198 12.22 16.7398 12 15.9998 12Z" fill="black"/>
<path d="M30.8199 15.43C30.7399 15.31 28.8999 12.69 25.9599 10.23L11.4399 24.87C12.7599 25.58 14.6299 26 15.9999 26C24.1599 26 30.5499 16.96 30.8199 16.57L31.2199 16L30.8199 15.43Z" fill="black"/>
</svg>