<svg viewBox="0 0 32 32" xmlns="http://www.w3.org/2000/svg">
<path d="M20 9C20 8.44772 19.5523 8 19 8C18.4477 8 18 8.44772 18 9L18 21C18 21.5523 18.4477 22 19 22C19.5523 22 20 21.5523 20 21L20 9Z"/>
<path d="M14 11C14 10.4477 13.5523 10 13 10C12.4477 10 12 10.4477 12 11L12 23C12 23.5523 12.4477 24 13 24C13.5523 24 14 23.5523 14 23L14 11Z"/>
<path d="M25 12C25.5523 12 26 12.4477 26 13V17C26 17.5523 25.5523 18 25 18C24.4477 18 24 17.5523 24 17V13C24 12.4477 24.4477 12 25 12Z"/>
<path d="M8 15C8 14.4477 7.55229 14 7 14C6.44772 14 6 14.4477 6 15V19C6 19.5523 6.44772 20 7 20C7.55228 20 8 19.5523 8 19L8 15Z"/>
</svg>