<svg viewBox="0 0 32 32" xmlns="http://www.w3.org/2000/svg">
<path d="M13.9467 25.3334C12 28.0934 8.20001 28.7868 5.45334 26.8668C2.72001 24.9468 2.08001 21.1201 4.00001 18.3334C4.53695 17.5539 5.24758 16.9097 6.0759 16.4515C6.90423 15.9934 7.82763 15.7339 8.77334 15.6934L8.84001 17.6001C7.62667 17.6934 6.45334 18.3201 5.69334 19.4134C4.36001 21.3334 4.77334 23.9201 6.60001 25.2134C8.44001 26.4934 11.0133 26.0001 12.3467 24.0934C12.76 23.4934 13 22.8401 13.0933 22.1734V20.8268L20.5333 20.7734L20.6267 20.6268C21.3333 19.4001 22.8667 18.9734 24.0667 19.6668C24.3539 19.8348 24.6052 20.0578 24.8062 20.323C25.0072 20.5882 25.154 20.8904 25.2381 21.2123C25.3223 21.5342 25.3423 21.8696 25.2969 22.1992C25.2514 22.5288 25.1415 22.8463 24.9733 23.1334C24.2667 24.3468 22.72 24.7734 21.52 24.0801C20.9733 23.7734 20.5867 23.2801 20.4133 22.7201L14.9867 22.7468C14.8277 23.6731 14.4732 24.5549 13.9467 25.3334ZM23.6533 15.8134C27.0267 16.2268 29.4267 19.2534 29.0133 22.5734C28.6 25.9068 25.5333 28.2668 22.16 27.8534C21.2232 27.7443 20.3239 27.422 19.5312 26.9112C18.7384 26.4004 18.0732 25.7147 17.5867 24.9068L19.24 23.9468C19.582 24.4764 20.0365 24.9242 20.5711 25.2583C21.1058 25.5924 21.7074 25.8047 22.3333 25.8801C24.6667 26.1601 26.7333 24.5734 27.0133 22.3468C27.2933 20.1201 25.64 18.0801 23.3333 17.8001C22.6133 17.7201 21.92 17.8134 21.2933 18.0401L20.16 18.6268L16.72 12.2668H16.4267C15.7554 12.2472 15.1192 11.9628 14.657 11.4756C14.1948 10.9884 13.9442 10.3381 13.96 9.66676C14 8.2801 15.2 7.2001 16.6 7.25343C18 7.33343 19.1067 8.46676 19.0667 9.85343C19.04 10.4401 18.8133 10.9734 18.4533 11.3868L20.9867 16.0668C21.8133 15.8001 22.72 15.7068 23.6533 15.8134ZM11 12.1868C9.66667 9.05343 11.08 5.46676 14.16 4.1601C17.2533 2.85343 20.8267 4.33343 22.16 7.46676C22.9467 9.29343 22.7867 11.2934 21.8933 12.8934L20.24 11.9334C20.8 10.8534 20.8933 9.53343 20.36 8.29343C19.4533 6.1601 17.04 5.13343 14.9733 6.0001C12.8933 6.8801 11.96 9.33343 12.8667 11.4668C13.24 12.3468 13.8667 13.0268 14.6267 13.4801L15.1467 13.7601L11.0533 20.4134C11.0933 20.4801 11.1467 20.5601 11.1867 20.6668C11.84 21.8801 11.3867 23.4134 10.16 24.0668C8.94667 24.7201 7.41334 24.2401 6.74667 22.9868C6.09334 21.7468 6.54667 20.2134 7.77334 19.5601C8.29334 19.2801 8.86667 19.2134 9.41334 19.3334L12.4933 14.3068C11.8667 13.7334 11.3333 13.0134 11 12.1868Z" fill="black"/>
</svg>