<svg viewBox="0 0 32 32" xmlns="http://www.w3.org/2000/svg">
<path d="M9 20.7C9 21.82 9.5 23.32 10.89 24.16L15 26.57V30H17V26.57L21.11 24.16C22.5 23.33 23 21.83 23 20.7V14H22.98C22.98 13.9 23 13.8 23 13.7V7H22.98C22.98 6.9 23 6.8 23 6.7V2H21V6.7C21 7.28 20.76 8.04 20.09 8.44L17 10.26V2H15V10.25L11.91 8.44C11.24 8.04 11 7.27 11 6.7V2H9V6.7C9 6.8 9 6.9 9.02 7H9V13.7C9 13.8 9 13.9 9.02 14H9V20.7ZM11.91 22.44C11.24 22.04 11 21.27 11 20.7V17.22L15 19.57V24.25L11.91 22.44ZM20.09 22.44L17 24.26V19.58L21 17.23V20.71C21 21.29 20.76 22.05 20.09 22.45V22.44ZM21 10.23V13.71C21 14.29 20.76 15.05 20.09 15.45L17 17.27V12.59L21 10.24V10.23ZM15 12.58V17.26L11.91 15.45C11.24 15.05 11 14.28 11 13.71V10.23L15 12.58Z"/>
</svg>