<svg viewBox="0 0 32 32" xmlns="http://www.w3.org/2000/svg">
<path d="M2 27C2 26.4477 2.44772 26 3 26H14V24H6.75L11.3408 11.7578C11.77 10.6133 12.5385 9.62716 13.5435 8.93139L22.5334 2.70762C23.3236 2.1606 24.3552 2.93435 24.0513 3.84604L21 13L25.2308 24H22V26H29C29.5523 26 30 26.4477 30 27V29C30 29.5523 29.5523 30 29 30H3C2.44771 30 2 29.5523 2 29V27Z" fill="black"/>
<path fill-rule="evenodd" clip-rule="evenodd" d="M6.75 24H14V26H3C2.44772 26 2 26.4477 2 27V29C2 29.5523 2.44771 30 3 30H29C29.5523 30 30 29.5523 30 29V27C30 26.4477 29.5523 26 29 26H22V24H25.2308L21 13L24.0513 3.84604C24.3552 2.93435 23.3236 2.1606 22.5334 2.70762L13.5435 8.93139C12.5385 9.62716 11.77 10.6133 11.3408 11.7578L6.75 24Z" fill="black"/>
</svg>