<svg viewBox="0 0 32 32" xmlns="http://www.w3.org/2000/svg">
<path fill-rule="evenodd" clip-rule="evenodd" d="M4 24H6L11.3578 9.71253C11.7764 8.59618 12.5181 7.62986 13.4883 6.93687L20.5796 1.87166C22.1938 0.718711 24.3209 2.36569 23.6088 4.21708L21 11L26 24H28C29.1046 24 30 24.8954 30 26V28C30 29.1045 29.1046 30 28 30H4C2.89543 30 2 29.1045 2 28V26C2 24.8954 2.89543 24 4 24ZM22 26V24H23.8572L18.8572 11L21.7421 3.49912L14.6508 8.56434C14.004 9.02633 13.5095 9.67054 13.2304 10.4148L8.136 24H14V26L4 26V28H28V26L22 26Z" fill="black"/>
</svg>