<svg viewBox="0 0 32 32" xmlns="http://www.w3.org/2000/svg">
<path d="M27.61 22.09L18.02 12.4C19.12 9.91999 18.55 7.35999 16.41 5.28999C14.49 3.31999 12.53 2.88999 11.22 2.87999C9.35004 2.84999 7.95004 3.62999 7.29004 4.28999L6.59004 4.98999L9.59004 8.08999L8.08004 9.59999L4.98004 6.59999L4.29004 7.29999C2.87004 8.71999 1.67004 12.88 5.20004 16.52C7.92004 19.16 10.75 18.85 12.43 18.05L22.01 27.73C22.9 28.57 23.96 29.01 25.01 29.01C25.39 29.01 25.78 28.95 26.15 28.84C27.52 28.42 28.59 27.25 28.9 25.88C29.2 24.5 28.71 23.12 27.6 22.11L27.61 22.09ZM26.96 25.43C26.81 26.11 26.25 26.7 25.57 26.92C25.06 27.08 24.26 27.1 23.41 26.3L12.71 15.49L12.02 15.99C11.76 16.18 9.36004 17.76 6.62004 15.11C4.54004 12.96 4.68004 10.8 5.18004 9.56999L8.11004 12.4L12.4 8.10999L9.57004 5.18999C10.01 5.01999 10.58 4.87999 11.2 4.88999C12.55 4.89999 13.82 5.50999 14.98 6.69999L15 6.71999C16.71 8.37999 17.02 10.19 15.93 12.1L15.55 12.76L26.22 23.54C26.85 24.11 27.1 24.76 26.95 25.43H26.96Z"/>
</svg>