<svg viewBox="0 0 32 32" xmlns="http://www.w3.org/2000/svg">
<path fill-rule="evenodd" clip-rule="evenodd" d="M26.93 6.77994C28.14 7.10994 29.09 8.05994 29.41 9.25994C30 11.4399 30 15.9999 30 15.9999C30 15.9999 30 20.5599 29.41 22.7399C29.08 23.9499 28.13 24.8999 26.93 25.2199C24.75 25.8099 15.99 25.8099 15.99 25.8099C15.99 25.8099 7.22998 25.8099 5.04998 25.2199C3.83998 24.8899 2.88998 23.9399 2.56998 22.7399C1.97998 20.5599 1.97998 15.9999 1.97998 15.9999C1.97998 15.9999 1.97998 11.4399 2.56998 9.25994C2.89998 8.04994 3.84998 7.09994 5.04998 6.77994C7.22998 6.18994 15.99 6.18994 15.99 6.18994C15.99 6.18994 24.75 6.18994 26.93 6.77994ZM20.47 16L13.2 11.8V20.2001L20.47 16Z"/>
</svg>