<?xml version="1.0" encoding="UTF-8" standalone="yes"?><svg xmlns="http://www.w3.org/2000/svg" xmlns:xlink="http://www.w3.org/1999/xlink" height="248px" style="width:250px;height:248px;" version="1.1" viewBox="0 0 250 248" width="250px"><defs><filter height="300%" id="f1" width="300%" x="-1" y="-1"><feGaussianBlur result="blurOut" stdDeviation="2.0"/><feColorMatrix in="blurOut" result="blurOut2" type="matrix" values="0 0 0 0 0 0 0 0 0 0 0 0 0 0 0 0 0 0 .4 0"/><feOffset dx="4.0" dy="4.0" in="blurOut2" result="blurOut3"/><feBlend in="SourceGraphic" in2="blurOut3" mode="normal"/></filter></defs><g><a xlink:href="https://world.mendix.com/display/refguide6/Data+View" xlink:title="https://world.mendix.com/display/refguide6/Data+View"><rect fill="#CFECFE" filter="url(#f1)" height="25.0938" style="stroke: #000000; stroke-width: 1.5;" width="64" x="62" y="111"/><text fill="#000000" font-family="sans-serif" font-size="12" lengthAdjust="spacingAndGlyphs" textLength="52" x="68" y="128.457">DataView</text></a><rect fill="#CFECFE" filter="url(#f1)" height="25.0938" style="stroke: #000000; stroke-width: 1.5;" width="34" x="6" y="214"/><text fill="#000000" font-family="sans-serif" font-size="12" lengthAdjust="spacingAndGlyphs" textLength="22" x="12" y="231.457">Text</text><rect fill="#CFECFE" filter="url(#f1)" height="25.0938" style="stroke: #000000; stroke-width: 1.5;" width="123" x="104.5" y="214"/><text fill="#000000" font-family="sans-serif" font-size="12" lengthAdjust="spacingAndGlyphs" textLength="111" x="110.5" y="231.457">DataViewControlBar</text><rect fill="#D3D3D3" filter="url(#f1)" height="25.0938" style="stroke: #000000; stroke-width: 1.5;" width="80" x="119" y="8"/><text fill="#000000" font-family="sans-serif" font-size="12" font-style="italic" lengthAdjust="spacingAndGlyphs" textLength="68" x="125" y="25.457">EntityWidget</text><rect fill="#CFECFE" filter="url(#f1)" height="25.0938" style="stroke: #000000; stroke-width: 1.5;" width="77" x="161.5" y="111"/><text fill="#000000" font-family="sans-serif" font-size="12" lengthAdjust="spacingAndGlyphs" textLength="65" x="167.5" y="128.457">DataSource</text><path d="M50.0404,139.4791 C38.2075,145.7525 26.8116,154.3704 20,166 C13.9722,176.2914 13.9834,189.3838 15.8162,200.6658 " fill="none" style="stroke: #000000; stroke-width: 1.0;"/><polygon fill="#000000" points="18.7946,213.6409,20.6797,203.9741,17.676,208.7676,12.8825,205.7639,18.7946,213.6409" style="stroke: #000000; stroke-width: 1.0;"/><line style="stroke: #000000; stroke-width: 1.0;" x1="17.676" x2="15.8861" y1="208.7676" y2="200.9704"/><polygon fill="#000000" points="61.8655,133.962,54.737,132.8737,50.9906,139.0352,58.1191,140.1236,61.8655,133.962" style="stroke: #000000; stroke-width: 1.0;"/><text fill="#000000" font-family="sans-serif" font-size="13" lengthAdjust="spacingAndGlyphs" textLength="101" x="21" y="180.4951">noEntityMessage</text><path d="M112.151,146.5555 C117.085,152.7568 122.348,159.5661 127,166 C135.609,177.9077 144.639,191.5978 151.84,202.8421 " fill="none" style="stroke: #000000; stroke-width: 1.0;"/><polygon fill="#000000" points="158.829,213.8833,157.3952,204.1394,156.1548,209.6585,150.6356,208.4181,158.829,213.8833" style="stroke: #000000; stroke-width: 1.0;"/><line style="stroke: #000000; stroke-width: 1.0;" x1="156.1548" x2="151.8755" y1="209.6585" y2="202.8988"/><polygon fill="#000000" points="103.8264,136.262,104.4889,143.4426,111.3719,145.5929,110.7095,138.4123,103.8264,136.262" style="stroke: #000000; stroke-width: 1.0;"/><text fill="#000000" font-family="sans-serif" font-size="13" lengthAdjust="spacingAndGlyphs" textLength="59" x="141" y="180.4951">controlBar</text><path d="M140.639,50.03 C127.712,70.117 111.078,95.964 101.5696,110.738 " fill="none" style="stroke: #000000; stroke-width: 1.0;"/><polygon fill="none" points="134.834,46.116,151.544,33.086,146.606,53.692,134.834,46.116" style="stroke: #000000; stroke-width: 1.0;"/><path d="M168.616,45.187 C175.146,61.274 183.751,82.473 190.3,98.604 " fill="none" style="stroke: #000000; stroke-width: 1.0;"/><polygon fill="#000000" points="195.225,110.738,195.5456,100.8944,193.3441,106.1053,188.1332,103.9038,195.225,110.738" style="stroke: #000000; stroke-width: 1.0;"/><line style="stroke: #000000; stroke-width: 1.0;" x1="193.3441" x2="190.3355" y1="106.1053" y2="98.6925"/><polygon fill="#000000" points="163.703,33.086,162.2536,40.1499,168.2167,44.2047,169.6661,37.1408,163.703,33.086" style="stroke: #000000; stroke-width: 1.0;"/><text fill="#000000" font-family="sans-serif" font-size="13" lengthAdjust="spacingAndGlyphs" textLength="66" x="183" y="77.4951">dataSource</text></g></svg>