<?xml version="1.0" encoding="UTF-8" standalone="yes"?><svg xmlns="http://www.w3.org/2000/svg" xmlns:xlink="http://www.w3.org/1999/xlink" height="248px" style="width:529px;height:248px;" version="1.1" viewBox="0 0 529 248" width="529px"><defs><filter height="300%" id="f1" width="300%" x="-1" y="-1"><feGaussianBlur result="blurOut" stdDeviation="2.0"/><feColorMatrix in="blurOut" result="blurOut2" type="matrix" values="0 0 0 0 0 0 0 0 0 0 0 0 0 0 0 0 0 0 .4 0"/><feOffset dx="4.0" dy="4.0" in="blurOut2" result="blurOut3"/><feBlend in="SourceGraphic" in2="blurOut3" mode="normal"/></filter></defs><g><a xlink:href="https://world.mendix.com/display/refguide6/Template+Grid" xlink:title="https://world.mendix.com/display/refguide6/Template+Grid"><rect fill="#CFECFE" filter="url(#f1)" height="25.0938" style="stroke: #000000; stroke-width: 1.5;" width="87" x="91" y="111"/><text fill="#000000" font-family="sans-serif" font-size="12" lengthAdjust="spacingAndGlyphs" textLength="75" x="97" y="128.457">TemplateGrid</text></a><rect fill="#CFECFE" filter="url(#f1)" height="25.0938" style="stroke: #000000; stroke-width: 1.5;" width="137" x="6" y="214"/><text fill="#000000" font-family="sans-serif" font-size="12" lengthAdjust="spacingAndGlyphs" textLength="125" x="12" y="231.457">TemplateGridContents</text><rect fill="#D3D3D3" filter="url(#f1)" height="25.0938" style="stroke: #000000; stroke-width: 1.5;" width="35" x="243" y="8"/><text fill="#000000" font-family="sans-serif" font-size="12" font-style="italic" lengthAdjust="spacingAndGlyphs" textLength="23" x="249" y="25.457">Grid</text><a xlink:href="https://world.mendix.com/display/refguide6/Data+Grid" xlink:title="https://world.mendix.com/display/refguide6/Data+Grid"><rect fill="#CFECFE" filter="url(#f1)" height="25.0938" style="stroke: #000000; stroke-width: 1.5;" width="61" x="178" y="214"/><text fill="#000000" font-family="sans-serif" font-size="12" lengthAdjust="spacingAndGlyphs" textLength="49" x="184" y="231.457">DataGrid</text></a><rect fill="#D3D3D3" filter="url(#f1)" height="25.0938" style="stroke: #000000; stroke-width: 1.5;" width="79" x="221" y="111"/><text fill="#000000" font-family="sans-serif" font-size="12" font-style="italic" lengthAdjust="spacingAndGlyphs" textLength="67" x="227" y="128.457">ColumnGrid</text><rect fill="#CFECFE" filter="url(#f1)" height="25.0938" style="stroke: #000000; stroke-width: 1.5;" width="79" x="274" y="214"/><text fill="#000000" font-family="sans-serif" font-size="12" lengthAdjust="spacingAndGlyphs" textLength="67" x="280" y="231.457">GridColumn</text><rect fill="#CFECFE" filter="url(#f1)" height="25.0938" style="stroke: #000000; stroke-width: 1.5;" width="94" x="335.5" y="111"/><text fill="#000000" font-family="sans-serif" font-size="12" lengthAdjust="spacingAndGlyphs" textLength="82" x="341.5" y="128.457">GridControlBar</text><a xlink:href="https://world.mendix.com/display/refguide6/Reference+Set+Selector" xlink:title="https://world.mendix.com/display/refguide6/Reference+Set+Selector"><rect fill="#CFECFE" filter="url(#f1)" height="25.0938" style="stroke: #000000; stroke-width: 1.5;" width="132" x="388.5" y="214"/><text fill="#000000" font-family="sans-serif" font-size="12" lengthAdjust="spacingAndGlyphs" textLength="120" x="394.5" y="231.457">ReferenceSetSelector</text></a><path d="M120.95,147.3097 C111.18,163.7556 98.0408,185.873 88.23,202.3878 " fill="none" style="stroke: #000000; stroke-width: 1.0;"/><polygon fill="#000000" points="81.4873,213.738,89.5229,208.0433,84.041,209.4393,82.645,203.9574,81.4873,213.738" style="stroke: #000000; stroke-width: 1.0;"/><line style="stroke: #000000; stroke-width: 1.0;" x1="84.041" x2="88.1269" y1="209.4393" y2="202.5614"/><polygon fill="#000000" points="127.617,136.086,121.1135,139.2012,121.4877,146.4026,127.9912,143.2874,127.617,136.086" style="stroke: #000000; stroke-width: 1.0;"/><text fill="#000000" font-family="sans-serif" font-size="13" lengthAdjust="spacingAndGlyphs" textLength="50" x="109.5" y="180.4951">contents</text><path d="M230.213,45.778 C204.575,66.329 168.934,94.898 149.173,110.738 " fill="none" style="stroke: #000000; stroke-width: 1.0;"/><polygon fill="none" points="226.063,40.133,246.046,33.086,234.819,51.057,226.063,40.133" style="stroke: #000000; stroke-width: 1.0;"/><path d="M245.329,153.9659 C235.059,173.9135 222.044,199.1924 214.556,213.738 " fill="none" style="stroke: #000000; stroke-width: 1.0;"/><polygon fill="none" points="239.156,150.6634,254.535,136.086,251.604,157.0719,239.156,150.6634" style="stroke: #000000; stroke-width: 1.0;"/><path d="M272.622,147.601 C281.162,163.8747 292.558,185.5926 301.149,201.9625 " fill="none" style="stroke: #000000; stroke-width: 1.0;"/><polygon fill="#000000" points="307.328,213.738,306.688,203.91,305.0047,209.3106,299.6041,207.6273,307.328,213.738" style="stroke: #000000; stroke-width: 1.0;"/><line style="stroke: #000000; stroke-width: 1.0;" x1="305.0047" x2="301.287" y1="209.3106" y2="202.2267"/><polygon fill="#000000" points="266.58,136.086,265.8261,143.2576,272.156,146.7118,272.9099,139.5403,266.58,136.086" style="stroke: #000000; stroke-width: 1.0;"/><text fill="#000000" font-family="sans-serif" font-size="13" lengthAdjust="spacingAndGlyphs" textLength="61" x="291.5" y="180.4951">columns[ ]</text><path d="M260.5,53.18 C260.5,72.752 260.5,96.726 260.5,110.738 " fill="none" style="stroke: #000000; stroke-width: 1.0;"/><polygon fill="none" points="253.5,53.086,260.5,33.086,267.5,53.086,253.5,53.086" style="stroke: #000000; stroke-width: 1.0;"/><path d="M284.615,41.464 C305.885,59.073 336.733,84.611 358.09,102.292 " fill="none" style="stroke: #000000; stroke-width: 1.0;"/><polygon fill="#000000" points="368.292,110.738,363.9099,101.9177,364.4405,107.5496,358.8085,108.0802,368.292,110.738" style="stroke: #000000; stroke-width: 1.0;"/><line style="stroke: #000000; stroke-width: 1.0;" x1="364.4405" x2="358.2785" y1="107.5496" y2="102.448"/><polygon fill="#000000" points="274.495,33.086,276.5661,39.9933,283.7387,40.7381,281.6675,33.8308,274.495,33.086" style="stroke: #000000; stroke-width: 1.0;"/><text fill="#000000" font-family="sans-serif" font-size="13" lengthAdjust="spacingAndGlyphs" textLength="59" x="330.5" y="77.4951">controlBar</text><path d="M311.735,143.4794 C327.932,150.0258 345.716,157.7926 361.5,166 C389.56,180.5907 420.083,201.0906 438.237,213.8211 " fill="none" style="stroke: #000000; stroke-width: 1.0;"/><polygon fill="none" points="309.082,149.958,293.007,136.152,314.183,136.92,309.082,149.958" style="stroke: #000000; stroke-width: 1.0;"/></g></svg>