<?xml version="1.0" encoding="UTF-8" standalone="yes"?><svg xmlns="http://www.w3.org/2000/svg" xmlns:xlink="http://www.w3.org/1999/xlink" height="557px" style="width:789px;height:557px;" version="1.1" viewBox="0 0 789 557" width="789px"><defs><filter height="300%" id="f1" width="300%" x="-1" y="-1"><feGaussianBlur result="blurOut" stdDeviation="2.0"/><feColorMatrix in="blurOut" result="blurOut2" type="matrix" values="0 0 0 0 0 0 0 0 0 0 0 0 0 0 0 0 0 0 .4 0"/><feOffset dx="4.0" dy="4.0" in="blurOut2" result="blurOut3"/><feBlend in="SourceGraphic" in2="blurOut3" mode="normal"/></filter></defs><g><a xlink:href="https://world.mendix.com/display/refguide6/Pages" xlink:title="https://world.mendix.com/display/refguide6/Pages"><rect fill="#D3D3D3" filter="url(#f1)" height="25.0938" style="stroke: #000000; stroke-width: 1.5;" width="50" x="426.784" y="317"/><text fill="#000000" font-family="sans-serif" font-size="12" font-style="italic" lengthAdjust="spacingAndGlyphs" textLength="38" x="432.784" y="334.457">Widget</text></a><a xlink:href="https://world.mendix.com/display/refguide6/Scroll+Container" xlink:title="https://world.mendix.com/display/refguide6/Scroll+Container"><rect fill="#CFECFE" filter="url(#f1)" height="25.0938" style="stroke: #000000; stroke-width: 1.5;" width="97" x="138.284" y="420"/><text fill="#000000" font-family="sans-serif" font-size="12" lengthAdjust="spacingAndGlyphs" textLength="85" x="144.284" y="437.457">ScrollContainer</text></a><a xlink:href="https://world.mendix.com/display/refguide6/Scroll+Container" xlink:title="https://world.mendix.com/display/refguide6/Scroll+Container"><rect fill="#CFECFE" filter="url(#f1)" height="25.0938" style="stroke: #000000; stroke-width: 1.5;" width="137" x="118.284" y="523"/><text fill="#000000" font-family="sans-serif" font-size="12" lengthAdjust="spacingAndGlyphs" textLength="125" x="124.284" y="540.457">ScrollContainerRegion</text></a><a xlink:href="https://world.mendix.com/display/refguide6/Container" xlink:title="https://world.mendix.com/display/refguide6/Container"><rect fill="#CFECFE" filter="url(#f1)" height="25.0938" style="stroke: #000000; stroke-width: 1.5;" width="83" x="256.284" y="214"/><text fill="#000000" font-family="sans-serif" font-size="12" lengthAdjust="spacingAndGlyphs" textLength="71" x="262.284" y="231.457">DivContainer</text></a><a xlink:href="https://world.mendix.com/display/refguide6/Group+Box" xlink:title="https://world.mendix.com/display/refguide6/Group+Box"><rect fill="#CFECFE" filter="url(#f1)" height="25.0938" style="stroke: #000000; stroke-width: 1.5;" width="66" x="374.784" y="214"/><text fill="#000000" font-family="sans-serif" font-size="12" lengthAdjust="spacingAndGlyphs" textLength="54" x="380.784" y="231.457">GroupBox</text></a><a xlink:href="https://world.mendix.com/display/refguide6/Tab+Container" xlink:title="https://world.mendix.com/display/refguide6/Tab+Container"><rect fill="#CFECFE" filter="url(#f1)" height="25.0938" style="stroke: #000000; stroke-width: 1.5;" width="87" x="414.284" y="111"/><text fill="#000000" font-family="sans-serif" font-size="12" lengthAdjust="spacingAndGlyphs" textLength="75" x="420.284" y="128.457">TabContainer</text></a><a xlink:href="https://world.mendix.com/display/refguide6/Tab+Page" xlink:title="https://world.mendix.com/display/refguide6/Tab+Page"><rect fill="#CFECFE" filter="url(#f1)" height="25.0938" style="stroke: #000000; stroke-width: 1.5;" width="62" x="475.784" y="214"/><text fill="#000000" font-family="sans-serif" font-size="12" lengthAdjust="spacingAndGlyphs" textLength="50" x="481.784" y="231.457">TabPage</text></a><a xlink:href="https://world.mendix.com/display/refguide6/Layout+Grid" xlink:title="https://world.mendix.com/display/refguide6/Layout+Grid"><rect fill="#CFECFE" filter="url(#f1)" height="25.0938" style="stroke: #000000; stroke-width: 1.5;" width="71" x="595.284" y="8"/><text fill="#000000" font-family="sans-serif" font-size="12" lengthAdjust="spacingAndGlyphs" textLength="59" x="601.284" y="25.457">LayoutGrid</text></a><a xlink:href="https://world.mendix.com/display/refguide6/Layout+Grid" xlink:title="https://world.mendix.com/display/refguide6/Layout+Grid"><rect fill="#CFECFE" filter="url(#f1)" height="25.0938" style="stroke: #000000; stroke-width: 1.5;" width="96" x="582.784" y="111"/><text fill="#000000" font-family="sans-serif" font-size="12" lengthAdjust="spacingAndGlyphs" textLength="84" x="588.784" y="128.457">LayoutGridRow</text></a><a xlink:href="https://world.mendix.com/display/refguide6/Layout+Grid" xlink:title="https://world.mendix.com/display/refguide6/Layout+Grid"><rect fill="#CFECFE" filter="url(#f1)" height="25.0938" style="stroke: #000000; stroke-width: 1.5;" width="115" x="573.284" y="214"/><text fill="#000000" font-family="sans-serif" font-size="12" lengthAdjust="spacingAndGlyphs" textLength="103" x="579.284" y="231.457">LayoutGridColumn</text></a><rect fill="#D3D3D3" filter="url(#f1)" height="25.0938" style="stroke: #000000; stroke-width: 1.5;" width="65" x="621.284" y="420"/><text fill="#000000" font-family="sans-serif" font-size="12" font-style="italic" lengthAdjust="spacingAndGlyphs" textLength="53" x="627.284" y="437.457">SplitPane</text><a xlink:href="https://world.mendix.com/display/refguide6/Horizontal+Split+Pane" xlink:title="https://world.mendix.com/display/refguide6/Horizontal+Split+Pane"><rect fill="#CFECFE" filter="url(#f1)" height="25.0938" style="stroke: #000000; stroke-width: 1.5;" width="120" x="519.784" y="523"/><text fill="#000000" font-family="sans-serif" font-size="12" lengthAdjust="spacingAndGlyphs" textLength="108" x="525.784" y="540.457">HorizontalSplitPane</text></a><a xlink:href="https://world.mendix.com/display/refguide6/Vertical+Split+Pane" xlink:title="https://world.mendix.com/display/refguide6/Vertical+Split+Pane"><rect fill="#CFECFE" filter="url(#f1)" height="25.0938" style="stroke: #000000; stroke-width: 1.5;" width="105" x="675.284" y="523"/><text fill="#000000" font-family="sans-serif" font-size="12" lengthAdjust="spacingAndGlyphs" textLength="93" x="681.284" y="540.457">VerticalSplitPane</text></a><rect fill="#CFECFE" filter="url(#f1)" height="25.0938" style="stroke: #000000; stroke-width: 1.5;" width="78" x="419.784" y="420"/><text fill="#000000" font-family="sans-serif" font-size="12" lengthAdjust="spacingAndGlyphs" textLength="66" x="425.784" y="437.457">VerticalFlow</text><path d="M125.106,440.241 C81.2038,446.459 27.6353,457.4329 13.7839,475 C-15.3773,511.9838 47.2887,526.086 105.1862,531.4057 " fill="none" style="stroke: #000000; stroke-width: 1.0;"/><polygon fill="#000000" points="118.199,532.4681,109.5544,527.7489,113.2156,532.0612,108.9033,535.7224,118.199,532.4681" style="stroke: #000000; stroke-width: 1.0;"/><line style="stroke: #000000; stroke-width: 1.0;" x1="113.2156" x2="105.2421" y1="532.0612" y2="531.4102"/><polygon fill="#000000" points="138.071,438.5,131.5917,435.3348,126.1779,440.0982,132.6572,443.2635,138.071,438.5" style="stroke: #000000; stroke-width: 1.0;"/><text fill="#000000" font-family="sans-serif" font-size="13" lengthAdjust="spacingAndGlyphs" textLength="36" x="14.7839" y="489.4951">center</text><path d="M125.628,448.8717 C99.9515,458.5505 78.7207,473.0381 91.7839,493 C98.7327,503.6184 109.06,511.5359 120.378,517.4346 " fill="none" style="stroke: #000000; stroke-width: 1.0;"/><polygon fill="#000000" points="132.431,522.8796,125.8756,515.5293,127.8743,520.8213,122.5823,522.82,132.431,522.8796" style="stroke: #000000; stroke-width: 1.0;"/><line style="stroke: #000000; stroke-width: 1.0;" x1="127.8743" x2="120.584" y1="520.8213" y2="517.5275"/><polygon fill="#000000" points="138.044,444.632,131.0735,442.7849,126.6875,448.5088,133.658,450.3559,138.044,444.632" style="stroke: #000000; stroke-width: 1.0;"/><text fill="#000000" font-family="sans-serif" font-size="13" lengthAdjust="spacingAndGlyphs" textLength="17" x="92.7839" y="489.4951">left</text><path d="M163.15,454.9634 C158.11,460.9077 153.494,467.7398 150.784,475 C145.728,488.5432 153.277,502.4337 162.746,513.384 " fill="none" style="stroke: #000000; stroke-width: 1.0;"/><polygon fill="#000000" points="172.063,522.8744,168.6117,513.6501,168.56,519.3067,162.9033,519.2549,172.063,522.8744" style="stroke: #000000; stroke-width: 1.0;"/><line style="stroke: #000000; stroke-width: 1.0;" x1="168.56" x2="162.9555" y1="519.3067" y2="513.598"/><polygon fill="#000000" points="172.357,445.322,165.3205,446.8991,164.0699,454.001,171.1064,452.4238,172.357,445.322" style="stroke: #000000; stroke-width: 1.0;"/><text fill="#000000" font-family="sans-serif" font-size="13" lengthAdjust="spacingAndGlyphs" textLength="25" x="151.784" y="489.4951">right</text><path d="M186.784,458.3726 C186.784,473.911 186.784,493.8535 186.784,509.4291 " fill="none" style="stroke: #000000; stroke-width: 1.0;"/><polygon fill="#000000" points="186.784,522.738,190.784,513.738,186.784,517.738,182.784,513.738,186.784,522.738" style="stroke: #000000; stroke-width: 1.0;"/><line style="stroke: #000000; stroke-width: 1.0;" x1="186.784" x2="186.784" y1="517.738" y2="509.7381"/><polygon fill="#000000" points="186.784,445.086,182.784,451.086,186.784,457.086,190.784,451.086,186.784,445.086" style="stroke: #000000; stroke-width: 1.0;"/><text fill="#000000" font-family="sans-serif" font-size="13" lengthAdjust="spacingAndGlyphs" textLength="18" x="187.784" y="489.4951">top</text><path d="M205.47,456.0426 C209.292,461.8763 212.762,468.3872 214.784,475 C218.658,487.6676 213.268,501.0754 206.216,511.95 " fill="none" style="stroke: #000000; stroke-width: 1.0;"/><polygon fill="#000000" points="198.271,522.601,206.8585,517.7786,201.2606,518.5932,200.446,512.9953,198.271,522.601" style="stroke: #000000; stroke-width: 1.0;"/><line style="stroke: #000000; stroke-width: 1.0;" x1="201.2606" x2="206.044" y1="518.5932" y2="512.1806"/><polygon fill="#000000" points="197.48,445.204,197.8204,452.4071,204.6003,454.8633,204.2599,447.6602,197.48,445.204" style="stroke: #000000; stroke-width: 1.0;"/><text fill="#000000" font-family="sans-serif" font-size="13" lengthAdjust="spacingAndGlyphs" textLength="40" x="217.784" y="489.4951">bottom</text><path d="M407.334,343.073 C381.523,350.72 348.529,361.094 319.784,372 C280.761,386.806 236.79,407.244 210.46,419.903 " fill="none" style="stroke: #000000; stroke-width: 1.0;"/><polygon fill="none" points="405.515,336.312,426.674,337.452,409.422,349.755,405.515,336.312" style="stroke: #000000; stroke-width: 1.0;"/><path d="M224.88,517.1027 C238.515,510.2695 253.73,501.9238 266.784,493 C331.429,448.8087 398.28,384.66 431.083,351.74 " fill="none" style="stroke: #000000; stroke-width: 1.0;"/><polygon fill="#000000" points="440.491,342.214,431.3205,345.8059,436.9772,345.7712,437.012,351.4279,440.491,342.214" style="stroke: #000000; stroke-width: 1.0;"/><line style="stroke: #000000; stroke-width: 1.0;" x1="436.9772" x2="431.356" y1="345.7712" y2="351.4635"/><polygon fill="#000000" points="212.909,522.9262,220.0543,523.8983,223.6998,517.6766,216.5545,516.7045,212.909,522.9262" style="stroke: #000000; stroke-width: 1.0;"/><text fill="#000000" font-family="sans-serif" font-size="13" lengthAdjust="spacingAndGlyphs" textLength="37" x="358.784" y="437.9951">widget</text><path d="M317.591,248.614 C329.82,260.857 346.284,275.982 362.784,287 C378.67,297.609 397.699,306.881 414.077,313.954 " fill="none" style="stroke: #000000; stroke-width: 1.0;"/><polygon fill="#000000" points="426.533,319.139,419.7617,311.9871,421.9171,317.2172,416.6869,319.3726,426.533,319.139" style="stroke: #000000; stroke-width: 1.0;"/><line style="stroke: #000000; stroke-width: 1.0;" x1="421.9171" x2="414.531" y1="317.2172" y2="314.143"/><polygon fill="#000000" points="308.406,239.162,309.719,246.2526,316.7691,247.7677,315.4561,240.6772,308.406,239.162" style="stroke: #000000; stroke-width: 1.0;"/><text fill="#000000" font-family="sans-serif" font-size="13" lengthAdjust="spacingAndGlyphs" textLength="37" x="363.784" y="283.4951">widget</text><path d="M407.366,252.121 C408,263.197 409.919,276.183 414.784,287 C418.132,294.444 423.305,301.499 428.733,307.609 " fill="none" style="stroke: #000000; stroke-width: 1.0;"/><polygon fill="#000000" points="437.829,316.901,434.3922,307.6712,434.3316,313.3278,428.6751,313.2671,437.829,316.901" style="stroke: #000000; stroke-width: 1.0;"/><line style="stroke: #000000; stroke-width: 1.0;" x1="434.3316" x2="428.7355" y1="313.3278" y2="307.6115"/><polygon fill="#000000" points="407.136,239.003,403.2428,245.0728,407.3483,251.0011,411.2415,244.9313,407.136,239.003" style="stroke: #000000; stroke-width: 1.0;"/><text fill="#000000" font-family="sans-serif" font-size="13" lengthAdjust="spacingAndGlyphs" textLength="37" x="415.784" y="283.4951">widget</text><path d="M421.956,143.103 C405.478,154.212 391.608,169.037 401.784,184 C409.186,194.885 437.722,205.771 463.18,213.661 " fill="none" style="stroke: #000000; stroke-width: 1.0;"/><polygon fill="#000000" points="475.702,217.39,468.2171,210.9888,470.9098,215.9636,465.9349,218.6564,475.702,217.39" style="stroke: #000000; stroke-width: 1.0;"/><line style="stroke: #000000; stroke-width: 1.0;" x1="470.9098" x2="463.243" y1="215.9636" y2="213.68"/><polygon fill="#000000" points="433.518,136.05,426.3127,135.7604,423.2741,142.3,430.4794,142.5896,433.518,136.05" style="stroke: #000000; stroke-width: 1.0;"/><text fill="#000000" font-family="sans-serif" font-size="13" lengthAdjust="spacingAndGlyphs" textLength="67" x="402.784" y="180.4951">tabPages[ ]</text><path d="M463.405,136.086 C472.109,154.027 488.879,188.593 498.825,209.094 " fill="none" style="stroke: #000000; stroke-width: 1.0; stroke-dasharray: 7.0,7.0;"/><polygon fill="#000000" points="501.078,213.738,500.7503,203.8946,498.8964,209.239,493.5519,207.3852,501.078,213.738" style="stroke: #000000; stroke-width: 1.0;"/><text fill="#000000" font-family="sans-serif" font-size="13" lengthAdjust="spacingAndGlyphs" textLength="68" x="486.784" y="180.4951">defaultPage</text><path d="M494.204,250.601 C485.342,266.875 473.516,288.593 464.601,304.962 " fill="none" style="stroke: #000000; stroke-width: 1.0;"/><polygon fill="#000000" points="458.189,316.738,466.006,310.7469,460.5802,312.3468,458.9802,306.921,458.189,316.738" style="stroke: #000000; stroke-width: 1.0;"/><line style="stroke: #000000; stroke-width: 1.0;" x1="460.5802" x2="464.406" y1="312.3468" y2="305.321"/><polygon fill="#000000" points="500.475,239.086,494.0925,242.4421,494.7356,249.6245,501.1181,246.2684,500.475,239.086" style="stroke: #000000; stroke-width: 1.0;"/><text fill="#000000" font-family="sans-serif" font-size="13" lengthAdjust="spacingAndGlyphs" textLength="37" x="483.784" y="283.4951">widget</text><path d="M630.784,46.373 C630.784,61.911 630.784,81.854 630.784,97.429 " fill="none" style="stroke: #000000; stroke-width: 1.0;"/><polygon fill="#000000" points="630.784,110.738,634.784,101.738,630.784,105.738,626.784,101.738,630.784,110.738" style="stroke: #000000; stroke-width: 1.0;"/><line style="stroke: #000000; stroke-width: 1.0;" x1="630.784" x2="630.784" y1="105.738" y2="97.738"/><polygon fill="#000000" points="630.784,33.086,626.784,39.086,630.784,45.086,634.784,39.086,630.784,33.086" style="stroke: #000000; stroke-width: 1.0;"/><text fill="#000000" font-family="sans-serif" font-size="13" lengthAdjust="spacingAndGlyphs" textLength="39" x="631.784" y="77.4951">rows[ ]</text><path d="M630.784,149.373 C630.784,164.911 630.784,184.854 630.784,200.429 " fill="none" style="stroke: #000000; stroke-width: 1.0;"/><polygon fill="#000000" points="630.784,213.738,634.784,204.738,630.784,208.738,626.784,204.738,630.784,213.738" style="stroke: #000000; stroke-width: 1.0;"/><line style="stroke: #000000; stroke-width: 1.0;" x1="630.784" x2="630.784" y1="208.738" y2="200.738"/><polygon fill="#000000" points="630.784,136.086,626.784,142.086,630.784,148.086,634.784,142.086,630.784,136.086" style="stroke: #000000; stroke-width: 1.0;"/><text fill="#000000" font-family="sans-serif" font-size="13" lengthAdjust="spacingAndGlyphs" textLength="61" x="631.784" y="180.4951">columns[ ]</text><path d="M600.393,245.868 C580.446,257.809 553.715,273.593 529.784,287 C515.542,294.979 499.662,303.495 485.967,310.724 " fill="none" style="stroke: #000000; stroke-width: 1.0;"/><polygon fill="#000000" points="474.113,316.948,483.9408,316.3051,478.5397,314.6234,480.2214,309.2223,474.113,316.948" style="stroke: #000000; stroke-width: 1.0;"/><line style="stroke: #000000; stroke-width: 1.0;" x1="478.5397" x2="485.6225" y1="314.6234" y2="310.9045"/><polygon fill="#000000" points="611.566,239.158,604.3629,238.818,601.2786,245.3362,608.4817,245.6762,611.566,239.158" style="stroke: #000000; stroke-width: 1.0;"/><text fill="#000000" font-family="sans-serif" font-size="13" lengthAdjust="spacingAndGlyphs" textLength="37" x="561.784" y="283.4951">widget</text><path d="M609.011,416.29 C589.527,409.124 566.655,399.963 546.784,390 C522.982,378.066 497.486,361.892 478.906,349.42 " fill="none" style="stroke: #000000; stroke-width: 1.0;"/><polygon fill="#000000" points="468.045,342.022,473.2315,350.3946,472.1774,344.8368,477.7352,343.7828,468.045,342.022" style="stroke: #000000; stroke-width: 1.0;"/><line style="stroke: #000000; stroke-width: 1.0;" x1="472.1774" x2="478.7895" y1="344.8368" y2="349.3405"/><polygon fill="#000000" points="621.26,420.699,616.9694,414.9033,609.9692,416.6347,614.2599,422.4305,621.26,420.699" style="stroke: #000000; stroke-width: 1.0;"/><text fill="#000000" font-family="sans-serif" font-size="13" lengthAdjust="spacingAndGlyphs" textLength="62" x="547.784" y="386.4951">firstWidget</text><path d="M643.653,408.099 C637.122,395.636 627.468,381.054 614.784,372 C577.751,345.565 525.413,335.935 490.12,332.447 " fill="none" style="stroke: #000000; stroke-width: 1.0;"/><polygon fill="#000000" points="477.043,331.357,485.6796,336.0908,482.0257,331.7724,486.3442,328.1185,477.043,331.357" style="stroke: #000000; stroke-width: 1.0;"/><line style="stroke: #000000; stroke-width: 1.0;" x1="482.0257" x2="489.998" y1="331.7724" y2="332.4365"/><polygon fill="#000000" points="649.323,419.997,650.3526,412.8598,644.1605,409.1643,643.1308,416.3015,649.323,419.997" style="stroke: #000000; stroke-width: 1.0;"/><text fill="#000000" font-family="sans-serif" font-size="13" lengthAdjust="spacingAndGlyphs" textLength="83" x="633.784" y="386.4951">secondWidget</text><path d="M497.221,330.529 C567.333,331.648 696.849,338.353 725.784,372 C742.172,391.057 712.321,408.85 686.215,419.923 " fill="none" style="stroke: #000000; stroke-width: 1.0;"/><polygon fill="none" points="497.078,337.528,477.146,330.336,497.213,323.528,497.078,337.528" style="stroke: #000000; stroke-width: 1.0;"/><path d="M633.335,461.4106 C618.555,481.5827 599.338,507.8117 588.402,522.738 " fill="none" style="stroke: #000000; stroke-width: 1.0;"/><polygon fill="none" points="627.828,457.082,645.295,445.086,639.121,465.3563,627.828,457.082" style="stroke: #000000; stroke-width: 1.0;"/><path d="M674.233,461.4106 C689.013,481.5827 708.23,507.8117 719.166,522.738 " fill="none" style="stroke: #000000; stroke-width: 1.0;"/><polygon fill="none" points="668.446,465.3563,662.273,445.086,679.74,457.082,668.446,465.3563" style="stroke: #000000; stroke-width: 1.0;"/><path d="M451.863,406.98 C450.583,401.44 449.444,395.554 448.784,390 C447.442,378.702 447.807,366.128 448.66,355.46 " fill="none" style="stroke: #000000; stroke-width: 1.0;"/><polygon fill="#000000" points="450.011,342.393,445.1065,350.9339,449.4967,347.3665,453.0641,351.7567,450.011,342.393" style="stroke: #000000; stroke-width: 1.0;"/><line style="stroke: #000000; stroke-width: 1.0;" x1="449.4967" x2="448.674" y1="347.3665" y2="355.324"/><polygon fill="#000000" points="455.138,419.65,457.5095,412.84,452.1355,408.0317,449.764,414.8417,455.138,419.65" style="stroke: #000000; stroke-width: 1.0;"/><text fill="#000000" font-family="sans-serif" font-size="13" lengthAdjust="spacingAndGlyphs" textLength="56" x="449.784" y="386.4951">widgets[ ]</text><path d="M441.408,361.816 C439.631,370.921 438.889,380.871 440.784,390 C442.986,400.612 448.045,411.842 452.24,419.94 " fill="none" style="stroke: #000000; stroke-width: 1.0;"/><polygon fill="none" points="434.718,359.747,446.863,342.383,448.197,363.531,434.718,359.747" style="stroke: #000000; stroke-width: 1.0;"/></g></svg>