<?xml version="1.0" encoding="UTF-8" standalone="yes"?><svg xmlns="http://www.w3.org/2000/svg" xmlns:xlink="http://www.w3.org/1999/xlink" height="338px" style="width:283px;height:338px;" version="1.1" viewBox="0 0 283 338" width="283px"><defs><filter height="300%" id="f1" width="300%" x="-1" y="-1"><feGaussianBlur result="blurOut" stdDeviation="2.0"/><feColorMatrix in="blurOut" result="blurOut2" type="matrix" values="0 0 0 0 0 0 0 0 0 0 0 0 0 0 0 0 0 0 .4 0"/><feOffset dx="4.0" dy="4.0" in="blurOut2" result="blurOut3"/><feBlend in="SourceGraphic" in2="blurOut3" mode="normal"/></filter></defs><g><a xlink:href="https://world.mendix.com/display/refguide5/Pages" xlink:title="https://world.mendix.com/display/refguide5/Pages"><rect fill="#D3D3D3" filter="url(#f1)" height="32" style="stroke: #000000; stroke-width: 1.5;" width="95" x="92.5" y="101"/><ellipse cx="107.5" cy="117" fill="#CFECFE" rx="11" ry="11" style="stroke: #000000; stroke-width: 1.0;"/><path d="M105.4375,115.2188 L105.4375,120.2969 L106.0625,120.2969 Q106.6719,120.2969 106.9297,120.5313 Q107.1875,120.7656 107.1875,121.1563 Q107.1875,121.5313 106.9297,121.7656 Q106.6719,122 106.0625,122 L103.8281,122 Q103.2031,122 102.9453,121.7656 Q102.6875,121.5313 102.6875,121.1406 Q102.6875,120.7656 102.9453,120.5313 Q103.2031,120.2969 103.7344,120.2969 L103.7344,113.6406 Q103.2969,113.5938 103.0625,113.3672 Q102.8281,113.1406 102.8281,112.7813 Q102.8281,112.4063 103.0938,112.1719 Q103.3594,111.9375 103.9688,111.9375 L105.8438,111.9375 L108.1563,117.0625 L110.4219,111.9375 L112.3125,111.9375 Q112.9219,111.9375 113.1875,112.1719 Q113.4531,112.4063 113.4531,112.7813 Q113.4531,113.1406 113.2188,113.3672 Q112.9844,113.5938 112.5469,113.6406 L112.5469,120.2969 Q113.0781,120.2969 113.3359,120.5391 Q113.5938,120.7813 113.5938,121.1563 Q113.5938,121.5313 113.3359,121.7656 Q113.0781,122 112.4688,122 L110.2188,122 Q109.6094,122 109.3516,121.7656 Q109.0938,121.5313 109.0938,121.1406 Q109.0938,120.7656 109.3516,120.5313 Q109.6094,120.2969 110.2188,120.2969 L110.8438,120.2969 L110.8438,115.2188 L108.8906,119.6094 L107.4219,119.6094 L105.4375,115.2188 Z "/><text fill="#000000" font-family="sans-serif" font-size="12" font-style="italic" lengthAdjust="spacingAndGlyphs" textLength="57" x="124.5" y="121.9102">FormBase</text></a><rect fill="#CFECFE" filter="url(#f1)" height="32" style="stroke: #000000; stroke-width: 1.5;" width="95" x="92.5" y="8"/><ellipse cx="107.5" cy="24" fill="#CFECFE" rx="11" ry="11" style="stroke: #000000; stroke-width: 1.0;"/><path d="M105.4375,22.2188 L105.4375,27.2969 L106.0625,27.2969 Q106.6719,27.2969 106.9297,27.5313 Q107.1875,27.7656 107.1875,28.1563 Q107.1875,28.5313 106.9297,28.7656 Q106.6719,29 106.0625,29 L103.8281,29 Q103.2031,29 102.9453,28.7656 Q102.6875,28.5313 102.6875,28.1406 Q102.6875,27.7656 102.9453,27.5313 Q103.2031,27.2969 103.7344,27.2969 L103.7344,20.6406 Q103.2969,20.5938 103.0625,20.3672 Q102.8281,20.1406 102.8281,19.7813 Q102.8281,19.4063 103.0938,19.1719 Q103.3594,18.9375 103.9688,18.9375 L105.8438,18.9375 L108.1563,24.0625 L110.4219,18.9375 L112.3125,18.9375 Q112.9219,18.9375 113.1875,19.1719 Q113.4531,19.4063 113.4531,19.7813 Q113.4531,20.1406 113.2188,20.3672 Q112.9844,20.5938 112.5469,20.6406 L112.5469,27.2969 Q113.0781,27.2969 113.3359,27.5391 Q113.5938,27.7813 113.5938,28.1563 Q113.5938,28.5313 113.3359,28.7656 Q113.0781,29 112.4688,29 L110.2188,29 Q109.6094,29 109.3516,28.7656 Q109.0938,28.5313 109.0938,28.1406 Q109.0938,27.7656 109.3516,27.5313 Q109.6094,27.2969 110.2188,27.2969 L110.8438,27.2969 L110.8438,22.2188 L108.8906,26.6094 L107.4219,26.6094 L105.4375,22.2188 Z "/><text fill="#000000" font-family="sans-serif" font-size="12" lengthAdjust="spacingAndGlyphs" textLength="57" x="124.5" y="28.9102">Document</text><a xlink:href="https://world.mendix.com/display/refguide5/Page" xlink:title="https://world.mendix.com/display/refguide5/Page"><rect fill="#CFECFE" filter="url(#f1)" height="32" style="stroke: #000000; stroke-width: 1.5;" width="67" x="106.5" y="194"/><ellipse cx="121.5" cy="210" fill="#CFECFE" rx="11" ry="11" style="stroke: #000000; stroke-width: 1.0;"/><path d="M119.4375,208.2188 L119.4375,213.2969 L120.0625,213.2969 Q120.6719,213.2969 120.9297,213.5313 Q121.1875,213.7656 121.1875,214.1563 Q121.1875,214.5313 120.9297,214.7656 Q120.6719,215 120.0625,215 L117.8281,215 Q117.2031,215 116.9453,214.7656 Q116.6875,214.5313 116.6875,214.1406 Q116.6875,213.7656 116.9453,213.5313 Q117.2031,213.2969 117.7344,213.2969 L117.7344,206.6406 Q117.2969,206.5938 117.0625,206.3672 Q116.8281,206.1406 116.8281,205.7813 Q116.8281,205.4063 117.0938,205.1719 Q117.3594,204.9375 117.9688,204.9375 L119.8438,204.9375 L122.1563,210.0625 L124.4219,204.9375 L126.3125,204.9375 Q126.9219,204.9375 127.1875,205.1719 Q127.4531,205.4063 127.4531,205.7813 Q127.4531,206.1406 127.2188,206.3672 Q126.9844,206.5938 126.5469,206.6406 L126.5469,213.2969 Q127.0781,213.2969 127.3359,213.5391 Q127.5938,213.7813 127.5938,214.1563 Q127.5938,214.5313 127.3359,214.7656 Q127.0781,215 126.4688,215 L124.2188,215 Q123.6094,215 123.3516,214.7656 Q123.0938,214.5313 123.0938,214.1406 Q123.0938,213.7656 123.3516,213.5313 Q123.6094,213.2969 124.2188,213.2969 L124.8438,213.2969 L124.8438,208.2188 L122.8906,212.6094 L121.4219,212.6094 L119.4375,208.2188 Z "/><text fill="#000000" font-family="sans-serif" font-size="12" lengthAdjust="spacingAndGlyphs" textLength="29" x="138.5" y="214.9102">Page</text></a><rect fill="#CFECFE" filter="url(#f1)" height="25.0938" style="stroke: #000000; stroke-width: 1.5;" width="70" x="6" y="304"/><text fill="#000000" font-family="sans-serif" font-size="12" lengthAdjust="spacingAndGlyphs" textLength="58" x="12" y="321.457">LayoutCall</text><rect fill="#CFECFE" filter="url(#f1)" height="25.0938" style="stroke: #000000; stroke-width: 1.5;" width="34" x="123" y="304"/><text fill="#000000" font-family="sans-serif" font-size="12" lengthAdjust="spacingAndGlyphs" textLength="22" x="129" y="321.457">Text</text><rect fill="#CFECFE" filter="url(#f1)" height="25.0938" style="stroke: #000000; stroke-width: 1.5;" width="78" x="192" y="304"/><text fill="#000000" font-family="sans-serif" font-size="12" lengthAdjust="spacingAndGlyphs" textLength="66" x="198" y="321.457">ModuleRole</text><path d="M140,60.238 C140,74.363 140,89.88 140,100.951 " fill="none" style="stroke: #000000; stroke-width: 1.0;"/><polygon fill="none" points="133,60.027,140,40.027,147,60.027,133,60.027" style="stroke: #000000; stroke-width: 1.0;"/><path d="M100.1431,233.1528 C90.5189,239.6882 80.7786,247.4191 73,256 C63.499,266.4809 55.8476,280.2929 50.4118,291.9709 " fill="none" style="stroke: #000000; stroke-width: 1.0;"/><polygon fill="#000000" points="45.2356,303.9576,52.4758,297.2808,47.2178,299.3673,45.1313,294.1093,45.2356,303.9576" style="stroke: #000000; stroke-width: 1.0;"/><line style="stroke: #000000; stroke-width: 1.0;" x1="47.2178" x2="50.3895" y1="299.3673" y2="292.0228"/><polygon fill="#000000" points="111.263,226.051,104.0533,225.9094,101.1496,232.51,108.3593,232.6516,111.263,226.051" style="stroke: #000000; stroke-width: 1.0;"/><text fill="#000000" font-family="sans-serif" font-size="13" lengthAdjust="spacingAndGlyphs" textLength="57" x="74" y="270.4951">layoutCall</text><path d="M140,239.4878 C140,255.5377 140,275.3887 140,290.7791 " fill="none" style="stroke: #000000; stroke-width: 1.0;"/><polygon fill="#000000" points="140,303.8985,144,294.8985,140,298.8985,136,294.8985,140,303.8985" style="stroke: #000000; stroke-width: 1.0;"/><line style="stroke: #000000; stroke-width: 1.0;" x1="140" x2="140" y1="298.8985" y2="290.8986"/><polygon fill="#000000" points="140,226.419,136,232.419,140,238.419,144,232.419,140,226.419" style="stroke: #000000; stroke-width: 1.0;"/><text fill="#000000" font-family="sans-serif" font-size="13" lengthAdjust="spacingAndGlyphs" textLength="21" x="141" y="270.4951">title</text><path d="M153.427,226.419 C170.598,246.1369 200.166,280.092 217.413,299.8973 " fill="none" style="stroke: #000000; stroke-width: 1.0;"/><polygon fill="#000000" points="220.897,303.8985,218.0023,294.4847,217.6131,300.1281,211.9696,299.7389,220.897,303.8985" style="stroke: #000000; stroke-width: 1.0;"/><text fill="#000000" font-family="sans-serif" font-size="13" lengthAdjust="spacingAndGlyphs" textLength="88" x="194" y="270.4951">allowedRoles[ ]</text><path d="M140,153.238 C140,167.363 140,182.88 140,193.951 " fill="none" style="stroke: #000000; stroke-width: 1.0;"/><polygon fill="none" points="133,153.027,140,133.027,147,153.027,133,153.027" style="stroke: #000000; stroke-width: 1.0;"/></g></svg>