<?xml version="1.0" encoding="UTF-8" standalone="yes"?><svg xmlns="http://www.w3.org/2000/svg" xmlns:xlink="http://www.w3.org/1999/xlink" height="358px" style="width:183px;height:358px;" version="1.1" viewBox="0 0 183 358" width="183px"><defs><filter height="300%" id="f1" width="300%" x="-1" y="-1"><feGaussianBlur result="blurOut" stdDeviation="2.0"/><feColorMatrix in="blurOut" result="blurOut2" type="matrix" values="0 0 0 0 0 0 0 0 0 0 0 0 0 0 0 0 0 0 .4 0"/><feOffset dx="4.0" dy="4.0" in="blurOut2" result="blurOut3"/><feBlend in="SourceGraphic" in2="blurOut3" mode="normal"/></filter></defs><g><a xlink:href="https://world.mendix.com/display/refguide6/Snippet+Call" xlink:title="https://world.mendix.com/display/refguide6/Snippet+Call"><rect fill="#CFECFE" filter="url(#f1)" height="25.0938" style="stroke: #000000; stroke-width: 1.5;" width="114" x="60.5" y="8"/><text fill="#000000" font-family="sans-serif" font-size="12" lengthAdjust="spacingAndGlyphs" textLength="102" x="66.5" y="25.457">SnippetCallWidget</text></a><a xlink:href="https://world.mendix.com/display/refguide6/Snippet+Call" xlink:title="https://world.mendix.com/display/refguide6/Snippet+Call"><rect fill="#CFECFE" filter="url(#f1)" height="25.0938" style="stroke: #000000; stroke-width: 1.5;" width="76" x="33.5" y="111"/><text fill="#000000" font-family="sans-serif" font-size="12" lengthAdjust="spacingAndGlyphs" textLength="64" x="39.5" y="128.457">SnippetCall</text></a><rect fill="#CFECFE" filter="url(#f1)" height="25.0938" style="stroke: #000000; stroke-width: 1.5;" width="50" x="109.5" y="324"/><text fill="#000000" font-family="sans-serif" font-size="12" lengthAdjust="spacingAndGlyphs" textLength="38" x="115.5" y="341.457">Widget</text><a xlink:href="https://world.mendix.com/display/refguide6/Snippet" xlink:title="https://world.mendix.com/display/refguide6/Snippet"><rect fill="#CFECFE" filter="url(#f1)" height="32" style="stroke: #000000; stroke-width: 1.5;" width="80" x="29.5" y="214"/><ellipse cx="44.5" cy="230" fill="#CFECFE" rx="11" ry="11" style="stroke: #000000; stroke-width: 1.0;"/><path d="M42.4375,228.2188 L42.4375,233.2969 L43.0625,233.2969 Q43.6719,233.2969 43.9297,233.5313 Q44.1875,233.7656 44.1875,234.1563 Q44.1875,234.5313 43.9297,234.7656 Q43.6719,235 43.0625,235 L40.8281,235 Q40.2031,235 39.9453,234.7656 Q39.6875,234.5313 39.6875,234.1406 Q39.6875,233.7656 39.9453,233.5313 Q40.2031,233.2969 40.7344,233.2969 L40.7344,226.6406 Q40.2969,226.5938 40.0625,226.3672 Q39.8281,226.1406 39.8281,225.7813 Q39.8281,225.4063 40.0938,225.1719 Q40.3594,224.9375 40.9688,224.9375 L42.8438,224.9375 L45.1563,230.0625 L47.4219,224.9375 L49.3125,224.9375 Q49.9219,224.9375 50.1875,225.1719 Q50.4531,225.4063 50.4531,225.7813 Q50.4531,226.1406 50.2188,226.3672 Q49.9844,226.5938 49.5469,226.6406 L49.5469,233.2969 Q50.0781,233.2969 50.3359,233.5391 Q50.5938,233.7813 50.5938,234.1563 Q50.5938,234.5313 50.3359,234.7656 Q50.0781,235 49.4688,235 L47.2188,235 Q46.6094,235 46.3516,234.7656 Q46.0938,234.5313 46.0938,234.1406 Q46.0938,233.7656 46.3516,233.5313 Q46.6094,233.2969 47.2188,233.2969 L47.8438,233.2969 L47.8438,228.2188 L45.8906,232.6094 L44.4219,232.6094 L42.4375,228.2188 Z "/><text fill="#000000" font-family="sans-serif" font-size="12" lengthAdjust="spacingAndGlyphs" textLength="42" x="61.5" y="234.9102">Snippet</text></a><rect fill="#CFECFE" filter="url(#f1)" height="25.0938" style="stroke: #000000; stroke-width: 1.5;" width="41" x="6" y="324"/><text fill="#000000" font-family="sans-serif" font-size="12" lengthAdjust="spacingAndGlyphs" textLength="29" x="12" y="341.457">Entity</text><path d="M87.1313,41.527 C80.4143,47.561 74.2008,54.795 70.5,63 C65.6561,73.739 65.3259,86.717 66.4493,97.808 " fill="none" style="stroke: #000000; stroke-width: 1.0;"/><polygon fill="#000000" points="68.5062,110.954,71.0666,101.4438,67.7331,106.0141,63.1628,102.6807,68.5062,110.954" style="stroke: #000000; stroke-width: 1.0;"/><line style="stroke: #000000; stroke-width: 1.0;" x1="67.7331" x2="66.4966" y1="106.0141" y2="98.1105"/><polygon fill="#000000" points="97.812,33.064,90.6251,33.6547,88.4062,40.5159,95.593,39.9252,97.812,33.064" style="stroke: #000000; stroke-width: 1.0;"/><text fill="#000000" font-family="sans-serif" font-size="13" lengthAdjust="spacingAndGlyphs" textLength="64" x="71.5" y="77.4951">snippetCall</text><path d="M140.663,303.9364 C149.501,252.502 162.435,147.829 140.5,63 C137.695,52.154 131.379,41.119 126.075,33.158 " fill="none" style="stroke: #000000; stroke-width: 1.0;"/><polygon fill="none" points="147.506,305.4294,136.979,323.8193,133.74,302.8786,147.506,305.4294" style="stroke: #000000; stroke-width: 1.0;"/><path d="M71.2783,136.083 C70.9445,153.523 70.308,186.782 69.894,208.415 " fill="none" style="stroke: #000000; stroke-width: 1.0;"/><polygon fill="#000000" points="69.7938,213.647,73.9654,204.7252,69.8895,208.6479,65.9668,204.5721,69.7938,213.647" style="stroke: #000000; stroke-width: 1.0;"/><text fill="#000000" font-family="sans-serif" font-size="13" lengthAdjust="spacingAndGlyphs" textLength="42" x="72.5" y="180.4951">snippet</text><path d="M47.3,246.341 C38.1005,254.0527 28.4385,264.2604 23.5,276 C17.8151,289.5141 19.3455,306.3049 21.8439,318.6003 " fill="none" style="stroke: #000000; stroke-width: 1.0;"/><polygon fill="#000000" points="22.9557,323.5718,24.8949,313.9157,21.8644,318.6923,17.0878,315.6618,22.9557,323.5718" style="stroke: #000000; stroke-width: 1.0;"/><text fill="#000000" font-family="sans-serif" font-size="13" lengthAdjust="spacingAndGlyphs" textLength="32" x="24.5" y="290.4951">entity</text><path d="M79.5634,258.5413 C84.2705,269.9306 90.4087,283.0136 97.5,294 C102.0607,301.0658 107.803,308.1289 113.394,314.3728 " fill="none" style="stroke: #000000; stroke-width: 1.0;"/><polygon fill="#000000" points="122.425,323.9632,119.167,314.6688,118.9972,320.3231,113.3429,320.1533,122.425,323.9632" style="stroke: #000000; stroke-width: 1.0;"/><line style="stroke: #000000; stroke-width: 1.0;" x1="118.9972" x2="113.5125" y1="320.3231" y2="314.4991"/><polygon fill="#000000" points="74.7237,246.176,73.1858,253.2212,79.0975,257.3505,80.6354,250.3053,74.7237,246.176" style="stroke: #000000; stroke-width: 1.0;"/><text fill="#000000" font-family="sans-serif" font-size="13" lengthAdjust="spacingAndGlyphs" textLength="37" x="98.5" y="290.4951">widget</text></g></svg>