<?xml version="1.0" encoding="UTF-8" standalone="yes"?><svg xmlns="http://www.w3.org/2000/svg" xmlns:xlink="http://www.w3.org/1999/xlink" height="437px" style="width:455px;height:437px;" version="1.1" viewBox="0 0 455 437" width="455px"><defs><filter height="300%" id="f1" width="300%" x="-1" y="-1"><feGaussianBlur result="blurOut" stdDeviation="2.0"/><feColorMatrix in="blurOut" result="blurOut2" type="matrix" values="0 0 0 0 0 0 0 0 0 0 0 0 0 0 0 0 0 0 .4 0"/><feOffset dx="4.0" dy="4.0" in="blurOut2" result="blurOut3"/><feBlend in="SourceGraphic" in2="blurOut3" mode="normal"/></filter></defs><g><a xlink:href="https://world.mendix.com/display/refguide6/List+View" xlink:title="https://world.mendix.com/display/refguide6/List+View"><rect fill="#CFECFE" filter="url(#f1)" height="25.0938" style="stroke: #000000; stroke-width: 1.5;" width="58" x="233" y="8"/><text fill="#000000" font-family="sans-serif" font-size="12" lengthAdjust="spacingAndGlyphs" textLength="46" x="239" y="25.457">ListView</text></a><rect fill="#CFECFE" filter="url(#f1)" height="25.0938" style="stroke: #000000; stroke-width: 1.5;" width="50" x="138" y="111"/><text fill="#000000" font-family="sans-serif" font-size="12" lengthAdjust="spacingAndGlyphs" textLength="38" x="144" y="128.457">Widget</text><rect fill="#CFECFE" filter="url(#f1)" height="25.0938" style="stroke: #000000; stroke-width: 1.5;" width="77" x="223.5" y="111"/><text fill="#000000" font-family="sans-serif" font-size="12" lengthAdjust="spacingAndGlyphs" textLength="65" x="229.5" y="128.457">ClientAction</text><rect fill="#CFECFE" filter="url(#f1)" height="25.0938" style="stroke: #000000; stroke-width: 1.5;" width="110" x="336" y="111"/><text fill="#000000" font-family="sans-serif" font-size="12" lengthAdjust="spacingAndGlyphs" textLength="98" x="342" y="128.457">ListViewTemplate</text><rect fill="#D3D3D3" filter="url(#f1)" height="25.0938" style="stroke: #000000; stroke-width: 1.5;" width="80" x="6" y="300"/><text fill="#000000" font-family="sans-serif" font-size="12" font-style="italic" lengthAdjust="spacingAndGlyphs" textLength="68" x="12" y="317.457">EntityWidget</text><rect fill="#CFECFE" filter="url(#f1)" height="25.0938" style="stroke: #000000; stroke-width: 1.5;" width="77" x="7.5" y="403"/><text fill="#000000" font-family="sans-serif" font-size="12" lengthAdjust="spacingAndGlyphs" textLength="65" x="13.5" y="420.457">DataSource</text><rect fill="#D3D3D3" filter="url(#f1)" height="25.0938" style="stroke: #000000; stroke-width: 1.5;" width="160" x="83" y="197"/><text fill="#000000" font-family="sans-serif" font-size="12" font-style="italic" lengthAdjust="spacingAndGlyphs" textLength="148" x="89" y="214.457">ConditionallyVisibleWidget</text><rect fill="#CFECFE" filter="url(#f1)" height="25.0938" style="stroke: #000000; stroke-width: 1.5;" width="164" x="121" y="300"/><text fill="#000000" font-family="sans-serif" font-size="12" lengthAdjust="spacingAndGlyphs" textLength="152" x="127" y="317.457">ConditionalVisibilitySettings</text><path d="M237.978,41.652 C230.435,48.257 222.201,55.762 215,63 C203.121,74.939 190.677,89.111 180.941,100.628 " fill="none" style="stroke: #000000; stroke-width: 1.0;"/><polygon fill="#000000" points="172.544,110.697,181.3806,106.348,175.7468,106.8574,175.2373,101.2236,172.544,110.697" style="stroke: #000000; stroke-width: 1.0;"/><line style="stroke: #000000; stroke-width: 1.0;" x1="175.7468" x2="180.87" y1="106.8574" y2="100.7135"/><polygon fill="#000000" points="248.001,33.036,240.8435,33.9138,238.9009,40.8583,246.0584,39.9805,248.001,33.036" style="stroke: #000000; stroke-width: 1.0;"/><text fill="#000000" font-family="sans-serif" font-size="13" lengthAdjust="spacingAndGlyphs" textLength="37" x="216" y="77.4951">widget</text><path d="M262,46.373 C262,61.911 262,81.854 262,97.429 " fill="none" style="stroke: #000000; stroke-width: 1.0;"/><polygon fill="#000000" points="262,110.738,266,101.738,262,105.738,258,101.738,262,110.738" style="stroke: #000000; stroke-width: 1.0;"/><line style="stroke: #000000; stroke-width: 1.0;" x1="262" x2="262" y1="105.738" y2="97.738"/><polygon fill="#000000" points="262,33.086,258,39.086,262,45.086,266,39.086,262,33.086" style="stroke: #000000; stroke-width: 1.0;"/><text fill="#000000" font-family="sans-serif" font-size="13" lengthAdjust="spacingAndGlyphs" textLength="64" x="263" y="77.4951">clickAction</text><path d="M299.007,39.297 C311.304,45.966 324.724,54.106 336,63 C350.037,74.073 363.692,88.816 373.885,100.857 " fill="none" style="stroke: #000000; stroke-width: 1.0;"/><polygon fill="#000000" points="382.184,110.971,379.5677,101.476,379.0125,107.1056,373.383,106.5504,382.184,110.971" style="stroke: #000000; stroke-width: 1.0;"/><line style="stroke: #000000; stroke-width: 1.0;" x1="379.0125" x2="373.9385" y1="107.1056" y2="100.921"/><polygon fill="#000000" points="287.207,33.145,290.678,39.4658,297.8476,38.6928,294.3766,32.372,287.207,33.145" style="stroke: #000000; stroke-width: 1.0;"/><text fill="#000000" font-family="sans-serif" font-size="13" lengthAdjust="spacingAndGlyphs" textLength="69" x="357" y="77.4951">templates[ ]</text><path d="M46,338.3726 C46,353.911 46,373.8535 46,389.4291 " fill="none" style="stroke: #000000; stroke-width: 1.0;"/><polygon fill="#000000" points="46,402.738,50,393.738,46,397.738,42,393.738,46,402.738" style="stroke: #000000; stroke-width: 1.0;"/><line style="stroke: #000000; stroke-width: 1.0;" x1="46" x2="46.0001" y1="397.738" y2="389.7381"/><polygon fill="#000000" points="46,325.086,42,331.086,46,337.086,50,331.086,46,325.086" style="stroke: #000000; stroke-width: 1.0;"/><text fill="#000000" font-family="sans-serif" font-size="13" lengthAdjust="spacingAndGlyphs" textLength="66" x="47" y="369.4951">dataSource</text><path d="M134.187,235.373 C110.435,255.877 77.7984,284.05 59.6252,299.738 " fill="none" style="stroke: #000000; stroke-width: 1.0;"/><polygon fill="none" points="129.865,229.856,149.579,222.086,139.013,240.454,129.865,229.856" style="stroke: #000000; stroke-width: 1.0;"/><path d="M172.381,234.187 C178.752,250.274 187.148,271.473 193.536,287.604 " fill="none" style="stroke: #000000; stroke-width: 1.0;"/><polygon fill="#000000" points="198.342,299.738,198.7465,289.8975,196.5007,295.0894,191.3088,292.8436,198.342,299.738" style="stroke: #000000; stroke-width: 1.0;"/><line style="stroke: #000000; stroke-width: 1.0;" x1="196.5007" x2="193.555" y1="295.0894" y2="287.6515"/><polygon fill="#000000" points="167.589,222.086,166.0794,229.1373,172.0077,233.2428,173.5173,226.1915,167.589,222.086" style="stroke: #000000; stroke-width: 1.0;"/><text fill="#000000" font-family="sans-serif" font-size="13" lengthAdjust="spacingAndGlyphs" textLength="159" x="187" y="266.4951">conditionalVisibilitySettings</text><path d="M163,156.183 C163,170.456 163,186.422 163,196.919 " fill="none" style="stroke: #000000; stroke-width: 1.0;"/><polygon fill="none" points="156,156.18,163,136.18,170,156.18,156,156.18" style="stroke: #000000; stroke-width: 1.0;"/></g></svg>