<?xml version="1.0" encoding="UTF-8" standalone="yes"?><svg xmlns="http://www.w3.org/2000/svg" xmlns:xlink="http://www.w3.org/1999/xlink" height="437px" style="width:761px;height:437px;" version="1.1" viewBox="0 0 761 437" width="761px"><defs><filter height="300%" id="f1" width="300%" x="-1" y="-1"><feGaussianBlur result="blurOut" stdDeviation="2.0"/><feColorMatrix in="blurOut" result="blurOut2" type="matrix" values="0 0 0 0 0 0 0 0 0 0 0 0 0 0 0 0 0 0 .4 0"/><feOffset dx="4.0" dy="4.0" in="blurOut2" result="blurOut3"/><feBlend in="SourceGraphic" in2="blurOut3" mode="normal"/></filter></defs><g><rect fill="#D3D3D3" filter="url(#f1)" height="25.0938" style="stroke: #000000; stroke-width: 1.5;" width="113" x="373.5" y="94"/><text fill="#000000" font-family="sans-serif" font-size="12" font-style="italic" lengthAdjust="spacingAndGlyphs" textLength="101" x="379.5" y="111.457">AssociationWidget</text><rect fill="#CFECFE" filter="url(#f1)" height="25.0938" style="stroke: #000000; stroke-width: 1.5;" width="96" x="57" y="197"/><text fill="#000000" font-family="sans-serif" font-size="12" lengthAdjust="spacingAndGlyphs" textLength="84" x="63" y="214.457">SelectorSource</text><rect fill="#CFECFE" filter="url(#f1)" height="25.0938" style="stroke: #000000; stroke-width: 1.5;" width="86" x="352" y="300"/><text fill="#000000" font-family="sans-serif" font-size="12" lengthAdjust="spacingAndGlyphs" textLength="74" x="358" y="317.457">PageSettings</text><rect fill="#CFECFE" filter="url(#f1)" height="25.0938" style="stroke: #000000; stroke-width: 1.5;" width="108" x="363" y="403"/><text fill="#000000" font-family="sans-serif" font-size="12" lengthAdjust="spacingAndGlyphs" textLength="96" x="369" y="420.457">MicroflowSettings</text><rect fill="#CFECFE" filter="url(#f1)" height="25.0938" style="stroke: #000000; stroke-width: 1.5;" width="95" x="382.5" y="8"/><text fill="#000000" font-family="sans-serif" font-size="12" lengthAdjust="spacingAndGlyphs" textLength="83" x="388.5" y="25.457">MemberWidget</text><a xlink:href="https://world.mendix.com/display/refguide6/Reference+Selector" xlink:title="https://world.mendix.com/display/refguide6/Reference+Selector"><rect fill="#CFECFE" filter="url(#f1)" height="25.0938" style="stroke: #000000; stroke-width: 1.5;" width="114" x="373" y="197"/><text fill="#000000" font-family="sans-serif" font-size="12" lengthAdjust="spacingAndGlyphs" textLength="102" x="379" y="214.457">ReferenceSelector</text></a><a xlink:href="https://world.mendix.com/display/refguide6/Input+Reference+Set+Selector" xlink:title="https://world.mendix.com/display/refguide6/Input+Reference+Set+Selector"><rect fill="#CFECFE" filter="url(#f1)" height="25.0938" style="stroke: #000000; stroke-width: 1.5;" width="159" x="593.5" y="197"/><text fill="#000000" font-family="sans-serif" font-size="12" lengthAdjust="spacingAndGlyphs" textLength="147" x="599.5" y="214.457">InputReferenceSetSelector</text></a><rect fill="#CFECFE" filter="url(#f1)" height="25.0938" style="stroke: #000000; stroke-width: 1.5;" width="147" x="169.5" y="300"/><text fill="#000000" font-family="sans-serif" font-size="12" lengthAdjust="spacingAndGlyphs" textLength="135" x="175.5" y="317.457">SelectorMicroflowSource</text><rect fill="#CFECFE" filter="url(#f1)" height="25.0938" style="stroke: #000000; stroke-width: 1.5;" width="128" x="6" y="300"/><text fill="#000000" font-family="sans-serif" font-size="12" lengthAdjust="spacingAndGlyphs" textLength="116" x="12" y="317.457">SelectorXPathSource</text><path d="M360.113,111.801 C270.571,118.02 124.833,130.804 108,149 C99.519,158.168 98.3711,171.925 99.5256,183.902 " fill="none" style="stroke: #000000; stroke-width: 1.0;"/><polygon fill="#000000" points="101.6369,196.763,104.1263,187.2339,100.827,191.829,96.2319,188.5298,101.6369,196.763" style="stroke: #000000; stroke-width: 1.0;"/><line style="stroke: #000000; stroke-width: 1.0;" x1="100.827" x2="99.5308" y1="191.829" y2="183.935"/><polygon fill="#000000" points="373.164,110.914,366.9062,107.3307,361.1917,111.7289,367.4495,115.3122,373.164,110.914" style="stroke: #000000; stroke-width: 1.0;"/><text fill="#000000" font-family="sans-serif" font-size="13" lengthAdjust="spacingAndGlyphs" textLength="87" x="109" y="163.4951">selectorSource</text><path d="M360.763,120.638 C318.008,132.709 266.43,155.334 240,197 C210.406,243.653 283.489,277.762 339.097,296.098 " fill="none" style="stroke: #000000; stroke-width: 1.0;"/><polygon fill="#000000" points="351.716,300.094,344.3441,293.5629,346.9494,298.5841,341.9282,301.1894,351.716,300.094" style="stroke: #000000; stroke-width: 1.0;"/><line style="stroke: #000000; stroke-width: 1.0;" x1="346.9494" x2="339.323" y1="298.5841" y2="296.1695"/><polygon fill="#000000" points="373.421,117.292,366.5979,114.9584,361.8196,120.3592,368.6427,122.6927,373.421,117.292" style="stroke: #000000; stroke-width: 1.0;"/><text fill="#000000" font-family="sans-serif" font-size="13" lengthAdjust="spacingAndGlyphs" textLength="113" x="241" y="214.9951">selectPageSettings</text><path d="M453.733,128.449 C470.908,145.15 492.965,170.126 504,197 C533.806,269.588 561.688,307.817 518,373 C509.714,385.3623 497.013,394.0453 483.382,400.1429 " fill="none" style="stroke: #000000; stroke-width: 1.0;"/><polygon fill="#000000" points="471.253,404.8634,481.091,405.3263,475.9125,403.0497,478.1891,397.8712,471.253,404.8634" style="stroke: #000000; stroke-width: 1.0;"/><line style="stroke: #000000; stroke-width: 1.0;" x1="475.9125" x2="483.3675" y1="403.0497" y2="400.1485"/><polygon fill="#000000" points="443.812,119.177,445.465,126.1961,452.5799,127.3699,450.9269,120.3508,443.812,119.177" style="stroke: #000000; stroke-width: 1.0;"/><text fill="#000000" font-family="sans-serif" font-size="13" lengthAdjust="spacingAndGlyphs" textLength="160" x="535" y="266.4951">onChangeMicroflowSettings</text><path d="M430,53.183 C430,67.456 430,83.422 430,93.919 " fill="none" style="stroke: #000000; stroke-width: 1.0;"/><polygon fill="none" points="423,53.18,430,33.18,437,53.18,423,53.18" style="stroke: #000000; stroke-width: 1.0;"/><path d="M405.473,231.326 C399.999,237.376 394.947,244.417 392,252 C387.779,262.859 387.854,275.681 389.261,286.637 " fill="none" style="stroke: #000000; stroke-width: 1.0;"/><polygon fill="#000000" points="391.628,299.642,393.9513,290.0711,390.7324,294.7229,386.0806,291.504,391.628,299.642" style="stroke: #000000; stroke-width: 1.0;"/><line style="stroke: #000000; stroke-width: 1.0;" x1="390.7324" x2="389.2995" y1="294.7229" y2="286.852"/><polygon fill="#000000" points="414.789,222.161,407.7066,223.5175,406.2348,230.5768,413.3171,229.2203,414.789,222.161" style="stroke: #000000; stroke-width: 1.0;"/><text fill="#000000" font-family="sans-serif" font-size="13" lengthAdjust="spacingAndGlyphs" textLength="103" x="393" y="266.4951">gotoPageSettings</text><path d="M430,139.18 C430,158.752 430,182.726 430,196.738 " fill="none" style="stroke: #000000; stroke-width: 1.0;"/><polygon fill="none" points="423,139.086,430,119.086,437,139.086,423,139.086" style="stroke: #000000; stroke-width: 1.0;"/><path d="M495.945,124.575 C518.527,131.22 543.709,139.527 566,149 C598.669,162.883 634.249,183.973 655.04,196.96 " fill="none" style="stroke: #000000; stroke-width: 1.0;"/><polygon fill="none" points="493.837,131.254,476.503,119.067,497.654,117.784,493.837,131.254" style="stroke: #000000; stroke-width: 1.0;"/><path d="M273.89,331.8639 C293.848,343.688 320.405,359.3442 344,373 C357.386,380.7475 372.215,389.2011 384.992,396.4449 " fill="none" style="stroke: #000000; stroke-width: 1.0;"/><polygon fill="#000000" points="396.499,402.9568,390.6364,395.0429,392.1475,400.4942,386.6962,402.0053,396.499,402.9568" style="stroke: #000000; stroke-width: 1.0;"/><line style="stroke: #000000; stroke-width: 1.0;" x1="392.1475" x2="385.185" y1="400.4942" y2="396.554"/><polygon fill="#000000" points="262.688,325.219,265.8076,331.7204,273.0087,331.3413,269.8891,324.8399,262.688,325.219" style="stroke: #000000; stroke-width: 1.0;"/><text fill="#000000" font-family="sans-serif" font-size="13" lengthAdjust="spacingAndGlyphs" textLength="168" x="345" y="369.4951">dataSourceMicroflowSettings</text><path d="M137.364,234.187 C165.499,254.778 205.078,283.746 226.929,299.738 " fill="none" style="stroke: #000000; stroke-width: 1.0;"/><polygon fill="none" points="132.835,239.547,120.83,222.086,141.104,228.249,132.835,239.547" style="stroke: #000000; stroke-width: 1.0;"/><path d="M94.3524,241.226 C87.5112,260.968 79.0109,285.497 74.0759,299.738 " fill="none" style="stroke: #000000; stroke-width: 1.0;"/><polygon fill="none" points="87.8222,238.691,100.9851,222.086,101.0505,243.276,87.8222,238.691" style="stroke: #000000; stroke-width: 1.0;"/></g></svg>