<?xml version="1.0" encoding="UTF-8" standalone="yes"?><svg xmlns="http://www.w3.org/2000/svg" xmlns:xlink="http://www.w3.org/1999/xlink" height="248px" style="width:494px;height:248px;" version="1.1" viewBox="0 0 494 248" width="494px"><defs><filter height="300%" id="f1" width="300%" x="-1" y="-1"><feGaussianBlur result="blurOut" stdDeviation="2.0"/><feColorMatrix in="blurOut" result="blurOut2" type="matrix" values="0 0 0 0 0 0 0 0 0 0 0 0 0 0 0 0 0 0 .4 0"/><feOffset dx="4.0" dy="4.0" in="blurOut2" result="blurOut3"/><feBlend in="SourceGraphic" in2="blurOut3" mode="normal"/></filter></defs><g><a xlink:href="https://world.mendix.com/display/refguide6/Button+Widgets" xlink:title="https://world.mendix.com/display/refguide6/Button+Widgets"><rect fill="#D3D3D3" filter="url(#f1)" height="25.0938" style="stroke: #000000; stroke-width: 1.5;" width="47" x="253.5" y="8"/><text fill="#000000" font-family="sans-serif" font-size="12" font-style="italic" lengthAdjust="spacingAndGlyphs" textLength="35" x="259.5" y="25.457">Button</text></a><rect fill="#CFECFE" filter="url(#f1)" height="25.0938" style="stroke: #000000; stroke-width: 1.5;" width="96" x="111" y="111"/><text fill="#000000" font-family="sans-serif" font-size="12" lengthAdjust="spacingAndGlyphs" textLength="84" x="117" y="128.457">ClientTemplate</text><rect fill="#CFECFE" filter="url(#f1)" height="25.0938" style="stroke: #000000; stroke-width: 1.5;" width="34" x="227" y="214"/><text fill="#000000" font-family="sans-serif" font-size="12" lengthAdjust="spacingAndGlyphs" textLength="22" x="233" y="231.457">Text</text><a xlink:href="https://world.mendix.com/display/refguide6/Image+Property" xlink:title="https://world.mendix.com/display/refguide6/Image+Property"><rect fill="#D3D3D3" filter="url(#f1)" height="25.0938" style="stroke: #000000; stroke-width: 1.5;" width="36" x="349" y="111"/><text fill="#000000" font-family="sans-serif" font-size="12" font-style="italic" lengthAdjust="spacingAndGlyphs" textLength="24" x="355" y="128.457">Icon</text></a><rect fill="#CFECFE" filter="url(#f1)" height="25.0938" style="stroke: #000000; stroke-width: 1.5;" width="154" x="6" y="214"/><text fill="#000000" font-family="sans-serif" font-size="12" lengthAdjust="spacingAndGlyphs" textLength="142" x="12" y="231.457">ClientTemplateParameter</text><a xlink:href="https://world.mendix.com/display/refguide6/Image+Property" xlink:title="https://world.mendix.com/display/refguide6/Image+Property"><rect fill="#CFECFE" filter="url(#f1)" height="25.0938" style="stroke: #000000; stroke-width: 1.5;" width="66" x="419" y="214"/><text fill="#000000" font-family="sans-serif" font-size="12" lengthAdjust="spacingAndGlyphs" textLength="54" x="425" y="231.457">GlyphIcon</text></a><a xlink:href="https://world.mendix.com/display/refguide6/Image+Property" xlink:title="https://world.mendix.com/display/refguide6/Image+Property"><rect fill="#CFECFE" filter="url(#f1)" height="25.0938" style="stroke: #000000; stroke-width: 1.5;" width="70" x="314" y="214"/><text fill="#000000" font-family="sans-serif" font-size="12" lengthAdjust="spacingAndGlyphs" textLength="58" x="320" y="231.457">ImageIcon</text></a><path d="M241.605,39.214 C229.979,45.862 217.385,54.009 207,63 C194.507,73.815 182.813,88.184 174.095,100.091 " fill="none" style="stroke: #000000; stroke-width: 1.0;"/><polygon fill="#000000" points="166.45,110.956,174.8999,105.8965,169.3269,106.8665,168.3568,101.2935,166.45,110.956" style="stroke: #000000; stroke-width: 1.0;"/><line style="stroke: #000000; stroke-width: 1.0;" x1="169.3269" x2="173.9315" y1="106.8665" y2="100.324"/><polygon fill="#000000" points="253.238,32.856,246.0547,32.2235,242.708,38.6109,249.8913,39.2435,253.238,32.856" style="stroke: #000000; stroke-width: 1.0;"/><text fill="#000000" font-family="sans-serif" font-size="13" lengthAdjust="spacingAndGlyphs" textLength="42" x="208" y="77.4951">caption</text><path d="M274.629,46.149 C271.333,78.126 264.661,135.554 255,184 C253.884,189.5965 252.452,195.5574 250.992,201.1642 " fill="none" style="stroke: #000000; stroke-width: 1.0;"/><polygon fill="#000000" points="247.472,213.963,253.7156,206.3461,248.798,209.142,246.0021,204.2245,247.472,213.963" style="stroke: #000000; stroke-width: 1.0;"/><line style="stroke: #000000; stroke-width: 1.0;" x1="248.798" x2="250.919" y1="209.142" y2="201.4285"/><polygon fill="#000000" points="275.94,33.008,271.3637,38.581,274.7479,44.9486,279.3242,39.3757,275.94,33.008" style="stroke: #000000; stroke-width: 1.0;"/><text fill="#000000" font-family="sans-serif" font-size="13" lengthAdjust="spacingAndGlyphs" textLength="35" x="267" y="128.9951">tooltip</text><path d="M296.044,42.871 C311.161,59.836 332.216,83.465 347.461,100.573 " fill="none" style="stroke: #000000; stroke-width: 1.0;"/><polygon fill="#000000" points="356.519,110.738,353.5179,101.3575,353.1926,107.005,347.5451,106.6797,356.519,110.738" style="stroke: #000000; stroke-width: 1.0;"/><line style="stroke: #000000; stroke-width: 1.0;" x1="353.1926" x2="347.87" y1="107.005" y2="101.032"/><polygon fill="#000000" points="287.324,33.086,288.3293,40.2267,295.3073,42.0452,294.302,34.9045,287.324,33.086" style="stroke: #000000; stroke-width: 1.0;"/><text fill="#000000" font-family="sans-serif" font-size="13" lengthAdjust="spacingAndGlyphs" textLength="24" x="328" y="77.4951">icon</text><path d="M172.561,147.3103 C179.812,158.7786 189.241,172.6202 199,184 C205.321,191.3717 212.863,198.7681 219.949,205.2325 " fill="none" style="stroke: #000000; stroke-width: 1.0;"/><polygon fill="#000000" points="229.809,213.9251,225.7033,204.9728,226.0585,210.6185,220.4128,210.9737,229.809,213.9251" style="stroke: #000000; stroke-width: 1.0;"/><line style="stroke: #000000; stroke-width: 1.0;" x1="226.0585" x2="220.057" y1="210.6185" y2="205.3279"/><polygon fill="#000000" points="165.636,136.026,165.365,143.232,171.9124,146.2537,172.1835,139.0477,165.636,136.026" style="stroke: #000000; stroke-width: 1.0;"/><text fill="#000000" font-family="sans-serif" font-size="13" lengthAdjust="spacingAndGlyphs" textLength="50" x="200" y="180.4951">template</text><path d="M106.197,142.0163 C95.7787,147.9643 86.1708,155.7879 80,166 C73.8317,176.2078 73.829,189.2919 75.689,200.59 " fill="none" style="stroke: #000000; stroke-width: 1.0;"/><polygon fill="#000000" points="78.7172,213.5948,80.5719,203.9221,77.5832,208.7251,72.7803,205.7365,78.7172,213.5948" style="stroke: #000000; stroke-width: 1.0;"/><line style="stroke: #000000; stroke-width: 1.0;" x1="77.5832" x2="75.7689" y1="208.7251" y2="200.9335"/><polygon fill="#000000" points="118.164,136.07,111.0108,135.1577,107.4175,141.4098,114.5707,142.322,118.164,136.07" style="stroke: #000000; stroke-width: 1.0;"/><text fill="#000000" font-family="sans-serif" font-size="13" lengthAdjust="spacingAndGlyphs" textLength="77" x="81" y="180.4951">parameters[ ]</text><path d="M389.713,151.4886 C406.788,171.7771 429.347,198.5832 442.101,213.738 " fill="none" style="stroke: #000000; stroke-width: 1.0;"/><polygon fill="none" points="384.273,155.8955,376.751,136.086,394.984,146.8808,384.273,155.8955" style="stroke: #000000; stroke-width: 1.0;"/><path d="M361.411,155.8611 C357.912,175.4911 353.607,199.6494 351.096,213.738 " fill="none" style="stroke: #000000; stroke-width: 1.0;"/><polygon fill="none" points="354.535,154.5475,364.935,136.086,368.317,157.0039,354.535,154.5475" style="stroke: #000000; stroke-width: 1.0;"/></g></svg>