<?xml version="1.0" encoding="UTF-8" standalone="yes"?><svg xmlns="http://www.w3.org/2000/svg" xmlns:xlink="http://www.w3.org/1999/xlink" height="351px" style="width:842px;height:351px;" version="1.1" viewBox="0 0 842 351" width="842px"><defs><filter height="300%" id="f1" width="300%" x="-1" y="-1"><feGaussianBlur result="blurOut" stdDeviation="2.0"/><feColorMatrix in="blurOut" result="blurOut2" type="matrix" values="0 0 0 0 0 0 0 0 0 0 0 0 0 0 0 0 0 0 .4 0"/><feOffset dx="4.0" dy="4.0" in="blurOut2" result="blurOut3"/><feBlend in="SourceGraphic" in2="blurOut3" mode="normal"/></filter></defs><g><a xlink:href="https://world.mendix.com/display/refguide6/Validation+Rules" xlink:title="https://world.mendix.com/display/refguide6/Validation+Rules"><rect fill="#CFECFE" filter="url(#f1)" height="25.0938" style="stroke: #000000; stroke-width: 1.5;" width="92" x="107.421" y="8"/><text fill="#000000" font-family="sans-serif" font-size="12" lengthAdjust="spacingAndGlyphs" textLength="80" x="113.421" y="25.457">ValidationRule</text></a><rect fill="#CFECFE" filter="url(#f1)" height="25.0938" style="stroke: #000000; stroke-width: 1.5;" width="56" x="138.421" y="317"/><text fill="#000000" font-family="sans-serif" font-size="12" lengthAdjust="spacingAndGlyphs" textLength="44" x="144.421" y="334.457">Attribute</text><rect fill="#CFECFE" filter="url(#f1)" height="25.0938" style="stroke: #000000; stroke-width: 1.5;" width="34" x="136.421" y="111"/><text fill="#000000" font-family="sans-serif" font-size="12" lengthAdjust="spacingAndGlyphs" textLength="22" x="142.421" y="128.457">Text</text><a xlink:href="https://world.mendix.com/display/refguide6/Validation+Rules" xlink:title="https://world.mendix.com/display/refguide6/Validation+Rules"><rect fill="#D3D3D3" filter="url(#f1)" height="25.0938" style="stroke: #000000; stroke-width: 1.5;" width="59" x="348.921" y="111"/><text fill="#000000" font-family="sans-serif" font-size="12" font-style="italic" lengthAdjust="spacingAndGlyphs" textLength="47" x="354.921" y="128.457">RuleInfo</text></a><a xlink:href="https://world.mendix.com/display/refguide6/Validation+Rules" xlink:title="https://world.mendix.com/display/refguide6/Validation+Rules"><rect fill="#CFECFE" filter="url(#f1)" height="25.0938" style="stroke: #000000; stroke-width: 1.5;" width="111" x="32.9213" y="214"/><text fill="#000000" font-family="sans-serif" font-size="12" lengthAdjust="spacingAndGlyphs" textLength="99" x="38.9213" y="231.457">EqualsToRuleInfo</text></a><a xlink:href="https://world.mendix.com/display/refguide6/Validation+Rules" xlink:title="https://world.mendix.com/display/refguide6/Validation+Rules"><rect fill="#CFECFE" filter="url(#f1)" height="25.0938" style="stroke: #000000; stroke-width: 1.5;" width="117" x="178.921" y="214"/><text fill="#000000" font-family="sans-serif" font-size="12" lengthAdjust="spacingAndGlyphs" textLength="105" x="184.921" y="231.457">MaxLengthRuleInfo</text></a><a xlink:href="https://world.mendix.com/display/refguide6/Validation+Rules" xlink:title="https://world.mendix.com/display/refguide6/Validation+Rules"><rect fill="#CFECFE" filter="url(#f1)" height="25.0938" style="stroke: #000000; stroke-width: 1.5;" width="95" x="330.921" y="214"/><text fill="#000000" font-family="sans-serif" font-size="12" lengthAdjust="spacingAndGlyphs" textLength="83" x="336.921" y="231.457">RangeRuleInfo</text></a><a xlink:href="https://world.mendix.com/display/refguide6/Validation+Rules" xlink:title="https://world.mendix.com/display/refguide6/Validation+Rules"><rect fill="#CFECFE" filter="url(#f1)" height="25.0938" style="stroke: #000000; stroke-width: 1.5;" width="94" x="461.421" y="214"/><text fill="#000000" font-family="sans-serif" font-size="12" lengthAdjust="spacingAndGlyphs" textLength="82" x="467.421" y="231.457">RegExRuleInfo</text></a><rect fill="#CFECFE" filter="url(#f1)" height="25.0938" style="stroke: #000000; stroke-width: 1.5;" width="118" x="449.421" y="317"/><text fill="#000000" font-family="sans-serif" font-size="12" lengthAdjust="spacingAndGlyphs" textLength="106" x="455.421" y="334.457">RegularExpression</text><a xlink:href="https://world.mendix.com/display/refguide6/Validation+Rules" xlink:title="https://world.mendix.com/display/refguide6/Validation+Rules"><rect fill="#CFECFE" filter="url(#f1)" height="25.0938" style="stroke: #000000; stroke-width: 1.5;" width="109" x="590.921" y="214"/><text fill="#000000" font-family="sans-serif" font-size="12" lengthAdjust="spacingAndGlyphs" textLength="97" x="596.921" y="231.457">RequiredRuleInfo</text></a><a xlink:href="https://world.mendix.com/display/refguide6/Validation+Rules" xlink:title="https://world.mendix.com/display/refguide6/Validation+Rules"><rect fill="#CFECFE" filter="url(#f1)" height="25.0938" style="stroke: #000000; stroke-width: 1.5;" width="98" x="735.421" y="214"/><text fill="#000000" font-family="sans-serif" font-size="12" lengthAdjust="spacingAndGlyphs" textLength="86" x="741.421" y="231.457">UniqueRuleInfo</text></a><path d="M135.937,33.042 C90.2448,64.716 -26.385,156.158 15.4213,239 C38.4814,284.6952 96.281,308.9557 133.309,320.238 " fill="none" style="stroke: #000000; stroke-width: 1.0;"/><polygon fill="#000000" points="138.166,321.6799,130.6764,315.2841,133.3727,320.257,128.3998,322.9534,138.166,321.6799" style="stroke: #000000; stroke-width: 1.0;"/><text fill="#000000" font-family="sans-serif" font-size="13" lengthAdjust="spacingAndGlyphs" textLength="47" x="14.4213" y="180.4951">attribute</text><path d="M153.421,46.373 C153.421,61.911 153.421,81.854 153.421,97.429 " fill="none" style="stroke: #000000; stroke-width: 1.0;"/><polygon fill="#000000" points="153.421,110.738,157.421,101.738,153.421,105.738,149.421,101.738,153.421,110.738" style="stroke: #000000; stroke-width: 1.0;"/><line style="stroke: #000000; stroke-width: 1.0;" x1="153.421" x2="153.421" y1="105.738" y2="97.738"/><polygon fill="#000000" points="153.421,33.086,149.421,39.086,153.421,45.086,157.421,39.086,153.421,33.086" style="stroke: #000000; stroke-width: 1.0;"/><text fill="#000000" font-family="sans-serif" font-size="13" lengthAdjust="spacingAndGlyphs" textLength="79" x="154.421" y="77.4951">errorMessage</text><path d="M191.299,38.503 C232.81,57.137 299.012,86.854 340.529,105.49 " fill="none" style="stroke: #000000; stroke-width: 1.0;"/><polygon fill="#000000" points="352.566,110.894,345.9936,103.5589,348.0046,108.8462,342.7172,110.8572,352.566,110.894" style="stroke: #000000; stroke-width: 1.0;"/><line style="stroke: #000000; stroke-width: 1.0;" x1="348.0046" x2="340.7065" y1="108.8462" y2="105.57"/><polygon fill="#000000" points="179.232,33.086,183.0675,39.1925,190.1794,38.0006,186.3439,31.8942,179.232,33.086" style="stroke: #000000; stroke-width: 1.0;"/><text fill="#000000" font-family="sans-serif" font-size="13" lengthAdjust="spacingAndGlyphs" textLength="41" x="280.421" y="77.4951">ruleInfo</text><path d="M86.6536,239.026 C85.3163,251.8074 85.06,272.5295 94.4213,287 C103.504,301.0398 119.12,310.8731 133.492,317.4311 " fill="none" style="stroke: #000000; stroke-width: 1.0;"/><polygon fill="#000000" points="138.307,319.5309,131.6561,312.2669,133.7238,317.5323,128.4584,319.6,138.307,319.5309" style="stroke: #000000; stroke-width: 1.0;"/><text fill="#000000" font-family="sans-serif" font-size="13" lengthAdjust="spacingAndGlyphs" textLength="101" x="95.4213" y="283.4951">equalsToAttribute</text><path d="M329.634,141.492 C270.628,162.042 172.885,196.083 121.822,213.867 " fill="none" style="stroke: #000000; stroke-width: 1.0;"/><polygon fill="none" points="327.559,134.802,348.749,134.834,332.164,148.023,327.559,134.802" style="stroke: #000000; stroke-width: 1.0;"/><path d="M345.763,147.893 C316.993,168.502 276.274,197.669 253.842,213.738 " fill="none" style="stroke: #000000; stroke-width: 1.0;"/><polygon fill="none" points="341.911,142.042,362.247,136.086,350.064,153.423,341.911,142.042" style="stroke: #000000; stroke-width: 1.0;"/><path d="M330.8,238.336 C305.007,245.2132 273.059,255.4004 246.421,269 C222.748,281.0864 198.69,300.0822 183.227,313.3492 " fill="none" style="stroke: #000000; stroke-width: 1.0;"/><polygon fill="#000000" points="179.101,316.9287,188.5209,314.0536,182.8782,313.6527,183.2792,308.01,179.101,316.9287" style="stroke: #000000; stroke-width: 1.0;"/><text fill="#000000" font-family="sans-serif" font-size="13" lengthAdjust="spacingAndGlyphs" textLength="70" x="247.421" y="283.4951">minAttribute</text><path d="M370.374,239.431 C360.61,252.982 342.888,274.7913 322.421,287 C283.925,309.9631 232.638,320.432 199.57,325.0552 " fill="none" style="stroke: #000000; stroke-width: 1.0;"/><polygon fill="#000000" points="194.424,325.7481,203.8772,328.5115,199.3793,325.081,202.8098,320.583,194.424,325.7481" style="stroke: #000000; stroke-width: 1.0;"/><text fill="#000000" font-family="sans-serif" font-size="13" lengthAdjust="spacingAndGlyphs" textLength="74" x="346.421" y="283.4951">maxAttribute</text><path d="M378.421,156.18 C378.421,175.752 378.421,199.726 378.421,213.738 " fill="none" style="stroke: #000000; stroke-width: 1.0;"/><polygon fill="none" points="371.421,156.086,378.421,136.086,385.421,156.086,371.421,156.086" style="stroke: #000000; stroke-width: 1.0;"/><path d="M508.421,239.086 C508.421,256.8752 508.421,291.011 508.421,311.5724 " fill="none" style="stroke: #000000; stroke-width: 1.0;"/><polygon fill="#000000" points="508.421,316.738,512.421,307.738,508.421,311.738,504.421,307.738,508.421,316.738" style="stroke: #000000; stroke-width: 1.0;"/><text fill="#000000" font-family="sans-serif" font-size="13" lengthAdjust="spacingAndGlyphs" textLength="104" x="509.421" y="283.4951">regularExpression</text><path d="M409.289,148.482 C435.768,169.054 472.796,197.822 493.282,213.738 " fill="none" style="stroke: #000000; stroke-width: 1.0;"/><polygon fill="none" points="404.833,153.884,393.334,136.086,413.422,142.829,404.833,153.884" style="stroke: #000000; stroke-width: 1.0;"/><path d="M426.893,142.836 C481.597,163.529 568.927,196.564 614.874,213.945 " fill="none" style="stroke: #000000; stroke-width: 1.0;"/><polygon fill="none" points="424.245,149.318,408.015,135.695,429.198,136.224,424.245,149.318" style="stroke: #000000; stroke-width: 1.0;"/><path d="M427.431,136.692 C506.421,156.342 660.823,194.753 738.077,213.971 " fill="none" style="stroke: #000000; stroke-width: 1.0;"/><polygon fill="none" points="425.665,143.466,407.947,131.845,429.045,129.88,425.665,143.466" style="stroke: #000000; stroke-width: 1.0;"/></g></svg>