<?xml version="1.0" encoding="UTF-8" standalone="yes"?><svg xmlns="http://www.w3.org/2000/svg" xmlns:xlink="http://www.w3.org/1999/xlink" height="231px" style="width:276px;height:231px;" version="1.1" viewBox="0 0 276 231" width="276px"><defs><filter height="300%" id="f1" width="300%" x="-1" y="-1"><feGaussianBlur result="blurOut" stdDeviation="2.0"/><feColorMatrix in="blurOut" result="blurOut2" type="matrix" values="0 0 0 0 0 0 0 0 0 0 0 0 0 0 0 0 0 0 .4 0"/><feOffset dx="4.0" dy="4.0" in="blurOut2" result="blurOut3"/><feBlend in="SourceGraphic" in2="blurOut3" mode="normal"/></filter></defs><g><a xlink:href="https://world.mendix.com/display/refguide6/Entities" xlink:title="https://world.mendix.com/display/refguide6/Entities"><rect fill="#CFECFE" filter="url(#f1)" height="25.0938" style="stroke: #000000; stroke-width: 1.5;" width="41" x="118" y="8"/><text fill="#000000" font-family="sans-serif" font-size="12" lengthAdjust="spacingAndGlyphs" textLength="29" x="124" y="25.457">Entity</text></a><rect fill="#D3D3D3" filter="url(#f1)" height="25.0938" style="stroke: #000000; stroke-width: 1.5;" width="121" x="6" y="111"/><text fill="#000000" font-family="sans-serif" font-size="12" font-style="italic" lengthAdjust="spacingAndGlyphs" textLength="109" x="12" y="128.457">GeneralizationBase</text><rect fill="#CFECFE" filter="url(#f1)" height="25.0938" style="stroke: #000000; stroke-width: 1.5;" width="91" x="152" y="197"/><text fill="#000000" font-family="sans-serif" font-size="12" lengthAdjust="spacingAndGlyphs" textLength="79" x="158" y="214.457">Generalization</text><rect fill="#CFECFE" filter="url(#f1)" height="25.0938" style="stroke: #000000; stroke-width: 1.5;" width="107" x="10" y="197"/><text fill="#000000" font-family="sans-serif" font-size="12" lengthAdjust="spacingAndGlyphs" textLength="95" x="16" y="214.457">NoGeneralization</text><path d="M110.33,41.256 C102.8172,47.545 95.2111,54.974 89.5,63 C82.0135,73.521 76.5754,86.8 72.8729,98.143 " fill="none" style="stroke: #000000; stroke-width: 1.0;"/><polygon fill="#000000" points="69.1963,110.703,75.5632,103.1889,70.6007,105.9043,67.8853,100.9418,69.1963,110.703" style="stroke: #000000; stroke-width: 1.0;"/><line style="stroke: #000000; stroke-width: 1.0;" x1="70.6007" x2="72.8485" y1="105.9043" y2="98.227"/><polygon fill="#000000" points="120.681,33.182,113.4898,33.718,111.2188,40.5622,118.4099,40.0261,120.681,33.182" style="stroke: #000000; stroke-width: 1.0;"/><text fill="#000000" font-family="sans-serif" font-size="13" lengthAdjust="spacingAndGlyphs" textLength="80" x="90.5" y="77.4951">generalization</text><path d="M197.928,196.9163 C198.418,171.4121 197.113,109.017 175.5,63 C170.93,53.269 163.333,44.15 156.208,36.953 " fill="none" style="stroke: #000000; stroke-width: 1.0;"/><polygon fill="#000000" points="152.32,33.16,155.9685,42.3081,155.8988,36.6517,161.5552,36.582,152.32,33.16" style="stroke: #000000; stroke-width: 1.0;"/><text fill="#000000" font-family="sans-serif" font-size="13" lengthAdjust="spacingAndGlyphs" textLength="80" x="195.5" y="128.9951">generalization</text><path d="M101.4122,146.8865 C126.494,162.9695 159.293,184.0008 179.356,196.8657 " fill="none" style="stroke: #000000; stroke-width: 1.0;"/><polygon fill="none" points="97.4979,152.6921,84.4403,136.0037,105.0549,140.9068,97.4979,152.6921" style="stroke: #000000; stroke-width: 1.0;"/><path d="M65.3685,156.1834 C64.8587,170.4555 64.2885,186.4219 63.9136,196.9194 " fill="none" style="stroke: #000000; stroke-width: 1.0;"/><polygon fill="none" points="58.3734,155.9172,66.0829,136.1798,72.3645,156.417,58.3734,155.9172" style="stroke: #000000; stroke-width: 1.0;"/></g></svg>