<?xml version="1.0" encoding="UTF-8" standalone="yes"?><svg xmlns="http://www.w3.org/2000/svg" xmlns:xlink="http://www.w3.org/1999/xlink" height="351px" style="width:161px;height:351px;" version="1.1" viewBox="0 0 161 351" width="161px"><defs><filter height="300%" id="f1" width="300%" x="-1" y="-1"><feGaussianBlur result="blurOut" stdDeviation="2.0"/><feColorMatrix in="blurOut" result="blurOut2" type="matrix" values="0 0 0 0 0 0 0 0 0 0 0 0 0 0 0 0 0 0 .4 0"/><feOffset dx="4.0" dy="4.0" in="blurOut2" result="blurOut3"/><feBlend in="SourceGraphic" in2="blurOut3" mode="normal"/></filter></defs><g><a xlink:href="https://world.mendix.com/display/refguide6/Entities" xlink:title="https://world.mendix.com/display/refguide6/Entities"><rect fill="#CFECFE" filter="url(#f1)" height="25.0938" style="stroke: #000000; stroke-width: 1.5;" width="41" x="6.5" y="8"/><text fill="#000000" font-family="sans-serif" font-size="12" lengthAdjust="spacingAndGlyphs" textLength="29" x="12.5" y="25.457">Entity</text></a><a xlink:href="https://world.mendix.com/display/refguide6/Attributes" xlink:title="https://world.mendix.com/display/refguide6/Attributes"><rect fill="#CFECFE" filter="url(#f1)" height="25.0938" style="stroke: #000000; stroke-width: 1.5;" width="56" x="6" y="317"/><text fill="#000000" font-family="sans-serif" font-size="12" lengthAdjust="spacingAndGlyphs" textLength="44" x="12" y="334.457">Attribute</text></a><a xlink:href="https://world.mendix.com/display/refguide6/Indexes" xlink:title="https://world.mendix.com/display/refguide6/Indexes"><rect fill="#CFECFE" filter="url(#f1)" height="25.0938" style="stroke: #000000; stroke-width: 1.5;" width="41" x="64.5" y="111"/><text fill="#000000" font-family="sans-serif" font-size="12" lengthAdjust="spacingAndGlyphs" textLength="29" x="70.5" y="128.457">Index</text></a><rect fill="#CFECFE" filter="url(#f1)" height="25.0938" style="stroke: #000000; stroke-width: 1.5;" width="99" x="49.5" y="214"/><text fill="#000000" font-family="sans-serif" font-size="12" lengthAdjust="spacingAndGlyphs" textLength="87" x="55.5" y="231.457">IndexedAttribute</text><path d="M23.3002,46.462 C19.035,78.357 12.9768,135.273 16,184 C18.6263,226.329 25.5401,275.2329 29.9945,303.9176 " fill="none" style="stroke: #000000; stroke-width: 1.0;"/><polygon fill="#000000" points="32.0639,316.9328,34.601,307.4163,31.2787,311.9948,26.7002,308.6726,32.0639,316.9328" style="stroke: #000000; stroke-width: 1.0;"/><line style="stroke: #000000; stroke-width: 1.0;" x1="31.2787" x2="30.0225" y1="311.9948" y2="304.0941"/><polygon fill="#000000" points="25.1485,33.323,20.3515,38.7071,23.4764,45.2059,28.2734,39.8218,25.1485,33.323" style="stroke: #000000; stroke-width: 1.0;"/><text fill="#000000" font-family="sans-serif" font-size="13" lengthAdjust="spacingAndGlyphs" textLength="66" x="17" y="180.4951">attributes[ ]</text><path d="M40.2659,44.601 C49.7037,61.036 62.3301,83.023 71.7617,99.447 " fill="none" style="stroke: #000000; stroke-width: 1.0;"/><polygon fill="#000000" points="78.2456,110.738,77.2331,100.9413,75.756,106.4019,70.2954,104.9248,78.2456,110.738" style="stroke: #000000; stroke-width: 1.0;"/><line style="stroke: #000000; stroke-width: 1.0;" x1="75.756" x2="71.7717" y1="106.4019" y2="99.4645"/><polygon fill="#000000" points="33.6533,33.086,33.172,40.281,39.6285,43.4926,40.1097,36.2976,33.6533,33.086" style="stroke: #000000; stroke-width: 1.0;"/><text fill="#000000" font-family="sans-serif" font-size="13" lengthAdjust="spacingAndGlyphs" textLength="57" x="61" y="77.4951">indexes[ ]</text><path d="M88.4064,149.075 C90.585,164.792 93.4008,185.106 95.5817,200.84 " fill="none" style="stroke: #000000; stroke-width: 1.0;"/><polygon fill="#000000" points="97.3696,213.738,100.0954,204.2739,96.6828,208.7854,92.1713,205.3728,97.3696,213.738" style="stroke: #000000; stroke-width: 1.0;"/><line style="stroke: #000000; stroke-width: 1.0;" x1="96.6828" x2="95.5846" y1="208.7854" y2="200.861"/><polygon fill="#000000" points="86.606,136.086,83.4681,142.5786,88.2543,147.9723,91.3923,141.4797,86.606,136.086" style="stroke: #000000; stroke-width: 1.0;"/><text fill="#000000" font-family="sans-serif" font-size="13" lengthAdjust="spacingAndGlyphs" textLength="66" x="94" y="180.4951">attributes[ ]</text><path d="M91.5437,239.086 C79.949,257.1023 57.564,291.8852 44.3915,312.3531 " fill="none" style="stroke: #000000; stroke-width: 1.0; stroke-dasharray: 7.0,7.0;"/><polygon fill="#000000" points="41.5696,316.738,49.8039,311.3347,44.2756,312.5335,43.0767,307.0051,41.5696,316.738" style="stroke: #000000; stroke-width: 1.0;"/><text fill="#000000" font-family="sans-serif" font-size="13" lengthAdjust="spacingAndGlyphs" textLength="47" x="72" y="283.4951">attribute</text></g></svg>