<?xml version="1.0" encoding="UTF-8" standalone="yes"?><svg xmlns="http://www.w3.org/2000/svg" xmlns:xlink="http://www.w3.org/1999/xlink" height="437px" style="width:736px;height:437px;" version="1.1" viewBox="0 0 736 437" width="736px"><defs><filter height="300%" id="f1" width="300%" x="-1" y="-1"><feGaussianBlur result="blurOut" stdDeviation="2.0"/><feColorMatrix in="blurOut" result="blurOut2" type="matrix" values="0 0 0 0 0 0 0 0 0 0 0 0 0 0 0 0 0 0 .4 0"/><feOffset dx="4.0" dy="4.0" in="blurOut2" result="blurOut3"/><feBlend in="SourceGraphic" in2="blurOut3" mode="normal"/></filter></defs><g><a xlink:href="https://world.mendix.com/display/refguide6/Entities" xlink:title="https://world.mendix.com/display/refguide6/Entities"><rect fill="#CFECFE" filter="url(#f1)" height="25.0938" style="stroke: #000000; stroke-width: 1.5;" width="41" x="304.5" y="8"/><text fill="#000000" font-family="sans-serif" font-size="12" lengthAdjust="spacingAndGlyphs" textLength="29" x="310.5" y="25.457">Entity</text></a><rect fill="#CFECFE" filter="url(#f1)" height="25.0938" style="stroke: #000000; stroke-width: 1.5;" width="56" x="120" y="317"/><text fill="#000000" font-family="sans-serif" font-size="12" lengthAdjust="spacingAndGlyphs" textLength="44" x="126" y="334.457">Attribute</text><a xlink:href="https://world.mendix.com/display/refguide6/Access+Rules" xlink:title="https://world.mendix.com/display/refguide6/Access+Rules"><rect fill="#CFECFE" filter="url(#f1)" height="25.0938" style="stroke: #000000; stroke-width: 1.5;" width="78" x="286" y="111"/><text fill="#000000" font-family="sans-serif" font-size="12" lengthAdjust="spacingAndGlyphs" textLength="66" x="292" y="128.457">AccessRule</text></a><rect fill="#CFECFE" filter="url(#f1)" height="25.0938" style="stroke: #000000; stroke-width: 1.5;" width="97" x="276.5" y="214"/><text fill="#000000" font-family="sans-serif" font-size="12" lengthAdjust="spacingAndGlyphs" textLength="85" x="282.5" y="231.457">MemberAccess</text><a xlink:href="https://world.mendix.com/display/refguide6/Associations" xlink:title="https://world.mendix.com/display/refguide6/Associations"><rect fill="#D3D3D3" filter="url(#f1)" height="25.0938" style="stroke: #000000; stroke-width: 1.5;" width="103" x="455.5" y="317"/><text fill="#000000" font-family="sans-serif" font-size="12" font-style="italic" lengthAdjust="spacingAndGlyphs" textLength="91" x="461.5" y="334.457">AssociationBase</text></a><a xlink:href="https://world.mendix.com/display/refguide6/Associations" xlink:title="https://world.mendix.com/display/refguide6/Associations"><rect fill="#CFECFE" filter="url(#f1)" height="25.0938" style="stroke: #000000; stroke-width: 1.5;" width="76" x="187" y="403"/><text fill="#000000" font-family="sans-serif" font-size="12" lengthAdjust="spacingAndGlyphs" textLength="64" x="193" y="420.457">Association</text></a><a xlink:href="https://world.mendix.com/display/refguide6/Associations" xlink:title="https://world.mendix.com/display/refguide6/Associations"><rect fill="#CFECFE" filter="url(#f1)" height="25.0938" style="stroke: #000000; stroke-width: 1.5;" width="110" x="516" y="403"/><text fill="#000000" font-family="sans-serif" font-size="12" lengthAdjust="spacingAndGlyphs" textLength="98" x="522" y="420.457">CrossAssociation</text></a><rect fill="#CFECFE" filter="url(#f1)" height="25.0938" style="stroke: #000000; stroke-width: 1.5;" width="78" x="157" y="214"/><text fill="#000000" font-family="sans-serif" font-size="12" lengthAdjust="spacingAndGlyphs" textLength="66" x="163" y="231.457">ModuleRole</text><rect fill="#CFECFE" filter="url(#f1)" height="25.0938" style="stroke: #000000; stroke-width: 1.5;" width="101" x="433.5" y="214"/><text fill="#000000" font-family="sans-serif" font-size="12" lengthAdjust="spacingAndGlyphs" textLength="89" x="439.5" y="231.457">XPathConstraint</text><path d="M292.367,35.102 C247.505,55.819 168.633,99.972 136,166 C113.846,210.824 128.004,271.215 138.893,304.31 " fill="none" style="stroke: #000000; stroke-width: 1.0;"/><polygon fill="#000000" points="143.244,316.697,144.0348,306.8799,141.5867,311.9796,136.487,309.5316,143.244,316.697" style="stroke: #000000; stroke-width: 1.0;"/><line style="stroke: #000000; stroke-width: 1.0;" x1="141.5867" x2="138.9355" y1="311.9796" y2="304.432"/><polygon fill="#000000" points="304.316,29.768,297.2067,28.5608,293.3579,34.6589,300.4673,35.8661,304.316,29.768" style="stroke: #000000; stroke-width: 1.0;"/><text fill="#000000" font-family="sans-serif" font-size="13" lengthAdjust="spacingAndGlyphs" textLength="66" x="137" y="180.4951">attributes[ ]</text><path d="M325,46.373 C325,61.911 325,81.854 325,97.429 " fill="none" style="stroke: #000000; stroke-width: 1.0;"/><polygon fill="#000000" points="325,110.738,329,101.738,325,105.738,321,101.738,325,110.738" style="stroke: #000000; stroke-width: 1.0;"/><line style="stroke: #000000; stroke-width: 1.0;" x1="325" x2="325" y1="105.738" y2="97.738"/><polygon fill="#000000" points="325,33.086,321,39.086,325,45.086,329,39.086,325,33.086" style="stroke: #000000; stroke-width: 1.0;"/><text fill="#000000" font-family="sans-serif" font-size="13" lengthAdjust="spacingAndGlyphs" textLength="87" x="326" y="77.4951">accessRules[ ]</text><path d="M304.696,239.086 C272.107,257.682 208.215,294.14 172.916,314.283 " fill="none" style="stroke: #000000; stroke-width: 1.0;"/><polygon fill="#000000" points="168.339,316.894,178.1385,315.9094,172.6821,314.4167,174.1748,308.9603,168.339,316.894" style="stroke: #000000; stroke-width: 1.0;"/><text fill="#000000" font-family="sans-serif" font-size="13" lengthAdjust="spacingAndGlyphs" textLength="47" x="249" y="283.4951">attribute</text><path d="M345.878,239.086 C379.387,257.682 445.084,294.14 481.381,314.283 " fill="none" style="stroke: #000000; stroke-width: 1.0;"/><polygon fill="#000000" points="486.086,316.894,480.1572,309.0295,481.714,314.468,476.2756,316.0247,486.086,316.894" style="stroke: #000000; stroke-width: 1.0;"/><text fill="#000000" font-family="sans-serif" font-size="13" lengthAdjust="spacingAndGlyphs" textLength="66" x="428" y="283.4951">association</text><path d="M517.681,316.642 C541.037,289.204 592.445,219.591 565,166 C521.403,80.868 403.16,41.26 350.683,27.471 " fill="none" style="stroke: #000000; stroke-width: 1.0; stroke-dasharray: 7.0,7.0;"/><polygon fill="#000000" points="345.814,26.216,353.5321,32.3341,350.656,27.4629,355.5272,24.5869,345.814,26.216" style="stroke: #000000; stroke-width: 1.0;"/><text fill="#000000" font-family="sans-serif" font-size="13" lengthAdjust="spacingAndGlyphs" textLength="36" x="573" y="180.4951">parent</text><path d="M186.853,407.9707 C124.108,396.1372 6,368.7784 6,330.5 C6,122.5 6,122.5 6,122.5 C6,61.232 222.58,32.358 298.827,24.092 " fill="none" style="stroke: #000000; stroke-width: 1.0; stroke-dasharray: 7.0,7.0;"/><polygon fill="#000000" points="304.07,23.532,294.6958,20.5113,299.0983,24.0635,295.5461,28.466,304.07,23.532" style="stroke: #000000; stroke-width: 1.0;"/><text fill="#000000" font-family="sans-serif" font-size="13" lengthAdjust="spacingAndGlyphs" textLength="27" x="7" y="231.9951">child</text><path d="M448.848,347.8218 C393.217,364.3929 310.92,388.9068 263.153,403.1352 " fill="none" style="stroke: #000000; stroke-width: 1.0;"/><polygon fill="none" points="447.214,341.0046,468.38,342.0037,451.211,354.422,447.214,341.0046" style="stroke: #000000; stroke-width: 1.0;"/><path d="M626.316,403.2812 C663.969,392.0453 707,370.4625 707,330.5 C707,122.5 707,122.5 707,122.5 C707,48.589 436.336,27.544 350.671,22.735 " fill="none" style="stroke: #000000; stroke-width: 1.0;"/><polygon fill="#000000" points="345.538,22.454,354.3062,26.9393,350.5305,22.7269,354.7429,18.9512,345.538,22.454" style="stroke: #000000; stroke-width: 1.0;"/><text fill="#000000" font-family="sans-serif" font-size="13" lengthAdjust="spacingAndGlyphs" textLength="27" x="708" y="231.9951">child</text><path d="M528.073,358.1579 C539.659,373.3647 553.417,391.4221 562.177,402.9194 " fill="none" style="stroke: #000000; stroke-width: 1.0;"/><polygon fill="none" points="522.452,362.3308,515.899,342.1798,533.588,353.8462,522.452,362.3308" style="stroke: #000000; stroke-width: 1.0;"/><path d="M322.905,149.419 C322.528,154.879 322.194,160.631 322,166 C321.59,177.37 322.086,189.954 322.785,200.61 " fill="none" style="stroke: #000000; stroke-width: 1.0;"/><polygon fill="#000000" points="323.799,213.651,327.0887,204.3678,323.4111,208.6661,319.1128,204.9884,323.799,213.651" style="stroke: #000000; stroke-width: 1.0;"/><line style="stroke: #000000; stroke-width: 1.0;" x1="323.4111" x2="322.7915" y1="208.6661" y2="200.69"/><polygon fill="#000000" points="323.935,136.115,319.4834,141.7881,323.008,148.0791,327.4595,142.4061,323.935,136.115" style="stroke: #000000; stroke-width: 1.0;"/><text fill="#000000" font-family="sans-serif" font-size="13" lengthAdjust="spacingAndGlyphs" textLength="117" x="323" y="180.4951">memberAccesses[ ]</text><path d="M285.702,133.631 C265.575,139.951 241.832,150.151 225,166 C212.592,177.684 204.827,195.8 200.49,208.974 " fill="none" style="stroke: #000000; stroke-width: 1.0;"/><polygon fill="#000000" points="198.942,213.933,205.4423,206.5339,200.432,209.1602,197.8057,204.1499,198.942,213.933" style="stroke: #000000; stroke-width: 1.0;"/><text fill="#000000" font-family="sans-serif" font-size="13" lengthAdjust="spacingAndGlyphs" textLength="87" x="226" y="180.4951">moduleRoles[ ]</text><path d="M376.942,134.507 C399.542,140.766 425.302,150.656 445,166 C457.149,175.464 466.716,189.824 473.333,202.065 " fill="none" style="stroke: #000000; stroke-width: 1.0;"/><polygon fill="#000000" points="479.146,213.762,478.7225,203.9223,476.9207,209.2845,471.5585,207.4827,479.146,213.762" style="stroke: #000000; stroke-width: 1.0;"/><line style="stroke: #000000; stroke-width: 1.0;" x1="476.9207" x2="473.3605" y1="209.2845" y2="202.12"/><polygon fill="#000000" points="364.07,131.228,368.8965,136.5857,375.6984,134.1911,370.8719,128.8334,364.07,131.228" style="stroke: #000000; stroke-width: 1.0;"/><text fill="#000000" font-family="sans-serif" font-size="13" lengthAdjust="spacingAndGlyphs" textLength="93" x="463" y="180.4951">xPathConstraint</text></g></svg>