<?xml version="1.0" encoding="UTF-8" standalone="yes"?><svg xmlns="http://www.w3.org/2000/svg" xmlns:xlink="http://www.w3.org/1999/xlink" height="592px" style="width:804px;height:592px;" version="1.1" viewBox="0 0 804 592" width="804px"><defs><filter height="300%" id="f1" width="300%" x="-1" y="-1"><feGaussianBlur result="blurOut" stdDeviation="2.0"/><feColorMatrix in="blurOut" result="blurOut2" type="matrix" values="0 0 0 0 0 0 0 0 0 0 0 0 0 0 0 0 0 0 .4 0"/><feOffset dx="4.0" dy="4.0" in="blurOut2" result="blurOut3"/><feBlend in="SourceGraphic" in2="blurOut3" mode="normal"/></filter></defs><g><a xlink:href="https://world.mendix.com/display/refguide6/Entities" xlink:title="https://world.mendix.com/display/refguide6/Entities"><rect fill="#CFECFE" filter="url(#f1)" height="25.0938" style="stroke: #000000; stroke-width: 1.5;" width="41" x="409.5" y="8"/><text fill="#000000" font-family="sans-serif" font-size="12" lengthAdjust="spacingAndGlyphs" textLength="29" x="415.5" y="25.457">Entity</text></a><a xlink:href="https://world.mendix.com/display/refguide6/Attributes" xlink:title="https://world.mendix.com/display/refguide6/Attributes"><rect fill="#CFECFE" filter="url(#f1)" height="25.0938" style="stroke: #000000; stroke-width: 1.5;" width="56" x="402" y="111"/><text fill="#000000" font-family="sans-serif" font-size="12" lengthAdjust="spacingAndGlyphs" textLength="44" x="408" y="128.457">Attribute</text></a><a xlink:href="https://world.mendix.com/display/refguide6/Attributes" xlink:title="https://world.mendix.com/display/refguide6/Attributes"><rect fill="#D3D3D3" filter="url(#f1)" height="25.0938" style="stroke: #000000; stroke-width: 1.5;" width="85" x="387.5" y="214"/><text fill="#000000" font-family="sans-serif" font-size="12" font-style="italic" lengthAdjust="spacingAndGlyphs" textLength="73" x="393.5" y="231.457">AttributeType</text></a><a xlink:href="https://world.mendix.com/display/refguide6/Attributes" xlink:title="https://world.mendix.com/display/refguide6/Attributes"><rect fill="#D3D3D3" filter="url(#f1)" height="25.0938" style="stroke: #000000; stroke-width: 1.5;" width="159" x="159.5" y="386"/><text fill="#000000" font-family="sans-serif" font-size="12" font-style="italic" lengthAdjust="spacingAndGlyphs" textLength="147" x="165.5" y="403.457">DecimalAttributeTypeBase</text></a><a xlink:href="https://world.mendix.com/display/refguide6/Attributes" xlink:title="https://world.mendix.com/display/refguide6/Attributes"><rect fill="#D3D3D3" filter="url(#f1)" height="25.0938" style="stroke: #000000; stroke-width: 1.5;" width="160" x="350" y="300"/><text fill="#000000" font-family="sans-serif" font-size="12" font-style="italic" lengthAdjust="spacingAndGlyphs" textLength="148" x="356" y="317.457">NumericAttributeTypeBase</text></a><a xlink:href="https://world.mendix.com/display/refguide6/Attributes" xlink:title="https://world.mendix.com/display/refguide6/Attributes"><rect fill="#D3D3D3" filter="url(#f1)" height="25.0938" style="stroke: #000000; stroke-width: 1.5;" width="152" x="444" y="386"/><text fill="#000000" font-family="sans-serif" font-size="12" font-style="italic" lengthAdjust="spacingAndGlyphs" textLength="140" x="450" y="403.457">IntegerAttributeTypeBase</text></a><a xlink:href="https://world.mendix.com/display/refguide6/Attributes" xlink:title="https://world.mendix.com/display/refguide6/Attributes"><rect fill="#CFECFE" filter="url(#f1)" height="25.0938" style="stroke: #000000; stroke-width: 1.5;" width="128" x="6" y="472"/><text fill="#000000" font-family="sans-serif" font-size="12" lengthAdjust="spacingAndGlyphs" textLength="116" x="12" y="489.457">DecimalAttributeType</text></a><a xlink:href="https://world.mendix.com/display/refguide6/Attributes" xlink:title="https://world.mendix.com/display/refguide6/Attributes"><rect fill="#D3D3D3" filter="url(#f1)" height="25.0938" style="stroke: #000000; stroke-width: 1.5;" width="140" x="169" y="472"/><text fill="#000000" font-family="sans-serif" font-size="12" font-style="italic" lengthAdjust="spacingAndGlyphs" textLength="128" x="175" y="489.457">FloatAttributeTypeBase</text></a><a xlink:href="https://world.mendix.com/display/refguide6/Attributes" xlink:title="https://world.mendix.com/display/refguide6/Attributes"><rect fill="#CFECFE" filter="url(#f1)" height="25.0938" style="stroke: #000000; stroke-width: 1.5;" width="109" x="106.5" y="558"/><text fill="#000000" font-family="sans-serif" font-size="12" lengthAdjust="spacingAndGlyphs" textLength="97" x="112.5" y="575.457">FloatAttributeType</text></a><a xlink:href="https://world.mendix.com/display/refguide6/Attributes" xlink:title="https://world.mendix.com/display/refguide6/Attributes"><rect fill="#CFECFE" filter="url(#f1)" height="25.0938" style="stroke: #000000; stroke-width: 1.5;" width="131" x="250.5" y="558"/><text fill="#000000" font-family="sans-serif" font-size="12" lengthAdjust="spacingAndGlyphs" textLength="119" x="256.5" y="575.457">CurrencyAttributeType</text></a><a xlink:href="https://world.mendix.com/display/refguide6/Attributes" xlink:title="https://world.mendix.com/display/refguide6/Attributes"><rect fill="#CFECFE" filter="url(#f1)" height="25.0938" style="stroke: #000000; stroke-width: 1.5;" width="120" x="344" y="472"/><text fill="#000000" font-family="sans-serif" font-size="12" lengthAdjust="spacingAndGlyphs" textLength="108" x="350" y="489.457">IntegerAttributeType</text></a><a xlink:href="https://world.mendix.com/display/refguide6/Attributes" xlink:title="https://world.mendix.com/display/refguide6/Attributes"><rect fill="#CFECFE" filter="url(#f1)" height="25.0938" style="stroke: #000000; stroke-width: 1.5;" width="110" x="499" y="472"/><text fill="#000000" font-family="sans-serif" font-size="12" lengthAdjust="spacingAndGlyphs" textLength="98" x="505" y="489.457">LongAttributeType</text></a><a xlink:href="https://world.mendix.com/display/refguide6/Attributes" xlink:title="https://world.mendix.com/display/refguide6/Attributes"><rect fill="#CFECFE" filter="url(#f1)" height="25.0938" style="stroke: #000000; stroke-width: 1.5;" width="151" x="644.5" y="472"/><text fill="#000000" font-family="sans-serif" font-size="12" lengthAdjust="spacingAndGlyphs" textLength="139" x="650.5" y="489.457">AutoNumberAttributeType</text></a><path d="M430,46.373 C430,61.911 430,81.854 430,97.429 " fill="none" style="stroke: #000000; stroke-width: 1.0;"/><polygon fill="#000000" points="430,110.738,434,101.738,430,105.738,426,101.738,430,110.738" style="stroke: #000000; stroke-width: 1.0;"/><line style="stroke: #000000; stroke-width: 1.0;" x1="430" x2="430" y1="105.738" y2="97.738"/><polygon fill="#000000" points="430,33.086,426,39.086,430,45.086,434,39.086,430,33.086" style="stroke: #000000; stroke-width: 1.0;"/><text fill="#000000" font-family="sans-serif" font-size="13" lengthAdjust="spacingAndGlyphs" textLength="66" x="431" y="77.4951">attributes[ ]</text><path d="M430,149.373 C430,164.911 430,184.854 430,200.429 " fill="none" style="stroke: #000000; stroke-width: 1.0;"/><polygon fill="#000000" points="430,213.738,434,204.738,430,208.738,426,204.738,430,213.738" style="stroke: #000000; stroke-width: 1.0;"/><line style="stroke: #000000; stroke-width: 1.0;" x1="430" x2="430" y1="208.738" y2="200.738"/><polygon fill="#000000" points="430,136.086,426,142.086,430,148.086,434,142.086,430,136.086" style="stroke: #000000; stroke-width: 1.0;"/><text fill="#000000" font-family="sans-serif" font-size="13" lengthAdjust="spacingAndGlyphs" textLength="25" x="431" y="180.4951">type</text><path d="M385.398,333.116 C348.19,349.479 296.419,372.248 265.454,385.866 " fill="none" style="stroke: #000000; stroke-width: 1.0;"/><polygon fill="none" points="382.717,326.648,403.843,325.004,388.353,339.463,382.717,326.648" style="stroke: #000000; stroke-width: 1.0;"/><path d="M457.266,338.948 C474.017,354.583 494.671,373.86 507.592,385.919 " fill="none" style="stroke: #000000; stroke-width: 1.0;"/><polygon fill="none" points="452.359,343.944,442.514,325.18,461.911,333.709,452.359,343.944" style="stroke: #000000; stroke-width: 1.0;"/><path d="M197.702,420.027 C164.931,436.316 120.3,458.499 93.4072,471.866 " fill="none" style="stroke: #000000; stroke-width: 1.0;"/><polygon fill="none" points="194.83,413.637,215.856,411.004,201.062,426.174,194.83,413.637" style="stroke: #000000; stroke-width: 1.0;"/><path d="M239,431.183 C239,445.456 239,461.422 239,471.919 " fill="none" style="stroke: #000000; stroke-width: 1.0;"/><polygon fill="none" points="232,431.18,239,411.18,246,431.18,232,431.18" style="stroke: #000000; stroke-width: 1.0;"/><path d="M214.235,512.1703 C199.929,527.5765 182.662,546.1722 171.753,557.9194 " fill="none" style="stroke: #000000; stroke-width: 1.0;"/><polygon fill="none" points="209.416,507.0726,228.154,497.1798,219.675,516.5989,209.416,507.0726" style="stroke: #000000; stroke-width: 1.0;"/><path d="M263.448,512.1703 C277.57,527.5765 294.616,546.1722 305.384,557.9194 " fill="none" style="stroke: #000000; stroke-width: 1.0;"/><polygon fill="none" points="258.061,516.653,249.707,497.1798,268.381,507.1929,258.061,516.653" style="stroke: #000000; stroke-width: 1.0;"/><path d="M487.515,423.023 C465.491,438.972 437.336,459.36 419.992,471.919 " fill="none" style="stroke: #000000; stroke-width: 1.0;"/><polygon fill="none" points="483.566,417.24,503.871,411.18,491.777,428.58,483.566,417.24" style="stroke: #000000; stroke-width: 1.0;"/><path d="M532.31,429.914 C538.214,444.5 544.937,461.109 549.313,471.919 " fill="none" style="stroke: #000000; stroke-width: 1.0;"/><polygon fill="none" points="525.743,432.345,524.728,411.18,538.72,427.092,525.743,432.345" style="stroke: #000000; stroke-width: 1.0;"/><path d="M565.898,418.777 C604.915,435.164 659.651,458.154 692.299,471.866 " fill="none" style="stroke: #000000; stroke-width: 1.0;"/><polygon fill="none" points="563.119,425.202,547.39,411.004,568.54,412.295,563.119,425.202" style="stroke: #000000; stroke-width: 1.0;"/><path d="M430,259.183 C430,273.456 430,289.422 430,299.919 " fill="none" style="stroke: #000000; stroke-width: 1.0;"/><polygon fill="none" points="423,259.18,430,239.18,437,259.18,423,259.18" style="stroke: #000000; stroke-width: 1.0;"/></g></svg>