<?xml version="1.0" encoding="UTF-8" standalone="yes"?><svg xmlns="http://www.w3.org/2000/svg" xmlns:xlink="http://www.w3.org/1999/xlink" height="650px" style="width:613px;height:650px;" version="1.1" viewBox="0 0 613 650" width="613px"><defs><filter height="300%" id="f1" width="300%" x="-1" y="-1"><feGaussianBlur result="blurOut" stdDeviation="2.0"/><feColorMatrix in="blurOut" result="blurOut2" type="matrix" values="0 0 0 0 0 0 0 0 0 0 0 0 0 0 0 0 0 0 .4 0"/><feOffset dx="4.0" dy="4.0" in="blurOut2" result="blurOut3"/><feBlend in="SourceGraphic" in2="blurOut3" mode="normal"/></filter></defs><g><a xlink:href="https://world.mendix.com/display/refguide6/Entities" xlink:title="https://world.mendix.com/display/refguide6/Entities"><rect fill="#CFECFE" filter="url(#f1)" height="25.0938" style="stroke: #000000; stroke-width: 1.5;" width="41" x="301.5" y="197"/><text fill="#000000" font-family="sans-serif" font-size="12" lengthAdjust="spacingAndGlyphs" textLength="29" x="307.5" y="214.457">Entity</text></a><a xlink:href="https://world.mendix.com/display/refguide6/Attributes" xlink:title="https://world.mendix.com/display/refguide6/Attributes"><rect fill="#CFECFE" filter="url(#f1)" height="25.0938" style="stroke: #000000; stroke-width: 1.5;" width="56" x="45" y="300"/><text fill="#000000" font-family="sans-serif" font-size="12" lengthAdjust="spacingAndGlyphs" textLength="44" x="51" y="317.457">Attribute</text></a><rect fill="#CFECFE" filter="url(#f1)" height="25.0938" style="stroke: #000000; stroke-width: 1.5;" width="92" x="136" y="300"/><text fill="#000000" font-family="sans-serif" font-size="12" lengthAdjust="spacingAndGlyphs" textLength="80" x="142" y="317.457">ValidationRule</text><a xlink:href="https://world.mendix.com/display/refguide6/Event+Handlers" xlink:title="https://world.mendix.com/display/refguide6/Event+Handlers"><rect fill="#CFECFE" filter="url(#f1)" height="25.0938" style="stroke: #000000; stroke-width: 1.5;" width="86" x="279" y="355"/><text fill="#000000" font-family="sans-serif" font-size="12" lengthAdjust="spacingAndGlyphs" textLength="74" x="285" y="372.457">EventHandler</text></a><rect fill="#CFECFE" filter="url(#f1)" height="25.0938" style="stroke: #000000; stroke-width: 1.5;" width="41" x="436.5" y="300"/><text fill="#000000" font-family="sans-serif" font-size="12" lengthAdjust="spacingAndGlyphs" textLength="29" x="442.5" y="317.457">Index</text><rect fill="#CFECFE" filter="url(#f1)" height="25.0938" style="stroke: #000000; stroke-width: 1.5;" width="78" x="517" y="300"/><text fill="#000000" font-family="sans-serif" font-size="12" lengthAdjust="spacingAndGlyphs" textLength="66" x="523" y="317.457">AccessRule</text><rect fill="#CFECFE" filter="url(#f1)" height="25.0938" style="stroke: #000000; stroke-width: 1.5;" width="82" x="6" y="410"/><text fill="#000000" font-family="sans-serif" font-size="12" lengthAdjust="spacingAndGlyphs" textLength="70" x="12" y="427.457">AttributeType</text><a xlink:href="https://world.mendix.com/display/refguide6/Attributes" xlink:title="https://world.mendix.com/display/refguide6/Attributes"><rect fill="#D3D3D3" filter="url(#f1)" height="25.0938" style="stroke: #000000; stroke-width: 1.5;" width="71" x="123.5" y="410"/><text fill="#000000" font-family="sans-serif" font-size="12" font-style="italic" lengthAdjust="spacingAndGlyphs" textLength="59" x="129.5" y="427.457">ValueType</text></a><a xlink:href="https://world.mendix.com/display/refguide6/Attributes" xlink:title="https://world.mendix.com/display/refguide6/Attributes"><rect fill="#CFECFE" filter="url(#f1)" height="25.0938" style="stroke: #000000; stroke-width: 1.5;" width="79" x="52.5" y="513"/><text fill="#000000" font-family="sans-serif" font-size="12" lengthAdjust="spacingAndGlyphs" textLength="67" x="58.5" y="530.457">StoredValue</text></a><a xlink:href="https://world.mendix.com/display/refguide6/Attributes" xlink:title="https://world.mendix.com/display/refguide6/Attributes"><rect fill="#CFECFE" filter="url(#f1)" height="25.0938" style="stroke: #000000; stroke-width: 1.5;" width="102" x="167" y="513"/><text fill="#000000" font-family="sans-serif" font-size="12" lengthAdjust="spacingAndGlyphs" textLength="90" x="173" y="530.457">CalculatedValue</text></a><rect fill="#CFECFE" filter="url(#f1)" height="25.0938" style="stroke: #000000; stroke-width: 1.5;" width="63" x="244.5" y="616"/><text fill="#000000" font-family="sans-serif" font-size="12" lengthAdjust="spacingAndGlyphs" textLength="51" x="250.5" y="633.457">Microflow</text><a xlink:href="https://world.mendix.com/display/refguide6/Associations" xlink:title="https://world.mendix.com/display/refguide6/Associations"><rect fill="#CFECFE" filter="url(#f1)" height="25.0938" style="stroke: #000000; stroke-width: 1.5;" width="76" x="284" y="94"/><text fill="#000000" font-family="sans-serif" font-size="12" lengthAdjust="spacingAndGlyphs" textLength="64" x="290" y="111.457">Association</text></a><a xlink:href="https://world.mendix.com/display/refguide6/Associations" xlink:title="https://world.mendix.com/display/refguide6/Associations"><rect fill="#D3D3D3" filter="url(#f1)" height="25.0938" style="stroke: #000000; stroke-width: 1.5;" width="103" x="270.5" y="8"/><text fill="#000000" font-family="sans-serif" font-size="12" font-style="italic" lengthAdjust="spacingAndGlyphs" textLength="91" x="276.5" y="25.457">AssociationBase</text></a><a xlink:href="https://world.mendix.com/display/refguide6/Associations" xlink:title="https://world.mendix.com/display/refguide6/Associations"><rect fill="#CFECFE" filter="url(#f1)" height="25.0938" style="stroke: #000000; stroke-width: 1.5;" width="110" x="395" y="94"/><text fill="#000000" font-family="sans-serif" font-size="12" lengthAdjust="spacingAndGlyphs" textLength="98" x="401" y="111.457">CrossAssociation</text></a><path d="M288.225,212.785 C232.795,217.167 125.795,228.48 97,252 C86.3448,260.703 80.3845,274.859 77.0692,287.18 " fill="none" style="stroke: #000000; stroke-width: 1.0;"/><polygon fill="#000000" points="74.3406,299.923,80.136,291.9598,75.3873,295.0338,72.3133,290.285,74.3406,299.923" style="stroke: #000000; stroke-width: 1.0;"/><line style="stroke: #000000; stroke-width: 1.0;" x1="75.3873" x2="77.0626" y1="295.0338" y2="287.2105"/><polygon fill="#000000" points="301.442,211.794,295.1603,208.2528,289.4754,212.6893,295.7572,216.2305,301.442,211.794" style="stroke: #000000; stroke-width: 1.0;"/><text fill="#000000" font-family="sans-serif" font-size="13" lengthAdjust="spacingAndGlyphs" textLength="66" x="98" y="266.4951">attributes[ ]</text><path d="M288.371,215.544 C250.387,222.01 192.135,234.511 179,252 C171.67,261.76 171.735,275.166 173.936,286.783 " fill="none" style="stroke: #000000; stroke-width: 1.0;"/><polygon fill="#000000" points="177.325,299.699,178.9094,289.9784,176.0558,294.8628,171.1714,292.0092,177.325,299.699" style="stroke: #000000; stroke-width: 1.0;"/><line style="stroke: #000000; stroke-width: 1.0;" x1="176.0558" x2="174.026" y1="294.8628" y2="287.125"/><polygon fill="#000000" points="301.327,213.437,294.7626,210.4522,289.4827,215.3636,296.047,218.3484,301.327,213.437" style="stroke: #000000; stroke-width: 1.0;"/><text fill="#000000" font-family="sans-serif" font-size="13" lengthAdjust="spacingAndGlyphs" textLength="98" x="180" y="266.4951">validationRules[ ]</text><path d="M317.192,234.868 C316.281,240.473 315.467,246.425 315,252 C312.411,282.916 315.565,318.604 318.431,341.808 " fill="none" style="stroke: #000000; stroke-width: 1.0;"/><polygon fill="#000000" points="320.167,354.784,322.938,345.333,319.5038,349.8282,315.0087,346.394,320.167,354.784" style="stroke: #000000; stroke-width: 1.0;"/><line style="stroke: #000000; stroke-width: 1.0;" x1="319.5038" x2="318.443" y1="349.8282" y2="341.8995"/><polygon fill="#000000" points="319.517,222.062,314.5098,227.2512,317.374,233.8691,322.3812,228.6799,319.517,222.062" style="stroke: #000000; stroke-width: 1.0;"/><text fill="#000000" font-family="sans-serif" font-size="13" lengthAdjust="spacingAndGlyphs" textLength="93" x="316" y="266.4951">eventHandlers[ ]</text><path d="M355.093,219.503 C374.919,226.11 399.736,236.638 418,252 C429.662,261.809 439.141,275.983 445.833,288.036 " fill="none" style="stroke: #000000; stroke-width: 1.0;"/><polygon fill="#000000" points="451.972,299.976,451.4141,290.143,449.6857,295.5293,444.2994,293.801,451.972,299.976" style="stroke: #000000; stroke-width: 1.0;"/><line style="stroke: #000000; stroke-width: 1.0;" x1="449.6857" x2="446.0275" y1="295.5293" y2="288.4145"/><polygon fill="#000000" points="342.606,215.629,347.1517,221.2269,354.0673,219.184,349.5217,213.586,342.606,215.629" style="stroke: #000000; stroke-width: 1.0;"/><text fill="#000000" font-family="sans-serif" font-size="13" lengthAdjust="spacingAndGlyphs" textLength="57" x="435" y="266.4951">indexes[ ]</text><path d="M355.962,212.43 C393.676,215.869 455.261,225.43 501,252 C516.832,261.197 530.782,276.422 540.672,289.169 " fill="none" style="stroke: #000000; stroke-width: 1.0;"/><polygon fill="#000000" points="548.55,299.934,546.4632,290.3088,545.5973,295.8989,540.0071,295.033,548.55,299.934" style="stroke: #000000; stroke-width: 1.0;"/><line style="stroke: #000000; stroke-width: 1.0;" x1="545.5973" x2="540.873" y1="295.8989" y2="289.443"/><polygon fill="#000000" points="342.76,211.389,348.4272,215.8481,354.7229,212.3318,349.0557,207.8728,342.76,211.389" style="stroke: #000000; stroke-width: 1.0;"/><text fill="#000000" font-family="sans-serif" font-size="13" lengthAdjust="spacingAndGlyphs" textLength="87" x="525" y="266.4951">accessRules[ ]</text><path d="M67.1503,337.799 C62.8943,355.478 57.1541,379.321 52.889,397.038 " fill="none" style="stroke: #000000; stroke-width: 1.0;"/><polygon fill="#000000" points="49.8413,409.698,55.8368,401.8843,51.0116,404.8369,48.059,400.0118,49.8413,409.698" style="stroke: #000000; stroke-width: 1.0;"/><line style="stroke: #000000; stroke-width: 1.0;" x1="51.0116" x2="52.8841" y1="404.8369" y2="397.059"/><polygon fill="#000000" points="70.2175,325.058,64.9242,329.9551,67.4087,336.7246,72.702,331.8276,70.2175,325.058" style="stroke: #000000; stroke-width: 1.0;"/><text fill="#000000" font-family="sans-serif" font-size="13" lengthAdjust="spacingAndGlyphs" textLength="25" x="64" y="372.9951">type</text><path d="M90.3549,335.295 C105.2208,353.963 126.53,380.724 141.452,399.462 " fill="none" style="stroke: #000000; stroke-width: 1.0;"/><polygon fill="#000000" points="149.602,409.698,147.1255,400.1656,146.4876,405.7864,140.8669,405.1486,149.602,409.698" style="stroke: #000000; stroke-width: 1.0;"/><line style="stroke: #000000; stroke-width: 1.0;" x1="146.4876" x2="141.5035" y1="405.7864" y2="399.528"/><polygon fill="#000000" points="82.2035,325.058,82.8121,332.2434,89.6789,334.4452,89.0702,327.2598,82.2035,325.058" style="stroke: #000000; stroke-width: 1.0;"/><text fill="#000000" font-family="sans-serif" font-size="13" lengthAdjust="spacingAndGlyphs" textLength="29" x="125" y="372.9951">value</text><path d="M140.074,452.03 C126.749,472.117 109.603,497.964 99.8025,512.738 " fill="none" style="stroke: #000000; stroke-width: 1.0;"/><polygon fill="none" points="134.425,447.883,151.314,435.086,146.092,455.622,134.425,447.883" style="stroke: #000000; stroke-width: 1.0;"/><path d="M220.918,538.008 C224.36,550.4089 230.801,570.456 240,586 C245.492,595.2806 253.155,604.4584 260,611.814 " fill="none" style="stroke: #000000; stroke-width: 1.0;"/><polygon fill="#000000" points="263.7,615.702,260.3945,606.4244,260.2536,612.0795,254.5985,611.9386,263.7,615.702" style="stroke: #000000; stroke-width: 1.0;"/><text fill="#000000" font-family="sans-serif" font-size="13" lengthAdjust="spacingAndGlyphs" textLength="54" x="241" y="582.4951">microflow</text><path d="M176.03,452.653 C187.711,472.649 202.588,498.116 211.129,512.738 " fill="none" style="stroke: #000000; stroke-width: 1.0;"/><polygon fill="none" points="169.812,455.886,165.768,435.086,181.9,448.825,169.812,455.886" style="stroke: #000000; stroke-width: 1.0;"/><path d="M322,119.086 C322,136.875 322,171.011 322,191.572 " fill="none" style="stroke: #000000; stroke-width: 1.0; stroke-dasharray: 7.0,7.0;"/><polygon fill="#000000" points="322,196.738,326,187.738,322,191.738,318,187.738,322,196.738" style="stroke: #000000; stroke-width: 1.0;"/><text fill="#000000" font-family="sans-serif" font-size="13" lengthAdjust="spacingAndGlyphs" textLength="27" x="323" y="163.4951">child</text><path d="M322,53.183 C322,67.456 322,83.422 322,93.919 " fill="none" style="stroke: #000000; stroke-width: 1.0;"/><polygon fill="none" points="315,53.18,322,33.18,329,53.18,315,53.18" style="stroke: #000000; stroke-width: 1.0;"/><path d="M435.317,119.086 C412.005,137.481 366.541,173.354 340.853,193.624 " fill="none" style="stroke: #000000; stroke-width: 1.0;"/><polygon fill="#000000" points="336.906,196.738,346.4488,194.3017,340.8307,193.6402,341.4923,188.0222,336.906,196.738" style="stroke: #000000; stroke-width: 1.0;"/><text fill="#000000" font-family="sans-serif" font-size="13" lengthAdjust="spacingAndGlyphs" textLength="27" x="395" y="163.4951">child</text><path d="M356.472,44.122 C380.933,60.174 412.764,81.064 432.271,93.866 " fill="none" style="stroke: #000000; stroke-width: 1.0;"/><polygon fill="none" points="352.41,49.829,339.529,33.004,360.091,38.125,352.41,49.829" style="stroke: #000000; stroke-width: 1.0;"/><path d="M295.138,33.109 C261.953,49.325 211.742,81.073 228,119 C242.149,152.008 275.113,178.606 297.982,193.981 " fill="none" style="stroke: #000000; stroke-width: 1.0; stroke-dasharray: 7.0,7.0;"/><polygon fill="#000000" points="302.412,196.905,297.1029,188.6096,298.2386,194.1513,292.6969,195.2871,302.412,196.905" style="stroke: #000000; stroke-width: 1.0;"/><text fill="#000000" font-family="sans-serif" font-size="13" lengthAdjust="spacingAndGlyphs" textLength="36" x="229" y="111.9951">parent</text><path d="M322.514,380.169 C323.62,413.317 324.391,510.521 300,586 C297.118,594.9195 292.126,604.0232 287.439,611.4226 " fill="none" style="stroke: #000000; stroke-width: 1.0;"/><polygon fill="#000000" points="284.582,615.7926,292.8554,610.4492,287.3184,611.6079,286.1598,606.0709,284.582,615.7926" style="stroke: #000000; stroke-width: 1.0;"/><text fill="#000000" font-family="sans-serif" font-size="13" lengthAdjust="spacingAndGlyphs" textLength="54" x="322" y="479.4951">microflow</text></g></svg>