<?xml version="1.0" encoding="UTF-8" standalone="yes"?><svg xmlns="http://www.w3.org/2000/svg" xmlns:xlink="http://www.w3.org/1999/xlink" height="231px" style="width:714px;height:231px;" version="1.1" viewBox="0 0 714 231" width="714px"><defs><filter height="300%" id="f1" width="300%" x="-1" y="-1"><feGaussianBlur result="blurOut" stdDeviation="2.0"/><feColorMatrix in="blurOut" result="blurOut2" type="matrix" values="0 0 0 0 0 0 0 0 0 0 0 0 0 0 0 0 0 0 .4 0"/><feOffset dx="4.0" dy="4.0" in="blurOut2" result="blurOut3"/><feBlend in="SourceGraphic" in2="blurOut3" mode="normal"/></filter></defs><g><a xlink:href="https://world.mendix.com/display/refguide6/Call+Web+Service" xlink:title="https://world.mendix.com/display/refguide6/Call+Web+Service"><rect fill="#D3D3D3" filter="url(#f1)" height="25.0938" style="stroke: #000000; stroke-width: 1.5;" width="108" x="48.4491" y="197"/><text fill="#000000" font-family="sans-serif" font-size="12" font-style="italic" lengthAdjust="spacingAndGlyphs" textLength="96" x="54.4491" y="214.457">RequestHandling</text></a><a xlink:href="https://world.mendix.com/display/refguide6/Call+Web+Service" xlink:title="https://world.mendix.com/display/refguide6/Call+Web+Service"><rect fill="#CFECFE" filter="url(#f1)" height="25.0938" style="stroke: #000000; stroke-width: 1.5;" width="98" x="298.449" y="197"/><text fill="#000000" font-family="sans-serif" font-size="12" lengthAdjust="spacingAndGlyphs" textLength="86" x="304.449" y="214.457">ResultHandling</text></a><a xlink:href="https://world.mendix.com/display/refguide6/Call+Web+Service" xlink:title="https://world.mendix.com/display/refguide6/Call+Web+Service"><rect fill="#CFECFE" filter="url(#f1)" height="25.0938" style="stroke: #000000; stroke-width: 1.5;" width="132" x="289.449" y="94"/><text fill="#000000" font-family="sans-serif" font-size="12" lengthAdjust="spacingAndGlyphs" textLength="120" x="295.449" y="111.457">WebServiceCallAction</text></a><rect fill="#CFECFE" filter="url(#f1)" height="25.0938" style="stroke: #000000; stroke-width: 1.5;" width="126" x="431.449" y="197"/><text fill="#000000" font-family="sans-serif" font-size="12" lengthAdjust="spacingAndGlyphs" textLength="114" x="437.449" y="214.457">ImportedWebService</text><a xlink:href="https://world.mendix.com/display/refguide6/Call+Web+Service" xlink:title="https://world.mendix.com/display/refguide6/Call+Web+Service"><rect fill="#CFECFE" filter="url(#f1)" height="25.0938" style="stroke: #000000; stroke-width: 1.5;" width="108" x="597.449" y="197"/><text fill="#000000" font-family="sans-serif" font-size="12" lengthAdjust="spacingAndGlyphs" textLength="96" x="603.449" y="214.457">HttpConfiguration</text></a><rect fill="#D3D3D3" filter="url(#f1)" height="25.0938" style="stroke: #000000; stroke-width: 1.5;" width="96" x="307.449" y="8"/><text fill="#000000" font-family="sans-serif" font-size="12" font-style="italic" lengthAdjust="spacingAndGlyphs" textLength="84" x="313.449" y="25.457">MicroflowAction</text><path d="M389.08,119.133 C406.612,126.1618 427.808,136.2405 444.449,149 C460.419,161.2444 474.751,179.4164 483.934,192.4537 " fill="none" style="stroke: #000000; stroke-width: 1.0;"/><polygon fill="#000000" points="486.845,196.6622,485.0133,186.9852,484,192.5505,478.4346,191.5372,486.845,196.6622" style="stroke: #000000; stroke-width: 1.0;"/><text fill="#000000" font-family="sans-serif" font-size="13" lengthAdjust="spacingAndGlyphs" textLength="119" x="463.449" y="163.4951">importedWebService</text><path d="M276.038,111.608 C179.928,117.409 28.7199,129.5204 11.4491,149 C-4.6771,167.1886 18.448,182.1343 45.4154,192.4972 " fill="none" style="stroke: #000000; stroke-width: 1.0;"/><polygon fill="#000000" points="57.949,196.9313,50.7984,190.1587,53.2353,195.2637,48.1302,197.7006,57.949,196.9313" style="stroke: #000000; stroke-width: 1.0;"/><line style="stroke: #000000; stroke-width: 1.0;" x1="53.2353" x2="45.6933" y1="195.2637" y2="192.5955"/><polygon fill="#000000" points="289.214,110.832,282.9888,107.1924,277.2348,111.5388,283.46,115.1785,289.214,110.832" style="stroke: #000000; stroke-width: 1.0;"/><text fill="#000000" font-family="sans-serif" font-size="13" lengthAdjust="spacingAndGlyphs" textLength="134" x="12.4491" y="163.4951">requestHeaderHandling</text><path d="M297.173,122.6479 C272.534,129.693 243.742,138.779 218.449,149 C188.921,160.9323 156.808,177.7234 133.872,190.427 " fill="none" style="stroke: #000000; stroke-width: 1.0;"/><polygon fill="#000000" points="122.463,196.8284,132.2692,195.9127,126.8235,194.3817,128.3545,188.936,122.463,196.8284" style="stroke: #000000; stroke-width: 1.0;"/><line style="stroke: #000000; stroke-width: 1.0;" x1="126.8235" x2="133.8005" y1="194.3817" y2="190.467"/><polygon fill="#000000" points="310.011,119.052,303.1546,116.8182,298.4556,122.288,305.312,124.5218,310.011,119.052" style="stroke: #000000; stroke-width: 1.0;"/><text fill="#000000" font-family="sans-serif" font-size="13" lengthAdjust="spacingAndGlyphs" textLength="123" x="219.449" y="163.4951">requestBodyHandling</text><path d="M353.503,132.0746 C352.27,147.6313 350.681,167.6918 349.441,183.3566 " fill="none" style="stroke: #000000; stroke-width: 1.0;"/><polygon fill="#000000" points="348.381,196.738,353.0793,188.082,348.7759,191.7536,345.1042,187.4502,348.381,196.738" style="stroke: #000000; stroke-width: 1.0;"/><line style="stroke: #000000; stroke-width: 1.0;" x1="348.7759" x2="349.4075" y1="191.7536" y2="183.7786"/><polygon fill="#000000" points="354.531,119.086,350.0697,124.7514,353.5834,131.0485,358.0447,125.3831,354.531,119.086" style="stroke: #000000; stroke-width: 1.0;"/><text fill="#000000" font-family="sans-serif" font-size="13" lengthAdjust="spacingAndGlyphs" textLength="82" x="353.449" y="163.4951">resultHandling</text><path d="M434.751,109.608 C482.444,113.678 543.074,123.96 591.449,149 C608.579,157.8668 623.941,173.3213 634.831,186.2575 " fill="none" style="stroke: #000000; stroke-width: 1.0;"/><polygon fill="#000000" points="643.183,196.7484,640.7066,187.216,640.0687,192.8367,634.4479,192.1988,643.183,196.7484" style="stroke: #000000; stroke-width: 1.0;"/><line style="stroke: #000000; stroke-width: 1.0;" x1="640.0687" x2="635.0865" y1="192.8367" y2="186.5778"/><polygon fill="#000000" points="421.663,108.618,427.3439,113.0596,433.6288,109.5239,427.9479,105.0824,421.663,108.618" style="stroke: #000000; stroke-width: 1.0;"/><text fill="#000000" font-family="sans-serif" font-size="13" lengthAdjust="spacingAndGlyphs" textLength="97" x="616.449" y="163.4951">httpConfiguration</text><path d="M355.449,53.183 C355.449,67.456 355.449,83.422 355.449,93.919 " fill="none" style="stroke: #000000; stroke-width: 1.0;"/><polygon fill="none" points="348.449,53.18,355.449,33.18,362.449,53.18,348.449,53.18" style="stroke: #000000; stroke-width: 1.0;"/></g></svg>