<?xml version="1.0" encoding="UTF-8" standalone="yes"?><svg xmlns="http://www.w3.org/2000/svg" xmlns:xlink="http://www.w3.org/1999/xlink" height="437px" style="width:350px;height:437px;" version="1.1" viewBox="0 0 350 437" width="350px"><defs><filter height="300%" id="f1" width="300%" x="-1" y="-1"><feGaussianBlur result="blurOut" stdDeviation="2.0"/><feColorMatrix in="blurOut" result="blurOut2" type="matrix" values="0 0 0 0 0 0 0 0 0 0 0 0 0 0 0 0 0 0 .4 0"/><feOffset dx="4.0" dy="4.0" in="blurOut2" result="blurOut3"/><feBlend in="SourceGraphic" in2="blurOut3" mode="normal"/></filter></defs><g><a xlink:href="https://world.mendix.com/display/refguide6/Microflow+Call" xlink:title="https://world.mendix.com/display/refguide6/Microflow+Call"><rect fill="#CFECFE" filter="url(#f1)" height="25.0938" style="stroke: #000000; stroke-width: 1.5;" width="118" x="26.5" y="94"/><text fill="#000000" font-family="sans-serif" font-size="12" lengthAdjust="spacingAndGlyphs" textLength="106" x="32.5" y="111.457">MicroflowCallAction</text></a><a xlink:href="https://world.mendix.com/display/refguide6/Microflow+Call" xlink:title="https://world.mendix.com/display/refguide6/Microflow+Call"><rect fill="#CFECFE" filter="url(#f1)" height="25.0938" style="stroke: #000000; stroke-width: 1.5;" width="85" x="43" y="197"/><text fill="#000000" font-family="sans-serif" font-size="12" lengthAdjust="spacingAndGlyphs" textLength="73" x="49" y="214.457">MicroflowCall</text></a><rect fill="#D3D3D3" filter="url(#f1)" height="25.0938" style="stroke: #000000; stroke-width: 1.5;" width="96" x="37.5" y="8"/><text fill="#000000" font-family="sans-serif" font-size="12" font-style="italic" lengthAdjust="spacingAndGlyphs" textLength="84" x="43.5" y="25.457">MicroflowAction</text><rect fill="#CFECFE" filter="url(#f1)" height="25.0938" style="stroke: #000000; stroke-width: 1.5;" width="63" x="6" y="300"/><text fill="#000000" font-family="sans-serif" font-size="12" lengthAdjust="spacingAndGlyphs" textLength="51" x="12" y="317.457">Microflow</text><a xlink:href="https://world.mendix.com/display/refguide6/Microflow+Call" xlink:title="https://world.mendix.com/display/refguide6/Microflow+Call"><rect fill="#CFECFE" filter="url(#f1)" height="25.0938" style="stroke: #000000; stroke-width: 1.5;" width="190" x="104.5" y="300"/><text fill="#000000" font-family="sans-serif" font-size="12" lengthAdjust="spacingAndGlyphs" textLength="178" x="110.5" y="317.457">MicroflowCallParameterMapping</text></a><rect fill="#CFECFE" filter="url(#f1)" height="25.0938" style="stroke: #000000; stroke-width: 1.5;" width="121" x="60" y="403"/><text fill="#000000" font-family="sans-serif" font-size="12" lengthAdjust="spacingAndGlyphs" textLength="109" x="66" y="420.457">MicroflowParameter</text><rect fill="#CFECFE" filter="url(#f1)" height="25.0938" style="stroke: #000000; stroke-width: 1.5;" width="125" x="216" y="403"/><text fill="#000000" font-family="sans-serif" font-size="12" lengthAdjust="spacingAndGlyphs" textLength="113" x="222" y="420.457">MicroflowExpression</text><path d="M85.5,132.373 C85.5,147.911 85.5,167.854 85.5,183.429 " fill="none" style="stroke: #000000; stroke-width: 1.0;"/><polygon fill="#000000" points="85.5,196.738,89.5,187.738,85.5,191.738,81.5,187.738,85.5,196.738" style="stroke: #000000; stroke-width: 1.0;"/><line style="stroke: #000000; stroke-width: 1.0;" x1="85.5" x2="85.5001" y1="191.738" y2="183.738"/><polygon fill="#000000" points="85.5,119.086,81.5,125.086,85.5,131.086,89.5,125.086,85.5,119.086" style="stroke: #000000; stroke-width: 1.0;"/><text fill="#000000" font-family="sans-serif" font-size="13" lengthAdjust="spacingAndGlyphs" textLength="76" x="86.5" y="163.4951">microflowCall</text><path d="M85.5,53.183 C85.5,67.456 85.5,83.422 85.5,93.919 " fill="none" style="stroke: #000000; stroke-width: 1.0;"/><polygon fill="none" points="78.5001,53.18,85.5,33.18,92.5001,53.18,78.5001,53.18" style="stroke: #000000; stroke-width: 1.0;"/><path d="M79.9938,222.086 C71.4675,240.027 55.0399,274.593 45.2967,295.094 " fill="none" style="stroke: #000000; stroke-width: 1.0;"/><polygon fill="#000000" points="43.0898,299.738,50.5651,293.3256,45.2356,295.2219,43.3393,289.8923,43.0898,299.738" style="stroke: #000000; stroke-width: 1.0;"/><text fill="#000000" font-family="sans-serif" font-size="13" lengthAdjust="spacingAndGlyphs" textLength="54" x="65.5" y="266.4951">microflow</text><path d="M108.349,230.743 C128.136,248.274 156.622,273.511 176.464,291.091 " fill="none" style="stroke: #000000; stroke-width: 1.0;"/><polygon fill="#000000" points="186.224,299.738,182.1406,290.7755,182.4817,296.4221,176.8352,296.7632,186.224,299.738" style="stroke: #000000; stroke-width: 1.0;"/><line style="stroke: #000000; stroke-width: 1.0;" x1="182.4817" x2="176.4935" y1="296.4221" y2="291.1175"/><polygon fill="#000000" points="98.5772,222.086,100.4159,229.0587,107.5595,230.0432,105.7208,223.0705,98.5772,222.086" style="stroke: #000000; stroke-width: 1.0;"/><text fill="#000000" font-family="sans-serif" font-size="13" lengthAdjust="spacingAndGlyphs" textLength="126" x="150.5" y="266.4951">parameterMappings[ ]</text><path d="M190.438,325.086 C176.286,343.178 148.91,378.1778 132.929,398.6104 " fill="none" style="stroke: #000000; stroke-width: 1.0;"/><polygon fill="#000000" points="129.7,402.738,138.3954,398.113,132.7803,398.7995,132.0938,393.1845,129.7,402.738" style="stroke: #000000; stroke-width: 1.0;"/><text fill="#000000" font-family="sans-serif" font-size="13" lengthAdjust="spacingAndGlyphs" textLength="58" x="166.5" y="369.4951">parameter</text><path d="M217.747,335.447 C222.891,341.7223 228.459,348.5966 233.5,355 C243.133,367.2352 253.644,381.1023 262.083,392.3696 " fill="none" style="stroke: #000000; stroke-width: 1.0;"/><polygon fill="#000000" points="270.004,402.9927,267.8314,393.3865,267.0154,398.9842,261.4177,398.1682,270.004,402.9927" style="stroke: #000000; stroke-width: 1.0;"/><line style="stroke: #000000; stroke-width: 1.0;" x1="267.0154" x2="262.233" y1="398.9842" y2="392.5709"/><polygon fill="#000000" points="209.148,325.03,209.8832,332.2035,216.7877,334.2839,216.0525,327.1104,209.148,325.03" style="stroke: #000000; stroke-width: 1.0;"/><text fill="#000000" font-family="sans-serif" font-size="13" lengthAdjust="spacingAndGlyphs" textLength="54" x="248.5" y="369.4951">argument</text></g></svg>