<?xml version="1.0" encoding="UTF-8" standalone="yes"?><svg xmlns="http://www.w3.org/2000/svg" xmlns:xlink="http://www.w3.org/1999/xlink" height="334px" style="width:394px;height:334px;" version="1.1" viewBox="0 0 394 334" width="394px"><defs><filter height="300%" id="f1" width="300%" x="-1" y="-1"><feGaussianBlur result="blurOut" stdDeviation="2.0"/><feColorMatrix in="blurOut" result="blurOut2" type="matrix" values="0 0 0 0 0 0 0 0 0 0 0 0 0 0 0 0 0 0 .4 0"/><feOffset dx="4.0" dy="4.0" in="blurOut2" result="blurOut3"/><feBlend in="SourceGraphic" in2="blurOut3" mode="normal"/></filter></defs><g><rect fill="#D3D3D3" filter="url(#f1)" height="25.0938" style="stroke: #000000; stroke-width: 1.5;" width="98" x="157.5" y="8"/><text fill="#000000" font-family="sans-serif" font-size="12" font-style="italic" lengthAdjust="spacingAndGlyphs" textLength="86" x="163.5" y="25.457">MicroflowObject</text><a xlink:href="https://world.mendix.com/display/refguide6/Start+Event" xlink:title="https://world.mendix.com/display/refguide6/Start+Event"><rect fill="#CFECFE" filter="url(#f1)" height="25.0938" style="stroke: #000000; stroke-width: 1.5;" width="67" x="6" y="94"/><text fill="#000000" font-family="sans-serif" font-size="12" lengthAdjust="spacingAndGlyphs" textLength="55" x="12" y="111.457">StartEvent</text></a><a xlink:href="https://world.mendix.com/display/refguide6/End+Event" xlink:title="https://world.mendix.com/display/refguide6/End+Event"><rect fill="#CFECFE" filter="url(#f1)" height="25.0938" style="stroke: #000000; stroke-width: 1.5;" width="64" x="108.5" y="94"/><text fill="#000000" font-family="sans-serif" font-size="12" lengthAdjust="spacingAndGlyphs" textLength="52" x="114.5" y="111.457">EndEvent</text></a><rect fill="#CFECFE" filter="url(#f1)" height="25.0938" style="stroke: #000000; stroke-width: 1.5;" width="125" x="78" y="197"/><text fill="#000000" font-family="sans-serif" font-size="12" lengthAdjust="spacingAndGlyphs" textLength="113" x="84" y="214.457">MicroflowExpression</text><a xlink:href="https://world.mendix.com/display/refguide6/Error+Event" xlink:title="https://world.mendix.com/display/refguide6/Error+Event"><rect fill="#CFECFE" filter="url(#f1)" height="25.0938" style="stroke: #000000; stroke-width: 1.5;" width="69" x="208" y="94"/><text fill="#000000" font-family="sans-serif" font-size="12" lengthAdjust="spacingAndGlyphs" textLength="57" x="214" y="111.457">ErrorEvent</text></a><rect fill="#D3D3D3" filter="url(#f1)" height="25.0938" style="stroke: #000000; stroke-width: 1.5;" width="50" x="312.5" y="94"/><text fill="#000000" font-family="sans-serif" font-size="12" font-style="italic" lengthAdjust="spacingAndGlyphs" textLength="38" x="318.5" y="111.457">Activity</text><rect fill="#D3D3D3" filter="url(#f1)" height="25.0938" style="stroke: #000000; stroke-width: 1.5;" width="96" x="289.5" y="300"/><text fill="#000000" font-family="sans-serif" font-size="12" font-style="italic" lengthAdjust="spacingAndGlyphs" textLength="84" x="295.5" y="317.457">MicroflowAction</text><a xlink:href="https://world.mendix.com/display/refguide6/Activities" xlink:title="https://world.mendix.com/display/refguide6/Activities"><rect fill="#CFECFE" filter="url(#f1)" height="25.0938" style="stroke: #000000; stroke-width: 1.5;" width="80" x="297.5" y="197"/><text fill="#000000" font-family="sans-serif" font-size="12" lengthAdjust="spacingAndGlyphs" textLength="68" x="303.5" y="214.457">ActionActivity</text></a><path d="M165.69,42.027 C133.307,58.316 89.2048,80.499 62.6302,93.866 " fill="none" style="stroke: #000000; stroke-width: 1.0;"/><polygon fill="none" points="162.617,35.737,183.63,33.004,168.908,48.244,162.617,35.737" style="stroke: #000000; stroke-width: 1.0;"/><path d="M140.5,132.373 C140.5,147.911 140.5,167.854 140.5,183.429 " fill="none" style="stroke: #000000; stroke-width: 1.0;"/><polygon fill="#000000" points="140.5,196.738,144.5,187.738,140.5,191.738,136.5,187.738,140.5,196.738" style="stroke: #000000; stroke-width: 1.0;"/><line style="stroke: #000000; stroke-width: 1.0;" x1="140.5" x2="140.5" y1="191.738" y2="183.738"/><polygon fill="#000000" points="140.5,119.086,136.5,125.086,140.5,131.086,144.5,125.086,140.5,119.086" style="stroke: #000000; stroke-width: 1.0;"/><text fill="#000000" font-family="sans-serif" font-size="13" lengthAdjust="spacingAndGlyphs" textLength="66" x="141.5" y="163.4951">returnValue</text><path d="M184.769,49.158 C172.821,64.365 158.633,82.422 149.599,93.919 " fill="none" style="stroke: #000000; stroke-width: 1.0;"/><polygon fill="none" points="179.462,44.581,197.323,33.18,190.471,53.231,179.462,44.581" style="stroke: #000000; stroke-width: 1.0;"/><path d="M219.426,51.661 C225.703,66.308 232.877,83.047 237.537,93.919 " fill="none" style="stroke: #000000; stroke-width: 1.0;"/><polygon fill="none" points="212.95,54.32,211.506,33.18,225.818,48.805,212.95,54.32" style="stroke: #000000; stroke-width: 1.0;"/><path d="M241.412,43.886 C266.494,59.97 299.293,81.001 319.356,93.866 " fill="none" style="stroke: #000000; stroke-width: 1.0;"/><polygon fill="none" points="237.498,49.692,224.44,33.004,245.055,37.907,237.498,49.692" style="stroke: #000000; stroke-width: 1.0;"/><path d="M337.5,235.3726 C337.5,250.911 337.5,270.8535 337.5,286.4291 " fill="none" style="stroke: #000000; stroke-width: 1.0;"/><polygon fill="#000000" points="337.5,299.738,341.5,290.738,337.5,294.738,333.5,290.738,337.5,299.738" style="stroke: #000000; stroke-width: 1.0;"/><line style="stroke: #000000; stroke-width: 1.0;" x1="337.5" x2="337.5" y1="294.738" y2="286.7381"/><polygon fill="#000000" points="337.5,222.086,333.5,228.086,337.5,234.086,341.5,228.086,337.5,222.086" style="stroke: #000000; stroke-width: 1.0;"/><text fill="#000000" font-family="sans-serif" font-size="13" lengthAdjust="spacingAndGlyphs" textLength="35" x="338.5" y="266.4951">action</text><path d="M337.5,139.18 C337.5,158.752 337.5,182.726 337.5,196.738 " fill="none" style="stroke: #000000; stroke-width: 1.0;"/><polygon fill="none" points="330.5,139.086,337.5,119.086,344.5,139.086,330.5,139.086" style="stroke: #000000; stroke-width: 1.0;"/></g></svg>