<?xml version="1.0" encoding="UTF-8" standalone="yes"?><svg xmlns="http://www.w3.org/2000/svg" xmlns:xlink="http://www.w3.org/1999/xlink" height="248px" style="width:597px;height:248px;" version="1.1" viewBox="0 0 597 248" width="597px"><defs><filter height="300%" id="f1" width="300%" x="-1" y="-1"><feGaussianBlur result="blurOut" stdDeviation="2.0"/><feColorMatrix in="blurOut" result="blurOut2" type="matrix" values="0 0 0 0 0 0 0 0 0 0 0 0 0 0 0 0 0 0 .4 0"/><feOffset dx="4.0" dy="4.0" in="blurOut2" result="blurOut3"/><feBlend in="SourceGraphic" in2="blurOut3" mode="normal"/></filter></defs><g><a xlink:href="https://world.mendix.com/display/refguide6/Call+Web+Service" xlink:title="https://world.mendix.com/display/refguide6/Call+Web+Service"><rect fill="#CFECFE" filter="url(#f1)" height="25.0938" style="stroke: #000000; stroke-width: 1.5;" width="132" x="187.82" y="8"/><text fill="#000000" font-family="sans-serif" font-size="12" lengthAdjust="spacingAndGlyphs" textLength="120" x="193.82" y="25.457">WebServiceCallAction</text></a><a xlink:href="https://world.mendix.com/display/refguide6/Call+Web+Service" xlink:title="https://world.mendix.com/display/refguide6/Call+Web+Service"><rect fill="#CFECFE" filter="url(#f1)" height="25.0938" style="stroke: #000000; stroke-width: 1.5;" width="108" x="199.82" y="111"/><text fill="#000000" font-family="sans-serif" font-size="12" lengthAdjust="spacingAndGlyphs" textLength="96" x="205.82" y="128.457">HttpConfiguration</text></a><rect fill="#CFECFE" filter="url(#f1)" height="25.0938" style="stroke: #000000; stroke-width: 1.5;" width="125" x="87.3201" y="214"/><text fill="#000000" font-family="sans-serif" font-size="12" lengthAdjust="spacingAndGlyphs" textLength="113" x="93.3201" y="231.457">MicroflowExpression</text><rect fill="#CFECFE" filter="url(#f1)" height="25.0938" style="stroke: #000000; stroke-width: 1.5;" width="102" x="486.82" y="214"/><text fill="#000000" font-family="sans-serif" font-size="12" lengthAdjust="spacingAndGlyphs" textLength="90" x="492.82" y="231.457">HttpHeaderEntry</text><path d="M253.82,46.373 C253.82,61.911 253.82,81.854 253.82,97.429 " fill="none" style="stroke: #000000; stroke-width: 1.0;"/><polygon fill="#000000" points="253.82,110.738,257.82,101.738,253.82,105.738,249.82,101.738,253.82,110.738" style="stroke: #000000; stroke-width: 1.0;"/><line style="stroke: #000000; stroke-width: 1.0;" x1="253.82" x2="253.82" y1="105.738" y2="97.738"/><polygon fill="#000000" points="253.82,33.086,249.82,39.086,253.82,45.086,257.82,39.086,253.82,33.086" style="stroke: #000000; stroke-width: 1.0;"/><text fill="#000000" font-family="sans-serif" font-size="13" lengthAdjust="spacingAndGlyphs" textLength="97" x="254.82" y="77.4951">httpConfiguration</text><path d="M186.653,126.681 C123.239,130.323 34.6877,140.045 12.8201,166 C-10.1688,193.2859 31.1301,208.4291 74.2519,216.6001 " fill="none" style="stroke: #000000; stroke-width: 1.0;"/><polygon fill="#000000" points="87.319,218.8694,79.1362,213.3884,82.3927,218.0139,77.7673,221.2704,87.319,218.8694" style="stroke: #000000; stroke-width: 1.0;"/><line style="stroke: #000000; stroke-width: 1.0;" x1="82.3927" x2="74.5107" y1="218.0139" y2="216.645"/><polygon fill="#000000" points="199.771,125.993,193.5696,122.313,187.7875,126.622,193.9889,130.302,199.771,125.993" style="stroke: #000000; stroke-width: 1.0;"/><text fill="#000000" font-family="sans-serif" font-size="13" lengthAdjust="spacingAndGlyphs" textLength="92" x="13.8201" y="180.4951">customLocation</text><path d="M187.085,136.646 C171.337,142.7948 156.369,152.0549 146.82,166 C139.924,176.0715 140.023,189.5021 142.134,201.0542 " fill="none" style="stroke: #000000; stroke-width: 1.0;"/><polygon fill="#000000" points="145.372,213.8616,147.0443,204.1558,144.1466,209.0141,139.2883,206.1164,145.372,213.8616" style="stroke: #000000; stroke-width: 1.0;"/><line style="stroke: #000000; stroke-width: 1.0;" x1="144.1466" x2="142.186" y1="209.0141" y2="201.2581"/><polygon fill="#000000" points="199.793,132.352,192.8283,130.4832,188.4244,136.1933,195.3892,138.0622,199.793,132.352" style="stroke: #000000; stroke-width: 1.0;"/><text fill="#000000" font-family="sans-serif" font-size="13" lengthAdjust="spacingAndGlyphs" textLength="166" x="147.82" y="180.4951">httpAuthenticationUserName</text><path d="M294.293,142.0752 C314.033,153.1562 331.131,168.3006 318.82,184 C306.902,199.1984 264.734,209.5671 225.505,216.1394 " fill="none" style="stroke: #000000; stroke-width: 1.0;"/><polygon fill="#000000" points="212.638,218.1827,222.1539,220.7219,217.5761,217.3986,220.8994,212.8209,212.638,218.1827" style="stroke: #000000; stroke-width: 1.0;"/><line style="stroke: #000000; stroke-width: 1.0;" x1="217.5761" x2="225.4765" y1="217.3986" y2="216.1437"/><polygon fill="#000000" points="282.567,136.047,286.0748,142.3474,293.2397,141.5327,289.7319,135.2323,282.567,136.047" style="stroke: #000000; stroke-width: 1.0;"/><text fill="#000000" font-family="sans-serif" font-size="13" lengthAdjust="spacingAndGlyphs" textLength="138" x="324.82" y="180.4951">authenticationPassword</text><path d="M321.007,127.879 C365.708,132.338 424.654,142.5798 471.82,166 C490.172,175.1124 507.246,190.7844 519.428,203.7571 " fill="none" style="stroke: #000000; stroke-width: 1.0;"/><polygon fill="#000000" points="528.432,213.816,525.4096,204.4424,525.0971,210.0906,519.4489,209.7781,528.432,213.816" style="stroke: #000000; stroke-width: 1.0;"/><line style="stroke: #000000; stroke-width: 1.0;" x1="525.0971" x2="519.762" y1="210.0906" y2="204.1296"/><polygon fill="#000000" points="307.916,126.696,313.5316,131.2198,319.8673,127.776,314.2517,123.2522,307.916,126.696" style="stroke: #000000; stroke-width: 1.0;"/><text fill="#000000" font-family="sans-serif" font-size="13" lengthAdjust="spacingAndGlyphs" textLength="92" x="499.82" y="180.4951">headerEntries[ ]</text></g></svg>