<?xml version="1.0" encoding="UTF-8" standalone="yes"?><svg xmlns="http://www.w3.org/2000/svg" xmlns:xlink="http://www.w3.org/1999/xlink" height="334px" style="width:408px;height:334px;" version="1.1" viewBox="0 0 408 334" width="408px"><defs><filter height="300%" id="f1" width="300%" x="-1" y="-1"><feGaussianBlur result="blurOut" stdDeviation="2.0"/><feColorMatrix in="blurOut" result="blurOut2" type="matrix" values="0 0 0 0 0 0 0 0 0 0 0 0 0 0 0 0 0 0 .4 0"/><feOffset dx="4.0" dy="4.0" in="blurOut2" result="blurOut3"/><feBlend in="SourceGraphic" in2="blurOut3" mode="normal"/></filter></defs><g><rect fill="#CFECFE" filter="url(#f1)" height="25.0938" style="stroke: #000000; stroke-width: 1.5;" width="128" x="66" y="94"/><text fill="#000000" font-family="sans-serif" font-size="12" lengthAdjust="spacingAndGlyphs" textLength="116" x="72" y="111.457">AppServiceCallAction</text><rect fill="#CFECFE" filter="url(#f1)" height="25.0938" style="stroke: #000000; stroke-width: 1.5;" width="106" x="6" y="197"/><text fill="#000000" font-family="sans-serif" font-size="12" lengthAdjust="spacingAndGlyphs" textLength="94" x="12" y="214.457">AppServiceAction</text><rect fill="#CFECFE" filter="url(#f1)" height="25.0938" style="stroke: #000000; stroke-width: 1.5;" width="200" x="147" y="197"/><text fill="#000000" font-family="sans-serif" font-size="12" lengthAdjust="spacingAndGlyphs" textLength="188" x="153" y="214.457">AppServiceCallParameterMapping</text><rect fill="#D3D3D3" filter="url(#f1)" height="25.0938" style="stroke: #000000; stroke-width: 1.5;" width="96" x="82" y="8"/><text fill="#000000" font-family="sans-serif" font-size="12" font-style="italic" lengthAdjust="spacingAndGlyphs" textLength="84" x="88" y="25.457">MicroflowAction</text><rect fill="#CFECFE" filter="url(#f1)" height="25.0938" style="stroke: #000000; stroke-width: 1.5;" width="164" x="75" y="300"/><text fill="#000000" font-family="sans-serif" font-size="12" lengthAdjust="spacingAndGlyphs" textLength="152" x="81" y="317.457">AppServiceActionParameter</text><rect fill="#CFECFE" filter="url(#f1)" height="25.0938" style="stroke: #000000; stroke-width: 1.5;" width="125" x="274.5" y="300"/><text fill="#000000" font-family="sans-serif" font-size="12" lengthAdjust="spacingAndGlyphs" textLength="113" x="280.5" y="317.457">MicroflowExpression</text><path d="M110.742,119.243 C100.0725,126.615 87.3225,136.99 79,149 C70.0926,161.854 64.8869,178.993 62.0319,191.574 " fill="none" style="stroke: #000000; stroke-width: 1.0;"/><polygon fill="#000000" points="60.9483,196.661,66.7352,188.6915,61.9897,191.7707,58.9106,187.0252,60.9483,196.661" style="stroke: #000000; stroke-width: 1.0;"/><text fill="#000000" font-family="sans-serif" font-size="13" lengthAdjust="spacingAndGlyphs" textLength="100" x="80" y="163.4951">appServiceAction</text><path d="M156.763,126.701 C165.903,133.517 176.067,141.389 185,149 C199.229,161.122 214.382,175.632 226.145,187.287 " fill="none" style="stroke: #000000; stroke-width: 1.0;"/><polygon fill="#000000" points="235.502,196.664,231.9758,187.468,231.97,193.1249,226.3132,193.1192,235.502,196.664" style="stroke: #000000; stroke-width: 1.0;"/><line style="stroke: #000000; stroke-width: 1.0;" x1="231.97" x2="226.3195" y1="193.1249" y2="187.462"/><polygon fill="#000000" points="146.275,119,148.7438,125.7753,155.9475,126.1024,153.4787,119.327,146.275,119" style="stroke: #000000; stroke-width: 1.0;"/><text fill="#000000" font-family="sans-serif" font-size="13" lengthAdjust="spacingAndGlyphs" textLength="126" x="206" y="163.4951">parameterMappings[ ]</text><path d="M130,53.183 C130,67.456 130,83.422 130,93.919 " fill="none" style="stroke: #000000; stroke-width: 1.0;"/><polygon fill="none" points="123,53.18,130,33.18,137,53.18,123,53.18" style="stroke: #000000; stroke-width: 1.0;"/><path d="M236.676,222.086 C220.487,240.2537 189.105,275.471 170.931,295.8661 " fill="none" style="stroke: #000000; stroke-width: 1.0;"/><polygon fill="#000000" points="167.481,299.738,176.455,295.6799,170.8075,296.0051,170.4823,290.3576,167.481,299.738" style="stroke: #000000; stroke-width: 1.0;"/><text fill="#000000" font-family="sans-serif" font-size="13" lengthAdjust="spacingAndGlyphs" textLength="58" x="209" y="266.4951">parameter</text><path d="M266.044,231.8714 C281.161,248.8361 302.216,272.4648 317.461,289.5728 " fill="none" style="stroke: #000000; stroke-width: 1.0;"/><polygon fill="#000000" points="326.519,299.738,323.5179,290.3575,323.1926,296.005,317.5451,295.6797,326.519,299.738" style="stroke: #000000; stroke-width: 1.0;"/><line style="stroke: #000000; stroke-width: 1.0;" x1="323.1926" x2="317.87" y1="296.005" y2="290.0323"/><polygon fill="#000000" points="257.324,222.086,258.3293,229.2267,265.3074,231.0451,264.3021,223.9044,257.324,222.086" style="stroke: #000000; stroke-width: 1.0;"/><text fill="#000000" font-family="sans-serif" font-size="13" lengthAdjust="spacingAndGlyphs" textLength="54" x="299" y="266.4951">argument</text></g></svg>