<?xml version="1.0" encoding="UTF-8" standalone="yes"?><svg xmlns="http://www.w3.org/2000/svg" xmlns:xlink="http://www.w3.org/1999/xlink" height="212px" style="width:449px;height:212px;" version="1.1" viewBox="0 0 449 212" width="449px"><defs><filter height="300%" id="f1" width="300%" x="-1" y="-1"><feGaussianBlur result="blurOut" stdDeviation="2.0"/><feColorMatrix in="blurOut" result="blurOut2" type="matrix" values="0 0 0 0 0 0 0 0 0 0 0 0 0 0 0 0 0 0 .4 0"/><feOffset dx="4.0" dy="4.0" in="blurOut2" result="blurOut3"/><feBlend in="SourceGraphic" in2="blurOut3" mode="normal"/></filter></defs><g><a xlink:href="https://world.mendix.com/display/refguide6/List+Operation" xlink:title="https://world.mendix.com/display/refguide6/List+Operation"><rect fill="#CFECFE" filter="url(#f1)" height="25.0938" style="stroke: #000000; stroke-width: 1.5;" width="62" x="6" y="178"/><text fill="#000000" font-family="sans-serif" font-size="12" lengthAdjust="spacingAndGlyphs" textLength="50" x="12" y="195.457">Contains</text></a><a xlink:href="https://world.mendix.com/display/refguide6/List+Operation" xlink:title="https://world.mendix.com/display/refguide6/List+Operation"><rect fill="#D3D3D3" filter="url(#f1)" height="25.0938" style="stroke: #000000; stroke-width: 1.5;" width="120" x="179" y="93"/><text fill="#000000" font-family="sans-serif" font-size="12" font-style="italic" lengthAdjust="spacingAndGlyphs" textLength="108" x="185" y="110.457">BinaryListOperation</text></a><a xlink:href="https://world.mendix.com/display/refguide6/List+Operation" xlink:title="https://world.mendix.com/display/refguide6/List+Operation"><rect fill="#CFECFE" filter="url(#f1)" height="25.0938" style="stroke: #000000; stroke-width: 1.5;" width="71" x="103.5" y="178"/><text fill="#000000" font-family="sans-serif" font-size="12" lengthAdjust="spacingAndGlyphs" textLength="59" x="109.5" y="195.457">ListEquals</text></a><a xlink:href="https://world.mendix.com/display/refguide6/List+Operation" xlink:title="https://world.mendix.com/display/refguide6/List+Operation"><rect fill="#CFECFE" filter="url(#f1)" height="25.0938" style="stroke: #000000; stroke-width: 1.5;" width="59" x="209.5" y="178"/><text fill="#000000" font-family="sans-serif" font-size="12" lengthAdjust="spacingAndGlyphs" textLength="47" x="215.5" y="195.457">Intersect</text></a><a xlink:href="https://world.mendix.com/display/refguide6/List+Operation" xlink:title="https://world.mendix.com/display/refguide6/List+Operation"><rect fill="#CFECFE" filter="url(#f1)" height="25.0938" style="stroke: #000000; stroke-width: 1.5;" width="57" x="303.5" y="178"/><text fill="#000000" font-family="sans-serif" font-size="12" lengthAdjust="spacingAndGlyphs" textLength="45" x="309.5" y="195.457">Subtract</text></a><a xlink:href="https://world.mendix.com/display/refguide6/List+Operation" xlink:title="https://world.mendix.com/display/refguide6/List+Operation"><rect fill="#CFECFE" filter="url(#f1)" height="25.0938" style="stroke: #000000; stroke-width: 1.5;" width="45" x="395.5" y="178"/><text fill="#000000" font-family="sans-serif" font-size="12" lengthAdjust="spacingAndGlyphs" textLength="33" x="401.5" y="195.457">Union</text></a><a xlink:href="https://world.mendix.com/display/refguide6/List+Operation" xlink:title="https://world.mendix.com/display/refguide6/List+Operation"><rect fill="#D3D3D3" filter="url(#f1)" height="25.0938" style="stroke: #000000; stroke-width: 1.5;" width="85" x="196.5" y="8"/><text fill="#000000" font-family="sans-serif" font-size="12" font-style="italic" lengthAdjust="spacingAndGlyphs" textLength="73" x="202.5" y="25.457">ListOperation</text></a><path d="M192.244,125.7116 C152.942,141.8605 98.059,164.4114 65.1736,177.9237 " fill="none" style="stroke: #000000; stroke-width: 1.0;"/><polygon fill="none" points="189.753,119.1673,210.913,118.0408,195.074,132.1168,189.753,119.1673" style="stroke: #000000; stroke-width: 1.0;"/><path d="M209.666,130.8471 C191.026,146.3184 167.735,165.6497 153.109,177.7897 " fill="none" style="stroke: #000000; stroke-width: 1.0;"/><polygon fill="none" points="205.235,125.4278,225.095,118.0408,214.176,136.2006,205.235,125.4278" style="stroke: #000000; stroke-width: 1.0;"/><path d="M239,138.1829 C239,152.0677 239,167.5078 239,177.7897 " fill="none" style="stroke: #000000; stroke-width: 1.0;"/><polygon fill="none" points="232,138.0408,239,118.0408,246,138.0408,232,138.0408" style="stroke: #000000; stroke-width: 1.0;"/><path d="M267.079,131.5601 C284.277,146.9085 305.484,165.8355 318.879,177.7897 " fill="none" style="stroke: #000000; stroke-width: 1.0;"/><polygon fill="none" points="262.192,136.5805,251.931,118.0408,271.514,126.1354,262.192,136.5805" style="stroke: #000000; stroke-width: 1.0;"/><path d="M282.069,126.4704 C317.699,142.9919 366.908,165.8094 395.301,178.9748 " fill="none" style="stroke: #000000; stroke-width: 1.0;"/><polygon fill="none" points="279.089,132.8047,263.889,118.0408,284.978,120.1036,279.089,132.8047" style="stroke: #000000; stroke-width: 1.0;"/><path d="M239,53.183 C239,67.068 239,82.508 239,92.79 " fill="none" style="stroke: #000000; stroke-width: 1.0;"/><polygon fill="none" points="232,53.041,239,33.041,246,53.041,232,53.041" style="stroke: #000000; stroke-width: 1.0;"/></g></svg>