<?xml version="1.0" encoding="UTF-8" standalone="yes"?><svg xmlns="http://www.w3.org/2000/svg" xmlns:xlink="http://www.w3.org/1999/xlink" height="231px" style="width:344px;height:231px;" version="1.1" viewBox="0 0 344 231" width="344px"><defs><filter height="300%" id="f1" width="300%" x="-1" y="-1"><feGaussianBlur result="blurOut" stdDeviation="2.0"/><feColorMatrix in="blurOut" result="blurOut2" type="matrix" values="0 0 0 0 0 0 0 0 0 0 0 0 0 0 0 0 0 0 .4 0"/><feOffset dx="4.0" dy="4.0" in="blurOut2" result="blurOut3"/><feBlend in="SourceGraphic" in2="blurOut3" mode="normal"/></filter></defs><g><a xlink:href="https://world.mendix.com/display/refguide6/Change+Variable" xlink:title="https://world.mendix.com/display/refguide6/Change+Variable"><rect fill="#CFECFE" filter="url(#f1)" height="25.0938" style="stroke: #000000; stroke-width: 1.5;" width="134" x="6" y="94"/><text fill="#000000" font-family="sans-serif" font-size="12" lengthAdjust="spacingAndGlyphs" textLength="122" x="12" y="111.457">ChangeVariableAction</text></a><rect fill="#CFECFE" filter="url(#f1)" height="25.0938" style="stroke: #000000; stroke-width: 1.5;" width="125" x="33.5" y="197"/><text fill="#000000" font-family="sans-serif" font-size="12" lengthAdjust="spacingAndGlyphs" textLength="113" x="39.5" y="214.457">MicroflowExpression</text><rect fill="#D3D3D3" filter="url(#f1)" height="25.0938" style="stroke: #000000; stroke-width: 1.5;" width="96" x="123" y="8"/><text fill="#000000" font-family="sans-serif" font-size="12" font-style="italic" lengthAdjust="spacingAndGlyphs" textLength="84" x="129" y="25.457">MicroflowAction</text><a xlink:href="https://world.mendix.com/display/refguide6/Create+Variable" xlink:title="https://world.mendix.com/display/refguide6/Create+Variable"><rect fill="#CFECFE" filter="url(#f1)" height="25.0938" style="stroke: #000000; stroke-width: 1.5;" width="127" x="175.5" y="94"/><text fill="#000000" font-family="sans-serif" font-size="12" lengthAdjust="spacingAndGlyphs" textLength="115" x="181.5" y="111.457">CreateVariableAction</text></a><rect fill="#CFECFE" filter="url(#f1)" height="25.0938" style="stroke: #000000; stroke-width: 1.5;" width="64" x="217" y="197"/><text fill="#000000" font-family="sans-serif" font-size="12" lengthAdjust="spacingAndGlyphs" textLength="52" x="223" y="214.457">DataType</text><path d="M68.204,132.0449 C66.9768,142.9399 66.7821,155.8028 70,167 C71.8684,173.5013 75.0868,179.9701 78.6355,185.7985 " fill="none" style="stroke: #000000; stroke-width: 1.0;"/><polygon fill="#000000" points="86.0574,196.6683,84.2858,186.9801,83.238,192.539,77.679,191.4912,86.0574,196.6683" style="stroke: #000000; stroke-width: 1.0;"/><line style="stroke: #000000; stroke-width: 1.0;" x1="83.238" x2="78.7268" y1="192.539" y2="185.9322"/><polygon fill="#000000" points="70.2117,119.162,65.3355,124.4745,68.3638,131.0189,73.2401,125.7064,70.2117,119.162" style="stroke: #000000; stroke-width: 1.0;"/><text fill="#000000" font-family="sans-serif" font-size="13" lengthAdjust="spacingAndGlyphs" textLength="29" x="71" y="163.4951">value</text><path d="M142.158,46.222 C123.772,61.981 100.799,81.672 86.5107,93.919 " fill="none" style="stroke: #000000; stroke-width: 1.0;"/><polygon fill="none" points="137.633,40.881,157.374,33.18,146.744,51.511,137.633,40.881" style="stroke: #000000; stroke-width: 1.0;"/><path d="M241.433,132.0746 C242.973,147.6313 244.96,167.6918 246.511,183.3566 " fill="none" style="stroke: #000000; stroke-width: 1.0;"/><polygon fill="#000000" points="247.835,196.738,250.9287,187.3877,247.3423,191.7623,242.9676,188.1759,247.835,196.738" style="stroke: #000000; stroke-width: 1.0;"/><line style="stroke: #000000; stroke-width: 1.0;" x1="247.3423" x2="246.5545" y1="191.7623" y2="183.8013"/><polygon fill="#000000" points="240.147,119.086,236.7577,125.4509,241.3294,131.0276,244.7187,124.6627,240.147,119.086" style="stroke: #000000; stroke-width: 1.0;"/><text fill="#000000" font-family="sans-serif" font-size="13" lengthAdjust="spacingAndGlyphs" textLength="98" x="245" y="163.4951">variableDataType</text><path d="M206.457,125.8441 C194.744,132.7653 181.571,140.9244 170,149 C152.334,161.3303 133.419,176.5776 119.136,188.5503 " fill="none" style="stroke: #000000; stroke-width: 1.0;"/><polygon fill="#000000" points="109.213,196.965,118.6644,194.1953,113.0266,193.7314,113.4906,188.0936,109.213,196.965" style="stroke: #000000; stroke-width: 1.0;"/><line style="stroke: #000000; stroke-width: 1.0;" x1="113.0266" x2="119.1275" y1="193.7314" y2="188.5571"/><polygon fill="#000000" points="218.007,119.135,210.8096,118.6899,207.6306,125.1624,214.8279,125.6075,218.007,119.135" style="stroke: #000000; stroke-width: 1.0;"/><text fill="#000000" font-family="sans-serif" font-size="13" lengthAdjust="spacingAndGlyphs" textLength="63" x="171" y="163.4951">initialValue</text><path d="M193.39,49.158 C205.7,64.365 220.318,82.422 229.625,93.919 " fill="none" style="stroke: #000000; stroke-width: 1.0;"/><polygon fill="none" points="187.598,53.129,180.455,33.18,198.48,44.32,187.598,53.129" style="stroke: #000000; stroke-width: 1.0;"/></g></svg>