<?xml version="1.0" encoding="UTF-8" standalone="yes"?><svg xmlns="http://www.w3.org/2000/svg" xmlns:xlink="http://www.w3.org/1999/xlink" height="437px" style="width:394px;height:437px;" version="1.1" viewBox="0 0 394 437" width="394px"><defs><filter height="300%" id="f1" width="300%" x="-1" y="-1"><feGaussianBlur result="blurOut" stdDeviation="2.0"/><feColorMatrix in="blurOut" result="blurOut2" type="matrix" values="0 0 0 0 0 0 0 0 0 0 0 0 0 0 0 0 0 0 .4 0"/><feOffset dx="4.0" dy="4.0" in="blurOut2" result="blurOut3"/><feBlend in="SourceGraphic" in2="blurOut3" mode="normal"/></filter></defs><g><a xlink:href="https://world.mendix.com/display/refguide6/Annotation+Flow" xlink:title="https://world.mendix.com/display/refguide6/Annotation+Flow"><rect fill="#CFECFE" filter="url(#f1)" height="25.0938" style="stroke: #000000; stroke-width: 1.5;" width="96" x="27.5" y="111"/><text fill="#000000" font-family="sans-serif" font-size="12" lengthAdjust="spacingAndGlyphs" textLength="84" x="33.5" y="128.457">AnnotationFlow</text></a><rect fill="#D3D3D3" filter="url(#f1)" height="25.0938" style="stroke: #000000; stroke-width: 1.5;" width="37" x="216" y="8"/><text fill="#000000" font-family="sans-serif" font-size="12" font-style="italic" lengthAdjust="spacingAndGlyphs" textLength="25" x="222" y="25.457">Flow</text><a xlink:href="https://world.mendix.com/display/refguide6/Sequence+Flow" xlink:title="https://world.mendix.com/display/refguide6/Sequence+Flow"><rect fill="#CFECFE" filter="url(#f1)" height="25.0938" style="stroke: #000000; stroke-width: 1.5;" width="94" x="158.5" y="111"/><text fill="#000000" font-family="sans-serif" font-size="12" lengthAdjust="spacingAndGlyphs" textLength="82" x="164.5" y="128.457">SequenceFlow</text></a><a xlink:href="https://world.mendix.com/display/refguide6/Sequence+Flow" xlink:title="https://world.mendix.com/display/refguide6/Sequence+Flow"><rect fill="#D3D3D3" filter="url(#f1)" height="25.0938" style="stroke: #000000; stroke-width: 1.5;" width="73" x="169" y="214"/><text fill="#000000" font-family="sans-serif" font-size="12" font-style="italic" lengthAdjust="spacingAndGlyphs" textLength="61" x="175" y="231.457">CaseValue</text></a><rect fill="#CFECFE" filter="url(#f1)" height="25.0938" style="stroke: #000000; stroke-width: 1.5;" width="98" x="287.5" y="111"/><text fill="#000000" font-family="sans-serif" font-size="12" lengthAdjust="spacingAndGlyphs" textLength="86" x="293.5" y="128.457">MicroflowObject</text><a xlink:href="https://world.mendix.com/display/refguide6/Sequence+Flow" xlink:title="https://world.mendix.com/display/refguide6/Sequence+Flow"><rect fill="#CFECFE" filter="url(#f1)" height="25.0938" style="stroke: #000000; stroke-width: 1.5;" width="113" x="6" y="300"/><text fill="#000000" font-family="sans-serif" font-size="12" lengthAdjust="spacingAndGlyphs" textLength="101" x="12" y="317.457">EnumerationCase</text></a><a xlink:href="https://world.mendix.com/display/refguide6/Sequence+Flow" xlink:title="https://world.mendix.com/display/refguide6/Sequence+Flow"><rect fill="#CFECFE" filter="url(#f1)" height="25.0938" style="stroke: #000000; stroke-width: 1.5;" width="103" x="154" y="300"/><text fill="#000000" font-family="sans-serif" font-size="12" lengthAdjust="spacingAndGlyphs" textLength="91" x="160" y="317.457">InheritanceCase</text></a><rect fill="#CFECFE" filter="url(#f1)" height="25.0938" style="stroke: #000000; stroke-width: 1.5;" width="41" x="185" y="403"/><text fill="#000000" font-family="sans-serif" font-size="12" lengthAdjust="spacingAndGlyphs" textLength="29" x="191" y="420.457">Entity</text><a xlink:href="https://world.mendix.com/display/refguide6/Sequence+Flow" xlink:title="https://world.mendix.com/display/refguide6/Sequence+Flow"><rect fill="#CFECFE" filter="url(#f1)" height="25.0938" style="stroke: #000000; stroke-width: 1.5;" width="58" x="292.5" y="300"/><text fill="#000000" font-family="sans-serif" font-size="12" lengthAdjust="spacingAndGlyphs" textLength="46" x="298.5" y="317.457">NoCase</text></a><path d="M199.048,44.02 C166.54,64.67 119.672,94.441 94.0164,110.738 " fill="none" style="stroke: #000000; stroke-width: 1.0;"/><polygon fill="none" points="195.625,37.901,216.261,33.086,203.132,49.718,195.625,37.901" style="stroke: #000000; stroke-width: 1.0;"/><path d="M205.5,149.373 C205.5,164.911 205.5,184.854 205.5,200.429 " fill="none" style="stroke: #000000; stroke-width: 1.0;"/><polygon fill="#000000" points="205.5,213.738,209.5,204.738,205.5,208.738,201.5,204.738,205.5,213.738" style="stroke: #000000; stroke-width: 1.0;"/><line style="stroke: #000000; stroke-width: 1.0;" x1="205.5" x2="205.5" y1="208.738" y2="200.738"/><polygon fill="#000000" points="205.5,136.086,201.5,142.086,205.5,148.086,209.5,142.086,205.5,136.086" style="stroke: #000000; stroke-width: 1.0;"/><text fill="#000000" font-family="sans-serif" font-size="13" lengthAdjust="spacingAndGlyphs" textLength="61" x="206.5" y="180.4951">caseValue</text><path d="M225.587,52.543 C219.934,72.23 212.944,96.573 208.877,110.738 " fill="none" style="stroke: #000000; stroke-width: 1.0;"/><polygon fill="none" points="218.926,50.377,231.173,33.086,232.382,54.241,218.926,50.377" style="stroke: #000000; stroke-width: 1.0;"/><path d="M237.195,33.274 C240.681,46.279 247.861,67.2 260.5,81 C271.355,92.853 286.399,102.044 300.24,108.729 " fill="none" style="stroke: #000000; stroke-width: 1.0; stroke-dasharray: 7.0,7.0;"/><polygon fill="#000000" points="304.88,110.9,298.4249,103.4615,300.3516,108.7801,295.033,110.7069,304.88,110.9" style="stroke: #000000; stroke-width: 1.0;"/><text fill="#000000" font-family="sans-serif" font-size="13" lengthAdjust="spacingAndGlyphs" textLength="31" x="261.5" y="77.4951">origin</text><path d="M253.038,31.027 C266.417,38.505 284.364,49.834 297.5,63 C310.397,75.927 321.405,93.767 328.405,106.535 " fill="none" style="stroke: #000000; stroke-width: 1.0; stroke-dasharray: 7.0,7.0;"/><polygon fill="#000000" points="330.798,110.991,330.0644,101.1695,328.4326,106.5859,323.0162,104.9541,330.798,110.991" style="stroke: #000000; stroke-width: 1.0;"/><text fill="#000000" font-family="sans-serif" font-size="13" lengthAdjust="spacingAndGlyphs" textLength="63" x="313.5" y="77.4951">destination</text><path d="M168.586,249.184 C141.061,265.352 104.5274,286.813 82.3061,299.866 " fill="none" style="stroke: #000000; stroke-width: 1.0;"/><polygon fill="none" points="165.126,243.098,185.916,239.004,172.217,255.169,165.126,243.098" style="stroke: #000000; stroke-width: 1.0;"/><path d="M205.5,325.086 C205.5,342.8752 205.5,377.011 205.5,397.5724 " fill="none" style="stroke: #000000; stroke-width: 1.0;"/><polygon fill="#000000" points="205.5,402.738,209.5,393.738,205.5,397.738,201.5,393.738,205.5,402.738" style="stroke: #000000; stroke-width: 1.0;"/><text fill="#000000" font-family="sans-serif" font-size="13" lengthAdjust="spacingAndGlyphs" textLength="29" x="206.5" y="369.4951">value</text><path d="M205.5,259.183 C205.5,273.456 205.5,289.422 205.5,299.919 " fill="none" style="stroke: #000000; stroke-width: 1.0;"/><polygon fill="none" points="198.5,259.18,205.5,239.18,212.5,259.18,198.5,259.18" style="stroke: #000000; stroke-width: 1.0;"/><path d="M237.985,251.023 C260.009,266.972 288.164,287.36 305.508,299.919 " fill="none" style="stroke: #000000; stroke-width: 1.0;"/><polygon fill="none" points="233.723,256.58,221.629,239.18,241.934,245.24,233.723,256.58" style="stroke: #000000; stroke-width: 1.0;"/></g></svg>