<?xml version="1.0" encoding="UTF-8" standalone="yes"?><svg xmlns="http://www.w3.org/2000/svg" xmlns:xlink="http://www.w3.org/1999/xlink" height="231px" style="width:440px;height:231px;" version="1.1" viewBox="0 0 440 231" width="440px"><defs><filter height="300%" id="f1" width="300%" x="-1" y="-1"><feGaussianBlur result="blurOut" stdDeviation="2.0"/><feColorMatrix in="blurOut" result="blurOut2" type="matrix" values="0 0 0 0 0 0 0 0 0 0 0 0 0 0 0 0 0 0 .4 0"/><feOffset dx="4.0" dy="4.0" in="blurOut2" result="blurOut3"/><feBlend in="SourceGraphic" in2="blurOut3" mode="normal"/></filter></defs><g><a xlink:href="https://world.mendix.com/display/refguide6/Log+Message" xlink:title="https://world.mendix.com/display/refguide6/Log+Message"><rect fill="#CFECFE" filter="url(#f1)" height="25.0938" style="stroke: #000000; stroke-width: 1.5;" width="117" x="236" y="94"/><text fill="#000000" font-family="sans-serif" font-size="12" lengthAdjust="spacingAndGlyphs" textLength="105" x="242" y="111.457">LogMessageAction</text></a><rect fill="#CFECFE" filter="url(#f1)" height="25.0938" style="stroke: #000000; stroke-width: 1.5;" width="125" x="306" y="197"/><text fill="#000000" font-family="sans-serif" font-size="12" lengthAdjust="spacingAndGlyphs" textLength="113" x="312" y="214.457">MicroflowExpression</text><rect fill="#CFECFE" filter="url(#f1)" height="25.0938" style="stroke: #000000; stroke-width: 1.5;" width="96" x="165.5" y="197"/><text fill="#000000" font-family="sans-serif" font-size="12" lengthAdjust="spacingAndGlyphs" textLength="84" x="171.5" y="214.457">StringTemplate</text><rect fill="#D3D3D3" filter="url(#f1)" height="25.0938" style="stroke: #000000; stroke-width: 1.5;" width="96" x="246.5" y="8"/><text fill="#000000" font-family="sans-serif" font-size="12" font-style="italic" lengthAdjust="spacingAndGlyphs" textLength="84" x="252.5" y="25.457">MicroflowAction</text><rect fill="#D3D3D3" filter="url(#f1)" height="25.0938" style="stroke: #000000; stroke-width: 1.5;" width="64" x="47.5" y="94"/><text fill="#000000" font-family="sans-serif" font-size="12" font-style="italic" lengthAdjust="spacingAndGlyphs" textLength="52" x="53.5" y="111.457">Template</text><rect fill="#CFECFE" filter="url(#f1)" height="25.0938" style="stroke: #000000; stroke-width: 1.5;" width="117" x="6" y="197"/><text fill="#000000" font-family="sans-serif" font-size="12" lengthAdjust="spacingAndGlyphs" textLength="105" x="12" y="214.457">TemplateArgument</text><path d="M313.851,129.4441 C319.085,135.6449 324.643,142.4817 329.5,149 C338.28,160.7823 347.322,174.4636 354.487,185.7343 " fill="none" style="stroke: #000000; stroke-width: 1.0;"/><polygon fill="#000000" points="361.423,196.8142,360.0378,187.0632,358.7699,192.5762,353.257,191.3082,361.423,196.8142" style="stroke: #000000; stroke-width: 1.0;"/><line style="stroke: #000000; stroke-width: 1.0;" x1="358.7699" x2="354.5245" y1="192.5762" y2="185.7952"/><polygon fill="#000000" points="305,119.176,305.8876,126.3323,312.8347,128.2654,311.9472,121.1091,305,119.176" style="stroke: #000000; stroke-width: 1.0;"/><text fill="#000000" font-family="sans-serif" font-size="13" lengthAdjust="spacingAndGlyphs" textLength="28" x="343.5" y="163.4951">node</text><path d="M240.428,124.744 C229.73,130.7062 219.854,138.6044 213.5,149 C207.288,159.1633 206.672,172.243 207.871,183.5497 " fill="none" style="stroke: #000000; stroke-width: 1.0;"/><polygon fill="#000000" points="210.077,196.5702,212.5179,187.0286,209.242,191.6404,204.6302,188.3646,210.077,196.5702" style="stroke: #000000; stroke-width: 1.0;"/><line style="stroke: #000000; stroke-width: 1.0;" x1="209.242" x2="207.9055" y1="191.6404" y2="183.7528"/><polygon fill="#000000" points="252.233,119.008,245.0882,118.0324,241.4396,124.2524,248.5844,125.228,252.233,119.008" style="stroke: #000000; stroke-width: 1.0;"/><text fill="#000000" font-family="sans-serif" font-size="13" lengthAdjust="spacingAndGlyphs" textLength="106" x="214.5" y="163.4951">messageTemplate</text><path d="M294.5,53.183 C294.5,67.456 294.5,83.422 294.5,93.919 " fill="none" style="stroke: #000000; stroke-width: 1.0;"/><polygon fill="none" points="287.5,53.18,294.5,33.18,301.5,53.18,287.5,53.18" style="stroke: #000000; stroke-width: 1.0;"/><path d="M114.083,130.2671 C122.809,136.2182 132.086,142.727 140.5,149 C161.866,164.9292 185.619,184.6955 200.057,196.9547 " fill="none" style="stroke: #000000; stroke-width: 1.0;"/><polygon fill="none" points="110.119,136.0372,97.4004,119.089,117.912,124.4065,110.119,136.0372" style="stroke: #000000; stroke-width: 1.0;"/><path d="M67.2655,131.1731 C64.8812,136.8662 62.7387,143.031 61.5,149 C59.1593,160.2792 59.4231,173.0061 60.4682,183.7861 " fill="none" style="stroke: #000000; stroke-width: 1.0;"/><polygon fill="#000000" points="62.2065,196.9607,64.9948,187.5148,61.5524,192.0037,57.0636,188.5613,62.2065,196.9607" style="stroke: #000000; stroke-width: 1.0;"/><line style="stroke: #000000; stroke-width: 1.0;" x1="61.5524" x2="60.5059" y1="192.0037" y2="184.0724"/><polygon fill="#000000" points="72.9562,119.06,66.7846,122.7898,67.8538,129.9212,74.0254,126.1914,72.9562,119.06" style="stroke: #000000; stroke-width: 1.0;"/><text fill="#000000" font-family="sans-serif" font-size="13" lengthAdjust="spacingAndGlyphs" textLength="73" x="62.5" y="163.4951">arguments[ ]</text></g></svg>