<?xml version="1.0" encoding="UTF-8" standalone="yes"?><svg xmlns="http://www.w3.org/2000/svg" xmlns:xlink="http://www.w3.org/1999/xlink" height="334px" style="width:1058px;height:334px;" version="1.1" viewBox="0 0 1058 334" width="1058px"><defs><filter height="300%" id="f1" width="300%" x="-1" y="-1"><feGaussianBlur result="blurOut" stdDeviation="2.0"/><feColorMatrix in="blurOut" result="blurOut2" type="matrix" values="0 0 0 0 0 0 0 0 0 0 0 0 0 0 0 0 0 0 .4 0"/><feOffset dx="4.0" dy="4.0" in="blurOut2" result="blurOut3"/><feBlend in="SourceGraphic" in2="blurOut3" mode="normal"/></filter></defs><g><a xlink:href="https://world.mendix.com/display/refguide6/Close+Form" xlink:title="https://world.mendix.com/display/refguide6/Close+Form"><rect fill="#CFECFE" filter="url(#f1)" height="25.0938" style="stroke: #000000; stroke-width: 1.5;" width="107" x="6" y="94"/><text fill="#000000" font-family="sans-serif" font-size="12" lengthAdjust="spacingAndGlyphs" textLength="95" x="12" y="111.457">CloseFormAction</text></a><rect fill="#D3D3D3" filter="url(#f1)" height="25.0938" style="stroke: #000000; stroke-width: 1.5;" width="96" x="402.5" y="8"/><text fill="#000000" font-family="sans-serif" font-size="12" font-style="italic" lengthAdjust="spacingAndGlyphs" textLength="84" x="408.5" y="25.457">MicroflowAction</text><a xlink:href="https://world.mendix.com/display/refguide6/Download+File" xlink:title="https://world.mendix.com/display/refguide6/Download+File"><rect fill="#CFECFE" filter="url(#f1)" height="25.0938" style="stroke: #000000; stroke-width: 1.5;" width="121" x="148" y="94"/><text fill="#000000" font-family="sans-serif" font-size="12" lengthAdjust="spacingAndGlyphs" textLength="109" x="154" y="111.457">DownloadFileAction</text></a><a xlink:href="https://world.mendix.com/display/refguide6/Show+Message" xlink:title="https://world.mendix.com/display/refguide6/Show+Message"><rect fill="#CFECFE" filter="url(#f1)" height="25.0938" style="stroke: #000000; stroke-width: 1.5;" width="127" x="492" y="94"/><text fill="#000000" font-family="sans-serif" font-size="12" lengthAdjust="spacingAndGlyphs" textLength="115" x="498" y="111.457">ShowMessageAction</text></a><rect fill="#CFECFE" filter="url(#f1)" height="25.0938" style="stroke: #000000; stroke-width: 1.5;" width="86" x="517.5" y="197"/><text fill="#000000" font-family="sans-serif" font-size="12" lengthAdjust="spacingAndGlyphs" textLength="74" x="523.5" y="214.457">TextTemplate</text><a xlink:href="https://world.mendix.com/display/refguide6/Show+Home+Page" xlink:title="https://world.mendix.com/display/refguide6/Show+Home+Page"><rect fill="#CFECFE" filter="url(#f1)" height="25.0938" style="stroke: #000000; stroke-width: 1.5;" width="139" x="754" y="94"/><text fill="#000000" font-family="sans-serif" font-size="12" lengthAdjust="spacingAndGlyphs" textLength="127" x="760" y="111.457">ShowHomePageAction</text></a><a xlink:href="https://world.mendix.com/display/refguide6/Show+Page" xlink:title="https://world.mendix.com/display/refguide6/Show+Page"><rect fill="#CFECFE" filter="url(#f1)" height="25.0938" style="stroke: #000000; stroke-width: 1.5;" width="105" x="928" y="94"/><text fill="#000000" font-family="sans-serif" font-size="12" lengthAdjust="spacingAndGlyphs" textLength="93" x="934" y="111.457">ShowPageAction</text></a><rect fill="#CFECFE" filter="url(#f1)" height="25.0938" style="stroke: #000000; stroke-width: 1.5;" width="86" x="937.5" y="197"/><text fill="#000000" font-family="sans-serif" font-size="12" lengthAdjust="spacingAndGlyphs" textLength="74" x="943.5" y="214.457">PageSettings</text><a xlink:href="https://world.mendix.com/display/refguide6/Validation+Feedback" xlink:title="https://world.mendix.com/display/refguide6/Validation+Feedback"><rect fill="#CFECFE" filter="url(#f1)" height="25.0938" style="stroke: #000000; stroke-width: 1.5;" width="153" x="304" y="94"/><text fill="#000000" font-family="sans-serif" font-size="12" lengthAdjust="spacingAndGlyphs" textLength="141" x="310" y="111.457">ValidationFeedbackAction</text></a><rect fill="#CFECFE" filter="url(#f1)" height="25.0938" style="stroke: #000000; stroke-width: 1.5;" width="56" x="166.5" y="197"/><text fill="#000000" font-family="sans-serif" font-size="12" lengthAdjust="spacingAndGlyphs" textLength="44" x="172.5" y="214.457">Attribute</text><rect fill="#CFECFE" filter="url(#f1)" height="25.0938" style="stroke: #000000; stroke-width: 1.5;" width="105" x="258" y="197"/><text fill="#000000" font-family="sans-serif" font-size="12" lengthAdjust="spacingAndGlyphs" textLength="93" x="264" y="214.457">AssociationBase</text><rect fill="#CFECFE" filter="url(#f1)" height="25.0938" style="stroke: #000000; stroke-width: 1.5;" width="34" x="543.5" y="300"/><text fill="#000000" font-family="sans-serif" font-size="12" lengthAdjust="spacingAndGlyphs" textLength="22" x="549.5" y="317.457">Text</text><rect fill="#D3D3D3" filter="url(#f1)" height="25.0938" style="stroke: #000000; stroke-width: 1.5;" width="64" x="654.5" y="94"/><text fill="#000000" font-family="sans-serif" font-size="12" font-style="italic" lengthAdjust="spacingAndGlyphs" textLength="52" x="660.5" y="111.457">Template</text><rect fill="#CFECFE" filter="url(#f1)" height="25.0938" style="stroke: #000000; stroke-width: 1.5;" width="117" x="770" y="197"/><text fill="#000000" font-family="sans-serif" font-size="12" lengthAdjust="spacingAndGlyphs" textLength="105" x="776" y="214.457">TemplateArgument</text><rect fill="#CFECFE" filter="url(#f1)" height="25.0938" style="stroke: #000000; stroke-width: 1.5;" width="96" x="638.5" y="197"/><text fill="#000000" font-family="sans-serif" font-size="12" lengthAdjust="spacingAndGlyphs" textLength="84" x="644.5" y="214.457">StringTemplate</text><rect fill="#CFECFE" filter="url(#f1)" height="25.0938" style="stroke: #000000; stroke-width: 1.5;" width="125" x="766" y="300"/><text fill="#000000" font-family="sans-serif" font-size="12" lengthAdjust="spacingAndGlyphs" textLength="113" x="772" y="317.457">MicroflowExpression</text><path d="M382.341,36.143 C305.765,52.594 183.051,78.957 113.04,93.998 " fill="none" style="stroke: #000000; stroke-width: 1.0;"/><polygon fill="none" points="381.139,29.241,402.164,31.884,384.08,42.929,381.139,29.241" style="stroke: #000000; stroke-width: 1.0;"/><path d="M398.174,39.663 C350.799,56.107 282.426,79.84 242.018,93.866 " fill="none" style="stroke: #000000; stroke-width: 1.0;"/><polygon fill="none" points="396.169,32.949,417.358,33.004,400.76,46.175,396.169,32.949" style="stroke: #000000; stroke-width: 1.0;"/><path d="M556.717,132.075 C557.487,147.631 558.48,167.692 559.255,183.357 " fill="none" style="stroke: #000000; stroke-width: 1.0;"/><polygon fill="#000000" points="559.918,196.738,563.4681,187.5512,559.6708,191.7441,555.4778,187.9468,559.918,196.738" style="stroke: #000000; stroke-width: 1.0;"/><line style="stroke: #000000; stroke-width: 1.0;" x1="559.6708" x2="559.2745" y1="191.7441" y2="183.754"/><polygon fill="#000000" points="556.074,119.086,552.3756,125.2765,556.6674,131.0713,560.3658,124.8809,556.074,119.086" style="stroke: #000000; stroke-width: 1.0;"/><text fill="#000000" font-family="sans-serif" font-size="13" lengthAdjust="spacingAndGlyphs" textLength="50" x="558.5" y="163.4951">template</text><path d="M480.801,45.74 C500.599,61.579 525.559,81.547 541.024,93.919 " fill="none" style="stroke: #000000; stroke-width: 1.0;"/><polygon fill="none" points="476.344,51.14,465.1,33.18,485.09,40.208,476.344,51.14" style="stroke: #000000; stroke-width: 1.0;"/><path d="M518.798,36.881 C591.954,53.355 706.384,79.125 772.215,93.951 " fill="none" style="stroke: #000000; stroke-width: 1.0;"/><polygon fill="none" points="516.854,43.618,498.881,32.395,519.93,29.96,516.854,43.618" style="stroke: #000000; stroke-width: 1.0;"/><path d="M980.5,132.373 C980.5,147.911 980.5,167.854 980.5,183.429 " fill="none" style="stroke: #000000; stroke-width: 1.0;"/><polygon fill="#000000" points="980.5,196.738,984.5,187.738,980.5,191.738,976.5,187.738,980.5,196.738" style="stroke: #000000; stroke-width: 1.0;"/><line style="stroke: #000000; stroke-width: 1.0;" x1="980.5" x2="980.5" y1="191.738" y2="183.738"/><polygon fill="#000000" points="980.5,119.086,976.5,125.086,980.5,131.086,984.5,125.086,980.5,119.086" style="stroke: #000000; stroke-width: 1.0;"/><text fill="#000000" font-family="sans-serif" font-size="13" lengthAdjust="spacingAndGlyphs" textLength="76" x="981.5" y="163.4951">pageSettings</text><path d="M518.389,32.058 C608.153,46.052 771.245,71.588 910.5,94 C916.093,94.9 921.937,95.848 927.759,96.798 " fill="none" style="stroke: #000000; stroke-width: 1.0;"/><polygon fill="none" points="517.213,38.96,498.529,28.964,519.368,25.127,517.213,38.96" style="stroke: #000000; stroke-width: 1.0;"/><path d="M398.785,129.186 C410.266,141.668 425.989,156.843 442.5,167 C461.48,178.676 484.204,187.66 504.62,194.233 " fill="none" style="stroke: #000000; stroke-width: 1.0;"/><polygon fill="#000000" points="517.309,198.113,509.8721,191.656,512.5276,196.6509,507.5327,199.3063,517.309,198.113" style="stroke: #000000; stroke-width: 1.0;"/><line style="stroke: #000000; stroke-width: 1.0;" x1="512.5276" x2="504.8775" y1="196.6509" y2="194.312"/><polygon fill="#000000" points="389.874,119.103,390.8498,126.2478,397.8203,128.095,396.8445,120.9502,389.874,119.103" style="stroke: #000000; stroke-width: 1.0;"/><text fill="#000000" font-family="sans-serif" font-size="13" lengthAdjust="spacingAndGlyphs" textLength="105" x="443.5" y="163.4951">feedbackTemplate</text><path d="M318.689,119.055 C294.838,125.396 268.144,134.929 246.5,149 C229.139,160.286 214.174,178.948 204.814,192.364 " fill="none" style="stroke: #000000; stroke-width: 1.0;"/><polygon fill="#000000" points="201.859,196.695,210.2362,191.516,204.6775,192.5651,203.6284,187.0064,201.859,196.695" style="stroke: #000000; stroke-width: 1.0;"/><text fill="#000000" font-family="sans-serif" font-size="13" lengthAdjust="spacingAndGlyphs" textLength="47" x="247.5" y="163.4951">attribute</text><path d="M344.221,119.073 C330.177,125.528 315.564,135.139 307.5,149 C300.036,161.829 301.883,178.971 304.947,191.56 " fill="none" style="stroke: #000000; stroke-width: 1.0;"/><polygon fill="#000000" points="306.311,196.651,307.8452,186.9224,305.0168,191.8214,300.1178,188.9931,306.311,196.651" style="stroke: #000000; stroke-width: 1.0;"/><text fill="#000000" font-family="sans-serif" font-size="13" lengthAdjust="spacingAndGlyphs" textLength="66" x="308.5" y="163.4951">association</text><path d="M427.864,48.663 C415.107,63.971 399.836,82.297 390.151,93.919 " fill="none" style="stroke: #000000; stroke-width: 1.0;"/><polygon fill="none" points="422.586,44.063,440.767,33.18,433.341,53.026,422.586,44.063" style="stroke: #000000; stroke-width: 1.0;"/><path d="M560.5,235.3726 C560.5,250.911 560.5,270.8535 560.5,286.4291 " fill="none" style="stroke: #000000; stroke-width: 1.0;"/><polygon fill="#000000" points="560.5,299.738,564.5,290.738,560.5,294.738,556.5,290.738,560.5,299.738" style="stroke: #000000; stroke-width: 1.0;"/><line style="stroke: #000000; stroke-width: 1.0;" x1="560.5" x2="560.5" y1="294.738" y2="286.7381"/><polygon fill="#000000" points="560.5,222.086,556.5,228.086,560.5,234.086,564.5,228.086,560.5,222.086" style="stroke: #000000; stroke-width: 1.0;"/><text fill="#000000" font-family="sans-serif" font-size="13" lengthAdjust="spacingAndGlyphs" textLength="22" x="561.5" y="266.4951">text</text><path d="M658.762,132.332 C646.34,143.213 631.389,155.986 617.5,167 C604.264,177.496 588.735,188.735 577.231,196.867 " fill="none" style="stroke: #000000; stroke-width: 1.0;"/><polygon fill="none" points="654.185,127.035,673.796,119.009,663.47,137.513,654.185,127.035" style="stroke: #000000; stroke-width: 1.0;"/><path d="M713.404,126.636 C738.584,144.546 776.013,171.168 801.292,189.148 " fill="none" style="stroke: #000000; stroke-width: 1.0;"/><polygon fill="#000000" points="811.963,196.738,806.9476,188.2618,807.8886,193.8399,802.3106,194.7809,811.963,196.738" style="stroke: #000000; stroke-width: 1.0;"/><line style="stroke: #000000; stroke-width: 1.0;" x1="807.8886" x2="801.3695" y1="193.8399" y2="189.203"/><polygon fill="#000000" points="702.789,119.086,705.3604,125.8231,712.5682,126.0406,709.9968,119.3036,702.789,119.086" style="stroke: #000000; stroke-width: 1.0;"/><text fill="#000000" font-family="sans-serif" font-size="13" lengthAdjust="spacingAndGlyphs" textLength="73" x="766.5" y="163.4951">arguments[ ]</text><path d="M686.5,139.18 C686.5,158.752 686.5,182.726 686.5,196.738 " fill="none" style="stroke: #000000; stroke-width: 1.0;"/><polygon fill="none" points="679.5,139.086,686.5,119.086,693.5,139.086,679.5,139.086" style="stroke: #000000; stroke-width: 1.0;"/><path d="M828.5,235.3726 C828.5,250.911 828.5,270.8535 828.5,286.4291 " fill="none" style="stroke: #000000; stroke-width: 1.0;"/><polygon fill="#000000" points="828.5,299.738,832.5,290.738,828.5,294.738,824.5,290.738,828.5,299.738" style="stroke: #000000; stroke-width: 1.0;"/><line style="stroke: #000000; stroke-width: 1.0;" x1="828.5" x2="828.5" y1="294.738" y2="286.7381"/><polygon fill="#000000" points="828.5,222.086,824.5,228.086,828.5,234.086,832.5,228.086,828.5,222.086" style="stroke: #000000; stroke-width: 1.0;"/><text fill="#000000" font-family="sans-serif" font-size="13" lengthAdjust="spacingAndGlyphs" textLength="63" x="829.5" y="266.4951">expression</text></g></svg>