<?xml version="1.0" encoding="UTF-8" standalone="yes"?><svg xmlns="http://www.w3.org/2000/svg" xmlns:xlink="http://www.w3.org/1999/xlink" height="231px" style="width:688px;height:231px;" version="1.1" viewBox="0 0 688 231" width="688px"><defs><filter height="300%" id="f1" width="300%" x="-1" y="-1"><feGaussianBlur result="blurOut" stdDeviation="2.0"/><feColorMatrix in="blurOut" result="blurOut2" type="matrix" values="0 0 0 0 0 0 0 0 0 0 0 0 0 0 0 0 0 0 .4 0"/><feOffset dx="4.0" dy="4.0" in="blurOut2" result="blurOut3"/><feBlend in="SourceGraphic" in2="blurOut3" mode="normal"/></filter></defs><g><a xlink:href="https://world.mendix.com/display/refguide6/Aggregate+List" xlink:title="https://world.mendix.com/display/refguide6/Aggregate+List"><rect fill="#CFECFE" filter="url(#f1)" height="25.0938" style="stroke: #000000; stroke-width: 1.5;" width="121" x="6" y="94"/><text fill="#000000" font-family="sans-serif" font-size="12" lengthAdjust="spacingAndGlyphs" textLength="109" x="12" y="111.457">AggregateListAction</text></a><rect fill="#CFECFE" filter="url(#f1)" height="25.0938" style="stroke: #000000; stroke-width: 1.5;" width="56" x="38.5" y="197"/><text fill="#000000" font-family="sans-serif" font-size="12" lengthAdjust="spacingAndGlyphs" textLength="44" x="44.5" y="214.457">Attribute</text><rect fill="#D3D3D3" filter="url(#f1)" height="25.0938" style="stroke: #000000; stroke-width: 1.5;" width="96" x="309.5" y="8"/><text fill="#000000" font-family="sans-serif" font-size="12" font-style="italic" lengthAdjust="spacingAndGlyphs" textLength="84" x="315.5" y="25.457">MicroflowAction</text><a xlink:href="https://world.mendix.com/display/refguide6/Change+List" xlink:title="https://world.mendix.com/display/refguide6/Change+List"><rect fill="#CFECFE" filter="url(#f1)" height="25.0938" style="stroke: #000000; stroke-width: 1.5;" width="109" x="162" y="94"/><text fill="#000000" font-family="sans-serif" font-size="12" lengthAdjust="spacingAndGlyphs" textLength="97" x="168" y="111.457">ChangeListAction</text></a><rect fill="#CFECFE" filter="url(#f1)" height="25.0938" style="stroke: #000000; stroke-width: 1.5;" width="125" x="154" y="197"/><text fill="#000000" font-family="sans-serif" font-size="12" lengthAdjust="spacingAndGlyphs" textLength="113" x="160" y="214.457">MicroflowExpression</text><a xlink:href="https://world.mendix.com/display/refguide6/Create+List" xlink:title="https://world.mendix.com/display/refguide6/Create+List"><rect fill="#CFECFE" filter="url(#f1)" height="25.0938" style="stroke: #000000; stroke-width: 1.5;" width="102" x="306.5" y="94"/><text fill="#000000" font-family="sans-serif" font-size="12" lengthAdjust="spacingAndGlyphs" textLength="90" x="312.5" y="111.457">CreateListAction</text></a><rect fill="#CFECFE" filter="url(#f1)" height="25.0938" style="stroke: #000000; stroke-width: 1.5;" width="41" x="337" y="197"/><text fill="#000000" font-family="sans-serif" font-size="12" lengthAdjust="spacingAndGlyphs" textLength="29" x="343" y="214.457">Entity</text><a xlink:href="https://world.mendix.com/display/refguide6/List+Operation" xlink:title="https://world.mendix.com/display/refguide6/List+Operation"><rect fill="#CFECFE" filter="url(#f1)" height="25.0938" style="stroke: #000000; stroke-width: 1.5;" width="119" x="444" y="94"/><text fill="#000000" font-family="sans-serif" font-size="12" lengthAdjust="spacingAndGlyphs" textLength="107" x="450" y="111.457">ListOperationAction</text></a><rect fill="#CFECFE" filter="url(#f1)" height="25.0938" style="stroke: #000000; stroke-width: 1.5;" width="86" x="460.5" y="197"/><text fill="#000000" font-family="sans-serif" font-size="12" lengthAdjust="spacingAndGlyphs" textLength="74" x="466.5" y="214.457">ListOperation</text><a xlink:href="https://world.mendix.com/display/refguide6/Delete+Object(s)" xlink:title="https://world.mendix.com/display/refguide6/Delete+Object(s)"><rect fill="#CFECFE" filter="url(#f1)" height="25.0938" style="stroke: #000000; stroke-width: 1.5;" width="81" x="598" y="94"/><text fill="#000000" font-family="sans-serif" font-size="12" lengthAdjust="spacingAndGlyphs" textLength="69" x="604" y="111.457">DeleteAction</text></a><path d="M66.5,119.086 C66.5,136.8752 66.5,171.011 66.5,191.5724 " fill="none" style="stroke: #000000; stroke-width: 1.0;"/><polygon fill="#000000" points="66.5,196.738,70.5,187.738,66.5,191.738,62.5,187.738,66.5,196.738" style="stroke: #000000; stroke-width: 1.0;"/><text fill="#000000" font-family="sans-serif" font-size="13" lengthAdjust="spacingAndGlyphs" textLength="47" x="67.5" y="163.4951">attribute</text><path d="M298.364,38.57 C241.307,55.04 156.481,79.526 106.805,93.866 " fill="none" style="stroke: #000000; stroke-width: 1.0;"/><polygon fill="none" points="296.491,31.825,317.648,33.004,300.374,45.276,296.491,31.825" style="stroke: #000000; stroke-width: 1.0;"/><path d="M216.5,132.3726 C216.5,147.911 216.5,167.8535 216.5,183.4291 " fill="none" style="stroke: #000000; stroke-width: 1.0;"/><polygon fill="#000000" points="216.5,196.738,220.5,187.738,216.5,191.738,212.5,187.738,216.5,196.738" style="stroke: #000000; stroke-width: 1.0;"/><line style="stroke: #000000; stroke-width: 1.0;" x1="216.5" x2="216.5" y1="191.738" y2="183.7381"/><polygon fill="#000000" points="216.5,119.086,212.5,125.086,216.5,131.086,220.5,125.086,216.5,119.086" style="stroke: #000000; stroke-width: 1.0;"/><text fill="#000000" font-family="sans-serif" font-size="13" lengthAdjust="spacingAndGlyphs" textLength="29" x="217.5" y="163.4951">value</text><path d="M320.71,43.417 C293.616,59.558 257.834,80.875 236.029,93.866 " fill="none" style="stroke: #000000; stroke-width: 1.0;"/><polygon fill="none" points="317.425,37.226,338.19,33.004,324.591,49.254,317.425,37.226" style="stroke: #000000; stroke-width: 1.0;"/><path d="M357.5,119.086 C357.5,136.8752 357.5,171.011 357.5,191.5724 " fill="none" style="stroke: #000000; stroke-width: 1.0;"/><polygon fill="#000000" points="357.5,196.738,361.5,187.738,357.5,191.738,353.5,187.738,357.5,196.738" style="stroke: #000000; stroke-width: 1.0;"/><text fill="#000000" font-family="sans-serif" font-size="13" lengthAdjust="spacingAndGlyphs" textLength="32" x="358.5" y="163.4951">entity</text><path d="M357.5,53.183 C357.5,67.456 357.5,83.422 357.5,93.919 " fill="none" style="stroke: #000000; stroke-width: 1.0;"/><polygon fill="none" points="350.5,53.18,357.5,33.18,364.5,53.18,350.5,53.18" style="stroke: #000000; stroke-width: 1.0;"/><path d="M503.5,132.3726 C503.5,147.911 503.5,167.8535 503.5,183.4291 " fill="none" style="stroke: #000000; stroke-width: 1.0;"/><polygon fill="#000000" points="503.5,196.738,507.5,187.738,503.5,191.738,499.5,187.738,503.5,196.738" style="stroke: #000000; stroke-width: 1.0;"/><line style="stroke: #000000; stroke-width: 1.0;" x1="503.5" x2="503.5" y1="191.738" y2="183.7381"/><polygon fill="#000000" points="503.5,119.086,499.5,125.086,503.5,131.086,507.5,125.086,503.5,119.086" style="stroke: #000000; stroke-width: 1.0;"/><text fill="#000000" font-family="sans-serif" font-size="13" lengthAdjust="spacingAndGlyphs" textLength="53" x="504.5" y="163.4951">operation</text><path d="M395.188,43.184 C423.291,59.352 460.591,80.813 483.278,93.866 " fill="none" style="stroke: #000000; stroke-width: 1.0;"/><polygon fill="none" points="391.339,49.045,377.495,33.004,398.321,36.91,391.339,49.045" style="stroke: #000000; stroke-width: 1.0;"/><path d="M415.329,38.787 C470.417,55.255 551.821,79.589 599.58,93.866 " fill="none" style="stroke: #000000; stroke-width: 1.0;"/><polygon fill="none" points="413.14,45.439,395.983,33.004,417.15,32.025,413.14,45.439" style="stroke: #000000; stroke-width: 1.0;"/></g></svg>