<?xml version="1.0" encoding="UTF-8" standalone="yes"?><svg xmlns="http://www.w3.org/2000/svg" xmlns:xlink="http://www.w3.org/1999/xlink" height="540px" style="width:554px;height:540px;" version="1.1" viewBox="0 0 554 540" width="554px"><defs><filter height="300%" id="f1" width="300%" x="-1" y="-1"><feGaussianBlur result="blurOut" stdDeviation="2.0"/><feColorMatrix in="blurOut" result="blurOut2" type="matrix" values="0 0 0 0 0 0 0 0 0 0 0 0 0 0 0 0 0 0 .4 0"/><feOffset dx="4.0" dy="4.0" in="blurOut2" result="blurOut3"/><feBlend in="SourceGraphic" in2="blurOut3" mode="normal"/></filter></defs><g><a xlink:href="https://world.mendix.com/display/refguide6/Retrieve" xlink:title="https://world.mendix.com/display/refguide6/Retrieve"><rect fill="#CFECFE" filter="url(#f1)" height="25.0938" style="stroke: #000000; stroke-width: 1.5;" width="90" x="156" y="8"/><text fill="#000000" font-family="sans-serif" font-size="12" lengthAdjust="spacingAndGlyphs" textLength="78" x="162" y="25.457">RetrieveAction</text></a><a xlink:href="https://world.mendix.com/display/refguide6/Retrieve" xlink:title="https://world.mendix.com/display/refguide6/Retrieve"><rect fill="#D3D3D3" filter="url(#f1)" height="25.0938" style="stroke: #000000; stroke-width: 1.5;" width="97" x="152.5" y="111"/><text fill="#000000" font-family="sans-serif" font-size="12" font-style="italic" lengthAdjust="spacingAndGlyphs" textLength="85" x="158.5" y="128.457">RetrieveSource</text></a><a xlink:href="https://world.mendix.com/display/refguide6/Retrieve" xlink:title="https://world.mendix.com/display/refguide6/Retrieve"><rect fill="#D3D3D3" filter="url(#f1)" height="25.0938" style="stroke: #000000; stroke-width: 1.5;" width="49" x="170.5" y="300"/><text fill="#000000" font-family="sans-serif" font-size="12" font-style="italic" lengthAdjust="spacingAndGlyphs" textLength="37" x="176.5" y="317.457">Range</text></a><a xlink:href="https://world.mendix.com/display/refguide6/Retrieve" xlink:title="https://world.mendix.com/display/refguide6/Retrieve"><rect fill="#CFECFE" filter="url(#f1)" height="25.0938" style="stroke: #000000; stroke-width: 1.5;" width="99" x="14.5" y="403"/><text fill="#000000" font-family="sans-serif" font-size="12" lengthAdjust="spacingAndGlyphs" textLength="87" x="20.5" y="420.457">ConstantRange</text></a><a xlink:href="https://world.mendix.com/display/refguide6/Retrieve" xlink:title="https://world.mendix.com/display/refguide6/Retrieve"><rect fill="#CFECFE" filter="url(#f1)" height="25.0938" style="stroke: #000000; stroke-width: 1.5;" width="93" x="148.5" y="403"/><text fill="#000000" font-family="sans-serif" font-size="12" lengthAdjust="spacingAndGlyphs" textLength="81" x="154.5" y="420.457">CustomRange</text></a><rect fill="#CFECFE" filter="url(#f1)" height="25.0938" style="stroke: #000000; stroke-width: 1.5;" width="125" x="67.5" y="506"/><text fill="#000000" font-family="sans-serif" font-size="12" lengthAdjust="spacingAndGlyphs" textLength="113" x="73.5" y="523.457">MicroflowExpression</text><rect fill="#CFECFE" filter="url(#f1)" height="25.0938" style="stroke: #000000; stroke-width: 1.5;" width="78" x="255" y="300"/><text fill="#000000" font-family="sans-serif" font-size="12" lengthAdjust="spacingAndGlyphs" textLength="66" x="261" y="317.457">SortItemList</text><rect fill="#CFECFE" filter="url(#f1)" height="25.0938" style="stroke: #000000; stroke-width: 1.5;" width="58" x="294" y="403"/><text fill="#000000" font-family="sans-serif" font-size="12" lengthAdjust="spacingAndGlyphs" textLength="46" x="300" y="420.457">SortItem</text><rect fill="#CFECFE" filter="url(#f1)" height="25.0938" style="stroke: #000000; stroke-width: 1.5;" width="81" x="292.5" y="506"/><text fill="#000000" font-family="sans-serif" font-size="12" lengthAdjust="spacingAndGlyphs" textLength="69" x="298.5" y="523.457">AttributePath</text><a xlink:href="https://world.mendix.com/display/refguide6/Retrieve" xlink:title="https://world.mendix.com/display/refguide6/Retrieve"><rect fill="#CFECFE" filter="url(#f1)" height="25.0938" style="stroke: #000000; stroke-width: 1.5;" width="160" x="6" y="197"/><text fill="#000000" font-family="sans-serif" font-size="12" lengthAdjust="spacingAndGlyphs" textLength="148" x="12" y="214.457">AssociationRetrieveSource</text></a><rect fill="#CFECFE" filter="url(#f1)" height="25.0938" style="stroke: #000000; stroke-width: 1.5;" width="105" x="30.5" y="300"/><text fill="#000000" font-family="sans-serif" font-size="12" lengthAdjust="spacingAndGlyphs" textLength="93" x="36.5" y="317.457">AssociationBase</text><a xlink:href="https://world.mendix.com/display/refguide6/Retrieve" xlink:title="https://world.mendix.com/display/refguide6/Retrieve"><rect fill="#CFECFE" filter="url(#f1)" height="25.0938" style="stroke: #000000; stroke-width: 1.5;" width="150" x="204" y="197"/><text fill="#000000" font-family="sans-serif" font-size="12" lengthAdjust="spacingAndGlyphs" textLength="138" x="210" y="214.457">DatabaseRetrieveSource</text></a><rect fill="#CFECFE" filter="url(#f1)" height="25.0938" style="stroke: #000000; stroke-width: 1.5;" width="41" x="368.5" y="300"/><text fill="#000000" font-family="sans-serif" font-size="12" lengthAdjust="spacingAndGlyphs" textLength="29" x="374.5" y="317.457">Entity</text><rect fill="#CFECFE" filter="url(#f1)" height="25.0938" style="stroke: #000000; stroke-width: 1.5;" width="101" x="444.5" y="300"/><text fill="#000000" font-family="sans-serif" font-size="12" lengthAdjust="spacingAndGlyphs" textLength="89" x="450.5" y="317.457">XPathConstraint</text><path d="M201,46.373 C201,61.911 201,81.854 201,97.429 " fill="none" style="stroke: #000000; stroke-width: 1.0;"/><polygon fill="#000000" points="201,110.738,205,101.738,201,105.738,197,101.738,201,110.738" style="stroke: #000000; stroke-width: 1.0;"/><line style="stroke: #000000; stroke-width: 1.0;" x1="201" x2="201" y1="105.738" y2="97.738"/><polygon fill="#000000" points="201,33.086,197,39.086,201,45.086,205,39.086,201,33.086" style="stroke: #000000; stroke-width: 1.0;"/><text fill="#000000" font-family="sans-serif" font-size="13" lengthAdjust="spacingAndGlyphs" textLength="82" x="202" y="77.4951">retrieveSource</text><path d="M163.895,337.482 C137.213,358.054 99.8996,386.822 79.2556,402.738 " fill="none" style="stroke: #000000; stroke-width: 1.0;"/><polygon fill="none" points="159.86,331.754,179.973,325.086,168.408,342.841,159.86,331.754" style="stroke: #000000; stroke-width: 1.0;"/><path d="M135.491,427.712 C104.1471,434.9557 70.3034,445.3794 61,458 C48.9396,474.3606 66.3704,489.2877 86.7253,500.0985 " fill="none" style="stroke: #000000; stroke-width: 1.0;"/><polygon fill="#000000" points="98.505,505.8156,92.1548,498.2873,94.0068,503.6324,88.6617,505.4844,98.505,505.8156" style="stroke: #000000; stroke-width: 1.0;"/><line style="stroke: #000000; stroke-width: 1.0;" x1="94.0068" x2="86.8096" y1="503.6324" y2="500.1394"/><polygon fill="#000000" points="148.234,424.901,141.5133,422.2872,136.5156,427.4856,143.2363,430.0994,148.234,424.901" style="stroke: #000000; stroke-width: 1.0;"/><text fill="#000000" font-family="sans-serif" font-size="13" lengthAdjust="spacingAndGlyphs" textLength="89" x="62" y="472.4951">limitExpression</text><path d="M180.507,439.0197 C169.917,455.4752 155.599,477.7227 144.912,494.3285 " fill="none" style="stroke: #000000; stroke-width: 1.0;"/><polygon fill="#000000" points="137.57,505.738,145.8044,500.3347,140.276,501.5335,139.0772,496.0052,137.57,505.738" style="stroke: #000000; stroke-width: 1.0;"/><line style="stroke: #000000; stroke-width: 1.0;" x1="140.276" x2="144.605" y1="501.5335" y2="494.8062"/><polygon fill="#000000" points="187.544,428.086,180.9332,430.9666,181.0496,438.1767,187.6604,435.2962,187.544,428.086" style="stroke: #000000; stroke-width: 1.0;"/><text fill="#000000" font-family="sans-serif" font-size="13" lengthAdjust="spacingAndGlyphs" textLength="96" x="168" y="472.4951">offsetExpression</text><path d="M195,345.18 C195,364.752 195,388.726 195,402.738 " fill="none" style="stroke: #000000; stroke-width: 1.0;"/><polygon fill="none" points="188,345.086,195,325.086,202,345.086,188,345.086" style="stroke: #000000; stroke-width: 1.0;"/><path d="M300.971,337.778 C305.489,353.512 311.356,373.946 315.899,389.77 " fill="none" style="stroke: #000000; stroke-width: 1.0;"/><polygon fill="#000000" points="319.623,402.738,320.9831,392.9835,318.2427,397.9323,313.2939,395.192,319.623,402.738" style="stroke: #000000; stroke-width: 1.0;"/><line style="stroke: #000000; stroke-width: 1.0;" x1="318.2427" x2="316.035" y1="397.9323" y2="390.243"/><polygon fill="#000000" points="297.327,325.086,295.1386,331.957,300.6393,336.6198,302.8278,329.7488,297.327,325.086" style="stroke: #000000; stroke-width: 1.0;"/><text fill="#000000" font-family="sans-serif" font-size="13" lengthAdjust="spacingAndGlyphs" textLength="44" x="312" y="369.4951">items[ ]</text><path d="M325.433,441.0746 C326.973,456.6313 328.96,476.6918 330.511,492.3566 " fill="none" style="stroke: #000000; stroke-width: 1.0;"/><polygon fill="#000000" points="331.835,505.738,334.9287,496.3877,331.3423,500.7623,326.9676,497.1759,331.835,505.738" style="stroke: #000000; stroke-width: 1.0;"/><line style="stroke: #000000; stroke-width: 1.0;" x1="331.3423" x2="330.5545" y1="500.7623" y2="492.8013"/><polygon fill="#000000" points="324.147,428.086,320.7577,434.4509,325.3294,440.0276,328.7187,433.6627,324.147,428.086" style="stroke: #000000; stroke-width: 1.0;"/><text fill="#000000" font-family="sans-serif" font-size="13" lengthAdjust="spacingAndGlyphs" textLength="74" x="330" y="472.4951">attributePath</text><path d="M85.6559,222.086 C85.1275,239.875 84.1135,274.011 83.5028,294.572 " fill="none" style="stroke: #000000; stroke-width: 1.0;"/><polygon fill="#000000" points="83.3494,299.738,87.6151,290.8608,83.498,294.7402,79.6186,290.6231,83.3494,299.738" style="stroke: #000000; stroke-width: 1.0;"/><text fill="#000000" font-family="sans-serif" font-size="13" lengthAdjust="spacingAndGlyphs" textLength="66" x="86" y="266.4951">association</text><path d="M168.795,148.023 C146.961,163.972 119.049,184.36 101.8545,196.919 " fill="none" style="stroke: #000000; stroke-width: 1.0;"/><polygon fill="none" points="164.73,142.324,185.01,136.18,172.988,153.629,164.73,142.324" style="stroke: #000000; stroke-width: 1.0;"/><path d="M305.242,222.151 C319.554,229.363 336.958,239.609 350,252 C363.239,264.577 374.194,282.472 381.087,295.347 " fill="none" style="stroke: #000000; stroke-width: 1.0;"/><polygon fill="#000000" points="383.44,299.845,382.8106,290.0163,381.1215,295.4151,375.7227,293.7259,383.44,299.845" style="stroke: #000000; stroke-width: 1.0;"/><text fill="#000000" font-family="sans-serif" font-size="13" lengthAdjust="spacingAndGlyphs" textLength="32" x="367" y="266.4951">entity</text><path d="M253.957,230.893 C246.803,237.285 239.257,244.61 233,252 C223.461,263.266 214.487,277.101 207.657,288.594 " fill="none" style="stroke: #000000; stroke-width: 1.0;"/><polygon fill="#000000" points="201.163,299.914,209.1116,294.0986,203.6514,295.5772,202.1728,290.117,201.163,299.914" style="stroke: #000000; stroke-width: 1.0;"/><line style="stroke: #000000; stroke-width: 1.0;" x1="203.6514" x2="207.6325" y1="295.5772" y2="288.6375"/><polygon fill="#000000" points="263.961,222.298,256.8033,223.1741,254.859,230.1181,262.0167,229.2421,263.961,222.298" style="stroke: #000000; stroke-width: 1.0;"/><text fill="#000000" font-family="sans-serif" font-size="13" lengthAdjust="spacingAndGlyphs" textLength="32" x="234" y="266.4951">range</text><path d="M338.683,225.781 C360.99,232.498 386.189,241.314 408,252 C430.297,262.924 453.399,278.983 470.188,291.665 " fill="none" style="stroke: #000000; stroke-width: 1.0;"/><polygon fill="#000000" points="480.716,299.801,476.0407,291.1326,476.7597,296.7436,471.1488,297.4626,480.716,299.801" style="stroke: #000000; stroke-width: 1.0;"/><line style="stroke: #000000; stroke-width: 1.0;" x1="476.7597" x2="470.4295" y1="296.7436" y2="291.8515"/><polygon fill="#000000" points="325.931,222.071,330.5748,227.5878,337.4533,225.423,332.8095,219.9062,325.931,222.071" style="stroke: #000000; stroke-width: 1.0;"/><text fill="#000000" font-family="sans-serif" font-size="13" lengthAdjust="spacingAndGlyphs" textLength="93" x="440" y="266.4951">xPathConstraint</text><path d="M274.968,235.214 C273.923,245.994 273.659,258.721 276,270 C277.239,275.969 279.381,282.134 281.766,287.827 " fill="none" style="stroke: #000000; stroke-width: 1.0;"/><polygon fill="#000000" points="287.456,299.94,287.2492,290.0933,285.3298,295.4146,280.0085,293.4952,287.456,299.94" style="stroke: #000000; stroke-width: 1.0;"/><line style="stroke: #000000; stroke-width: 1.0;" x1="285.3298" x2="281.9285" y1="295.4146" y2="288.174"/><polygon fill="#000000" points="276.706,222.039,271.9552,227.4639,275.1355,233.9358,279.8863,228.5109,276.706,222.039" style="stroke: #000000; stroke-width: 1.0;"/><text fill="#000000" font-family="sans-serif" font-size="13" lengthAdjust="spacingAndGlyphs" textLength="68" x="277" y="266.4951">sortItemList</text><path d="M225.765,151.17 C240.071,166.576 257.338,185.172 268.247,196.919 " fill="none" style="stroke: #000000; stroke-width: 1.0;"/><polygon fill="none" points="220.325,155.599,211.846,136.18,230.584,146.073,220.325,155.599" style="stroke: #000000; stroke-width: 1.0;"/></g></svg>