<?xml version="1.0" encoding="UTF-8" standalone="yes"?><svg xmlns="http://www.w3.org/2000/svg" xmlns:xlink="http://www.w3.org/1999/xlink" height="334px" style="width:399px;height:334px;" version="1.1" viewBox="0 0 399 334" width="399px"><defs><filter height="300%" id="f1" width="300%" x="-1" y="-1"><feGaussianBlur result="blurOut" stdDeviation="2.0"/><feColorMatrix in="blurOut" result="blurOut2" type="matrix" values="0 0 0 0 0 0 0 0 0 0 0 0 0 0 0 0 0 0 .4 0"/><feOffset dx="4.0" dy="4.0" in="blurOut2" result="blurOut3"/><feBlend in="SourceGraphic" in2="blurOut3" mode="normal"/></filter></defs><g><a xlink:href="https://world.mendix.com/display/refguide6/Break+Event" xlink:title="https://world.mendix.com/display/refguide6/Break+Event"><rect fill="#CFECFE" filter="url(#f1)" height="25.0938" style="stroke: #000000; stroke-width: 1.5;" width="74" x="6" y="94"/><text fill="#000000" font-family="sans-serif" font-size="12" lengthAdjust="spacingAndGlyphs" textLength="62" x="12" y="111.457">BreakEvent</text></a><rect fill="#D3D3D3" filter="url(#f1)" height="25.0938" style="stroke: #000000; stroke-width: 1.5;" width="98" x="148" y="8"/><text fill="#000000" font-family="sans-serif" font-size="12" font-style="italic" lengthAdjust="spacingAndGlyphs" textLength="86" x="154" y="25.457">MicroflowObject</text><a xlink:href="https://world.mendix.com/display/refguide6/Continue+Event" xlink:title="https://world.mendix.com/display/refguide6/Continue+Event"><rect fill="#CFECFE" filter="url(#f1)" height="25.0938" style="stroke: #000000; stroke-width: 1.5;" width="92" x="115" y="94"/><text fill="#000000" font-family="sans-serif" font-size="12" lengthAdjust="spacingAndGlyphs" textLength="80" x="121" y="111.457">ContinueEvent</text></a><rect fill="#D3D3D3" filter="url(#f1)" height="25.0938" style="stroke: #000000; stroke-width: 1.5;" width="50" x="242" y="94"/><text fill="#000000" font-family="sans-serif" font-size="12" font-style="italic" lengthAdjust="spacingAndGlyphs" textLength="38" x="248" y="111.457">Activity</text><a xlink:href="https://world.mendix.com/display/refguide6/Loop" xlink:title="https://world.mendix.com/display/refguide6/Loop"><rect fill="#CFECFE" filter="url(#f1)" height="25.0938" style="stroke: #000000; stroke-width: 1.5;" width="89" x="193.5" y="197"/><text fill="#000000" font-family="sans-serif" font-size="12" lengthAdjust="spacingAndGlyphs" textLength="77" x="199.5" y="214.457">LoopedActivity</text></a><rect fill="#CFECFE" filter="url(#f1)" height="25.0938" style="stroke: #000000; stroke-width: 1.5;" width="153" x="214.5" y="300"/><text fill="#000000" font-family="sans-serif" font-size="12" lengthAdjust="spacingAndGlyphs" textLength="141" x="220.5" y="317.457">MicroflowObjectCollection</text><path d="M158.099,42.719 C128.362,58.939 88.4904,80.687 64.3296,93.866 " fill="none" style="stroke: #000000; stroke-width: 1.0;"/><polygon fill="none" points="155,36.436,175.91,33.004,161.704,48.726,155,36.436" style="stroke: #000000; stroke-width: 1.0;"/><path d="M184.074,51.661 C177.797,66.308 170.623,83.047 165.963,93.919 " fill="none" style="stroke: #000000; stroke-width: 1.0;"/><polygon fill="none" points="177.682,48.805,191.994,33.18,190.55,54.32,177.682,48.805" style="stroke: #000000; stroke-width: 1.0;"/><path d="M219.636,48.663 C232.393,63.971 247.664,82.297 257.349,93.919 " fill="none" style="stroke: #000000; stroke-width: 1.0;"/><polygon fill="none" points="214.159,53.026,206.733,33.18,224.914,44.063,214.159,53.026" style="stroke: #000000; stroke-width: 1.0;"/><path d="M228.41,234.6604 C225.469,245.9595 224.316,259.2588 230,270 C234.97,279.3932 243.126,287.057 251.881,293.1255 " fill="none" style="stroke: #000000; stroke-width: 1.0;"/><polygon fill="#000000" points="263.096,299.9695,257.497,291.867,258.8279,297.365,253.3298,298.696,263.096,299.9695" style="stroke: #000000; stroke-width: 1.0;"/><line style="stroke: #000000; stroke-width: 1.0;" x1="258.8279" x2="251.999" y1="297.365" y2="293.1974"/><polygon fill="#000000" points="232.545,222.176,226.8612,226.6138,228.7716,233.5673,234.4554,229.1295,232.545,222.176" style="stroke: #000000; stroke-width: 1.0;"/><text fill="#000000" font-family="sans-serif" font-size="13" lengthAdjust="spacingAndGlyphs" textLength="92" x="231" y="266.4951">objectCollection</text><path d="M258.087,138.543 C252.434,158.23 245.444,182.573 241.377,196.738 " fill="none" style="stroke: #000000; stroke-width: 1.0;"/><polygon fill="none" points="251.426,136.377,263.673,119.086,264.882,140.241,251.426,136.377" style="stroke: #000000; stroke-width: 1.0;"/><path d="M315.281,290.1323 C320.46,284.1858 325.207,277.3287 328,270 C356.015,196.48 350.658,160.743 309,94 C293.157,68.618 264.786,50.391 240.564,38.562 " fill="none" style="stroke: #000000; stroke-width: 1.0;"/><polygon fill="#000000" points="228.722,33.11,235.2241,40.5075,233.2637,35.2012,238.57,33.2408,228.722,33.11" style="stroke: #000000; stroke-width: 1.0;"/><line style="stroke: #000000; stroke-width: 1.0;" x1="233.2637" x2="240.531" y1="35.2012" y2="38.547"/><polygon fill="#000000" points="305.819,299.758,312.8776,298.2829,314.2308,291.1999,307.1722,292.675,305.819,299.758" style="stroke: #000000; stroke-width: 1.0;"/><text fill="#000000" font-family="sans-serif" font-size="13" lengthAdjust="spacingAndGlyphs" textLength="54" x="344" y="163.4951">objects[ ]</text></g></svg>