<?xml version="1.0" encoding="UTF-8" standalone="yes"?><svg xmlns="http://www.w3.org/2000/svg" xmlns:xlink="http://www.w3.org/1999/xlink" height="341px" style="width:906px;height:341px;" version="1.1" viewBox="0 0 906 341" width="906px"><defs><filter height="300%" id="f1" width="300%" x="-1" y="-1"><feGaussianBlur result="blurOut" stdDeviation="2.0"/><feColorMatrix in="blurOut" result="blurOut2" type="matrix" values="0 0 0 0 0 0 0 0 0 0 0 0 0 0 0 0 0 0 .4 0"/><feOffset dx="4.0" dy="4.0" in="blurOut2" result="blurOut3"/><feBlend in="SourceGraphic" in2="blurOut3" mode="normal"/></filter></defs><g><a xlink:href="https://world.mendix.com/display/refguide6/Call+Web+Service" xlink:title="https://world.mendix.com/display/refguide6/Call+Web+Service"><rect fill="#CFECFE" filter="url(#f1)" height="25.0938" style="stroke: #000000; stroke-width: 1.5;" width="162" x="340" y="94"/><text fill="#000000" font-family="sans-serif" font-size="12" lengthAdjust="spacingAndGlyphs" textLength="150" x="346" y="111.457">AdvancedRequestHandling</text></a><rect fill="#CFECFE" filter="url(#f1)" height="25.0938" style="stroke: #000000; stroke-width: 1.5;" width="289" x="298.5" y="204"/><text fill="#000000" font-family="sans-serif" font-size="12" lengthAdjust="spacingAndGlyphs" textLength="277" x="304.5" y="221.457">WebServiceOperationAdvancedParameterMapping</text><a xlink:href="https://world.mendix.com/display/refguide6/Call+Web+Service" xlink:title="https://world.mendix.com/display/refguide6/Call+Web+Service"><rect fill="#D3D3D3" filter="url(#f1)" height="25.0938" style="stroke: #000000; stroke-width: 1.5;" width="108" x="267" y="8"/><text fill="#000000" font-family="sans-serif" font-size="12" font-style="italic" lengthAdjust="spacingAndGlyphs" textLength="96" x="273" y="25.457">RequestHandling</text></a><a xlink:href="https://world.mendix.com/display/refguide6/Call+Web+Service" xlink:title="https://world.mendix.com/display/refguide6/Call+Web+Service"><rect fill="#CFECFE" filter="url(#f1)" height="25.0938" style="stroke: #000000; stroke-width: 1.5;" width="153" x="144.5" y="94"/><text fill="#000000" font-family="sans-serif" font-size="12" lengthAdjust="spacingAndGlyphs" textLength="141" x="150.5" y="111.457">CustomRequestHandling</text></a><rect fill="#CFECFE" filter="url(#f1)" height="25.0938" style="stroke: #000000; stroke-width: 1.5;" width="96" x="167" y="204"/><text fill="#000000" font-family="sans-serif" font-size="12" lengthAdjust="spacingAndGlyphs" textLength="84" x="173" y="221.457">StringTemplate</text><a xlink:href="https://world.mendix.com/display/refguide6/Call+Web+Service" xlink:title="https://world.mendix.com/display/refguide6/Call+Web+Service"><rect fill="#CFECFE" filter="url(#f1)" height="25.0938" style="stroke: #000000; stroke-width: 1.5;" width="156" x="6" y="149"/><text fill="#000000" font-family="sans-serif" font-size="12" lengthAdjust="spacingAndGlyphs" textLength="144" x="12" y="166.457">MappingRequestHandling</text></a><rect fill="#CFECFE" filter="url(#f1)" height="25.0938" style="stroke: #000000; stroke-width: 1.5;" width="93" x="169.5" y="307"/><text fill="#000000" font-family="sans-serif" font-size="12" lengthAdjust="spacingAndGlyphs" textLength="81" x="175.5" y="324.457">ExportMapping</text><a xlink:href="https://world.mendix.com/display/refguide6/Call+Web+Service" xlink:title="https://world.mendix.com/display/refguide6/Call+Web+Service"><rect fill="#CFECFE" filter="url(#f1)" height="25.0938" style="stroke: #000000; stroke-width: 1.5;" width="148" x="572" y="94"/><text fill="#000000" font-family="sans-serif" font-size="12" lengthAdjust="spacingAndGlyphs" textLength="136" x="578" y="111.457">SimpleRequestHandling</text></a><rect fill="#CFECFE" filter="url(#f1)" height="25.0938" style="stroke: #000000; stroke-width: 1.5;" width="275" x="622.5" y="204"/><text fill="#000000" font-family="sans-serif" font-size="12" lengthAdjust="spacingAndGlyphs" textLength="263" x="628.5" y="221.457">WebServiceOperationSimpleParameterMapping</text><rect fill="#CFECFE" filter="url(#f1)" height="25.0938" style="stroke: #000000; stroke-width: 1.5;" width="83" x="718.5" y="307"/><text fill="#000000" font-family="sans-serif" font-size="12" lengthAdjust="spacingAndGlyphs" textLength="71" x="724.5" y="324.457">ElementPath</text><rect fill="#CFECFE" filter="url(#f1)" height="25.0938" style="stroke: #000000; stroke-width: 1.5;" width="125" x="469.5" y="307"/><text fill="#000000" font-family="sans-serif" font-size="12" lengthAdjust="spacingAndGlyphs" textLength="113" x="475.5" y="324.457">MicroflowExpression</text><path d="M425.95,131.799 C429.533,149.39 434.36,173.085 437.963,190.774 " fill="none" style="stroke: #000000; stroke-width: 1.0;"/><polygon fill="#000000" points="440.596,203.698,442.7185,194.0806,439.5977,198.7987,434.8796,195.6779,440.596,203.698" style="stroke: #000000; stroke-width: 1.0;"/><line style="stroke: #000000; stroke-width: 1.0;" x1="439.5977" x2="438.0005" y1="198.7987" y2="190.9595"/><polygon fill="#000000" points="423.354,119.058,420.6325,125.7358,425.75,130.8164,428.4714,124.1385,423.354,119.058" style="stroke: #000000; stroke-width: 1.0;"/><text fill="#000000" font-family="sans-serif" font-size="13" lengthAdjust="spacingAndGlyphs" textLength="126" x="435" y="166.9951">parameterMappings[ ]</text><path d="M350.431,46.222 C369.192,61.981 392.634,81.672 407.214,93.919 " fill="none" style="stroke: #000000; stroke-width: 1.0;"/><polygon fill="none" points="345.716,51.404,334.905,33.18,354.721,40.684,345.716,51.404" style="stroke: #000000; stroke-width: 1.0;"/><path d="M219.632,132.118 C218.66,149.611 217.36,173.019 216.384,190.58 " fill="none" style="stroke: #000000; stroke-width: 1.0;"/><polygon fill="#000000" points="215.656,203.698,220.1493,194.9338,215.9335,198.7057,212.1616,194.4899,215.656,203.698" style="stroke: #000000; stroke-width: 1.0;"/><line style="stroke: #000000; stroke-width: 1.0;" x1="215.9335" x2="216.377" y1="198.7057" y2="190.7175"/><polygon fill="#000000" points="220.358,119.058,216.0312,124.8268,219.6921,131.0395,224.0189,125.2707,220.358,119.058" style="stroke: #000000; stroke-width: 1.0;"/><text fill="#000000" font-family="sans-serif" font-size="13" lengthAdjust="spacingAndGlyphs" textLength="50" x="220" y="166.9951">template</text><path d="M291.569,46.222 C272.808,61.981 249.366,81.672 234.786,93.919 " fill="none" style="stroke: #000000; stroke-width: 1.0;"/><polygon fill="none" points="287.279,40.684,307.095,33.18,296.284,51.404,287.279,40.684" style="stroke: #000000; stroke-width: 1.0;"/><path d="M84.0443,174.236 C84.6146,188.291 87.2664,212.057 98,229 C119.853,263.4947 160.004,289.635 187.341,304.5111 " fill="none" style="stroke: #000000; stroke-width: 1.0;"/><polygon fill="#000000" points="191.951,306.9793,185.9046,299.2049,187.543,304.6193,182.1286,306.2577,191.951,306.9793" style="stroke: #000000; stroke-width: 1.0;"/><text fill="#000000" font-family="sans-serif" font-size="13" lengthAdjust="spacingAndGlyphs" textLength="49" x="99" y="221.9951">mapping</text><path d="M247.476,37.078 C208.594,48.084 161.838,65.988 127,94 C108.464,108.904 95.3433,134.034 88.7838,148.762 " fill="none" style="stroke: #000000; stroke-width: 1.0;"/><polygon fill="none" points="245.862,30.264,266.986,31.934,249.432,43.801,245.862,30.264" style="stroke: #000000; stroke-width: 1.0;"/><path d="M667.72,128.077 C687.858,147.155 717.678,175.405 737.927,194.589 " fill="none" style="stroke: #000000; stroke-width: 1.0;"/><polygon fill="#000000" points="747.542,203.698,743.7599,194.6043,743.9124,200.2591,738.2576,200.4116,747.542,203.698" style="stroke: #000000; stroke-width: 1.0;"/><line style="stroke: #000000; stroke-width: 1.0;" x1="743.9124" x2="738.1045" y1="200.2591" y2="194.757"/><polygon fill="#000000" points="658.2,119.058,659.8044,126.0884,666.911,127.3114,665.3066,120.281,658.2,119.058" style="stroke: #000000; stroke-width: 1.0;"/><text fill="#000000" font-family="sans-serif" font-size="13" lengthAdjust="spacingAndGlyphs" textLength="126" x="714" y="166.9951">parameterMappings[ ]</text><path d="M384.994,38.04 C448.82,54.537 545.207,79.449 601.248,93.933 " fill="none" style="stroke: #000000; stroke-width: 1.0;"/><polygon fill="none" points="383.12,44.786,365.508,33.004,386.624,31.231,383.12,44.786" style="stroke: #000000; stroke-width: 1.0;"/><path d="M760,242.3726 C760,257.911 760,277.8535 760,293.4291 " fill="none" style="stroke: #000000; stroke-width: 1.0;"/><polygon fill="#000000" points="760,306.738,764,297.738,760,301.738,756,297.738,760,306.738" style="stroke: #000000; stroke-width: 1.0;"/><line style="stroke: #000000; stroke-width: 1.0;" x1="760" x2="760" y1="301.738" y2="293.7381"/><polygon fill="#000000" points="760,229.086,756,235.086,760,241.086,764,235.086,760,229.086" style="stroke: #000000; stroke-width: 1.0;"/><text fill="#000000" font-family="sans-serif" font-size="13" lengthAdjust="spacingAndGlyphs" textLength="85" x="761" y="273.4951">parameterPath</text><path d="M721.915,234.3712 C679.788,253.0326 612.307,282.9253 570.153,301.5988 " fill="none" style="stroke: #000000; stroke-width: 1.0;"/><polygon fill="#000000" points="558.2,306.894,568.0489,306.9057,562.7715,304.8688,564.8085,299.5914,558.2,306.894" style="stroke: #000000; stroke-width: 1.0;"/><line style="stroke: #000000; stroke-width: 1.0;" x1="562.7715" x2="570.086" y1="304.8688" y2="301.6287"/><polygon fill="#000000" points="733.846,229.086,726.7402,227.8583,722.8739,233.9454,729.9798,235.1731,733.846,229.086" style="stroke: #000000; stroke-width: 1.0;"/><text fill="#000000" font-family="sans-serif" font-size="13" lengthAdjust="spacingAndGlyphs" textLength="54" x="661" y="273.4951">argument</text><path d="M461.832,238.8714 C476.781,255.8361 497.603,279.4648 512.678,296.5728 " fill="none" style="stroke: #000000; stroke-width: 1.0;"/><polygon fill="#000000" points="521.635,306.738,518.6863,297.3409,518.3295,302.9865,512.6839,302.6297,521.635,306.738" style="stroke: #000000; stroke-width: 1.0;"/><line style="stroke: #000000; stroke-width: 1.0;" x1="518.3295" x2="513.041" y1="302.9865" y2="296.9845"/><polygon fill="#000000" points="453.209,229.086,454.1744,236.2322,461.1422,238.0896,460.1768,230.9434,453.209,229.086" style="stroke: #000000; stroke-width: 1.0;"/><text fill="#000000" font-family="sans-serif" font-size="13" lengthAdjust="spacingAndGlyphs" textLength="54" x="494" y="273.4951">argument</text><path d="M416.96,229.086 C374.824,247.8336 291.884,284.7365 246.852,304.7727 " fill="none" style="stroke: #000000; stroke-width: 1.0;"/><polygon fill="#000000" points="242.085,306.894,251.9339,306.8921,246.6537,304.8624,248.6833,299.5822,242.085,306.894" style="stroke: #000000; stroke-width: 1.0;"/><text fill="#000000" font-family="sans-serif" font-size="13" lengthAdjust="spacingAndGlyphs" textLength="49" x="345" y="273.4951">mapping</text></g></svg>