<?xml version="1.0" encoding="UTF-8"?>
<svg width="1440px" height="953px" viewBox="0 0 1440 953" version="1.1" xmlns="http://www.w3.org/2000/svg" xmlns:xlink="http://www.w3.org/1999/xlink">
    <!-- Generator: Sketch 45.1 (43504) - http://www.bohemiancoding.com/sketch -->
    <title>BG</title>
    <desc>Created with Sketch.</desc>
    <defs>
        <rect id="path-1" x="0" y="0" width="1440" height="952.640625"></rect>
        <linearGradient x1="54.9063374%" y1="29.4040335%" x2="30.1626484%" y2="96.7504994%" id="linearGradient-3">
            <stop stop-color="#0595DB" offset="0%"></stop>
            <stop stop-color="#0CC7EF" offset="100%"></stop>
        </linearGradient>
        <linearGradient x1="50%" y1="15.2168755%" x2="50%" y2="104.510119%" id="linearGradient-4">
            <stop stop-color="#0595DB" offset="0%"></stop>
            <stop stop-color="#0CC7EF" offset="100%"></stop>
        </linearGradient>
    </defs>
    <g id="Designs" stroke="none" stroke-width="1" fill="none" fill-rule="evenodd">
        <g id="Atlas" transform="translate(0.000000, -6757.000000)">
            <g id="MX-App" transform="translate(0.000000, 6757.000000)">
                <g id="BG">
                    <mask id="mask-2" fill="white">
                        <use xlink:href="#path-1"></use>
                    </mask>
                    <use id="Mask" fill="#0595DB" xlink:href="#path-1"></use>
                    <path d="M64,974 C34.6666667,547.333333 95,244.333333 245,65 C395,-114.333333 684.666667,-238.333333 1114,-307 L1597,-267 C1573.66667,674.333333 1555,1142.66667 1541,1138 C1527,1133.33333 1055.33333,1095.66667 126,1025 L64,974 Z" id="Path-4" fill="url(#linearGradient-3)" mask="url(#mask-2)"></path>
                    <path d="M431,996 C536.333333,735.333333 733.333333,551.666667 1022,445 C1455,285 1638,299 1754,311 C1870,323 1754,1079 1741,1076 C1732.33333,1074 1295.66667,1047.33333 431,996 Z" id="Path-3" fill="url(#linearGradient-4)" mask="url(#mask-2)"></path>
                </g>
            </g>
        </g>
    </g>
</svg>