<?xml version="1.0" encoding="UTF-8" standalone="yes"?><svg xmlns="http://www.w3.org/2000/svg" xmlns:xlink="http://www.w3.org/1999/xlink" height="647px" style="width:479px;height:647px;" version="1.1" viewBox="0 0 479 647" width="479px"><defs><filter height="300%" id="f1" width="300%" x="-1" y="-1"><feGaussianBlur result="blurOut" stdDeviation="2.0"/><feColorMatrix in="blurOut" result="blurOut2" type="matrix" values="0 0 0 0 0 0 0 0 0 0 0 0 0 0 0 0 0 0 .4 0"/><feOffset dx="4.0" dy="4.0" in="blurOut2" result="blurOut3"/><feBlend in="SourceGraphic" in2="blurOut3" mode="normal"/></filter></defs><g><a xlink:href="https://world.mendix.com/display/refguide6/Rules" xlink:title="https://world.mendix.com/display/refguide6/Rules"><rect fill="#CFECFE" filter="url(#f1)" height="32" style="stroke: #000000; stroke-width: 1.5;" width="64" x="334.5" y="503"/><ellipse cx="349.5" cy="519" fill="#CFECFE" rx="11" ry="11" style="stroke: #000000; stroke-width: 1.0;"/><path d="M347.4375,517.2188 L347.4375,522.2969 L348.0625,522.2969 Q348.6719,522.2969 348.9297,522.5313 Q349.1875,522.7656 349.1875,523.1563 Q349.1875,523.5313 348.9297,523.7656 Q348.6719,524 348.0625,524 L345.8281,524 Q345.2031,524 344.9453,523.7656 Q344.6875,523.5313 344.6875,523.1406 Q344.6875,522.7656 344.9453,522.5313 Q345.2031,522.2969 345.7344,522.2969 L345.7344,515.6406 Q345.2969,515.5938 345.0625,515.3672 Q344.8281,515.1406 344.8281,514.7813 Q344.8281,514.4063 345.0938,514.1719 Q345.3594,513.9375 345.9688,513.9375 L347.8438,513.9375 L350.1563,519.0625 L352.4219,513.9375 L354.3125,513.9375 Q354.9219,513.9375 355.1875,514.1719 Q355.4531,514.4063 355.4531,514.7813 Q355.4531,515.1406 355.2188,515.3672 Q354.9844,515.5938 354.5469,515.6406 L354.5469,522.2969 Q355.0781,522.2969 355.3359,522.5391 Q355.5938,522.7813 355.5938,523.1563 Q355.5938,523.5313 355.3359,523.7656 Q355.0781,524 354.4688,524 L352.2188,524 Q351.6094,524 351.3516,523.7656 Q351.0938,523.5313 351.0938,523.1406 Q351.0938,522.7656 351.3516,522.5313 Q351.6094,522.2969 352.2188,522.2969 L352.8438,522.2969 L352.8438,517.2188 L350.8906,521.6094 L349.4219,521.6094 L347.4375,517.2188 Z "/><text fill="#000000" font-family="sans-serif" font-size="12" lengthAdjust="spacingAndGlyphs" textLength="26" x="366.5" y="523.9102">Rule</text></a><rect fill="#CFECFE" filter="url(#f1)" height="25.0938" style="stroke: #000000; stroke-width: 1.5;" width="96" x="239.5" y="613"/><text fill="#000000" font-family="sans-serif" font-size="12" lengthAdjust="spacingAndGlyphs" textLength="84" x="245.5" y="630.457">RuleParameter</text><rect fill="#CFECFE" filter="url(#f1)" height="32" style="stroke: #000000; stroke-width: 1.5;" width="118" x="352.5" y="393"/><ellipse cx="367.5" cy="409" fill="#CFECFE" rx="11" ry="11" style="stroke: #000000; stroke-width: 1.0;"/><path d="M365.4375,407.2188 L365.4375,412.2969 L366.0625,412.2969 Q366.6719,412.2969 366.9297,412.5313 Q367.1875,412.7656 367.1875,413.1563 Q367.1875,413.5313 366.9297,413.7656 Q366.6719,414 366.0625,414 L363.8281,414 Q363.2031,414 362.9453,413.7656 Q362.6875,413.5313 362.6875,413.1406 Q362.6875,412.7656 362.9453,412.5313 Q363.2031,412.2969 363.7344,412.2969 L363.7344,405.6406 Q363.2969,405.5938 363.0625,405.3672 Q362.8281,405.1406 362.8281,404.7813 Q362.8281,404.4063 363.0938,404.1719 Q363.3594,403.9375 363.9688,403.9375 L365.8438,403.9375 L368.1563,409.0625 L370.4219,403.9375 L372.3125,403.9375 Q372.9219,403.9375 373.1875,404.1719 Q373.4531,404.4063 373.4531,404.7813 Q373.4531,405.1406 373.2188,405.3672 Q372.9844,405.5938 372.5469,405.6406 L372.5469,412.2969 Q373.0781,412.2969 373.3359,412.5391 Q373.5938,412.7813 373.5938,413.1563 Q373.5938,413.5313 373.3359,413.7656 Q373.0781,414 372.4688,414 L370.2188,414 Q369.6094,414 369.3516,413.7656 Q369.0938,413.5313 369.0938,413.1406 Q369.0938,412.7656 369.3516,412.5313 Q369.6094,412.2969 370.2188,412.2969 L370.8438,412.2969 L370.8438,407.2188 L368.8906,411.6094 L367.4219,411.6094 L365.4375,407.2188 Z "/><text fill="#000000" font-family="sans-serif" font-size="12" lengthAdjust="spacingAndGlyphs" textLength="80" x="384.5" y="413.9102">MicroflowBase</text><a xlink:href="https://world.mendix.com/display/refguide6/Exclusive+Split" xlink:title="https://world.mendix.com/display/refguide6/Exclusive+Split"><rect fill="#CFECFE" filter="url(#f1)" height="25.0938" style="stroke: #000000; stroke-width: 1.5;" width="87" x="78" y="94"/><text fill="#000000" font-family="sans-serif" font-size="12" lengthAdjust="spacingAndGlyphs" textLength="75" x="84" y="111.457">ExclusiveSplit</text></a><a xlink:href="https://world.mendix.com/display/refguide6/Exclusive+Split" xlink:title="https://world.mendix.com/display/refguide6/Exclusive+Split"><rect fill="#D3D3D3" filter="url(#f1)" height="25.0938" style="stroke: #000000; stroke-width: 1.5;" width="89" x="77" y="197"/><text fill="#000000" font-family="sans-serif" font-size="12" font-style="italic" lengthAdjust="spacingAndGlyphs" textLength="77" x="83" y="214.457">SplitCondition</text></a><rect fill="#D3D3D3" filter="url(#f1)" height="25.0938" style="stroke: #000000; stroke-width: 1.5;" width="98" x="199.5" y="8"/><text fill="#000000" font-family="sans-serif" font-size="12" font-style="italic" lengthAdjust="spacingAndGlyphs" textLength="86" x="205.5" y="25.457">MicroflowObject</text><a xlink:href="https://world.mendix.com/display/refguide6/Merge" xlink:title="https://world.mendix.com/display/refguide6/Merge"><rect fill="#CFECFE" filter="url(#f1)" height="25.0938" style="stroke: #000000; stroke-width: 1.5;" width="97" x="200" y="94"/><text fill="#000000" font-family="sans-serif" font-size="12" lengthAdjust="spacingAndGlyphs" textLength="85" x="206" y="111.457">ExclusiveMerge</text></a><a xlink:href="https://world.mendix.com/display/refguide6/Inheritance+Split" xlink:title="https://world.mendix.com/display/refguide6/Inheritance+Split"><rect fill="#CFECFE" filter="url(#f1)" height="25.0938" style="stroke: #000000; stroke-width: 1.5;" width="97" x="332" y="94"/><text fill="#000000" font-family="sans-serif" font-size="12" lengthAdjust="spacingAndGlyphs" textLength="85" x="338" y="111.457">InheritanceSplit</text></a><a xlink:href="https://world.mendix.com/display/refguide6/Exclusive+Split" xlink:title="https://world.mendix.com/display/refguide6/Exclusive+Split"><rect fill="#CFECFE" filter="url(#f1)" height="25.0938" style="stroke: #000000; stroke-width: 1.5;" width="151" x="6" y="338"/><text fill="#000000" font-family="sans-serif" font-size="12" lengthAdjust="spacingAndGlyphs" textLength="139" x="12" y="355.457">ExpressionSplitCondition</text></a><rect fill="#CFECFE" filter="url(#f1)" height="25.0938" style="stroke: #000000; stroke-width: 1.5;" width="125" x="63" y="613"/><text fill="#000000" font-family="sans-serif" font-size="12" lengthAdjust="spacingAndGlyphs" textLength="113" x="69" y="630.457">MicroflowExpression</text><a xlink:href="https://world.mendix.com/display/refguide6/Exclusive+Split" xlink:title="https://world.mendix.com/display/refguide6/Exclusive+Split"><rect fill="#CFECFE" filter="url(#f1)" height="25.0938" style="stroke: #000000; stroke-width: 1.5;" width="115" x="138" y="283"/><text fill="#000000" font-family="sans-serif" font-size="12" lengthAdjust="spacingAndGlyphs" textLength="103" x="144" y="300.457">RuleSplitCondition</text></a><rect fill="#CFECFE" filter="url(#f1)" height="25.0938" style="stroke: #000000; stroke-width: 1.5;" width="60" x="167.5" y="396.5"/><text fill="#000000" font-family="sans-serif" font-size="12" lengthAdjust="spacingAndGlyphs" textLength="48" x="173.5" y="413.957">RuleCall</text><rect fill="#CFECFE" filter="url(#f1)" height="25.0938" style="stroke: #000000; stroke-width: 1.5;" width="165" x="134" y="506.5"/><text fill="#000000" font-family="sans-serif" font-size="12" lengthAdjust="spacingAndGlyphs" textLength="153" x="140" y="523.957">RuleCallParameterMapping</text><path d="M349.599,546.204 C341.929,557.7098 332.561,571.2463 323.5,583 C318.352,589.6782 312.466,596.6931 306.966,603.0158 " fill="none" style="stroke: #000000; stroke-width: 1.0;"/><polygon fill="#000000" points="298.273,612.8212,307.2367,608.7406,301.5901,609.0799,301.2507,603.4333,298.273,612.8212" style="stroke: #000000; stroke-width: 1.0;"/><line style="stroke: #000000; stroke-width: 1.0;" x1="301.5901" x2="306.8975" y1="609.0799" y2="603.0938"/><polygon fill="#000000" points="356.894,535.109,350.2555,537.9252,350.3019,545.1361,356.9403,542.32,356.894,535.109" style="stroke: #000000; stroke-width: 1.0;"/><text fill="#000000" font-family="sans-serif" font-size="13" lengthAdjust="spacingAndGlyphs" textLength="77" x="337.5" y="579.4951">parameters[ ]</text><path d="M400.413,444.478 C397.148,453.831 393.398,463.888 389.5,473 C385.152,483.164 379.512,494.224 374.906,502.836 " fill="none" style="stroke: #000000; stroke-width: 1.0;"/><polygon fill="none" points="393.859,442.002,406.824,425.241,407.141,446.428,393.859,442.002" style="stroke: #000000; stroke-width: 1.0;"/><path d="M121.5,132.373 C121.5,147.911 121.5,167.854 121.5,183.429 " fill="none" style="stroke: #000000; stroke-width: 1.0;"/><polygon fill="#000000" points="121.5,196.738,125.5,187.738,121.5,191.738,117.5,187.738,121.5,196.738" style="stroke: #000000; stroke-width: 1.0;"/><line style="stroke: #000000; stroke-width: 1.0;" x1="121.5" x2="121.5" y1="191.738" y2="183.738"/><polygon fill="#000000" points="121.5,119.086,117.5,125.086,121.5,131.086,125.5,125.086,121.5,119.086" style="stroke: #000000; stroke-width: 1.0;"/><text fill="#000000" font-family="sans-serif" font-size="13" lengthAdjust="spacingAndGlyphs" textLength="78" x="122.5" y="163.4951">splitCondition</text><path d="M214.297,44.122 C190.028,60.174 158.446,81.064 139.09,93.866 " fill="none" style="stroke: #000000; stroke-width: 1.0;"/><polygon fill="none" points="210.564,38.199,231.107,33.004,218.288,49.876,210.564,38.199" style="stroke: #000000; stroke-width: 1.0;"/><path d="M248.5,53.183 C248.5,67.456 248.5,83.422 248.5,93.919 " fill="none" style="stroke: #000000; stroke-width: 1.0;"/><polygon fill="none" points="241.5,53.18,248.5,33.18,255.5,53.18,241.5,53.18" style="stroke: #000000; stroke-width: 1.0;"/><path d="M283.679,43.886 C308.952,59.97 342.001,81.001 362.217,93.866 " fill="none" style="stroke: #000000; stroke-width: 1.0;"/><polygon fill="none" points="279.692,49.647,266.577,33.004,287.209,37.836,279.692,49.647" style="stroke: #000000; stroke-width: 1.0;"/><path d="M85.4636,376.093 C93.8188,427.932 113.156,547.9114 121.523,599.8242 " fill="none" style="stroke: #000000; stroke-width: 1.0;"/><polygon fill="#000000" points="123.616,612.8132,126.1328,603.2914,122.8203,607.8769,118.2348,604.5644,123.616,612.8132" style="stroke: #000000; stroke-width: 1.0;"/><line style="stroke: #000000; stroke-width: 1.0;" x1="122.8203" x2="121.548" y1="607.8769" y2="599.9789"/><polygon fill="#000000" points="83.3906,363.23,80.3963,369.79,85.3,375.0771,88.2944,368.5171,83.3906,363.23" style="stroke: #000000; stroke-width: 1.0;"/><text fill="#000000" font-family="sans-serif" font-size="13" lengthAdjust="spacingAndGlyphs" textLength="63" x="102.5" y="469.4951">expression</text><path d="M112.486,241.822 C103.7461,272.195 90.9469,316.672 84.9017,337.679 " fill="none" style="stroke: #000000; stroke-width: 1.0;"/><polygon fill="none" points="105.8316,239.635,118.09,222.351,119.286,243.507,105.8316,239.635" style="stroke: #000000; stroke-width: 1.0;"/><path d="M195.944,321.26 C196.275,339.717 196.725,364.815 197.056,383.265 " fill="none" style="stroke: #000000; stroke-width: 1.0;"/><polygon fill="#000000" points="197.292,396.383,201.1302,387.3128,197.2024,391.3838,193.1314,387.4561,197.292,396.383" style="stroke: #000000; stroke-width: 1.0;"/><line style="stroke: #000000; stroke-width: 1.0;" x1="197.2024" x2="197.0585" y1="391.3838" y2="383.3855"/><polygon fill="#000000" points="195.707,308.012,191.8151,314.0827,195.9219,320.0101,199.8138,313.9394,195.707,308.012" style="stroke: #000000; stroke-width: 1.0;"/><text fill="#000000" font-family="sans-serif" font-size="13" lengthAdjust="spacingAndGlyphs" textLength="43" x="198.5" y="355.9951">ruleCall</text><path d="M145.429,237.663 C158.915,252.971 175.059,271.297 185.298,282.919 " fill="none" style="stroke: #000000; stroke-width: 1.0;"/><polygon fill="none" points="139.758,241.814,131.789,222.18,150.263,232.56,139.758,241.814" style="stroke: #000000; stroke-width: 1.0;"/><path d="M227.632,414.658 C255.679,420.255 297.412,431.938 326.5,455 C340.786,466.327 351.452,484.237 358.162,498.07 " fill="none" style="stroke: #000000; stroke-width: 1.0;"/><polygon fill="#000000" points="360.454,502.963,360.2583,493.1161,358.3329,498.4352,353.0138,496.5098,360.454,502.963" style="stroke: #000000; stroke-width: 1.0;"/><text fill="#000000" font-family="sans-serif" font-size="13" lengthAdjust="spacingAndGlyphs" textLength="21" x="344.5" y="469.4951">rule</text><path d="M193.199,435.022 C191.98,446.697 191.654,460.698 194.5,473 C196.218,480.425 199.338,488.041 202.699,494.845 " fill="none" style="stroke: #000000; stroke-width: 1.0;"/><polygon fill="#000000" points="208.953,506.334,208.1633,496.5169,206.5625,501.9425,201.1368,500.3417,208.953,506.334" style="stroke: #000000; stroke-width: 1.0;"/><line style="stroke: #000000; stroke-width: 1.0;" x1="206.5625" x2="202.7375" y1="501.9425" y2="494.9165"/><polygon fill="#000000" points="195.048,421.783,190.2563,427.1719,193.3877,433.6676,198.1794,428.2787,195.048,421.783" style="stroke: #000000; stroke-width: 1.0;"/><text fill="#000000" font-family="sans-serif" font-size="13" lengthAdjust="spacingAndGlyphs" textLength="126" x="195.5" y="469.4951">parameterMappings[ ]</text><path d="M224.37,531.583 C237.111,550.3357 262.28,587.38 276.692,608.5917 " fill="none" style="stroke: #000000; stroke-width: 1.0;"/><polygon fill="#000000" points="279.595,612.8655,277.8456,603.1733,276.785,608.7298,271.2285,607.6692,279.595,612.8655" style="stroke: #000000; stroke-width: 1.0;"/><text fill="#000000" font-family="sans-serif" font-size="13" lengthAdjust="spacingAndGlyphs" textLength="58" x="259.5" y="579.4951">parameter</text><path d="M197.794,541.4807 C182.127,559.4725 159.875,585.0255 144.207,603.0177 " fill="none" style="stroke: #000000; stroke-width: 1.0;"/><polygon fill="#000000" points="135.631,612.8655,144.5579,608.7049,138.9145,609.0947,138.5246,603.4513,135.631,612.8655" style="stroke: #000000; stroke-width: 1.0;"/><line style="stroke: #000000; stroke-width: 1.0;" x1="138.9145" x2="144.1685" y1="609.0947" y2="603.0617"/><polygon fill="#000000" points="206.414,531.583,199.4572,533.4811,198.5336,540.6329,205.4904,538.7347,206.414,531.583" style="stroke: #000000; stroke-width: 1.0;"/><text fill="#000000" font-family="sans-serif" font-size="13" lengthAdjust="spacingAndGlyphs" textLength="54" x="177.5" y="579.4951">argument</text></g></svg>