<?xml version="1.0" encoding="UTF-8" standalone="yes"?><svg xmlns="http://www.w3.org/2000/svg" xmlns:xlink="http://www.w3.org/1999/xlink" height="317px" style="width:441px;height:317px;" version="1.1" viewBox="0 0 441 317" width="441px"><defs><filter height="300%" id="f1" width="300%" x="-1" y="-1"><feGaussianBlur result="blurOut" stdDeviation="2.0"/><feColorMatrix in="blurOut" result="blurOut2" type="matrix" values="0 0 0 0 0 0 0 0 0 0 0 0 0 0 0 0 0 0 .4 0"/><feOffset dx="4.0" dy="4.0" in="blurOut2" result="blurOut3"/><feBlend in="SourceGraphic" in2="blurOut3" mode="normal"/></filter></defs><g><a xlink:href="https://world.mendix.com/display/refguide6/Import+XML" xlink:title="https://world.mendix.com/display/refguide6/Import+XML"><rect fill="#CFECFE" filter="url(#f1)" height="25.0938" style="stroke: #000000; stroke-width: 1.5;" width="101" x="6" y="94"/><text fill="#000000" font-family="sans-serif" font-size="12" lengthAdjust="spacingAndGlyphs" textLength="89" x="12" y="111.457">ImportXmlAction</text></a><rect fill="#CFECFE" filter="url(#f1)" height="25.0938" style="stroke: #000000; stroke-width: 1.5;" width="98" x="7.5" y="197"/><text fill="#000000" font-family="sans-serif" font-size="12" lengthAdjust="spacingAndGlyphs" textLength="86" x="13.5" y="214.457">ResultHandling</text><rect fill="#D3D3D3" filter="url(#f1)" height="25.0938" style="stroke: #000000; stroke-width: 1.5;" width="96" x="87.5" y="8"/><text fill="#000000" font-family="sans-serif" font-size="12" font-style="italic" lengthAdjust="spacingAndGlyphs" textLength="84" x="93.5" y="25.457">MicroflowAction</text><a xlink:href="https://world.mendix.com/display/refguide6/Export+XML" xlink:title="https://world.mendix.com/display/refguide6/Export+XML"><rect fill="#CFECFE" filter="url(#f1)" height="25.0938" style="stroke: #000000; stroke-width: 1.5;" width="100" x="142.5" y="94"/><text fill="#000000" font-family="sans-serif" font-size="12" lengthAdjust="spacingAndGlyphs" textLength="88" x="148.5" y="111.457">ExportXmlAction</text></a><rect fill="#CFECFE" filter="url(#f1)" height="25.0938" style="stroke: #000000; stroke-width: 1.5;" width="93" x="143" y="197"/><text fill="#000000" font-family="sans-serif" font-size="12" lengthAdjust="spacingAndGlyphs" textLength="81" x="149" y="214.457">ExportMapping</text><a xlink:href="https://world.mendix.com/display/refguide6/Export+XML" xlink:title="https://world.mendix.com/display/refguide6/Export+XML"><rect fill="#D3D3D3" filter="url(#f1)" height="25.0938" style="stroke: #000000; stroke-width: 1.5;" width="88" x="271.5" y="197"/><text fill="#000000" font-family="sans-serif" font-size="12" font-style="italic" lengthAdjust="spacingAndGlyphs" textLength="76" x="277.5" y="214.457">OutputMethod</text></a><a xlink:href="https://world.mendix.com/display/refguide6/Export+XML" xlink:title="https://world.mendix.com/display/refguide6/Export+XML"><rect fill="#CFECFE" filter="url(#f1)" height="25.0938" style="stroke: #000000; stroke-width: 1.5;" width="123" x="183" y="283"/><text fill="#000000" font-family="sans-serif" font-size="12" lengthAdjust="spacingAndGlyphs" textLength="111" x="189" y="300.457">FileDocumentExport</text></a><a xlink:href="https://world.mendix.com/display/refguide6/Export+XML" xlink:title="https://world.mendix.com/display/refguide6/Export+XML"><rect fill="#CFECFE" filter="url(#f1)" height="25.0938" style="stroke: #000000; stroke-width: 1.5;" width="91" x="341" y="283"/><text fill="#000000" font-family="sans-serif" font-size="12" lengthAdjust="spacingAndGlyphs" textLength="79" x="347" y="300.457">VariableExport</text></a><path d="M56.5,132.373 C56.5,147.911 56.5,167.854 56.5,183.429 " fill="none" style="stroke: #000000; stroke-width: 1.0;"/><polygon fill="#000000" points="56.5,196.738,60.5,187.738,56.5,191.738,52.5,187.738,56.5,196.738" style="stroke: #000000; stroke-width: 1.0;"/><line style="stroke: #000000; stroke-width: 1.0;" x1="56.5" x2="56.5001" y1="191.738" y2="183.738"/><polygon fill="#000000" points="56.5,119.086,52.5,125.086,56.5,131.086,60.5,125.086,56.5,119.086" style="stroke: #000000; stroke-width: 1.0;"/><text fill="#000000" font-family="sans-serif" font-size="13" lengthAdjust="spacingAndGlyphs" textLength="82" x="57.5" y="163.4951">resultHandling</text><path d="M110.417,48.17 C95.9281,63.576 78.4392,82.172 67.3913,93.919 " fill="none" style="stroke: #000000; stroke-width: 1.0;"/><polygon fill="none" points="105.7143,42.953,124.515,33.18,115.913,52.545,105.7143,42.953" style="stroke: #000000; stroke-width: 1.0;"/><path d="M192.156,119.086 C191.627,136.875 190.614,171.011 190.003,191.572 " fill="none" style="stroke: #000000; stroke-width: 1.0;"/><polygon fill="#000000" points="189.849,196.738,194.1147,187.8608,189.9976,191.7402,186.1182,187.6231,189.849,196.738" style="stroke: #000000; stroke-width: 1.0;"/><text fill="#000000" font-family="sans-serif" font-size="13" lengthAdjust="spacingAndGlyphs" textLength="49" x="192.5" y="163.4951">mapping</text><path d="M220.599,126.582 C230.262,133.412 241.029,141.323 250.5,149 C265.542,161.192 281.598,175.872 293.989,187.6 " fill="none" style="stroke: #000000; stroke-width: 1.0;"/><polygon fill="#000000" points="303.432,196.637,299.6959,187.5243,299.8198,193.1798,294.1643,193.3037,303.432,196.637" style="stroke: #000000; stroke-width: 1.0;"/><line style="stroke: #000000; stroke-width: 1.0;" x1="299.8198" x2="294.04" y1="193.1798" y2="187.649"/><polygon fill="#000000" points="209.904,119.141,212.5449,125.8511,219.7546,125.9942,217.1137,119.2841,209.904,119.141" style="stroke: #000000; stroke-width: 1.0;"/><text fill="#000000" font-family="sans-serif" font-size="13" lengthAdjust="spacingAndGlyphs" textLength="79" x="272.5" y="163.4951">outputMethod</text><path d="M154.944,50.154 C165.117,65.147 177.01,82.672 184.642,93.919 " fill="none" style="stroke: #000000; stroke-width: 1.0;"/><polygon fill="none" points="148.863,53.66,143.426,33.18,160.448,45.799,148.863,53.66" style="stroke: #000000; stroke-width: 1.0;"/><path d="M292.541,237.6631 C279.602,252.9714 264.112,271.2972 254.288,282.9194 " fill="none" style="stroke: #000000; stroke-width: 1.0;"/><polygon fill="none" points="287.371,232.9357,305.628,222.1798,298.063,241.9732,287.371,232.9357" style="stroke: #000000; stroke-width: 1.0;"/><path d="M338.459,237.6631 C351.398,252.9714 366.888,271.2972 376.712,282.9194 " fill="none" style="stroke: #000000; stroke-width: 1.0;"/><polygon fill="none" points="332.937,241.9732,325.372,222.1798,343.629,232.9357,332.937,241.9732" style="stroke: #000000; stroke-width: 1.0;"/></g></svg>