<?xml version="1.0" encoding="UTF-8" standalone="yes"?><svg xmlns="http://www.w3.org/2000/svg" xmlns:xlink="http://www.w3.org/1999/xlink" height="255px" style="width:391px;height:255px;" version="1.1" viewBox="0 0 391 255" width="391px"><defs><filter height="300%" id="f1" width="300%" x="-1" y="-1"><feGaussianBlur result="blurOut" stdDeviation="2.0"/><feColorMatrix in="blurOut" result="blurOut2" type="matrix" values="0 0 0 0 0 0 0 0 0 0 0 0 0 0 0 0 0 0 .4 0"/><feOffset dx="4.0" dy="4.0" in="blurOut2" result="blurOut3"/><feBlend in="SourceGraphic" in2="blurOut3" mode="normal"/></filter></defs><g><rect fill="#D3D3D3" filter="url(#f1)" height="32" style="stroke: #000000; stroke-width: 1.5;" width="116" x="184.5" y="8"/><ellipse cx="199.5" cy="24" fill="#CFECFE" rx="11" ry="11" style="stroke: #000000; stroke-width: 1.0;"/><path d="M197.4375,22.2188 L197.4375,27.2969 L198.0625,27.2969 Q198.6719,27.2969 198.9297,27.5313 Q199.1875,27.7656 199.1875,28.1563 Q199.1875,28.5313 198.9297,28.7656 Q198.6719,29 198.0625,29 L195.8281,29 Q195.2031,29 194.9453,28.7656 Q194.6875,28.5313 194.6875,28.1406 Q194.6875,27.7656 194.9453,27.5313 Q195.2031,27.2969 195.7344,27.2969 L195.7344,20.6406 Q195.2969,20.5938 195.0625,20.3672 Q194.8281,20.1406 194.8281,19.7813 Q194.8281,19.4063 195.0938,19.1719 Q195.3594,18.9375 195.9688,18.9375 L197.8438,18.9375 L200.1563,24.0625 L202.4219,18.9375 L204.3125,18.9375 Q204.9219,18.9375 205.1875,19.1719 Q205.4531,19.4063 205.4531,19.7813 Q205.4531,20.1406 205.2188,20.3672 Q204.9844,20.5938 204.5469,20.6406 L204.5469,27.2969 Q205.0781,27.2969 205.3359,27.5391 Q205.5938,27.7813 205.5938,28.1563 Q205.5938,28.5313 205.3359,28.7656 Q205.0781,29 204.4688,29 L202.2188,29 Q201.6094,29 201.3516,28.7656 Q201.0938,28.5313 201.0938,28.1406 Q201.0938,27.7656 201.3516,27.5313 Q201.6094,27.2969 202.2188,27.2969 L202.8438,27.2969 L202.8438,22.2188 L200.8906,26.6094 L199.4219,26.6094 L197.4375,22.2188 Z "/><text fill="#000000" font-family="sans-serif" font-size="12" font-style="italic" lengthAdjust="spacingAndGlyphs" textLength="78" x="216.5" y="28.9102">MicroflowBase</text><rect fill="#CFECFE" filter="url(#f1)" height="25.0938" style="stroke: #000000; stroke-width: 1.5;" width="153" x="6" y="118"/><text fill="#000000" font-family="sans-serif" font-size="12" lengthAdjust="spacingAndGlyphs" textLength="141" x="12" y="135.457">MicroflowObjectCollection</text><rect fill="#D3D3D3" filter="url(#f1)" height="25.0938" style="stroke: #000000; stroke-width: 1.5;" width="37" x="224" y="118"/><text fill="#000000" font-family="sans-serif" font-size="12" font-style="italic" lengthAdjust="spacingAndGlyphs" textLength="25" x="230" y="135.457">Flow</text><rect fill="#CFECFE" filter="url(#f1)" height="25.0938" style="stroke: #000000; stroke-width: 1.5;" width="64" x="296.5" y="118"/><text fill="#000000" font-family="sans-serif" font-size="12" lengthAdjust="spacingAndGlyphs" textLength="52" x="302.5" y="135.457">DataType</text><rect fill="#D3D3D3" filter="url(#f1)" height="25.0938" style="stroke: #000000; stroke-width: 1.5;" width="98" x="125.5" y="221"/><text fill="#000000" font-family="sans-serif" font-size="12" font-style="italic" lengthAdjust="spacingAndGlyphs" textLength="86" x="131.5" y="238.457">MicroflowObject</text><a xlink:href="https://world.mendix.com/display/refguide6/Sequence+Flow" xlink:title="https://world.mendix.com/display/refguide6/Sequence+Flow"><rect fill="#CFECFE" filter="url(#f1)" height="25.0938" style="stroke: #000000; stroke-width: 1.5;" width="94" x="288.5" y="221"/><text fill="#000000" font-family="sans-serif" font-size="12" lengthAdjust="spacingAndGlyphs" textLength="82" x="294.5" y="238.457">SequenceFlow</text></a><path d="M186.439,45.159 C170.909,51.938 154.488,60.289 140.5,70 C125.439,80.455 111.037,95.194 100.3519,107.387 " fill="none" style="stroke: #000000; stroke-width: 1.0;"/><polygon fill="#000000" points="91.6715,117.672,100.533,113.3738,94.8963,113.8509,94.4192,108.2142,91.6715,117.672" style="stroke: #000000; stroke-width: 1.0;"/><line style="stroke: #000000; stroke-width: 1.0;" x1="94.8963" x2="100.0561" y1="113.8509" y2="107.7375"/><polygon fill="#000000" points="198.638,40.063,191.5599,38.6843,187.5649,44.6877,194.643,46.0663,198.638,40.063" style="stroke: #000000; stroke-width: 1.0;"/><text fill="#000000" font-family="sans-serif" font-size="13" lengthAdjust="spacingAndGlyphs" textLength="92" x="141.5" y="84.4951">objectCollection</text><path d="M242.5,53.488 C242.5,69.538 242.5,89.389 242.5,104.779 " fill="none" style="stroke: #000000; stroke-width: 1.0;"/><polygon fill="#000000" points="242.5,117.899,246.5,108.899,242.5,112.899,238.5,108.899,242.5,117.899" style="stroke: #000000; stroke-width: 1.0;"/><line style="stroke: #000000; stroke-width: 1.0;" x1="242.5" x2="242.5" y1="112.899" y2="104.899"/><polygon fill="#000000" points="242.5,40.419,238.5,46.419,242.5,52.419,246.5,46.419,242.5,40.419" style="stroke: #000000; stroke-width: 1.0;"/><text fill="#000000" font-family="sans-serif" font-size="13" lengthAdjust="spacingAndGlyphs" textLength="41" x="243.5" y="84.4951">flows[ ]</text><path d="M269.922,49.243 C276.632,55.706 283.58,62.88 289.5,70 C298.895,81.298 307.98,94.945 315.015,106.318 " fill="none" style="stroke: #000000; stroke-width: 1.0;"/><polygon fill="#000000" points="321.761,117.548,320.5555,107.7732,319.1863,113.2618,313.6977,111.8926,321.761,117.548" style="stroke: #000000; stroke-width: 1.0;"/><line style="stroke: #000000; stroke-width: 1.0;" x1="319.1863" x2="315.0665" y1="113.2618" y2="106.404"/><polygon fill="#000000" points="260.408,40.371,262.0675,47.3886,269.1835,48.5558,267.524,41.5382,260.408,40.371" style="stroke: #000000; stroke-width: 1.0;"/><text fill="#000000" font-family="sans-serif" font-size="13" lengthAdjust="spacingAndGlyphs" textLength="61" x="303.5" y="84.4951">returnType</text><path d="M87.0489,156.0379 C90.16,167.6118 95.2653,181.0341 103.5,191 C111.515,200.6994 122.425,208.6387 133.287,214.8803 " fill="none" style="stroke: #000000; stroke-width: 1.0;"/><polygon fill="#000000" points="144.916,220.9899,138.8087,213.2632,140.4896,218.6646,135.0882,220.3455,144.916,220.9899" style="stroke: #000000; stroke-width: 1.0;"/><line style="stroke: #000000; stroke-width: 1.0;" x1="140.4896" x2="133.408" y1="218.6646" y2="214.9437"/><polygon fill="#000000" points="84.1668,143.193,81.5776,149.9232,86.7943,154.9018,89.3835,148.1716,84.1668,143.193" style="stroke: #000000; stroke-width: 1.0;"/><text fill="#000000" font-family="sans-serif" font-size="13" lengthAdjust="spacingAndGlyphs" textLength="54" x="104.5" y="187.4951">objects[ ]</text><path d="M223.863,136.596 C206.833,142.354 182.656,153.5574 171.5,173 C164.113,185.8735 165.95,203.0103 168.992,215.5858 " fill="none" style="stroke: #000000; stroke-width: 1.0; stroke-dasharray: 7.0,7.0;"/><polygon fill="#000000" points="170.345,220.6703,171.8946,210.9441,169.0585,215.8386,164.164,213.0025,170.345,220.6703" style="stroke: #000000; stroke-width: 1.0;"/><text fill="#000000" font-family="sans-serif" font-size="13" lengthAdjust="spacingAndGlyphs" textLength="31" x="172.5" y="187.4951">origin</text><path d="M236.534,143.253 C230.14,155.5133 219.427,175.1228 208.5,191 C202.352,199.9339 194.763,209.3262 188.315,216.9117 " fill="none" style="stroke: #000000; stroke-width: 1.0; stroke-dasharray: 7.0,7.0;"/><polygon fill="#000000" points="184.867,220.9256,193.7656,216.7049,188.125,217.1328,187.6971,211.4921,184.867,220.9256" style="stroke: #000000; stroke-width: 1.0;"/><text fill="#000000" font-family="sans-serif" font-size="13" lengthAdjust="spacingAndGlyphs" textLength="63" x="221.5" y="187.4951">destination</text><path d="M274.91,155.6361 C281.36,161.0438 287.872,166.9735 293.5,173 C307.653,188.1556 320.909,208.3119 328.609,220.8419 " fill="none" style="stroke: #000000; stroke-width: 1.0;"/><polygon fill="none" points="270.472,161.0513,259.095,143.175,279.137,150.0547,270.472,161.0513" style="stroke: #000000; stroke-width: 1.0;"/></g></svg>