<?xml version="1.0" encoding="UTF-8" standalone="yes"?><svg xmlns="http://www.w3.org/2000/svg" xmlns:xlink="http://www.w3.org/1999/xlink" height="334px" style="width:351px;height:334px;" version="1.1" viewBox="0 0 351 334" width="351px"><defs><filter height="300%" id="f1" width="300%" x="-1" y="-1"><feGaussianBlur result="blurOut" stdDeviation="2.0"/><feColorMatrix in="blurOut" result="blurOut2" type="matrix" values="0 0 0 0 0 0 0 0 0 0 0 0 0 0 0 0 0 0 .4 0"/><feOffset dx="4.0" dy="4.0" in="blurOut2" result="blurOut3"/><feBlend in="SourceGraphic" in2="blurOut3" mode="normal"/></filter></defs><g><a xlink:href="https://world.mendix.com/display/refguide6/Java+Action+Call" xlink:title="https://world.mendix.com/display/refguide6/Java+Action+Call"><rect fill="#CFECFE" filter="url(#f1)" height="25.0938" style="stroke: #000000; stroke-width: 1.5;" width="125" x="28.5" y="94"/><text fill="#000000" font-family="sans-serif" font-size="12" lengthAdjust="spacingAndGlyphs" textLength="113" x="34.5" y="111.457">JavaActionCallAction</text></a><rect fill="#CFECFE" filter="url(#f1)" height="25.0938" style="stroke: #000000; stroke-width: 1.5;" width="70" x="6" y="197"/><text fill="#000000" font-family="sans-serif" font-size="12" lengthAdjust="spacingAndGlyphs" textLength="58" x="12" y="214.457">JavaAction</text><a xlink:href="https://world.mendix.com/display/refguide6/Java+Action+Call" xlink:title="https://world.mendix.com/display/refguide6/Java+Action+Call"><rect fill="#CFECFE" filter="url(#f1)" height="25.0938" style="stroke: #000000; stroke-width: 1.5;" width="175" x="111.5" y="197"/><text fill="#000000" font-family="sans-serif" font-size="12" lengthAdjust="spacingAndGlyphs" textLength="163" x="117.5" y="214.457">JavaActionParameterMapping</text></a><rect fill="#D3D3D3" filter="url(#f1)" height="25.0938" style="stroke: #000000; stroke-width: 1.5;" width="96" x="43" y="8"/><text fill="#000000" font-family="sans-serif" font-size="12" font-style="italic" lengthAdjust="spacingAndGlyphs" textLength="84" x="49" y="25.457">MicroflowAction</text><rect fill="#CFECFE" filter="url(#f1)" height="25.0938" style="stroke: #000000; stroke-width: 1.5;" width="128" x="54" y="300"/><text fill="#000000" font-family="sans-serif" font-size="12" lengthAdjust="spacingAndGlyphs" textLength="116" x="60" y="317.457">JavaActionParameter</text><rect fill="#CFECFE" filter="url(#f1)" height="25.0938" style="stroke: #000000; stroke-width: 1.5;" width="125" x="217.5" y="300"/><text fill="#000000" font-family="sans-serif" font-size="12" lengthAdjust="spacingAndGlyphs" textLength="113" x="223.5" y="317.457">MicroflowExpression</text><path d="M83.3124,119.227 C78.1107,127.4 71.2566,138.651 66,149 C58.8073,163.161 51.915,179.882 47.1958,191.986 " fill="none" style="stroke: #000000; stroke-width: 1.0;"/><polygon fill="#000000" points="45.3117,196.871,52.2835,189.9144,47.1117,192.2062,44.8198,187.0344,45.3117,196.871" style="stroke: #000000; stroke-width: 1.0;"/><text fill="#000000" font-family="sans-serif" font-size="13" lengthAdjust="spacingAndGlyphs" textLength="59" x="67" y="163.4951">javaAction</text><path d="M112.946,128.023 C131.521,145.395 158.028,170.184 176.703,187.648 " fill="none" style="stroke: #000000; stroke-width: 1.0;"/><polygon fill="#000000" points="186.423,196.738,182.5816,187.6692,182.7711,193.3228,177.1174,193.5123,186.423,196.738" style="stroke: #000000; stroke-width: 1.0;"/><line style="stroke: #000000; stroke-width: 1.0;" x1="182.7711" x2="176.928" y1="193.3228" y2="187.8585"/><polygon fill="#000000" points="103.389,119.086,105.0392,126.1057,112.1537,127.2824,110.5035,120.2626,103.389,119.086" style="stroke: #000000; stroke-width: 1.0;"/><text fill="#000000" font-family="sans-serif" font-size="13" lengthAdjust="spacingAndGlyphs" textLength="126" x="153" y="163.4951">parameterMappings[ ]</text><path d="M91,53.183 C91,67.456 91,83.422 91,93.919 " fill="none" style="stroke: #000000; stroke-width: 1.0;"/><polygon fill="none" points="84.0001,53.18,91,33.18,98.0001,53.18,84.0001,53.18" style="stroke: #000000; stroke-width: 1.0;"/><path d="M189.708,222.086 C175.199,240.178 147.13,275.1778 130.743,295.6104 " fill="none" style="stroke: #000000; stroke-width: 1.0;"/><polygon fill="#000000" points="127.433,299.738,136.1845,295.2201,130.5614,295.8376,129.9439,290.2146,127.433,299.738" style="stroke: #000000; stroke-width: 1.0;"/><text fill="#000000" font-family="sans-serif" font-size="13" lengthAdjust="spacingAndGlyphs" textLength="58" x="165" y="266.4951">parameter</text><path d="M216.598,232.4431 C230.066,249.2367 248.568,272.3066 262.108,289.1906 " fill="none" style="stroke: #000000; stroke-width: 1.0;"/><polygon fill="#000000" points="270.567,299.738,268.0567,290.2144,267.4388,295.8374,261.8158,295.2195,270.567,299.738" style="stroke: #000000; stroke-width: 1.0;"/><line style="stroke: #000000; stroke-width: 1.0;" x1="267.4388" x2="262.4335" y1="295.8374" y2="289.5966"/><polygon fill="#000000" points="208.292,222.086,208.9254,229.2692,215.7998,231.4473,215.1663,224.2641,208.292,222.086" style="stroke: #000000; stroke-width: 1.0;"/><text fill="#000000" font-family="sans-serif" font-size="13" lengthAdjust="spacingAndGlyphs" textLength="54" x="246" y="266.4951">argument</text></g></svg>