<?xml version="1.0" encoding="UTF-8" standalone="yes"?><svg xmlns="http://www.w3.org/2000/svg" xmlns:xlink="http://www.w3.org/1999/xlink" height="355px" style="width:674px;height:355px;" version="1.1" viewBox="0 0 674 355" width="674px"><defs><filter height="300%" id="f1" width="300%" x="-1" y="-1"><feGaussianBlur result="blurOut" stdDeviation="2.0"/><feColorMatrix in="blurOut" result="blurOut2" type="matrix" values="0 0 0 0 0 0 0 0 0 0 0 0 0 0 0 0 0 0 .4 0"/><feOffset dx="4.0" dy="4.0" in="blurOut2" result="blurOut3"/><feBlend in="SourceGraphic" in2="blurOut3" mode="normal"/></filter></defs><g><a xlink:href="https://world.mendix.com/display/refguide6/Microflows" xlink:title="https://world.mendix.com/display/refguide6/Microflows"><rect fill="#CFECFE" filter="url(#f1)" height="32" style="stroke: #000000; stroke-width: 1.5;" width="89" x="157" y="211"/><ellipse cx="172" cy="227" fill="#CFECFE" rx="11" ry="11" style="stroke: #000000; stroke-width: 1.0;"/><path d="M169.9375,225.2188 L169.9375,230.2969 L170.5625,230.2969 Q171.1719,230.2969 171.4297,230.5313 Q171.6875,230.7656 171.6875,231.1563 Q171.6875,231.5313 171.4297,231.7656 Q171.1719,232 170.5625,232 L168.3281,232 Q167.7031,232 167.4453,231.7656 Q167.1875,231.5313 167.1875,231.1406 Q167.1875,230.7656 167.4453,230.5313 Q167.7031,230.2969 168.2344,230.2969 L168.2344,223.6406 Q167.7969,223.5938 167.5625,223.3672 Q167.3281,223.1406 167.3281,222.7813 Q167.3281,222.4063 167.5938,222.1719 Q167.8594,221.9375 168.4688,221.9375 L170.3438,221.9375 L172.6563,227.0625 L174.9219,221.9375 L176.8125,221.9375 Q177.4219,221.9375 177.6875,222.1719 Q177.9531,222.4063 177.9531,222.7813 Q177.9531,223.1406 177.7188,223.3672 Q177.4844,223.5938 177.0469,223.6406 L177.0469,230.2969 Q177.5781,230.2969 177.8359,230.5391 Q178.0938,230.7813 178.0938,231.1563 Q178.0938,231.5313 177.8359,231.7656 Q177.5781,232 176.9688,232 L174.7188,232 Q174.1094,232 173.8516,231.7656 Q173.5938,231.5313 173.5938,231.1406 Q173.5938,230.7656 173.8516,230.5313 Q174.1094,230.2969 174.7188,230.2969 L175.3438,230.2969 L175.3438,225.2188 L173.3906,229.6094 L171.9219,229.6094 L169.9375,225.2188 Z "/><text fill="#000000" font-family="sans-serif" font-size="12" lengthAdjust="spacingAndGlyphs" textLength="51" x="189" y="231.9102">Microflow</text></a><rect fill="#CFECFE" filter="url(#f1)" height="25.0938" style="stroke: #000000; stroke-width: 1.5;" width="121" x="6" y="321"/><text fill="#000000" font-family="sans-serif" font-size="12" lengthAdjust="spacingAndGlyphs" textLength="109" x="12" y="338.457">MicroflowParameter</text><rect fill="#CFECFE" filter="url(#f1)" height="25.0938" style="stroke: #000000; stroke-width: 1.5;" width="78" x="162.5" y="321"/><text fill="#000000" font-family="sans-serif" font-size="12" lengthAdjust="spacingAndGlyphs" textLength="66" x="168.5" y="338.457">ModuleRole</text><rect fill="#CFECFE" filter="url(#f1)" height="25.0938" style="stroke: #000000; stroke-width: 1.5;" width="34" x="356.5" y="321"/><text fill="#000000" font-family="sans-serif" font-size="12" lengthAdjust="spacingAndGlyphs" textLength="22" x="362.5" y="338.457">Text</text><rect fill="#D3D3D3" filter="url(#f1)" height="32" style="stroke: #000000; stroke-width: 1.5;" width="116" x="438.5" y="101"/><ellipse cx="453.5" cy="117" fill="#CFECFE" rx="11" ry="11" style="stroke: #000000; stroke-width: 1.0;"/><path d="M451.4375,115.2188 L451.4375,120.2969 L452.0625,120.2969 Q452.6719,120.2969 452.9297,120.5313 Q453.1875,120.7656 453.1875,121.1563 Q453.1875,121.5313 452.9297,121.7656 Q452.6719,122 452.0625,122 L449.8281,122 Q449.2031,122 448.9453,121.7656 Q448.6875,121.5313 448.6875,121.1406 Q448.6875,120.7656 448.9453,120.5313 Q449.2031,120.2969 449.7344,120.2969 L449.7344,113.6406 Q449.2969,113.5938 449.0625,113.3672 Q448.8281,113.1406 448.8281,112.7813 Q448.8281,112.4063 449.0938,112.1719 Q449.3594,111.9375 449.9688,111.9375 L451.8438,111.9375 L454.1563,117.0625 L456.4219,111.9375 L458.3125,111.9375 Q458.9219,111.9375 459.1875,112.1719 Q459.4531,112.4063 459.4531,112.7813 Q459.4531,113.1406 459.2188,113.3672 Q458.9844,113.5938 458.5469,113.6406 L458.5469,120.2969 Q459.0781,120.2969 459.3359,120.5391 Q459.5938,120.7813 459.5938,121.1563 Q459.5938,121.5313 459.3359,121.7656 Q459.0781,122 458.4688,122 L456.2188,122 Q455.6094,122 455.3516,121.7656 Q455.0938,121.5313 455.0938,121.1406 Q455.0938,120.7656 455.3516,120.5313 Q455.6094,120.2969 456.2188,120.2969 L456.8438,120.2969 L456.8438,115.2188 L454.8906,119.6094 L453.4219,119.6094 L451.4375,115.2188 Z "/><text fill="#000000" font-family="sans-serif" font-size="12" font-style="italic" lengthAdjust="spacingAndGlyphs" textLength="78" x="470.5" y="121.9102">MicroflowBase</text><rect fill="#CFECFE" filter="url(#f1)" height="25.0938" style="stroke: #000000; stroke-width: 1.5;" width="64" x="464.5" y="214.5"/><text fill="#000000" font-family="sans-serif" font-size="12" lengthAdjust="spacingAndGlyphs" textLength="52" x="470.5" y="231.957">DataType</text><rect fill="#CFECFE" filter="url(#f1)" height="32" style="stroke: #000000; stroke-width: 1.5;" width="95" x="449" y="8"/><ellipse cx="464" cy="24" fill="#CFECFE" rx="11" ry="11" style="stroke: #000000; stroke-width: 1.0;"/><path d="M461.9375,22.2188 L461.9375,27.2969 L462.5625,27.2969 Q463.1719,27.2969 463.4297,27.5313 Q463.6875,27.7656 463.6875,28.1563 Q463.6875,28.5313 463.4297,28.7656 Q463.1719,29 462.5625,29 L460.3281,29 Q459.7031,29 459.4453,28.7656 Q459.1875,28.5313 459.1875,28.1406 Q459.1875,27.7656 459.4453,27.5313 Q459.7031,27.2969 460.2344,27.2969 L460.2344,20.6406 Q459.7969,20.5938 459.5625,20.3672 Q459.3281,20.1406 459.3281,19.7813 Q459.3281,19.4063 459.5938,19.1719 Q459.8594,18.9375 460.4688,18.9375 L462.3438,18.9375 L464.6563,24.0625 L466.9219,18.9375 L468.8125,18.9375 Q469.4219,18.9375 469.6875,19.1719 Q469.9531,19.4063 469.9531,19.7813 Q469.9531,20.1406 469.7188,20.3672 Q469.4844,20.5938 469.0469,20.6406 L469.0469,27.2969 Q469.5781,27.2969 469.8359,27.5391 Q470.0938,27.7813 470.0938,28.1563 Q470.0938,28.5313 469.8359,28.7656 Q469.5781,29 468.9688,29 L466.7188,29 Q466.1094,29 465.8516,28.7656 Q465.5938,28.5313 465.5938,28.1406 Q465.5938,27.7656 465.8516,27.5313 Q466.1094,27.2969 466.7188,27.2969 L467.3438,27.2969 L467.3438,22.2188 L465.3906,26.6094 L463.9219,26.6094 L461.9375,22.2188 Z "/><text fill="#000000" font-family="sans-serif" font-size="12" lengthAdjust="spacingAndGlyphs" textLength="57" x="481" y="28.9102">Document</text><a xlink:href="https://world.mendix.com/display/refguide6/Rules" xlink:title="https://world.mendix.com/display/refguide6/Rules"><rect fill="#CFECFE" filter="url(#f1)" height="32" style="stroke: #000000; stroke-width: 1.5;" width="64" x="563.5" y="211"/><ellipse cx="578.5" cy="227" fill="#CFECFE" rx="11" ry="11" style="stroke: #000000; stroke-width: 1.0;"/><path d="M576.4375,225.2188 L576.4375,230.2969 L577.0625,230.2969 Q577.6719,230.2969 577.9297,230.5313 Q578.1875,230.7656 578.1875,231.1563 Q578.1875,231.5313 577.9297,231.7656 Q577.6719,232 577.0625,232 L574.8281,232 Q574.2031,232 573.9453,231.7656 Q573.6875,231.5313 573.6875,231.1406 Q573.6875,230.7656 573.9453,230.5313 Q574.2031,230.2969 574.7344,230.2969 L574.7344,223.6406 Q574.2969,223.5938 574.0625,223.3672 Q573.8281,223.1406 573.8281,222.7813 Q573.8281,222.4063 574.0938,222.1719 Q574.3594,221.9375 574.9688,221.9375 L576.8438,221.9375 L579.1563,227.0625 L581.4219,221.9375 L583.3125,221.9375 Q583.9219,221.9375 584.1875,222.1719 Q584.4531,222.4063 584.4531,222.7813 Q584.4531,223.1406 584.2188,223.3672 Q583.9844,223.5938 583.5469,223.6406 L583.5469,230.2969 Q584.0781,230.2969 584.3359,230.5391 Q584.5938,230.7813 584.5938,231.1563 Q584.5938,231.5313 584.3359,231.7656 Q584.0781,232 583.4688,232 L581.2188,232 Q580.6094,232 580.3516,231.7656 Q580.0938,231.5313 580.0938,231.1406 Q580.0938,230.7656 580.3516,230.5313 Q580.6094,230.2969 581.2188,230.2969 L581.8438,230.2969 L581.8438,225.2188 L579.8906,229.6094 L578.4219,229.6094 L576.4375,225.2188 Z "/><text fill="#000000" font-family="sans-serif" font-size="12" lengthAdjust="spacingAndGlyphs" textLength="26" x="595.5" y="231.9102">Rule</text></a><rect fill="#CFECFE" filter="url(#f1)" height="25.0938" style="stroke: #000000; stroke-width: 1.5;" width="96" x="547.5" y="321"/><text fill="#000000" font-family="sans-serif" font-size="12" lengthAdjust="spacingAndGlyphs" textLength="84" x="553.5" y="338.457">RuleParameter</text><path d="M149.955,248.7103 C136.673,255.362 122.917,263.5103 111.5,273 C99.0996,283.3069 88.1173,297.6614 80.1067,309.6888 " fill="none" style="stroke: #000000; stroke-width: 1.0;"/><polygon fill="#000000" points="73.1442,320.7044,81.334,315.2338,75.8156,316.4779,74.5715,310.9595,73.1442,320.7044" style="stroke: #000000; stroke-width: 1.0;"/><line style="stroke: #000000; stroke-width: 1.0;" x1="75.8156" x2="80.0899" y1="316.4779" y2="309.7154"/><polygon fill="#000000" points="161.94,243.027,154.8047,241.9843,151.0978,248.1697,158.2331,249.2124,161.94,243.027" style="stroke: #000000; stroke-width: 1.0;"/><text fill="#000000" font-family="sans-serif" font-size="13" lengthAdjust="spacingAndGlyphs" textLength="77" x="112.5" y="287.4951">parameters[ ]</text><path d="M200.078,243.016 C199.039,255.7777 197.907,274.5858 198.5,291 C198.791,299.0537 199.398,307.9693 199.99,315.4662 " fill="none" style="stroke: #000000; stroke-width: 1.0;"/><polygon fill="#000000" points="200.435,320.8847,203.6851,311.5875,200.0258,315.9015,195.7119,312.2422,200.435,320.8847" style="stroke: #000000; stroke-width: 1.0;"/><text fill="#000000" font-family="sans-serif" font-size="13" lengthAdjust="spacingAndGlyphs" textLength="130" x="199.5" y="287.4951">allowedModuleRoles[ ]</text><path d="M258.788,238.538 C283.902,245.273 312.581,256.0441 334.5,273 C346.681,282.423 356.248,296.7819 362.858,309.0332 " fill="none" style="stroke: #000000; stroke-width: 1.0;"/><polygon fill="#000000" points="368.661,320.7421,368.2485,310.9019,366.4407,316.2621,361.0805,314.4543,368.661,320.7421" style="stroke: #000000; stroke-width: 1.0;"/><line style="stroke: #000000; stroke-width: 1.0;" x1="366.4407" x2="362.888" y1="316.2621" y2="309.0942"/><polygon fill="#000000" points="246.035,235.373,250.8942,240.701,257.6813,238.2648,252.8221,232.9368,246.035,235.373" style="stroke: #000000; stroke-width: 1.0;"/><text fill="#000000" font-family="sans-serif" font-size="13" lengthAdjust="spacingAndGlyphs" textLength="152" x="352.5" y="287.4951">concurrencyErrorMessage</text><path d="M246.049,216.979 C264.922,216.224 281,219.564 281,227 C281,233.738 267.795,237.113 251.272,237.125 " fill="none" style="stroke: #000000; stroke-width: 1.0;"/><polygon fill="#000000" points="246.049,237.021,254.9672,241.2002,251.048,237.121,255.1272,233.2018,246.049,237.021" style="stroke: #000000; stroke-width: 1.0;"/><text fill="#000000" font-family="sans-serif" font-size="13" lengthAdjust="spacingAndGlyphs" textLength="153" x="287" y="232.4951">concurrencyErrorMicroflow</text><path d="M436.329,140.029 C378.599,161.164 292.978,192.51 242.645,210.937 " fill="none" style="stroke: #000000; stroke-width: 1.0;"/><polygon fill="none" points="434.294,133.319,455.482,133.017,439.107,146.466,434.294,133.319" style="stroke: #000000; stroke-width: 1.0;"/><path d="M496.5,146.299 C496.5,163.301 496.5,184.737 496.5,201.095 " fill="none" style="stroke: #000000; stroke-width: 1.0;"/><polygon fill="#000000" points="496.5,214.416,500.5,205.416,496.5,209.416,492.5,205.416,496.5,214.416" style="stroke: #000000; stroke-width: 1.0;"/><line style="stroke: #000000; stroke-width: 1.0;" x1="496.5" x2="496.5" y1="209.416" y2="201.4165"/><polygon fill="#000000" points="496.5,133.017,492.5,139.017,496.5,145.017,500.5,139.017,496.5,133.017" style="stroke: #000000; stroke-width: 1.0;"/><text fill="#000000" font-family="sans-serif" font-size="13" lengthAdjust="spacingAndGlyphs" textLength="61" x="497.5" y="177.4951">returnType</text><path d="M496.5,60.238 C496.5,74.363 496.5,89.88 496.5,100.951 " fill="none" style="stroke: #000000; stroke-width: 1.0;"/><polygon fill="none" points="489.5,60.027,496.5,40.027,503.5,60.027,489.5,60.027" style="stroke: #000000; stroke-width: 1.0;"/><path d="M595.5,256.4878 C595.5,272.5377 595.5,292.3887 595.5,307.7791 " fill="none" style="stroke: #000000; stroke-width: 1.0;"/><polygon fill="#000000" points="595.5,320.8985,599.5,311.8985,595.5,315.8985,591.5,311.8985,595.5,320.8985" style="stroke: #000000; stroke-width: 1.0;"/><line style="stroke: #000000; stroke-width: 1.0;" x1="595.5" x2="595.5" y1="315.8985" y2="307.8986"/><polygon fill="#000000" points="595.5,243.419,591.5,249.419,595.5,255.419,599.5,249.419,595.5,243.419" style="stroke: #000000; stroke-width: 1.0;"/><text fill="#000000" font-family="sans-serif" font-size="13" lengthAdjust="spacingAndGlyphs" textLength="77" x="596.5" y="287.4951">parameters[ ]</text><path d="M545.057,143.997 C552.854,149.571 560.364,155.939 566.5,163 C578.742,177.087 586.791,197.211 591.236,210.897 " fill="none" style="stroke: #000000; stroke-width: 1.0;"/><polygon fill="none" points="541.062,149.752,527.954,133.103,548.583,137.944,541.062,149.752" style="stroke: #000000; stroke-width: 1.0;"/></g></svg>