<?xml version="1.0" encoding="UTF-8" standalone="yes"?><svg xmlns="http://www.w3.org/2000/svg" xmlns:xlink="http://www.w3.org/1999/xlink" height="334px" style="width:961px;height:334px;" version="1.1" viewBox="0 0 961 334" width="961px"><defs><filter height="300%" id="f1" width="300%" x="-1" y="-1"><feGaussianBlur result="blurOut" stdDeviation="2.0"/><feColorMatrix in="blurOut" result="blurOut2" type="matrix" values="0 0 0 0 0 0 0 0 0 0 0 0 0 0 0 0 0 0 .4 0"/><feOffset dx="4.0" dy="4.0" in="blurOut2" result="blurOut3"/><feBlend in="SourceGraphic" in2="blurOut3" mode="normal"/></filter></defs><g><rect fill="#D3D3D3" filter="url(#f1)" height="25.0938" style="stroke: #000000; stroke-width: 1.5;" width="96" x="546" y="8"/><text fill="#000000" font-family="sans-serif" font-size="12" font-style="italic" lengthAdjust="spacingAndGlyphs" textLength="84" x="552" y="25.457">MicroflowAction</text><a xlink:href="https://world.mendix.com/display/refguide6/Cast+Object" xlink:title="https://world.mendix.com/display/refguide6/Cast+Object"><rect fill="#CFECFE" filter="url(#f1)" height="25.0938" style="stroke: #000000; stroke-width: 1.5;" width="71" x="209.5" y="94"/><text fill="#000000" font-family="sans-serif" font-size="12" lengthAdjust="spacingAndGlyphs" textLength="59" x="215.5" y="111.457">CastAction</text></a><rect fill="#D3D3D3" filter="url(#f1)" height="25.0938" style="stroke: #000000; stroke-width: 1.5;" width="142" x="316" y="94"/><text fill="#000000" font-family="sans-serif" font-size="12" font-style="italic" lengthAdjust="spacingAndGlyphs" textLength="130" x="322" y="111.457">ChangeMembersAction</text><rect fill="#CFECFE" filter="url(#f1)" height="25.0938" style="stroke: #000000; stroke-width: 1.5;" width="101" x="130.5" y="197"/><text fill="#000000" font-family="sans-serif" font-size="12" lengthAdjust="spacingAndGlyphs" textLength="89" x="136.5" y="214.457">MemberChange</text><a xlink:href="https://world.mendix.com/display/refguide6/Create+Object" xlink:title="https://world.mendix.com/display/refguide6/Create+Object"><rect fill="#CFECFE" filter="url(#f1)" height="25.0938" style="stroke: #000000; stroke-width: 1.5;" width="117" x="328.5" y="197"/><text fill="#000000" font-family="sans-serif" font-size="12" lengthAdjust="spacingAndGlyphs" textLength="105" x="334.5" y="214.457">CreateObjectAction</text></a><rect fill="#CFECFE" filter="url(#f1)" height="25.0938" style="stroke: #000000; stroke-width: 1.5;" width="41" x="397.5" y="300"/><text fill="#000000" font-family="sans-serif" font-size="12" lengthAdjust="spacingAndGlyphs" textLength="29" x="403.5" y="317.457">Entity</text><a xlink:href="https://world.mendix.com/display/refguide6/Change+Object" xlink:title="https://world.mendix.com/display/refguide6/Change+Object"><rect fill="#CFECFE" filter="url(#f1)" height="25.0938" style="stroke: #000000; stroke-width: 1.5;" width="124" x="481" y="197"/><text fill="#000000" font-family="sans-serif" font-size="12" lengthAdjust="spacingAndGlyphs" textLength="112" x="487" y="214.457">ChangeObjectAction</text></a><a xlink:href="https://world.mendix.com/display/refguide6/Delete+Object(s)" xlink:title="https://world.mendix.com/display/refguide6/Delete+Object(s)"><rect fill="#CFECFE" filter="url(#f1)" height="25.0938" style="stroke: #000000; stroke-width: 1.5;" width="81" x="493.5" y="94"/><text fill="#000000" font-family="sans-serif" font-size="12" lengthAdjust="spacingAndGlyphs" textLength="69" x="499.5" y="111.457">DeleteAction</text></a><a xlink:href="https://world.mendix.com/display/refguide6/Commit+Object(s)" xlink:title="https://world.mendix.com/display/refguide6/Commit+Object(s)"><rect fill="#CFECFE" filter="url(#f1)" height="25.0938" style="stroke: #000000; stroke-width: 1.5;" width="89" x="609.5" y="94"/><text fill="#000000" font-family="sans-serif" font-size="12" lengthAdjust="spacingAndGlyphs" textLength="77" x="615.5" y="111.457">CommitAction</text></a><a xlink:href="https://world.mendix.com/display/refguide6/Rollback+Object" xlink:title="https://world.mendix.com/display/refguide6/Rollback+Object"><rect fill="#CFECFE" filter="url(#f1)" height="25.0938" style="stroke: #000000; stroke-width: 1.5;" width="93" x="733.5" y="94"/><text fill="#000000" font-family="sans-serif" font-size="12" lengthAdjust="spacingAndGlyphs" textLength="81" x="739.5" y="111.457">RollbackAction</text></a><a xlink:href="https://world.mendix.com/display/refguide6/Retrieve" xlink:title="https://world.mendix.com/display/refguide6/Retrieve"><rect fill="#CFECFE" filter="url(#f1)" height="25.0938" style="stroke: #000000; stroke-width: 1.5;" width="90" x="862" y="94"/><text fill="#000000" font-family="sans-serif" font-size="12" lengthAdjust="spacingAndGlyphs" textLength="78" x="868" y="111.457">RetrieveAction</text></a><rect fill="#CFECFE" filter="url(#f1)" height="25.0938" style="stroke: #000000; stroke-width: 1.5;" width="56" x="6" y="300"/><text fill="#000000" font-family="sans-serif" font-size="12" lengthAdjust="spacingAndGlyphs" textLength="44" x="12" y="317.457">Attribute</text><rect fill="#CFECFE" filter="url(#f1)" height="25.0938" style="stroke: #000000; stroke-width: 1.5;" width="105" x="97.5" y="300"/><text fill="#000000" font-family="sans-serif" font-size="12" lengthAdjust="spacingAndGlyphs" textLength="93" x="103.5" y="317.457">AssociationBase</text><rect fill="#CFECFE" filter="url(#f1)" height="25.0938" style="stroke: #000000; stroke-width: 1.5;" width="125" x="237.5" y="300"/><text fill="#000000" font-family="sans-serif" font-size="12" lengthAdjust="spacingAndGlyphs" textLength="113" x="243.5" y="317.457">MicroflowExpression</text><path d="M526.655,37.709 C453.159,55.399 338.286,83.047 280.592,96.933 " fill="none" style="stroke: #000000; stroke-width: 1.0;"/><polygon fill="none" points="525.122,30.878,546.205,33.004,528.398,44.49,525.122,30.878" style="stroke: #000000; stroke-width: 1.0;"/><path d="M351.511,124.9 C313.762,143.408 254.389,172.518 216.598,191.047 " fill="none" style="stroke: #000000; stroke-width: 1.0;"/><polygon fill="#000000" points="204.672,196.894,214.5139,196.5232,209.1614,194.6927,210.9918,189.3402,204.672,196.894" style="stroke: #000000; stroke-width: 1.0;"/><line style="stroke: #000000; stroke-width: 1.0;" x1="209.1614" x2="216.344" y1="194.6927" y2="191.171"/><polygon fill="#000000" points="363.369,119.086,356.2207,118.136,352.5945,124.3691,359.7428,125.319,363.369,119.086" style="stroke: #000000; stroke-width: 1.0;"/><text fill="#000000" font-family="sans-serif" font-size="13" lengthAdjust="spacingAndGlyphs" textLength="44" x="298" y="163.4951">items[ ]</text><path d="M547.049,40.553 C506.632,56.953 449.615,80.091 415.67,93.866 " fill="none" style="stroke: #000000; stroke-width: 1.0;"/><polygon fill="none" points="544.487,34.038,565.652,33.004,549.751,47.01,544.487,34.038" style="stroke: #000000; stroke-width: 1.0;"/><path d="M390.556,222.086 C396.039,239.9509 406.583,274.3018 412.885,294.8341 " fill="none" style="stroke: #000000; stroke-width: 1.0;"/><polygon fill="#000000" points="414.39,299.738,415.5731,289.9605,412.9229,294.9581,407.9253,292.3078,414.39,299.738" style="stroke: #000000; stroke-width: 1.0;"/><text fill="#000000" font-family="sans-serif" font-size="13" lengthAdjust="spacingAndGlyphs" textLength="32" x="406" y="266.4951">entity</text><path d="M387,139.18 C387,158.752 387,182.726 387,196.738 " fill="none" style="stroke: #000000; stroke-width: 1.0;"/><polygon fill="none" points="380,139.086,387,119.086,394,139.086,380,139.086" style="stroke: #000000; stroke-width: 1.0;"/><path d="M421.783,130.02 C453.678,150.67 499.661,180.441 524.833,196.738 " fill="none" style="stroke: #000000; stroke-width: 1.0;"/><polygon fill="none" points="417.879,135.832,404.895,119.086,425.488,124.08,417.879,135.832" style="stroke: #000000; stroke-width: 1.0;"/><path d="M573.889,49.655 C563.103,64.756 550.395,82.547 542.272,93.919 " fill="none" style="stroke: #000000; stroke-width: 1.0;"/><polygon fill="none" points="568.336,45.386,585.657,33.18,579.729,53.523,568.336,45.386" style="stroke: #000000; stroke-width: 1.0;"/><path d="M614.111,49.655 C624.897,64.756 637.605,82.547 645.728,93.919 " fill="none" style="stroke: #000000; stroke-width: 1.0;"/><polygon fill="none" points="608.271,53.523,602.343,33.18,619.664,45.386,608.271,53.523" style="stroke: #000000; stroke-width: 1.0;"/><path d="M637.936,41.342 C674.133,57.689 724.223,80.311 754.238,93.866 " fill="none" style="stroke: #000000; stroke-width: 1.0;"/><polygon fill="none" points="634.819,47.615,619.473,33.004,640.581,34.856,634.819,47.615" style="stroke: #000000; stroke-width: 1.0;"/><path d="M656.432,38.255 C717.904,54.752 810.162,79.512 863.9,93.933 " fill="none" style="stroke: #000000; stroke-width: 1.0;"/><polygon fill="none" points="654.367,44.949,636.865,33.004,657.996,31.427,654.367,44.949" style="stroke: #000000; stroke-width: 1.0;"/><path d="M158.05,222.052 C143.12,229.8844 123.44,240.8134 107,252 C86.7364,265.7884 65.1731,283.8308 50.7805,296.4172 " fill="none" style="stroke: #000000; stroke-width: 1.0;"/><polygon fill="#000000" points="46.9183,299.8144,56.3179,296.8737,50.6726,296.5121,51.0342,290.8668,46.9183,299.8144" style="stroke: #000000; stroke-width: 1.0;"/><text fill="#000000" font-family="sans-serif" font-size="13" lengthAdjust="spacingAndGlyphs" textLength="47" x="108" y="266.4951">attribute</text><path d="M177.444,222.086 C171.961,239.9509 161.417,274.3018 155.115,294.8341 " fill="none" style="stroke: #000000; stroke-width: 1.0;"/><polygon fill="#000000" points="153.61,299.738,160.0747,292.3078,155.0771,294.9581,152.4269,289.9605,153.61,299.738" style="stroke: #000000; stroke-width: 1.0;"/><text fill="#000000" font-family="sans-serif" font-size="13" lengthAdjust="spacingAndGlyphs" textLength="66" x="169" y="266.4951">association</text><path d="M212.35,229.1049 C222.791,235.8275 234.24,243.7942 244,252 C257.634,263.4622 271.365,277.9943 281.819,289.8275 " fill="none" style="stroke: #000000; stroke-width: 1.0;"/><polygon fill="#000000" points="290.4,299.7704,287.5476,290.3436,287.1331,295.9853,281.4914,295.5707,290.4,299.7704" style="stroke: #000000; stroke-width: 1.0;"/><line style="stroke: #000000; stroke-width: 1.0;" x1="287.1331" x2="281.9065" y1="295.9853" y2="289.929"/><polygon fill="#000000" points="201.134,222.097,204.1029,228.6686,211.3108,228.4556,208.342,221.884,201.134,222.097" style="stroke: #000000; stroke-width: 1.0;"/><text fill="#000000" font-family="sans-serif" font-size="13" lengthAdjust="spacingAndGlyphs" textLength="29" x="264" y="266.4951">value</text></g></svg>