<?xml version="1.0" encoding="UTF-8" standalone="yes"?><svg xmlns="http://www.w3.org/2000/svg" xmlns:xlink="http://www.w3.org/1999/xlink" height="437px" style="width:996px;height:437px;" version="1.1" viewBox="0 0 996 437" width="996px"><defs><filter height="300%" id="f1" width="300%" x="-1" y="-1"><feGaussianBlur result="blurOut" stdDeviation="2.0"/><feColorMatrix in="blurOut" result="blurOut2" type="matrix" values="0 0 0 0 0 0 0 0 0 0 0 0 0 0 0 0 0 0 .4 0"/><feOffset dx="4.0" dy="4.0" in="blurOut2" result="blurOut3"/><feBlend in="SourceGraphic" in2="blurOut3" mode="normal"/></filter></defs><g><a xlink:href="https://world.mendix.com/display/refguide6/Entities" xlink:title="https://world.mendix.com/display/refguide6/Entities"><rect fill="#CFECFE" filter="url(#f1)" height="25.0938" style="stroke: #000000; stroke-width: 1.5;" width="41" x="422.5" y="8"/><text fill="#000000" font-family="sans-serif" font-size="12" lengthAdjust="spacingAndGlyphs" textLength="29" x="428.5" y="25.457">Entity</text></a><a xlink:href="https://world.mendix.com/display/refguide6/Attributes" xlink:title="https://world.mendix.com/display/refguide6/Attributes"><rect fill="#CFECFE" filter="url(#f1)" height="25.0938" style="stroke: #000000; stroke-width: 1.5;" width="56" x="415" y="111"/><text fill="#000000" font-family="sans-serif" font-size="12" lengthAdjust="spacingAndGlyphs" textLength="44" x="421" y="128.457">Attribute</text></a><a xlink:href="https://world.mendix.com/display/refguide6/Attributes" xlink:title="https://world.mendix.com/display/refguide6/Attributes"><rect fill="#D3D3D3" filter="url(#f1)" height="25.0938" style="stroke: #000000; stroke-width: 1.5;" width="85" x="400.5" y="214"/><text fill="#000000" font-family="sans-serif" font-size="12" font-style="italic" lengthAdjust="spacingAndGlyphs" textLength="73" x="406.5" y="231.457">AttributeType</text></a><a xlink:href="https://world.mendix.com/display/refguide6/Attributes" xlink:title="https://world.mendix.com/display/refguide6/Attributes"><rect fill="#CFECFE" filter="url(#f1)" height="25.0938" style="stroke: #000000; stroke-width: 1.5;" width="116" x="6" y="300"/><text fill="#000000" font-family="sans-serif" font-size="12" lengthAdjust="spacingAndGlyphs" textLength="104" x="12" y="317.457">BinaryAttributeType</text></a><a xlink:href="https://world.mendix.com/display/refguide6/Attributes" xlink:title="https://world.mendix.com/display/refguide6/Attributes"><rect fill="#CFECFE" filter="url(#f1)" height="25.0938" style="stroke: #000000; stroke-width: 1.5;" width="128" x="157" y="300"/><text fill="#000000" font-family="sans-serif" font-size="12" lengthAdjust="spacingAndGlyphs" textLength="116" x="163" y="317.457">BooleanAttributeType</text></a><a xlink:href="https://world.mendix.com/display/refguide6/Attributes" xlink:title="https://world.mendix.com/display/refguide6/Attributes"><rect fill="#CFECFE" filter="url(#f1)" height="25.0938" style="stroke: #000000; stroke-width: 1.5;" width="136" x="320" y="300"/><text fill="#000000" font-family="sans-serif" font-size="12" lengthAdjust="spacingAndGlyphs" textLength="124" x="326" y="317.457">DateTimeAttributeType</text></a><a xlink:href="https://world.mendix.com/display/refguide6/Attributes" xlink:title="https://world.mendix.com/display/refguide6/Attributes"><rect fill="#CFECFE" filter="url(#f1)" height="25.0938" style="stroke: #000000; stroke-width: 1.5;" width="153" x="491.5" y="300"/><text fill="#000000" font-family="sans-serif" font-size="12" lengthAdjust="spacingAndGlyphs" textLength="141" x="497.5" y="317.457">EnumerationAttributeType</text></a><rect fill="#CFECFE" filter="url(#f1)" height="25.0938" style="stroke: #000000; stroke-width: 1.5;" width="83" x="526.5" y="403"/><text fill="#000000" font-family="sans-serif" font-size="12" lengthAdjust="spacingAndGlyphs" textLength="71" x="532.5" y="420.457">Enumeration</text><a xlink:href="https://world.mendix.com/display/refguide6/Attributes" xlink:title="https://world.mendix.com/display/refguide6/Attributes"><rect fill="#CFECFE" filter="url(#f1)" height="25.0938" style="stroke: #000000; stroke-width: 1.5;" width="158" x="680" y="300"/><text fill="#000000" font-family="sans-serif" font-size="12" lengthAdjust="spacingAndGlyphs" textLength="146" x="686" y="317.457">HashedStringAttributeType</text></a><a xlink:href="https://world.mendix.com/display/refguide6/Attributes" xlink:title="https://world.mendix.com/display/refguide6/Attributes"><rect fill="#CFECFE" filter="url(#f1)" height="25.0938" style="stroke: #000000; stroke-width: 1.5;" width="114" x="873" y="300"/><text fill="#000000" font-family="sans-serif" font-size="12" lengthAdjust="spacingAndGlyphs" textLength="102" x="879" y="317.457">StringAttributeType</text></a><path d="M443,46.373 C443,61.911 443,81.854 443,97.429 " fill="none" style="stroke: #000000; stroke-width: 1.0;"/><polygon fill="#000000" points="443,110.738,447,101.738,443,105.738,439,101.738,443,110.738" style="stroke: #000000; stroke-width: 1.0;"/><line style="stroke: #000000; stroke-width: 1.0;" x1="443" x2="443" y1="105.738" y2="97.738"/><polygon fill="#000000" points="443,33.086,439,39.086,443,45.086,447,39.086,443,33.086" style="stroke: #000000; stroke-width: 1.0;"/><text fill="#000000" font-family="sans-serif" font-size="13" lengthAdjust="spacingAndGlyphs" textLength="66" x="444" y="77.4951">attributes[ ]</text><path d="M443,149.373 C443,164.911 443,184.854 443,200.429 " fill="none" style="stroke: #000000; stroke-width: 1.0;"/><polygon fill="#000000" points="443,213.738,447,204.738,443,208.738,439,204.738,443,213.738" style="stroke: #000000; stroke-width: 1.0;"/><line style="stroke: #000000; stroke-width: 1.0;" x1="443" x2="443" y1="208.738" y2="200.738"/><polygon fill="#000000" points="443,136.086,439,142.086,443,148.086,447,142.086,443,136.086" style="stroke: #000000; stroke-width: 1.0;"/><text fill="#000000" font-family="sans-serif" font-size="13" lengthAdjust="spacingAndGlyphs" textLength="25" x="444" y="180.4951">type</text><path d="M380.303,241.396 C306.37,257.782 184.848,284.716 115.942,299.988 " fill="none" style="stroke: #000000; stroke-width: 1.0;"/><polygon fill="none" points="379.22,234.466,400.261,236.973,382.249,248.135,379.22,234.466" style="stroke: #000000; stroke-width: 1.0;"/><path d="M393.827,246.106 C350.418,262.531 288.484,285.965 251.748,299.866 " fill="none" style="stroke: #000000; stroke-width: 1.0;"/><polygon fill="none" points="391.414,239.535,412.597,239.004,396.369,252.629,391.414,239.535" style="stroke: #000000; stroke-width: 1.0;"/><path d="M424.239,256.154 C414.422,271.147 402.947,288.672 395.583,299.919 " fill="none" style="stroke: #000000; stroke-width: 1.0;"/><polygon fill="none" points="418.54,252.078,435.352,239.18,430.253,259.747,418.54,252.078" style="stroke: #000000; stroke-width: 1.0;"/><path d="M568,325.086 C568,342.8752 568,377.011 568,397.5724 " fill="none" style="stroke: #000000; stroke-width: 1.0;"/><polygon fill="#000000" points="568,402.738,572,393.738,568,397.738,564,393.738,568,402.738" style="stroke: #000000; stroke-width: 1.0;"/><text fill="#000000" font-family="sans-serif" font-size="13" lengthAdjust="spacingAndGlyphs" textLength="71" x="569" y="369.4951">enumeration</text><path d="M477.016,250.359 C500.856,266.379 531.73,287.126 550.687,299.866 " fill="none" style="stroke: #000000; stroke-width: 1.0;"/><polygon fill="none" points="472.814,255.969,460.119,239.004,480.623,244.349,472.814,255.969" style="stroke: #000000; stroke-width: 1.0;"/><path d="M504.953,243.968 C567.029,260.47 660.98,285.444 715.541,299.948 " fill="none" style="stroke: #000000; stroke-width: 1.0;"/><polygon fill="none" points="503.148,250.732,485.617,238.829,506.744,237.202,503.148,250.732" style="stroke: #000000; stroke-width: 1.0;"/><path d="M505.593,238.296 C600.816,254.721 780.688,285.746 872.675,301.612 " fill="none" style="stroke: #000000; stroke-width: 1.0;"/><polygon fill="none" points="504.31,245.179,485.791,234.881,506.69,231.382,504.31,245.179" style="stroke: #000000; stroke-width: 1.0;"/></g></svg>