<?xml version="1.0" encoding="UTF-8" standalone="yes"?><svg xmlns="http://www.w3.org/2000/svg" xmlns:xlink="http://www.w3.org/1999/xlink" height="403px" style="width:941px;height:403px;" version="1.1" viewBox="0 0 941 403" width="941px"><defs><filter height="300%" id="f1" width="300%" x="-1" y="-1"><feGaussianBlur result="blurOut" stdDeviation="2.0"/><feColorMatrix in="blurOut" result="blurOut2" type="matrix" values="0 0 0 0 0 0 0 0 0 0 0 0 0 0 0 0 0 0 .4 0"/><feOffset dx="4.0" dy="4.0" in="blurOut2" result="blurOut3"/><feBlend in="SourceGraphic" in2="blurOut3" mode="normal"/></filter></defs><g><a xlink:href="https://world.mendix.com/display/refguide6/Data+Sources" xlink:title="https://world.mendix.com/display/refguide6/Data+Sources"><rect fill="#D3D3D3" filter="url(#f1)" height="25.0938" style="stroke: #000000; stroke-width: 1.5;" width="106" x="525.5" y="94"/><text fill="#000000" font-family="sans-serif" font-size="12" font-style="italic" lengthAdjust="spacingAndGlyphs" textLength="94" x="531.5" y="111.457">EntityPathSource</text></a><rect fill="#CFECFE" filter="url(#f1)" height="25.0938" style="stroke: #000000; stroke-width: 1.5;" width="66" x="231.5" y="197"/><text fill="#000000" font-family="sans-serif" font-size="12" lengthAdjust="spacingAndGlyphs" textLength="54" x="237.5" y="214.457">EntityPath</text><rect fill="#CFECFE" filter="url(#f1)" height="25.0938" style="stroke: #000000; stroke-width: 1.5;" width="77" x="688" y="8"/><text fill="#000000" font-family="sans-serif" font-size="12" lengthAdjust="spacingAndGlyphs" textLength="65" x="694" y="25.457">DataSource</text><rect fill="#D3D3D3" filter="url(#f1)" height="25.0938" style="stroke: #000000; stroke-width: 1.5;" width="153" x="333" y="197"/><text fill="#000000" font-family="sans-serif" font-size="12" font-style="italic" lengthAdjust="spacingAndGlyphs" textLength="141" x="339" y="214.457">SortableEntityPathSource</text><rect fill="#D3D3D3" filter="url(#f1)" height="25.0938" style="stroke: #000000; stroke-width: 1.5;" width="133" x="190" y="283"/><text fill="#000000" font-family="sans-serif" font-size="12" font-style="italic" lengthAdjust="spacingAndGlyphs" textLength="121" x="196" y="300.457">DatabaseSourceBase</text><rect fill="#D3D3D3" filter="url(#f1)" height="25.0938" style="stroke: #000000; stroke-width: 1.5;" width="102" x="358.5" y="283"/><text fill="#000000" font-family="sans-serif" font-size="12" font-style="italic" lengthAdjust="spacingAndGlyphs" textLength="90" x="364.5" y="300.457">GridBaseSource</text><rect fill="#CFECFE" filter="url(#f1)" height="25.0938" style="stroke: #000000; stroke-width: 1.5;" width="106" x="355.5" y="369"/><text fill="#000000" font-family="sans-serif" font-size="12" lengthAdjust="spacingAndGlyphs" textLength="94" x="361.5" y="386.457">GridXPathSource</text><a xlink:href="https://world.mendix.com/display/refguide6/Data+Sources" xlink:title="https://world.mendix.com/display/refguide6/Data+Sources"><rect fill="#CFECFE" filter="url(#f1)" height="25.0938" style="stroke: #000000; stroke-width: 1.5;" width="126" x="496.5" y="369"/><text fill="#000000" font-family="sans-serif" font-size="12" lengthAdjust="spacingAndGlyphs" textLength="114" x="502.5" y="386.457">ReferenceSetSource</text></a><rect fill="#CFECFE" filter="url(#f1)" height="25.0938" style="stroke: #000000; stroke-width: 1.5;" width="151" x="6" y="369"/><text fill="#000000" font-family="sans-serif" font-size="12" lengthAdjust="spacingAndGlyphs" textLength="139" x="12" y="386.457">ListViewDatabaseSource</text><a xlink:href="https://world.mendix.com/display/refguide6/Data+Sources" xlink:title="https://world.mendix.com/display/refguide6/Data+Sources"><rect fill="#CFECFE" filter="url(#f1)" height="25.0938" style="stroke: #000000; stroke-width: 1.5;" width="129" x="496" y="283"/><text fill="#000000" font-family="sans-serif" font-size="12" lengthAdjust="spacingAndGlyphs" textLength="117" x="502" y="300.457">ListViewXPathSource</text></a><rect fill="#CFECFE" filter="url(#f1)" height="25.0938" style="stroke: #000000; stroke-width: 1.5;" width="128" x="192.5" y="369"/><text fill="#000000" font-family="sans-serif" font-size="12" lengthAdjust="spacingAndGlyphs" textLength="116" x="198.5" y="386.457">GridDatabaseSource</text><a xlink:href="https://world.mendix.com/display/refguide6/Data+Sources" xlink:title="https://world.mendix.com/display/refguide6/Data+Sources"><rect fill="#CFECFE" filter="url(#f1)" height="25.0938" style="stroke: #000000; stroke-width: 1.5;" width="115" x="521" y="197"/><text fill="#000000" font-family="sans-serif" font-size="12" lengthAdjust="spacingAndGlyphs" textLength="103" x="527" y="214.457">AssociationSource</text></a><a xlink:href="https://world.mendix.com/display/refguide6/Data+Sources" xlink:title="https://world.mendix.com/display/refguide6/Data+Sources"><rect fill="#CFECFE" filter="url(#f1)" height="25.0938" style="stroke: #000000; stroke-width: 1.5;" width="103" x="671" y="197"/><text fill="#000000" font-family="sans-serif" font-size="12" lengthAdjust="spacingAndGlyphs" textLength="91" x="677" y="214.457">DataViewSource</text></a><a xlink:href="https://world.mendix.com/display/refguide6/Data+Sources" xlink:title="https://world.mendix.com/display/refguide6/Data+Sources"><rect fill="#CFECFE" filter="url(#f1)" height="25.0938" style="stroke: #000000; stroke-width: 1.5;" width="123" x="809" y="197"/><text fill="#000000" font-family="sans-serif" font-size="12" lengthAdjust="spacingAndGlyphs" textLength="111" x="815" y="214.457">ImageViewerSource</text></a><a xlink:href="https://world.mendix.com/display/refguide6/Data+Sources" xlink:title="https://world.mendix.com/display/refguide6/Data+Sources"><rect fill="#CFECFE" filter="url(#f1)" height="25.0938" style="stroke: #000000; stroke-width: 1.5;" width="120" x="666.5" y="94"/><text fill="#000000" font-family="sans-serif" font-size="12" lengthAdjust="spacingAndGlyphs" textLength="108" x="672.5" y="111.457">ListenTargetSource</text></a><a xlink:href="https://world.mendix.com/display/refguide6/Data+Sources" xlink:title="https://world.mendix.com/display/refguide6/Data+Sources"><rect fill="#CFECFE" filter="url(#f1)" height="25.0938" style="stroke: #000000; stroke-width: 1.5;" width="102" x="821.5" y="94"/><text fill="#000000" font-family="sans-serif" font-size="12" lengthAdjust="spacingAndGlyphs" textLength="90" x="827.5" y="111.457">MicroflowSource</text></a><path d="M513.355,122.095 C483.312,129.332 447.332,138.722 415.5,149 C376.553,161.576 333.191,179.036 302.962,191.789 " fill="none" style="stroke: #000000; stroke-width: 1.0;"/><polygon fill="#000000" points="290.862,196.938,300.7096,197.0946,295.4628,194.9802,297.5772,189.7334,290.862,196.938" style="stroke: #000000; stroke-width: 1.0;"/><line style="stroke: #000000; stroke-width: 1.0;" x1="295.4628" x2="302.8245" y1="194.9802" y2="191.8475"/><polygon fill="#000000" points="526.27,119.027,519.508,116.522,514.5949,121.8004,521.3569,124.3054,526.27,119.027" style="stroke: #000000; stroke-width: 1.0;"/><text fill="#000000" font-family="sans-serif" font-size="13" lengthAdjust="spacingAndGlyphs" textLength="59" x="416.5" y="163.4951">entityPath</text><path d="M688.706,42.951 C660.172,59.146 622.108,80.75 598.999,93.866 " fill="none" style="stroke: #000000; stroke-width: 1.0;"/><polygon fill="none" points="685.383,36.788,706.232,33.004,692.293,48.964,685.383,36.788" style="stroke: #000000; stroke-width: 1.0;"/><path d="M541.732,129.474 C507.039,150.208 456.372,180.488 428.92,196.894 " fill="none" style="stroke: #000000; stroke-width: 1.0;"/><polygon fill="none" points="538.355,123.337,559.114,119.086,545.537,135.355,538.355,123.337" style="stroke: #000000; stroke-width: 1.0;"/><path d="M370.852,231.719 C341.308,247.939 301.695,269.687 277.691,282.866 " fill="none" style="stroke: #000000; stroke-width: 1.0;"/><polygon fill="none" points="367.646,225.493,388.547,222.004,374.384,237.765,367.646,225.493" style="stroke: #000000; stroke-width: 1.0;"/><path d="M409.5,242.183 C409.5,256.456 409.5,272.422 409.5,282.919 " fill="none" style="stroke: #000000; stroke-width: 1.0;"/><polygon fill="none" points="402.5,242.18,409.5,222.18,416.5,242.18,402.5,242.18" style="stroke: #000000; stroke-width: 1.0;"/><path d="M409.123,328.1834 C408.953,342.4555 408.763,358.4219 408.638,368.9194 " fill="none" style="stroke: #000000; stroke-width: 1.0;"/><polygon fill="none" points="402.123,328.0951,409.361,308.1798,416.122,328.2618,402.123,328.0951" style="stroke: #000000; stroke-width: 1.0;"/><path d="M447.805,317.9508 C476.724,334.1457 515.303,355.7498 538.724,368.8657 " fill="none" style="stroke: #000000; stroke-width: 1.0;"/><polygon fill="none" points="444.072,323.8834,430.042,308.0037,450.913,311.6683,444.072,323.8834" style="stroke: #000000; stroke-width: 1.0;"/><path d="M214.213,316.7979 C180.235,333.1071 133.717,355.436 105.7382,368.8657 " fill="none" style="stroke: #000000; stroke-width: 1.0;"/><polygon fill="none" points="211.474,310.3477,232.534,308.0037,217.533,322.9691,211.474,310.3477" style="stroke: #000000; stroke-width: 1.0;"/><path d="M448.06,231.951 C477.173,248.146 516.009,269.75 539.586,282.866 " fill="none" style="stroke: #000000; stroke-width: 1.0;"/><polygon fill="none" points="444.254,237.844,430.179,222.004,451.06,225.609,444.254,237.844" style="stroke: #000000; stroke-width: 1.0;"/><path d="M256.5,328.1834 C256.5,342.4555 256.5,358.4219 256.5,368.9194 " fill="none" style="stroke: #000000; stroke-width: 1.0;"/><polygon fill="none" points="249.5,328.1799,256.5,308.1798,263.5,328.1798,249.5,328.1799" style="stroke: #000000; stroke-width: 1.0;"/><path d="M578.5,139.18 C578.5,158.752 578.5,182.726 578.5,196.738 " fill="none" style="stroke: #000000; stroke-width: 1.0;"/><polygon fill="none" points="571.5,139.086,578.5,119.086,585.5,139.086,571.5,139.086" style="stroke: #000000; stroke-width: 1.0;"/><path d="M611.436,130.601 C640.841,151.225 682.712,180.593 705.73,196.738 " fill="none" style="stroke: #000000; stroke-width: 1.0;"/><polygon fill="none" points="607.373,136.301,595.019,119.086,615.412,124.84,607.373,136.301" style="stroke: #000000; stroke-width: 1.0;"/><path d="M631.129,125.704 C690.872,146.368 786.55,179.463 836.946,196.894 " fill="none" style="stroke: #000000; stroke-width: 1.0;"/><polygon fill="none" points="628.609,132.239,611.996,119.086,633.186,119.008,628.609,132.239" style="stroke: #000000; stroke-width: 1.0;"/><path d="M726.5,53.183 C726.5,67.456 726.5,83.422 726.5,93.919 " fill="none" style="stroke: #000000; stroke-width: 1.0;"/><polygon fill="none" points="719.5,53.18,726.5,33.18,733.5,53.18,719.5,53.18" style="stroke: #000000; stroke-width: 1.0;"/><path d="M764.188,43.184 C792.291,59.352 829.591,80.813 852.278,93.866 " fill="none" style="stroke: #000000; stroke-width: 1.0;"/><polygon fill="none" points="760.339,49.045,746.495,33.004,767.321,36.91,760.339,49.045" style="stroke: #000000; stroke-width: 1.0;"/></g></svg>