<?xml version="1.0" encoding="UTF-8" standalone="yes"?><svg xmlns="http://www.w3.org/2000/svg" xmlns:xlink="http://www.w3.org/1999/xlink" height="451px" style="width:762px;height:451px;" version="1.1" viewBox="0 0 762 451" width="762px"><defs><filter height="300%" id="f1" width="300%" x="-1" y="-1"><feGaussianBlur result="blurOut" stdDeviation="2.0"/><feColorMatrix in="blurOut" result="blurOut2" type="matrix" values="0 0 0 0 0 0 0 0 0 0 0 0 0 0 0 0 0 0 .4 0"/><feOffset dx="4.0" dy="4.0" in="blurOut2" result="blurOut3"/><feBlend in="SourceGraphic" in2="blurOut3" mode="normal"/></filter></defs><g><a xlink:href="https://world.mendix.com/display/refguide6/Page" xlink:title="https://world.mendix.com/display/refguide6/Page"><rect fill="#CFECFE" filter="url(#f1)" height="32" style="stroke: #000000; stroke-width: 1.5;" width="67" x="352.794" y="8"/><ellipse cx="367.794" cy="24" fill="#CFECFE" rx="11" ry="11" style="stroke: #000000; stroke-width: 1.0;"/><path d="M365.7315,22.2188 L365.7315,27.2969 L366.3565,27.2969 Q366.9659,27.2969 367.2237,27.5313 Q367.4815,27.7656 367.4815,28.1563 Q367.4815,28.5313 367.2237,28.7656 Q366.9659,29 366.3565,29 L364.1221,29 Q363.4971,29 363.2393,28.7656 Q362.9815,28.5313 362.9815,28.1406 Q362.9815,27.7656 363.2393,27.5313 Q363.4971,27.2969 364.0284,27.2969 L364.0284,20.6406 Q363.5909,20.5938 363.3565,20.3672 Q363.1221,20.1406 363.1221,19.7813 Q363.1221,19.4063 363.3878,19.1719 Q363.6534,18.9375 364.2628,18.9375 L366.1378,18.9375 L368.4503,24.0625 L370.7159,18.9375 L372.6065,18.9375 Q373.2159,18.9375 373.4815,19.1719 Q373.7471,19.4063 373.7471,19.7813 Q373.7471,20.1406 373.5128,20.3672 Q373.2784,20.5938 372.8409,20.6406 L372.8409,27.2969 Q373.3721,27.2969 373.6299,27.5391 Q373.8878,27.7813 373.8878,28.1563 Q373.8878,28.5313 373.6299,28.7656 Q373.3721,29 372.7628,29 L370.5128,29 Q369.9034,29 369.6456,28.7656 Q369.3878,28.5313 369.3878,28.1406 Q369.3878,27.7656 369.6456,27.5313 Q369.9034,27.2969 370.5128,27.2969 L371.1378,27.2969 L371.1378,22.2188 L369.1846,26.6094 L367.7159,26.6094 L365.7315,22.2188 Z "/><text fill="#000000" font-family="sans-serif" font-size="12" lengthAdjust="spacingAndGlyphs" textLength="29" x="384.794" y="28.9102">Page</text></a><rect fill="#CFECFE" filter="url(#f1)" height="25.0938" style="stroke: #000000; stroke-width: 1.5;" width="70" x="351.294" y="118"/><text fill="#000000" font-family="sans-serif" font-size="12" lengthAdjust="spacingAndGlyphs" textLength="58" x="357.294" y="135.457">LayoutCall</text><a xlink:href="https://world.mendix.com/display/refguide6/Layout" xlink:title="https://world.mendix.com/display/refguide6/Layout"><rect fill="#CFECFE" filter="url(#f1)" height="32" style="stroke: #000000; stroke-width: 1.5;" width="74" x="272.294" y="221"/><ellipse cx="287.294" cy="237" fill="#CFECFE" rx="11" ry="11" style="stroke: #000000; stroke-width: 1.0;"/><path d="M285.2315,235.2188 L285.2315,240.2969 L285.8565,240.2969 Q286.4659,240.2969 286.7237,240.5313 Q286.9815,240.7656 286.9815,241.1563 Q286.9815,241.5313 286.7237,241.7656 Q286.4659,242 285.8565,242 L283.6221,242 Q282.9971,242 282.7393,241.7656 Q282.4815,241.5313 282.4815,241.1406 Q282.4815,240.7656 282.7393,240.5313 Q282.9971,240.2969 283.5284,240.2969 L283.5284,233.6406 Q283.0909,233.5938 282.8565,233.3672 Q282.6221,233.1406 282.6221,232.7813 Q282.6221,232.4063 282.8878,232.1719 Q283.1534,231.9375 283.7628,231.9375 L285.6378,231.9375 L287.9503,237.0625 L290.2159,231.9375 L292.1065,231.9375 Q292.7159,231.9375 292.9815,232.1719 Q293.2471,232.4063 293.2471,232.7813 Q293.2471,233.1406 293.0128,233.3672 Q292.7784,233.5938 292.3409,233.6406 L292.3409,240.2969 Q292.8721,240.2969 293.1299,240.5391 Q293.3878,240.7813 293.3878,241.1563 Q293.3878,241.5313 293.1299,241.7656 Q292.8721,242 292.2628,242 L290.0128,242 Q289.4034,242 289.1456,241.7656 Q288.8878,241.5313 288.8878,241.1406 Q288.8878,240.7656 289.1456,240.5313 Q289.4034,240.2969 290.0128,240.2969 L290.6378,240.2969 L290.6378,235.2188 L288.6846,239.6094 L287.2159,239.6094 L285.2315,235.2188 Z "/><text fill="#000000" font-family="sans-serif" font-size="12" lengthAdjust="spacingAndGlyphs" textLength="36" x="304.294" y="241.9102">Layout</text></a><rect fill="#CFECFE" filter="url(#f1)" height="25.0938" style="stroke: #000000; stroke-width: 1.5;" width="123" x="630.794" y="224.5"/><text fill="#000000" font-family="sans-serif" font-size="12" lengthAdjust="spacingAndGlyphs" textLength="111" x="636.794" y="241.957">LayoutCallArgument</text><rect fill="#CFECFE" filter="url(#f1)" height="25.0938" style="stroke: #000000; stroke-width: 1.5;" width="50" x="662.294" y="331"/><text fill="#000000" font-family="sans-serif" font-size="12" lengthAdjust="spacingAndGlyphs" textLength="38" x="668.294" y="348.457">Widget</text><rect fill="#CFECFE" filter="url(#f1)" height="25.0938" style="stroke: #000000; stroke-width: 1.5;" width="106" x="153.294" y="331"/><text fill="#000000" font-family="sans-serif" font-size="12" lengthAdjust="spacingAndGlyphs" textLength="94" x="159.294" y="348.457">LayoutParameter</text><a xlink:href="https://world.mendix.com/display/refguide6/Placeholder" xlink:title="https://world.mendix.com/display/refguide6/Placeholder"><rect fill="#CFECFE" filter="url(#f1)" height="25.0938" style="stroke: #000000; stroke-width: 1.5;" width="78" x="648.294" y="417"/><text fill="#000000" font-family="sans-serif" font-size="12" lengthAdjust="spacingAndGlyphs" textLength="66" x="654.294" y="434.457">Placeholder</text></a><path d="M386.294,53.488 C386.294,69.538 386.294,89.389 386.294,104.779 " fill="none" style="stroke: #000000; stroke-width: 1.0;"/><polygon fill="#000000" points="386.294,117.899,390.294,108.899,386.294,112.899,382.294,108.899,386.294,117.899" style="stroke: #000000; stroke-width: 1.0;"/><line style="stroke: #000000; stroke-width: 1.0;" x1="386.294" x2="386.294" y1="112.899" y2="104.899"/><polygon fill="#000000" points="386.294,40.419,382.294,46.419,386.294,52.419,390.294,46.419,386.294,40.419" style="stroke: #000000; stroke-width: 1.0;"/><text fill="#000000" font-family="sans-serif" font-size="13" lengthAdjust="spacingAndGlyphs" textLength="57" x="387.294" y="84.4951">layoutCall</text><path d="M351.22,140.453 C334.537,146.666 316.127,156.822 306.294,173 C298.562,185.721 299.889,202.699 302.833,215.824 " fill="none" style="stroke: #000000; stroke-width: 1.0;"/><polygon fill="#000000" points="304.074,220.829,305.7886,211.1305,302.8697,215.9762,298.0241,213.0574,304.074,220.829" style="stroke: #000000; stroke-width: 1.0;"/><text fill="#000000" font-family="sans-serif" font-size="13" lengthAdjust="spacingAndGlyphs" textLength="35" x="307.294" y="187.4951">layout</text><path d="M331.404,210.906 C336.76,204.535 342.36,197.617 347.294,191 C356.078,179.22 365.12,165.539 372.284,154.268 " fill="none" style="stroke: #000000; stroke-width: 1.0;"/><polygon fill="#000000" points="379.219,143.187,371.0536,148.6939,376.5663,147.4253,377.8349,152.9381,379.219,143.187" style="stroke: #000000; stroke-width: 1.0;"/><line style="stroke: #000000; stroke-width: 1.0;" x1="376.5663" x2="372.322" y1="147.4253" y2="154.207"/><polygon fill="#000000" points="322.781,220.963,329.7231,219.0117,330.5919,211.8531,323.6498,213.8044,322.781,220.963" style="stroke: #000000; stroke-width: 1.0;"/><text fill="#000000" font-family="sans-serif" font-size="13" lengthAdjust="spacingAndGlyphs" textLength="57" x="361.294" y="187.4951">layoutCall</text><path d="M432.706,147.35 C490.372,167.043 588.188,200.447 645.863,220.144 " fill="none" style="stroke: #000000; stroke-width: 1.0;"/><polygon fill="#000000" points="658.226,224.366,651.0016,217.6721,653.4943,222.7501,648.4162,225.2428,658.226,224.366" style="stroke: #000000; stroke-width: 1.0;"/><line style="stroke: #000000; stroke-width: 1.0;" x1="653.4943" x2="645.9235" y1="222.7501" y2="220.164"/><polygon fill="#000000" points="420.211,143.083,424.5963,148.8074,431.5671,146.9611,427.1817,141.2367,420.211,143.083" style="stroke: #000000; stroke-width: 1.0;"/><text fill="#000000" font-family="sans-serif" font-size="13" lengthAdjust="spacingAndGlyphs" textLength="73" x="558.294" y="187.4951">arguments[ ]</text><path d="M691.107,262.818 C690.314,279.376 689.277,301.065 688.484,317.633 " fill="none" style="stroke: #000000; stroke-width: 1.0;"/><polygon fill="#000000" points="687.851,330.866,692.2766,322.0675,688.09,325.8717,684.2858,321.6851,687.851,330.866" style="stroke: #000000; stroke-width: 1.0;"/><line style="stroke: #000000; stroke-width: 1.0;" x1="688.09" x2="688.472" y1="325.8717" y2="317.8805"/><polygon fill="#000000" points="691.74,249.583,687.4577,255.3849,691.1663,261.5693,695.4486,255.7674,691.74,249.583" style="stroke: #000000; stroke-width: 1.0;"/><text fill="#000000" font-family="sans-serif" font-size="13" lengthAdjust="spacingAndGlyphs" textLength="37" x="690.294" y="297.4951">widget</text><path d="M258.846,238.144 C183.237,239.552 46.0894,247.133 15.2942,283 C-22.6459,327.189 71.0751,339.017 140.248,341.919 " fill="none" style="stroke: #000000; stroke-width: 1.0;"/><polygon fill="#000000" points="153.275,342.375,144.4208,338.062,148.2781,342.1997,144.1403,346.057,153.275,342.375" style="stroke: #000000; stroke-width: 1.0;"/><line style="stroke: #000000; stroke-width: 1.0;" x1="148.2781" x2="140.2825" y1="342.1997" y2="341.9201"/><polygon fill="#000000" points="272.208,237.947,266.1497,234.0358,260.2093,238.1237,266.2676,242.0349,272.208,237.947" style="stroke: #000000; stroke-width: 1.0;"/><text fill="#000000" font-family="sans-serif" font-size="13" lengthAdjust="spacingAndGlyphs" textLength="77" x="16.2942" y="297.4951">parameters[ ]</text><path d="M272.079,242.255 C225.853,248.394 151.018,261.432 134.294,283 C119.995,301.441 144.523,317.951 168.745,328.874 " fill="none" style="stroke: #000000; stroke-width: 1.0;"/><polygon fill="#000000" points="173.574,330.983,166.9279,323.7146,168.9921,328.9814,163.7253,331.0456,173.574,330.983" style="stroke: #000000; stroke-width: 1.0;"/><text fill="#000000" font-family="sans-serif" font-size="13" lengthAdjust="spacingAndGlyphs" textLength="96" x="135.294" y="297.4951">mainPlaceholder</text><path d="M294.096,253.419 C274.58,273.219 240.914,307.376 221.429,327.145 " fill="none" style="stroke: #000000; stroke-width: 1.0;"/><polygon fill="#000000" points="217.729,330.899,226.8962,327.2985,221.2394,327.3386,221.1994,321.6818,217.729,330.899" style="stroke: #000000; stroke-width: 1.0;"/><text fill="#000000" font-family="sans-serif" font-size="13" lengthAdjust="spacingAndGlyphs" textLength="145" x="265.294" y="297.4951">acceptButtonPlaceholder</text><path d="M346.608,244.857 C387.102,253.926 443.015,272.211 419.294,301 C399.992,324.426 320.599,334.804 264.411,339.278 " fill="none" style="stroke: #000000; stroke-width: 1.0;"/><polygon fill="#000000" points="259.389,339.667,268.6717,342.958,264.374,339.2798,268.0522,334.9821,259.389,339.667" style="stroke: #000000; stroke-width: 1.0;"/><text fill="#000000" font-family="sans-serif" font-size="13" lengthAdjust="spacingAndGlyphs" textLength="144" x="426.294" y="297.4951">cancelButtonPlaceholder</text><path d="M359.759,241.301 C414.962,246.074 505.426,257.338 579.294,283 C608.166,293.03 638.425,310.379 659.545,323.764 " fill="none" style="stroke: #000000; stroke-width: 1.0;"/><polygon fill="#000000" points="670.557,330.91,665.1853,322.655,666.3629,328.1879,660.83,329.3656,670.557,330.91" style="stroke: #000000; stroke-width: 1.0;"/><line style="stroke: #000000; stroke-width: 1.0;" x1="666.3629" x2="659.652" y1="328.1879" y2="323.8335"/><polygon fill="#000000" points="346.516,240.222,352.1718,244.6954,358.4765,241.1952,352.8206,236.7218,346.516,240.222" style="stroke: #000000; stroke-width: 1.0;"/><text fill="#000000" font-family="sans-serif" font-size="13" lengthAdjust="spacingAndGlyphs" textLength="37" x="620.294" y="297.4951">widget</text><path d="M687.294,376.1834 C687.294,390.4555 687.294,406.4219 687.294,416.9194 " fill="none" style="stroke: #000000; stroke-width: 1.0;"/><polygon fill="none" points="680.294,376.1799,687.294,356.1798,694.294,376.1798,680.294,376.1799" style="stroke: #000000; stroke-width: 1.0;"/></g></svg>