<svg width="18" height="18" viewBox="0 0 18 18" fill="none" xmlns="http://www.w3.org/2000/svg">
<path d="M1 9C1 11.1217 1.84285 13.1566 3.34315 14.6569C4.84344 16.1571 6.87827 17 9 17C11.1217 17 13.1566 16.1571 14.6569 14.6569C16.1571 13.1566 17 11.1217 17 9C17 6.87827 16.1571 4.84344 14.6569 3.34315C13.1566 1.84285 11.1217 1 9 1C6.87827 1 4.84344 1.84285 3.34315 3.34315C1.84285 4.84344 1 6.87827 1 9V9Z" stroke="#F14F56" stroke-width="1.5" stroke-linecap="round" stroke-linejoin="round"/>
<path d="M5.8 12.2L12.1993 5.79999" stroke="#F14F56" stroke-width="1.5" stroke-linecap="round" stroke-linejoin="round"/>
<path d="M12.2 12.2L5.79929 5.79999" stroke="#F14F56" stroke-width="1.5" stroke-linecap="round" stroke-linejoin="round"/>
</svg>
