<?xml version="1.0" encoding="UTF-8"?>
<svg width="24px" height="24px" viewBox="0 0 24 24" version="1.1" xmlns="http://www.w3.org/2000/svg" xmlns:xlink="http://www.w3.org/1999/xlink">
    <!-- Generator: sketchtool 50 (54983) - http://www.bohemiancoding.com/sketch -->
    <title>3DA79FA6-5B70-4034-8F8C-6C7B55BE66BF</title>
    <desc>Created with sketchtool.</desc>
    <defs></defs>
    <g id="Page-1" stroke="none" stroke-width="1" fill="none" fill-rule="evenodd">
        <g id="Landing-Page-1" transform="translate(-190.000000, -2078.000000)">
            <g id="Content" transform="translate(150.000000, 324.000000)">
                <g id="Card" transform="translate(0.000000, 1709.000000)">
                    <g id="Data-" transform="translate(40.000000, 45.000000)">
                        <path d="M22.375,16.418 L23.447,15.799 L21.947,13.201 L20.866,13.825 C20.336,13.34 19.702,12.978 19,12.754 L19,11.5 L16,11.5 L16,12.754 C15.298,12.978 14.664,13.34 14.134,13.825 L13.053,13.201 L11.553,15.799 L12.625,16.418 C12.459,17.166 12.458,17.832 12.625,18.584 L11.555,19.201 L13.055,21.799 L14.134,21.177 C14.664,21.662 15.298,22.024 16,22.247 L16,23.5 L19,23.5 L19,22.247 C19.702,22.024 20.336,21.662 20.866,21.177 L21.945,21.799 L23.445,19.201 L22.375,18.584 C22.542,17.832 22.541,17.166 22.375,16.418 L22.375,16.418 Z" id="Stroke-6777" stroke="#0595DB" stroke-linejoin="round"></path>
                        <path d="M19.5,17.5 C19.5,18.604 18.604,19.5 17.5,19.5 C16.396,19.5 15.5,18.604 15.5,17.5 C15.5,16.396 16.396,15.5 17.5,15.5 C18.604,15.5 19.5,16.396 19.5,17.5 L19.5,17.5 Z" id="Stroke-6778" stroke="#0595DB" stroke-linejoin="round"></path>
                        <polyline id="Stroke-6779" stroke="#0595DB" stroke-linecap="round" stroke-linejoin="round" points="14 10.5 0.5 10.5 0.5 5.5 18.5 5.5 18.5 9.5"></polyline>
                        <path d="M10,8 C10,8.276 9.776,8.5 9.5,8.5 C9.224,8.5 9,8.276 9,8 C9,7.724 9.224,7.5 9.5,7.5 C9.776,7.5 10,7.724 10,8 L10,8 Z" id="Stroke-6780" stroke="#0595DB" stroke-linecap="round" stroke-linejoin="round"></path>
                        <path d="M13,8 C13,8.276 12.776,8.5 12.5,8.5 C12.224,8.5 12,8.276 12,8 C12,7.724 12.224,7.5 12.5,7.5 C12.776,7.5 13,7.724 13,8 L13,8 Z" id="Stroke-6781" stroke="#0595DB" stroke-linecap="round" stroke-linejoin="round"></path>
                        <path d="M16,8 C16,8.276 15.776,8.5 15.5,8.5 C15.224,8.5 15,8.276 15,8 C15,7.724 15.224,7.5 15.5,7.5 C15.776,7.5 16,7.724 16,8 L16,8 Z" id="Stroke-6782" stroke="#0595DB" stroke-linecap="round" stroke-linejoin="round"></path>
                        <path d="M4.5,8 C4.5,8.553 4.052,9 3.5,9 C2.947,9 2.5,8.553 2.5,8 C2.5,7.448 2.947,7 3.5,7 C4.052,7 4.5,7.448 4.5,8 L4.5,8 Z" id="Stroke-6783" stroke="#0595DB" stroke-linecap="round" stroke-linejoin="round"></path>
                        <polyline id="Stroke-6784" stroke="#0595DB" stroke-linecap="round" stroke-linejoin="round" points="0.5 5.5 0.5 0.5 18.5 0.5 18.5 5.5"></polyline>
                        <path d="M10,3 C10,3.276 9.776,3.5 9.5,3.5 C9.224,3.5 9,3.276 9,3 C9,2.724 9.224,2.5 9.5,2.5 C9.776,2.5 10,2.724 10,3 L10,3 Z" id="Stroke-6785" stroke="#0595DB" stroke-linecap="round" stroke-linejoin="round"></path>
                        <path d="M13,3 C13,3.276 12.776,3.5 12.5,3.5 C12.224,3.5 12,3.276 12,3 C12,2.724 12.224,2.5 12.5,2.5 C12.776,2.5 13,2.724 13,3 L13,3 Z" id="Stroke-6786" stroke="#0595DB" stroke-linecap="round" stroke-linejoin="round"></path>
                        <path d="M16,3 C16,3.276 15.776,3.5 15.5,3.5 C15.224,3.5 15,3.276 15,3 C15,2.724 15.224,2.5 15.5,2.5 C15.776,2.5 16,2.724 16,3 L16,3 Z" id="Stroke-6787" stroke="#0595DB" stroke-linecap="round" stroke-linejoin="round"></path>
                        <path d="M4.5,3 C4.5,3.553 4.052,4 3.5,4 C2.947,4 2.5,3.553 2.5,3 C2.5,2.448 2.947,2 3.5,2 C4.052,2 4.5,2.448 4.5,3 L4.5,3 Z" id="Stroke-6788" stroke="#0595DB" stroke-linecap="round" stroke-linejoin="round"></path>
                        <path d="M10,13 C10,13.276 9.776,13.5 9.5,13.5 C9.224,13.5 9,13.276 9,13 C9,12.724 9.224,12.5 9.5,12.5 C9.776,12.5 10,12.724 10,13 L10,13 Z" id="Stroke-6789" stroke="#0595DB" stroke-linecap="round" stroke-linejoin="round"></path>
                        <path d="M4.5,13 C4.5,13.553 4.052,14 3.5,14 C2.947,14 2.5,13.553 2.5,13 C2.5,12.448 2.947,12 3.5,12 C4.052,12 4.5,12.448 4.5,13 L4.5,13 Z" id="Stroke-6790" stroke="#0595DB" stroke-linecap="round" stroke-linejoin="round"></path>
                        <polyline id="Stroke-6791" stroke="#0595DB" stroke-linecap="round" stroke-linejoin="round" points="0.5 10.5 0.5 15.5 9.5 15.5 9.5 19.5 5.5 19.5"></polyline>
                        <path d="M1.5,19 C1.224,19 1,19.224 1,19.5 C1,19.776 1.224,20 1.5,20 C1.776,20 2,19.776 2,19.5 C2,19.224 1.776,19 1.5,19" id="Fill-6792" fill="#0595DB"></path>
                        <path d="M3.5,19 C3.224,19 3,19.224 3,19.5 C3,19.776 3.224,20 3.5,20 C3.776,20 4,19.776 4,19.5 C4,19.224 3.776,19 3.5,19" id="Fill-6793" fill="#0595DB"></path>
                    </g>
                </g>
            </g>
        </g>
    </g>
</svg>