<?xml version="1.0" encoding="UTF-8"?>
<svg width="24px" height="24px" viewBox="0 0 24 24" version="1.1" xmlns="http://www.w3.org/2000/svg" xmlns:xlink="http://www.w3.org/1999/xlink">
    <!-- Generator: sketchtool 50 (54983) - http://www.bohemiancoding.com/sketch -->
    <title>23500964-9FEC-4B5F-8831-A0F26B140F4E</title>
    <desc>Created with sketchtool.</desc>
    <defs></defs>
    <g id="Page-1" stroke="none" stroke-width="1" fill="none" fill-rule="evenodd" stroke-linejoin="round">
        <g id="Landing-Page-1" transform="translate(-190.000000, -744.000000)" stroke="#0595DB">
            <g id="Content" transform="translate(150.000000, 324.000000)">
                <g id="Card" transform="translate(0.000000, 375.000000)">
                    <g id="Group-2" transform="translate(40.000000, 40.000000)">
                        <g id="Develop" transform="translate(0.000000, 5.000000)">
                            <path d="M17.9414,8.1797 C19.3974,8.7957 21.1434,8.5137 22.3294,7.3267 C23.5164,6.1397 23.7994,4.4687 23.1834,3.0117 L21.2694,4.9997 L19.0004,4.9997 L19.0004,2.7307 L20.9884,0.8167 C19.5324,0.2007 17.8234,0.4837 16.6364,1.6697 C15.4494,2.8567 15.1854,4.6027 15.8004,6.0587 L6.0584,15.8207 C4.6024,15.2037 2.8564,15.4867 1.6704,16.6737 C0.4834,17.8607 0.2004,19.5317 0.8164,20.9887 L2.7304,18.9997 L5.0004,18.9997 L5.0004,21.2697 L3.0114,23.1837 C4.4674,23.8007 6.1764,23.5167 7.3634,22.3297 C8.5504,21.1437 8.8154,19.3977 8.1994,17.9417 L17.9414,8.1797 L17.9414,8.1797 Z" id="Stroke-3049"></path>
                            <path d="M12,14.1284 L15.82,17.9414 C15.204,19.3984 15.486,21.1434 16.674,22.3294 C17.86,23.5174 19.531,23.8004 20.988,23.1834 L19,21.2694 L19,18.9994 L21.27,18.9994 L23.184,20.9884 C23.8,19.5324 23.517,17.8234 22.33,16.6364 C21.144,15.4494 19.397,15.1854 17.941,15.8004 L14.132,11.9984" id="Stroke-3050"></path>
                            <path d="M11.999,9.8706 L8.18,6.0586 C8.796,4.6026 8.514,2.8566 7.326,1.6706 C6.14,0.4836 4.469,0.2006 3.012,0.8166 L5,2.7306 L5,4.9996 L2.731,4.9996 L0.816,3.0116 C0.2,4.4686 0.483,6.1766 1.67,7.3636 C2.856,8.5506 4.603,8.8146 6.059,8.1996 L9.868,12.0006" id="Stroke-3051"></path>
                        </g>
                    </g>
                </g>
            </g>
        </g>
    </g>
</svg>