<?xml version="1.0" encoding="UTF-8"?>
<svg width="24px" height="17px" viewBox="0 0 24 17" version="1.1" xmlns="http://www.w3.org/2000/svg" xmlns:xlink="http://www.w3.org/1999/xlink">
    <!-- Generator: sketchtool 50 (54983) - http://www.bohemiancoding.com/sketch -->
    <title>D94B5FAF-DF84-4FF3-A532-E9D27F206986</title>
    <desc>Created with sketchtool.</desc>
    <defs></defs>
    <g id="Page-1" stroke="none" stroke-width="1" fill="none" fill-rule="evenodd" stroke-linecap="round" stroke-linejoin="round">
        <g id="Landing-Page-1" transform="translate(-190.000000, -1375.000000)" stroke="#0595DB">
            <g id="Content" transform="translate(150.000000, 324.000000)">
                <g id="Card" transform="translate(0.000000, 1001.000000)">
                    <g id="Devops" transform="translate(40.000000, 50.000000)">
                        <path d="M13.5,12 C13.5,12.828 12.828,13.5 12,13.5 C11.172,13.5 10.5,12.828 10.5,12 C10.5,11.171 11.172,10.5 12,10.5 C12.828,10.5 13.5,11.171 13.5,12 L13.5,12 Z" id="Stroke-3082"></path>
                        <path d="M13.0605,10.939 L18.0105,5.99" id="Stroke-3083"></path>
                        <path d="M2.5,12.5 L4.5,12.5" id="Stroke-3084"></path>
                        <path d="M21.5,12.5 L19.5,12.5" id="Stroke-3085"></path>
                        <path d="M20.7764,8.3647 L18.9284,9.1297" id="Stroke-3086"></path>
                        <path d="M15.6348,3.2231 L14.8698,5.0711" id="Stroke-3087"></path>
                        <path d="M12,2.5 L12,4.5" id="Stroke-3088"></path>
                        <path d="M8.3652,3.2231 L9.1302,5.0711" id="Stroke-3089"></path>
                        <path d="M5.2832,5.2817 L6.6952,6.6967" id="Stroke-3090"></path>
                        <path d="M3.2236,8.3647 L5.0706,9.1297" id="Stroke-3091"></path>
                        <path d="M12,0.5 C5.648,0.5 0.5,5.649 0.5,12 L0.5,16.5 L23.5,16.5 L23.5,12 C23.5,5.649 18.352,0.5 12,0.5 L12,0.5 Z" id="Stroke-3092"></path>
                    </g>
                </g>
            </g>
        </g>
    </g>
</svg>