<?xml version="1.0" encoding="UTF-8"?>
<svg width="24px" height="24px" viewBox="0 0 24 24" version="1.1" xmlns="http://www.w3.org/2000/svg" xmlns:xlink="http://www.w3.org/1999/xlink">
    <!-- Generator: sketchtool 50 (54983) - http://www.bohemiancoding.com/sketch -->
    <title>700B954E-1D2C-40C2-86B3-4B97319FBE43</title>
    <desc>Created with sketchtool.</desc>
    <defs></defs>
    <g id="Page-1" stroke="none" stroke-width="1" fill="none" fill-rule="evenodd" stroke-linejoin="round">
        <g id="Landing-Page-1" transform="translate(-190.000000, -2391.000000)" stroke="#0595DB">
            <g id="Content" transform="translate(150.000000, 324.000000)">
                <g id="Card" transform="translate(0.000000, 2022.000000)">
                    <g id="Intagration" transform="translate(40.000000, 45.000000)">
                        <polygon id="Stroke-6547" points="0.5 23.5 4.5 23.5 4.5 16.5 0.5 16.5"></polygon>
                        <path d="M4.5,22.5 L21.5,22.5 C21.5,21 18,19.5 14,19.5 L7,19.5" id="Stroke-6549" stroke-linecap="round"></path>
                        <path d="M4.5,17.5 L8,17.5 C10.352,17.5 11.5,19 12,19.5" id="Stroke-6550"></path>
                        <path d="M23.5,2.5 C23.5,3.604 21.262,4.5 18.5,4.5 C15.738,4.5 13.5,3.604 13.5,2.5 C13.5,1.396 15.738,0.5 18.5,0.5 C21.262,0.5 23.5,1.396 23.5,2.5 L23.5,2.5 Z" id="Stroke-6551" stroke-linecap="round"></path>
                        <path d="M23.5,2.5 L23.5,11.5 C23.5,12.604 21.262,13.5 18.5,13.5 C15.738,13.5 13.5,12.604 13.5,11.5 L13.5,2.5" id="Stroke-6552" stroke-linecap="round"></path>
                        <path d="M23.5,8.5 C23.5,9.604 21.262,10.5 18.5,10.5 C15.738,10.5 13.5,9.604 13.5,8.5" id="Stroke-6553" stroke-linecap="round"></path>
                        <path d="M23.5,5.5 C23.5,6.604 21.262,7.5 18.5,7.5 C15.738,7.5 13.5,6.604 13.5,5.5" id="Stroke-6554" stroke-linecap="round"></path>
                    </g>
                </g>
            </g>
        </g>
    </g>
</svg>