<?xml version="1.0" encoding="UTF-8"?>
<svg width="25px" height="24px" viewBox="0 0 25 24" version="1.1" xmlns="http://www.w3.org/2000/svg" xmlns:xlink="http://www.w3.org/1999/xlink">
    <!-- Generator: sketchtool 50 (54983) - http://www.bohemiancoding.com/sketch -->
    <title>9735F0A4-E849-410D-A5F6-F016D68B57CA</title>
    <desc>Created with sketchtool.</desc>
    <defs></defs>
    <g id="Page-1" stroke="none" stroke-width="1" fill="none" fill-rule="evenodd" stroke-linecap="round" stroke-linejoin="round">
        <g id="Landing-Page-1" transform="translate(-190.000000, -5718.000000)" stroke="#0595DB">
            <g id="Content" transform="translate(150.000000, 324.000000)">
                <g id="Card" transform="translate(0.000000, 5349.000000)">
                    <g id="Learn" transform="translate(40.000000, 45.000000)">
                        <path d="M9.4365,15.5 L3.0965,17.255 C1.5345,17.84 0.5005,19.333 0.5005,21 L0.5005,23.5 L23.5005,23.5 L23.5005,21 C23.5005,19.333 22.4665,17.84 20.9045,17.255 L14.5475,15.5" id="Stroke-1249"></path>
                        <path d="M9.0005,9.502 C9.0005,8.949 9.4485,9.002 10.0005,9.002 C10.5525,9.002 11.0005,8.949 11.0005,9.502" id="Stroke-1250"></path>
                        <path d="M13.0005,9.502 C13.0005,8.949 13.4485,9.002 14.0005,9.002 C14.5525,9.002 15.0005,8.949 15.0005,9.502" id="Stroke-1251"></path>
                        <path d="M7.0005,6 L7.0005,8.5 C5.5005,8.5 5.5005,11.5 7.0005,11.5 C7.0005,14.5 10.5005,16.5 12.0005,16.5" id="Stroke-1252"></path>
                        <path d="M17.0005,6 L17.0005,8.5 C18.5005,8.5 18.5005,11.5 17.0005,11.5 C17.0005,14.5 13.5005,16.5 12.0005,16.5" id="Stroke-1253"></path>
                        <polygon id="Stroke-1254" points="12.0005 4.5 23.5005 2.5 12.0005 0.5 0.5005 2.5"></polygon>
                        <path d="M7.0005,3.6309 L7.0005,5.9999 C7.0005,5.9999 8.5005,7.4999 12.0005,7.4999 C15.5005,7.4999 17.0005,5.9999 17.0005,5.9999 L17.0005,3.6309" id="Stroke-1255"></path>
                        <path d="M3.0005,2.9346 L3.0005,6.4996" id="Stroke-1256"></path>
                        <polyline id="Stroke-1257" points="3.0005 6.5 1.5005 13.5 4.5005 13.5 3.0005 6.5"></polyline>
                        <polyline id="Stroke-1258" points="6.75 16.25 12.001 21.5 17.259 16.241"></polyline>
                    </g>
                </g>
            </g>
        </g>
    </g>
</svg>