<?xml version="1.0" encoding="UTF-8"?>
<svg width="24px" height="21px" viewBox="0 0 24 21" version="1.1" xmlns="http://www.w3.org/2000/svg" xmlns:xlink="http://www.w3.org/1999/xlink">
    <!-- Generator: sketchtool 50 (54983) - http://www.bohemiancoding.com/sketch -->
    <title>0553C078-B2DB-4C5F-9A7F-A0BDF073E03E</title>
    <desc>Created with sketchtool.</desc>
    <defs></defs>
    <g id="Page-1" stroke="none" stroke-width="1" fill="none" fill-rule="evenodd" stroke-linecap="round" stroke-linejoin="round">
        <g id="Landing-Page-1" transform="translate(-189.000000, -2705.000000)" stroke="#0595DB">
            <g id="Content" transform="translate(150.000000, 324.000000)">
                <g id="Card" transform="translate(0.000000, 2335.000000)">
                    <g id="MultiCloud" transform="translate(40.000000, 47.000000)">
                        <path d="M15.7988,13.5 L18.1948,13.5 C18.1948,13.5 22.4998,12.939 22.4998,8.717 C22.4998,6.042 20.2908,3.843 17.5448,3.943 C16.4718,1.678 14.1718,0.108 11.4998,0.108 C7.9368,0.108 5.0318,2.893 4.8238,6.402 C2.5918,5.936 0.4998,7.635 0.4998,9.912 C0.4998,13.557 4.3258,13.5 4.3258,13.5 L7.1898,13.5" id="Stroke-1679"></path>
                        <path d="M11.5,8 L11.5,19" id="Stroke-1680"></path>
                        <polyline id="Stroke-1681" points="14.5 11 11.5 8 8.5 11"></polyline>
                    </g>
                </g>
            </g>
        </g>
    </g>
</svg>