<?xml version="1.0" encoding="UTF-8"?>
<svg width="24px" height="24px" viewBox="0 0 24 24" version="1.1" xmlns="http://www.w3.org/2000/svg" xmlns:xlink="http://www.w3.org/1999/xlink">
    <!-- Generator: sketchtool 50 (54983) - http://www.bohemiancoding.com/sketch -->
    <title>83D6EAFC-F89D-45F5-9315-F6EEA882D0C1</title>
    <desc>Created with sketchtool.</desc>
    <defs></defs>
    <g id="Page-1" stroke="none" stroke-width="1" fill="none" fill-rule="evenodd" stroke-linejoin="round">
        <g id="Landing-Page-1" transform="translate(-190.000000, -4018.000000)" stroke="#0595DB">
            <g id="Content" transform="translate(150.000000, 324.000000)">
                <g id="Card" transform="translate(0.000000, 3649.000000)">
                    <g id="Openness" transform="translate(40.000000, 45.000000)">
                        <polygon id="Stroke-4114" points="14.5 23.5 20.5 23.5 20.5 20.5 14.5 20.5"></polygon>
                        <path d="M19.5,20.5 L19.5,18.969 C19.5,18.969 22.687,15.813 23.5,15 L23.5,6.937 C23.5,6.937 21,6.032 21,13 L18.031,15.969 L18.719,12.969 C19.063,11.532 17.748,10.918 17.031,12.032 C16.371,13.058 15.5,15.993 15.5,15.993 L15.5,20.5" id="Stroke-4115" stroke-linecap="round"></path>
                        <polygon id="Stroke-4116" points="3.5 23.5 9.5 23.5 9.5 20.5 3.5 20.5"></polygon>
                        <path d="M4.5,20.5 L4.5,18.969 C4.5,18.969 1.5,15.813 0.5,15 L0.5,6.937 C0.5,6.937 3,6.032 3,13 L5.969,15.969 L5.281,12.969 C4.937,11.532 6.252,10.918 6.969,12.032 C7.629,13.058 8.5,15.993 8.5,15.993 L8.5,20.5" id="Stroke-4117" stroke-linecap="round"></path>
                        <polygon id="Stroke-4118" points="11.5 6.5 6.5 3.5 6.5 9.5 11.5 12.5 17.5 9.5 17.5 3.5"></polygon>
                        <polygon id="Stroke-4119" points="12 0.5 6.5 3.5 11.5 6.5 17.5 3.5"></polygon>
                        <path d="M11.5,6.5 L11.5,12.5" id="Stroke-4120"></path>
                    </g>
                </g>
            </g>
        </g>
    </g>
</svg>