<?xml version="1.0" encoding="UTF-8"?>
<svg width="24px" height="24px" viewBox="0 0 24 24" version="1.1" xmlns="http://www.w3.org/2000/svg" xmlns:xlink="http://www.w3.org/1999/xlink">
    <!-- Generator: Sketch 53 (72520) - https://sketchapp.com -->
    <title>Group 1124</title>
    <desc>Created with Sketch.</desc>
    <g id="Streamline-Basic---Lines" stroke="none" stroke-width="1" fill="none" fill-rule="evenodd" stroke-linejoin="round">
        <g id="Icons" transform="translate(-840.000000, -1440.000000)" stroke="#0595DB">
            <g id="Group-1124" transform="translate(840.000000, 1440.000000)">
                <polygon id="Stroke-4316" points="18.8623 10.3652 20.5003 9.0002 18.8623 7.6362 19.8523 5.7472 17.8173 5.1132 18.0103 2.9892 15.8863 3.1822 15.2523 1.1472 13.3653 2.1372 12.0003 0.5002 10.6353 2.1372 8.7473 1.1472 8.1133 3.1822 5.9893 2.9892 6.1823 5.1132 4.1473 5.7472 5.1373 7.6362 3.5003 9.0002 5.1373 10.3652 4.1473 12.2532 6.1823 12.8872 5.9893 15.0112 8.1133 14.8172 8.7473 16.8522 10.6353 15.8622 12.0003 17.5002 13.3653 15.8622 15.2523 16.8522 15.8863 14.8172 18.0103 15.0112 17.8173 12.8872 19.8523 12.2532"></polygon>
                <polyline id="Stroke-4317" points="19.96 14.6328 23.338 20.4818 19.488 19.8298 18.152 23.4998 15.495 19.0128"></polyline>
                <polyline id="Stroke-4318" points="4.0391 14.6328 0.6621 20.4818 4.5121 19.8298 5.8481 23.4998 8.5051 19.0128"></polyline>
                <polyline id="Stroke-4319" stroke-linecap="round" points="15.3076 6.3525 11.3546 11.6475 8.6926 8.9855"></polyline>
            </g>
        </g>
    </g>
</svg>