<?xml version="1.0" encoding="UTF-8"?>
<svg width="24px" height="19px" viewBox="0 0 24 19" version="1.1" xmlns="http://www.w3.org/2000/svg" xmlns:xlink="http://www.w3.org/1999/xlink">
    <!-- Generator: sketchtool 50 (54983) - http://www.bohemiancoding.com/sketch -->
    <title>E64E5077-875D-4AB2-8852-C894A5C2D4A7</title>
    <desc>Created with sketchtool.</desc>
    <defs></defs>
    <g id="Page-1" stroke="none" stroke-width="1" fill="none" fill-rule="evenodd" stroke-linecap="round" stroke-linejoin="round">
        <g id="Landing-Page-1" transform="translate(-190.000000, -3394.000000)" stroke="#0595DB">
            <g id="Content" transform="translate(150.000000, 324.000000)">
                <g id="Card" transform="translate(0.000000, 3023.000000)">
                    <g id="Scale" transform="translate(40.000000, 47.000000)">
                        <path d="M23.5,16.5 C23.5,17.604 22.606,18.5 21.5,18.5 L2.5,18.5 C1.396,18.5 0.5,17.604 0.5,16.5 L0.5,2.5 C0.5,1.396 1.396,0.5 2.5,0.5 L21.5,0.5 C22.606,0.5 23.5,1.396 23.5,2.5 L23.5,16.5 L23.5,16.5 Z" id="Stroke-105"></path>
                        <path d="M0.5,5.5 L23.5,5.5" id="Stroke-106"></path>
                        <path d="M4.5,3 C4.5,3.276 4.276,3.5 4,3.5 C3.724,3.5 3.5,3.276 3.5,3 C3.5,2.724 3.724,2.5 4,2.5 C4.276,2.5 4.5,2.724 4.5,3 L4.5,3 Z" id="Stroke-107"></path>
                        <path d="M7.5,3 C7.5,3.276 7.276,3.5 7,3.5 C6.724,3.5 6.5,3.276 6.5,3 C6.5,2.724 6.724,2.5 7,2.5 C7.276,2.5 7.5,2.724 7.5,3 L7.5,3 Z" id="Stroke-108"></path>
                        <path d="M10.5,3 C10.5,3.276 10.276,3.5 10,3.5 C9.724,3.5 9.5,3.276 9.5,3 C9.5,2.724 9.724,2.5 10,2.5 C10.276,2.5 10.5,2.724 10.5,3 L10.5,3 Z" id="Stroke-109"></path>
                        <polyline id="Stroke-110" points="0.5 12.5 5.5 12.5 7.5 9.5 9.5 14.5 13.5 8.5 16.5 15.5 18.5 12.5 23.5 12.5"></polyline>
                    </g>
                </g>
            </g>
        </g>
    </g>
</svg>