<?xml version="1.0" encoding="UTF-8"?>
<svg width="24px" height="24px" viewBox="0 0 24 24" version="1.1" xmlns="http://www.w3.org/2000/svg" xmlns:xlink="http://www.w3.org/1999/xlink">
    <!-- Generator: sketchtool 50 (54983) - http://www.bohemiancoding.com/sketch -->
    <title>8A42B68D-18A1-4DE6-9879-A1843825569C</title>
    <desc>Created with sketchtool.</desc>
    <defs></defs>
    <g id="Page-1" stroke="none" stroke-width="1" fill="none" fill-rule="evenodd" stroke-linecap="round" stroke-linejoin="round">
        <g id="Landing-Page-1" transform="translate(-190.000000, -1745.000000)" stroke="#0595DB">
            <g id="Content" transform="translate(150.000000, 324.000000)">
                <g id="Card" transform="translate(0.000000, 1376.000000)">
                    <g id="Ux" transform="translate(40.000000, 45.000000)">
                        <polygon id="Stroke-7677" points="0.5 23.5 23.5 23.5 23.5 0.5 0.5 0.5"></polygon>
                        <polygon id="Stroke-7678" points="3.5 15.5 15.5 15.5 15.5 3.5 3.5 3.5"></polygon>
                        <path d="M3.5,3.5 L15.5,15.5" id="Stroke-7679"></path>
                        <path d="M3.5,15.5 L15.5,3.5" id="Stroke-7680"></path>
                        <path d="M13.5,9.5 C13.5,11.71 11.71,13.5 9.5,13.5 C7.29,13.5 5.5,11.71 5.5,9.5 C5.5,7.291 7.29,5.5 9.5,5.5 C11.71,5.5 13.5,7.291 13.5,9.5 L13.5,9.5 Z" id="Stroke-7681"></path>
                        <path d="M19.5,3.5 L21.5,3.5" id="Stroke-7682"></path>
                        <path d="M19.5,5.5 L21.5,5.5" id="Stroke-7683"></path>
                        <path d="M19.5,7.5 L21.5,7.5" id="Stroke-7684"></path>
                        <path d="M19.5,13.5 L21.5,13.5" id="Stroke-7685"></path>
                        <path d="M19.5,15.5 L21.5,15.5" id="Stroke-7686"></path>
                        <polygon id="Stroke-7687" points="18.5 21.5 21.5 21.5 21.5 18.5 18.5 18.5"></polygon>
                        <polygon id="Stroke-7688" points="13.5 21.5 16.5 21.5 16.5 18.5 13.5 18.5"></polygon>
                        <path d="M3.5,18.5 L10.5,18.5" id="Stroke-7689"></path>
                        <path d="M3.5,21.5 L8.5,21.5" id="Stroke-7690"></path>
                    </g>
                </g>
            </g>
        </g>
    </g>
</svg>