<?xml version="1.0" encoding="UTF-8" standalone="yes"?><svg xmlns="http://www.w3.org/2000/svg" xmlns:xlink="http://www.w3.org/1999/xlink" height="355px" style="width:670px;height:355px;" version="1.1" viewBox="0 0 670 355" width="670px"><defs><filter height="300%" id="f1" width="300%" x="-1" y="-1"><feGaussianBlur result="blurOut" stdDeviation="2.0"/><feColorMatrix in="blurOut" result="blurOut2" type="matrix" values="0 0 0 0 0 0 0 0 0 0 0 0 0 0 0 0 0 0 .4 0"/><feOffset dx="4.0" dy="4.0" in="blurOut2" result="blurOut3"/><feBlend in="SourceGraphic" in2="blurOut3" mode="normal"/></filter></defs><g><a xlink:href="https://world.mendix.com/display/refguide6/Project" xlink:title="https://world.mendix.com/display/refguide6/Project"><rect fill="#CFECFE" filter="url(#f1)" height="32" style="stroke: #000000; stroke-width: 1.5;" width="76" x="235.5" y="8"/><ellipse cx="250.5" cy="24" fill="#CFECFE" rx="11" ry="11" style="stroke: #000000; stroke-width: 1.0;"/><path d="M248.6094,28.5625 Q248.3906,28.8281 248.25,28.9063 Q248.1094,28.9844 247.9219,28.9844 Q247.5313,28.9844 247.2891,28.7188 Q247.0469,28.4531 247.0469,27.8594 L247.0469,26.7031 Q247.0469,26.0938 247.2891,25.8359 Q247.5313,25.5781 247.9219,25.5781 Q248.2188,25.5781 248.4219,25.7344 Q248.625,25.8906 248.7344,26.2578 Q248.8438,26.625 248.9531,26.7656 Q249.2031,27.0156 249.8125,27.2813 Q250.4219,27.5469 251.1563,27.5469 Q252.2969,27.5469 253.0156,27.0156 Q253.4844,26.6875 253.4844,26.2188 Q253.4844,25.9063 253.2656,25.625 Q253.0469,25.3438 252.5313,25.1719 Q252.2031,25.0469 251.0469,24.8281 Q249.6563,24.5625 248.9375,24.2031 Q248.2188,23.8438 247.8047,23.1797 Q247.3906,22.5156 247.3906,21.7344 Q247.3906,20.5156 248.4141,19.6016 Q249.4375,18.6875 251.0781,18.6875 Q251.7344,18.6875 252.2891,18.8281 Q252.8438,18.9688 253.3125,19.2656 Q253.6406,18.9531 253.9688,18.9531 Q254.3438,18.9531 254.5781,19.2109 Q254.8125,19.4688 254.8125,20.0781 L254.8125,21.3594 Q254.8125,21.9688 254.5781,22.2266 Q254.3438,22.4844 253.9688,22.4844 Q253.6563,22.4844 253.4219,22.2969 Q253.2344,22.1563 253.1484,21.7344 Q253.0625,21.3125 252.9219,21.125 Q252.6719,20.8125 252.1953,20.6016 Q251.7188,20.3906 251.0781,20.3906 Q250.1563,20.3906 249.625,20.8125 Q249.0938,21.2344 249.0938,21.7031 Q249.0938,22.0156 249.3125,22.3125 Q249.5313,22.6094 249.9531,22.7813 Q250.2344,22.8906 251.5391,23.1484 Q252.8438,23.4063 253.5469,23.7109 Q254.25,24.0156 254.7188,24.6719 Q255.1875,25.3281 255.1875,26.2344 Q255.1875,27.5 254.2969,28.25 Q253.1094,29.25 251.2813,29.25 Q250.5781,29.25 249.9141,29.0781 Q249.25,28.9063 248.6094,28.5625 Z "/><text fill="#000000" font-family="sans-serif" font-size="12" lengthAdjust="spacingAndGlyphs" textLength="38" x="267.5" y="28.9102">Project</text></a><a xlink:href="https://world.mendix.com/display/refguide6/Project" xlink:title="https://world.mendix.com/display/refguide6/Project"><rect fill="#D3D3D3" filter="url(#f1)" height="32" style="stroke: #000000; stroke-width: 1.5;" width="133" x="207" y="118"/><ellipse cx="222" cy="134" fill="#CFECFE" rx="11" ry="11" style="stroke: #000000; stroke-width: 1.0;"/><path d="M219.9375,132.2188 L219.9375,137.2969 L220.5625,137.2969 Q221.1719,137.2969 221.4297,137.5313 Q221.6875,137.7656 221.6875,138.1563 Q221.6875,138.5313 221.4297,138.7656 Q221.1719,139 220.5625,139 L218.3281,139 Q217.7031,139 217.4453,138.7656 Q217.1875,138.5313 217.1875,138.1406 Q217.1875,137.7656 217.4453,137.5313 Q217.7031,137.2969 218.2344,137.2969 L218.2344,130.6406 Q217.7969,130.5938 217.5625,130.3672 Q217.3281,130.1406 217.3281,129.7813 Q217.3281,129.4063 217.5938,129.1719 Q217.8594,128.9375 218.4688,128.9375 L220.3438,128.9375 L222.6563,134.0625 L224.9219,128.9375 L226.8125,128.9375 Q227.4219,128.9375 227.6875,129.1719 Q227.9531,129.4063 227.9531,129.7813 Q227.9531,130.1406 227.7188,130.3672 Q227.4844,130.5938 227.0469,130.6406 L227.0469,137.2969 Q227.5781,137.2969 227.8359,137.5391 Q228.0938,137.7813 228.0938,138.1563 Q228.0938,138.5313 227.8359,138.7656 Q227.5781,139 226.9688,139 L224.7188,139 Q224.1094,139 223.8516,138.7656 Q223.5938,138.5313 223.5938,138.1406 Q223.5938,137.7656 223.8516,137.5313 Q224.1094,137.2969 224.7188,137.2969 L225.3438,137.2969 L225.3438,132.2188 L223.3906,136.6094 L221.9219,136.6094 L219.9375,132.2188 Z "/><text fill="#000000" font-family="sans-serif" font-size="12" font-style="italic" lengthAdjust="spacingAndGlyphs" textLength="95" x="239" y="138.9102">ProjectDocument</text></a><a xlink:href="https://world.mendix.com/display/refguide6/Project+Security" xlink:title="https://world.mendix.com/display/refguide6/Project+Security"><rect fill="#CFECFE" filter="url(#f1)" height="32" style="stroke: #000000; stroke-width: 1.5;" width="119" x="6" y="211"/><ellipse cx="21" cy="227" fill="#CFECFE" rx="11" ry="11" style="stroke: #000000; stroke-width: 1.0;"/><path d="M18.9375,225.2188 L18.9375,230.2969 L19.5625,230.2969 Q20.1719,230.2969 20.4297,230.5313 Q20.6875,230.7656 20.6875,231.1563 Q20.6875,231.5313 20.4297,231.7656 Q20.1719,232 19.5625,232 L17.3281,232 Q16.7031,232 16.4453,231.7656 Q16.1875,231.5313 16.1875,231.1406 Q16.1875,230.7656 16.4453,230.5313 Q16.7031,230.2969 17.2344,230.2969 L17.2344,223.6406 Q16.7969,223.5938 16.5625,223.3672 Q16.3281,223.1406 16.3281,222.7813 Q16.3281,222.4063 16.5938,222.1719 Q16.8594,221.9375 17.4688,221.9375 L19.3438,221.9375 L21.6563,227.0625 L23.9219,221.9375 L25.8125,221.9375 Q26.4219,221.9375 26.6875,222.1719 Q26.9531,222.4063 26.9531,222.7813 Q26.9531,223.1406 26.7188,223.3672 Q26.4844,223.5938 26.0469,223.6406 L26.0469,230.2969 Q26.5781,230.2969 26.8359,230.5391 Q27.0938,230.7813 27.0938,231.1563 Q27.0938,231.5313 26.8359,231.7656 Q26.5781,232 25.9688,232 L23.7188,232 Q23.1094,232 22.8516,231.7656 Q22.5938,231.5313 22.5938,231.1406 Q22.5938,230.7656 22.8516,230.5313 Q23.1094,230.2969 23.7188,230.2969 L24.3438,230.2969 L24.3438,225.2188 L22.3906,229.6094 L20.9219,229.6094 L18.9375,225.2188 Z "/><text fill="#000000" font-family="sans-serif" font-size="12" lengthAdjust="spacingAndGlyphs" textLength="81" x="38" y="231.9102">ProjectSecurity</text></a><a xlink:href="https://world.mendix.com/display/refguide6/Project+Settings" xlink:title="https://world.mendix.com/display/refguide6/Project+Settings"><rect fill="#CFECFE" filter="url(#f1)" height="32" style="stroke: #000000; stroke-width: 1.5;" width="121" x="160" y="211"/><ellipse cx="175" cy="227" fill="#CFECFE" rx="11" ry="11" style="stroke: #000000; stroke-width: 1.0;"/><path d="M172.9375,225.2188 L172.9375,230.2969 L173.5625,230.2969 Q174.1719,230.2969 174.4297,230.5313 Q174.6875,230.7656 174.6875,231.1563 Q174.6875,231.5313 174.4297,231.7656 Q174.1719,232 173.5625,232 L171.3281,232 Q170.7031,232 170.4453,231.7656 Q170.1875,231.5313 170.1875,231.1406 Q170.1875,230.7656 170.4453,230.5313 Q170.7031,230.2969 171.2344,230.2969 L171.2344,223.6406 Q170.7969,223.5938 170.5625,223.3672 Q170.3281,223.1406 170.3281,222.7813 Q170.3281,222.4063 170.5938,222.1719 Q170.8594,221.9375 171.4688,221.9375 L173.3438,221.9375 L175.6563,227.0625 L177.9219,221.9375 L179.8125,221.9375 Q180.4219,221.9375 180.6875,222.1719 Q180.9531,222.4063 180.9531,222.7813 Q180.9531,223.1406 180.7188,223.3672 Q180.4844,223.5938 180.0469,223.6406 L180.0469,230.2969 Q180.5781,230.2969 180.8359,230.5391 Q181.0938,230.7813 181.0938,231.1563 Q181.0938,231.5313 180.8359,231.7656 Q180.5781,232 179.9688,232 L177.7188,232 Q177.1094,232 176.8516,231.7656 Q176.5938,231.5313 176.5938,231.1406 Q176.5938,230.7656 176.8516,230.5313 Q177.1094,230.2969 177.7188,230.2969 L178.3438,230.2969 L178.3438,225.2188 L176.3906,229.6094 L174.9219,229.6094 L172.9375,225.2188 Z "/><text fill="#000000" font-family="sans-serif" font-size="12" lengthAdjust="spacingAndGlyphs" textLength="83" x="192" y="231.9102">ProjectSettings</text></a><a xlink:href="https://world.mendix.com/display/refguide6/System+Texts" xlink:title="https://world.mendix.com/display/refguide6/System+Texts"><rect fill="#CFECFE" filter="url(#f1)" height="32" style="stroke: #000000; stroke-width: 1.5;" width="156" x="316.5" y="211"/><ellipse cx="331.5" cy="227" fill="#CFECFE" rx="11" ry="11" style="stroke: #000000; stroke-width: 1.0;"/><path d="M329.4375,225.2188 L329.4375,230.2969 L330.0625,230.2969 Q330.6719,230.2969 330.9297,230.5313 Q331.1875,230.7656 331.1875,231.1563 Q331.1875,231.5313 330.9297,231.7656 Q330.6719,232 330.0625,232 L327.8281,232 Q327.2031,232 326.9453,231.7656 Q326.6875,231.5313 326.6875,231.1406 Q326.6875,230.7656 326.9453,230.5313 Q327.2031,230.2969 327.7344,230.2969 L327.7344,223.6406 Q327.2969,223.5938 327.0625,223.3672 Q326.8281,223.1406 326.8281,222.7813 Q326.8281,222.4063 327.0938,222.1719 Q327.3594,221.9375 327.9688,221.9375 L329.8438,221.9375 L332.1563,227.0625 L334.4219,221.9375 L336.3125,221.9375 Q336.9219,221.9375 337.1875,222.1719 Q337.4531,222.4063 337.4531,222.7813 Q337.4531,223.1406 337.2188,223.3672 Q336.9844,223.5938 336.5469,223.6406 L336.5469,230.2969 Q337.0781,230.2969 337.3359,230.5391 Q337.5938,230.7813 337.5938,231.1563 Q337.5938,231.5313 337.3359,231.7656 Q337.0781,232 336.4688,232 L334.2188,232 Q333.6094,232 333.3516,231.7656 Q333.0938,231.5313 333.0938,231.1406 Q333.0938,230.7656 333.3516,230.5313 Q333.6094,230.2969 334.2188,230.2969 L334.8438,230.2969 L334.8438,225.2188 L332.8906,229.6094 L331.4219,229.6094 L329.4375,225.2188 Z "/><text fill="#000000" font-family="sans-serif" font-size="12" lengthAdjust="spacingAndGlyphs" textLength="118" x="348.5" y="231.9102">SystemTextCollection</text></a><rect fill="#CFECFE" filter="url(#f1)" height="25.0938" style="stroke: #000000; stroke-width: 1.5;" width="75" x="357" y="321"/><text fill="#000000" font-family="sans-serif" font-size="12" lengthAdjust="spacingAndGlyphs" textLength="63" x="363" y="338.457">SystemText</text><a xlink:href="https://world.mendix.com/display/refguide6/Navigation" xlink:title="https://world.mendix.com/display/refguide6/Navigation"><rect fill="#CFECFE" filter="url(#f1)" height="32" style="stroke: #000000; stroke-width: 1.5;" width="153" x="508" y="211"/><ellipse cx="523" cy="227" fill="#CFECFE" rx="11" ry="11" style="stroke: #000000; stroke-width: 1.0;"/><path d="M520.9375,225.2188 L520.9375,230.2969 L521.5625,230.2969 Q522.1719,230.2969 522.4297,230.5313 Q522.6875,230.7656 522.6875,231.1563 Q522.6875,231.5313 522.4297,231.7656 Q522.1719,232 521.5625,232 L519.3281,232 Q518.7031,232 518.4453,231.7656 Q518.1875,231.5313 518.1875,231.1406 Q518.1875,230.7656 518.4453,230.5313 Q518.7031,230.2969 519.2344,230.2969 L519.2344,223.6406 Q518.7969,223.5938 518.5625,223.3672 Q518.3281,223.1406 518.3281,222.7813 Q518.3281,222.4063 518.5938,222.1719 Q518.8594,221.9375 519.4688,221.9375 L521.3438,221.9375 L523.6563,227.0625 L525.9219,221.9375 L527.8125,221.9375 Q528.4219,221.9375 528.6875,222.1719 Q528.9531,222.4063 528.9531,222.7813 Q528.9531,223.1406 528.7188,223.3672 Q528.4844,223.5938 528.0469,223.6406 L528.0469,230.2969 Q528.5781,230.2969 528.8359,230.5391 Q529.0938,230.7813 529.0938,231.1563 Q529.0938,231.5313 528.8359,231.7656 Q528.5781,232 527.9688,232 L525.7188,232 Q525.1094,232 524.8516,231.7656 Q524.5938,231.5313 524.5938,231.1406 Q524.5938,230.7656 524.8516,230.5313 Q525.1094,230.2969 525.7188,230.2969 L526.3438,230.2969 L526.3438,225.2188 L524.3906,229.6094 L522.9219,229.6094 L520.9375,225.2188 Z "/><text fill="#000000" font-family="sans-serif" font-size="12" lengthAdjust="spacingAndGlyphs" textLength="115" x="540" y="231.9102">NavigationDocument</text></a><path d="M273.5,53.043 C273.5,68.856 273.5,88.566 273.5,104.46 " fill="none" style="stroke: #000000; stroke-width: 1.0;"/><polygon fill="#000000" points="273.5,117.762,277.5,108.762,273.5,112.762,269.5,108.762,273.5,117.762" style="stroke: #000000; stroke-width: 1.0;"/><line style="stroke: #000000; stroke-width: 1.0;" x1="273.5" x2="273.5" y1="112.762" y2="104.762"/><polygon fill="#000000" points="273.5,40.017,269.5,46.017,273.5,52.017,277.5,46.017,273.5,40.017" style="stroke: #000000; stroke-width: 1.0;"/><text fill="#000000" font-family="sans-serif" font-size="13" lengthAdjust="spacingAndGlyphs" textLength="117" x="274.5" y="84.4951">projectDocuments[ ]</text><path d="M220.584,158.151 C182.681,174.733 132.734,196.585 99.898,210.951 " fill="none" style="stroke: #000000; stroke-width: 1.0;"/><polygon fill="none" points="218.024,151.63,239.153,150.027,223.636,164.456,218.024,151.63" style="stroke: #000000; stroke-width: 1.0;"/><path d="M254.436,167.732 C245.835,182.5 236.097,199.221 229.265,210.951 " fill="none" style="stroke: #000000; stroke-width: 1.0;"/><polygon fill="none" points="248.634,163.786,264.748,150.027,260.731,170.832,248.634,163.786" style="stroke: #000000; stroke-width: 1.0;"/><path d="M394.5,256.4878 C394.5,272.5377 394.5,292.3887 394.5,307.7791 " fill="none" style="stroke: #000000; stroke-width: 1.0;"/><polygon fill="#000000" points="394.5,320.8985,398.5,311.8985,394.5,315.8985,390.5,311.8985,394.5,320.8985" style="stroke: #000000; stroke-width: 1.0;"/><line style="stroke: #000000; stroke-width: 1.0;" x1="394.5" x2="394.5" y1="315.8985" y2="307.8986"/><polygon fill="#000000" points="394.5,243.419,390.5,249.419,394.5,255.419,398.5,249.419,394.5,243.419" style="stroke: #000000; stroke-width: 1.0;"/><text fill="#000000" font-family="sans-serif" font-size="13" lengthAdjust="spacingAndGlyphs" textLength="87" x="395.5" y="287.4951">systemTexts[ ]</text><path d="M309.561,162.12 C330.803,178.096 356.877,197.705 374.49,210.951 " fill="none" style="stroke: #000000; stroke-width: 1.0;"/><polygon fill="none" points="305.257,167.642,293.481,150.027,313.672,156.454,305.257,167.642" style="stroke: #000000; stroke-width: 1.0;"/><path d="M344.183,155.682 C401.69,172.509 481.495,195.86 533.068,210.951 " fill="none" style="stroke: #000000; stroke-width: 1.0;"/><polygon fill="none" points="342.085,162.362,324.855,150.027,346.016,148.925,342.085,162.362" style="stroke: #000000; stroke-width: 1.0;"/></g></svg>