<?xml version="1.0" encoding="UTF-8" standalone="yes"?><svg xmlns="http://www.w3.org/2000/svg" xmlns:xlink="http://www.w3.org/1999/xlink" height="252px" style="width:286px;height:252px;" version="1.1" viewBox="0 0 286 252" width="286px"><defs><filter height="300%" id="f1" width="300%" x="-1" y="-1"><feGaussianBlur result="blurOut" stdDeviation="2.0"/><feColorMatrix in="blurOut" result="blurOut2" type="matrix" values="0 0 0 0 0 0 0 0 0 0 0 0 0 0 0 0 0 0 .4 0"/><feOffset dx="4.0" dy="4.0" in="blurOut2" result="blurOut3"/><feBlend in="SourceGraphic" in2="blurOut3" mode="normal"/></filter></defs><g><a xlink:href="https://world.mendix.com/display/refguide6/Modules" xlink:title="https://world.mendix.com/display/refguide6/Modules"><rect fill="#CFECFE" filter="url(#f1)" height="32" style="stroke: #000000; stroke-width: 1.5;" width="78" x="100.5" y="101"/><ellipse cx="115.5" cy="117" fill="#CFECFE" rx="11" ry="11" style="stroke: #000000; stroke-width: 1.0;"/><path d="M113.6094,121.5625 Q113.3906,121.8281 113.25,121.9063 Q113.1094,121.9844 112.9219,121.9844 Q112.5313,121.9844 112.2891,121.7188 Q112.0469,121.4531 112.0469,120.8594 L112.0469,119.7031 Q112.0469,119.0938 112.2891,118.8359 Q112.5313,118.5781 112.9219,118.5781 Q113.2188,118.5781 113.4219,118.7344 Q113.625,118.8906 113.7344,119.2578 Q113.8438,119.625 113.9531,119.7656 Q114.2031,120.0156 114.8125,120.2813 Q115.4219,120.5469 116.1563,120.5469 Q117.2969,120.5469 118.0156,120.0156 Q118.4844,119.6875 118.4844,119.2188 Q118.4844,118.9063 118.2656,118.625 Q118.0469,118.3438 117.5313,118.1719 Q117.2031,118.0469 116.0469,117.8281 Q114.6563,117.5625 113.9375,117.2031 Q113.2188,116.8438 112.8047,116.1797 Q112.3906,115.5156 112.3906,114.7344 Q112.3906,113.5156 113.4141,112.6016 Q114.4375,111.6875 116.0781,111.6875 Q116.7344,111.6875 117.2891,111.8281 Q117.8438,111.9688 118.3125,112.2656 Q118.6406,111.9531 118.9688,111.9531 Q119.3438,111.9531 119.5781,112.2109 Q119.8125,112.4688 119.8125,113.0781 L119.8125,114.3594 Q119.8125,114.9688 119.5781,115.2266 Q119.3438,115.4844 118.9688,115.4844 Q118.6563,115.4844 118.4219,115.2969 Q118.2344,115.1563 118.1484,114.7344 Q118.0625,114.3125 117.9219,114.125 Q117.6719,113.8125 117.1953,113.6016 Q116.7188,113.3906 116.0781,113.3906 Q115.1563,113.3906 114.625,113.8125 Q114.0938,114.2344 114.0938,114.7031 Q114.0938,115.0156 114.3125,115.3125 Q114.5313,115.6094 114.9531,115.7813 Q115.2344,115.8906 116.5391,116.1484 Q117.8438,116.4063 118.5469,116.7109 Q119.25,117.0156 119.7188,117.6719 Q120.1875,118.3281 120.1875,119.2344 Q120.1875,120.5 119.2969,121.25 Q118.1094,122.25 116.2813,122.25 Q115.5781,122.25 114.9141,122.0781 Q114.25,121.9063 113.6094,121.5625 Z "/><text fill="#000000" font-family="sans-serif" font-size="12" lengthAdjust="spacingAndGlyphs" textLength="40" x="132.5" y="121.9102">Module</text></a><rect fill="#CFECFE" filter="url(#f1)" height="32" style="stroke: #000000; stroke-width: 1.5;" width="115" x="6" y="211"/><ellipse cx="21" cy="227" fill="#CFECFE" rx="11" ry="11" style="stroke: #000000; stroke-width: 1.0;"/><path d="M18.9375,225.2188 L18.9375,230.2969 L19.5625,230.2969 Q20.1719,230.2969 20.4297,230.5313 Q20.6875,230.7656 20.6875,231.1563 Q20.6875,231.5313 20.4297,231.7656 Q20.1719,232 19.5625,232 L17.3281,232 Q16.7031,232 16.4453,231.7656 Q16.1875,231.5313 16.1875,231.1406 Q16.1875,230.7656 16.4453,230.5313 Q16.7031,230.2969 17.2344,230.2969 L17.2344,223.6406 Q16.7969,223.5938 16.5625,223.3672 Q16.3281,223.1406 16.3281,222.7813 Q16.3281,222.4063 16.5938,222.1719 Q16.8594,221.9375 17.4688,221.9375 L19.3438,221.9375 L21.6563,227.0625 L23.9219,221.9375 L25.8125,221.9375 Q26.4219,221.9375 26.6875,222.1719 Q26.9531,222.4063 26.9531,222.7813 Q26.9531,223.1406 26.7188,223.3672 Q26.4844,223.5938 26.0469,223.6406 L26.0469,230.2969 Q26.5781,230.2969 26.8359,230.5391 Q27.0938,230.7813 27.0938,231.1563 Q27.0938,231.5313 26.8359,231.7656 Q26.5781,232 25.9688,232 L23.7188,232 Q23.1094,232 22.8516,231.7656 Q22.5938,231.5313 22.5938,231.1406 Q22.5938,230.7656 22.8516,230.5313 Q23.1094,230.2969 23.7188,230.2969 L24.3438,230.2969 L24.3438,225.2188 L22.3906,229.6094 L20.9219,229.6094 L18.9375,225.2188 Z "/><text fill="#000000" font-family="sans-serif" font-size="12" lengthAdjust="spacingAndGlyphs" textLength="77" x="38" y="231.9102">DomainModel</text><rect fill="#CFECFE" filter="url(#f1)" height="32" style="stroke: #000000; stroke-width: 1.5;" width="121" x="156" y="211"/><ellipse cx="171" cy="227" fill="#CFECFE" rx="11" ry="11" style="stroke: #000000; stroke-width: 1.0;"/><path d="M168.9375,225.2188 L168.9375,230.2969 L169.5625,230.2969 Q170.1719,230.2969 170.4297,230.5313 Q170.6875,230.7656 170.6875,231.1563 Q170.6875,231.5313 170.4297,231.7656 Q170.1719,232 169.5625,232 L167.3281,232 Q166.7031,232 166.4453,231.7656 Q166.1875,231.5313 166.1875,231.1406 Q166.1875,230.7656 166.4453,230.5313 Q166.7031,230.2969 167.2344,230.2969 L167.2344,223.6406 Q166.7969,223.5938 166.5625,223.3672 Q166.3281,223.1406 166.3281,222.7813 Q166.3281,222.4063 166.5938,222.1719 Q166.8594,221.9375 167.4688,221.9375 L169.3438,221.9375 L171.6563,227.0625 L173.9219,221.9375 L175.8125,221.9375 Q176.4219,221.9375 176.6875,222.1719 Q176.9531,222.4063 176.9531,222.7813 Q176.9531,223.1406 176.7188,223.3672 Q176.4844,223.5938 176.0469,223.6406 L176.0469,230.2969 Q176.5781,230.2969 176.8359,230.5391 Q177.0938,230.7813 177.0938,231.1563 Q177.0938,231.5313 176.8359,231.7656 Q176.5781,232 175.9688,232 L173.7188,232 Q173.1094,232 172.8516,231.7656 Q172.5938,231.5313 172.5938,231.1406 Q172.5938,230.7656 172.8516,230.5313 Q173.1094,230.2969 173.7188,230.2969 L174.3438,230.2969 L174.3438,225.2188 L172.3906,229.6094 L170.9219,229.6094 L168.9375,225.2188 Z "/><text fill="#000000" font-family="sans-serif" font-size="12" lengthAdjust="spacingAndGlyphs" textLength="83" x="188" y="231.9102">ModuleSecurity</text><rect fill="#CFECFE" filter="url(#f1)" height="32" style="stroke: #000000; stroke-width: 1.5;" width="102" x="88.5" y="8"/><ellipse cx="103.5" cy="24" fill="#CFECFE" rx="11" ry="11" style="stroke: #000000; stroke-width: 1.0;"/><path d="M101.6094,28.5625 Q101.3906,28.8281 101.25,28.9063 Q101.1094,28.9844 100.9219,28.9844 Q100.5313,28.9844 100.2891,28.7188 Q100.0469,28.4531 100.0469,27.8594 L100.0469,26.7031 Q100.0469,26.0938 100.2891,25.8359 Q100.5313,25.5781 100.9219,25.5781 Q101.2188,25.5781 101.4219,25.7344 Q101.625,25.8906 101.7344,26.2578 Q101.8438,26.625 101.9531,26.7656 Q102.2031,27.0156 102.8125,27.2813 Q103.4219,27.5469 104.1563,27.5469 Q105.2969,27.5469 106.0156,27.0156 Q106.4844,26.6875 106.4844,26.2188 Q106.4844,25.9063 106.2656,25.625 Q106.0469,25.3438 105.5313,25.1719 Q105.2031,25.0469 104.0469,24.8281 Q102.6563,24.5625 101.9375,24.2031 Q101.2188,23.8438 100.8047,23.1797 Q100.3906,22.5156 100.3906,21.7344 Q100.3906,20.5156 101.4141,19.6016 Q102.4375,18.6875 104.0781,18.6875 Q104.7344,18.6875 105.2891,18.8281 Q105.8438,18.9688 106.3125,19.2656 Q106.6406,18.9531 106.9688,18.9531 Q107.3438,18.9531 107.5781,19.2109 Q107.8125,19.4688 107.8125,20.0781 L107.8125,21.3594 Q107.8125,21.9688 107.5781,22.2266 Q107.3438,22.4844 106.9688,22.4844 Q106.6563,22.4844 106.4219,22.2969 Q106.2344,22.1563 106.1484,21.7344 Q106.0625,21.3125 105.9219,21.125 Q105.6719,20.8125 105.1953,20.6016 Q104.7188,20.3906 104.0781,20.3906 Q103.1563,20.3906 102.625,20.8125 Q102.0938,21.2344 102.0938,21.7031 Q102.0938,22.0156 102.3125,22.3125 Q102.5313,22.6094 102.9531,22.7813 Q103.2344,22.8906 104.5391,23.1484 Q105.8438,23.4063 106.5469,23.7109 Q107.25,24.0156 107.7188,24.6719 Q108.1875,25.3281 108.1875,26.2344 Q108.1875,27.5 107.2969,28.25 Q106.1094,29.25 104.2813,29.25 Q103.5781,29.25 102.9141,29.0781 Q102.25,28.9063 101.6094,28.5625 Z "/><text fill="#000000" font-family="sans-serif" font-size="12" lengthAdjust="spacingAndGlyphs" textLength="64" x="120.5" y="28.9102">FolderBase</text><path d="M112.248,142.357 C105.9792,148.7125 99.6493,155.8075 94.5,163 C86.6117,174.0182 79.7289,187.3467 74.4656,198.9014 " fill="none" style="stroke: #000000; stroke-width: 1.0;"/><polygon fill="#000000" points="69.2441,210.9758,76.4878,204.3028,71.2287,206.3865,69.145,201.1274,69.2441,210.9758" style="stroke: #000000; stroke-width: 1.0;"/><line style="stroke: #000000; stroke-width: 1.0;" x1="71.2287" x2="74.4042" y1="206.3865" y2="199.0437"/><polygon fill="#000000" points="121.869,133.072,114.7739,134.3602,113.2341,141.405,120.3292,140.1168,121.869,133.072" style="stroke: #000000; stroke-width: 1.0;"/><text fill="#000000" font-family="sans-serif" font-size="13" lengthAdjust="spacingAndGlyphs" textLength="77" x="95.5" y="177.4951">domainModel</text><path d="M161.986,143.3088 C167.26,149.5989 172.729,156.426 177.5,163 C185.878,174.5448 194.316,187.9088 201.189,199.3498 " fill="none" style="stroke: #000000; stroke-width: 1.0;"/><polygon fill="#000000" points="207.957,210.8328,206.8334,201.0482,205.4183,206.5253,199.9413,205.1102,207.957,210.8328" style="stroke: #000000; stroke-width: 1.0;"/><line style="stroke: #000000; stroke-width: 1.0;" x1="205.4183" x2="201.356" y1="206.5253" y2="199.6332"/><polygon fill="#000000" points="153.45,133.369,154.324,140.5269,161.2675,142.4732,160.3935,135.3152,153.45,133.369" style="stroke: #000000; stroke-width: 1.0;"/><text fill="#000000" font-family="sans-serif" font-size="13" lengthAdjust="spacingAndGlyphs" textLength="90" x="189.5" y="177.4951">moduleSecurity</text><path d="M139.5,60.238 C139.5,74.363 139.5,89.88 139.5,100.951 " fill="none" style="stroke: #000000; stroke-width: 1.0;"/><polygon fill="none" points="132.5,60.027,139.5,40.027,146.5,60.027,132.5,60.027" style="stroke: #000000; stroke-width: 1.0;"/></g></svg>