<?xml version="1.0" encoding="UTF-8" standalone="yes"?><svg xmlns="http://www.w3.org/2000/svg" xmlns:xlink="http://www.w3.org/1999/xlink" height="159px" style="width:279px;height:159px;" version="1.1" viewBox="0 0 279 159" width="279px"><defs><filter height="300%" id="f1" width="300%" x="-1" y="-1"><feGaussianBlur result="blurOut" stdDeviation="2.0"/><feColorMatrix in="blurOut" result="blurOut2" type="matrix" values="0 0 0 0 0 0 0 0 0 0 0 0 0 0 0 0 0 0 .4 0"/><feOffset dx="4.0" dy="4.0" in="blurOut2" result="blurOut3"/><feBlend in="SourceGraphic" in2="blurOut3" mode="normal"/></filter></defs><g><a xlink:href="https://world.mendix.com/display/refguide6/Project" xlink:title="https://world.mendix.com/display/refguide6/Project"><rect fill="#CFECFE" filter="url(#f1)" height="32" style="stroke: #000000; stroke-width: 1.5;" width="76" x="113.5" y="8"/><ellipse cx="128.5" cy="24" fill="#CFECFE" rx="11" ry="11" style="stroke: #000000; stroke-width: 1.0;"/><path d="M126.6094,28.5625 Q126.3906,28.8281 126.25,28.9063 Q126.1094,28.9844 125.9219,28.9844 Q125.5313,28.9844 125.2891,28.7188 Q125.0469,28.4531 125.0469,27.8594 L125.0469,26.7031 Q125.0469,26.0938 125.2891,25.8359 Q125.5313,25.5781 125.9219,25.5781 Q126.2188,25.5781 126.4219,25.7344 Q126.625,25.8906 126.7344,26.2578 Q126.8438,26.625 126.9531,26.7656 Q127.2031,27.0156 127.8125,27.2813 Q128.4219,27.5469 129.1563,27.5469 Q130.2969,27.5469 131.0156,27.0156 Q131.4844,26.6875 131.4844,26.2188 Q131.4844,25.9063 131.2656,25.625 Q131.0469,25.3438 130.5313,25.1719 Q130.2031,25.0469 129.0469,24.8281 Q127.6563,24.5625 126.9375,24.2031 Q126.2188,23.8438 125.8047,23.1797 Q125.3906,22.5156 125.3906,21.7344 Q125.3906,20.5156 126.4141,19.6016 Q127.4375,18.6875 129.0781,18.6875 Q129.7344,18.6875 130.2891,18.8281 Q130.8438,18.9688 131.3125,19.2656 Q131.6406,18.9531 131.9688,18.9531 Q132.3438,18.9531 132.5781,19.2109 Q132.8125,19.4688 132.8125,20.0781 L132.8125,21.3594 Q132.8125,21.9688 132.5781,22.2266 Q132.3438,22.4844 131.9688,22.4844 Q131.6563,22.4844 131.4219,22.2969 Q131.2344,22.1563 131.1484,21.7344 Q131.0625,21.3125 130.9219,21.125 Q130.6719,20.8125 130.1953,20.6016 Q129.7188,20.3906 129.0781,20.3906 Q128.1563,20.3906 127.625,20.8125 Q127.0938,21.2344 127.0938,21.7031 Q127.0938,22.0156 127.3125,22.3125 Q127.5313,22.6094 127.9531,22.7813 Q128.2344,22.8906 129.5391,23.1484 Q130.8438,23.4063 131.5469,23.7109 Q132.25,24.0156 132.7188,24.6719 Q133.1875,25.3281 133.1875,26.2344 Q133.1875,27.5 132.2969,28.25 Q131.1094,29.25 129.2813,29.25 Q128.5781,29.25 127.9141,29.0781 Q127.25,28.9063 126.6094,28.5625 Z "/><text fill="#000000" font-family="sans-serif" font-size="12" lengthAdjust="spacingAndGlyphs" textLength="38" x="145.5" y="28.9102">Project</text></a><a xlink:href="https://world.mendix.com/display/refguide6/Project" xlink:title="https://world.mendix.com/display/refguide6/Project"><rect fill="#D3D3D3" filter="url(#f1)" height="32" style="stroke: #000000; stroke-width: 1.5;" width="133" x="6" y="118"/><ellipse cx="21" cy="134" fill="#CFECFE" rx="11" ry="11" style="stroke: #000000; stroke-width: 1.0;"/><path d="M18.9375,132.2188 L18.9375,137.2969 L19.5625,137.2969 Q20.1719,137.2969 20.4297,137.5313 Q20.6875,137.7656 20.6875,138.1563 Q20.6875,138.5313 20.4297,138.7656 Q20.1719,139 19.5625,139 L17.3281,139 Q16.7031,139 16.4453,138.7656 Q16.1875,138.5313 16.1875,138.1406 Q16.1875,137.7656 16.4453,137.5313 Q16.7031,137.2969 17.2344,137.2969 L17.2344,130.6406 Q16.7969,130.5938 16.5625,130.3672 Q16.3281,130.1406 16.3281,129.7813 Q16.3281,129.4063 16.5938,129.1719 Q16.8594,128.9375 17.4688,128.9375 L19.3438,128.9375 L21.6563,134.0625 L23.9219,128.9375 L25.8125,128.9375 Q26.4219,128.9375 26.6875,129.1719 Q26.9531,129.4063 26.9531,129.7813 Q26.9531,130.1406 26.7188,130.3672 Q26.4844,130.5938 26.0469,130.6406 L26.0469,137.2969 Q26.5781,137.2969 26.8359,137.5391 Q27.0938,137.7813 27.0938,138.1563 Q27.0938,138.5313 26.8359,138.7656 Q26.5781,139 25.9688,139 L23.7188,139 Q23.1094,139 22.8516,138.7656 Q22.5938,138.5313 22.5938,138.1406 Q22.5938,137.7656 22.8516,137.5313 Q23.1094,137.2969 23.7188,137.2969 L24.3438,137.2969 L24.3438,132.2188 L22.3906,136.6094 L20.9219,136.6094 L18.9375,132.2188 Z "/><text fill="#000000" font-family="sans-serif" font-size="12" font-style="italic" lengthAdjust="spacingAndGlyphs" textLength="95" x="38" y="138.9102">ProjectDocument</text></a><rect fill="#CFECFE" filter="url(#f1)" height="32" style="stroke: #000000; stroke-width: 1.5;" width="78" x="192.5" y="118"/><ellipse cx="207.5" cy="134" fill="#CFECFE" rx="11" ry="11" style="stroke: #000000; stroke-width: 1.0;"/><path d="M205.6094,138.5625 Q205.3906,138.8281 205.25,138.9063 Q205.1094,138.9844 204.9219,138.9844 Q204.5313,138.9844 204.2891,138.7188 Q204.0469,138.4531 204.0469,137.8594 L204.0469,136.7031 Q204.0469,136.0938 204.2891,135.8359 Q204.5313,135.5781 204.9219,135.5781 Q205.2188,135.5781 205.4219,135.7344 Q205.625,135.8906 205.7344,136.2578 Q205.8438,136.625 205.9531,136.7656 Q206.2031,137.0156 206.8125,137.2813 Q207.4219,137.5469 208.1563,137.5469 Q209.2969,137.5469 210.0156,137.0156 Q210.4844,136.6875 210.4844,136.2188 Q210.4844,135.9063 210.2656,135.625 Q210.0469,135.3438 209.5313,135.1719 Q209.2031,135.0469 208.0469,134.8281 Q206.6563,134.5625 205.9375,134.2031 Q205.2188,133.8438 204.8047,133.1797 Q204.3906,132.5156 204.3906,131.7344 Q204.3906,130.5156 205.4141,129.6016 Q206.4375,128.6875 208.0781,128.6875 Q208.7344,128.6875 209.2891,128.8281 Q209.8438,128.9688 210.3125,129.2656 Q210.6406,128.9531 210.9688,128.9531 Q211.3438,128.9531 211.5781,129.2109 Q211.8125,129.4688 211.8125,130.0781 L211.8125,131.3594 Q211.8125,131.9688 211.5781,132.2266 Q211.3438,132.4844 210.9688,132.4844 Q210.6563,132.4844 210.4219,132.2969 Q210.2344,132.1563 210.1484,131.7344 Q210.0625,131.3125 209.9219,131.125 Q209.6719,130.8125 209.1953,130.6016 Q208.7188,130.3906 208.0781,130.3906 Q207.1563,130.3906 206.625,130.8125 Q206.0938,131.2344 206.0938,131.7031 Q206.0938,132.0156 206.3125,132.3125 Q206.5313,132.6094 206.9531,132.7813 Q207.2344,132.8906 208.5391,133.1484 Q209.8438,133.4063 210.5469,133.7109 Q211.25,134.0156 211.7188,134.6719 Q212.1875,135.3281 212.1875,136.2344 Q212.1875,137.5 211.2969,138.25 Q210.1094,139.25 208.2813,139.25 Q207.5781,139.25 206.9141,139.0781 Q206.25,138.9063 205.6094,138.5625 Z "/><text fill="#000000" font-family="sans-serif" font-size="12" lengthAdjust="spacingAndGlyphs" textLength="40" x="224.5" y="138.9102">Module</text><path d="M101.271,41.837 C88.7176,48.562 76.7712,57.7156 69.5,70 C63.3935,80.3167 63.0589,93.332 64.6761,104.8507 " fill="none" style="stroke: #000000; stroke-width: 1.0;"/><polygon fill="#000000" points="67.36,117.8768,69.4614,108.2547,66.3509,112.9797,61.626,109.8692,67.36,117.8768" style="stroke: #000000; stroke-width: 1.0;"/><line style="stroke: #000000; stroke-width: 1.0;" x1="66.3509" x2="64.7365" y1="112.9797" y2="105.1443"/><polygon fill="#000000" points="113.36,36.111,106.2252,35.0645,102.5151,41.248,109.6499,42.2944,113.36,36.111" style="stroke: #000000; stroke-width: 1.0;"/><text fill="#000000" font-family="sans-serif" font-size="13" lengthAdjust="spacingAndGlyphs" textLength="117" x="70.5" y="84.4951">projectDocuments[ ]</text><path d="M175.888,50.1278 C181.575,56.424 187.442,63.2992 192.5,70 C201.151,81.4604 209.673,94.9045 216.533,106.4234 " fill="none" style="stroke: #000000; stroke-width: 1.0;"/><polygon fill="#000000" points="223.253,117.9821,222.1882,108.191,220.7402,113.6594,215.2718,112.2114,223.253,117.9821" style="stroke: #000000; stroke-width: 1.0;"/><line style="stroke: #000000; stroke-width: 1.0;" x1="220.7402" x2="216.719" y1="113.6594" y2="106.7433"/><polygon fill="#000000" points="166.663,40.212,167.8212,47.3295,174.8366,48.9979,173.6784,41.8804,166.663,40.212" style="stroke: #000000; stroke-width: 1.0;"/><text fill="#000000" font-family="sans-serif" font-size="13" lengthAdjust="spacingAndGlyphs" textLength="61" x="205.5" y="84.4951">modules[ ]</text></g></svg>