<?xml version="1.0" encoding="UTF-8" standalone="yes"?><svg xmlns="http://www.w3.org/2000/svg" xmlns:xlink="http://www.w3.org/1999/xlink" height="159px" style="width:413px;height:159px;" version="1.1" viewBox="0 0 413 159" width="413px"><defs><filter height="300%" id="f1" width="300%" x="-1" y="-1"><feGaussianBlur result="blurOut" stdDeviation="2.0"/><feColorMatrix in="blurOut" result="blurOut2" type="matrix" values="0 0 0 0 0 0 0 0 0 0 0 0 0 0 0 0 0 0 .4 0"/><feOffset dx="4.0" dy="4.0" in="blurOut2" result="blurOut3"/><feBlend in="SourceGraphic" in2="blurOut3" mode="normal"/></filter></defs><g><a xlink:href="https://world.mendix.com/display/refguide6/Modules" xlink:title="https://world.mendix.com/display/refguide6/Modules"><rect fill="#CFECFE" filter="url(#f1)" height="32" style="stroke: #000000; stroke-width: 1.5;" width="78" x="6" y="118"/><ellipse cx="21" cy="134" fill="#CFECFE" rx="11" ry="11" style="stroke: #000000; stroke-width: 1.0;"/><path d="M19.1094,138.5625 Q18.8906,138.8281 18.75,138.9063 Q18.6094,138.9844 18.4219,138.9844 Q18.0313,138.9844 17.7891,138.7188 Q17.5469,138.4531 17.5469,137.8594 L17.5469,136.7031 Q17.5469,136.0938 17.7891,135.8359 Q18.0313,135.5781 18.4219,135.5781 Q18.7188,135.5781 18.9219,135.7344 Q19.125,135.8906 19.2344,136.2578 Q19.3438,136.625 19.4531,136.7656 Q19.7031,137.0156 20.3125,137.2813 Q20.9219,137.5469 21.6563,137.5469 Q22.7969,137.5469 23.5156,137.0156 Q23.9844,136.6875 23.9844,136.2188 Q23.9844,135.9063 23.7656,135.625 Q23.5469,135.3438 23.0313,135.1719 Q22.7031,135.0469 21.5469,134.8281 Q20.1563,134.5625 19.4375,134.2031 Q18.7188,133.8438 18.3047,133.1797 Q17.8906,132.5156 17.8906,131.7344 Q17.8906,130.5156 18.9141,129.6016 Q19.9375,128.6875 21.5781,128.6875 Q22.2344,128.6875 22.7891,128.8281 Q23.3438,128.9688 23.8125,129.2656 Q24.1406,128.9531 24.4688,128.9531 Q24.8438,128.9531 25.0781,129.2109 Q25.3125,129.4688 25.3125,130.0781 L25.3125,131.3594 Q25.3125,131.9688 25.0781,132.2266 Q24.8438,132.4844 24.4688,132.4844 Q24.1563,132.4844 23.9219,132.2969 Q23.7344,132.1563 23.6484,131.7344 Q23.5625,131.3125 23.4219,131.125 Q23.1719,130.8125 22.6953,130.6016 Q22.2188,130.3906 21.5781,130.3906 Q20.6563,130.3906 20.125,130.8125 Q19.5938,131.2344 19.5938,131.7031 Q19.5938,132.0156 19.8125,132.3125 Q20.0313,132.6094 20.4531,132.7813 Q20.7344,132.8906 22.0391,133.1484 Q23.3438,133.4063 24.0469,133.7109 Q24.75,134.0156 25.2188,134.6719 Q25.6875,135.3281 25.6875,136.2344 Q25.6875,137.5 24.7969,138.25 Q23.6094,139.25 21.7813,139.25 Q21.0781,139.25 20.4141,139.0781 Q19.75,138.9063 19.1094,138.5625 Z "/><text fill="#000000" font-family="sans-serif" font-size="12" lengthAdjust="spacingAndGlyphs" textLength="40" x="38" y="138.9102">Module</text></a><rect fill="#D3D3D3" filter="url(#f1)" height="32" style="stroke: #000000; stroke-width: 1.5;" width="101" x="89.5" y="8"/><ellipse cx="104.5" cy="24" fill="#CFECFE" rx="11" ry="11" style="stroke: #000000; stroke-width: 1.0;"/><path d="M102.6094,28.5625 Q102.3906,28.8281 102.25,28.9063 Q102.1094,28.9844 101.9219,28.9844 Q101.5313,28.9844 101.2891,28.7188 Q101.0469,28.4531 101.0469,27.8594 L101.0469,26.7031 Q101.0469,26.0938 101.2891,25.8359 Q101.5313,25.5781 101.9219,25.5781 Q102.2188,25.5781 102.4219,25.7344 Q102.625,25.8906 102.7344,26.2578 Q102.8438,26.625 102.9531,26.7656 Q103.2031,27.0156 103.8125,27.2813 Q104.4219,27.5469 105.1563,27.5469 Q106.2969,27.5469 107.0156,27.0156 Q107.4844,26.6875 107.4844,26.2188 Q107.4844,25.9063 107.2656,25.625 Q107.0469,25.3438 106.5313,25.1719 Q106.2031,25.0469 105.0469,24.8281 Q103.6563,24.5625 102.9375,24.2031 Q102.2188,23.8438 101.8047,23.1797 Q101.3906,22.5156 101.3906,21.7344 Q101.3906,20.5156 102.4141,19.6016 Q103.4375,18.6875 105.0781,18.6875 Q105.7344,18.6875 106.2891,18.8281 Q106.8438,18.9688 107.3125,19.2656 Q107.6406,18.9531 107.9688,18.9531 Q108.3438,18.9531 108.5781,19.2109 Q108.8125,19.4688 108.8125,20.0781 L108.8125,21.3594 Q108.8125,21.9688 108.5781,22.2266 Q108.3438,22.4844 107.9688,22.4844 Q107.6563,22.4844 107.4219,22.2969 Q107.2344,22.1563 107.1484,21.7344 Q107.0625,21.3125 106.9219,21.125 Q106.6719,20.8125 106.1953,20.6016 Q105.7188,20.3906 105.0781,20.3906 Q104.1563,20.3906 103.625,20.8125 Q103.0938,21.2344 103.0938,21.7031 Q103.0938,22.0156 103.3125,22.3125 Q103.5313,22.6094 103.9531,22.7813 Q104.2344,22.8906 105.5391,23.1484 Q106.8438,23.4063 107.5469,23.7109 Q108.25,24.0156 108.7188,24.6719 Q109.1875,25.3281 109.1875,26.2344 Q109.1875,27.5 108.2969,28.25 Q107.1094,29.25 105.2813,29.25 Q104.5781,29.25 103.9141,29.0781 Q103.25,28.9063 102.6094,28.5625 Z "/><text fill="#000000" font-family="sans-serif" font-size="12" font-style="italic" lengthAdjust="spacingAndGlyphs" textLength="63" x="121.5" y="28.9102">FolderBase</text><rect fill="#CFECFE" filter="url(#f1)" height="32" style="stroke: #000000; stroke-width: 1.5;" width="73" x="130.5" y="118"/><ellipse cx="145.5" cy="134" fill="#CFECFE" rx="11" ry="11" style="stroke: #000000; stroke-width: 1.0;"/><path d="M143.6094,138.5625 Q143.3906,138.8281 143.25,138.9063 Q143.1094,138.9844 142.9219,138.9844 Q142.5313,138.9844 142.2891,138.7188 Q142.0469,138.4531 142.0469,137.8594 L142.0469,136.7031 Q142.0469,136.0938 142.2891,135.8359 Q142.5313,135.5781 142.9219,135.5781 Q143.2188,135.5781 143.4219,135.7344 Q143.625,135.8906 143.7344,136.2578 Q143.8438,136.625 143.9531,136.7656 Q144.2031,137.0156 144.8125,137.2813 Q145.4219,137.5469 146.1563,137.5469 Q147.2969,137.5469 148.0156,137.0156 Q148.4844,136.6875 148.4844,136.2188 Q148.4844,135.9063 148.2656,135.625 Q148.0469,135.3438 147.5313,135.1719 Q147.2031,135.0469 146.0469,134.8281 Q144.6563,134.5625 143.9375,134.2031 Q143.2188,133.8438 142.8047,133.1797 Q142.3906,132.5156 142.3906,131.7344 Q142.3906,130.5156 143.4141,129.6016 Q144.4375,128.6875 146.0781,128.6875 Q146.7344,128.6875 147.2891,128.8281 Q147.8438,128.9688 148.3125,129.2656 Q148.6406,128.9531 148.9688,128.9531 Q149.3438,128.9531 149.5781,129.2109 Q149.8125,129.4688 149.8125,130.0781 L149.8125,131.3594 Q149.8125,131.9688 149.5781,132.2266 Q149.3438,132.4844 148.9688,132.4844 Q148.6563,132.4844 148.4219,132.2969 Q148.2344,132.1563 148.1484,131.7344 Q148.0625,131.3125 147.9219,131.125 Q147.6719,130.8125 147.1953,130.6016 Q146.7188,130.3906 146.0781,130.3906 Q145.1563,130.3906 144.625,130.8125 Q144.0938,131.2344 144.0938,131.7031 Q144.0938,132.0156 144.3125,132.3125 Q144.5313,132.6094 144.9531,132.7813 Q145.2344,132.8906 146.5391,133.1484 Q147.8438,133.4063 148.5469,133.7109 Q149.25,134.0156 149.7188,134.6719 Q150.1875,135.3281 150.1875,136.2344 Q150.1875,137.5 149.2969,138.25 Q148.1094,139.25 146.2813,139.25 Q145.5781,139.25 144.9141,139.0781 Q144.25,138.9063 143.6094,138.5625 Z "/><text fill="#000000" font-family="sans-serif" font-size="12" lengthAdjust="spacingAndGlyphs" textLength="35" x="162.5" y="138.9102">Folder</text><rect fill="#D3D3D3" filter="url(#f1)" height="32" style="stroke: #000000; stroke-width: 1.5;" width="95" x="263.5" y="118"/><ellipse cx="278.5" cy="134" fill="#CFECFE" rx="11" ry="11" style="stroke: #000000; stroke-width: 1.0;"/><path d="M276.4375,132.2188 L276.4375,137.2969 L277.0625,137.2969 Q277.6719,137.2969 277.9297,137.5313 Q278.1875,137.7656 278.1875,138.1563 Q278.1875,138.5313 277.9297,138.7656 Q277.6719,139 277.0625,139 L274.8281,139 Q274.2031,139 273.9453,138.7656 Q273.6875,138.5313 273.6875,138.1406 Q273.6875,137.7656 273.9453,137.5313 Q274.2031,137.2969 274.7344,137.2969 L274.7344,130.6406 Q274.2969,130.5938 274.0625,130.3672 Q273.8281,130.1406 273.8281,129.7813 Q273.8281,129.4063 274.0938,129.1719 Q274.3594,128.9375 274.9688,128.9375 L276.8438,128.9375 L279.1563,134.0625 L281.4219,128.9375 L283.3125,128.9375 Q283.9219,128.9375 284.1875,129.1719 Q284.4531,129.4063 284.4531,129.7813 Q284.4531,130.1406 284.2188,130.3672 Q283.9844,130.5938 283.5469,130.6406 L283.5469,137.2969 Q284.0781,137.2969 284.3359,137.5391 Q284.5938,137.7813 284.5938,138.1563 Q284.5938,138.5313 284.3359,138.7656 Q284.0781,139 283.4688,139 L281.2188,139 Q280.6094,139 280.3516,138.7656 Q280.0938,138.5313 280.0938,138.1406 Q280.0938,137.7656 280.3516,137.5313 Q280.6094,137.2969 281.2188,137.2969 L281.8438,137.2969 L281.8438,132.2188 L279.8906,136.6094 L278.4219,136.6094 L276.4375,132.2188 Z "/><text fill="#000000" font-family="sans-serif" font-size="12" font-style="italic" lengthAdjust="spacingAndGlyphs" textLength="57" x="295.5" y="138.9102">Document</text><a xlink:href="https://world.mendix.com/display/refguide6/Modules" xlink:title="https://world.mendix.com/display/refguide6/Modules"><rect fill="#D3D3D3" filter="url(#f1)" height="32" style="stroke: #000000; stroke-width: 1.5;" width="135" x="269.5" y="8"/><ellipse cx="284.5" cy="24" fill="#CFECFE" rx="11" ry="11" style="stroke: #000000; stroke-width: 1.0;"/><path d="M282.4375,22.2188 L282.4375,27.2969 L283.0625,27.2969 Q283.6719,27.2969 283.9297,27.5313 Q284.1875,27.7656 284.1875,28.1563 Q284.1875,28.5313 283.9297,28.7656 Q283.6719,29 283.0625,29 L280.8281,29 Q280.2031,29 279.9453,28.7656 Q279.6875,28.5313 279.6875,28.1406 Q279.6875,27.7656 279.9453,27.5313 Q280.2031,27.2969 280.7344,27.2969 L280.7344,20.6406 Q280.2969,20.5938 280.0625,20.3672 Q279.8281,20.1406 279.8281,19.7813 Q279.8281,19.4063 280.0938,19.1719 Q280.3594,18.9375 280.9688,18.9375 L282.8438,18.9375 L285.1563,24.0625 L287.4219,18.9375 L289.3125,18.9375 Q289.9219,18.9375 290.1875,19.1719 Q290.4531,19.4063 290.4531,19.7813 Q290.4531,20.1406 290.2188,20.3672 Q289.9844,20.5938 289.5469,20.6406 L289.5469,27.2969 Q290.0781,27.2969 290.3359,27.5391 Q290.5938,27.7813 290.5938,28.1563 Q290.5938,28.5313 290.3359,28.7656 Q290.0781,29 289.4688,29 L287.2188,29 Q286.6094,29 286.3516,28.7656 Q286.0938,28.5313 286.0938,28.1406 Q286.0938,27.7656 286.3516,27.5313 Q286.6094,27.2969 287.2188,27.2969 L287.8438,27.2969 L287.8438,22.2188 L285.8906,26.6094 L284.4219,26.6094 L282.4375,22.2188 Z "/><text fill="#000000" font-family="sans-serif" font-size="12" font-style="italic" lengthAdjust="spacingAndGlyphs" textLength="97" x="301.5" y="28.9102">ModuleDocument</text></a><path d="M105.9271,53.8328 C100.4024,59.0179 94.8943,64.5212 90,70 C76.389,85.2363 63.0768,104.5895 54.507,117.7993 " fill="none" style="stroke: #000000; stroke-width: 1.0;"/><polygon fill="none" points="101.4607,48.437,121.046,40.347,110.78,58.8842,101.4607,48.437" style="stroke: #000000; stroke-width: 1.0;"/><path d="M110.444,49.476 C100.2847,60.9328 93.0246,74.9124 100,88 C104.7657,96.9417 112.185,104.4224 120.378,110.5541 " fill="none" style="stroke: #000000; stroke-width: 1.0;"/><polygon fill="#000000" points="131.438,117.847,126.1269,109.5529,127.264,115.0943,121.7226,116.2314,131.438,117.847" style="stroke: #000000; stroke-width: 1.0;"/><line style="stroke: #000000; stroke-width: 1.0;" x1="127.264" x2="120.585" y1="115.0943" y2="110.6901"/><polygon fill="#000000" points="119.834,40.142,112.7588,41.5353,111.3236,48.6021,118.3989,47.2089,119.834,40.142" style="stroke: #000000; stroke-width: 1.0;"/><text fill="#000000" font-family="sans-serif" font-size="13" lengthAdjust="spacingAndGlyphs" textLength="50" x="101" y="84.4951">folders[ ]</text><path d="M152.889,59.3795 C154.024,62.9408 155.086,66.5269 156,70 C160.237,86.1065 163.285,104.9675 165.083,117.8254 " fill="none" style="stroke: #000000; stroke-width: 1.0;"/><polygon fill="none" points="146.179,61.4005,146.131,40.211,159.383,56.7456,146.179,61.4005" style="stroke: #000000; stroke-width: 1.0;"/><path d="M174.123,47.515 C192.641,59.6434 215.982,74.7878 237,88 C249.125,95.622 262.472,103.8018 274.453,111.0692 " fill="none" style="stroke: #000000; stroke-width: 1.0;"/><polygon fill="#000000" points="285.882,117.9779,280.2486,109.8992,281.6029,115.3916,276.1105,116.7458,285.882,117.9779" style="stroke: #000000; stroke-width: 1.0;"/><line style="stroke: #000000; stroke-width: 1.0;" x1="281.6029" x2="274.7565" y1="115.3916" y2="111.2529"/><polygon fill="#000000" points="163.003,40.214,165.8235,46.8506,173.0345,46.7996,170.2139,40.163,163.003,40.214" style="stroke: #000000; stroke-width: 1.0;"/><text fill="#000000" font-family="sans-serif" font-size="13" lengthAdjust="spacingAndGlyphs" textLength="76" x="238" y="84.4951">documents[ ]</text><path d="M328.698,59.4841 C323.975,79.1023 318.297,102.6912 314.668,117.7624 " fill="none" style="stroke: #000000; stroke-width: 1.0;"/><polygon fill="none" points="321.898,57.823,333.385,40.017,335.509,61.0998,321.898,57.823" style="stroke: #000000; stroke-width: 1.0;"/></g></svg>