<?xml version="1.0" encoding="UTF-8" standalone="yes"?><svg xmlns="http://www.w3.org/2000/svg" xmlns:xlink="http://www.w3.org/1999/xlink" height="334px" style="width:946px;height:334px;" version="1.1" viewBox="0 0 946 334" width="946px"><defs><filter height="300%" id="f1" width="300%" x="-1" y="-1"><feGaussianBlur result="blurOut" stdDeviation="2.0"/><feColorMatrix in="blurOut" result="blurOut2" type="matrix" values="0 0 0 0 0 0 0 0 0 0 0 0 0 0 0 0 0 0 .4 0"/><feOffset dx="4.0" dy="4.0" in="blurOut2" result="blurOut3"/><feBlend in="SourceGraphic" in2="blurOut3" mode="normal"/></filter></defs><g><a xlink:href="https://world.mendix.com/display/refguide6/Generate+Document" xlink:title="https://world.mendix.com/display/refguide6/Generate+Document"><rect fill="#CFECFE" filter="url(#f1)" height="25.0938" style="stroke: #000000; stroke-width: 1.5;" width="153" x="467.5" y="94"/><text fill="#000000" font-family="sans-serif" font-size="12" lengthAdjust="spacingAndGlyphs" textLength="141" x="473.5" y="111.457">GenerateDocumentAction</text></a><a xlink:href="https://world.mendix.com/display/refguide6/Generate+Document" xlink:title="https://world.mendix.com/display/refguide6/Generate+Document"><rect fill="#CFECFE" filter="url(#f1)" height="25.0938" style="stroke: #000000; stroke-width: 1.5;" width="226" x="6" y="197"/><text fill="#000000" font-family="sans-serif" font-size="12" lengthAdjust="spacingAndGlyphs" textLength="214" x="12" y="214.457">DocumentTemplateParameterMapping</text></a><rect fill="#CFECFE" filter="url(#f1)" height="25.0938" style="stroke: #000000; stroke-width: 1.5;" width="121" x="267.5" y="197"/><text fill="#000000" font-family="sans-serif" font-size="12" lengthAdjust="spacingAndGlyphs" textLength="109" x="273.5" y="214.457">DocumentTemplate</text><rect fill="#CFECFE" filter="url(#f1)" height="25.0938" style="stroke: #000000; stroke-width: 1.5;" width="125" x="563.5" y="300"/><text fill="#000000" font-family="sans-serif" font-size="12" lengthAdjust="spacingAndGlyphs" textLength="113" x="569.5" y="317.457">MicroflowExpression</text><rect fill="#D3D3D3" filter="url(#f1)" height="25.0938" style="stroke: #000000; stroke-width: 1.5;" width="96" x="496" y="8"/><text fill="#000000" font-family="sans-serif" font-size="12" font-style="italic" lengthAdjust="spacingAndGlyphs" textLength="84" x="502" y="25.457">MicroflowAction</text><path d="M454.268,111.32 C363.087,116.344 228.808,127.221 182,149 C163.884,157.429 147.609,173.127 136.14,186.282 " fill="none" style="stroke: #000000; stroke-width: 1.0;"/><polygon fill="#000000" points="127.702,196.52,136.513,192.1193,130.8822,192.6617,130.3398,187.031,127.702,196.52" style="stroke: #000000; stroke-width: 1.0;"/><line style="stroke: #000000; stroke-width: 1.0;" x1="130.8822" x2="135.97" y1="192.6617" y2="186.488"/><polygon fill="#000000" points="467.393,110.621,461.1883,106.9465,455.4101,111.2606,461.6147,114.9351,467.393,110.621" style="stroke: #000000; stroke-width: 1.0;"/><text fill="#000000" font-family="sans-serif" font-size="13" lengthAdjust="spacingAndGlyphs" textLength="126" x="183" y="163.4951">parameterMappings[ ]</text><path d="M467.368,111.778 C411.355,116.694 342.139,127.119 324,149 C314.2,160.821 317.098,178.916 321.27,192.047 " fill="none" style="stroke: #000000; stroke-width: 1.0;"/><polygon fill="#000000" points="322.972,196.988,323.8223,187.1759,321.3434,192.2607,316.2586,189.7817,322.972,196.988" style="stroke: #000000; stroke-width: 1.0;"/><text fill="#000000" font-family="sans-serif" font-size="13" lengthAdjust="spacingAndGlyphs" textLength="110" x="325" y="163.4951">documentTemplate</text><path d="M521.071,128.212 C498.383,151.332 469.401,189.736 487,222 C506.293,257.3681 546.218,280.8584 578.35,294.8632 " fill="none" style="stroke: #000000; stroke-width: 1.0;"/><polygon fill="#000000" points="590.667,299.9445,583.873,292.8141,586.045,298.0374,580.8217,300.2093,590.667,299.9445" style="stroke: #000000; stroke-width: 1.0;"/><line style="stroke: #000000; stroke-width: 1.0;" x1="586.045" x2="578.6495" y1="298.0374" y2="294.9868"/><polygon fill="#000000" points="530.559,119.022,523.4663,120.3234,521.9396,127.371,529.0323,126.0696,530.559,119.022" style="stroke: #000000; stroke-width: 1.0;"/><text fill="#000000" font-family="sans-serif" font-size="13" lengthAdjust="spacingAndGlyphs" textLength="94" x="488" y="214.9951">marginLeftInInch</text><path d="M556.221,130.955 C565.289,148.81 577.649,174.128 587,197 C599.504,227.5849 611.37,263.8272 618.659,287.2187 " fill="none" style="stroke: #000000; stroke-width: 1.0;"/><polygon fill="#000000" points="622.571,299.9571,623.7528,290.1794,621.1032,295.1774,616.1053,292.5278,622.571,299.9571" style="stroke: #000000; stroke-width: 1.0;"/><line style="stroke: #000000; stroke-width: 1.0;" x1="621.1032" x2="618.7545" y1="295.1774" y2="287.5299"/><polygon fill="#000000" points="550.161,119.168,549.3468,126.333,555.6475,129.8403,556.4617,122.6753,550.161,119.168" style="stroke: #000000; stroke-width: 1.0;"/><text fill="#000000" font-family="sans-serif" font-size="13" lengthAdjust="spacingAndGlyphs" textLength="103" x="598" y="214.9951">marginRightInInch</text><path d="M604.836,123.084 C642.277,136.161 687.309,158.986 710,197 C731.158,232.4455 688.705,270.5059 656.8,292.5976 " fill="none" style="stroke: #000000; stroke-width: 1.0;"/><polygon fill="#000000" points="645.66,299.9798,655.3719,298.3433,649.8281,297.2181,650.9533,291.6743,645.66,299.9798" style="stroke: #000000; stroke-width: 1.0;"/><line style="stroke: #000000; stroke-width: 1.0;" x1="649.8281" x2="656.497" y1="297.2181" y2="292.7986"/><polygon fill="#000000" points="592.472,119.015,596.9207,124.6903,603.8705,122.7666,599.4218,117.0913,592.472,119.015" style="stroke: #000000; stroke-width: 1.0;"/><text fill="#000000" font-family="sans-serif" font-size="13" lengthAdjust="spacingAndGlyphs" textLength="94" x="717" y="214.9951">marginTopInInch</text><path d="M621.266,121.648 C694.733,136.912 797.307,163.585 820,197 C855.246,248.8992 770.149,280.7145 701.687,297.2378 " fill="none" style="stroke: #000000; stroke-width: 1.0;"/><polygon fill="#000000" points="688.693,300.2432,698.3628,302.1129,693.5645,299.1168,696.5605,294.3185,688.693,300.2432" style="stroke: #000000; stroke-width: 1.0;"/><line style="stroke: #000000; stroke-width: 1.0;" x1="693.5645" x2="701.359" y1="299.1168" y2="297.3135"/><polygon fill="#000000" points="608.372,119.023,613.4536,124.1394,620.1309,121.4164,615.0493,116.3001,608.372,119.023" style="stroke: #000000; stroke-width: 1.0;"/><text fill="#000000" font-family="sans-serif" font-size="13" lengthAdjust="spacingAndGlyphs" textLength="115" x="830" y="214.9951">marginBottomInInch</text><path d="M544,53.183 C544,67.456 544,83.422 544,93.919 " fill="none" style="stroke: #000000; stroke-width: 1.0;"/><polygon fill="none" points="537,53.18,544,33.18,551,53.18,537,53.18" style="stroke: #000000; stroke-width: 1.0;"/><path d="M178.334,225.1981 C230.69,237.9117 309.163,256.3463 378,270 C435.561,281.4171 501.052,292.2868 550.274,300.0358 " fill="none" style="stroke: #000000; stroke-width: 1.0;"/><polygon fill="#000000" points="563.384,302.0866,555.1101,296.7441,558.444,301.3141,553.874,304.648,563.384,302.0866" style="stroke: #000000; stroke-width: 1.0;"/><line style="stroke: #000000; stroke-width: 1.0;" x1="558.444" x2="550.54" y1="301.3141" y2="300.0774"/><polygon fill="#000000" points="165.608,222.095,170.4895,227.4026,177.2664,224.938,172.3848,219.6304,165.608,222.095" style="stroke: #000000; stroke-width: 1.0;"/><text fill="#000000" font-family="sans-serif" font-size="13" lengthAdjust="spacingAndGlyphs" textLength="54" x="379" y="266.4951">argument</text></g></svg>