<?xml version="1.0" encoding="UTF-8" standalone="yes"?><svg xmlns="http://www.w3.org/2000/svg" xmlns:xlink="http://www.w3.org/1999/xlink" height="437px" style="width:373px;height:437px;" version="1.1" viewBox="0 0 373 437" width="373px"><defs><filter height="300%" id="f1" width="300%" x="-1" y="-1"><feGaussianBlur result="blurOut" stdDeviation="2.0"/><feColorMatrix in="blurOut" result="blurOut2" type="matrix" values="0 0 0 0 0 0 0 0 0 0 0 0 0 0 0 0 0 0 .4 0"/><feOffset dx="4.0" dy="4.0" in="blurOut2" result="blurOut3"/><feBlend in="SourceGraphic" in2="blurOut3" mode="normal"/></filter></defs><g><a xlink:href="https://world.mendix.com/display/refguide6/Call+Web+Service" xlink:title="https://world.mendix.com/display/refguide6/Call+Web+Service"><rect fill="#CFECFE" filter="url(#f1)" height="25.0938" style="stroke: #000000; stroke-width: 1.5;" width="98" x="53" y="8"/><text fill="#000000" font-family="sans-serif" font-size="12" lengthAdjust="spacingAndGlyphs" textLength="86" x="59" y="25.457">ResultHandling</text></a><rect fill="#CFECFE" filter="url(#f1)" height="25.0938" style="stroke: #000000; stroke-width: 1.5;" width="116" x="44" y="111"/><text fill="#000000" font-family="sans-serif" font-size="12" lengthAdjust="spacingAndGlyphs" textLength="104" x="50" y="128.457">ImportMappingCall</text><rect fill="#CFECFE" filter="url(#f1)" height="25.0938" style="stroke: #000000; stroke-width: 1.5;" width="94" x="6" y="214"/><text fill="#000000" font-family="sans-serif" font-size="12" lengthAdjust="spacingAndGlyphs" textLength="82" x="12" y="231.457">ImportMapping</text><a xlink:href="https://world.mendix.com/display/refguide6/Retrieve" xlink:title="https://world.mendix.com/display/refguide6/Retrieve"><rect fill="#D3D3D3" filter="url(#f1)" height="25.0938" style="stroke: #000000; stroke-width: 1.5;" width="49" x="135.5" y="214"/><text fill="#000000" font-family="sans-serif" font-size="12" font-style="italic" lengthAdjust="spacingAndGlyphs" textLength="37" x="141.5" y="231.457">Range</text></a><a xlink:href="https://world.mendix.com/display/refguide6/Retrieve" xlink:title="https://world.mendix.com/display/refguide6/Retrieve"><rect fill="#CFECFE" filter="url(#f1)" height="25.0938" style="stroke: #000000; stroke-width: 1.5;" width="99" x="67.5" y="300"/><text fill="#000000" font-family="sans-serif" font-size="12" lengthAdjust="spacingAndGlyphs" textLength="87" x="73.5" y="317.457">ConstantRange</text></a><a xlink:href="https://world.mendix.com/display/refguide6/Retrieve" xlink:title="https://world.mendix.com/display/refguide6/Retrieve"><rect fill="#CFECFE" filter="url(#f1)" height="25.0938" style="stroke: #000000; stroke-width: 1.5;" width="93" x="201.5" y="300"/><text fill="#000000" font-family="sans-serif" font-size="12" lengthAdjust="spacingAndGlyphs" textLength="81" x="207.5" y="317.457">CustomRange</text></a><rect fill="#CFECFE" filter="url(#f1)" height="25.0938" style="stroke: #000000; stroke-width: 1.5;" width="125" x="184.5" y="403"/><text fill="#000000" font-family="sans-serif" font-size="12" lengthAdjust="spacingAndGlyphs" textLength="113" x="190.5" y="420.457">MicroflowExpression</text><path d="M102,46.373 C102,61.911 102,81.854 102,97.429 " fill="none" style="stroke: #000000; stroke-width: 1.0;"/><polygon fill="#000000" points="102,110.738,106,101.738,102,105.738,98,101.738,102,110.738" style="stroke: #000000; stroke-width: 1.0;"/><line style="stroke: #000000; stroke-width: 1.0;" x1="102" x2="102.0001" y1="105.738" y2="97.738"/><polygon fill="#000000" points="102,33.086,98,39.086,102,45.086,106,39.086,102,33.086" style="stroke: #000000; stroke-width: 1.0;"/><text fill="#000000" font-family="sans-serif" font-size="13" lengthAdjust="spacingAndGlyphs" textLength="107" x="103" y="77.4951">importMappingCall</text><path d="M84.3777,136.17 C74.837,143.518 63.837,153.893 58,166 C51.5399,179.4 50.7511,196.473 51.3054,208.891 " fill="none" style="stroke: #000000; stroke-width: 1.0;"/><polygon fill="#000000" points="51.6126,213.903,55.0548,204.6753,51.3069,208.9124,47.0698,205.1644,51.6126,213.903" style="stroke: #000000; stroke-width: 1.0;"/><text fill="#000000" font-family="sans-serif" font-size="13" lengthAdjust="spacingAndGlyphs" textLength="49" x="59" y="180.4951">mapping</text><path d="M115.266,147.601 C124.704,164.036 137.33,186.023 146.762,202.447 " fill="none" style="stroke: #000000; stroke-width: 1.0;"/><polygon fill="#000000" points="153.246,213.738,152.2333,203.9413,150.7563,209.402,145.2956,207.9249,153.246,213.738" style="stroke: #000000; stroke-width: 1.0;"/><line style="stroke: #000000; stroke-width: 1.0;" x1="150.7563" x2="146.7715" y1="209.402" y2="202.4645"/><polygon fill="#000000" points="108.653,136.086,108.1719,143.281,114.6284,146.4925,115.1095,139.2974,108.653,136.086" style="stroke: #000000; stroke-width: 1.0;"/><text fill="#000000" font-family="sans-serif" font-size="13" lengthAdjust="spacingAndGlyphs" textLength="32" x="136" y="180.4951">range</text><path d="M144.819,257.157 C137.26,271.923 128.558,288.922 122.928,299.919 " fill="none" style="stroke: #000000; stroke-width: 1.0;"/><polygon fill="none" points="138.677,253.793,154.021,239.18,151.139,260.173,138.677,253.793" style="stroke: #000000; stroke-width: 1.0;"/><path d="M203.244,331.2989 C193.576,337.3281 184.589,345.1172 179,355 C169.408,371.9618 185.135,386.472 203.869,396.9162 " fill="none" style="stroke: #000000; stroke-width: 1.0;"/><polygon fill="#000000" points="215.722,402.8793,209.48,395.2611,211.2554,400.6321,205.8844,402.4076,215.722,402.8793" style="stroke: #000000; stroke-width: 1.0;"/><line style="stroke: #000000; stroke-width: 1.0;" x1="211.2554" x2="204.109" y1="400.6321" y2="397.0368"/><polygon fill="#000000" points="214.742,325.01,207.5585,324.3799,204.2139,330.7685,211.3975,331.3986,214.742,325.01" style="stroke: #000000; stroke-width: 1.0;"/><text fill="#000000" font-family="sans-serif" font-size="13" lengthAdjust="spacingAndGlyphs" textLength="89" x="180" y="369.4951">limitExpression</text><path d="M265.904,335.7517 C272.599,346.7249 277.767,360.3012 274,373 C272.055,379.5564 268.711,386.0459 265.025,391.8769 " fill="none" style="stroke: #000000; stroke-width: 1.0;"/><polygon fill="#000000" points="257.319,402.7314,265.7907,397.7084,260.2135,398.6544,259.2675,393.0772,257.319,402.7314" style="stroke: #000000; stroke-width: 1.0;"/><line style="stroke: #000000; stroke-width: 1.0;" x1="260.2135" x2="264.845" y1="398.6544" y2="392.131"/><polygon fill="#000000" points="258.391,325.031,258.5589,332.2401,265.2781,334.8579,265.1102,327.6487,258.391,325.031" style="stroke: #000000; stroke-width: 1.0;"/><text fill="#000000" font-family="sans-serif" font-size="13" lengthAdjust="spacingAndGlyphs" textLength="96" x="276" y="369.4951">offsetExpression</text><path d="M186.915,253.191 C203.248,268.782 223.3,287.922 235.868,299.919 " fill="none" style="stroke: #000000; stroke-width: 1.0;"/><polygon fill="none" points="181.87,258.053,172.236,239.18,191.537,247.926,181.87,258.053" style="stroke: #000000; stroke-width: 1.0;"/></g></svg>