<?xml version="1.0" encoding="UTF-8" standalone="yes"?><svg xmlns="http://www.w3.org/2000/svg" xmlns:xlink="http://www.w3.org/1999/xlink" height="437px" style="width:518px;height:437px;" version="1.1" viewBox="0 0 518 437" width="518px"><defs><filter height="300%" id="f1" width="300%" x="-1" y="-1"><feGaussianBlur result="blurOut" stdDeviation="2.0"/><feColorMatrix in="blurOut" result="blurOut2" type="matrix" values="0 0 0 0 0 0 0 0 0 0 0 0 0 0 0 0 0 0 .4 0"/><feOffset dx="4.0" dy="4.0" in="blurOut2" result="blurOut3"/><feBlend in="SourceGraphic" in2="blurOut3" mode="normal"/></filter></defs><g><a xlink:href="https://world.mendix.com/display/refguide6/List+Operation" xlink:title="https://world.mendix.com/display/refguide6/List+Operation"><rect fill="#D3D3D3" filter="url(#f1)" height="25.0938" style="stroke: #000000; stroke-width: 1.5;" width="85" x="285" y="8"/><text fill="#000000" font-family="sans-serif" font-size="12" font-style="italic" lengthAdjust="spacingAndGlyphs" textLength="73" x="291" y="25.457">ListOperation</text></a><a xlink:href="https://world.mendix.com/display/refguide6/List+Operation" xlink:title="https://world.mendix.com/display/refguide6/List+Operation"><rect fill="#CFECFE" filter="url(#f1)" height="25.0938" style="stroke: #000000; stroke-width: 1.5;" width="42" x="151.5" y="94"/><text fill="#000000" font-family="sans-serif" font-size="12" lengthAdjust="spacingAndGlyphs" textLength="30" x="157.5" y="111.457">Head</text></a><a xlink:href="https://world.mendix.com/display/refguide6/List+Operation" xlink:title="https://world.mendix.com/display/refguide6/List+Operation"><rect fill="#D3D3D3" filter="url(#f1)" height="25.0938" style="stroke: #000000; stroke-width: 1.5;" width="98" x="228.5" y="94"/><text fill="#000000" font-family="sans-serif" font-size="12" font-style="italic" lengthAdjust="spacingAndGlyphs" textLength="86" x="234.5" y="111.457">InspectAttribute</text></a><rect fill="#CFECFE" filter="url(#f1)" height="25.0938" style="stroke: #000000; stroke-width: 1.5;" width="125" x="6" y="197"/><text fill="#000000" font-family="sans-serif" font-size="12" lengthAdjust="spacingAndGlyphs" textLength="113" x="12" y="214.457">MicroflowExpression</text><rect fill="#CFECFE" filter="url(#f1)" height="25.0938" style="stroke: #000000; stroke-width: 1.5;" width="56" x="166.5" y="197"/><text fill="#000000" font-family="sans-serif" font-size="12" lengthAdjust="spacingAndGlyphs" textLength="44" x="172.5" y="214.457">Attribute</text><a xlink:href="https://world.mendix.com/display/refguide6/List+Operation" xlink:title="https://world.mendix.com/display/refguide6/List+Operation"><rect fill="#CFECFE" filter="url(#f1)" height="25.0938" style="stroke: #000000; stroke-width: 1.5;" width="34" x="361.5" y="94"/><text fill="#000000" font-family="sans-serif" font-size="12" lengthAdjust="spacingAndGlyphs" textLength="22" x="367.5" y="111.457">Sort</text></a><rect fill="#CFECFE" filter="url(#f1)" height="25.0938" style="stroke: #000000; stroke-width: 1.5;" width="78" x="403.5" y="197"/><text fill="#000000" font-family="sans-serif" font-size="12" lengthAdjust="spacingAndGlyphs" textLength="66" x="409.5" y="214.457">SortItemList</text><a xlink:href="https://world.mendix.com/display/refguide6/List+Operation" xlink:title="https://world.mendix.com/display/refguide6/List+Operation"><rect fill="#CFECFE" filter="url(#f1)" height="25.0938" style="stroke: #000000; stroke-width: 1.5;" width="32" x="430.5" y="94"/><text fill="#000000" font-family="sans-serif" font-size="12" lengthAdjust="spacingAndGlyphs" textLength="20" x="436.5" y="111.457">Tail</text></a><a xlink:href="https://world.mendix.com/display/refguide6/List+Operation" xlink:title="https://world.mendix.com/display/refguide6/List+Operation"><rect fill="#CFECFE" filter="url(#f1)" height="25.0938" style="stroke: #000000; stroke-width: 1.5;" width="39" x="258" y="197"/><text fill="#000000" font-family="sans-serif" font-size="12" lengthAdjust="spacingAndGlyphs" textLength="27" x="264" y="214.457">Filter</text></a><a xlink:href="https://world.mendix.com/display/refguide6/List+Operation" xlink:title="https://world.mendix.com/display/refguide6/List+Operation"><rect fill="#CFECFE" filter="url(#f1)" height="25.0938" style="stroke: #000000; stroke-width: 1.5;" width="36" x="332.5" y="197"/><text fill="#000000" font-family="sans-serif" font-size="12" lengthAdjust="spacingAndGlyphs" textLength="24" x="338.5" y="214.457">Find</text></a><rect fill="#CFECFE" filter="url(#f1)" height="25.0938" style="stroke: #000000; stroke-width: 1.5;" width="58" x="413.5" y="300"/><text fill="#000000" font-family="sans-serif" font-size="12" lengthAdjust="spacingAndGlyphs" textLength="46" x="419.5" y="317.457">SortItem</text><rect fill="#CFECFE" filter="url(#f1)" height="25.0938" style="stroke: #000000; stroke-width: 1.5;" width="81" x="402" y="403"/><text fill="#000000" font-family="sans-serif" font-size="12" lengthAdjust="spacingAndGlyphs" textLength="69" x="408" y="420.457">AttributePath</text><path d="M288.346,42.719 C258.417,58.939 218.286,80.687 193.968,93.866 " fill="none" style="stroke: #000000; stroke-width: 1.0;"/><polygon fill="none" points="285.354,36.379,306.273,33.004,292.024,48.687,285.354,36.379" style="stroke: #000000; stroke-width: 1.0;"/><path d="M215.53,119.584 C190.055,126.091 160.875,135.603 136.5,149 C118.276,159.016 100.6922,174.613 87.972,187.326 " fill="none" style="stroke: #000000; stroke-width: 1.0;"/><polygon fill="#000000" points="78.8941,196.741,88.0207,193.039,82.3648,193.1418,82.262,187.4859,78.8941,196.741" style="stroke: #000000; stroke-width: 1.0;"/><line style="stroke: #000000; stroke-width: 1.0;" x1="82.3648" x2="87.9174" y1="193.1418" y2="187.3825"/><polygon fill="#000000" points="228.468,116.451,221.695,113.9758,216.8052,119.2757,223.5782,121.751,228.468,116.451" style="stroke: #000000; stroke-width: 1.0;"/><text fill="#000000" font-family="sans-serif" font-size="13" lengthAdjust="spacingAndGlyphs" textLength="63" x="137.5" y="163.4951">expression</text><path d="M256.359,119.088 C244.562,126.41 230.312,136.785 220.5,149 C210.279,161.724 203.303,179.087 199.171,191.772 " fill="none" style="stroke: #000000; stroke-width: 1.0;"/><polygon fill="#000000" points="197.674,196.554,204.1783,189.1584,199.1666,191.782,196.5431,186.7703,197.674,196.554" style="stroke: #000000; stroke-width: 1.0;"/><text fill="#000000" font-family="sans-serif" font-size="13" lengthAdjust="spacingAndGlyphs" textLength="47" x="221.5" y="163.4951">attribute</text><path d="M310.295,50.404 C301.404,65.341 291.051,82.735 284.393,93.919 " fill="none" style="stroke: #000000; stroke-width: 1.0;"/><polygon fill="none" points="304.303,46.785,320.548,33.18,316.333,53.946,304.303,46.785" style="stroke: #000000; stroke-width: 1.0;"/><path d="M392.954,130.31 C403.375,146.756 417.39,168.873 427.855,185.388 " fill="none" style="stroke: #000000; stroke-width: 1.0;"/><polygon fill="#000000" points="435.047,196.738,433.6094,186.9946,432.3711,192.5143,426.8515,191.276,435.047,196.738" style="stroke: #000000; stroke-width: 1.0;"/><line style="stroke: #000000; stroke-width: 1.0;" x1="432.3711" x2="428.0885" y1="192.5143" y2="185.757"/><polygon fill="#000000" points="385.842,119.086,385.6745,126.2952,392.2647,129.2225,392.4322,122.0134,385.842,119.086" style="stroke: #000000; stroke-width: 1.0;"/><text fill="#000000" font-family="sans-serif" font-size="13" lengthAdjust="spacingAndGlyphs" textLength="68" x="415.5" y="163.4951">sortItemList</text><path d="M345.049,50.404 C354.118,65.341 364.678,82.735 371.469,93.919 " fill="none" style="stroke: #000000; stroke-width: 1.0;"/><polygon fill="none" points="338.987,53.908,334.591,33.18,350.954,46.643,338.987,53.908" style="stroke: #000000; stroke-width: 1.0;"/><path d="M360.59,44.858 C383.38,60.944 412.654,81.609 430.474,94.188 " fill="none" style="stroke: #000000; stroke-width: 1.0;"/><polygon fill="none" points="356.349,50.432,344.046,33.18,364.423,38.995,356.349,50.432" style="stroke: #000000; stroke-width: 1.0;"/><path d="M277.5,139.18 C277.5,158.752 277.5,182.726 277.5,196.738 " fill="none" style="stroke: #000000; stroke-width: 1.0;"/><polygon fill="none" points="270.5,139.086,277.5,119.086,284.5,139.086,270.5,139.086" style="stroke: #000000; stroke-width: 1.0;"/><path d="M297.673,135.411 C312.253,155.583 331.21,181.812 341.999,196.738 " fill="none" style="stroke: #000000; stroke-width: 1.0;"/><polygon fill="none" points="291.916,139.396,285.874,119.086,303.263,131.195,291.916,139.396" style="stroke: #000000; stroke-width: 1.0;"/><path d="M442.5,235.373 C442.5,250.911 442.5,270.854 442.5,286.429 " fill="none" style="stroke: #000000; stroke-width: 1.0;"/><polygon fill="#000000" points="442.5,299.738,446.5,290.738,442.5,294.738,438.5,290.738,442.5,299.738" style="stroke: #000000; stroke-width: 1.0;"/><line style="stroke: #000000; stroke-width: 1.0;" x1="442.5" x2="442.5" y1="294.738" y2="286.738"/><polygon fill="#000000" points="442.5,222.086,438.5,228.086,442.5,234.086,446.5,228.086,442.5,222.086" style="stroke: #000000; stroke-width: 1.0;"/><text fill="#000000" font-family="sans-serif" font-size="13" lengthAdjust="spacingAndGlyphs" textLength="44" x="443.5" y="266.4951">items[ ]</text><path d="M442.5,338.3726 C442.5,353.911 442.5,373.8535 442.5,389.4291 " fill="none" style="stroke: #000000; stroke-width: 1.0;"/><polygon fill="#000000" points="442.5,402.738,446.5,393.738,442.5,397.738,438.5,393.738,442.5,402.738" style="stroke: #000000; stroke-width: 1.0;"/><line style="stroke: #000000; stroke-width: 1.0;" x1="442.5" x2="442.5" y1="397.738" y2="389.7381"/><polygon fill="#000000" points="442.5,325.086,438.5,331.086,442.5,337.086,446.5,331.086,442.5,325.086" style="stroke: #000000; stroke-width: 1.0;"/><text fill="#000000" font-family="sans-serif" font-size="13" lengthAdjust="spacingAndGlyphs" textLength="74" x="443.5" y="369.4951">attributePath</text></g></svg>